<?xml version="1.0" encoding="utf-8" standalone="no"?>
<!DOCTYPE svg PUBLIC "-//W3C//DTD SVG 1.1//EN"
  "http://www.w3.org/Graphics/SVG/1.1/DTD/svg11.dtd">
<!-- Created with matplotlib (https://matplotlib.org/) -->
<svg height="345.6pt" version="1.1" viewBox="0 0 460.8 345.6" width="460.8pt" xmlns="http://www.w3.org/2000/svg" xmlns:xlink="http://www.w3.org/1999/xlink">
 <metadata>
  <rdf:RDF xmlns:cc="http://creativecommons.org/ns#" xmlns:dc="http://purl.org/dc/elements/1.1/" xmlns:rdf="http://www.w3.org/1999/02/22-rdf-syntax-ns#">
   <cc:Work>
    <dc:type rdf:resource="http://purl.org/dc/dcmitype/StillImage"/>
    <dc:date>2023-02-16T20:46:47.680159</dc:date>
    <dc:format>image/svg+xml</dc:format>
    <dc:creator>
     <cc:Agent>
      <dc:title>Matplotlib v3.3.4, https://matplotlib.org/</dc:title>
     </cc:Agent>
    </dc:creator>
   </cc:Work>
  </rdf:RDF>
 </metadata>
 <defs>
  <style type="text/css">*{stroke-linecap:butt;stroke-linejoin:round;}</style>
 </defs>
 <g id="figure_1">
  <g id="patch_1">
   <path d="M 0 345.6 
L 460.8 345.6 
L 460.8 0 
L 0 0 
z
" style="fill:#ffffff;"/>
  </g>
  <g id="axes_1">
   <g id="patch_2">
    <path d="M 57.6 307.584 
L 414.72 307.584 
L 414.72 41.472 
L 57.6 41.472 
z
" style="fill:#ffffff;"/>
   </g>
   <g id="matplotlib.axis_1">
    <g id="xtick_1">
     <g id="line2d_1">
      <path clip-path="url(#p7c37f95305)" d="M 73.215848 307.584 
L 73.215848 41.472 
" style="fill:none;stroke:#b0b0b0;stroke-linecap:square;stroke-width:0.8;"/>
     </g>
     <g id="line2d_2">
      <defs>
       <path d="M 0 0 
L 0 3.5 
" id="mbc24b24225" style="stroke:#000000;stroke-width:0.8;"/>
      </defs>
      <g>
       <use style="stroke:#000000;stroke-width:0.8;" x="73.215848" xlink:href="#mbc24b24225" y="307.584"/>
      </g>
     </g>
     <g id="text_1">
      <!-- 0 -->
      <g transform="translate(70.034598 322.182437)scale(0.1 -0.1)">
       <defs>
        <path d="M 31.78125 3.421875 
Q 39.265625 3.421875 42.96875 11.625 
Q 46.6875 19.828125 46.6875 36.375 
Q 46.6875 52.984375 42.96875 61.1875 
Q 39.265625 69.390625 31.78125 69.390625 
Q 24.3125 69.390625 20.59375 61.1875 
Q 16.890625 52.984375 16.890625 36.375 
Q 16.890625 19.828125 20.59375 11.625 
Q 24.3125 3.421875 31.78125 3.421875 
z
M 31.78125 -1.421875 
Q 19.921875 -1.421875 13.25 8.53125 
Q 6.59375 18.5 6.59375 36.375 
Q 6.59375 54.296875 13.25 64.25 
Q 19.921875 74.21875 31.78125 74.21875 
Q 43.703125 74.21875 50.34375 64.25 
Q 56.984375 54.296875 56.984375 36.375 
Q 56.984375 18.5 50.34375 8.53125 
Q 43.703125 -1.421875 31.78125 -1.421875 
z
" id="DejaVuSerif-48"/>
       </defs>
       <use xlink:href="#DejaVuSerif-48"/>
      </g>
     </g>
    </g>
    <g id="xtick_2">
     <g id="line2d_3">
      <path clip-path="url(#p7c37f95305)" d="M 131.966219 307.584 
L 131.966219 41.472 
" style="fill:none;stroke:#b0b0b0;stroke-linecap:square;stroke-width:0.8;"/>
     </g>
     <g id="line2d_4">
      <g>
       <use style="stroke:#000000;stroke-width:0.8;" x="131.966219" xlink:href="#mbc24b24225" y="307.584"/>
      </g>
     </g>
     <g id="text_2">
      <!-- 200 -->
      <g transform="translate(122.422469 322.182437)scale(0.1 -0.1)">
       <defs>
        <path d="M 12.796875 55.515625 
L 7.328125 55.515625 
L 7.328125 68.5 
Q 12.546875 71.296875 17.84375 72.75 
Q 23.140625 74.21875 28.21875 74.21875 
Q 39.59375 74.21875 46.1875 68.703125 
Q 52.78125 63.1875 52.78125 53.71875 
Q 52.78125 43.015625 37.84375 28.125 
Q 36.671875 27 36.078125 26.421875 
L 17.671875 8.015625 
L 48.09375 8.015625 
L 48.09375 17 
L 53.8125 17 
L 53.8125 0 
L 6.78125 0 
L 6.78125 5.328125 
L 28.90625 27.390625 
Q 36.234375 34.71875 39.359375 40.84375 
Q 42.484375 46.96875 42.484375 53.71875 
Q 42.484375 61.078125 38.640625 65.234375 
Q 34.8125 69.390625 28.078125 69.390625 
Q 21.09375 69.390625 17.28125 65.921875 
Q 13.484375 62.453125 12.796875 55.515625 
z
" id="DejaVuSerif-50"/>
       </defs>
       <use xlink:href="#DejaVuSerif-50"/>
       <use x="63.623047" xlink:href="#DejaVuSerif-48"/>
       <use x="127.246094" xlink:href="#DejaVuSerif-48"/>
      </g>
     </g>
    </g>
    <g id="xtick_3">
     <g id="line2d_5">
      <path clip-path="url(#p7c37f95305)" d="M 190.716589 307.584 
L 190.716589 41.472 
" style="fill:none;stroke:#b0b0b0;stroke-linecap:square;stroke-width:0.8;"/>
     </g>
     <g id="line2d_6">
      <g>
       <use style="stroke:#000000;stroke-width:0.8;" x="190.716589" xlink:href="#mbc24b24225" y="307.584"/>
      </g>
     </g>
     <g id="text_3">
      <!-- 400 -->
      <g transform="translate(181.172839 322.182437)scale(0.1 -0.1)">
       <defs>
        <path d="M 34.90625 24.703125 
L 34.90625 63.484375 
L 10.015625 24.703125 
z
M 56.390625 0 
L 23.1875 0 
L 23.1875 5.171875 
L 34.90625 5.171875 
L 34.90625 19.484375 
L 3.078125 19.484375 
L 3.078125 24.8125 
L 35.015625 74.21875 
L 44.671875 74.21875 
L 44.671875 24.703125 
L 58.59375 24.703125 
L 58.59375 19.484375 
L 44.671875 19.484375 
L 44.671875 5.171875 
L 56.390625 5.171875 
z
" id="DejaVuSerif-52"/>
       </defs>
       <use xlink:href="#DejaVuSerif-52"/>
       <use x="63.623047" xlink:href="#DejaVuSerif-48"/>
       <use x="127.246094" xlink:href="#DejaVuSerif-48"/>
      </g>
     </g>
    </g>
    <g id="xtick_4">
     <g id="line2d_7">
      <path clip-path="url(#p7c37f95305)" d="M 249.466959 307.584 
L 249.466959 41.472 
" style="fill:none;stroke:#b0b0b0;stroke-linecap:square;stroke-width:0.8;"/>
     </g>
     <g id="line2d_8">
      <g>
       <use style="stroke:#000000;stroke-width:0.8;" x="249.466959" xlink:href="#mbc24b24225" y="307.584"/>
      </g>
     </g>
     <g id="text_4">
      <!-- 600 -->
      <g transform="translate(239.923209 322.182437)scale(0.1 -0.1)">
       <defs>
        <path d="M 32.71875 3.421875 
Q 39.59375 3.421875 43.296875 8.46875 
Q 47.015625 13.53125 47.015625 23 
Q 47.015625 32.46875 43.296875 37.515625 
Q 39.59375 42.578125 32.71875 42.578125 
Q 25.734375 42.578125 22.0625 37.6875 
Q 18.40625 32.8125 18.40625 23.578125 
Q 18.40625 13.875 22.109375 8.640625 
Q 25.828125 3.421875 32.71875 3.421875 
z
M 16.796875 40.140625 
Q 20.125 43.796875 24.3125 45.59375 
Q 28.515625 47.40625 33.796875 47.40625 
Q 44.671875 47.40625 51 40.859375 
Q 57.328125 34.328125 57.328125 23 
Q 57.328125 11.921875 50.515625 5.25 
Q 43.703125 -1.421875 32.328125 -1.421875 
Q 19.96875 -1.421875 13.328125 7.78125 
Q 6.6875 17 6.6875 34.078125 
Q 6.6875 53.21875 14.546875 63.71875 
Q 22.40625 74.21875 36.71875 74.21875 
Q 40.578125 74.21875 44.828125 73.484375 
Q 49.078125 72.75 53.515625 71.296875 
L 53.515625 59.28125 
L 48 59.28125 
Q 47.40625 64.203125 44.234375 66.796875 
Q 41.0625 69.390625 35.6875 69.390625 
Q 26.21875 69.390625 21.578125 62.203125 
Q 16.9375 55.03125 16.796875 40.140625 
z
" id="DejaVuSerif-54"/>
       </defs>
       <use xlink:href="#DejaVuSerif-54"/>
       <use x="63.623047" xlink:href="#DejaVuSerif-48"/>
       <use x="127.246094" xlink:href="#DejaVuSerif-48"/>
      </g>
     </g>
    </g>
    <g id="xtick_5">
     <g id="line2d_9">
      <path clip-path="url(#p7c37f95305)" d="M 308.217329 307.584 
L 308.217329 41.472 
" style="fill:none;stroke:#b0b0b0;stroke-linecap:square;stroke-width:0.8;"/>
     </g>
     <g id="line2d_10">
      <g>
       <use style="stroke:#000000;stroke-width:0.8;" x="308.217329" xlink:href="#mbc24b24225" y="307.584"/>
      </g>
     </g>
     <g id="text_5">
      <!-- 800 -->
      <g transform="translate(298.673579 322.182437)scale(0.1 -0.1)">
       <defs>
        <path d="M 46.578125 19.921875 
Q 46.578125 27.734375 42.6875 32.046875 
Q 38.8125 36.375 31.78125 36.375 
Q 24.75 36.375 20.875 32.046875 
Q 17 27.734375 17 19.921875 
Q 17 12.0625 20.875 7.734375 
Q 24.75 3.421875 31.78125 3.421875 
Q 38.8125 3.421875 42.6875 7.734375 
Q 46.578125 12.0625 46.578125 19.921875 
z
M 44.578125 55.328125 
Q 44.578125 61.96875 41.203125 65.671875 
Q 37.84375 69.390625 31.78125 69.390625 
Q 25.78125 69.390625 22.390625 65.671875 
Q 19 61.96875 19 55.328125 
Q 19 48.640625 22.390625 44.921875 
Q 25.78125 41.21875 31.78125 41.21875 
Q 37.84375 41.21875 41.203125 44.921875 
Q 44.578125 48.640625 44.578125 55.328125 
z
M 39.3125 38.8125 
Q 47.609375 37.703125 52.25 32.6875 
Q 56.890625 27.6875 56.890625 19.921875 
Q 56.890625 9.671875 50.390625 4.125 
Q 43.890625 -1.421875 31.78125 -1.421875 
Q 19.734375 -1.421875 13.203125 4.125 
Q 6.6875 9.671875 6.6875 19.921875 
Q 6.6875 27.6875 11.328125 32.6875 
Q 15.96875 37.703125 24.3125 38.8125 
Q 16.9375 40.140625 13 44.40625 
Q 9.078125 48.6875 9.078125 55.328125 
Q 9.078125 64.109375 15.125 69.15625 
Q 21.1875 74.21875 31.78125 74.21875 
Q 42.390625 74.21875 48.4375 69.15625 
Q 54.5 64.109375 54.5 55.328125 
Q 54.5 48.6875 50.5625 44.40625 
Q 46.625 40.140625 39.3125 38.8125 
z
" id="DejaVuSerif-56"/>
       </defs>
       <use xlink:href="#DejaVuSerif-56"/>
       <use x="63.623047" xlink:href="#DejaVuSerif-48"/>
       <use x="127.246094" xlink:href="#DejaVuSerif-48"/>
      </g>
     </g>
    </g>
    <g id="xtick_6">
     <g id="line2d_11">
      <path clip-path="url(#p7c37f95305)" d="M 366.967699 307.584 
L 366.967699 41.472 
" style="fill:none;stroke:#b0b0b0;stroke-linecap:square;stroke-width:0.8;"/>
     </g>
     <g id="line2d_12">
      <g>
       <use style="stroke:#000000;stroke-width:0.8;" x="366.967699" xlink:href="#mbc24b24225" y="307.584"/>
      </g>
     </g>
     <g id="text_6">
      <!-- 1000 -->
      <g transform="translate(354.242699 322.182437)scale(0.1 -0.1)">
       <defs>
        <path d="M 14.203125 0 
L 14.203125 5.171875 
L 26.90625 5.171875 
L 26.90625 65.828125 
L 12.203125 56.296875 
L 12.203125 62.703125 
L 29.984375 74.21875 
L 36.71875 74.21875 
L 36.71875 5.171875 
L 49.421875 5.171875 
L 49.421875 0 
z
" id="DejaVuSerif-49"/>
       </defs>
       <use xlink:href="#DejaVuSerif-49"/>
       <use x="63.623047" xlink:href="#DejaVuSerif-48"/>
       <use x="127.246094" xlink:href="#DejaVuSerif-48"/>
       <use x="190.869141" xlink:href="#DejaVuSerif-48"/>
      </g>
     </g>
    </g>
    <g id="text_7">
     <!-- Time -->
     <g transform="translate(214.680234 341.179469)scale(0.17 -0.17)">
      <defs>
       <path d="M 19.09375 0 
L 19.09375 5.171875 
L 28.421875 5.171875 
L 28.421875 67.09375 
L 6.984375 67.09375 
L 6.984375 55.71875 
L 0.984375 55.71875 
L 0.984375 72.90625 
L 65.71875 72.90625 
L 65.71875 55.71875 
L 59.71875 55.71875 
L 59.71875 67.09375 
L 38.28125 67.09375 
L 38.28125 5.171875 
L 47.609375 5.171875 
L 47.609375 0 
z
" id="DejaVuSerif-84"/>
       <path d="M 9.71875 68.015625 
Q 9.71875 70.265625 11.34375 71.921875 
Q 12.984375 73.578125 15.28125 73.578125 
Q 17.53125 73.578125 19.15625 71.921875 
Q 20.796875 70.265625 20.796875 68.015625 
Q 20.796875 65.71875 19.1875 64.109375 
Q 17.578125 62.5 15.28125 62.5 
Q 12.984375 62.5 11.34375 64.109375 
Q 9.71875 65.71875 9.71875 68.015625 
z
M 21.1875 5.171875 
L 29.6875 5.171875 
L 29.6875 0 
L 3.609375 0 
L 3.609375 5.171875 
L 12.203125 5.171875 
L 12.203125 46.6875 
L 3.609375 46.6875 
L 3.609375 51.90625 
L 21.1875 51.90625 
z
" id="DejaVuSerif-105"/>
       <path d="M 51.8125 41.796875 
Q 54.390625 47.515625 58.421875 50.421875 
Q 62.453125 53.328125 67.828125 53.328125 
Q 75.984375 53.328125 79.984375 48.265625 
Q 83.984375 43.21875 83.984375 33.015625 
L 83.984375 5.171875 
L 92.09375 5.171875 
L 92.09375 0 
L 67.1875 0 
L 67.1875 5.171875 
L 75 5.171875 
L 75 31.984375 
Q 75 39.9375 72.65625 43.3125 
Q 70.3125 46.6875 64.890625 46.6875 
Q 58.890625 46.6875 55.734375 42.140625 
Q 52.59375 37.59375 52.59375 28.90625 
L 52.59375 5.171875 
L 60.40625 5.171875 
L 60.40625 0 
L 35.796875 0 
L 35.796875 5.171875 
L 43.609375 5.171875 
L 43.609375 32.328125 
Q 43.609375 40.09375 41.265625 43.390625 
Q 38.921875 46.6875 33.5 46.6875 
Q 27.484375 46.6875 24.328125 42.140625 
Q 21.1875 37.59375 21.1875 28.90625 
L 21.1875 5.171875 
L 29 5.171875 
L 29 0 
L 4.109375 0 
L 4.109375 5.171875 
L 12.203125 5.171875 
L 12.203125 46.78125 
L 3.609375 46.78125 
L 3.609375 51.90625 
L 21.1875 51.90625 
L 21.1875 42.671875 
Q 23.6875 47.859375 27.53125 50.59375 
Q 31.390625 53.328125 36.28125 53.328125 
Q 42.328125 53.328125 46.375 50.3125 
Q 50.4375 47.3125 51.8125 41.796875 
z
" id="DejaVuSerif-109"/>
       <path d="M 54.203125 25 
L 15.484375 25 
L 15.484375 24.609375 
Q 15.484375 14.109375 19.4375 8.765625 
Q 23.390625 3.421875 31.109375 3.421875 
Q 37.015625 3.421875 40.796875 6.515625 
Q 44.578125 9.625 46.09375 15.71875 
L 53.328125 15.71875 
Q 51.171875 7.171875 45.375 2.875 
Q 39.59375 -1.421875 30.171875 -1.421875 
Q 18.796875 -1.421875 11.890625 6.078125 
Q 4.984375 13.578125 4.984375 25.984375 
Q 4.984375 38.28125 11.765625 45.796875 
Q 18.5625 53.328125 29.59375 53.328125 
Q 41.359375 53.328125 47.65625 46.0625 
Q 53.953125 38.8125 54.203125 25 
z
M 43.609375 30.171875 
Q 43.3125 39.265625 39.765625 43.875 
Q 36.234375 48.484375 29.59375 48.484375 
Q 23.390625 48.484375 19.828125 43.84375 
Q 16.265625 39.203125 15.484375 30.171875 
z
" id="DejaVuSerif-101"/>
      </defs>
      <use xlink:href="#DejaVuSerif-84"/>
      <use x="66.699219" xlink:href="#DejaVuSerif-105"/>
      <use x="98.681641" xlink:href="#DejaVuSerif-109"/>
      <use x="193.505859" xlink:href="#DejaVuSerif-101"/>
     </g>
    </g>
   </g>
   <g id="matplotlib.axis_2">
    <g id="ytick_1">
     <g id="line2d_13">
      <path clip-path="url(#p7c37f95305)" d="M 57.6 307.584 
L 414.72 307.584 
" style="fill:none;stroke:#b0b0b0;stroke-linecap:square;stroke-width:0.8;"/>
     </g>
     <g id="line2d_14">
      <defs>
       <path d="M 0 0 
L -3.5 0 
" id="m18bdea74c4" style="stroke:#000000;stroke-width:0.8;"/>
      </defs>
      <g>
       <use style="stroke:#000000;stroke-width:0.8;" x="57.6" xlink:href="#m18bdea74c4" y="307.584"/>
      </g>
     </g>
     <g id="text_8">
      <!-- −0.4 -->
      <g transform="translate(26.317187 311.383219)scale(0.1 -0.1)">
       <defs>
        <path d="M 10.59375 35.296875 
L 73.1875 35.296875 
L 73.1875 27.390625 
L 10.59375 27.390625 
z
" id="DejaVuSerif-8722"/>
        <path d="M 9.421875 5.078125 
Q 9.421875 7.8125 11.28125 9.71875 
Q 13.140625 11.625 15.921875 11.625 
Q 18.609375 11.625 20.5 9.71875 
Q 22.40625 7.8125 22.40625 5.078125 
Q 22.40625 2.390625 20.5 0.484375 
Q 18.609375 -1.421875 15.921875 -1.421875 
Q 13.140625 -1.421875 11.28125 0.453125 
Q 9.421875 2.34375 9.421875 5.078125 
z
" id="DejaVuSerif-46"/>
       </defs>
       <use xlink:href="#DejaVuSerif-8722"/>
       <use x="83.789062" xlink:href="#DejaVuSerif-48"/>
       <use x="147.412109" xlink:href="#DejaVuSerif-46"/>
       <use x="179.199219" xlink:href="#DejaVuSerif-52"/>
      </g>
     </g>
    </g>
    <g id="ytick_2">
     <g id="line2d_15">
      <path clip-path="url(#p7c37f95305)" d="M 57.6 274.32 
L 414.72 274.32 
" style="fill:none;stroke:#b0b0b0;stroke-linecap:square;stroke-width:0.8;"/>
     </g>
     <g id="line2d_16">
      <g>
       <use style="stroke:#000000;stroke-width:0.8;" x="57.6" xlink:href="#m18bdea74c4" y="274.32"/>
      </g>
     </g>
     <g id="text_9">
      <!-- −0.3 -->
      <g transform="translate(26.317187 278.119219)scale(0.1 -0.1)">
       <defs>
        <path d="M 9.71875 69.828125 
Q 15.4375 71.96875 20.671875 73.09375 
Q 25.921875 74.21875 30.515625 74.21875 
Q 41.21875 74.21875 47.21875 69.59375 
Q 53.21875 64.984375 53.21875 56.78125 
Q 53.21875 50.203125 49.0625 45.78125 
Q 44.921875 41.359375 37.3125 39.796875 
Q 46.296875 38.53125 51.25 33.28125 
Q 56.203125 28.03125 56.203125 19.671875 
Q 56.203125 9.46875 49.34375 4.015625 
Q 42.484375 -1.421875 29.59375 -1.421875 
Q 23.875 -1.421875 18.421875 -0.1875 
Q 12.984375 1.03125 7.625 3.515625 
L 7.625 17.671875 
L 13.09375 17.671875 
Q 13.578125 10.640625 17.828125 7.03125 
Q 22.078125 3.421875 29.78125 3.421875 
Q 37.25 3.421875 41.578125 7.734375 
Q 45.90625 12.0625 45.90625 19.578125 
Q 45.90625 28.171875 41.453125 32.59375 
Q 37.015625 37.015625 28.421875 37.015625 
L 23.78125 37.015625 
L 23.78125 42 
L 26.21875 42 
Q 34.765625 42 39.03125 45.53125 
Q 43.3125 49.078125 43.3125 56.203125 
Q 43.3125 62.59375 39.796875 65.984375 
Q 36.28125 69.390625 29.6875 69.390625 
Q 23.09375 69.390625 19.453125 66.265625 
Q 15.828125 63.140625 15.1875 56.984375 
L 9.71875 56.984375 
z
" id="DejaVuSerif-51"/>
       </defs>
       <use xlink:href="#DejaVuSerif-8722"/>
       <use x="83.789062" xlink:href="#DejaVuSerif-48"/>
       <use x="147.412109" xlink:href="#DejaVuSerif-46"/>
       <use x="179.199219" xlink:href="#DejaVuSerif-51"/>
      </g>
     </g>
    </g>
    <g id="ytick_3">
     <g id="line2d_17">
      <path clip-path="url(#p7c37f95305)" d="M 57.6 241.056 
L 414.72 241.056 
" style="fill:none;stroke:#b0b0b0;stroke-linecap:square;stroke-width:0.8;"/>
     </g>
     <g id="line2d_18">
      <g>
       <use style="stroke:#000000;stroke-width:0.8;" x="57.6" xlink:href="#m18bdea74c4" y="241.056"/>
      </g>
     </g>
     <g id="text_10">
      <!-- −0.2 -->
      <g transform="translate(26.317187 244.855219)scale(0.1 -0.1)">
       <use xlink:href="#DejaVuSerif-8722"/>
       <use x="83.789062" xlink:href="#DejaVuSerif-48"/>
       <use x="147.412109" xlink:href="#DejaVuSerif-46"/>
       <use x="179.199219" xlink:href="#DejaVuSerif-50"/>
      </g>
     </g>
    </g>
    <g id="ytick_4">
     <g id="line2d_19">
      <path clip-path="url(#p7c37f95305)" d="M 57.6 207.792 
L 414.72 207.792 
" style="fill:none;stroke:#b0b0b0;stroke-linecap:square;stroke-width:0.8;"/>
     </g>
     <g id="line2d_20">
      <g>
       <use style="stroke:#000000;stroke-width:0.8;" x="57.6" xlink:href="#m18bdea74c4" y="207.792"/>
      </g>
     </g>
     <g id="text_11">
      <!-- −0.1 -->
      <g transform="translate(26.317187 211.591219)scale(0.1 -0.1)">
       <use xlink:href="#DejaVuSerif-8722"/>
       <use x="83.789062" xlink:href="#DejaVuSerif-48"/>
       <use x="147.412109" xlink:href="#DejaVuSerif-46"/>
       <use x="179.199219" xlink:href="#DejaVuSerif-49"/>
      </g>
     </g>
    </g>
    <g id="ytick_5">
     <g id="line2d_21">
      <path clip-path="url(#p7c37f95305)" d="M 57.6 174.528 
L 414.72 174.528 
" style="fill:none;stroke:#b0b0b0;stroke-linecap:square;stroke-width:0.8;"/>
     </g>
     <g id="line2d_22">
      <g>
       <use style="stroke:#000000;stroke-width:0.8;" x="57.6" xlink:href="#m18bdea74c4" y="174.528"/>
      </g>
     </g>
     <g id="text_12">
      <!-- 0.0 -->
      <g transform="translate(34.696875 178.327219)scale(0.1 -0.1)">
       <use xlink:href="#DejaVuSerif-48"/>
       <use x="63.623047" xlink:href="#DejaVuSerif-46"/>
       <use x="95.410156" xlink:href="#DejaVuSerif-48"/>
      </g>
     </g>
    </g>
    <g id="ytick_6">
     <g id="line2d_23">
      <path clip-path="url(#p7c37f95305)" d="M 57.6 141.264 
L 414.72 141.264 
" style="fill:none;stroke:#b0b0b0;stroke-linecap:square;stroke-width:0.8;"/>
     </g>
     <g id="line2d_24">
      <g>
       <use style="stroke:#000000;stroke-width:0.8;" x="57.6" xlink:href="#m18bdea74c4" y="141.264"/>
      </g>
     </g>
     <g id="text_13">
      <!-- 0.1 -->
      <g transform="translate(34.696875 145.063219)scale(0.1 -0.1)">
       <use xlink:href="#DejaVuSerif-48"/>
       <use x="63.623047" xlink:href="#DejaVuSerif-46"/>
       <use x="95.410156" xlink:href="#DejaVuSerif-49"/>
      </g>
     </g>
    </g>
    <g id="ytick_7">
     <g id="line2d_25">
      <path clip-path="url(#p7c37f95305)" d="M 57.6 108 
L 414.72 108 
" style="fill:none;stroke:#b0b0b0;stroke-linecap:square;stroke-width:0.8;"/>
     </g>
     <g id="line2d_26">
      <g>
       <use style="stroke:#000000;stroke-width:0.8;" x="57.6" xlink:href="#m18bdea74c4" y="108"/>
      </g>
     </g>
     <g id="text_14">
      <!-- 0.2 -->
      <g transform="translate(34.696875 111.799219)scale(0.1 -0.1)">
       <use xlink:href="#DejaVuSerif-48"/>
       <use x="63.623047" xlink:href="#DejaVuSerif-46"/>
       <use x="95.410156" xlink:href="#DejaVuSerif-50"/>
      </g>
     </g>
    </g>
    <g id="ytick_8">
     <g id="line2d_27">
      <path clip-path="url(#p7c37f95305)" d="M 57.6 74.736 
L 414.72 74.736 
" style="fill:none;stroke:#b0b0b0;stroke-linecap:square;stroke-width:0.8;"/>
     </g>
     <g id="line2d_28">
      <g>
       <use style="stroke:#000000;stroke-width:0.8;" x="57.6" xlink:href="#m18bdea74c4" y="74.736"/>
      </g>
     </g>
     <g id="text_15">
      <!-- 0.3 -->
      <g transform="translate(34.696875 78.535219)scale(0.1 -0.1)">
       <use xlink:href="#DejaVuSerif-48"/>
       <use x="63.623047" xlink:href="#DejaVuSerif-46"/>
       <use x="95.410156" xlink:href="#DejaVuSerif-51"/>
      </g>
     </g>
    </g>
    <g id="ytick_9">
     <g id="line2d_29">
      <path clip-path="url(#p7c37f95305)" d="M 57.6 41.472 
L 414.72 41.472 
" style="fill:none;stroke:#b0b0b0;stroke-linecap:square;stroke-width:0.8;"/>
     </g>
     <g id="line2d_30">
      <g>
       <use style="stroke:#000000;stroke-width:0.8;" x="57.6" xlink:href="#m18bdea74c4" y="41.472"/>
      </g>
     </g>
     <g id="text_16">
      <!-- 0.4 -->
      <g transform="translate(34.696875 45.271219)scale(0.1 -0.1)">
       <use xlink:href="#DejaVuSerif-48"/>
       <use x="63.623047" xlink:href="#DejaVuSerif-46"/>
       <use x="95.410156" xlink:href="#DejaVuSerif-52"/>
      </g>
     </g>
    </g>
    <g id="text_17">
     <!-- Speed -->
     <g transform="translate(18.781719 201.295031)rotate(-90)scale(0.17 -0.17)">
      <defs>
       <path d="M 9.28125 3.515625 
L 9.28125 20.125 
L 14.890625 20.0625 
Q 15.140625 11.765625 19.703125 7.78125 
Q 24.265625 3.8125 33.59375 3.8125 
Q 42.28125 3.8125 46.84375 7.25 
Q 51.421875 10.6875 51.421875 17.28125 
Q 51.421875 22.5625 48.65625 25.390625 
Q 45.90625 28.21875 37.015625 30.90625 
L 27.390625 33.796875 
Q 16.9375 36.96875 12.671875 41.703125 
Q 8.40625 46.4375 8.40625 54.6875 
Q 8.40625 63.96875 14.984375 69.09375 
Q 21.578125 74.21875 33.5 74.21875 
Q 38.578125 74.21875 44.625 73.109375 
Q 50.6875 72.015625 57.515625 69.921875 
L 57.515625 54.390625 
L 52 54.390625 
Q 51.171875 62.109375 46.84375 65.546875 
Q 42.53125 69 33.6875 69 
Q 25.984375 69 21.953125 65.84375 
Q 17.921875 62.703125 17.921875 56.6875 
Q 17.921875 51.46875 20.9375 48.484375 
Q 23.96875 45.515625 33.796875 42.578125 
L 42.828125 39.890625 
Q 52.734375 36.921875 56.953125 32.296875 
Q 61.1875 27.6875 61.1875 19.921875 
Q 61.1875 9.328125 54.390625 3.953125 
Q 47.609375 -1.421875 34.1875 -1.421875 
Q 28.171875 -1.421875 21.9375 -0.1875 
Q 15.71875 1.03125 9.28125 3.515625 
z
" id="DejaVuSerif-83"/>
       <path d="M 20.515625 28.515625 
L 20.515625 23.390625 
Q 20.515625 14.015625 24.09375 9.109375 
Q 27.6875 4.203125 34.515625 4.203125 
Q 41.40625 4.203125 44.9375 9.71875 
Q 48.484375 15.234375 48.484375 25.984375 
Q 48.484375 36.765625 44.9375 42.234375 
Q 41.40625 47.703125 34.515625 47.703125 
Q 27.6875 47.703125 24.09375 42.765625 
Q 20.515625 37.84375 20.515625 28.515625 
z
M 11.53125 46.6875 
L 2.875 46.6875 
L 2.875 51.90625 
L 20.515625 51.90625 
L 20.515625 43.796875 
Q 23.140625 48.6875 27.21875 51 
Q 31.296875 53.328125 37.3125 53.328125 
Q 46.875 53.328125 52.921875 45.75 
Q 58.984375 38.1875 58.984375 25.984375 
Q 58.984375 13.765625 52.921875 6.171875 
Q 46.875 -1.421875 37.3125 -1.421875 
Q 31.296875 -1.421875 27.21875 0.890625 
Q 23.140625 3.21875 20.515625 8.109375 
L 20.515625 -15.578125 
L 29 -15.578125 
L 29 -20.796875 
L 2.875 -20.796875 
L 2.875 -15.578125 
L 11.53125 -15.578125 
z
" id="DejaVuSerif-112"/>
       <path d="M 52.484375 5.171875 
L 61.078125 5.171875 
L 61.078125 0 
L 43.5 0 
L 43.5 8.109375 
Q 40.875 3.21875 36.796875 0.890625 
Q 32.71875 -1.421875 26.703125 -1.421875 
Q 17.140625 -1.421875 11.0625 6.171875 
Q 4.984375 13.765625 4.984375 25.984375 
Q 4.984375 38.1875 11.03125 45.75 
Q 17.09375 53.328125 26.703125 53.328125 
Q 32.71875 53.328125 36.796875 51 
Q 40.875 48.6875 43.5 43.796875 
L 43.5 70.796875 
L 35.015625 70.796875 
L 35.015625 75.984375 
L 52.484375 75.984375 
z
M 43.5 23.390625 
L 43.5 28.515625 
Q 43.5 37.84375 39.90625 42.765625 
Q 36.328125 47.703125 29.5 47.703125 
Q 22.5625 47.703125 19.015625 42.234375 
Q 15.484375 36.765625 15.484375 25.984375 
Q 15.484375 15.234375 19.015625 9.71875 
Q 22.5625 4.203125 29.5 4.203125 
Q 36.328125 4.203125 39.90625 9.109375 
Q 43.5 14.015625 43.5 23.390625 
z
" id="DejaVuSerif-100"/>
      </defs>
      <use xlink:href="#DejaVuSerif-83"/>
      <use x="68.505859" xlink:href="#DejaVuSerif-112"/>
      <use x="132.519531" xlink:href="#DejaVuSerif-101"/>
      <use x="191.699219" xlink:href="#DejaVuSerif-101"/>
      <use x="250.878906" xlink:href="#DejaVuSerif-100"/>
     </g>
    </g>
   </g>
   <g id="LineCollection_1">
    <path clip-path="url(#p7c37f95305)" d="M 73.832727 174.528 
L 398.487273 174.528 
" style="fill:none;stroke:#696969;stroke-width:1.5;"/>
   </g>
   <g id="line2d_31">
    <path clip-path="url(#p7c37f95305)" d="M 73.832727 91.368 
L 73.891478 174.528 
L 73.920853 91.368 
L 73.950228 91.368 
L 74.067729 174.528 
L 74.097104 108 
L 74.185229 119.088 
L 74.24398 119.088 
L 74.273355 79.488 
L 74.30273 127.008 
L 74.332105 127.008 
L 74.390856 127.008 
L 74.420231 132.948 
L 74.478981 91.368 
L 74.508357 132.948 
L 74.537732 132.948 
L 74.567107 137.568 
L 74.684608 100.608 
L 74.743358 141.264 
L 74.802108 108 
L 74.831484 108 
L 74.948984 144.288 
L 74.978359 114.048 
L 75.066485 119.088 
L 75.09586 119.088 
L 75.125235 146.808 
L 75.183986 123.352615 
L 75.272111 123.352615 
L 75.301487 127.008 
L 75.360237 103.248 
L 75.389612 127.008 
L 75.418987 127.008 
L 75.477738 130.176 
L 75.565863 108 
L 75.595238 112.158 
L 75.683364 132.948 
L 75.712739 112.158 
L 75.800865 115.826824 
L 75.859615 135.393882 
L 75.88899 119.088 
L 76.006491 119.088 
L 76.035866 122.005895 
L 76.065241 139.513263 
L 76.123992 122.005895 
L 76.153367 122.005895 
L 76.270868 124.632 
L 76.300243 124.632 
L 76.417744 127.008 
L 76.447119 127.008 
L 76.476494 129.168 
L 76.505869 114.048 
L 76.564619 129.168 
L 76.593995 129.168 
L 76.68212 131.140174 
L 76.740871 116.677565 
L 76.770246 119.088 
L 76.887747 132.948 
L 77.005247 121.3056 
L 77.093373 136.146462 
L 77.181498 123.352615 
L 77.210874 125.248 
L 77.269624 125.248 
L 77.328374 137.568 
L 77.357749 127.008 
L 77.47525 127.008 
L 77.592751 128.646621 
L 77.622126 128.646621 
L 77.739627 130.176 
L 77.769002 119.088 
L 77.827752 131.60671 
L 77.915878 131.60671 
L 77.974628 132.948 
L 78.033379 122.553 
L 78.062754 132.948 
L 78.180255 134.208 
L 78.20963 134.208 
L 78.327131 125.610353 
L 78.444631 136.512 
L 78.503382 127.008 
L 78.562132 128.328 
L 78.591507 128.328 
L 78.679633 138.566919 
L 78.797134 129.576649 
L 78.855884 130.759579 
L 78.914634 139.513263 
L 78.944009 130.759579 
L 79.06151 131.881846 
L 79.090885 131.881846 
L 79.208386 132.948 
L 79.237761 132.948 
L 79.355262 133.962146 
L 79.384637 133.962146 
L 79.443388 127.008 
L 79.472763 134.928 
L 79.531513 134.928 
L 79.649014 135.84893 
L 79.678389 128.113116 
L 79.737139 129.168 
L 79.85464 137.568 
L 79.884015 137.568 
L 79.972141 130.176 
L 80.001516 131.140174 
L 80.030891 131.140174 
L 80.148392 139.140766 
L 80.265893 132.063319 
L 80.324643 132.948 
L 80.383394 139.878 
L 80.412769 132.948 
L 80.530269 133.796571 
L 80.559645 133.796571 
L 80.618395 134.6112 
L 80.64777 141.264 
L 80.706521 134.6112 
L 80.824021 135.393882 
L 80.853397 135.393882 
L 80.970897 136.146462 
L 81.000272 136.146462 
L 81.117773 136.870642 
L 81.147148 136.870642 
L 81.176524 137.568 
L 81.235274 131.408 
L 81.264649 137.568 
L 81.294024 137.568 
L 81.411525 138.24 
L 81.4409 138.24 
L 81.529026 132.948 
L 81.646527 139.513263 
L 81.705277 139.513263 
L 81.734652 133.677474 
L 81.822778 134.381793 
L 81.852153 134.381793 
L 81.969654 140.700203 
L 81.999029 140.700203 
L 82.028404 135.062237 
L 82.116529 135.72 
L 82.145905 135.72 
L 82.263405 141.809311 
L 82.322156 136.356197 
L 82.380906 136.971871 
L 82.469032 136.971871 
L 82.498407 137.568 
L 82.557157 142.848 
L 82.586532 137.568 
L 82.615908 137.568 
L 82.733408 138.1455 
L 82.762784 138.1455 
L 82.880284 138.705231 
L 82.909659 138.705231 
L 83.02716 139.248 
L 83.056535 139.248 
L 83.115286 139.774567 
L 83.144661 134.809791 
L 83.203411 139.774567 
L 83.320912 140.285647 
L 83.350287 140.285647 
L 83.409038 140.781913 
L 83.467788 135.961043 
L 83.497163 140.781913 
L 83.614664 141.264 
L 83.644039 141.264 
L 83.702789 141.732507 
L 83.790915 137.047437 
L 83.82029 137.568 
L 83.937791 142.188 
L 83.996541 142.631014 
L 84.084667 138.074301 
L 84.114042 138.566919 
L 84.172792 138.566919 
L 84.290293 143.4816 
L 84.378419 139.0464 
L 84.407794 139.513263 
L 84.495919 139.513263 
L 84.61342 144.288 
L 84.672171 139.968 
L 84.730921 140.411077 
L 84.819046 140.411077 
L 84.877797 140.842937 
L 84.907172 145.05357 
L 84.965922 140.842937 
L 85.083423 141.264 
L 85.112798 141.264 
L 85.200924 141.674667 
L 85.230299 145.781333 
L 85.289049 142.075317 
L 85.40655 142.075317 
L 85.524051 142.466313 
L 85.553426 142.466313 
L 85.582801 138.888 
L 85.612176 142.848 
L 85.641552 142.848 
L 85.700302 142.848 
L 85.817803 143.220706 
L 85.847178 143.220706 
L 85.876553 143.584744 
L 85.935304 139.716837 
L 85.964679 143.584744 
L 85.994054 143.584744 
L 86.111555 143.940414 
L 86.14093 143.940414 
L 86.19968 144.288 
L 86.287806 140.508 
L 86.317181 140.890247 
L 86.434682 144.627775 
L 86.522807 144.96 
L 86.581558 141.264 
L 86.640308 141.629538 
L 86.669683 141.629538 
L 86.787184 145.602783 
L 86.845934 145.602783 
L 86.875309 141.98713 
L 86.963435 142.337032 
L 87.022185 142.337032 
L 87.051561 142.679489 
L 87.169061 146.218213 
L 87.286562 143.014737 
L 87.315937 143.014737 
L 87.433438 143.343 
L 87.521564 147.093773 
L 87.609689 143.664495 
L 87.639064 143.979429 
L 87.756565 143.979429 
L 87.815315 144.288 
L 87.844691 147.648 
L 87.903441 144.288 
L 88.020942 144.5904 
L 88.050317 144.5904 
L 88.167818 144.886812 
L 88.197193 144.886812 
L 88.226568 141.916235 
L 88.255943 145.177412 
L 88.285318 145.177412 
L 88.344069 145.177412 
L 88.461569 145.462369 
L 88.490945 145.462369 
L 88.549695 145.741846 
L 88.608445 142.543385 
L 88.637821 145.741846 
L 88.755321 146.016 
L 88.784696 146.016 
L 88.902197 146.284981 
L 88.931572 143.146868 
L 89.019698 143.44015 
L 89.137199 146.808 
L 89.225324 146.808 
L 89.254699 147.062312 
L 89.3722 144.010569 
L 89.430951 144.288 
L 89.548451 147.557189 
L 89.636577 147.557189 
L 89.665952 144.560432 
L 89.754078 144.828 
L 89.812828 144.828 
L 89.842203 145.090832 
L 89.959704 148.034549 
L 89.989079 148.266947 
L 90.10658 145.349053 
L 90.224081 145.602783 
L 90.341581 148.719724 
L 90.370956 148.719724 
L 90.400332 145.852138 
L 90.488457 146.097231 
L 90.547208 146.097231 
L 90.635333 146.338169 
L 90.723459 149.370353 
L 90.840959 146.575059 
L 90.95846 146.808 
L 90.987835 146.808 
L 91.075961 147.037091 
L 91.105336 149.786182 
L 91.164086 147.262426 
L 91.281587 147.262426 
L 91.399088 147.484098 
L 91.428463 147.484098 
L 91.545964 147.702194 
L 91.575339 147.702194 
L 91.69284 147.9168 
L 91.722215 147.9168 
L 91.839716 148.128 
L 91.869091 148.128 
L 91.898466 148.335874 
L 91.927841 145.716661 
L 91.986592 148.335874 
L 92.015967 148.335874 
L 92.133468 148.5405 
L 92.162843 148.5405 
L 92.280344 148.741953 
L 92.309719 146.163349 
L 92.368469 146.381538 
L 92.48597 149.135634 
L 92.603471 149.135634 
L 92.662221 149.328 
L 92.750346 146.808 
L 92.779722 147.016421 
L 92.809097 147.016421 
L 92.926598 149.704119 
L 93.044098 149.704119 
L 93.073473 149.888 
L 93.190974 147.424 
L 93.249725 147.623294 
L 93.367225 150.247708 
L 93.484726 150.247708 
L 93.602227 148.013217 
L 93.631602 148.013217 
L 93.719728 148.203971 
L 93.837228 150.768 
L 93.895979 150.768 
L 93.925354 148.392 
L 94.013479 148.577362 
L 94.07223 148.577362 
L 94.160355 148.760113 
L 94.277856 151.266462 
L 94.307231 151.266462 
L 94.365982 148.940308 
L 94.424732 149.118 
L 94.512858 149.118 
L 94.630358 149.293241 
L 94.718484 151.744438 
L 94.806609 149.466082 
L 94.835985 149.636571 
L 94.953485 149.636571 
L 95.070986 149.804757 
L 95.159112 152.203168 
L 95.247237 149.970685 
L 95.276612 150.1344 
L 95.394113 150.1344 
L 95.511614 150.295947 
L 95.540989 150.295947 
L 95.570364 150.455368 
L 95.599739 152.643789 
L 95.65849 150.455368 
L 95.687865 150.455368 
L 95.805366 150.612706 
L 95.834741 150.612706 
L 95.952242 150.768 
L 95.981617 150.768 
L 96.099118 150.92129 
L 96.128493 150.92129 
L 96.245993 151.072615 
L 96.275369 151.072615 
L 96.392869 151.222013 
L 96.422245 151.222013 
L 96.480995 151.369519 
L 96.539745 149.264203 
L 96.569121 151.369519 
L 96.686621 151.51517 
L 96.715996 151.51517 
L 96.833497 151.659 
L 96.862872 151.659 
L 96.921623 151.801043 
L 97.009748 149.734957 
L 97.039123 149.888 
L 97.156624 151.941333 
L 97.274125 152.079902 
L 97.3035 152.079902 
L 97.362251 152.21678 
L 97.450376 150.188488 
L 97.479751 150.336 
L 97.509126 150.336 
L 97.626627 152.48559 
L 97.744128 152.48559 
L 97.832253 152.617581 
L 97.891004 150.625725 
L 97.949754 150.768 
L 98.008505 150.768 
L 98.126005 152.876876 
L 98.184756 152.876876 
L 98.302256 153.004235 
L 98.331632 151.047529 
L 98.419757 151.184842 
L 98.478508 151.184842 
L 98.537258 151.320558 
L 98.654759 153.37748 
L 98.772259 153.37748 
L 98.88976 151.58731 
L 98.919135 151.58731 
L 99.036636 151.7184 
L 99.154137 153.738 
L 99.212887 153.738 
L 99.242262 153.855458 
L 99.359763 151.976136 
L 99.477264 152.102831 
L 99.506639 152.102831 
L 99.565389 152.228112 
L 99.68289 154.2 
L 99.741641 154.2 
L 99.800391 152.352 
L 99.859141 152.474519 
L 99.947267 152.474519 
L 100.064768 152.595692 
L 100.182268 154.533246 
L 100.211643 154.533246 
L 100.241019 152.715541 
L 100.329144 152.834087 
L 100.387895 152.834087 
L 100.505395 152.951351 
L 100.534771 152.951351 
L 100.622896 153.067355 
L 100.711022 154.960941 
L 100.828522 153.182118 
L 100.946023 153.29566 
L 100.975398 153.29566 
L 101.092899 153.408 
L 101.122274 153.408 
L 101.181025 153.519158 
L 101.2104 155.269895 
L 101.26915 153.519158 
L 101.386651 153.629152 
L 101.562902 153.738 
L 101.680403 153.84572 
L 101.856654 153.95233 
L 101.974155 154.057846 
L 102.150406 154.162286 
L 102.238531 154.265665 
L 102.267906 152.577137 
L 102.326657 154.368 
L 102.591033 154.469307 
L 102.708534 154.5696 
L 102.767285 154.668896 
L 102.826035 153.01397 
L 102.85541 154.668896 
L 103.031661 154.767208 
L 103.149162 154.864552 
L 103.296038 154.960941 
L 103.325413 153.330353 
L 103.384163 153.433756 
L 103.501664 155.150913 
L 103.766041 155.244522 
L 103.854166 155.337231 
L 103.912917 153.738 
L 103.971667 153.837474 
L 104.089168 155.52 
L 104.353545 155.610085 
L 104.412295 155.699321 
L 104.50042 154.130264 
L 104.529796 154.226028 
L 104.559171 154.226028 
L 104.676672 155.87529 
L 104.941048 155.962047 
L 105.058549 154.508 
L 105.146675 154.600258 
L 105.264175 156.217541 
L 105.528552 156.301151 
L 105.646053 154.872 
L 105.734178 154.960941 
L 105.851679 156.547459 
L 106.08668 156.62809 
L 106.116056 155.13643 
L 106.204181 155.223 
L 106.351057 155.3088 
L 106.468558 156.865699 
L 106.674184 156.943507 
L 106.703559 155.478132 
L 106.791685 155.561684 
L 106.938561 155.644507 
L 107.056062 157.17287 
L 107.261688 157.248 
L 107.291063 155.808 
L 107.379189 155.88869 
L 107.55544 155.968687 
L 107.67294 157.469538 
L 107.878567 157.542128 
L 107.996068 156.20461 
L 108.172319 156.281924 
L 108.201694 156.358588 
L 108.319195 157.756235 
L 108.46607 157.82641 
L 108.583571 156.51 
L 108.759822 156.584763 
L 108.847948 156.658909 
L 108.965449 158.101333 
L 109.082949 158.168656 
L 109.20045 156.805377 
L 109.376701 156.949463 
L 109.464827 156.949463 
L 109.582328 158.367352 
L 109.729203 158.432516 
L 109.787954 157.091226 
L 109.846704 157.161253 
L 110.081706 157.23072 
L 110.140456 157.299633 
L 110.257957 158.688 
L 110.375458 158.688 
L 110.492958 157.435826 
L 110.669209 157.503118 
L 110.78671 157.569882 
L 110.904211 158.9355 
L 111.021712 158.996171 
L 111.109837 157.701852 
L 111.139212 157.76707 
L 111.403589 157.831784 
L 111.491715 157.896 
L 111.609215 159.234207 
L 111.697341 159.234207 
L 111.814842 158.022962 
L 111.991093 158.085719 
L 112.167344 158.209811 
L 112.196719 158.209811 
L 112.31422 159.521684 
L 112.37297 159.521684 
L 112.43172 158.271158 
L 112.490471 158.332045 
L 112.725472 158.392478 
L 112.842973 158.452461 
L 112.960474 159.744 
L 113.048599 159.798554 
L 113.1661 158.5711 
L 113.342351 158.688 
L 113.577353 158.74581 
L 113.694853 160.0128 
L 113.753604 160.0128 
L 113.871105 158.860174 
L 114.047356 158.916736 
L 114.223607 159.028645 
L 114.282357 159.028645 
L 114.399858 160.272 
L 114.458608 160.272 
L 114.487983 159.084 
L 114.576109 159.138961 
L 114.928611 159.247717 
L 115.016737 159.301521 
L 115.134237 160.522105 
L 115.192988 160.522105 
L 115.222363 159.354947 
L 115.310489 159.408 
L 115.662991 159.513 
L 115.751116 159.564955 
L 115.868617 160.763586 
L 115.956743 160.763586 
L 116.074243 159.667794 
L 116.39737 159.769229 
L 116.514871 159.819429 
L 116.632372 160.996881 
L 116.691122 160.996881 
L 116.808623 159.918811 
L 117.13175 160.016859 
L 117.249251 160.065391 
L 117.366752 161.2224 
L 117.484252 161.266605 
L 117.572378 160.161488 
L 117.601753 160.20906 
L 118.013006 160.303263 
L 118.042381 160.349902 
L 118.159882 161.440525 
L 118.277382 161.483294 
L 118.306757 160.396235 
L 118.394883 160.442267 
L 118.747385 160.533437 
L 118.835511 160.578581 
L 118.953012 161.693016 
L 119.099887 161.734154 
L 119.188013 160.668 
L 119.217388 160.712281 
L 119.628641 160.8 
L 119.658016 160.843443 
L 119.775517 161.896101 
L 119.922393 161.93595 
L 120.039893 160.929509 
L 120.36302 161.0145 
L 120.451146 161.056598 
L 120.568647 162.131478 
L 120.774273 162.169858 
L 120.803648 161.140012 
L 120.891774 161.181333 
L 121.244276 161.263215 
L 121.303026 161.30378 
L 121.420527 162.358244 
L 121.655529 162.395234 
L 121.684904 161.38417 
L 121.773029 161.424 
L 122.125532 161.50294 
L 122.154907 161.542054 
L 122.272407 162.540973 
L 122.448659 162.612537 
L 122.536784 162.612537 
L 122.566159 161.619582 
L 122.654285 161.658 
L 122.977412 161.734154 
L 123.094913 162.753133 
L 123.447415 162.822194 
L 123.564916 161.883789 
L 123.858667 161.957302 
L 123.976168 162.957913 
L 124.416796 163.057655 
L 124.475546 162.101793 
L 124.534297 162.137398 
L 124.739923 162.1728 
L 124.857424 163.155692 
L 125.356802 163.252068 
L 125.386177 163.283831 
L 125.503678 162.346817 
L 125.679929 162.415059 
L 125.79743 163.346824 
L 126.003056 163.409114 
L 126.384933 163.470715 
L 126.502434 162.582365 
L 126.619935 162.615273 
L 126.737436 163.561846 
L 127.266189 163.651488 
L 127.413065 163.681043 
L 127.530566 162.808976 
L 127.648066 163.739676 
L 128.147444 163.826445 
L 128.353071 163.88352 
L 128.499947 163.91183 
L 128.529322 163.027149 
L 128.588072 163.91183 
L 128.793699 163.968 
L 129.469328 164.078576 
L 129.528078 164.105859 
L 129.616204 164.974371 
L 129.733704 164.133 
L 130.350583 164.240165 
L 130.55621 164.292923 
L 130.67371 165.169841 
L 130.761836 165.169841 
L 130.791211 164.3191 
L 130.879337 164.345143 
L 131.525591 164.448 
L 131.584341 164.47339 
L 131.701842 165.334432 
L 131.966219 165.357474 
L 132.083719 164.5488 
L 132.641848 164.647604 
L 132.759349 165.493333 
L 133.229351 165.559765 
L 133.288102 164.744471 
L 133.346852 164.768391 
L 133.758105 164.839456 
L 133.875606 165.646835 
L 134.110607 165.689739 
L 134.551235 165.753324 
L 134.609985 164.955626 
L 134.668736 164.978526 
L 134.844987 165.001317 
L 134.962487 165.816 
L 135.784993 165.918494 
L 135.961244 165.95882 
L 135.990619 165.179803 
L 136.049369 165.95882 
L 136.813124 166.058 
L 137.048126 166.097032 
L 137.195001 166.116414 
L 137.312502 166.898642 
L 137.430003 166.916101 
L 137.547504 166.154911 
L 137.782505 166.193057 
L 138.399384 166.268316 
L 138.516885 167.036108 
L 138.986888 167.086389 
L 139.016263 166.342228 
L 139.104389 166.3605 
L 139.662517 166.432779 
L 139.780018 167.184954 
L 140.661273 167.280941 
L 140.778774 166.556235 
L 140.955025 166.59082 
L 141.072526 167.312382 
L 141.395653 167.359034 
L 142.306284 167.450553 
L 142.423784 168.171822 
L 142.482535 168.171822 
L 142.541285 167.46558 
L 142.600036 167.480542 
L 143.686917 167.583532 
L 143.804418 168.291 
L 144.450672 168.342545 
L 144.568173 167.669443 
L 145.126301 167.725546 
L 145.243802 168.418286 
L 146.624436 168.528481 
L 146.683186 169.20576 
L 146.712561 168.54048 
L 148.12257 168.64635 
L 148.210696 168.657882 
L 148.328197 169.320329 
L 149.238827 169.380766 
L 149.297578 168.737362 
L 149.356328 168.748541 
L 149.855706 168.78182 
L 149.973207 169.430069 
L 151.618217 169.53528 
L 151.735718 170.167551 
L 152.323222 170.19997 
L 152.381972 169.58168 
L 152.440723 169.590857 
L 153.468854 169.654154 
L 153.586355 170.271181 
L 155.407616 170.362562 
L 155.525117 170.964 
L 156.523873 171.008 
L 156.641374 170.421333 
L 157.199503 170.450102 
L 157.493254 170.464335 
L 157.610755 171.050927 
L 159.784519 171.139477 
L 159.90202 171.709017 
L 162.252034 171.783446 
L 162.369535 172.332356 
L 163.485792 172.360964 
L 165.042677 172.399104 
L 165.160178 172.931328 
L 166.746438 172.958943 
L 168.215197 172.983232 
L 168.332698 173.499747 
L 172.092721 173.539471 
L 172.210222 174.033736 
L 174.530862 174.045213 
L 174.648362 174.528 
L 177.321504 174.528 
L 177.439005 174.997168 
L 179.05464 174.99 
L 179.172141 175.450718 
L 182.462162 175.423397 
L 182.579662 175.86929 
L 185.370305 175.83589 
L 185.487806 176.269571 
L 187.925946 176.233846 
L 188.043447 176.657577 
L 190.246586 176.617447 
L 190.364086 177.032191 
L 192.390974 176.988962 
L 192.4791 177.399122 
L 192.508475 177.395586 
L 194.388487 177.353825 
L 194.505988 177.7536 
L 196.297874 177.707355 
L 196.415375 178.100506 
L 198.119135 178.050071 
L 198.207261 178.441412 
L 198.236636 178.436813 
L 201.497282 178.338309 
L 201.585407 178.71934 
L 201.614782 178.714545 
L 203.112917 178.667186 
L 203.201042 179.043475 
L 203.230418 179.038373 
L 204.669802 178.992966 
L 204.787302 179.359642 
L 205.492307 179.3328 
L 205.609808 178.958277 
L 206.167936 178.938696 
L 206.285437 179.306254 
L 207.078567 179.274784 
L 207.636695 179.254033 
L 207.754196 179.617574 
L 208.517951 179.584417 
L 209.076079 179.568 
L 209.19358 179.922162 
L 209.751709 179.898936 
L 209.869209 179.535484 
L 210.456713 179.514039 
L 210.544839 179.870184 
L 210.574214 179.864471 
L 211.837347 179.819198 
L 211.954847 180.165966 
L 213.15923 180.118588 
L 213.276731 180.461767 
L 213.394232 180.455547 
L 213.511732 180.101026 
L 214.481113 180.066231 
L 214.598614 180.406254 
L 215.773622 180.357773 
L 215.832372 180.700701 
L 215.891122 180.694344 
L 216.596127 180.662754 
L 216.713627 180.321934 
L 217.036755 180.30418 
L 217.154255 180.643955 
L 217.829885 180.612878 
L 218.270512 180.594383 
L 218.329263 180.931404 
L 218.388013 180.924923 
L 219.474895 180.87992 
L 219.50427 180.545608 
L 219.56302 180.873542 
L 220.708653 180.82298 
L 220.826153 181.154295 
L 221.472407 181.121459 
L 221.88366 181.101913 
L 222.001161 181.430609 
L 222.177412 181.416994 
L 222.294913 181.088947 
L 222.941167 181.056754 
L 223.058667 181.050353 
L 223.176168 181.376471 
L 223.793047 181.343063 
L 224.2043 181.329792 
L 224.3218 181.646755 
L 224.674303 181.626041 
L 224.791803 181.303403 
L 225.349932 181.277217 
L 225.467433 181.591784 
L 226.495564 181.544376 
L 226.554314 181.863302 
L 226.613065 181.856276 
L 227.053693 181.835278 
L 227.171193 181.510901 
L 227.611821 181.490969 
L 227.729322 181.807467 
L 228.346201 181.773 
L 228.698703 181.759304 
L 228.757453 182.073709 
L 228.816204 182.066584 
L 229.315582 182.045288 
L 229.433083 181.725291 
L 229.785585 181.711775 
L 229.903086 182.017081 
L 230.872467 181.968224 
L 230.960592 182.278233 
L 230.989967 182.271017 
L 231.489346 182.249448 
L 231.606846 181.933714 
L 231.929973 181.92 
L 231.988724 182.228 
L 232.047474 182.220877 
L 232.98748 182.178414 
L 233.104981 182.477118 
L 233.545609 182.455259 
L 233.663109 182.143385 
L 234.044987 182.129463 
L 234.162487 182.426301 
L 235.073118 182.383259 
L 235.190619 182.677982 
L 235.572496 182.655855 
L 235.689997 182.347747 
L 236.10125 182.333632 
L 236.21875 182.626539 
L 237.129381 182.58296 
L 237.246882 182.873806 
L 237.511259 182.858877 
L 237.628759 182.554166 
L 238.157513 182.532706 
L 238.275013 182.821785 
L 239.156269 182.777708 
L 239.27377 183.064779 
L 239.39127 183.057231 
L 239.508771 182.755845 
L 240.155025 182.726873 
L 240.213776 183.01969 
L 240.272526 183.012222 
L 241.153781 182.967685 
L 241.212532 183.258709 
L 241.241907 182.967685 
L 241.800036 182.938253 
L 242.123163 182.923614 
L 242.240663 183.205565 
L 243.033793 183.160526 
L 243.121919 182.872775 
L 243.23942 183.153065 
L 244.0913 183.108567 
L 244.179426 183.394586 
L 244.208801 183.386969 
L 244.737554 183.364195 
L 244.855055 183.071836 
L 245.060681 183.064527 
L 245.178182 183.341538 
L 246.000687 183.296571 
L 246.088813 183.579429 
L 246.118188 183.571738 
L 246.47069 183.556397 
L 246.588191 183.266847 
L 246.970068 183.252061 
L 247.087569 183.52587 
L 247.910074 183.480464 
L 247.9982 183.760229 
L 248.027575 183.752471 
L 248.1157 183.752471 
L 248.233201 183.465431 
L 248.85008 183.435515 
L 248.967581 183.706194 
L 250.730092 183.61502 
L 250.788842 183.890384 
L 250.847593 183.88264 
L 251.405721 183.851792 
L 251.523222 183.577563 
L 251.670098 183.570109 
L 251.787598 183.836444 
L 252.580728 183.790703 
L 252.698229 184.063135 
L 252.962606 184.047542 
L 253.080107 183.768 
L 253.520734 183.745408 
L 253.579485 184.016509 
L 253.638235 184.008782 
L 254.431365 183.970336 
L 254.46074 184.240117 
L 254.519491 184.232246 
L 254.636991 183.955045 
L 255.341996 183.92461 
L 255.459497 184.18529 
L 256.047 184.154238 
L 256.164501 183.879325 
L 256.252627 183.87182 
L 256.370127 184.138787 
L 256.898881 184.108032 
L 257.163257 184.092728 
L 257.251383 184.358415 
L 257.280758 184.35057 
L 257.57451 184.334916 
L 257.692011 184.069865 
L 258.073888 184.04711 
L 258.132638 184.311529 
L 258.191389 184.303759 
L 258.984519 184.265089 
L 259.013894 184.528253 
L 259.072644 184.257391 
L 259.865774 184.219087 
L 259.983275 184.473177 
L 260.512028 184.441976 
L 260.629529 184.181082 
L 260.776405 184.173517 
L 260.893906 184.426449 
L 261.657661 184.387844 
L 261.775161 184.639426 
L 261.922037 184.631551 
L 262.039538 184.364825 
L 262.538916 184.341913 
L 262.656417 184.59236 
L 263.361421 184.553471 
L 263.449547 184.288865 
L 263.567048 184.54573 
L 264.095801 184.514882 
L 264.330802 184.49953 
L 264.448303 184.75521 
L 264.800805 184.731681 
L 264.918306 184.468966 
L 265.212058 184.453754 
L 265.329559 184.70826 
L 265.858312 184.677199 
L 266.093314 184.66174 
L 266.181439 184.915083 
L 266.29894 184.654027 
L 266.974569 184.615642 
L 267.09207 184.867833 
L 267.562073 184.836571 
L 267.679574 184.585143 
L 267.82645 184.577547 
L 267.94395 184.821011 
L 268.707705 184.782316 
L 268.825206 185.024529 
L 268.913331 185.016649 
L 269.030832 184.759238 
L 269.588961 184.736263 
L 269.706461 184.977424 
L 270.26459 184.946255 
L 270.382091 184.690623 
L 270.440841 184.690623 
L 270.558342 184.93074 
L 271.322097 184.892154 
L 271.439597 185.131054 
L 271.586473 185.1232 
L 271.703974 184.86914 
L 272.173977 184.846227 
L 272.232727 185.0919 
L 272.291478 185.084103 
L 272.908357 185.053033 
L 273.025857 184.800706 
L 273.055232 184.800706 
L 273.113983 185.045294 
L 273.172733 185.037566 
L 273.907113 184.999098 
L 273.995238 185.242612 
L 274.024614 185.234774 
L 274.23024 185.226947 
L 274.347741 184.976152 
L 274.758993 184.953306 
L 274.876494 185.195755 
L 275.405247 185.164744 
L 275.522748 185.15702 
L 275.640249 184.907913 
L 275.757749 185.149306 
L 276.286503 185.118564 
L 276.492129 185.110907 
L 276.60963 185.343607 
L 276.815256 185.328 
L 276.932757 185.088 
L 277.344009 185.065192 
L 277.46151 185.296921 
L 278.078389 185.26602 
L 278.19589 185.019871 
L 278.25464 185.258323 
L 278.313391 185.250636 
L 279.04777 185.212368 
L 279.135896 185.449799 
L 279.165271 185.442009 
L 279.370897 185.43423 
L 279.488398 185.189538 
L 279.899651 185.166806 
L 280.017151 185.403224 
L 280.545905 185.372394 
L 280.63403 185.364714 
L 280.751531 185.129133 
L 280.869032 185.357045 
L 281.603411 185.31886 
L 281.720912 185.545674 
L 281.867788 185.537915 
L 281.985289 185.296079 
L 282.455292 185.273393 
L 282.514042 185.506989 
L 282.572792 185.499284 
L 283.130921 185.468574 
L 283.248422 185.235796 
L 283.307172 185.228308 
L 283.395298 185.460923 
L 283.424673 185.453283 
L 284.159052 185.415242 
L 284.276553 185.646886 
L 284.335304 185.639148 
L 284.452804 185.4001 
L 285.010933 185.377466 
L 285.128434 185.600621 
L 285.569061 185.577633 
L 285.686562 185.33995 
L 285.862813 185.332478 
L 285.980314 185.55474 
L 286.714694 185.516796 
L 286.773444 185.745729 
L 286.802819 185.738014 
L 286.92032 185.509238 
L 287.478448 185.479111 
L 287.537199 185.471605 
L 287.654699 185.699597 
L 288.007202 185.676673 
L 288.124702 185.441684 
L 288.389079 185.43423 
L 288.50658 185.653843 
L 289.182209 185.616 
L 289.240959 185.389714 
L 289.270335 185.616 
L 289.828463 185.58591 
L 290.063465 185.570927 
L 290.15159 185.796293 
L 290.180965 185.788664 
L 290.386592 185.781045 
L 290.504092 185.548527 
L 290.915345 185.526219 
L 291.032846 185.750672 
L 291.767225 185.489237 
L 291.884726 185.705419 
L 292.589731 185.667987 
L 292.707231 185.883181 
L 292.736606 185.883181 
L 292.854107 185.653084 
L 293.441611 185.623397 
L 293.529736 185.845305 
L 293.559112 185.83776 
L 293.911614 185.8227 
L 294.029115 185.593868 
L 294.264116 185.586511 
L 294.381617 185.800186 
L 295.086621 185.762861 
L 295.115996 185.54257 
L 295.174747 185.755426 
L 295.967877 185.718396 
L 296.085378 185.930294 
L 296.261629 185.922783 
L 296.379129 185.696295 
L 296.790382 185.674281 
L 296.907883 185.892836 
L 297.642262 185.637784 
L 297.759763 185.848209 
L 298.464768 185.811288 
L 298.582268 186.020777 
L 298.699769 185.796586 
L 299.316648 185.767298 
L 299.404773 185.983439 
L 299.434149 185.976 
L 299.727901 185.961152 
L 299.845401 185.745432 
L 300.139153 185.730902 
L 300.256654 185.938951 
L 300.844158 185.909485 
L 300.961658 185.687535 
L 301.079159 185.894809 
L 301.813539 185.858283 
L 301.901664 186.072062 
L 301.931039 186.064647 
L 301.98979 186.064647 
L 302.10729 185.843738 
L 302.636044 185.821991 
L 302.753545 186.027718 
L 303.135422 186.005674 
L 303.252923 185.785931 
L 303.487924 185.778747 
L 303.605425 185.983714 
L 304.281054 185.947301 
L 304.310429 185.735832 
L 304.36918 185.947301 
L 305.132935 185.911118 
L 305.250435 186.114574 
L 305.397311 186.107241 
L 305.514812 185.889518 
L 305.984815 185.868 
L 306.102316 186.070713 
L 306.513568 186.048907 
L 306.631069 185.832317 
L 306.80732 185.825208 
L 306.895446 186.034415 
L 306.924821 186.027183 
L 308.481706 185.955358 
L 308.599206 186.155865 
L 308.746082 186.148611 
L 308.863583 185.933985 
L 309.304211 185.912692 
L 309.392336 186.119686 
L 309.421712 186.112478 
L 309.862339 186.090905 
L 309.97984 185.884425 
L 310.156091 185.870343 
L 310.273592 186.076568 
L 310.83172 186.048 
L 311.801102 185.998345 
L 311.889227 186.203172 
L 311.918602 186.195988 
L 312.094853 186.188812 
L 312.212354 185.977195 
L 312.652982 185.956123 
L 312.770483 186.160196 
L 313.181735 186.138827 
L 313.299236 185.928147 
L 313.475487 185.921174 
L 313.592988 186.117535 
L 315.120497 186.047125 
L 315.237998 186.242098 
L 315.384874 186.23499 
L 315.502375 186.026169 
L 315.972378 186.005288 
L 316.089879 186.199579 
L 316.471756 186.178435 
L 316.589257 185.977565 
L 316.794883 185.963754 
L 316.883009 186.164381 
L 316.912384 186.157367 
L 317.558638 186.129395 
L 317.617388 185.929371 
L 317.646763 186.122423 
L 318.469269 186.087688 
L 318.586769 186.279952 
L 318.674895 186.272919 
L 318.792396 186.073853 
L 319.291774 186.046281 
L 319.379899 186.244872 
L 319.409275 186.237881 
L 319.732402 186.223924 
L 319.849902 186.01884 
L 320.114279 186.012 
L 320.23178 186.203051 
L 320.819283 186.175335 
L 320.936784 185.971132 
L 321.054285 186.161527 
L 321.788664 186.127149 
L 321.87679 186.323745 
L 321.906165 186.316777 
L 322.023666 186.120298 
L 322.61117 186.092973 
L 322.72867 186.282064 
L 322.993047 186.268235 
L 323.110548 186.065778 
L 323.433675 186.052228 
L 323.551176 186.240676 
L 324.050554 186.220091 
L 324.168054 186.018492 
L 324.25618 186.011768 
L 324.373681 186.206408 
L 324.99056 186.172341 
L 325.10806 186.172341 
L 325.137436 186.35951 
L 325.196186 186.165551 
L 325.930566 186.131721 
L 326.048066 186.318261 
L 326.224317 186.311415 
L 326.341818 186.111517 
L 326.753071 186.091384 
L 326.870572 186.284107 
L 327.575576 186.057983 
L 327.693077 186.243381 
L 328.368706 186.209658 
L 328.398081 186.018155 
L 328.456832 186.209658 
L 329.249962 186.169446 
L 329.367462 186.360289 
L 329.426213 186.353505 
L 329.543713 186.156103 
L 330.072467 186.136146 
L 330.189967 186.319698 
L 330.483719 186.30623 
L 330.60122 186.109644 
L 330.894972 186.096438 
L 330.983097 186.286084 
L 331.012473 186.279385 
L 331.541226 186.259331 
L 331.658727 186.063554 
L 331.717477 186.063554 
L 331.834978 186.246 
L 332.539982 186.212805 
L 332.598733 186.401269 
L 332.628108 186.394546 
L 332.745609 186.206188 
L 333.391863 186.173217 
L 333.479988 186.361043 
L 333.509363 186.354366 
L 333.685614 186.347695 
L 333.803115 186.153524 
L 334.214368 186.140432 
L 334.331869 186.321089 
L 334.743121 186.301213 
L 334.860622 186.107832 
L 335.036873 186.101333 
L 335.154374 186.281404 
L 335.800628 186.255096 
L 335.859378 186.062497 
L 335.888753 186.248537 
L 336.681883 186.215853 
L 336.799384 186.394756 
L 336.88751 186.388145 
L 337.00501 186.20283 
L 337.533764 186.176872 
L 337.651264 186.3552 
L 337.945016 186.342073 
L 338.062517 186.151028 
L 338.356269 186.13815 
L 338.47377 186.322438 
L 339.178774 186.106077 
L 339.296275 186.283362 
L 340.001279 186.250996 
L 340.06003 186.434167 
L 340.089405 186.250996 
L 340.735659 186.218807 
L 340.823784 186.218807 
L 340.941285 186.394959 
L 341.088161 186.38845 
L 341.205662 186.199579 
L 341.675665 186.180414 
L 341.793166 186.356009 
L 342.175043 186.336629 
L 342.292544 186.154958 
L 342.49817 186.142272 
L 342.586296 186.323745 
L 342.615671 186.317313 
L 343.23255 186.291656 
L 343.320675 186.110677 
L 343.438176 186.285259 
L 344.14318 186.25338 
L 344.260681 186.427317 
L 344.378182 186.240676 
L 344.965686 186.215351 
L 345.083186 186.395157 
L 345.318188 186.382341 
L 345.435688 186.19643 
L 345.817566 186.183849 
L 345.935067 186.356793 
L 346.375694 186.337704 
L 346.493195 186.152516 
L 346.640071 186.14627 
L 346.757572 186.318677 
L 347.403826 186.293402 
L 347.462576 186.108932 
L 347.491951 186.2871 
L 348.285081 186.255692 
L 348.402582 186.427028 
L 348.490708 186.420679 
L 348.608208 186.243176 
L 349.107587 186.218224 
L 349.195712 186.395348 
L 349.225087 186.389032 
L 349.518839 186.376421 
L 349.63634 186.199579 
L 349.930092 186.187182 
L 350.047593 186.357554 
L 350.576346 186.332492 
L 350.693847 186.150149 
L 350.781972 186.150149 
L 350.899473 186.32 
L 351.604477 186.288887 
L 351.633853 186.464422 
L 351.692603 186.288887 
L 352.368232 186.257937 
L 352.426983 186.257937 
L 352.544483 186.426748 
L 352.661984 186.420492 
L 352.779485 186.239445 
L 353.249488 186.221012 
L 353.366988 186.389311 
L 353.719491 186.376884 
L 353.836991 186.196524 
L 354.071993 186.184318 
L 354.189494 186.358293 
L 354.894498 186.153915 
L 355.011999 186.321285 
L 355.717003 186.290621 
L 355.805129 186.463601 
L 355.834504 186.457397 
L 355.952005 186.284507 
L 356.568884 186.254034 
L 356.686384 186.426476 
L 356.862635 186.414152 
L 356.980136 186.241889 
L 357.391389 186.223719 
L 357.50889 186.389581 
L 357.890767 186.37122 
L 358.008268 186.199579 
L 358.213894 186.187546 
L 358.30202 186.35901 
L 358.331395 186.352915 
L 358.948274 186.328596 
L 359.036399 186.157573 
L 359.1539 186.322532 
L 359.858904 186.292305 
L 359.976405 186.456689 
L 360.093906 186.280258 
L 360.68141 186.256237 
L 360.79891 186.426212 
L 361.033912 186.414064 
L 361.151412 186.238286 
L 361.503915 186.226349 
L 361.621415 186.389844 
L 362.062043 186.371744 
L 362.179544 186.196612 
L 362.355795 186.190683 
L 362.473296 186.353698 
L 363.090175 186.329723 
L 363.1783 186.155234 
L 363.295801 186.323745 
L 363.97143 186.293942 
L 364.000805 186.293942 
L 364.118306 186.456 
L 364.147681 186.456 
L 364.265182 186.282064 
L 364.823311 186.258378 
L 364.911436 186.425955 
L 364.940811 186.419964 
L 365.175813 186.413979 
L 365.293314 186.240676 
L 365.645816 186.228905 
L 365.763317 186.390099 
L 366.262695 186.366316 
L 366.380195 186.199579 
L 366.468321 186.193731 
L 366.585822 186.35446 
L 369.376464 186.408 
L 369.493965 186.237192 
L 369.758342 186.231389 
L 369.875842 186.390348 
L 370.404596 186.366893 
L 370.522097 186.196696 
L 370.610222 186.196696 
L 370.727723 186.3552 
L 373.577116 186.24526 
L 373.900243 186.228088 
L 374.017744 186.390589 
L 374.722748 186.199579 
L 374.840249 186.35592 
L 375.545253 186.327184 
L 375.574628 186.488816 
L 375.633379 186.327184 
L 376.338383 186.298587 
L 376.455884 186.454047 
L 376.632135 186.448271 
L 376.749636 186.281495 
L 377.160888 186.264452 
L 377.249014 186.425226 
L 377.278389 186.419478 
L 377.660267 186.408 
L 377.777767 186.241806 
L 377.983394 186.236158 
L 378.100894 186.390824 
L 378.688398 186.368 
L 378.805899 186.202385 
L 378.923399 186.356621 
L 379.628404 186.328268 
L 379.745905 186.487732 
L 379.77528 186.482001 
L 379.892781 186.322614 
L 380.450909 186.300052 
L 380.56841 186.45343 
L 380.803411 186.44204 
L 380.920912 186.283186 
L 381.244039 186.266369 
L 381.36154 186.424996 
L 382.066544 186.238447 
L 382.184045 186.391053 
L 385.033438 186.284833 
L 385.297815 186.273763 
L 385.415315 186.424772 
L 385.973444 186.40242 
L 386.090945 186.240676 
L 386.208445 186.396845 
L 386.884075 186.369049 
L 387.001575 186.519236 
L 387.119076 186.357967 
L 387.647829 186.341383 
L 387.76533 186.491232 
L 388.059082 186.480067 
L 388.176583 186.319343 
L 388.440959 186.308354 
L 388.55846 186.463359 
L 389.322215 186.430082 
L 389.968469 186.408 
L 390.08597 186.556707 
L 390.115345 186.556707 
L 390.232846 186.39699 
L 390.702849 186.380513 
L 390.820349 186.528888 
L 391.143476 186.517797 
L 391.260977 186.358614 
L 391.437228 186.353152 
L 391.554729 186.501198 
L 392.142233 186.479138 
L 392.171608 186.632357 
L 392.230358 186.479138 
L 392.847237 186.451676 
L 392.964738 186.604544 
L 393.728493 186.571336 
L 394.139745 186.560308 
L 394.257246 186.707039 
L 394.374747 186.549299 
L 394.756624 186.532824 
L 394.874125 186.684784 
L 395.63788 186.651554 
L 395.814131 186.646033 
L 395.931632 186.791924 
L 396.284134 186.780769 
L 396.313509 186.932038 
L 396.372259 186.7752 
L 396.695386 186.764076 
L 396.812887 186.909516 
L 397.047889 186.903898 
L 397.165389 187.049143 
L 397.576642 187.03213 
L 397.664768 187.182783 
L 397.694143 187.177054 
L 397.782268 187.177054 
L 397.899769 187.321846 
L 397.958519 187.321846 
L 398.105395 187.616955 
L 398.193521 187.611038 
L 398.369772 188.056061 
L 398.399147 188.056061 
L 398.487273 188.200195 
L 398.487273 188.200195 
" style="fill:none;stroke:#6495ed;stroke-linecap:square;stroke-width:1.5;"/>
   </g>
   <g id="patch_3">
    <path d="M 57.6 307.584 
L 57.6 41.472 
" style="fill:none;stroke:#000000;stroke-linecap:square;stroke-linejoin:miter;stroke-width:0.8;"/>
   </g>
   <g id="patch_4">
    <path d="M 414.72 307.584 
L 414.72 41.472 
" style="fill:none;stroke:#000000;stroke-linecap:square;stroke-linejoin:miter;stroke-width:0.8;"/>
   </g>
   <g id="patch_5">
    <path d="M 57.6 307.584 
L 414.72 307.584 
" style="fill:none;stroke:#000000;stroke-linecap:square;stroke-linejoin:miter;stroke-width:0.8;"/>
   </g>
   <g id="patch_6">
    <path d="M 57.6 41.472 
L 414.72 41.472 
" style="fill:none;stroke:#000000;stroke-linecap:square;stroke-linejoin:miter;stroke-width:0.8;"/>
   </g>
  </g>
 </g>
 <defs>
  <clipPath id="p7c37f95305">
   <rect height="266.112" width="357.12" x="57.6" y="41.472"/>
  </clipPath>
 </defs>
</svg>
