<?xml version="1.0" encoding="utf-8" standalone="no"?>
<!DOCTYPE svg PUBLIC "-//W3C//DTD SVG 1.1//EN"
  "http://www.w3.org/Graphics/SVG/1.1/DTD/svg11.dtd">
<!-- Created with matplotlib (https://matplotlib.org/) -->
<svg height="345.6pt" version="1.1" viewBox="0 0 460.8 345.6" width="460.8pt" xmlns="http://www.w3.org/2000/svg" xmlns:xlink="http://www.w3.org/1999/xlink">
 <metadata>
  <rdf:RDF xmlns:cc="http://creativecommons.org/ns#" xmlns:dc="http://purl.org/dc/elements/1.1/" xmlns:rdf="http://www.w3.org/1999/02/22-rdf-syntax-ns#">
   <cc:Work>
    <dc:type rdf:resource="http://purl.org/dc/dcmitype/StillImage"/>
    <dc:date>2022-08-02T11:52:46.155740</dc:date>
    <dc:format>image/svg+xml</dc:format>
    <dc:creator>
     <cc:Agent>
      <dc:title>Matplotlib v3.3.4, https://matplotlib.org/</dc:title>
     </cc:Agent>
    </dc:creator>
   </cc:Work>
  </rdf:RDF>
 </metadata>
 <defs>
  <style type="text/css">*{stroke-linecap:butt;stroke-linejoin:round;}</style>
 </defs>
 <g id="figure_1">
  <g id="patch_1">
   <path d="M 0 345.6 
L 460.8 345.6 
L 460.8 0 
L 0 0 
z
" style="fill:#ffffff;"/>
  </g>
  <g id="axes_1">
   <g id="patch_2">
    <path d="M 57.6 307.584 
L 414.72 307.584 
L 414.72 41.472 
L 57.6 41.472 
z
" style="fill:#ffffff;"/>
   </g>
   <g id="matplotlib.axis_1">
    <g id="xtick_1">
     <g id="line2d_1">
      <path clip-path="url(#pab734f851a)" d="M 72.692445 307.584 
L 72.692445 41.472 
" style="fill:none;stroke:#b0b0b0;stroke-linecap:square;stroke-width:0.8;"/>
     </g>
     <g id="line2d_2">
      <defs>
       <path d="M 0 0 
L 0 3.5 
" id="mf78b4dbd1a" style="stroke:#000000;stroke-width:0.8;"/>
      </defs>
      <g>
       <use style="stroke:#000000;stroke-width:0.8;" x="72.692445" xlink:href="#mf78b4dbd1a" y="307.584"/>
      </g>
     </g>
     <g id="text_1">
      <!-- 0 -->
      <g transform="translate(69.511195 322.182437)scale(0.1 -0.1)">
       <defs>
        <path d="M 31.78125 3.421875 
Q 39.265625 3.421875 42.96875 11.625 
Q 46.6875 19.828125 46.6875 36.375 
Q 46.6875 52.984375 42.96875 61.1875 
Q 39.265625 69.390625 31.78125 69.390625 
Q 24.3125 69.390625 20.59375 61.1875 
Q 16.890625 52.984375 16.890625 36.375 
Q 16.890625 19.828125 20.59375 11.625 
Q 24.3125 3.421875 31.78125 3.421875 
z
M 31.78125 -1.421875 
Q 19.921875 -1.421875 13.25 8.53125 
Q 6.59375 18.5 6.59375 36.375 
Q 6.59375 54.296875 13.25 64.25 
Q 19.921875 74.21875 31.78125 74.21875 
Q 43.703125 74.21875 50.34375 64.25 
Q 56.984375 54.296875 56.984375 36.375 
Q 56.984375 18.5 50.34375 8.53125 
Q 43.703125 -1.421875 31.78125 -1.421875 
z
" id="DejaVuSerif-48"/>
       </defs>
       <use xlink:href="#DejaVuSerif-48"/>
      </g>
     </g>
    </g>
    <g id="xtick_2">
     <g id="line2d_3">
      <path clip-path="url(#pab734f851a)" d="M 126.991583 307.584 
L 126.991583 41.472 
" style="fill:none;stroke:#b0b0b0;stroke-linecap:square;stroke-width:0.8;"/>
     </g>
     <g id="line2d_4">
      <g>
       <use style="stroke:#000000;stroke-width:0.8;" x="126.991583" xlink:href="#mf78b4dbd1a" y="307.584"/>
      </g>
     </g>
     <g id="text_2">
      <!-- 100 -->
      <g transform="translate(117.447833 322.182437)scale(0.1 -0.1)">
       <defs>
        <path d="M 14.203125 0 
L 14.203125 5.171875 
L 26.90625 5.171875 
L 26.90625 65.828125 
L 12.203125 56.296875 
L 12.203125 62.703125 
L 29.984375 74.21875 
L 36.71875 74.21875 
L 36.71875 5.171875 
L 49.421875 5.171875 
L 49.421875 0 
z
" id="DejaVuSerif-49"/>
       </defs>
       <use xlink:href="#DejaVuSerif-49"/>
       <use x="63.623047" xlink:href="#DejaVuSerif-48"/>
       <use x="127.246094" xlink:href="#DejaVuSerif-48"/>
      </g>
     </g>
    </g>
    <g id="xtick_3">
     <g id="line2d_5">
      <path clip-path="url(#pab734f851a)" d="M 181.290721 307.584 
L 181.290721 41.472 
" style="fill:none;stroke:#b0b0b0;stroke-linecap:square;stroke-width:0.8;"/>
     </g>
     <g id="line2d_6">
      <g>
       <use style="stroke:#000000;stroke-width:0.8;" x="181.290721" xlink:href="#mf78b4dbd1a" y="307.584"/>
      </g>
     </g>
     <g id="text_3">
      <!-- 200 -->
      <g transform="translate(171.746971 322.182437)scale(0.1 -0.1)">
       <defs>
        <path d="M 12.796875 55.515625 
L 7.328125 55.515625 
L 7.328125 68.5 
Q 12.546875 71.296875 17.84375 72.75 
Q 23.140625 74.21875 28.21875 74.21875 
Q 39.59375 74.21875 46.1875 68.703125 
Q 52.78125 63.1875 52.78125 53.71875 
Q 52.78125 43.015625 37.84375 28.125 
Q 36.671875 27 36.078125 26.421875 
L 17.671875 8.015625 
L 48.09375 8.015625 
L 48.09375 17 
L 53.8125 17 
L 53.8125 0 
L 6.78125 0 
L 6.78125 5.328125 
L 28.90625 27.390625 
Q 36.234375 34.71875 39.359375 40.84375 
Q 42.484375 46.96875 42.484375 53.71875 
Q 42.484375 61.078125 38.640625 65.234375 
Q 34.8125 69.390625 28.078125 69.390625 
Q 21.09375 69.390625 17.28125 65.921875 
Q 13.484375 62.453125 12.796875 55.515625 
z
" id="DejaVuSerif-50"/>
       </defs>
       <use xlink:href="#DejaVuSerif-50"/>
       <use x="63.623047" xlink:href="#DejaVuSerif-48"/>
       <use x="127.246094" xlink:href="#DejaVuSerif-48"/>
      </g>
     </g>
    </g>
    <g id="xtick_4">
     <g id="line2d_7">
      <path clip-path="url(#pab734f851a)" d="M 235.589859 307.584 
L 235.589859 41.472 
" style="fill:none;stroke:#b0b0b0;stroke-linecap:square;stroke-width:0.8;"/>
     </g>
     <g id="line2d_8">
      <g>
       <use style="stroke:#000000;stroke-width:0.8;" x="235.589859" xlink:href="#mf78b4dbd1a" y="307.584"/>
      </g>
     </g>
     <g id="text_4">
      <!-- 300 -->
      <g transform="translate(226.046109 322.182437)scale(0.1 -0.1)">
       <defs>
        <path d="M 9.71875 69.828125 
Q 15.4375 71.96875 20.671875 73.09375 
Q 25.921875 74.21875 30.515625 74.21875 
Q 41.21875 74.21875 47.21875 69.59375 
Q 53.21875 64.984375 53.21875 56.78125 
Q 53.21875 50.203125 49.0625 45.78125 
Q 44.921875 41.359375 37.3125 39.796875 
Q 46.296875 38.53125 51.25 33.28125 
Q 56.203125 28.03125 56.203125 19.671875 
Q 56.203125 9.46875 49.34375 4.015625 
Q 42.484375 -1.421875 29.59375 -1.421875 
Q 23.875 -1.421875 18.421875 -0.1875 
Q 12.984375 1.03125 7.625 3.515625 
L 7.625 17.671875 
L 13.09375 17.671875 
Q 13.578125 10.640625 17.828125 7.03125 
Q 22.078125 3.421875 29.78125 3.421875 
Q 37.25 3.421875 41.578125 7.734375 
Q 45.90625 12.0625 45.90625 19.578125 
Q 45.90625 28.171875 41.453125 32.59375 
Q 37.015625 37.015625 28.421875 37.015625 
L 23.78125 37.015625 
L 23.78125 42 
L 26.21875 42 
Q 34.765625 42 39.03125 45.53125 
Q 43.3125 49.078125 43.3125 56.203125 
Q 43.3125 62.59375 39.796875 65.984375 
Q 36.28125 69.390625 29.6875 69.390625 
Q 23.09375 69.390625 19.453125 66.265625 
Q 15.828125 63.140625 15.1875 56.984375 
L 9.71875 56.984375 
z
" id="DejaVuSerif-51"/>
       </defs>
       <use xlink:href="#DejaVuSerif-51"/>
       <use x="63.623047" xlink:href="#DejaVuSerif-48"/>
       <use x="127.246094" xlink:href="#DejaVuSerif-48"/>
      </g>
     </g>
    </g>
    <g id="xtick_5">
     <g id="line2d_9">
      <path clip-path="url(#pab734f851a)" d="M 289.888997 307.584 
L 289.888997 41.472 
" style="fill:none;stroke:#b0b0b0;stroke-linecap:square;stroke-width:0.8;"/>
     </g>
     <g id="line2d_10">
      <g>
       <use style="stroke:#000000;stroke-width:0.8;" x="289.888997" xlink:href="#mf78b4dbd1a" y="307.584"/>
      </g>
     </g>
     <g id="text_5">
      <!-- 400 -->
      <g transform="translate(280.345247 322.182437)scale(0.1 -0.1)">
       <defs>
        <path d="M 34.90625 24.703125 
L 34.90625 63.484375 
L 10.015625 24.703125 
z
M 56.390625 0 
L 23.1875 0 
L 23.1875 5.171875 
L 34.90625 5.171875 
L 34.90625 19.484375 
L 3.078125 19.484375 
L 3.078125 24.8125 
L 35.015625 74.21875 
L 44.671875 74.21875 
L 44.671875 24.703125 
L 58.59375 24.703125 
L 58.59375 19.484375 
L 44.671875 19.484375 
L 44.671875 5.171875 
L 56.390625 5.171875 
z
" id="DejaVuSerif-52"/>
       </defs>
       <use xlink:href="#DejaVuSerif-52"/>
       <use x="63.623047" xlink:href="#DejaVuSerif-48"/>
       <use x="127.246094" xlink:href="#DejaVuSerif-48"/>
      </g>
     </g>
    </g>
    <g id="xtick_6">
     <g id="line2d_11">
      <path clip-path="url(#pab734f851a)" d="M 344.188135 307.584 
L 344.188135 41.472 
" style="fill:none;stroke:#b0b0b0;stroke-linecap:square;stroke-width:0.8;"/>
     </g>
     <g id="line2d_12">
      <g>
       <use style="stroke:#000000;stroke-width:0.8;" x="344.188135" xlink:href="#mf78b4dbd1a" y="307.584"/>
      </g>
     </g>
     <g id="text_6">
      <!-- 500 -->
      <g transform="translate(334.644385 322.182437)scale(0.1 -0.1)">
       <defs>
        <path d="M 50.296875 72.90625 
L 50.296875 64.890625 
L 16.890625 64.890625 
L 16.890625 44 
Q 19.4375 45.75 22.828125 46.625 
Q 26.21875 47.515625 30.421875 47.515625 
Q 42.234375 47.515625 49.0625 40.96875 
Q 55.90625 34.421875 55.90625 23.09375 
Q 55.90625 11.53125 49 5.046875 
Q 42.09375 -1.421875 29.59375 -1.421875 
Q 24.5625 -1.421875 19.28125 -0.1875 
Q 14.015625 1.03125 8.5 3.515625 
L 8.5 17.671875 
L 14.015625 17.671875 
Q 14.453125 10.75 18.421875 7.078125 
Q 22.40625 3.421875 29.59375 3.421875 
Q 37.3125 3.421875 41.453125 8.5 
Q 45.609375 13.578125 45.609375 23.09375 
Q 45.609375 32.5625 41.484375 37.609375 
Q 37.359375 42.671875 29.59375 42.671875 
Q 25.203125 42.671875 21.84375 41.109375 
Q 18.5 39.546875 15.921875 36.28125 
L 11.71875 36.28125 
L 11.71875 72.90625 
z
" id="DejaVuSerif-53"/>
       </defs>
       <use xlink:href="#DejaVuSerif-53"/>
       <use x="63.623047" xlink:href="#DejaVuSerif-48"/>
       <use x="127.246094" xlink:href="#DejaVuSerif-48"/>
      </g>
     </g>
    </g>
    <g id="xtick_7">
     <g id="line2d_13">
      <path clip-path="url(#pab734f851a)" d="M 398.487273 307.584 
L 398.487273 41.472 
" style="fill:none;stroke:#b0b0b0;stroke-linecap:square;stroke-width:0.8;"/>
     </g>
     <g id="line2d_14">
      <g>
       <use style="stroke:#000000;stroke-width:0.8;" x="398.487273" xlink:href="#mf78b4dbd1a" y="307.584"/>
      </g>
     </g>
     <g id="text_7">
      <!-- 600 -->
      <g transform="translate(388.943523 322.182437)scale(0.1 -0.1)">
       <defs>
        <path d="M 32.71875 3.421875 
Q 39.59375 3.421875 43.296875 8.46875 
Q 47.015625 13.53125 47.015625 23 
Q 47.015625 32.46875 43.296875 37.515625 
Q 39.59375 42.578125 32.71875 42.578125 
Q 25.734375 42.578125 22.0625 37.6875 
Q 18.40625 32.8125 18.40625 23.578125 
Q 18.40625 13.875 22.109375 8.640625 
Q 25.828125 3.421875 32.71875 3.421875 
z
M 16.796875 40.140625 
Q 20.125 43.796875 24.3125 45.59375 
Q 28.515625 47.40625 33.796875 47.40625 
Q 44.671875 47.40625 51 40.859375 
Q 57.328125 34.328125 57.328125 23 
Q 57.328125 11.921875 50.515625 5.25 
Q 43.703125 -1.421875 32.328125 -1.421875 
Q 19.96875 -1.421875 13.328125 7.78125 
Q 6.6875 17 6.6875 34.078125 
Q 6.6875 53.21875 14.546875 63.71875 
Q 22.40625 74.21875 36.71875 74.21875 
Q 40.578125 74.21875 44.828125 73.484375 
Q 49.078125 72.75 53.515625 71.296875 
L 53.515625 59.28125 
L 48 59.28125 
Q 47.40625 64.203125 44.234375 66.796875 
Q 41.0625 69.390625 35.6875 69.390625 
Q 26.21875 69.390625 21.578125 62.203125 
Q 16.9375 55.03125 16.796875 40.140625 
z
" id="DejaVuSerif-54"/>
       </defs>
       <use xlink:href="#DejaVuSerif-54"/>
       <use x="63.623047" xlink:href="#DejaVuSerif-48"/>
       <use x="127.246094" xlink:href="#DejaVuSerif-48"/>
      </g>
     </g>
    </g>
   </g>
   <g id="matplotlib.axis_2">
    <g id="ytick_1">
     <g id="line2d_15">
      <path clip-path="url(#pab734f851a)" d="M 57.6 295.488 
L 414.72 295.488 
" style="fill:none;stroke:#b0b0b0;stroke-linecap:square;stroke-width:0.8;"/>
     </g>
     <g id="line2d_16">
      <defs>
       <path d="M 0 0 
L -3.5 0 
" id="m3984dba13a" style="stroke:#000000;stroke-width:0.8;"/>
      </defs>
      <g>
       <use style="stroke:#000000;stroke-width:0.8;" x="57.6" xlink:href="#m3984dba13a" y="295.488"/>
      </g>
     </g>
     <g id="text_8">
      <!-- 0.0 -->
      <g transform="translate(34.696875 299.287219)scale(0.1 -0.1)">
       <defs>
        <path d="M 9.421875 5.078125 
Q 9.421875 7.8125 11.28125 9.71875 
Q 13.140625 11.625 15.921875 11.625 
Q 18.609375 11.625 20.5 9.71875 
Q 22.40625 7.8125 22.40625 5.078125 
Q 22.40625 2.390625 20.5 0.484375 
Q 18.609375 -1.421875 15.921875 -1.421875 
Q 13.140625 -1.421875 11.28125 0.453125 
Q 9.421875 2.34375 9.421875 5.078125 
z
" id="DejaVuSerif-46"/>
       </defs>
       <use xlink:href="#DejaVuSerif-48"/>
       <use x="63.623047" xlink:href="#DejaVuSerif-46"/>
       <use x="95.410156" xlink:href="#DejaVuSerif-48"/>
      </g>
     </g>
    </g>
    <g id="ytick_2">
     <g id="line2d_17">
      <path clip-path="url(#pab734f851a)" d="M 57.6 264.0384 
L 414.72 264.0384 
" style="fill:none;stroke:#b0b0b0;stroke-linecap:square;stroke-width:0.8;"/>
     </g>
     <g id="line2d_18">
      <g>
       <use style="stroke:#000000;stroke-width:0.8;" x="57.6" xlink:href="#m3984dba13a" y="264.0384"/>
      </g>
     </g>
     <g id="text_9">
      <!-- 0.1 -->
      <g transform="translate(34.696875 267.837619)scale(0.1 -0.1)">
       <use xlink:href="#DejaVuSerif-48"/>
       <use x="63.623047" xlink:href="#DejaVuSerif-46"/>
       <use x="95.410156" xlink:href="#DejaVuSerif-49"/>
      </g>
     </g>
    </g>
    <g id="ytick_3">
     <g id="line2d_19">
      <path clip-path="url(#pab734f851a)" d="M 57.6 232.5888 
L 414.72 232.5888 
" style="fill:none;stroke:#b0b0b0;stroke-linecap:square;stroke-width:0.8;"/>
     </g>
     <g id="line2d_20">
      <g>
       <use style="stroke:#000000;stroke-width:0.8;" x="57.6" xlink:href="#m3984dba13a" y="232.5888"/>
      </g>
     </g>
     <g id="text_10">
      <!-- 0.2 -->
      <g transform="translate(34.696875 236.388019)scale(0.1 -0.1)">
       <use xlink:href="#DejaVuSerif-48"/>
       <use x="63.623047" xlink:href="#DejaVuSerif-46"/>
       <use x="95.410156" xlink:href="#DejaVuSerif-50"/>
      </g>
     </g>
    </g>
    <g id="ytick_4">
     <g id="line2d_21">
      <path clip-path="url(#pab734f851a)" d="M 57.6 201.1392 
L 414.72 201.1392 
" style="fill:none;stroke:#b0b0b0;stroke-linecap:square;stroke-width:0.8;"/>
     </g>
     <g id="line2d_22">
      <g>
       <use style="stroke:#000000;stroke-width:0.8;" x="57.6" xlink:href="#m3984dba13a" y="201.1392"/>
      </g>
     </g>
     <g id="text_11">
      <!-- 0.3 -->
      <g transform="translate(34.696875 204.938419)scale(0.1 -0.1)">
       <use xlink:href="#DejaVuSerif-48"/>
       <use x="63.623047" xlink:href="#DejaVuSerif-46"/>
       <use x="95.410156" xlink:href="#DejaVuSerif-51"/>
      </g>
     </g>
    </g>
    <g id="ytick_5">
     <g id="line2d_23">
      <path clip-path="url(#pab734f851a)" d="M 57.6 169.6896 
L 414.72 169.6896 
" style="fill:none;stroke:#b0b0b0;stroke-linecap:square;stroke-width:0.8;"/>
     </g>
     <g id="line2d_24">
      <g>
       <use style="stroke:#000000;stroke-width:0.8;" x="57.6" xlink:href="#m3984dba13a" y="169.6896"/>
      </g>
     </g>
     <g id="text_12">
      <!-- 0.4 -->
      <g transform="translate(34.696875 173.488819)scale(0.1 -0.1)">
       <use xlink:href="#DejaVuSerif-48"/>
       <use x="63.623047" xlink:href="#DejaVuSerif-46"/>
       <use x="95.410156" xlink:href="#DejaVuSerif-52"/>
      </g>
     </g>
    </g>
    <g id="ytick_6">
     <g id="line2d_25">
      <path clip-path="url(#pab734f851a)" d="M 57.6 138.24 
L 414.72 138.24 
" style="fill:none;stroke:#b0b0b0;stroke-linecap:square;stroke-width:0.8;"/>
     </g>
     <g id="line2d_26">
      <g>
       <use style="stroke:#000000;stroke-width:0.8;" x="57.6" xlink:href="#m3984dba13a" y="138.24"/>
      </g>
     </g>
     <g id="text_13">
      <!-- 0.5 -->
      <g transform="translate(34.696875 142.039219)scale(0.1 -0.1)">
       <use xlink:href="#DejaVuSerif-48"/>
       <use x="63.623047" xlink:href="#DejaVuSerif-46"/>
       <use x="95.410156" xlink:href="#DejaVuSerif-53"/>
      </g>
     </g>
    </g>
    <g id="ytick_7">
     <g id="line2d_27">
      <path clip-path="url(#pab734f851a)" d="M 57.6 106.7904 
L 414.72 106.7904 
" style="fill:none;stroke:#b0b0b0;stroke-linecap:square;stroke-width:0.8;"/>
     </g>
     <g id="line2d_28">
      <g>
       <use style="stroke:#000000;stroke-width:0.8;" x="57.6" xlink:href="#m3984dba13a" y="106.7904"/>
      </g>
     </g>
     <g id="text_14">
      <!-- 0.6 -->
      <g transform="translate(34.696875 110.589619)scale(0.1 -0.1)">
       <use xlink:href="#DejaVuSerif-48"/>
       <use x="63.623047" xlink:href="#DejaVuSerif-46"/>
       <use x="95.410156" xlink:href="#DejaVuSerif-54"/>
      </g>
     </g>
    </g>
    <g id="ytick_8">
     <g id="line2d_29">
      <path clip-path="url(#pab734f851a)" d="M 57.6 75.3408 
L 414.72 75.3408 
" style="fill:none;stroke:#b0b0b0;stroke-linecap:square;stroke-width:0.8;"/>
     </g>
     <g id="line2d_30">
      <g>
       <use style="stroke:#000000;stroke-width:0.8;" x="57.6" xlink:href="#m3984dba13a" y="75.3408"/>
      </g>
     </g>
     <g id="text_15">
      <!-- 0.7 -->
      <g transform="translate(34.696875 79.140019)scale(0.1 -0.1)">
       <defs>
        <path d="M 56.390625 67.921875 
L 27.875 0 
L 20.609375 0 
L 47.796875 64.890625 
L 14.109375 64.890625 
L 14.109375 55.90625 
L 8.40625 55.90625 
L 8.40625 72.90625 
L 56.390625 72.90625 
z
" id="DejaVuSerif-55"/>
       </defs>
       <use xlink:href="#DejaVuSerif-48"/>
       <use x="63.623047" xlink:href="#DejaVuSerif-46"/>
       <use x="95.410156" xlink:href="#DejaVuSerif-55"/>
      </g>
     </g>
    </g>
    <g id="ytick_9">
     <g id="line2d_31">
      <path clip-path="url(#pab734f851a)" d="M 57.6 43.8912 
L 414.72 43.8912 
" style="fill:none;stroke:#b0b0b0;stroke-linecap:square;stroke-width:0.8;"/>
     </g>
     <g id="line2d_32">
      <g>
       <use style="stroke:#000000;stroke-width:0.8;" x="57.6" xlink:href="#m3984dba13a" y="43.8912"/>
      </g>
     </g>
     <g id="text_16">
      <!-- 0.8 -->
      <g transform="translate(34.696875 47.690419)scale(0.1 -0.1)">
       <defs>
        <path d="M 46.578125 19.921875 
Q 46.578125 27.734375 42.6875 32.046875 
Q 38.8125 36.375 31.78125 36.375 
Q 24.75 36.375 20.875 32.046875 
Q 17 27.734375 17 19.921875 
Q 17 12.0625 20.875 7.734375 
Q 24.75 3.421875 31.78125 3.421875 
Q 38.8125 3.421875 42.6875 7.734375 
Q 46.578125 12.0625 46.578125 19.921875 
z
M 44.578125 55.328125 
Q 44.578125 61.96875 41.203125 65.671875 
Q 37.84375 69.390625 31.78125 69.390625 
Q 25.78125 69.390625 22.390625 65.671875 
Q 19 61.96875 19 55.328125 
Q 19 48.640625 22.390625 44.921875 
Q 25.78125 41.21875 31.78125 41.21875 
Q 37.84375 41.21875 41.203125 44.921875 
Q 44.578125 48.640625 44.578125 55.328125 
z
M 39.3125 38.8125 
Q 47.609375 37.703125 52.25 32.6875 
Q 56.890625 27.6875 56.890625 19.921875 
Q 56.890625 9.671875 50.390625 4.125 
Q 43.890625 -1.421875 31.78125 -1.421875 
Q 19.734375 -1.421875 13.203125 4.125 
Q 6.6875 9.671875 6.6875 19.921875 
Q 6.6875 27.6875 11.328125 32.6875 
Q 15.96875 37.703125 24.3125 38.8125 
Q 16.9375 40.140625 13 44.40625 
Q 9.078125 48.6875 9.078125 55.328125 
Q 9.078125 64.109375 15.125 69.15625 
Q 21.1875 74.21875 31.78125 74.21875 
Q 42.390625 74.21875 48.4375 69.15625 
Q 54.5 64.109375 54.5 55.328125 
Q 54.5 48.6875 50.5625 44.40625 
Q 46.625 40.140625 39.3125 38.8125 
z
" id="DejaVuSerif-56"/>
       </defs>
       <use xlink:href="#DejaVuSerif-48"/>
       <use x="63.623047" xlink:href="#DejaVuSerif-46"/>
       <use x="95.410156" xlink:href="#DejaVuSerif-56"/>
      </g>
     </g>
    </g>
   </g>
   <g id="line2d_33">
    <path clip-path="url(#pab734f851a)" d="M 73.832727 295.488 
L 76.439086 295.488 
L 76.493385 53.568 
L 76.547684 70.848 
L 76.764881 70.848 
L 76.927778 85.824 
L 77.036376 85.824 
L 77.199274 98.928 
L 77.307872 98.928 
L 77.362171 110.490353 
L 77.525069 295.488 
L 84.746854 295.488 
L 84.909751 224.011636 
L 85.072649 225.6 
L 85.181247 225.6 
L 85.344145 227.119304 
L 85.452743 227.119304 
L 85.61564 228.573957 
L 85.724238 228.573957 
L 85.887136 229.968 
L 85.995734 229.968 
L 86.158632 231.305143 
L 86.26723 231.305143 
L 86.430127 232.5888 
L 86.538726 232.5888 
L 86.701623 233.822118 
L 86.810221 233.822118 
L 86.973119 235.008 
L 87.081717 235.008 
L 87.244614 236.149132 
L 87.353213 236.149132 
L 87.51611 237.248 
L 87.624708 237.248 
L 87.733307 238.306909 
L 87.896204 295.488 
L 93.16322 295.488 
L 93.326118 253.5552 
L 93.489015 254.106947 
L 93.597613 254.106947 
L 93.760511 254.644364 
L 93.869109 254.644364 
L 94.032007 255.168 
L 94.140605 255.168 
L 94.303502 255.67838 
L 94.412101 255.67838 
L 94.574998 256.176 
L 94.683596 256.176 
L 94.846494 256.661333 
L 94.955092 256.661333 
L 95.117989 257.134829 
L 95.226588 257.134829 
L 95.389485 257.596916 
L 95.498083 257.596916 
L 95.660981 258.048 
L 95.769579 258.048 
L 95.932476 258.488471 
L 96.041075 258.488471 
L 96.203972 258.918698 
L 96.31257 258.918698 
L 96.475468 259.339034 
L 96.584066 259.339034 
L 96.746963 259.749818 
L 96.855562 259.749818 
L 97.018459 260.151371 
L 97.127057 260.151371 
L 97.289955 260.544 
L 97.398553 260.544 
L 97.561451 260.928 
L 97.670049 260.928 
L 97.832946 261.303652 
L 97.941544 261.303652 
L 98.104442 261.671226 
L 98.21304 261.671226 
L 98.267339 262.030979 
L 98.430237 295.488 
L 101.688185 295.488 
L 101.742484 265.818566 
L 101.851082 266.09585 
L 102.01398 266.09585 
L 102.176877 266.368 
L 102.285476 266.368 
L 102.448373 266.635156 
L 102.556971 266.635156 
L 102.719869 266.897455 
L 102.828467 266.897455 
L 102.991364 267.155027 
L 103.099963 267.155027 
L 103.26286 267.408 
L 103.371458 267.408 
L 103.534356 267.656496 
L 103.642954 267.656496 
L 103.805851 267.900632 
L 103.91445 267.900632 
L 104.077347 268.140522 
L 104.185945 268.140522 
L 104.348843 268.376276 
L 104.457441 268.376276 
L 104.620338 268.608 
L 104.728937 268.608 
L 104.891834 268.835797 
L 105.000432 268.835797 
L 105.16333 269.059765 
L 105.271928 269.059765 
L 105.434826 269.28 
L 105.543424 269.28 
L 105.706321 269.496595 
L 105.814919 269.496595 
L 105.977817 269.709639 
L 106.086415 269.709639 
L 106.249313 269.91922 
L 106.357911 269.91922 
L 106.520808 270.125419 
L 106.629407 270.125419 
L 106.792304 270.32832 
L 106.900902 270.32832 
L 107.0638 270.528 
L 107.172398 270.528 
L 107.335295 270.724535 
L 107.443894 270.724535 
L 107.606791 270.918 
L 107.715389 270.918 
L 107.878287 271.108465 
L 107.986885 271.108465 
L 108.149782 271.296 
L 108.258381 271.296 
L 108.421278 271.480672 
L 108.529876 271.480672 
L 108.692774 271.662545 
L 108.801372 271.662545 
L 108.90997 271.841684 
L 109.072868 295.488 
L 110.158851 295.488 
L 110.321748 272.698435 
L 110.430346 272.698435 
L 110.593244 272.862388 
L 110.701842 272.862388 
L 110.864739 273.024 
L 110.973338 273.024 
L 111.136235 273.183319 
L 111.244833 273.183319 
L 111.407731 273.340394 
L 111.516329 273.340394 
L 111.679226 273.495273 
L 111.787825 273.495273 
L 111.950722 273.648 
L 112.05932 273.648 
L 112.222218 273.798621 
L 112.330816 273.798621 
L 112.493713 273.947178 
L 112.602312 273.947178 
L 112.765209 274.093714 
L 112.873807 274.093714 
L 113.036705 274.23827 
L 113.145303 274.23827 
L 113.308201 274.380886 
L 113.416799 274.380886 
L 113.579696 274.5216 
L 113.688294 274.5216 
L 113.851192 274.66045 
L 113.95979 274.66045 
L 114.122688 274.797474 
L 114.231286 274.797474 
L 114.394183 274.932706 
L 114.502782 274.932706 
L 114.665679 275.066182 
L 114.774277 275.066182 
L 114.937175 275.197935 
L 115.045773 275.197935 
L 115.20867 275.328 
L 115.317269 275.328 
L 115.480166 275.456408 
L 115.588764 275.456408 
L 115.751662 275.58319 
L 115.86026 275.58319 
L 116.023157 275.708377 
L 116.131756 275.708377 
L 116.294653 275.832 
L 116.403251 275.832 
L 116.566149 275.954087 
L 116.674747 275.954087 
L 116.837644 276.074667 
L 116.946243 276.074667 
L 117.10914 276.193767 
L 117.217738 276.193767 
L 117.380636 276.311415 
L 117.489234 276.311415 
L 117.652132 276.427636 
L 117.76073 276.427636 
L 117.923627 276.542458 
L 118.032226 276.542458 
L 118.195123 276.655904 
L 118.303721 276.655904 
L 118.466619 276.768 
L 118.629516 276.878769 
L 118.792413 258.269538 
L 118.846713 258.269538 
L 119.00961 258.488471 
L 119.118208 258.488471 
L 119.281106 258.704842 
L 119.389704 258.704842 
L 119.498302 258.918698 
L 119.6612 277.203349 
L 119.824097 277.30904 
L 120.204191 277.413517 
L 120.367088 277.5168 
L 120.747182 277.618909 
L 120.91008 277.719864 
L 121.290174 277.819685 
L 121.453071 277.918391 
L 121.833165 278.016 
L 121.996063 278.11253 
L 122.376157 278.208 
L 122.539054 278.302426 
L 122.919148 278.395826 
L 123.082045 278.488216 
L 123.462139 278.579613 
L 123.625037 278.670032 
L 124.005131 278.759489 
L 124.168028 278.848 
L 124.548122 278.935579 
L 124.711019 279.022241 
L 125.091113 279.108 
L 125.254011 279.19287 
L 125.634105 279.276866 
L 125.797002 279.36 
L 126.177096 279.442286 
L 126.339994 279.523736 
L 126.720088 279.604364 
L 126.882985 279.684181 
L 127.100182 279.7632 
L 127.263079 264.0384 
L 127.425976 264.194866 
L 127.534575 264.194866 
L 127.697472 264.349782 
L 127.80607 264.349782 
L 127.968968 264.503172 
L 128.077566 264.503172 
L 128.240463 264.655059 
L 128.349062 264.655059 
L 128.511959 264.805463 
L 128.620557 264.805463 
L 128.783455 264.954408 
L 128.892053 264.954408 
L 129.054951 265.101913 
L 129.163549 265.101913 
L 129.326446 265.248 
L 129.435044 265.248 
L 129.597942 265.392689 
L 129.70654 265.392689 
L 129.869438 265.536 
L 129.978036 265.536 
L 130.086634 265.677953 
L 130.249532 280.582976 
L 130.412429 280.653283 
L 130.792523 280.72293 
L 130.95542 280.791925 
L 131.335514 280.860279 
L 131.498412 280.928 
L 131.878506 280.995097 
L 132.041403 281.061578 
L 132.421497 281.127452 
L 132.584394 281.192727 
L 132.964488 281.257412 
L 133.127386 281.321514 
L 133.50748 281.38504 
L 133.670377 281.448 
L 134.050471 281.5104 
L 134.213369 281.572248 
L 134.593463 281.633551 
L 134.75636 281.694316 
L 135.136454 281.75455 
L 135.299351 281.814261 
L 135.570847 281.873455 
L 135.679445 268.258909 
L 135.733744 268.376276 
L 135.950941 268.376276 
L 136.113838 268.492635 
L 136.222437 268.492635 
L 136.385334 268.608 
L 136.493932 268.608 
L 136.65683 268.722383 
L 136.765428 268.722383 
L 136.928326 268.835797 
L 137.036924 268.835797 
L 137.199821 268.948253 
L 137.308419 268.948253 
L 137.471317 269.059765 
L 137.851411 269.170343 
L 138.014308 269.28 
L 138.394402 269.388747 
L 138.5573 269.496595 
L 138.937394 269.603556 
L 139.100291 269.709639 
L 139.480385 269.814857 
L 139.643282 269.91922 
L 140.023376 270.022737 
L 140.186274 270.125419 
L 140.566368 270.227277 
L 140.674966 270.32832 
L 140.837863 282.90816 
L 141.05506 282.958279 
L 141.65235 283.057328 
L 141.869547 283.106268 
L 142.466838 283.203 
L 142.684034 283.250802 
L 143.281325 283.345297 
L 143.498521 283.392 
L 144.041513 283.484336 
L 144.095812 271.480672 
L 144.20441 271.571954 
L 144.638803 271.662545 
L 144.8017 271.752453 
L 145.181794 271.841684 
L 145.344692 271.930247 
L 145.724786 272.018149 
L 145.887683 272.105398 
L 146.267777 272.192 
L 146.430675 272.277963 
L 146.810769 272.363294 
L 146.973666 272.448 
L 147.35376 272.532088 
L 147.516657 272.615564 
L 147.896751 272.698435 
L 148.059649 272.780708 
L 148.439743 272.862388 
L 148.60264 272.943484 
L 148.982734 273.024 
L 149.145632 273.103943 
L 149.525725 273.183319 
L 149.688623 273.262134 
L 150.068717 273.340394 
L 150.231614 273.418105 
L 150.611708 273.495273 
L 150.774606 273.571902 
L 151.1547 273.648 
L 151.263298 273.723571 
L 151.426195 284.605785 
L 151.643392 284.64331 
L 152.512178 284.754348 
L 152.675075 274.093714 
L 153.055169 274.166237 
L 153.218067 274.23827 
L 153.598161 274.309818 
L 153.761058 274.380886 
L 154.141152 274.451478 
L 154.30405 274.5216 
L 154.684144 274.591256 
L 154.847041 274.66045 
L 155.227135 274.729188 
L 155.390032 274.797474 
L 155.770126 274.865311 
L 155.933024 274.932706 
L 156.313118 274.999661 
L 156.476015 275.066182 
L 156.856109 275.132272 
L 157.019007 275.197935 
L 157.3991 275.263177 
L 157.561998 275.328 
L 157.942092 275.392409 
L 158.104989 275.456408 
L 158.485083 275.52 
L 158.647981 275.58319 
L 159.028075 275.645981 
L 159.190972 275.708377 
L 159.571066 275.770382 
L 159.733963 275.832 
L 160.114057 275.893234 
L 160.276955 275.954087 
L 160.657049 276.014563 
L 160.819946 276.074667 
L 160.982844 276.1344 
L 161.145741 266.4576 
L 161.471536 266.54665 
L 161.634433 266.635156 
L 161.85163 266.723122 
L 162.014527 276.311415 
L 162.177425 276.369702 
L 162.557519 276.427636 
L 162.720416 276.485221 
L 163.10051 276.542458 
L 163.263407 276.599351 
L 163.643501 276.655904 
L 163.806399 276.712119 
L 164.186493 276.768 
L 164.34939 276.823549 
L 165.00098 276.933664 
L 165.163877 276.988235 
L 165.815467 277.096421 
L 165.978364 277.150041 
L 166.629954 277.256348 
L 166.792851 277.30904 
L 167.444441 277.413517 
L 167.607338 277.465307 
L 168.258928 277.568 
L 168.421825 277.618909 
L 169.073415 277.719864 
L 169.290612 277.769915 
L 169.453509 277.819685 
L 169.616407 268.985528 
L 169.779304 269.059765 
L 170.159398 269.133587 
L 170.322295 269.206997 
L 170.702389 269.28 
L 170.865287 269.352598 
L 171.245381 269.424796 
L 171.408278 269.496595 
L 171.788372 269.568 
L 171.951269 269.639014 
L 172.331363 269.709639 
L 172.439962 269.77988 
L 172.602859 278.349253 
L 172.820056 278.395826 
L 173.417346 278.488216 
L 173.634543 278.534038 
L 174.231833 278.624944 
L 174.44903 278.670032 
L 175.04632 278.759489 
L 175.263517 278.803862 
L 175.860807 278.891905 
L 176.078004 278.935579 
L 176.675294 279.022241 
L 176.892491 279.065232 
L 177.489782 279.150545 
L 177.706978 279.19287 
L 177.978474 279.234977 
L 178.032773 271.108465 
L 178.141371 271.171299 
L 178.575764 271.23381 
L 178.738662 271.296 
L 179.118756 271.357872 
L 179.281653 271.419429 
L 179.661747 271.480672 
L 179.824644 271.541604 
L 180.204738 271.602228 
L 180.367636 271.662545 
L 180.74773 271.722559 
L 180.910627 271.782271 
L 181.290721 271.841684 
L 181.453619 271.9008 
L 181.833713 271.959621 
L 181.99661 272.018149 
L 182.376704 272.076387 
L 182.539601 272.134337 
L 182.919695 272.192 
L 183.028294 272.249379 
L 183.191191 279.995586 
L 183.408388 280.033651 
L 184.005678 280.109222 
L 184.222875 280.146732 
L 184.820165 280.221204 
L 185.037362 280.258169 
L 185.906148 280.368 
L 186.123344 280.404259 
L 186.449139 280.440344 
L 186.612037 272.970387 
L 187.263626 273.077359 
L 187.426524 273.130464 
L 188.078113 273.235925 
L 188.241011 273.288282 
L 188.8926 273.392262 
L 189.055498 273.443888 
L 189.707088 273.546419 
L 189.869985 273.597327 
L 190.521575 273.698439 
L 190.738771 273.748645 
L 191.336062 273.848367 
L 191.553258 273.897886 
L 192.150549 273.996246 
L 192.367745 274.045091 
L 192.965036 274.142118 
L 193.182232 274.190302 
L 193.616625 274.286022 
L 193.779523 281.353348 
L 194.105318 281.416591 
L 194.919805 281.5104 
L 195.082702 274.5216 
L 195.679993 274.614372 
L 195.897189 274.66045 
L 196.49448 274.752 
L 196.711676 274.797474 
L 197.308967 274.887825 
L 197.526163 274.932706 
L 198.123454 275.021883 
L 198.34065 275.066182 
L 198.937941 275.154207 
L 199.155138 275.197935 
L 199.752428 275.284831 
L 199.969625 275.328 
L 200.566915 275.413787 
L 200.784112 275.456408 
L 201.381402 275.541108 
L 201.598599 275.58319 
L 202.195889 275.666824 
L 202.413086 275.708377 
L 203.010376 275.790965 
L 203.227573 275.832 
L 203.39047 275.872865 
L 203.553368 269.334486 
L 203.716265 269.388747 
L 204.259256 269.496595 
L 204.422154 276.034639 
L 205.182342 276.11453 
L 205.399538 276.15423 
L 205.996829 276.233143 
L 206.214025 276.272358 
L 206.811316 276.350312 
L 207.028513 276.389053 
L 207.625803 276.466065 
L 207.843 276.504338 
L 208.44029 276.580425 
L 208.657487 276.61824 
L 209.254777 276.693418 
L 209.471974 276.730783 
L 210.069264 276.805069 
L 210.286461 276.841992 
L 211.155247 276.95189 
L 211.372444 276.988235 
L 211.861136 277.0605 
L 211.969734 270.918 
L 212.024033 270.965895 
L 212.784221 271.061126 
L 213.001418 271.108465 
L 213.598708 271.202595 
L 213.815905 271.249387 
L 214.413195 271.342434 
L 214.630392 271.38869 
L 214.847588 271.434769 
L 215.010486 277.482504 
L 216.042169 277.585002 
L 216.259366 277.618909 
L 217.128152 277.719864 
L 217.345349 277.753263 
L 218.214135 277.85271 
L 218.431331 277.885612 
L 219.300118 277.983584 
L 219.517314 278.016 
L 220.331801 278.11253 
L 220.3861 272.320707 
L 220.494699 272.363294 
L 221.200588 272.448 
L 221.417784 272.490121 
L 222.015075 272.573902 
L 222.232271 272.615564 
L 222.829562 272.698435 
L 223.046758 272.739646 
L 223.644049 272.821622 
L 223.861245 272.862388 
L 224.458536 272.943484 
L 224.675732 272.983814 
L 225.273023 273.064043 
L 225.43592 273.103943 
L 225.598818 278.729776 
L 226.630501 278.818601 
L 226.956296 278.877296 
L 227.98798 278.964567 
L 228.313775 279.022241 
L 228.802467 279.050927 
L 228.965364 273.610017 
L 229.616954 273.685851 
L 229.83415 273.723571 
L 230.431441 273.798621 
L 230.648638 273.835952 
L 231.245928 273.91023 
L 231.463125 273.947178 
L 232.331911 274.057267 
L 232.549107 274.093714 
L 233.417894 274.202315 
L 233.63509 274.23827 
L 234.503876 274.345412 
L 234.721073 274.380886 
L 235.589859 274.486598 
L 235.807056 274.5216 
L 236.024252 274.556486 
L 236.18715 279.815442 
L 237.273132 279.918891 
L 237.43603 274.729188 
L 238.304816 274.831448 
L 238.522012 274.865311 
L 239.390799 274.966238 
L 239.607995 274.999661 
L 240.476781 275.09928 
L 240.693978 275.132272 
L 241.562764 275.230609 
L 241.779961 275.263177 
L 242.648747 275.360256 
L 242.974542 275.424459 
L 244.006225 275.52 
L 244.33202 275.58319 
L 245.363704 275.677228 
L 245.689499 275.739429 
L 245.743798 275.739429 
L 245.906695 270.802286 
L 246.123892 270.840978 
L 246.612584 270.918 
L 246.775481 275.862665 
L 247.807165 275.954087 
L 248.13296 276.014563 
L 249.164644 276.104579 
L 249.490438 276.164129 
L 250.522122 276.252771 
L 250.847917 276.311415 
L 251.8796 276.398713 
L 252.205395 276.456472 
L 253.237079 276.542458 
L 253.562874 276.599351 
L 254.268762 276.655904 
L 254.323062 271.94788 
L 254.43166 271.983067 
L 255.409044 272.088 
L 255.626241 272.12277 
L 256.495027 272.226462 
L 256.712224 272.260821 
L 257.200916 272.329237 
L 257.363813 276.988235 
L 258.666993 277.096421 
L 258.992787 277.150041 
L 260.295967 277.256348 
L 260.621762 277.30904 
L 261.924941 277.413517 
L 262.250736 277.465307 
L 262.739428 277.49109 
L 262.902325 273.024 
L 263.825411 273.119863 
L 264.151206 273.183319 
L 265.182889 273.277831 
L 265.508684 273.340394 
L 266.540368 273.433582 
L 266.866162 273.495273 
L 267.789248 273.587164 
L 267.952145 277.9917 
L 269.255325 278.088498 
L 269.635419 278.136497 
L 270.884299 278.231704 
L 271.264393 278.278917 
L 271.861683 278.325872 
L 271.970281 274.03534 
L 272.024581 274.064567 
L 273.056264 274.151772 
L 273.382059 274.209516 
L 274.413743 274.295547 
L 274.739537 274.352516 
L 275.771221 274.437398 
L 276.097016 274.493607 
L 277.1287 274.577362 
L 277.454494 274.632828 
L 278.37758 274.715477 
L 278.540477 278.891905 
L 280.115152 279.000661 
L 280.495246 279.043765 
L 282.015622 279.150545 
L 282.178519 279.171735 
L 282.287118 271.013603 
L 282.341417 271.045306 
L 283.3731 271.139923 
L 283.698895 271.202595 
L 284.730579 271.296 
L 285.056374 271.357872 
L 286.088057 271.450089 
L 286.413852 271.511177 
L 287.445536 271.602228 
L 287.771331 271.662545 
L 288.803014 271.752453 
L 288.965912 271.782271 
L 289.128809 275.758013 
L 290.431988 275.856539 
L 290.757783 275.905435 
L 292.060962 276.002498 
L 292.441056 276.05067 
L 293.689937 276.146303 
L 294.070031 276.193767 
L 295.318911 276.288 
L 295.699005 276.334772 
L 296.947885 276.427636 
L 297.327979 276.473732 
L 298.576859 276.565256 
L 298.956953 276.610689 
L 299.608543 276.655904 
L 299.77144 280.440344 
L 301.563312 280.547572 
L 301.997705 280.582976 
L 303.735277 280.688188 
L 304.16967 280.72293 
L 305.907243 280.826182 
L 306.341636 280.860279 
L 308.079208 280.961626 
L 308.513601 280.995097 
L 310.196875 281.09459 
L 310.359772 284.70528 
L 312.966131 284.815059 
L 313.61772 284.851157 
L 316.224079 284.958 
L 316.875668 284.993139 
L 319.482027 285.097163 
L 320.133617 285.131381 
L 321.599693 285.187913 
L 321.762591 288.628763 
L 325.997924 288.739159 
L 327.029607 288.768 
L 331.156342 288.873994 
L 332.296624 288.908586 
L 334.522888 288.963187 
L 334.685786 295.488 
L 398.487273 295.488 
L 398.487273 295.488 
" style="fill:none;stroke:#1f77b4;stroke-linecap:square;stroke-width:1.5;"/>
   </g>
   <g id="patch_3">
    <path d="M 57.6 307.584 
L 57.6 41.472 
" style="fill:none;stroke:#000000;stroke-linecap:square;stroke-linejoin:miter;stroke-width:0.8;"/>
   </g>
   <g id="patch_4">
    <path d="M 414.72 307.584 
L 414.72 41.472 
" style="fill:none;stroke:#000000;stroke-linecap:square;stroke-linejoin:miter;stroke-width:0.8;"/>
   </g>
   <g id="patch_5">
    <path d="M 57.6 307.584 
L 414.72 307.584 
" style="fill:none;stroke:#000000;stroke-linecap:square;stroke-linejoin:miter;stroke-width:0.8;"/>
   </g>
   <g id="patch_6">
    <path d="M 57.6 41.472 
L 414.72 41.472 
" style="fill:none;stroke:#000000;stroke-linecap:square;stroke-linejoin:miter;stroke-width:0.8;"/>
   </g>
  </g>
 </g>
 <defs>
  <clipPath id="pab734f851a">
   <rect height="266.112" width="357.12" x="57.6" y="41.472"/>
  </clipPath>
 </defs>
</svg>
