<?xml version="1.0" encoding="utf-8" standalone="no"?>
<!DOCTYPE svg PUBLIC "-//W3C//DTD SVG 1.1//EN"
  "http://www.w3.org/Graphics/SVG/1.1/DTD/svg11.dtd">
<!-- Created with matplotlib (https://matplotlib.org/) -->
<svg height="345.6pt" version="1.1" viewBox="0 0 460.8 345.6" width="460.8pt" xmlns="http://www.w3.org/2000/svg" xmlns:xlink="http://www.w3.org/1999/xlink">
 <metadata>
  <rdf:RDF xmlns:cc="http://creativecommons.org/ns#" xmlns:dc="http://purl.org/dc/elements/1.1/" xmlns:rdf="http://www.w3.org/1999/02/22-rdf-syntax-ns#">
   <cc:Work>
    <dc:type rdf:resource="http://purl.org/dc/dcmitype/StillImage"/>
    <dc:date>2022-08-03T15:17:23.286566</dc:date>
    <dc:format>image/svg+xml</dc:format>
    <dc:creator>
     <cc:Agent>
      <dc:title>Matplotlib v3.3.4, https://matplotlib.org/</dc:title>
     </cc:Agent>
    </dc:creator>
   </cc:Work>
  </rdf:RDF>
 </metadata>
 <defs>
  <style type="text/css">*{stroke-linecap:butt;stroke-linejoin:round;}</style>
 </defs>
 <g id="figure_1">
  <g id="patch_1">
   <path d="M 0 345.6 
L 460.8 345.6 
L 460.8 0 
L 0 0 
z
" style="fill:#ffffff;"/>
  </g>
  <g id="axes_1">
   <g id="patch_2">
    <path d="M 57.6 307.584 
L 414.72 307.584 
L 414.72 41.472 
L 57.6 41.472 
z
" style="fill:#ffffff;"/>
   </g>
   <g id="matplotlib.axis_1">
    <g id="xtick_1">
     <g id="line2d_1">
      <path clip-path="url(#p1656445ccb)" d="M 72.692445 307.584 
L 72.692445 41.472 
" style="fill:none;stroke:#b0b0b0;stroke-linecap:square;stroke-width:0.8;"/>
     </g>
     <g id="line2d_2">
      <defs>
       <path d="M 0 0 
L 0 3.5 
" id="m43cf05f643" style="stroke:#000000;stroke-width:0.8;"/>
      </defs>
      <g>
       <use style="stroke:#000000;stroke-width:0.8;" x="72.692445" xlink:href="#m43cf05f643" y="307.584"/>
      </g>
     </g>
     <g id="text_1">
      <!-- 0 -->
      <g transform="translate(69.511195 322.182437)scale(0.1 -0.1)">
       <defs>
        <path d="M 31.78125 3.421875 
Q 39.265625 3.421875 42.96875 11.625 
Q 46.6875 19.828125 46.6875 36.375 
Q 46.6875 52.984375 42.96875 61.1875 
Q 39.265625 69.390625 31.78125 69.390625 
Q 24.3125 69.390625 20.59375 61.1875 
Q 16.890625 52.984375 16.890625 36.375 
Q 16.890625 19.828125 20.59375 11.625 
Q 24.3125 3.421875 31.78125 3.421875 
z
M 31.78125 -1.421875 
Q 19.921875 -1.421875 13.25 8.53125 
Q 6.59375 18.5 6.59375 36.375 
Q 6.59375 54.296875 13.25 64.25 
Q 19.921875 74.21875 31.78125 74.21875 
Q 43.703125 74.21875 50.34375 64.25 
Q 56.984375 54.296875 56.984375 36.375 
Q 56.984375 18.5 50.34375 8.53125 
Q 43.703125 -1.421875 31.78125 -1.421875 
z
" id="DejaVuSerif-48"/>
       </defs>
       <use xlink:href="#DejaVuSerif-48"/>
      </g>
     </g>
    </g>
    <g id="xtick_2">
     <g id="line2d_3">
      <path clip-path="url(#p1656445ccb)" d="M 126.991583 307.584 
L 126.991583 41.472 
" style="fill:none;stroke:#b0b0b0;stroke-linecap:square;stroke-width:0.8;"/>
     </g>
     <g id="line2d_4">
      <g>
       <use style="stroke:#000000;stroke-width:0.8;" x="126.991583" xlink:href="#m43cf05f643" y="307.584"/>
      </g>
     </g>
     <g id="text_2">
      <!-- 100 -->
      <g transform="translate(117.447833 322.182437)scale(0.1 -0.1)">
       <defs>
        <path d="M 14.203125 0 
L 14.203125 5.171875 
L 26.90625 5.171875 
L 26.90625 65.828125 
L 12.203125 56.296875 
L 12.203125 62.703125 
L 29.984375 74.21875 
L 36.71875 74.21875 
L 36.71875 5.171875 
L 49.421875 5.171875 
L 49.421875 0 
z
" id="DejaVuSerif-49"/>
       </defs>
       <use xlink:href="#DejaVuSerif-49"/>
       <use x="63.623047" xlink:href="#DejaVuSerif-48"/>
       <use x="127.246094" xlink:href="#DejaVuSerif-48"/>
      </g>
     </g>
    </g>
    <g id="xtick_3">
     <g id="line2d_5">
      <path clip-path="url(#p1656445ccb)" d="M 181.290721 307.584 
L 181.290721 41.472 
" style="fill:none;stroke:#b0b0b0;stroke-linecap:square;stroke-width:0.8;"/>
     </g>
     <g id="line2d_6">
      <g>
       <use style="stroke:#000000;stroke-width:0.8;" x="181.290721" xlink:href="#m43cf05f643" y="307.584"/>
      </g>
     </g>
     <g id="text_3">
      <!-- 200 -->
      <g transform="translate(171.746971 322.182437)scale(0.1 -0.1)">
       <defs>
        <path d="M 12.796875 55.515625 
L 7.328125 55.515625 
L 7.328125 68.5 
Q 12.546875 71.296875 17.84375 72.75 
Q 23.140625 74.21875 28.21875 74.21875 
Q 39.59375 74.21875 46.1875 68.703125 
Q 52.78125 63.1875 52.78125 53.71875 
Q 52.78125 43.015625 37.84375 28.125 
Q 36.671875 27 36.078125 26.421875 
L 17.671875 8.015625 
L 48.09375 8.015625 
L 48.09375 17 
L 53.8125 17 
L 53.8125 0 
L 6.78125 0 
L 6.78125 5.328125 
L 28.90625 27.390625 
Q 36.234375 34.71875 39.359375 40.84375 
Q 42.484375 46.96875 42.484375 53.71875 
Q 42.484375 61.078125 38.640625 65.234375 
Q 34.8125 69.390625 28.078125 69.390625 
Q 21.09375 69.390625 17.28125 65.921875 
Q 13.484375 62.453125 12.796875 55.515625 
z
" id="DejaVuSerif-50"/>
       </defs>
       <use xlink:href="#DejaVuSerif-50"/>
       <use x="63.623047" xlink:href="#DejaVuSerif-48"/>
       <use x="127.246094" xlink:href="#DejaVuSerif-48"/>
      </g>
     </g>
    </g>
    <g id="xtick_4">
     <g id="line2d_7">
      <path clip-path="url(#p1656445ccb)" d="M 235.589859 307.584 
L 235.589859 41.472 
" style="fill:none;stroke:#b0b0b0;stroke-linecap:square;stroke-width:0.8;"/>
     </g>
     <g id="line2d_8">
      <g>
       <use style="stroke:#000000;stroke-width:0.8;" x="235.589859" xlink:href="#m43cf05f643" y="307.584"/>
      </g>
     </g>
     <g id="text_4">
      <!-- 300 -->
      <g transform="translate(226.046109 322.182437)scale(0.1 -0.1)">
       <defs>
        <path d="M 9.71875 69.828125 
Q 15.4375 71.96875 20.671875 73.09375 
Q 25.921875 74.21875 30.515625 74.21875 
Q 41.21875 74.21875 47.21875 69.59375 
Q 53.21875 64.984375 53.21875 56.78125 
Q 53.21875 50.203125 49.0625 45.78125 
Q 44.921875 41.359375 37.3125 39.796875 
Q 46.296875 38.53125 51.25 33.28125 
Q 56.203125 28.03125 56.203125 19.671875 
Q 56.203125 9.46875 49.34375 4.015625 
Q 42.484375 -1.421875 29.59375 -1.421875 
Q 23.875 -1.421875 18.421875 -0.1875 
Q 12.984375 1.03125 7.625 3.515625 
L 7.625 17.671875 
L 13.09375 17.671875 
Q 13.578125 10.640625 17.828125 7.03125 
Q 22.078125 3.421875 29.78125 3.421875 
Q 37.25 3.421875 41.578125 7.734375 
Q 45.90625 12.0625 45.90625 19.578125 
Q 45.90625 28.171875 41.453125 32.59375 
Q 37.015625 37.015625 28.421875 37.015625 
L 23.78125 37.015625 
L 23.78125 42 
L 26.21875 42 
Q 34.765625 42 39.03125 45.53125 
Q 43.3125 49.078125 43.3125 56.203125 
Q 43.3125 62.59375 39.796875 65.984375 
Q 36.28125 69.390625 29.6875 69.390625 
Q 23.09375 69.390625 19.453125 66.265625 
Q 15.828125 63.140625 15.1875 56.984375 
L 9.71875 56.984375 
z
" id="DejaVuSerif-51"/>
       </defs>
       <use xlink:href="#DejaVuSerif-51"/>
       <use x="63.623047" xlink:href="#DejaVuSerif-48"/>
       <use x="127.246094" xlink:href="#DejaVuSerif-48"/>
      </g>
     </g>
    </g>
    <g id="xtick_5">
     <g id="line2d_9">
      <path clip-path="url(#p1656445ccb)" d="M 289.888997 307.584 
L 289.888997 41.472 
" style="fill:none;stroke:#b0b0b0;stroke-linecap:square;stroke-width:0.8;"/>
     </g>
     <g id="line2d_10">
      <g>
       <use style="stroke:#000000;stroke-width:0.8;" x="289.888997" xlink:href="#m43cf05f643" y="307.584"/>
      </g>
     </g>
     <g id="text_5">
      <!-- 400 -->
      <g transform="translate(280.345247 322.182437)scale(0.1 -0.1)">
       <defs>
        <path d="M 34.90625 24.703125 
L 34.90625 63.484375 
L 10.015625 24.703125 
z
M 56.390625 0 
L 23.1875 0 
L 23.1875 5.171875 
L 34.90625 5.171875 
L 34.90625 19.484375 
L 3.078125 19.484375 
L 3.078125 24.8125 
L 35.015625 74.21875 
L 44.671875 74.21875 
L 44.671875 24.703125 
L 58.59375 24.703125 
L 58.59375 19.484375 
L 44.671875 19.484375 
L 44.671875 5.171875 
L 56.390625 5.171875 
z
" id="DejaVuSerif-52"/>
       </defs>
       <use xlink:href="#DejaVuSerif-52"/>
       <use x="63.623047" xlink:href="#DejaVuSerif-48"/>
       <use x="127.246094" xlink:href="#DejaVuSerif-48"/>
      </g>
     </g>
    </g>
    <g id="xtick_6">
     <g id="line2d_11">
      <path clip-path="url(#p1656445ccb)" d="M 344.188135 307.584 
L 344.188135 41.472 
" style="fill:none;stroke:#b0b0b0;stroke-linecap:square;stroke-width:0.8;"/>
     </g>
     <g id="line2d_12">
      <g>
       <use style="stroke:#000000;stroke-width:0.8;" x="344.188135" xlink:href="#m43cf05f643" y="307.584"/>
      </g>
     </g>
     <g id="text_6">
      <!-- 500 -->
      <g transform="translate(334.644385 322.182437)scale(0.1 -0.1)">
       <defs>
        <path d="M 50.296875 72.90625 
L 50.296875 64.890625 
L 16.890625 64.890625 
L 16.890625 44 
Q 19.4375 45.75 22.828125 46.625 
Q 26.21875 47.515625 30.421875 47.515625 
Q 42.234375 47.515625 49.0625 40.96875 
Q 55.90625 34.421875 55.90625 23.09375 
Q 55.90625 11.53125 49 5.046875 
Q 42.09375 -1.421875 29.59375 -1.421875 
Q 24.5625 -1.421875 19.28125 -0.1875 
Q 14.015625 1.03125 8.5 3.515625 
L 8.5 17.671875 
L 14.015625 17.671875 
Q 14.453125 10.75 18.421875 7.078125 
Q 22.40625 3.421875 29.59375 3.421875 
Q 37.3125 3.421875 41.453125 8.5 
Q 45.609375 13.578125 45.609375 23.09375 
Q 45.609375 32.5625 41.484375 37.609375 
Q 37.359375 42.671875 29.59375 42.671875 
Q 25.203125 42.671875 21.84375 41.109375 
Q 18.5 39.546875 15.921875 36.28125 
L 11.71875 36.28125 
L 11.71875 72.90625 
z
" id="DejaVuSerif-53"/>
       </defs>
       <use xlink:href="#DejaVuSerif-53"/>
       <use x="63.623047" xlink:href="#DejaVuSerif-48"/>
       <use x="127.246094" xlink:href="#DejaVuSerif-48"/>
      </g>
     </g>
    </g>
    <g id="xtick_7">
     <g id="line2d_13">
      <path clip-path="url(#p1656445ccb)" d="M 398.487273 307.584 
L 398.487273 41.472 
" style="fill:none;stroke:#b0b0b0;stroke-linecap:square;stroke-width:0.8;"/>
     </g>
     <g id="line2d_14">
      <g>
       <use style="stroke:#000000;stroke-width:0.8;" x="398.487273" xlink:href="#m43cf05f643" y="307.584"/>
      </g>
     </g>
     <g id="text_7">
      <!-- 600 -->
      <g transform="translate(388.943523 322.182437)scale(0.1 -0.1)">
       <defs>
        <path d="M 32.71875 3.421875 
Q 39.59375 3.421875 43.296875 8.46875 
Q 47.015625 13.53125 47.015625 23 
Q 47.015625 32.46875 43.296875 37.515625 
Q 39.59375 42.578125 32.71875 42.578125 
Q 25.734375 42.578125 22.0625 37.6875 
Q 18.40625 32.8125 18.40625 23.578125 
Q 18.40625 13.875 22.109375 8.640625 
Q 25.828125 3.421875 32.71875 3.421875 
z
M 16.796875 40.140625 
Q 20.125 43.796875 24.3125 45.59375 
Q 28.515625 47.40625 33.796875 47.40625 
Q 44.671875 47.40625 51 40.859375 
Q 57.328125 34.328125 57.328125 23 
Q 57.328125 11.921875 50.515625 5.25 
Q 43.703125 -1.421875 32.328125 -1.421875 
Q 19.96875 -1.421875 13.328125 7.78125 
Q 6.6875 17 6.6875 34.078125 
Q 6.6875 53.21875 14.546875 63.71875 
Q 22.40625 74.21875 36.71875 74.21875 
Q 40.578125 74.21875 44.828125 73.484375 
Q 49.078125 72.75 53.515625 71.296875 
L 53.515625 59.28125 
L 48 59.28125 
Q 47.40625 64.203125 44.234375 66.796875 
Q 41.0625 69.390625 35.6875 69.390625 
Q 26.21875 69.390625 21.578125 62.203125 
Q 16.9375 55.03125 16.796875 40.140625 
z
" id="DejaVuSerif-54"/>
       </defs>
       <use xlink:href="#DejaVuSerif-54"/>
       <use x="63.623047" xlink:href="#DejaVuSerif-48"/>
       <use x="127.246094" xlink:href="#DejaVuSerif-48"/>
      </g>
     </g>
    </g>
    <g id="text_8">
     <!-- Time -->
     <g transform="translate(223.524844 335.860562)scale(0.1 -0.1)">
      <defs>
       <path d="M 19.09375 0 
L 19.09375 5.171875 
L 28.421875 5.171875 
L 28.421875 67.09375 
L 6.984375 67.09375 
L 6.984375 55.71875 
L 0.984375 55.71875 
L 0.984375 72.90625 
L 65.71875 72.90625 
L 65.71875 55.71875 
L 59.71875 55.71875 
L 59.71875 67.09375 
L 38.28125 67.09375 
L 38.28125 5.171875 
L 47.609375 5.171875 
L 47.609375 0 
z
" id="DejaVuSerif-84"/>
       <path d="M 9.71875 68.015625 
Q 9.71875 70.265625 11.34375 71.921875 
Q 12.984375 73.578125 15.28125 73.578125 
Q 17.53125 73.578125 19.15625 71.921875 
Q 20.796875 70.265625 20.796875 68.015625 
Q 20.796875 65.71875 19.1875 64.109375 
Q 17.578125 62.5 15.28125 62.5 
Q 12.984375 62.5 11.34375 64.109375 
Q 9.71875 65.71875 9.71875 68.015625 
z
M 21.1875 5.171875 
L 29.6875 5.171875 
L 29.6875 0 
L 3.609375 0 
L 3.609375 5.171875 
L 12.203125 5.171875 
L 12.203125 46.6875 
L 3.609375 46.6875 
L 3.609375 51.90625 
L 21.1875 51.90625 
z
" id="DejaVuSerif-105"/>
       <path d="M 51.8125 41.796875 
Q 54.390625 47.515625 58.421875 50.421875 
Q 62.453125 53.328125 67.828125 53.328125 
Q 75.984375 53.328125 79.984375 48.265625 
Q 83.984375 43.21875 83.984375 33.015625 
L 83.984375 5.171875 
L 92.09375 5.171875 
L 92.09375 0 
L 67.1875 0 
L 67.1875 5.171875 
L 75 5.171875 
L 75 31.984375 
Q 75 39.9375 72.65625 43.3125 
Q 70.3125 46.6875 64.890625 46.6875 
Q 58.890625 46.6875 55.734375 42.140625 
Q 52.59375 37.59375 52.59375 28.90625 
L 52.59375 5.171875 
L 60.40625 5.171875 
L 60.40625 0 
L 35.796875 0 
L 35.796875 5.171875 
L 43.609375 5.171875 
L 43.609375 32.328125 
Q 43.609375 40.09375 41.265625 43.390625 
Q 38.921875 46.6875 33.5 46.6875 
Q 27.484375 46.6875 24.328125 42.140625 
Q 21.1875 37.59375 21.1875 28.90625 
L 21.1875 5.171875 
L 29 5.171875 
L 29 0 
L 4.109375 0 
L 4.109375 5.171875 
L 12.203125 5.171875 
L 12.203125 46.78125 
L 3.609375 46.78125 
L 3.609375 51.90625 
L 21.1875 51.90625 
L 21.1875 42.671875 
Q 23.6875 47.859375 27.53125 50.59375 
Q 31.390625 53.328125 36.28125 53.328125 
Q 42.328125 53.328125 46.375 50.3125 
Q 50.4375 47.3125 51.8125 41.796875 
z
" id="DejaVuSerif-109"/>
       <path d="M 54.203125 25 
L 15.484375 25 
L 15.484375 24.609375 
Q 15.484375 14.109375 19.4375 8.765625 
Q 23.390625 3.421875 31.109375 3.421875 
Q 37.015625 3.421875 40.796875 6.515625 
Q 44.578125 9.625 46.09375 15.71875 
L 53.328125 15.71875 
Q 51.171875 7.171875 45.375 2.875 
Q 39.59375 -1.421875 30.171875 -1.421875 
Q 18.796875 -1.421875 11.890625 6.078125 
Q 4.984375 13.578125 4.984375 25.984375 
Q 4.984375 38.28125 11.765625 45.796875 
Q 18.5625 53.328125 29.59375 53.328125 
Q 41.359375 53.328125 47.65625 46.0625 
Q 53.953125 38.8125 54.203125 25 
z
M 43.609375 30.171875 
Q 43.3125 39.265625 39.765625 43.875 
Q 36.234375 48.484375 29.59375 48.484375 
Q 23.390625 48.484375 19.828125 43.84375 
Q 16.265625 39.203125 15.484375 30.171875 
z
" id="DejaVuSerif-101"/>
      </defs>
      <use xlink:href="#DejaVuSerif-84"/>
      <use x="66.699219" xlink:href="#DejaVuSerif-105"/>
      <use x="98.681641" xlink:href="#DejaVuSerif-109"/>
      <use x="193.505859" xlink:href="#DejaVuSerif-101"/>
     </g>
    </g>
   </g>
   <g id="matplotlib.axis_2">
    <g id="ytick_1">
     <g id="line2d_15">
      <path clip-path="url(#p1656445ccb)" d="M 57.6 292.8 
L 414.72 292.8 
" style="fill:none;stroke:#b0b0b0;stroke-linecap:square;stroke-width:0.8;"/>
     </g>
     <g id="line2d_16">
      <defs>
       <path d="M 0 0 
L -3.5 0 
" id="m1cd63a5e3a" style="stroke:#000000;stroke-width:0.8;"/>
      </defs>
      <g>
       <use style="stroke:#000000;stroke-width:0.8;" x="57.6" xlink:href="#m1cd63a5e3a" y="292.8"/>
      </g>
     </g>
     <g id="text_9">
      <!-- 0.0 -->
      <g transform="translate(34.696875 296.599219)scale(0.1 -0.1)">
       <defs>
        <path d="M 9.421875 5.078125 
Q 9.421875 7.8125 11.28125 9.71875 
Q 13.140625 11.625 15.921875 11.625 
Q 18.609375 11.625 20.5 9.71875 
Q 22.40625 7.8125 22.40625 5.078125 
Q 22.40625 2.390625 20.5 0.484375 
Q 18.609375 -1.421875 15.921875 -1.421875 
Q 13.140625 -1.421875 11.28125 0.453125 
Q 9.421875 2.34375 9.421875 5.078125 
z
" id="DejaVuSerif-46"/>
       </defs>
       <use xlink:href="#DejaVuSerif-48"/>
       <use x="63.623047" xlink:href="#DejaVuSerif-46"/>
       <use x="95.410156" xlink:href="#DejaVuSerif-48"/>
      </g>
     </g>
    </g>
    <g id="ytick_2">
     <g id="line2d_17">
      <path clip-path="url(#p1656445ccb)" d="M 57.6 263.232 
L 414.72 263.232 
" style="fill:none;stroke:#b0b0b0;stroke-linecap:square;stroke-width:0.8;"/>
     </g>
     <g id="line2d_18">
      <g>
       <use style="stroke:#000000;stroke-width:0.8;" x="57.6" xlink:href="#m1cd63a5e3a" y="263.232"/>
      </g>
     </g>
     <g id="text_10">
      <!-- 0.2 -->
      <g transform="translate(34.696875 267.031219)scale(0.1 -0.1)">
       <use xlink:href="#DejaVuSerif-48"/>
       <use x="63.623047" xlink:href="#DejaVuSerif-46"/>
       <use x="95.410156" xlink:href="#DejaVuSerif-50"/>
      </g>
     </g>
    </g>
    <g id="ytick_3">
     <g id="line2d_19">
      <path clip-path="url(#p1656445ccb)" d="M 57.6 233.664 
L 414.72 233.664 
" style="fill:none;stroke:#b0b0b0;stroke-linecap:square;stroke-width:0.8;"/>
     </g>
     <g id="line2d_20">
      <g>
       <use style="stroke:#000000;stroke-width:0.8;" x="57.6" xlink:href="#m1cd63a5e3a" y="233.664"/>
      </g>
     </g>
     <g id="text_11">
      <!-- 0.4 -->
      <g transform="translate(34.696875 237.463219)scale(0.1 -0.1)">
       <use xlink:href="#DejaVuSerif-48"/>
       <use x="63.623047" xlink:href="#DejaVuSerif-46"/>
       <use x="95.410156" xlink:href="#DejaVuSerif-52"/>
      </g>
     </g>
    </g>
    <g id="ytick_4">
     <g id="line2d_21">
      <path clip-path="url(#p1656445ccb)" d="M 57.6 204.096 
L 414.72 204.096 
" style="fill:none;stroke:#b0b0b0;stroke-linecap:square;stroke-width:0.8;"/>
     </g>
     <g id="line2d_22">
      <g>
       <use style="stroke:#000000;stroke-width:0.8;" x="57.6" xlink:href="#m1cd63a5e3a" y="204.096"/>
      </g>
     </g>
     <g id="text_12">
      <!-- 0.6 -->
      <g transform="translate(34.696875 207.895219)scale(0.1 -0.1)">
       <use xlink:href="#DejaVuSerif-48"/>
       <use x="63.623047" xlink:href="#DejaVuSerif-46"/>
       <use x="95.410156" xlink:href="#DejaVuSerif-54"/>
      </g>
     </g>
    </g>
    <g id="ytick_5">
     <g id="line2d_23">
      <path clip-path="url(#p1656445ccb)" d="M 57.6 174.528 
L 414.72 174.528 
" style="fill:none;stroke:#b0b0b0;stroke-linecap:square;stroke-width:0.8;"/>
     </g>
     <g id="line2d_24">
      <g>
       <use style="stroke:#000000;stroke-width:0.8;" x="57.6" xlink:href="#m1cd63a5e3a" y="174.528"/>
      </g>
     </g>
     <g id="text_13">
      <!-- 0.8 -->
      <g transform="translate(34.696875 178.327219)scale(0.1 -0.1)">
       <defs>
        <path d="M 46.578125 19.921875 
Q 46.578125 27.734375 42.6875 32.046875 
Q 38.8125 36.375 31.78125 36.375 
Q 24.75 36.375 20.875 32.046875 
Q 17 27.734375 17 19.921875 
Q 17 12.0625 20.875 7.734375 
Q 24.75 3.421875 31.78125 3.421875 
Q 38.8125 3.421875 42.6875 7.734375 
Q 46.578125 12.0625 46.578125 19.921875 
z
M 44.578125 55.328125 
Q 44.578125 61.96875 41.203125 65.671875 
Q 37.84375 69.390625 31.78125 69.390625 
Q 25.78125 69.390625 22.390625 65.671875 
Q 19 61.96875 19 55.328125 
Q 19 48.640625 22.390625 44.921875 
Q 25.78125 41.21875 31.78125 41.21875 
Q 37.84375 41.21875 41.203125 44.921875 
Q 44.578125 48.640625 44.578125 55.328125 
z
M 39.3125 38.8125 
Q 47.609375 37.703125 52.25 32.6875 
Q 56.890625 27.6875 56.890625 19.921875 
Q 56.890625 9.671875 50.390625 4.125 
Q 43.890625 -1.421875 31.78125 -1.421875 
Q 19.734375 -1.421875 13.203125 4.125 
Q 6.6875 9.671875 6.6875 19.921875 
Q 6.6875 27.6875 11.328125 32.6875 
Q 15.96875 37.703125 24.3125 38.8125 
Q 16.9375 40.140625 13 44.40625 
Q 9.078125 48.6875 9.078125 55.328125 
Q 9.078125 64.109375 15.125 69.15625 
Q 21.1875 74.21875 31.78125 74.21875 
Q 42.390625 74.21875 48.4375 69.15625 
Q 54.5 64.109375 54.5 55.328125 
Q 54.5 48.6875 50.5625 44.40625 
Q 46.625 40.140625 39.3125 38.8125 
z
" id="DejaVuSerif-56"/>
       </defs>
       <use xlink:href="#DejaVuSerif-48"/>
       <use x="63.623047" xlink:href="#DejaVuSerif-46"/>
       <use x="95.410156" xlink:href="#DejaVuSerif-56"/>
      </g>
     </g>
    </g>
    <g id="ytick_6">
     <g id="line2d_25">
      <path clip-path="url(#p1656445ccb)" d="M 57.6 144.96 
L 414.72 144.96 
" style="fill:none;stroke:#b0b0b0;stroke-linecap:square;stroke-width:0.8;"/>
     </g>
     <g id="line2d_26">
      <g>
       <use style="stroke:#000000;stroke-width:0.8;" x="57.6" xlink:href="#m1cd63a5e3a" y="144.96"/>
      </g>
     </g>
     <g id="text_14">
      <!-- 1.0 -->
      <g transform="translate(34.696875 148.759219)scale(0.1 -0.1)">
       <use xlink:href="#DejaVuSerif-49"/>
       <use x="63.623047" xlink:href="#DejaVuSerif-46"/>
       <use x="95.410156" xlink:href="#DejaVuSerif-48"/>
      </g>
     </g>
    </g>
    <g id="ytick_7">
     <g id="line2d_27">
      <path clip-path="url(#p1656445ccb)" d="M 57.6 115.392 
L 414.72 115.392 
" style="fill:none;stroke:#b0b0b0;stroke-linecap:square;stroke-width:0.8;"/>
     </g>
     <g id="line2d_28">
      <g>
       <use style="stroke:#000000;stroke-width:0.8;" x="57.6" xlink:href="#m1cd63a5e3a" y="115.392"/>
      </g>
     </g>
     <g id="text_15">
      <!-- 1.2 -->
      <g transform="translate(34.696875 119.191219)scale(0.1 -0.1)">
       <use xlink:href="#DejaVuSerif-49"/>
       <use x="63.623047" xlink:href="#DejaVuSerif-46"/>
       <use x="95.410156" xlink:href="#DejaVuSerif-50"/>
      </g>
     </g>
    </g>
    <g id="ytick_8">
     <g id="line2d_29">
      <path clip-path="url(#p1656445ccb)" d="M 57.6 85.824 
L 414.72 85.824 
" style="fill:none;stroke:#b0b0b0;stroke-linecap:square;stroke-width:0.8;"/>
     </g>
     <g id="line2d_30">
      <g>
       <use style="stroke:#000000;stroke-width:0.8;" x="57.6" xlink:href="#m1cd63a5e3a" y="85.824"/>
      </g>
     </g>
     <g id="text_16">
      <!-- 1.4 -->
      <g transform="translate(34.696875 89.623219)scale(0.1 -0.1)">
       <use xlink:href="#DejaVuSerif-49"/>
       <use x="63.623047" xlink:href="#DejaVuSerif-46"/>
       <use x="95.410156" xlink:href="#DejaVuSerif-52"/>
      </g>
     </g>
    </g>
    <g id="ytick_9">
     <g id="line2d_31">
      <path clip-path="url(#p1656445ccb)" d="M 57.6 56.256 
L 414.72 56.256 
" style="fill:none;stroke:#b0b0b0;stroke-linecap:square;stroke-width:0.8;"/>
     </g>
     <g id="line2d_32">
      <g>
       <use style="stroke:#000000;stroke-width:0.8;" x="57.6" xlink:href="#m1cd63a5e3a" y="56.256"/>
      </g>
     </g>
     <g id="text_17">
      <!-- 1.6 -->
      <g transform="translate(34.696875 60.055219)scale(0.1 -0.1)">
       <use xlink:href="#DejaVuSerif-49"/>
       <use x="63.623047" xlink:href="#DejaVuSerif-46"/>
       <use x="95.410156" xlink:href="#DejaVuSerif-54"/>
      </g>
     </g>
    </g>
    <g id="text_18">
     <!-- Speed -->
     <g transform="translate(28.617187 190.273313)rotate(-90)scale(0.1 -0.1)">
      <defs>
       <path d="M 9.28125 3.515625 
L 9.28125 20.125 
L 14.890625 20.0625 
Q 15.140625 11.765625 19.703125 7.78125 
Q 24.265625 3.8125 33.59375 3.8125 
Q 42.28125 3.8125 46.84375 7.25 
Q 51.421875 10.6875 51.421875 17.28125 
Q 51.421875 22.5625 48.65625 25.390625 
Q 45.90625 28.21875 37.015625 30.90625 
L 27.390625 33.796875 
Q 16.9375 36.96875 12.671875 41.703125 
Q 8.40625 46.4375 8.40625 54.6875 
Q 8.40625 63.96875 14.984375 69.09375 
Q 21.578125 74.21875 33.5 74.21875 
Q 38.578125 74.21875 44.625 73.109375 
Q 50.6875 72.015625 57.515625 69.921875 
L 57.515625 54.390625 
L 52 54.390625 
Q 51.171875 62.109375 46.84375 65.546875 
Q 42.53125 69 33.6875 69 
Q 25.984375 69 21.953125 65.84375 
Q 17.921875 62.703125 17.921875 56.6875 
Q 17.921875 51.46875 20.9375 48.484375 
Q 23.96875 45.515625 33.796875 42.578125 
L 42.828125 39.890625 
Q 52.734375 36.921875 56.953125 32.296875 
Q 61.1875 27.6875 61.1875 19.921875 
Q 61.1875 9.328125 54.390625 3.953125 
Q 47.609375 -1.421875 34.1875 -1.421875 
Q 28.171875 -1.421875 21.9375 -0.1875 
Q 15.71875 1.03125 9.28125 3.515625 
z
" id="DejaVuSerif-83"/>
       <path d="M 20.515625 28.515625 
L 20.515625 23.390625 
Q 20.515625 14.015625 24.09375 9.109375 
Q 27.6875 4.203125 34.515625 4.203125 
Q 41.40625 4.203125 44.9375 9.71875 
Q 48.484375 15.234375 48.484375 25.984375 
Q 48.484375 36.765625 44.9375 42.234375 
Q 41.40625 47.703125 34.515625 47.703125 
Q 27.6875 47.703125 24.09375 42.765625 
Q 20.515625 37.84375 20.515625 28.515625 
z
M 11.53125 46.6875 
L 2.875 46.6875 
L 2.875 51.90625 
L 20.515625 51.90625 
L 20.515625 43.796875 
Q 23.140625 48.6875 27.21875 51 
Q 31.296875 53.328125 37.3125 53.328125 
Q 46.875 53.328125 52.921875 45.75 
Q 58.984375 38.1875 58.984375 25.984375 
Q 58.984375 13.765625 52.921875 6.171875 
Q 46.875 -1.421875 37.3125 -1.421875 
Q 31.296875 -1.421875 27.21875 0.890625 
Q 23.140625 3.21875 20.515625 8.109375 
L 20.515625 -15.578125 
L 29 -15.578125 
L 29 -20.796875 
L 2.875 -20.796875 
L 2.875 -15.578125 
L 11.53125 -15.578125 
z
" id="DejaVuSerif-112"/>
       <path d="M 52.484375 5.171875 
L 61.078125 5.171875 
L 61.078125 0 
L 43.5 0 
L 43.5 8.109375 
Q 40.875 3.21875 36.796875 0.890625 
Q 32.71875 -1.421875 26.703125 -1.421875 
Q 17.140625 -1.421875 11.0625 6.171875 
Q 4.984375 13.765625 4.984375 25.984375 
Q 4.984375 38.1875 11.03125 45.75 
Q 17.09375 53.328125 26.703125 53.328125 
Q 32.71875 53.328125 36.796875 51 
Q 40.875 48.6875 43.5 43.796875 
L 43.5 70.796875 
L 35.015625 70.796875 
L 35.015625 75.984375 
L 52.484375 75.984375 
z
M 43.5 23.390625 
L 43.5 28.515625 
Q 43.5 37.84375 39.90625 42.765625 
Q 36.328125 47.703125 29.5 47.703125 
Q 22.5625 47.703125 19.015625 42.234375 
Q 15.484375 36.765625 15.484375 25.984375 
Q 15.484375 15.234375 19.015625 9.71875 
Q 22.5625 4.203125 29.5 4.203125 
Q 36.328125 4.203125 39.90625 9.109375 
Q 43.5 14.015625 43.5 23.390625 
z
" id="DejaVuSerif-100"/>
      </defs>
      <use xlink:href="#DejaVuSerif-83"/>
      <use x="68.505859" xlink:href="#DejaVuSerif-112"/>
      <use x="132.519531" xlink:href="#DejaVuSerif-101"/>
      <use x="191.699219" xlink:href="#DejaVuSerif-101"/>
      <use x="250.878906" xlink:href="#DejaVuSerif-100"/>
     </g>
    </g>
   </g>
   <g id="LineCollection_1">
    <path clip-path="url(#p1656445ccb)" d="M 73.832727 292.8 
L 398.487273 292.8 
" style="fill:none;stroke:#696969;stroke-width:1.5;"/>
   </g>
   <g id="line2d_33">
    <path clip-path="url(#p1656445ccb)" d="M 73.832727 292.8 
L 76.439086 292.8 
L 76.493385 179.076923 
L 76.547684 187.2 
L 76.764881 187.2 
L 76.927778 194.24 
L 77.036376 194.24 
L 77.199274 200.4 
L 77.307872 200.4 
L 77.362171 205.835294 
L 77.525069 292.8 
L 84.746854 292.8 
L 84.909751 259.2 
L 85.072649 259.946667 
L 85.181247 259.946667 
L 85.344145 260.66087 
L 85.452743 260.66087 
L 85.61564 261.344681 
L 85.724238 261.344681 
L 85.887136 262 
L 85.995734 262 
L 86.158632 262.628571 
L 86.26723 262.628571 
L 86.430127 263.232 
L 86.538726 263.232 
L 86.701623 263.811765 
L 86.810221 263.811765 
L 86.973119 264.369231 
L 87.081717 264.369231 
L 87.244614 264.90566 
L 87.353213 264.90566 
L 87.51611 265.422222 
L 87.624708 265.422222 
L 87.733307 265.92 
L 87.896204 292.8 
L 93.16322 292.8 
L 93.326118 273.088 
L 93.489015 273.347368 
L 93.597613 273.347368 
L 93.760511 273.6 
L 93.869109 273.6 
L 94.032007 273.846154 
L 94.140605 273.846154 
L 94.303502 274.086076 
L 94.412101 274.086076 
L 94.574998 274.32 
L 94.683596 274.32 
L 94.846494 274.548148 
L 94.955092 274.548148 
L 95.117989 274.770732 
L 95.226588 274.770732 
L 95.389485 274.987952 
L 95.498083 274.987952 
L 95.660981 275.2 
L 95.769579 275.2 
L 95.932476 275.407059 
L 96.041075 275.407059 
L 96.203972 275.609302 
L 96.31257 275.609302 
L 96.475468 275.806897 
L 96.584066 275.806897 
L 96.746963 276 
L 96.855562 276 
L 97.018459 276.188764 
L 97.127057 276.188764 
L 97.289955 276.373333 
L 97.398553 276.373333 
L 97.561451 276.553846 
L 97.670049 276.553846 
L 97.832946 276.730435 
L 97.941544 276.730435 
L 98.104442 276.903226 
L 98.21304 276.903226 
L 98.267339 277.07234 
L 98.430237 292.8 
L 101.688185 292.8 
L 101.742484 278.85283 
L 101.851082 278.983178 
L 102.01398 278.983178 
L 102.176877 279.111111 
L 102.285476 279.111111 
L 102.448373 279.236697 
L 102.556971 279.236697 
L 102.719869 279.36 
L 102.828467 279.36 
L 102.991364 279.481081 
L 103.099963 279.481081 
L 103.26286 279.6 
L 103.371458 279.6 
L 103.534356 279.716814 
L 103.642954 279.716814 
L 103.805851 279.831579 
L 103.91445 279.831579 
L 104.077347 279.944348 
L 104.457441 280.055172 
L 104.620338 280.164103 
L 105.000432 280.271186 
L 105.16333 280.376471 
L 105.543424 280.48 
L 105.706321 280.581818 
L 106.086415 280.681967 
L 106.249313 280.780488 
L 106.629407 280.877419 
L 106.792304 280.9728 
L 107.172398 281.066667 
L 107.335295 281.159055 
L 107.715389 281.25 
L 107.878287 281.339535 
L 108.258381 281.427692 
L 108.421278 281.514504 
L 108.801372 281.6 
L 108.90997 281.684211 
L 109.072868 292.8 
L 110.158851 292.8 
L 110.321748 282.086957 
L 110.701842 282.164029 
L 110.864739 282.24 
L 111.244833 282.314894 
L 111.407731 282.388732 
L 111.787825 282.461538 
L 111.950722 282.533333 
L 112.330816 282.604138 
L 112.493713 282.673973 
L 112.873807 282.742857 
L 113.036705 282.810811 
L 113.416799 282.877852 
L 113.579696 282.944 
L 113.95979 283.009272 
L 114.122688 283.073684 
L 114.502782 283.137255 
L 114.665679 283.2 
L 115.045773 283.261935 
L 115.20867 283.323077 
L 115.588764 283.383439 
L 115.751662 283.443038 
L 116.131756 283.501887 
L 116.294653 283.56 
L 116.674747 283.617391 
L 116.837644 283.674074 
L 117.217738 283.730061 
L 117.380636 283.785366 
L 118.032226 283.893976 
L 118.195123 283.947305 
L 118.629516 284.052071 
L 118.792413 275.304142 
L 119.118208 275.407059 
L 119.281106 275.508772 
L 119.498302 275.609302 
L 119.6612 284.204651 
L 119.878396 284.254335 
L 120.475687 284.352 
L 120.692883 284.4 
L 121.290174 284.494382 
L 121.50737 284.540782 
L 122.104661 284.632044 
L 122.321857 284.676923 
L 122.919148 284.765217 
L 123.136344 284.808649 
L 123.733635 284.894118 
L 123.950832 284.93617 
L 124.548122 285.018947 
L 124.765319 285.059686 
L 125.362609 285.139896 
L 125.579806 285.179381 
L 126.177096 285.257143 
L 126.394293 285.295431 
L 126.991583 285.370854 
L 127.100182 285.408 
L 127.263079 278.016 
L 127.425976 278.089552 
L 127.80607 278.162376 
L 127.968968 278.234483 
L 128.349062 278.305882 
L 128.511959 278.376585 
L 128.892053 278.446602 
L 129.054951 278.515942 
L 129.435044 278.584615 
L 129.597942 278.652632 
L 129.978036 278.72 
L 130.086634 278.78673 
L 130.249532 285.793365 
L 130.466728 285.826415 
L 131.335514 285.923721 
L 131.661309 285.987097 
L 132.692993 286.08 
L 133.018788 286.140541 
L 134.050471 286.229333 
L 134.376266 286.287225 
L 135.40795 286.372174 
L 135.570847 286.4 
L 135.679445 280 
L 135.733744 280.055172 
L 136.493932 280.164103 
L 136.65683 280.217872 
L 137.308419 280.324051 
L 137.471317 280.376471 
L 138.122907 280.48 
L 138.285804 280.53112 
L 138.937394 280.632099 
L 139.15459 280.681967 
L 139.751881 280.780488 
L 139.969077 280.82915 
L 140.566368 280.925301 
L 140.674966 280.9728 
L 140.837863 286.8864 
L 141.217957 286.933333 
L 142.466838 287.025 
L 142.846932 287.069767 
L 144.041513 287.157252 
L 144.095812 281.514504 
L 144.20441 281.557414 
L 144.910299 281.642264 
L 145.127495 281.684211 
L 145.724786 281.767164 
L 145.941982 281.808178 
L 146.539273 281.889299 
L 146.756469 281.929412 
L 147.35376 282.008759 
L 147.570957 282.048 
L 148.168247 282.125632 
L 148.385444 282.164029 
L 148.982734 282.24 
L 149.199931 282.27758 
L 149.797221 282.351943 
L 150.014418 282.388732 
L 150.883204 282.497561 
L 151.1004 282.533333 
L 151.263298 282.568858 
L 151.426195 287.684429 
L 151.860588 287.719588 
L 152.512178 287.754266 
L 152.675075 282.742857 
L 153.598161 282.844444 
L 153.815357 282.877852 
L 154.684144 282.976744 
L 154.90134 283.009272 
L 155.770126 283.105574 
L 156.095921 283.16873 
L 157.127605 283.261935 
L 157.4534 283.323077 
L 158.485083 283.413333 
L 158.810878 283.472555 
L 159.842562 283.56 
L 160.168357 283.617391 
L 160.982844 283.702154 
L 161.145741 279.153231 
L 161.743032 279.236697 
L 161.85163 279.278049 
L 162.014527 283.785366 
L 162.340322 283.84 
L 163.643501 283.947305 
L 163.969296 284 
L 165.272475 284.103529 
L 165.59827 284.154386 
L 166.90145 284.254335 
L 167.227244 284.303448 
L 168.530424 284.4 
L 168.910518 284.447458 
L 169.453509 284.494382 
L 169.616407 280.341573 
L 169.833603 280.376471 
L 170.702389 280.48 
L 170.919586 280.514127 
L 171.788372 280.615385 
L 172.005569 280.648767 
L 172.439962 280.714986 
L 172.602859 284.743324 
L 172.982953 284.786992 
L 174.503329 284.894118 
L 174.883423 284.93617 
L 176.403799 285.03937 
L 176.783893 285.079896 
L 177.978474 285.15969 
L 178.032773 281.339535 
L 178.141371 281.369072 
L 179.118756 281.456777 
L 179.44455 281.514504 
L 180.476234 281.6 
L 180.802029 281.656281 
L 182.105208 281.767164 
L 182.431003 281.821782 
L 183.028294 281.875862 
L 183.191191 285.517241 
L 183.625584 285.552941 
L 185.363157 285.657971 
L 185.79755 285.692308 
L 186.449139 285.726316 
L 186.612037 282.214797 
L 187.806618 282.314894 
L 188.132413 282.364235 
L 189.435592 282.461538 
L 189.815686 282.509513 
L 191.064566 282.604138 
L 191.44466 282.650801 
L 192.69354 282.742857 
L 193.073634 282.788262 
L 193.616625 282.833258 
L 193.779523 286.155506 
L 194.268215 286.185235 
L 194.919805 286.229333 
L 195.082702 282.944 
L 196.49448 283.052308 
L 196.874574 283.094967 
L 198.39495 283.2 
L 198.775044 283.241379 
L 200.295419 283.343284 
L 200.675513 283.383439 
L 202.195889 283.482353 
L 202.630282 283.521339 
L 203.39047 283.57921 
L 203.553368 280.505613 
L 203.879163 280.556522 
L 204.259256 280.581818 
L 204.422154 283.655258 
L 205.996829 283.748571 
L 206.431222 283.785366 
L 208.168794 283.893976 
L 208.603188 283.9296 
L 210.34076 284.034783 
L 210.775153 284.069291 
L 211.861136 284.1375 
L 211.969734 281.25 
L 212.024033 281.272515 
L 213.327213 281.361702 
L 213.707306 281.40578 
L 214.847588 281.492925 
L 215.010486 284.335878 
L 216.856656 284.431698 
L 217.345349 284.463158 
L 219.300118 284.571429 
L 219.78881 284.601848 
L 220.331801 284.632044 
L 220.3861 281.909392 
L 220.494699 281.929412 
L 222.015075 282.028415 
L 222.449468 282.067514 
L 223.915544 282.164029 
L 224.349938 282.202151 
L 225.43592 282.27758 
L 225.598818 284.922202 
L 227.98798 285.032574 
L 228.58527 285.073171 
L 228.802467 285.073171 
L 228.965364 282.515478 
L 230.702937 282.621687 
L 231.13733 282.656604 
L 232.874902 282.759932 
L 233.309295 282.793909 
L 235.046868 282.894472 
L 235.53556 282.927546 
L 236.024252 282.960399 
L 236.18715 285.432558 
L 237.273132 285.481188 
L 237.43603 283.041584 
L 239.119303 283.137255 
L 239.607995 283.16873 
L 241.562764 283.277295 
L 242.051456 283.307865 
L 244.006225 283.413333 
L 244.494918 283.443038 
L 245.743798 283.516484 
L 245.906695 281.195604 
L 246.341088 281.231925 
L 246.612584 281.25 
L 246.775481 283.574415 
L 248.893148 283.674074 
L 249.490438 283.716129 
L 251.8796 283.826404 
L 252.476891 283.867069 
L 254.268762 283.947305 
L 254.323062 281.734132 
L 254.43166 281.750673 
L 256.223531 281.848889 
L 256.712224 281.881241 
L 257.200916 281.913402 
L 257.363813 284.103529 
L 259.752975 284.204651 
L 260.404565 284.241968 
L 262.739428 284.339914 
L 262.902325 282.24 
L 264.911394 282.344554 
L 265.400086 282.374048 
L 267.354855 282.475978 
L 267.789248 282.504735 
L 267.952145 284.575243 
L 270.612803 284.676923 
L 271.318692 284.71026 
L 271.861683 284.732333 
L 271.970281 282.715416 
L 272.024581 282.729155 
L 274.413743 282.837736 
L 275.011033 282.877852 
L 277.400195 282.983267 
L 277.997486 283.022222 
L 278.37758 283.035139 
L 278.540477 284.998417 
L 281.472631 285.1 
L 282.178519 285.129961 
L 282.287118 281.294942 
L 282.341417 281.309845 
L 284.459083 281.413094 
L 284.947775 281.442254 
L 286.902544 281.543147 
L 287.499835 281.585841 
L 288.965912 281.656281 
L 289.128809 283.52522 
L 291.789467 283.628784 
L 292.441056 283.662794 
L 295.047415 283.763325 
L 295.753304 283.796346 
L 298.576859 283.904693 
L 299.282748 283.936691 
L 299.608543 283.947305 
L 299.77144 285.726316 
L 303.463781 285.834629 
L 304.386867 285.867292 
L 308.079208 285.971363 
L 309.056593 286.002759 
L 310.196875 286.033867 
L 310.359772 287.7312 
L 315.681087 287.838926 
L 317.092865 287.872 
L 321.599693 287.958079 
L 321.762591 289.575573 
L 330.61335 289.684299 
L 332.893914 289.71357 
L 334.522888 289.73278 
L 334.685786 292.8 
L 398.487273 292.8 
L 398.487273 292.8 
" style="fill:none;stroke:#1f77b4;stroke-linecap:square;stroke-width:1.5;"/>
   </g>
   <g id="patch_3">
    <path d="M 57.6 307.584 
L 57.6 41.472 
" style="fill:none;stroke:#000000;stroke-linecap:square;stroke-linejoin:miter;stroke-width:0.8;"/>
   </g>
   <g id="patch_4">
    <path d="M 414.72 307.584 
L 414.72 41.472 
" style="fill:none;stroke:#000000;stroke-linecap:square;stroke-linejoin:miter;stroke-width:0.8;"/>
   </g>
   <g id="patch_5">
    <path d="M 57.6 307.584 
L 414.72 307.584 
" style="fill:none;stroke:#000000;stroke-linecap:square;stroke-linejoin:miter;stroke-width:0.8;"/>
   </g>
   <g id="patch_6">
    <path d="M 57.6 41.472 
L 414.72 41.472 
" style="fill:none;stroke:#000000;stroke-linecap:square;stroke-linejoin:miter;stroke-width:0.8;"/>
   </g>
  </g>
 </g>
 <defs>
  <clipPath id="p1656445ccb">
   <rect height="266.112" width="357.12" x="57.6" y="41.472"/>
  </clipPath>
 </defs>
</svg>
