<?xml version="1.0" encoding="utf-8" standalone="no"?>
<!DOCTYPE svg PUBLIC "-//W3C//DTD SVG 1.1//EN"
  "http://www.w3.org/Graphics/SVG/1.1/DTD/svg11.dtd">
<!-- Created with matplotlib (https://matplotlib.org/) -->
<svg height="345.6pt" version="1.1" viewBox="0 0 460.8 345.6" width="460.8pt" xmlns="http://www.w3.org/2000/svg" xmlns:xlink="http://www.w3.org/1999/xlink">
 <metadata>
  <rdf:RDF xmlns:cc="http://creativecommons.org/ns#" xmlns:dc="http://purl.org/dc/elements/1.1/" xmlns:rdf="http://www.w3.org/1999/02/22-rdf-syntax-ns#">
   <cc:Work>
    <dc:type rdf:resource="http://purl.org/dc/dcmitype/StillImage"/>
    <dc:date>2022-08-02T01:21:18.051944</dc:date>
    <dc:format>image/svg+xml</dc:format>
    <dc:creator>
     <cc:Agent>
      <dc:title>Matplotlib v3.3.4, https://matplotlib.org/</dc:title>
     </cc:Agent>
    </dc:creator>
   </cc:Work>
  </rdf:RDF>
 </metadata>
 <defs>
  <style type="text/css">*{stroke-linecap:butt;stroke-linejoin:round;}</style>
 </defs>
 <g id="figure_1">
  <g id="patch_1">
   <path d="M 0 345.6 
L 460.8 345.6 
L 460.8 0 
L 0 0 
z
" style="fill:#ffffff;"/>
  </g>
  <g id="axes_1">
   <g id="patch_2">
    <path d="M 57.6 307.584 
L 414.72 307.584 
L 414.72 41.472 
L 57.6 41.472 
z
" style="fill:#ffffff;"/>
   </g>
   <g id="matplotlib.axis_1">
    <g id="xtick_1">
     <g id="line2d_1">
      <path clip-path="url(#p65a6e06a66)" d="M 72.692445 307.584 
L 72.692445 41.472 
" style="fill:none;stroke:#b0b0b0;stroke-linecap:square;stroke-width:0.8;"/>
     </g>
     <g id="line2d_2">
      <defs>
       <path d="M 0 0 
L 0 3.5 
" id="maeaec52511" style="stroke:#000000;stroke-width:0.8;"/>
      </defs>
      <g>
       <use style="stroke:#000000;stroke-width:0.8;" x="72.692445" xlink:href="#maeaec52511" y="307.584"/>
      </g>
     </g>
     <g id="text_1">
      <!-- 0 -->
      <g transform="translate(69.511195 322.182437)scale(0.1 -0.1)">
       <defs>
        <path d="M 31.78125 3.421875 
Q 39.265625 3.421875 42.96875 11.625 
Q 46.6875 19.828125 46.6875 36.375 
Q 46.6875 52.984375 42.96875 61.1875 
Q 39.265625 69.390625 31.78125 69.390625 
Q 24.3125 69.390625 20.59375 61.1875 
Q 16.890625 52.984375 16.890625 36.375 
Q 16.890625 19.828125 20.59375 11.625 
Q 24.3125 3.421875 31.78125 3.421875 
z
M 31.78125 -1.421875 
Q 19.921875 -1.421875 13.25 8.53125 
Q 6.59375 18.5 6.59375 36.375 
Q 6.59375 54.296875 13.25 64.25 
Q 19.921875 74.21875 31.78125 74.21875 
Q 43.703125 74.21875 50.34375 64.25 
Q 56.984375 54.296875 56.984375 36.375 
Q 56.984375 18.5 50.34375 8.53125 
Q 43.703125 -1.421875 31.78125 -1.421875 
z
" id="DejaVuSerif-48"/>
       </defs>
       <use xlink:href="#DejaVuSerif-48"/>
      </g>
     </g>
    </g>
    <g id="xtick_2">
     <g id="line2d_3">
      <path clip-path="url(#p65a6e06a66)" d="M 126.991583 307.584 
L 126.991583 41.472 
" style="fill:none;stroke:#b0b0b0;stroke-linecap:square;stroke-width:0.8;"/>
     </g>
     <g id="line2d_4">
      <g>
       <use style="stroke:#000000;stroke-width:0.8;" x="126.991583" xlink:href="#maeaec52511" y="307.584"/>
      </g>
     </g>
     <g id="text_2">
      <!-- 100 -->
      <g transform="translate(117.447833 322.182437)scale(0.1 -0.1)">
       <defs>
        <path d="M 14.203125 0 
L 14.203125 5.171875 
L 26.90625 5.171875 
L 26.90625 65.828125 
L 12.203125 56.296875 
L 12.203125 62.703125 
L 29.984375 74.21875 
L 36.71875 74.21875 
L 36.71875 5.171875 
L 49.421875 5.171875 
L 49.421875 0 
z
" id="DejaVuSerif-49"/>
       </defs>
       <use xlink:href="#DejaVuSerif-49"/>
       <use x="63.623047" xlink:href="#DejaVuSerif-48"/>
       <use x="127.246094" xlink:href="#DejaVuSerif-48"/>
      </g>
     </g>
    </g>
    <g id="xtick_3">
     <g id="line2d_5">
      <path clip-path="url(#p65a6e06a66)" d="M 181.290721 307.584 
L 181.290721 41.472 
" style="fill:none;stroke:#b0b0b0;stroke-linecap:square;stroke-width:0.8;"/>
     </g>
     <g id="line2d_6">
      <g>
       <use style="stroke:#000000;stroke-width:0.8;" x="181.290721" xlink:href="#maeaec52511" y="307.584"/>
      </g>
     </g>
     <g id="text_3">
      <!-- 200 -->
      <g transform="translate(171.746971 322.182437)scale(0.1 -0.1)">
       <defs>
        <path d="M 12.796875 55.515625 
L 7.328125 55.515625 
L 7.328125 68.5 
Q 12.546875 71.296875 17.84375 72.75 
Q 23.140625 74.21875 28.21875 74.21875 
Q 39.59375 74.21875 46.1875 68.703125 
Q 52.78125 63.1875 52.78125 53.71875 
Q 52.78125 43.015625 37.84375 28.125 
Q 36.671875 27 36.078125 26.421875 
L 17.671875 8.015625 
L 48.09375 8.015625 
L 48.09375 17 
L 53.8125 17 
L 53.8125 0 
L 6.78125 0 
L 6.78125 5.328125 
L 28.90625 27.390625 
Q 36.234375 34.71875 39.359375 40.84375 
Q 42.484375 46.96875 42.484375 53.71875 
Q 42.484375 61.078125 38.640625 65.234375 
Q 34.8125 69.390625 28.078125 69.390625 
Q 21.09375 69.390625 17.28125 65.921875 
Q 13.484375 62.453125 12.796875 55.515625 
z
" id="DejaVuSerif-50"/>
       </defs>
       <use xlink:href="#DejaVuSerif-50"/>
       <use x="63.623047" xlink:href="#DejaVuSerif-48"/>
       <use x="127.246094" xlink:href="#DejaVuSerif-48"/>
      </g>
     </g>
    </g>
    <g id="xtick_4">
     <g id="line2d_7">
      <path clip-path="url(#p65a6e06a66)" d="M 235.589859 307.584 
L 235.589859 41.472 
" style="fill:none;stroke:#b0b0b0;stroke-linecap:square;stroke-width:0.8;"/>
     </g>
     <g id="line2d_8">
      <g>
       <use style="stroke:#000000;stroke-width:0.8;" x="235.589859" xlink:href="#maeaec52511" y="307.584"/>
      </g>
     </g>
     <g id="text_4">
      <!-- 300 -->
      <g transform="translate(226.046109 322.182437)scale(0.1 -0.1)">
       <defs>
        <path d="M 9.71875 69.828125 
Q 15.4375 71.96875 20.671875 73.09375 
Q 25.921875 74.21875 30.515625 74.21875 
Q 41.21875 74.21875 47.21875 69.59375 
Q 53.21875 64.984375 53.21875 56.78125 
Q 53.21875 50.203125 49.0625 45.78125 
Q 44.921875 41.359375 37.3125 39.796875 
Q 46.296875 38.53125 51.25 33.28125 
Q 56.203125 28.03125 56.203125 19.671875 
Q 56.203125 9.46875 49.34375 4.015625 
Q 42.484375 -1.421875 29.59375 -1.421875 
Q 23.875 -1.421875 18.421875 -0.1875 
Q 12.984375 1.03125 7.625 3.515625 
L 7.625 17.671875 
L 13.09375 17.671875 
Q 13.578125 10.640625 17.828125 7.03125 
Q 22.078125 3.421875 29.78125 3.421875 
Q 37.25 3.421875 41.578125 7.734375 
Q 45.90625 12.0625 45.90625 19.578125 
Q 45.90625 28.171875 41.453125 32.59375 
Q 37.015625 37.015625 28.421875 37.015625 
L 23.78125 37.015625 
L 23.78125 42 
L 26.21875 42 
Q 34.765625 42 39.03125 45.53125 
Q 43.3125 49.078125 43.3125 56.203125 
Q 43.3125 62.59375 39.796875 65.984375 
Q 36.28125 69.390625 29.6875 69.390625 
Q 23.09375 69.390625 19.453125 66.265625 
Q 15.828125 63.140625 15.1875 56.984375 
L 9.71875 56.984375 
z
" id="DejaVuSerif-51"/>
       </defs>
       <use xlink:href="#DejaVuSerif-51"/>
       <use x="63.623047" xlink:href="#DejaVuSerif-48"/>
       <use x="127.246094" xlink:href="#DejaVuSerif-48"/>
      </g>
     </g>
    </g>
    <g id="xtick_5">
     <g id="line2d_9">
      <path clip-path="url(#p65a6e06a66)" d="M 289.888997 307.584 
L 289.888997 41.472 
" style="fill:none;stroke:#b0b0b0;stroke-linecap:square;stroke-width:0.8;"/>
     </g>
     <g id="line2d_10">
      <g>
       <use style="stroke:#000000;stroke-width:0.8;" x="289.888997" xlink:href="#maeaec52511" y="307.584"/>
      </g>
     </g>
     <g id="text_5">
      <!-- 400 -->
      <g transform="translate(280.345247 322.182437)scale(0.1 -0.1)">
       <defs>
        <path d="M 34.90625 24.703125 
L 34.90625 63.484375 
L 10.015625 24.703125 
z
M 56.390625 0 
L 23.1875 0 
L 23.1875 5.171875 
L 34.90625 5.171875 
L 34.90625 19.484375 
L 3.078125 19.484375 
L 3.078125 24.8125 
L 35.015625 74.21875 
L 44.671875 74.21875 
L 44.671875 24.703125 
L 58.59375 24.703125 
L 58.59375 19.484375 
L 44.671875 19.484375 
L 44.671875 5.171875 
L 56.390625 5.171875 
z
" id="DejaVuSerif-52"/>
       </defs>
       <use xlink:href="#DejaVuSerif-52"/>
       <use x="63.623047" xlink:href="#DejaVuSerif-48"/>
       <use x="127.246094" xlink:href="#DejaVuSerif-48"/>
      </g>
     </g>
    </g>
    <g id="xtick_6">
     <g id="line2d_11">
      <path clip-path="url(#p65a6e06a66)" d="M 344.188135 307.584 
L 344.188135 41.472 
" style="fill:none;stroke:#b0b0b0;stroke-linecap:square;stroke-width:0.8;"/>
     </g>
     <g id="line2d_12">
      <g>
       <use style="stroke:#000000;stroke-width:0.8;" x="344.188135" xlink:href="#maeaec52511" y="307.584"/>
      </g>
     </g>
     <g id="text_6">
      <!-- 500 -->
      <g transform="translate(334.644385 322.182437)scale(0.1 -0.1)">
       <defs>
        <path d="M 50.296875 72.90625 
L 50.296875 64.890625 
L 16.890625 64.890625 
L 16.890625 44 
Q 19.4375 45.75 22.828125 46.625 
Q 26.21875 47.515625 30.421875 47.515625 
Q 42.234375 47.515625 49.0625 40.96875 
Q 55.90625 34.421875 55.90625 23.09375 
Q 55.90625 11.53125 49 5.046875 
Q 42.09375 -1.421875 29.59375 -1.421875 
Q 24.5625 -1.421875 19.28125 -0.1875 
Q 14.015625 1.03125 8.5 3.515625 
L 8.5 17.671875 
L 14.015625 17.671875 
Q 14.453125 10.75 18.421875 7.078125 
Q 22.40625 3.421875 29.59375 3.421875 
Q 37.3125 3.421875 41.453125 8.5 
Q 45.609375 13.578125 45.609375 23.09375 
Q 45.609375 32.5625 41.484375 37.609375 
Q 37.359375 42.671875 29.59375 42.671875 
Q 25.203125 42.671875 21.84375 41.109375 
Q 18.5 39.546875 15.921875 36.28125 
L 11.71875 36.28125 
L 11.71875 72.90625 
z
" id="DejaVuSerif-53"/>
       </defs>
       <use xlink:href="#DejaVuSerif-53"/>
       <use x="63.623047" xlink:href="#DejaVuSerif-48"/>
       <use x="127.246094" xlink:href="#DejaVuSerif-48"/>
      </g>
     </g>
    </g>
    <g id="xtick_7">
     <g id="line2d_13">
      <path clip-path="url(#p65a6e06a66)" d="M 398.487273 307.584 
L 398.487273 41.472 
" style="fill:none;stroke:#b0b0b0;stroke-linecap:square;stroke-width:0.8;"/>
     </g>
     <g id="line2d_14">
      <g>
       <use style="stroke:#000000;stroke-width:0.8;" x="398.487273" xlink:href="#maeaec52511" y="307.584"/>
      </g>
     </g>
     <g id="text_7">
      <!-- 600 -->
      <g transform="translate(388.943523 322.182437)scale(0.1 -0.1)">
       <defs>
        <path d="M 32.71875 3.421875 
Q 39.59375 3.421875 43.296875 8.46875 
Q 47.015625 13.53125 47.015625 23 
Q 47.015625 32.46875 43.296875 37.515625 
Q 39.59375 42.578125 32.71875 42.578125 
Q 25.734375 42.578125 22.0625 37.6875 
Q 18.40625 32.8125 18.40625 23.578125 
Q 18.40625 13.875 22.109375 8.640625 
Q 25.828125 3.421875 32.71875 3.421875 
z
M 16.796875 40.140625 
Q 20.125 43.796875 24.3125 45.59375 
Q 28.515625 47.40625 33.796875 47.40625 
Q 44.671875 47.40625 51 40.859375 
Q 57.328125 34.328125 57.328125 23 
Q 57.328125 11.921875 50.515625 5.25 
Q 43.703125 -1.421875 32.328125 -1.421875 
Q 19.96875 -1.421875 13.328125 7.78125 
Q 6.6875 17 6.6875 34.078125 
Q 6.6875 53.21875 14.546875 63.71875 
Q 22.40625 74.21875 36.71875 74.21875 
Q 40.578125 74.21875 44.828125 73.484375 
Q 49.078125 72.75 53.515625 71.296875 
L 53.515625 59.28125 
L 48 59.28125 
Q 47.40625 64.203125 44.234375 66.796875 
Q 41.0625 69.390625 35.6875 69.390625 
Q 26.21875 69.390625 21.578125 62.203125 
Q 16.9375 55.03125 16.796875 40.140625 
z
" id="DejaVuSerif-54"/>
       </defs>
       <use xlink:href="#DejaVuSerif-54"/>
       <use x="63.623047" xlink:href="#DejaVuSerif-48"/>
       <use x="127.246094" xlink:href="#DejaVuSerif-48"/>
      </g>
     </g>
    </g>
   </g>
   <g id="matplotlib.axis_2">
    <g id="ytick_1">
     <g id="line2d_15">
      <path clip-path="url(#p65a6e06a66)" d="M 57.6 295.488 
L 414.72 295.488 
" style="fill:none;stroke:#b0b0b0;stroke-linecap:square;stroke-width:0.8;"/>
     </g>
     <g id="line2d_16">
      <defs>
       <path d="M 0 0 
L -3.5 0 
" id="m683e9efccd" style="stroke:#000000;stroke-width:0.8;"/>
      </defs>
      <g>
       <use style="stroke:#000000;stroke-width:0.8;" x="57.6" xlink:href="#m683e9efccd" y="295.488"/>
      </g>
     </g>
     <g id="text_8">
      <!-- 0.00 -->
      <g transform="translate(28.334375 299.287219)scale(0.1 -0.1)">
       <defs>
        <path d="M 9.421875 5.078125 
Q 9.421875 7.8125 11.28125 9.71875 
Q 13.140625 11.625 15.921875 11.625 
Q 18.609375 11.625 20.5 9.71875 
Q 22.40625 7.8125 22.40625 5.078125 
Q 22.40625 2.390625 20.5 0.484375 
Q 18.609375 -1.421875 15.921875 -1.421875 
Q 13.140625 -1.421875 11.28125 0.453125 
Q 9.421875 2.34375 9.421875 5.078125 
z
" id="DejaVuSerif-46"/>
       </defs>
       <use xlink:href="#DejaVuSerif-48"/>
       <use x="63.623047" xlink:href="#DejaVuSerif-46"/>
       <use x="95.410156" xlink:href="#DejaVuSerif-48"/>
       <use x="159.033203" xlink:href="#DejaVuSerif-48"/>
      </g>
     </g>
    </g>
    <g id="ytick_2">
     <g id="line2d_17">
      <path clip-path="url(#p65a6e06a66)" d="M 57.6 259.2 
L 414.72 259.2 
" style="fill:none;stroke:#b0b0b0;stroke-linecap:square;stroke-width:0.8;"/>
     </g>
     <g id="line2d_18">
      <g>
       <use style="stroke:#000000;stroke-width:0.8;" x="57.6" xlink:href="#m683e9efccd" y="259.2"/>
      </g>
     </g>
     <g id="text_9">
      <!-- 0.25 -->
      <g transform="translate(28.334375 262.999219)scale(0.1 -0.1)">
       <use xlink:href="#DejaVuSerif-48"/>
       <use x="63.623047" xlink:href="#DejaVuSerif-46"/>
       <use x="95.410156" xlink:href="#DejaVuSerif-50"/>
       <use x="159.033203" xlink:href="#DejaVuSerif-53"/>
      </g>
     </g>
    </g>
    <g id="ytick_3">
     <g id="line2d_19">
      <path clip-path="url(#p65a6e06a66)" d="M 57.6 222.912 
L 414.72 222.912 
" style="fill:none;stroke:#b0b0b0;stroke-linecap:square;stroke-width:0.8;"/>
     </g>
     <g id="line2d_20">
      <g>
       <use style="stroke:#000000;stroke-width:0.8;" x="57.6" xlink:href="#m683e9efccd" y="222.912"/>
      </g>
     </g>
     <g id="text_10">
      <!-- 0.50 -->
      <g transform="translate(28.334375 226.711219)scale(0.1 -0.1)">
       <use xlink:href="#DejaVuSerif-48"/>
       <use x="63.623047" xlink:href="#DejaVuSerif-46"/>
       <use x="95.410156" xlink:href="#DejaVuSerif-53"/>
       <use x="159.033203" xlink:href="#DejaVuSerif-48"/>
      </g>
     </g>
    </g>
    <g id="ytick_4">
     <g id="line2d_21">
      <path clip-path="url(#p65a6e06a66)" d="M 57.6 186.624 
L 414.72 186.624 
" style="fill:none;stroke:#b0b0b0;stroke-linecap:square;stroke-width:0.8;"/>
     </g>
     <g id="line2d_22">
      <g>
       <use style="stroke:#000000;stroke-width:0.8;" x="57.6" xlink:href="#m683e9efccd" y="186.624"/>
      </g>
     </g>
     <g id="text_11">
      <!-- 0.75 -->
      <g transform="translate(28.334375 190.423219)scale(0.1 -0.1)">
       <defs>
        <path d="M 56.390625 67.921875 
L 27.875 0 
L 20.609375 0 
L 47.796875 64.890625 
L 14.109375 64.890625 
L 14.109375 55.90625 
L 8.40625 55.90625 
L 8.40625 72.90625 
L 56.390625 72.90625 
z
" id="DejaVuSerif-55"/>
       </defs>
       <use xlink:href="#DejaVuSerif-48"/>
       <use x="63.623047" xlink:href="#DejaVuSerif-46"/>
       <use x="95.410156" xlink:href="#DejaVuSerif-55"/>
       <use x="159.033203" xlink:href="#DejaVuSerif-53"/>
      </g>
     </g>
    </g>
    <g id="ytick_5">
     <g id="line2d_23">
      <path clip-path="url(#p65a6e06a66)" d="M 57.6 150.336 
L 414.72 150.336 
" style="fill:none;stroke:#b0b0b0;stroke-linecap:square;stroke-width:0.8;"/>
     </g>
     <g id="line2d_24">
      <g>
       <use style="stroke:#000000;stroke-width:0.8;" x="57.6" xlink:href="#m683e9efccd" y="150.336"/>
      </g>
     </g>
     <g id="text_12">
      <!-- 1.00 -->
      <g transform="translate(28.334375 154.135219)scale(0.1 -0.1)">
       <use xlink:href="#DejaVuSerif-49"/>
       <use x="63.623047" xlink:href="#DejaVuSerif-46"/>
       <use x="95.410156" xlink:href="#DejaVuSerif-48"/>
       <use x="159.033203" xlink:href="#DejaVuSerif-48"/>
      </g>
     </g>
    </g>
    <g id="ytick_6">
     <g id="line2d_25">
      <path clip-path="url(#p65a6e06a66)" d="M 57.6 114.048 
L 414.72 114.048 
" style="fill:none;stroke:#b0b0b0;stroke-linecap:square;stroke-width:0.8;"/>
     </g>
     <g id="line2d_26">
      <g>
       <use style="stroke:#000000;stroke-width:0.8;" x="57.6" xlink:href="#m683e9efccd" y="114.048"/>
      </g>
     </g>
     <g id="text_13">
      <!-- 1.25 -->
      <g transform="translate(28.334375 117.847219)scale(0.1 -0.1)">
       <use xlink:href="#DejaVuSerif-49"/>
       <use x="63.623047" xlink:href="#DejaVuSerif-46"/>
       <use x="95.410156" xlink:href="#DejaVuSerif-50"/>
       <use x="159.033203" xlink:href="#DejaVuSerif-53"/>
      </g>
     </g>
    </g>
    <g id="ytick_7">
     <g id="line2d_27">
      <path clip-path="url(#p65a6e06a66)" d="M 57.6 77.76 
L 414.72 77.76 
" style="fill:none;stroke:#b0b0b0;stroke-linecap:square;stroke-width:0.8;"/>
     </g>
     <g id="line2d_28">
      <g>
       <use style="stroke:#000000;stroke-width:0.8;" x="57.6" xlink:href="#m683e9efccd" y="77.76"/>
      </g>
     </g>
     <g id="text_14">
      <!-- 1.50 -->
      <g transform="translate(28.334375 81.559219)scale(0.1 -0.1)">
       <use xlink:href="#DejaVuSerif-49"/>
       <use x="63.623047" xlink:href="#DejaVuSerif-46"/>
       <use x="95.410156" xlink:href="#DejaVuSerif-53"/>
       <use x="159.033203" xlink:href="#DejaVuSerif-48"/>
      </g>
     </g>
    </g>
    <g id="ytick_8">
     <g id="line2d_29">
      <path clip-path="url(#p65a6e06a66)" d="M 57.6 41.472 
L 414.72 41.472 
" style="fill:none;stroke:#b0b0b0;stroke-linecap:square;stroke-width:0.8;"/>
     </g>
     <g id="line2d_30">
      <g>
       <use style="stroke:#000000;stroke-width:0.8;" x="57.6" xlink:href="#m683e9efccd" y="41.472"/>
      </g>
     </g>
     <g id="text_15">
      <!-- 1.75 -->
      <g transform="translate(28.334375 45.271219)scale(0.1 -0.1)">
       <use xlink:href="#DejaVuSerif-49"/>
       <use x="63.623047" xlink:href="#DejaVuSerif-46"/>
       <use x="95.410156" xlink:href="#DejaVuSerif-55"/>
       <use x="159.033203" xlink:href="#DejaVuSerif-53"/>
      </g>
     </g>
    </g>
   </g>
   <g id="line2d_31">
    <path clip-path="url(#p65a6e06a66)" d="M 73.832727 295.488 
L 76.16759 295.488 
L 76.221889 53.568 
L 76.276188 72.177231 
L 76.493385 72.177231 
L 76.656282 88.128 
L 76.764881 88.128 
L 76.927778 101.952 
L 76.982077 101.952 
L 77.144975 295.488 
L 81.271709 295.488 
L 81.380307 201.841548 
L 81.434607 204.768 
L 81.651803 204.768 
L 81.814701 207.517091 
L 81.923299 207.517091 
L 82.086196 210.104471 
L 82.194795 210.104471 
L 82.357692 212.544 
L 82.46629 212.544 
L 82.629188 214.848 
L 82.737786 214.848 
L 82.900683 217.027459 
L 83.009282 217.027459 
L 83.172179 219.092211 
L 83.280777 219.092211 
L 83.389376 221.051077 
L 83.552273 295.488 
L 87.51611 295.488 
L 87.624708 241.728 
L 87.679007 242.705455 
L 87.896204 242.705455 
L 88.059101 243.648 
L 88.1677 243.648 
L 88.330597 244.557474 
L 88.439195 244.557474 
L 88.602093 245.435586 
L 88.710691 245.435586 
L 88.873588 246.283932 
L 88.982187 246.283932 
L 89.145084 247.104 
L 89.253682 247.104 
L 89.41658 247.89718 
L 89.525178 247.89718 
L 89.688076 248.664774 
L 89.796674 248.664774 
L 89.959571 249.408 
L 90.06817 249.408 
L 90.231067 250.128 
L 90.339665 250.128 
L 90.502563 250.825846 
L 90.611161 250.825846 
L 90.774058 251.502545 
L 90.882657 251.502545 
L 91.045554 252.159045 
L 91.154152 252.159045 
L 91.208451 252.796235 
L 91.371349 295.488 
L 94.955092 295.488 
L 95.117989 260.085073 
L 95.226588 260.085073 
L 95.389485 260.511614 
L 95.498083 260.511614 
L 95.660981 260.928 
L 95.769579 260.928 
L 95.932476 261.334588 
L 96.041075 261.334588 
L 96.203972 261.731721 
L 96.31257 261.731721 
L 96.475468 262.119724 
L 96.584066 262.119724 
L 96.746963 262.498909 
L 96.855562 262.498909 
L 97.018459 262.869573 
L 97.127057 262.869573 
L 97.289955 263.232 
L 97.398553 263.232 
L 97.561451 263.586462 
L 97.670049 263.586462 
L 97.832946 263.933217 
L 97.941544 263.933217 
L 98.104442 264.272516 
L 98.21304 264.272516 
L 98.375938 264.604596 
L 98.484536 264.604596 
L 98.647433 264.929684 
L 98.756032 264.929684 
L 98.918929 265.248 
L 99.027527 265.248 
L 99.190425 265.559753 
L 99.299023 265.559753 
L 99.46192 265.865143 
L 99.570519 265.865143 
L 99.733416 266.164364 
L 99.842014 266.164364 
L 100.004912 266.4576 
L 100.11351 266.4576 
L 100.276407 266.74503 
L 100.385006 266.74503 
L 100.493604 267.026824 
L 100.656501 295.488 
L 103.697253 295.488 
L 103.860151 270.022737 
L 103.91445 270.022737 
L 104.077347 270.244174 
L 104.185945 270.244174 
L 104.348843 270.461793 
L 104.457441 270.461793 
L 104.620338 270.675692 
L 104.728937 270.675692 
L 104.891834 270.885966 
L 105.000432 270.885966 
L 105.16333 271.092706 
L 105.271928 271.092706 
L 105.434826 271.296 
L 105.543424 271.296 
L 105.706321 271.495934 
L 105.814919 271.495934 
L 105.977817 271.69259 
L 106.086415 271.69259 
L 106.249313 271.886049 
L 106.357911 271.886049 
L 106.520808 272.076387 
L 106.629407 272.076387 
L 106.792304 272.26368 
L 106.900902 272.26368 
L 107.0638 272.448 
L 107.172398 272.448 
L 107.335295 272.629417 
L 107.443894 272.629417 
L 107.606791 272.808 
L 107.715389 272.808 
L 107.878287 272.983814 
L 107.986885 272.983814 
L 108.149782 273.156923 
L 108.258381 273.156923 
L 108.421278 273.327389 
L 108.529876 273.327389 
L 108.692774 273.495273 
L 108.801372 273.495273 
L 108.964269 273.660632 
L 109.072868 273.660632 
L 109.235765 273.823522 
L 109.344363 273.823522 
L 109.507261 273.984 
L 109.615859 273.984 
L 109.778757 274.142118 
L 109.887355 274.142118 
L 110.050252 274.297927 
L 110.158851 274.297927 
L 110.321748 274.451478 
L 110.430346 274.451478 
L 110.593244 274.60282 
L 110.701842 274.60282 
L 110.864739 274.752 
L 110.973338 274.752 
L 111.136235 274.899064 
L 111.244833 274.899064 
L 111.407731 275.044056 
L 111.570628 295.488 
L 113.905491 295.488 
L 113.95979 276.26257 
L 114.068388 276.389053 
L 114.231286 276.389053 
L 114.394183 276.513882 
L 114.502782 276.513882 
L 114.665679 276.637091 
L 114.774277 276.637091 
L 114.937175 276.75871 
L 115.045773 276.75871 
L 115.20867 276.878769 
L 115.317269 276.878769 
L 115.480166 276.997299 
L 115.588764 276.997299 
L 115.751662 277.114329 
L 115.86026 277.114329 
L 116.023157 277.229887 
L 116.131756 277.229887 
L 116.294653 277.344 
L 116.403251 277.344 
L 116.566149 277.456696 
L 116.674747 277.456696 
L 116.837644 277.568 
L 117.217738 277.677939 
L 117.380636 277.786537 
L 117.76073 277.893818 
L 117.923627 277.999807 
L 118.303721 278.104527 
L 118.466619 278.208 
L 118.846713 278.310249 
L 119.00961 278.411294 
L 119.389704 278.511158 
L 119.552601 278.60986 
L 119.932695 278.707422 
L 120.095593 278.803862 
L 120.475687 278.8992 
L 120.638584 278.993455 
L 121.018678 279.086644 
L 121.181576 279.178787 
L 121.561669 279.269899 
L 121.724567 279.36 
L 122.104661 279.449105 
L 122.267558 279.537231 
L 122.647652 279.624393 
L 122.81055 279.710609 
L 123.190644 279.795892 
L 123.353541 279.880258 
L 123.733635 279.963722 
L 123.896532 280.046298 
L 124.168028 280.128 
L 124.330926 295.488 
L 125.9599 295.488 
L 126.122797 280.676571 
L 126.448592 280.751756 
L 126.611489 280.826182 
L 126.991583 280.899859 
L 127.154481 280.9728 
L 127.534575 281.045015 
L 127.697472 281.116515 
L 128.077566 281.18731 
L 128.240463 281.257412 
L 128.620557 281.326829 
L 128.783455 281.395573 
L 129.163549 281.463652 
L 129.326446 281.531077 
L 129.70654 281.597856 
L 129.869438 281.664 
L 130.249532 281.729517 
L 130.412429 281.794415 
L 130.792523 281.858704 
L 130.95542 281.922393 
L 131.335514 281.985488 
L 131.498412 282.048 
L 131.878506 282.109935 
L 132.041403 282.171303 
L 132.421497 282.23211 
L 132.584394 282.292364 
L 132.964488 282.352072 
L 133.127386 282.411243 
L 133.50748 282.469883 
L 133.670377 282.528 
L 134.050471 282.5856 
L 134.213369 282.64269 
L 134.593463 282.699278 
L 134.75636 282.755368 
L 135.40795 282.866087 
L 135.570847 282.920727 
L 136.222437 283.028601 
L 136.385334 283.081846 
L 137.036924 283.186983 
L 137.199821 283.238886 
L 137.851411 283.341389 
L 138.068607 283.392 
L 138.665898 283.491967 
L 138.883094 283.541333 
L 139.263188 283.638857 
L 139.426086 295.488 
L 140.40347 295.488 
L 140.566368 283.829205 
L 140.783564 283.87584 
L 141.380855 283.968 
L 141.598051 284.013534 
L 142.195342 284.103529 
L 142.412538 284.148 
L 143.009829 284.235907 
L 143.227025 284.279351 
L 143.824316 284.365241 
L 144.041513 284.407695 
L 144.638803 284.491636 
L 144.856 284.533132 
L 145.45329 284.615191 
L 145.670487 284.655761 
L 146.267777 284.736 
L 146.484974 284.775675 
L 147.082264 284.854154 
L 147.299461 284.892964 
L 147.896751 284.969739 
L 148.113948 285.007711 
L 148.711238 285.082839 
L 148.928435 285.12 
L 149.797221 285.229908 
L 150.014418 285.266028 
L 150.883204 285.372878 
L 151.1004 285.408 
L 151.969187 285.511918 
L 152.186383 285.546082 
L 153.055169 285.647186 
L 153.272366 285.680432 
L 154.141152 285.778836 
L 154.358349 285.8112 
L 155.227135 285.90701 
L 155.55293 285.969836 
L 156.584613 286.062545 
L 156.910408 286.123355 
L 157.290502 286.153466 
L 157.4534 295.488 
L 158.539382 295.488 
L 158.70228 286.301165 
L 159.571066 286.387561 
L 159.896861 286.444262 
L 160.928544 286.528 
L 161.254339 286.582969 
L 162.557519 286.690909 
L 162.883313 286.743904 
L 164.186493 286.848 
L 164.512288 286.899124 
L 165.815467 286.999579 
L 166.141262 287.04893 
L 167.444441 287.145931 
L 167.824535 287.1936 
L 169.073415 287.287322 
L 169.453509 287.333393 
L 170.702389 287.424 
L 171.082483 287.468552 
L 172.602859 287.577809 
L 172.982953 287.620683 
L 174.503329 287.725861 
L 174.883423 287.767149 
L 176.403799 287.868472 
L 176.783893 287.908261 
L 178.304269 288.005938 
L 178.738662 288.044308 
L 179.987542 288.138532 
L 180.150439 295.488 
L 184.49437 295.488 
L 184.548669 288.424642 
L 184.657268 288.441786 
L 186.449139 288.542928 
L 186.937832 288.576 
L 188.621105 288.673352 
L 189.109797 288.705196 
L 191.064566 288.814345 
L 191.553258 288.844888 
L 193.508027 288.949622 
L 193.996719 288.978942 
L 195.951488 289.079523 
L 196.548779 289.121684 
L 198.937941 289.231448 
L 199.535231 289.27164 
L 201.924394 289.376337 
L 202.521684 289.414695 
L 204.910846 289.514667 
L 205.562436 289.551313 
L 208.168794 289.658602 
L 208.820384 289.693509 
L 211.426743 289.795765 
L 212.132631 289.829053 
L 212.404127 289.840062 
L 212.567025 295.488 
L 398.487273 295.488 
L 398.487273 295.488 
" style="fill:none;stroke:#1f77b4;stroke-linecap:square;stroke-width:1.5;"/>
   </g>
   <g id="patch_3">
    <path d="M 57.6 307.584 
L 57.6 41.472 
" style="fill:none;stroke:#000000;stroke-linecap:square;stroke-linejoin:miter;stroke-width:0.8;"/>
   </g>
   <g id="patch_4">
    <path d="M 414.72 307.584 
L 414.72 41.472 
" style="fill:none;stroke:#000000;stroke-linecap:square;stroke-linejoin:miter;stroke-width:0.8;"/>
   </g>
   <g id="patch_5">
    <path d="M 57.6 307.584 
L 414.72 307.584 
" style="fill:none;stroke:#000000;stroke-linecap:square;stroke-linejoin:miter;stroke-width:0.8;"/>
   </g>
   <g id="patch_6">
    <path d="M 57.6 41.472 
L 414.72 41.472 
" style="fill:none;stroke:#000000;stroke-linecap:square;stroke-linejoin:miter;stroke-width:0.8;"/>
   </g>
  </g>
 </g>
 <defs>
  <clipPath id="p65a6e06a66">
   <rect height="266.112" width="357.12" x="57.6" y="41.472"/>
  </clipPath>
 </defs>
</svg>
