<?xml version="1.0" encoding="utf-8" standalone="no"?>
<!DOCTYPE svg PUBLIC "-//W3C//DTD SVG 1.1//EN"
  "http://www.w3.org/Graphics/SVG/1.1/DTD/svg11.dtd">
<!-- Created with matplotlib (https://matplotlib.org/) -->
<svg height="345.6pt" version="1.1" viewBox="0 0 460.8 345.6" width="460.8pt" xmlns="http://www.w3.org/2000/svg" xmlns:xlink="http://www.w3.org/1999/xlink">
 <metadata>
  <rdf:RDF xmlns:cc="http://creativecommons.org/ns#" xmlns:dc="http://purl.org/dc/elements/1.1/" xmlns:rdf="http://www.w3.org/1999/02/22-rdf-syntax-ns#">
   <cc:Work>
    <dc:type rdf:resource="http://purl.org/dc/dcmitype/StillImage"/>
    <dc:date>2022-08-01T18:21:30.472457</dc:date>
    <dc:format>image/svg+xml</dc:format>
    <dc:creator>
     <cc:Agent>
      <dc:title>Matplotlib v3.3.4, https://matplotlib.org/</dc:title>
     </cc:Agent>
    </dc:creator>
   </cc:Work>
  </rdf:RDF>
 </metadata>
 <defs>
  <style type="text/css">*{stroke-linecap:butt;stroke-linejoin:round;}</style>
 </defs>
 <g id="figure_1">
  <g id="patch_1">
   <path d="M 0 345.6 
L 460.8 345.6 
L 460.8 0 
L 0 0 
z
" style="fill:#ffffff;"/>
  </g>
  <g id="axes_1">
   <g id="patch_2">
    <path d="M 57.6 307.584 
L 414.72 307.584 
L 414.72 41.472 
L 57.6 41.472 
z
" style="fill:#ffffff;"/>
   </g>
   <g id="matplotlib.axis_1">
    <g id="xtick_1">
     <g id="line2d_1">
      <path clip-path="url(#pc0d5326952)" d="M 73.149518 307.584 
L 73.149518 41.472 
" style="fill:none;stroke:#b0b0b0;stroke-linecap:square;stroke-width:0.8;"/>
     </g>
     <g id="line2d_2">
      <defs>
       <path d="M 0 0 
L 0 3.5 
" id="mbbd2d6db3d" style="stroke:#000000;stroke-width:0.8;"/>
      </defs>
      <g>
       <use style="stroke:#000000;stroke-width:0.8;" x="73.149518" xlink:href="#mbbd2d6db3d" y="307.584"/>
      </g>
     </g>
     <g id="text_1">
      <!-- 0 -->
      <g transform="translate(69.968268 322.182437)scale(0.1 -0.1)">
       <defs>
        <path d="M 31.78125 3.421875 
Q 39.265625 3.421875 42.96875 11.625 
Q 46.6875 19.828125 46.6875 36.375 
Q 46.6875 52.984375 42.96875 61.1875 
Q 39.265625 69.390625 31.78125 69.390625 
Q 24.3125 69.390625 20.59375 61.1875 
Q 16.890625 52.984375 16.890625 36.375 
Q 16.890625 19.828125 20.59375 11.625 
Q 24.3125 3.421875 31.78125 3.421875 
z
M 31.78125 -1.421875 
Q 19.921875 -1.421875 13.25 8.53125 
Q 6.59375 18.5 6.59375 36.375 
Q 6.59375 54.296875 13.25 64.25 
Q 19.921875 74.21875 31.78125 74.21875 
Q 43.703125 74.21875 50.34375 64.25 
Q 56.984375 54.296875 56.984375 36.375 
Q 56.984375 18.5 50.34375 8.53125 
Q 43.703125 -1.421875 31.78125 -1.421875 
z
" id="DejaVuSerif-48"/>
       </defs>
       <use xlink:href="#DejaVuSerif-48"/>
      </g>
     </g>
    </g>
    <g id="xtick_2">
     <g id="line2d_3">
      <path clip-path="url(#pc0d5326952)" d="M 138.217069 307.584 
L 138.217069 41.472 
" style="fill:none;stroke:#b0b0b0;stroke-linecap:square;stroke-width:0.8;"/>
     </g>
     <g id="line2d_4">
      <g>
       <use style="stroke:#000000;stroke-width:0.8;" x="138.217069" xlink:href="#mbbd2d6db3d" y="307.584"/>
      </g>
     </g>
     <g id="text_2">
      <!-- 200 -->
      <g transform="translate(128.673319 322.182437)scale(0.1 -0.1)">
       <defs>
        <path d="M 12.796875 55.515625 
L 7.328125 55.515625 
L 7.328125 68.5 
Q 12.546875 71.296875 17.84375 72.75 
Q 23.140625 74.21875 28.21875 74.21875 
Q 39.59375 74.21875 46.1875 68.703125 
Q 52.78125 63.1875 52.78125 53.71875 
Q 52.78125 43.015625 37.84375 28.125 
Q 36.671875 27 36.078125 26.421875 
L 17.671875 8.015625 
L 48.09375 8.015625 
L 48.09375 17 
L 53.8125 17 
L 53.8125 0 
L 6.78125 0 
L 6.78125 5.328125 
L 28.90625 27.390625 
Q 36.234375 34.71875 39.359375 40.84375 
Q 42.484375 46.96875 42.484375 53.71875 
Q 42.484375 61.078125 38.640625 65.234375 
Q 34.8125 69.390625 28.078125 69.390625 
Q 21.09375 69.390625 17.28125 65.921875 
Q 13.484375 62.453125 12.796875 55.515625 
z
" id="DejaVuSerif-50"/>
       </defs>
       <use xlink:href="#DejaVuSerif-50"/>
       <use x="63.623047" xlink:href="#DejaVuSerif-48"/>
       <use x="127.246094" xlink:href="#DejaVuSerif-48"/>
      </g>
     </g>
    </g>
    <g id="xtick_3">
     <g id="line2d_5">
      <path clip-path="url(#pc0d5326952)" d="M 203.28462 307.584 
L 203.28462 41.472 
" style="fill:none;stroke:#b0b0b0;stroke-linecap:square;stroke-width:0.8;"/>
     </g>
     <g id="line2d_6">
      <g>
       <use style="stroke:#000000;stroke-width:0.8;" x="203.28462" xlink:href="#mbbd2d6db3d" y="307.584"/>
      </g>
     </g>
     <g id="text_3">
      <!-- 400 -->
      <g transform="translate(193.74087 322.182437)scale(0.1 -0.1)">
       <defs>
        <path d="M 34.90625 24.703125 
L 34.90625 63.484375 
L 10.015625 24.703125 
z
M 56.390625 0 
L 23.1875 0 
L 23.1875 5.171875 
L 34.90625 5.171875 
L 34.90625 19.484375 
L 3.078125 19.484375 
L 3.078125 24.8125 
L 35.015625 74.21875 
L 44.671875 74.21875 
L 44.671875 24.703125 
L 58.59375 24.703125 
L 58.59375 19.484375 
L 44.671875 19.484375 
L 44.671875 5.171875 
L 56.390625 5.171875 
z
" id="DejaVuSerif-52"/>
       </defs>
       <use xlink:href="#DejaVuSerif-52"/>
       <use x="63.623047" xlink:href="#DejaVuSerif-48"/>
       <use x="127.246094" xlink:href="#DejaVuSerif-48"/>
      </g>
     </g>
    </g>
    <g id="xtick_4">
     <g id="line2d_7">
      <path clip-path="url(#pc0d5326952)" d="M 268.352171 307.584 
L 268.352171 41.472 
" style="fill:none;stroke:#b0b0b0;stroke-linecap:square;stroke-width:0.8;"/>
     </g>
     <g id="line2d_8">
      <g>
       <use style="stroke:#000000;stroke-width:0.8;" x="268.352171" xlink:href="#mbbd2d6db3d" y="307.584"/>
      </g>
     </g>
     <g id="text_4">
      <!-- 600 -->
      <g transform="translate(258.808421 322.182437)scale(0.1 -0.1)">
       <defs>
        <path d="M 32.71875 3.421875 
Q 39.59375 3.421875 43.296875 8.46875 
Q 47.015625 13.53125 47.015625 23 
Q 47.015625 32.46875 43.296875 37.515625 
Q 39.59375 42.578125 32.71875 42.578125 
Q 25.734375 42.578125 22.0625 37.6875 
Q 18.40625 32.8125 18.40625 23.578125 
Q 18.40625 13.875 22.109375 8.640625 
Q 25.828125 3.421875 32.71875 3.421875 
z
M 16.796875 40.140625 
Q 20.125 43.796875 24.3125 45.59375 
Q 28.515625 47.40625 33.796875 47.40625 
Q 44.671875 47.40625 51 40.859375 
Q 57.328125 34.328125 57.328125 23 
Q 57.328125 11.921875 50.515625 5.25 
Q 43.703125 -1.421875 32.328125 -1.421875 
Q 19.96875 -1.421875 13.328125 7.78125 
Q 6.6875 17 6.6875 34.078125 
Q 6.6875 53.21875 14.546875 63.71875 
Q 22.40625 74.21875 36.71875 74.21875 
Q 40.578125 74.21875 44.828125 73.484375 
Q 49.078125 72.75 53.515625 71.296875 
L 53.515625 59.28125 
L 48 59.28125 
Q 47.40625 64.203125 44.234375 66.796875 
Q 41.0625 69.390625 35.6875 69.390625 
Q 26.21875 69.390625 21.578125 62.203125 
Q 16.9375 55.03125 16.796875 40.140625 
z
" id="DejaVuSerif-54"/>
       </defs>
       <use xlink:href="#DejaVuSerif-54"/>
       <use x="63.623047" xlink:href="#DejaVuSerif-48"/>
       <use x="127.246094" xlink:href="#DejaVuSerif-48"/>
      </g>
     </g>
    </g>
    <g id="xtick_5">
     <g id="line2d_9">
      <path clip-path="url(#pc0d5326952)" d="M 333.419722 307.584 
L 333.419722 41.472 
" style="fill:none;stroke:#b0b0b0;stroke-linecap:square;stroke-width:0.8;"/>
     </g>
     <g id="line2d_10">
      <g>
       <use style="stroke:#000000;stroke-width:0.8;" x="333.419722" xlink:href="#mbbd2d6db3d" y="307.584"/>
      </g>
     </g>
     <g id="text_5">
      <!-- 800 -->
      <g transform="translate(323.875972 322.182437)scale(0.1 -0.1)">
       <defs>
        <path d="M 46.578125 19.921875 
Q 46.578125 27.734375 42.6875 32.046875 
Q 38.8125 36.375 31.78125 36.375 
Q 24.75 36.375 20.875 32.046875 
Q 17 27.734375 17 19.921875 
Q 17 12.0625 20.875 7.734375 
Q 24.75 3.421875 31.78125 3.421875 
Q 38.8125 3.421875 42.6875 7.734375 
Q 46.578125 12.0625 46.578125 19.921875 
z
M 44.578125 55.328125 
Q 44.578125 61.96875 41.203125 65.671875 
Q 37.84375 69.390625 31.78125 69.390625 
Q 25.78125 69.390625 22.390625 65.671875 
Q 19 61.96875 19 55.328125 
Q 19 48.640625 22.390625 44.921875 
Q 25.78125 41.21875 31.78125 41.21875 
Q 37.84375 41.21875 41.203125 44.921875 
Q 44.578125 48.640625 44.578125 55.328125 
z
M 39.3125 38.8125 
Q 47.609375 37.703125 52.25 32.6875 
Q 56.890625 27.6875 56.890625 19.921875 
Q 56.890625 9.671875 50.390625 4.125 
Q 43.890625 -1.421875 31.78125 -1.421875 
Q 19.734375 -1.421875 13.203125 4.125 
Q 6.6875 9.671875 6.6875 19.921875 
Q 6.6875 27.6875 11.328125 32.6875 
Q 15.96875 37.703125 24.3125 38.8125 
Q 16.9375 40.140625 13 44.40625 
Q 9.078125 48.6875 9.078125 55.328125 
Q 9.078125 64.109375 15.125 69.15625 
Q 21.1875 74.21875 31.78125 74.21875 
Q 42.390625 74.21875 48.4375 69.15625 
Q 54.5 64.109375 54.5 55.328125 
Q 54.5 48.6875 50.5625 44.40625 
Q 46.625 40.140625 39.3125 38.8125 
z
" id="DejaVuSerif-56"/>
       </defs>
       <use xlink:href="#DejaVuSerif-56"/>
       <use x="63.623047" xlink:href="#DejaVuSerif-48"/>
       <use x="127.246094" xlink:href="#DejaVuSerif-48"/>
      </g>
     </g>
    </g>
    <g id="xtick_6">
     <g id="line2d_11">
      <path clip-path="url(#pc0d5326952)" d="M 398.487273 307.584 
L 398.487273 41.472 
" style="fill:none;stroke:#b0b0b0;stroke-linecap:square;stroke-width:0.8;"/>
     </g>
     <g id="line2d_12">
      <g>
       <use style="stroke:#000000;stroke-width:0.8;" x="398.487273" xlink:href="#mbbd2d6db3d" y="307.584"/>
      </g>
     </g>
     <g id="text_6">
      <!-- 1000 -->
      <g transform="translate(385.762273 322.182437)scale(0.1 -0.1)">
       <defs>
        <path d="M 14.203125 0 
L 14.203125 5.171875 
L 26.90625 5.171875 
L 26.90625 65.828125 
L 12.203125 56.296875 
L 12.203125 62.703125 
L 29.984375 74.21875 
L 36.71875 74.21875 
L 36.71875 5.171875 
L 49.421875 5.171875 
L 49.421875 0 
z
" id="DejaVuSerif-49"/>
       </defs>
       <use xlink:href="#DejaVuSerif-49"/>
       <use x="63.623047" xlink:href="#DejaVuSerif-48"/>
       <use x="127.246094" xlink:href="#DejaVuSerif-48"/>
       <use x="190.869141" xlink:href="#DejaVuSerif-48"/>
      </g>
     </g>
    </g>
   </g>
   <g id="matplotlib.axis_2">
    <g id="ytick_1">
     <g id="line2d_13">
      <path clip-path="url(#pc0d5326952)" d="M 57.6 295.488 
L 414.72 295.488 
" style="fill:none;stroke:#b0b0b0;stroke-linecap:square;stroke-width:0.8;"/>
     </g>
     <g id="line2d_14">
      <defs>
       <path d="M 0 0 
L -3.5 0 
" id="m5b5e375df9" style="stroke:#000000;stroke-width:0.8;"/>
      </defs>
      <g>
       <use style="stroke:#000000;stroke-width:0.8;" x="57.6" xlink:href="#m5b5e375df9" y="295.488"/>
      </g>
     </g>
     <g id="text_7">
      <!-- 0.0 -->
      <g transform="translate(34.696875 299.287219)scale(0.1 -0.1)">
       <defs>
        <path d="M 9.421875 5.078125 
Q 9.421875 7.8125 11.28125 9.71875 
Q 13.140625 11.625 15.921875 11.625 
Q 18.609375 11.625 20.5 9.71875 
Q 22.40625 7.8125 22.40625 5.078125 
Q 22.40625 2.390625 20.5 0.484375 
Q 18.609375 -1.421875 15.921875 -1.421875 
Q 13.140625 -1.421875 11.28125 0.453125 
Q 9.421875 2.34375 9.421875 5.078125 
z
" id="DejaVuSerif-46"/>
       </defs>
       <use xlink:href="#DejaVuSerif-48"/>
       <use x="63.623047" xlink:href="#DejaVuSerif-46"/>
       <use x="95.410156" xlink:href="#DejaVuSerif-48"/>
      </g>
     </g>
    </g>
    <g id="ytick_2">
     <g id="line2d_15">
      <path clip-path="url(#pc0d5326952)" d="M 57.6 264.0384 
L 414.72 264.0384 
" style="fill:none;stroke:#b0b0b0;stroke-linecap:square;stroke-width:0.8;"/>
     </g>
     <g id="line2d_16">
      <g>
       <use style="stroke:#000000;stroke-width:0.8;" x="57.6" xlink:href="#m5b5e375df9" y="264.0384"/>
      </g>
     </g>
     <g id="text_8">
      <!-- 0.1 -->
      <g transform="translate(34.696875 267.837619)scale(0.1 -0.1)">
       <use xlink:href="#DejaVuSerif-48"/>
       <use x="63.623047" xlink:href="#DejaVuSerif-46"/>
       <use x="95.410156" xlink:href="#DejaVuSerif-49"/>
      </g>
     </g>
    </g>
    <g id="ytick_3">
     <g id="line2d_17">
      <path clip-path="url(#pc0d5326952)" d="M 57.6 232.5888 
L 414.72 232.5888 
" style="fill:none;stroke:#b0b0b0;stroke-linecap:square;stroke-width:0.8;"/>
     </g>
     <g id="line2d_18">
      <g>
       <use style="stroke:#000000;stroke-width:0.8;" x="57.6" xlink:href="#m5b5e375df9" y="232.5888"/>
      </g>
     </g>
     <g id="text_9">
      <!-- 0.2 -->
      <g transform="translate(34.696875 236.388019)scale(0.1 -0.1)">
       <use xlink:href="#DejaVuSerif-48"/>
       <use x="63.623047" xlink:href="#DejaVuSerif-46"/>
       <use x="95.410156" xlink:href="#DejaVuSerif-50"/>
      </g>
     </g>
    </g>
    <g id="ytick_4">
     <g id="line2d_19">
      <path clip-path="url(#pc0d5326952)" d="M 57.6 201.1392 
L 414.72 201.1392 
" style="fill:none;stroke:#b0b0b0;stroke-linecap:square;stroke-width:0.8;"/>
     </g>
     <g id="line2d_20">
      <g>
       <use style="stroke:#000000;stroke-width:0.8;" x="57.6" xlink:href="#m5b5e375df9" y="201.1392"/>
      </g>
     </g>
     <g id="text_10">
      <!-- 0.3 -->
      <g transform="translate(34.696875 204.938419)scale(0.1 -0.1)">
       <defs>
        <path d="M 9.71875 69.828125 
Q 15.4375 71.96875 20.671875 73.09375 
Q 25.921875 74.21875 30.515625 74.21875 
Q 41.21875 74.21875 47.21875 69.59375 
Q 53.21875 64.984375 53.21875 56.78125 
Q 53.21875 50.203125 49.0625 45.78125 
Q 44.921875 41.359375 37.3125 39.796875 
Q 46.296875 38.53125 51.25 33.28125 
Q 56.203125 28.03125 56.203125 19.671875 
Q 56.203125 9.46875 49.34375 4.015625 
Q 42.484375 -1.421875 29.59375 -1.421875 
Q 23.875 -1.421875 18.421875 -0.1875 
Q 12.984375 1.03125 7.625 3.515625 
L 7.625 17.671875 
L 13.09375 17.671875 
Q 13.578125 10.640625 17.828125 7.03125 
Q 22.078125 3.421875 29.78125 3.421875 
Q 37.25 3.421875 41.578125 7.734375 
Q 45.90625 12.0625 45.90625 19.578125 
Q 45.90625 28.171875 41.453125 32.59375 
Q 37.015625 37.015625 28.421875 37.015625 
L 23.78125 37.015625 
L 23.78125 42 
L 26.21875 42 
Q 34.765625 42 39.03125 45.53125 
Q 43.3125 49.078125 43.3125 56.203125 
Q 43.3125 62.59375 39.796875 65.984375 
Q 36.28125 69.390625 29.6875 69.390625 
Q 23.09375 69.390625 19.453125 66.265625 
Q 15.828125 63.140625 15.1875 56.984375 
L 9.71875 56.984375 
z
" id="DejaVuSerif-51"/>
       </defs>
       <use xlink:href="#DejaVuSerif-48"/>
       <use x="63.623047" xlink:href="#DejaVuSerif-46"/>
       <use x="95.410156" xlink:href="#DejaVuSerif-51"/>
      </g>
     </g>
    </g>
    <g id="ytick_5">
     <g id="line2d_21">
      <path clip-path="url(#pc0d5326952)" d="M 57.6 169.6896 
L 414.72 169.6896 
" style="fill:none;stroke:#b0b0b0;stroke-linecap:square;stroke-width:0.8;"/>
     </g>
     <g id="line2d_22">
      <g>
       <use style="stroke:#000000;stroke-width:0.8;" x="57.6" xlink:href="#m5b5e375df9" y="169.6896"/>
      </g>
     </g>
     <g id="text_11">
      <!-- 0.4 -->
      <g transform="translate(34.696875 173.488819)scale(0.1 -0.1)">
       <use xlink:href="#DejaVuSerif-48"/>
       <use x="63.623047" xlink:href="#DejaVuSerif-46"/>
       <use x="95.410156" xlink:href="#DejaVuSerif-52"/>
      </g>
     </g>
    </g>
    <g id="ytick_6">
     <g id="line2d_23">
      <path clip-path="url(#pc0d5326952)" d="M 57.6 138.24 
L 414.72 138.24 
" style="fill:none;stroke:#b0b0b0;stroke-linecap:square;stroke-width:0.8;"/>
     </g>
     <g id="line2d_24">
      <g>
       <use style="stroke:#000000;stroke-width:0.8;" x="57.6" xlink:href="#m5b5e375df9" y="138.24"/>
      </g>
     </g>
     <g id="text_12">
      <!-- 0.5 -->
      <g transform="translate(34.696875 142.039219)scale(0.1 -0.1)">
       <defs>
        <path d="M 50.296875 72.90625 
L 50.296875 64.890625 
L 16.890625 64.890625 
L 16.890625 44 
Q 19.4375 45.75 22.828125 46.625 
Q 26.21875 47.515625 30.421875 47.515625 
Q 42.234375 47.515625 49.0625 40.96875 
Q 55.90625 34.421875 55.90625 23.09375 
Q 55.90625 11.53125 49 5.046875 
Q 42.09375 -1.421875 29.59375 -1.421875 
Q 24.5625 -1.421875 19.28125 -0.1875 
Q 14.015625 1.03125 8.5 3.515625 
L 8.5 17.671875 
L 14.015625 17.671875 
Q 14.453125 10.75 18.421875 7.078125 
Q 22.40625 3.421875 29.59375 3.421875 
Q 37.3125 3.421875 41.453125 8.5 
Q 45.609375 13.578125 45.609375 23.09375 
Q 45.609375 32.5625 41.484375 37.609375 
Q 37.359375 42.671875 29.59375 42.671875 
Q 25.203125 42.671875 21.84375 41.109375 
Q 18.5 39.546875 15.921875 36.28125 
L 11.71875 36.28125 
L 11.71875 72.90625 
z
" id="DejaVuSerif-53"/>
       </defs>
       <use xlink:href="#DejaVuSerif-48"/>
       <use x="63.623047" xlink:href="#DejaVuSerif-46"/>
       <use x="95.410156" xlink:href="#DejaVuSerif-53"/>
      </g>
     </g>
    </g>
    <g id="ytick_7">
     <g id="line2d_25">
      <path clip-path="url(#pc0d5326952)" d="M 57.6 106.7904 
L 414.72 106.7904 
" style="fill:none;stroke:#b0b0b0;stroke-linecap:square;stroke-width:0.8;"/>
     </g>
     <g id="line2d_26">
      <g>
       <use style="stroke:#000000;stroke-width:0.8;" x="57.6" xlink:href="#m5b5e375df9" y="106.7904"/>
      </g>
     </g>
     <g id="text_13">
      <!-- 0.6 -->
      <g transform="translate(34.696875 110.589619)scale(0.1 -0.1)">
       <use xlink:href="#DejaVuSerif-48"/>
       <use x="63.623047" xlink:href="#DejaVuSerif-46"/>
       <use x="95.410156" xlink:href="#DejaVuSerif-54"/>
      </g>
     </g>
    </g>
    <g id="ytick_8">
     <g id="line2d_27">
      <path clip-path="url(#pc0d5326952)" d="M 57.6 75.3408 
L 414.72 75.3408 
" style="fill:none;stroke:#b0b0b0;stroke-linecap:square;stroke-width:0.8;"/>
     </g>
     <g id="line2d_28">
      <g>
       <use style="stroke:#000000;stroke-width:0.8;" x="57.6" xlink:href="#m5b5e375df9" y="75.3408"/>
      </g>
     </g>
     <g id="text_14">
      <!-- 0.7 -->
      <g transform="translate(34.696875 79.140019)scale(0.1 -0.1)">
       <defs>
        <path d="M 56.390625 67.921875 
L 27.875 0 
L 20.609375 0 
L 47.796875 64.890625 
L 14.109375 64.890625 
L 14.109375 55.90625 
L 8.40625 55.90625 
L 8.40625 72.90625 
L 56.390625 72.90625 
z
" id="DejaVuSerif-55"/>
       </defs>
       <use xlink:href="#DejaVuSerif-48"/>
       <use x="63.623047" xlink:href="#DejaVuSerif-46"/>
       <use x="95.410156" xlink:href="#DejaVuSerif-55"/>
      </g>
     </g>
    </g>
    <g id="ytick_9">
     <g id="line2d_29">
      <path clip-path="url(#pc0d5326952)" d="M 57.6 43.8912 
L 414.72 43.8912 
" style="fill:none;stroke:#b0b0b0;stroke-linecap:square;stroke-width:0.8;"/>
     </g>
     <g id="line2d_30">
      <g>
       <use style="stroke:#000000;stroke-width:0.8;" x="57.6" xlink:href="#m5b5e375df9" y="43.8912"/>
      </g>
     </g>
     <g id="text_15">
      <!-- 0.8 -->
      <g transform="translate(34.696875 47.690419)scale(0.1 -0.1)">
       <use xlink:href="#DejaVuSerif-48"/>
       <use x="63.623047" xlink:href="#DejaVuSerif-46"/>
       <use x="95.410156" xlink:href="#DejaVuSerif-56"/>
      </g>
     </g>
    </g>
   </g>
   <g id="line2d_31">
    <path clip-path="url(#pc0d5326952)" d="M 73.832727 295.488 
L 75.394348 295.488 
L 75.426882 53.568 
L 75.524484 70.848 
L 75.589551 70.848 
L 75.719686 85.824 
L 75.75222 85.824 
L 75.882355 98.928 
L 75.914889 98.928 
L 75.947423 110.490353 
L 76.077558 295.488 
L 80.372016 295.488 
L 80.469617 224.011636 
L 80.502151 225.6 
L 80.632286 225.6 
L 80.762421 227.119304 
L 80.794955 227.119304 
L 80.92509 228.573957 
L 80.957624 228.573957 
L 81.087759 229.968 
L 81.120293 229.968 
L 81.250428 231.305143 
L 81.282962 231.305143 
L 81.413097 232.5888 
L 81.445631 232.5888 
L 81.575766 233.822118 
L 81.6083 233.822118 
L 81.738435 235.008 
L 81.770968 235.008 
L 81.901104 236.149132 
L 81.933637 236.149132 
L 82.063772 237.248 
L 82.096306 237.248 
L 82.161374 238.306909 
L 82.291509 295.488 
L 85.414751 295.488 
L 85.512353 253.5552 
L 85.544886 254.106947 
L 85.675022 254.106947 
L 85.805157 254.644364 
L 85.83769 254.644364 
L 85.967826 255.168 
L 86.000359 255.168 
L 86.130494 255.67838 
L 86.163028 255.67838 
L 86.293163 256.176 
L 86.325697 256.176 
L 86.455832 256.661333 
L 86.488366 256.661333 
L 86.618501 257.134829 
L 86.651035 257.134829 
L 86.78117 257.596916 
L 86.813704 257.596916 
L 86.943839 258.048 
L 86.976373 258.048 
L 87.106508 258.488471 
L 87.139041 258.488471 
L 87.269177 258.918698 
L 87.30171 258.918698 
L 87.431845 259.339034 
L 87.464379 259.339034 
L 87.594514 259.749818 
L 87.627048 259.749818 
L 87.757183 260.151371 
L 87.789717 260.151371 
L 87.919852 260.544 
L 87.952386 260.544 
L 88.082521 260.928 
L 88.115055 260.928 
L 88.24519 261.303652 
L 88.277724 261.303652 
L 88.407859 261.671226 
L 88.440392 261.671226 
L 88.472926 262.030979 
L 88.603061 295.488 
L 90.522554 295.488 
L 90.555088 265.818566 
L 90.652689 266.09585 
L 90.717757 266.09585 
L 90.847892 266.368 
L 90.880426 266.368 
L 91.010561 266.635156 
L 91.043094 266.635156 
L 91.17323 266.897455 
L 91.205763 266.897455 
L 91.335898 267.155027 
L 91.368432 267.155027 
L 91.498567 267.408 
L 91.531101 267.408 
L 91.661236 267.656496 
L 91.69377 267.656496 
L 91.823905 267.900632 
L 91.856439 267.900632 
L 91.986574 268.140522 
L 92.019108 268.140522 
L 92.149243 268.376276 
L 92.181777 268.376276 
L 92.311912 268.608 
L 92.344446 268.608 
L 92.474581 268.835797 
L 92.507114 268.835797 
L 92.637249 269.059765 
L 92.669783 269.059765 
L 92.799918 269.28 
L 92.832452 269.28 
L 92.962587 269.496595 
L 92.995121 269.496595 
L 93.125256 269.709639 
L 93.15779 269.709639 
L 93.287925 269.91922 
L 93.320459 269.91922 
L 93.450594 270.125419 
L 93.483128 270.125419 
L 93.613263 270.32832 
L 93.645797 270.32832 
L 93.775932 270.528 
L 93.808465 270.528 
L 93.938601 270.724535 
L 93.971134 270.724535 
L 94.101269 270.918 
L 94.133803 270.918 
L 94.263938 271.108465 
L 94.296472 271.108465 
L 94.426607 271.296 
L 94.459141 271.296 
L 94.589276 271.480672 
L 94.62181 271.480672 
L 94.751945 271.662545 
L 94.784479 271.662545 
L 94.849546 271.841684 
L 94.979681 295.488 
L 95.597823 295.488 
L 95.727958 272.698435 
L 95.760492 272.698435 
L 95.890627 272.862388 
L 95.923161 272.862388 
L 96.053296 273.024 
L 96.08583 273.024 
L 96.215965 273.183319 
L 96.248499 273.183319 
L 96.378634 273.340394 
L 96.411167 273.340394 
L 96.541303 273.495273 
L 96.573836 273.495273 
L 96.703971 273.648 
L 96.736505 273.648 
L 96.86664 273.798621 
L 96.899174 273.798621 
L 97.029309 273.947178 
L 97.061843 273.947178 
L 97.191978 274.093714 
L 97.224512 274.093714 
L 97.354647 274.23827 
L 97.387181 274.23827 
L 97.517316 274.380886 
L 97.54985 274.380886 
L 97.679985 274.5216 
L 97.712518 274.5216 
L 97.842654 274.66045 
L 97.875187 274.66045 
L 98.005322 274.797474 
L 98.037856 274.797474 
L 98.167991 274.932706 
L 98.200525 274.932706 
L 98.33066 275.066182 
L 98.363194 275.066182 
L 98.493329 275.197935 
L 98.525863 275.197935 
L 98.655998 275.328 
L 98.688532 275.328 
L 98.818667 275.456408 
L 98.851201 275.456408 
L 98.981336 275.58319 
L 99.013869 275.58319 
L 99.144005 275.708377 
L 99.176538 275.708377 
L 99.306673 275.832 
L 99.339207 275.832 
L 99.469342 275.954087 
L 99.501876 275.954087 
L 99.632011 276.074667 
L 99.664545 276.074667 
L 99.79468 276.193767 
L 99.827214 276.193767 
L 99.957349 276.311415 
L 99.989883 276.311415 
L 100.120018 276.427636 
L 100.152552 276.427636 
L 100.282687 276.542458 
L 100.315221 276.542458 
L 100.445356 276.655904 
L 100.477889 276.655904 
L 100.608024 276.768 
L 100.673092 276.878769 
L 100.803227 258.269538 
L 100.933362 258.488471 
L 100.965896 258.488471 
L 101.096031 258.704842 
L 101.128565 258.704842 
L 101.193632 258.918698 
L 101.323768 277.30904 
L 101.616572 277.413517 
L 101.746707 277.5168 
L 101.941909 277.618909 
L 102.072044 277.719864 
L 102.267247 277.819685 
L 102.397382 277.918391 
L 102.592585 278.016 
L 102.72272 278.11253 
L 102.917923 278.208 
L 103.048058 278.302426 
L 103.24326 278.395826 
L 103.373395 278.488216 
L 103.568598 278.579613 
L 103.698733 278.670032 
L 103.893936 278.759489 
L 104.024071 278.848 
L 104.219274 278.935579 
L 104.349409 279.022241 
L 104.544611 279.108 
L 104.674746 279.19287 
L 104.869949 279.276866 
L 105.000084 279.36 
L 105.195287 279.442286 
L 105.325422 279.523736 
L 105.520625 279.604364 
L 105.65076 279.684181 
L 105.748361 279.7632 
L 105.845962 264.0384 
L 105.878496 264.194866 
L 106.008631 264.194866 
L 106.138766 264.349782 
L 106.1713 264.349782 
L 106.301435 264.503172 
L 106.333969 264.503172 
L 106.464104 264.655059 
L 106.496638 264.655059 
L 106.626773 264.805463 
L 106.659307 264.805463 
L 106.789442 264.954408 
L 106.821976 264.954408 
L 106.952111 265.101913 
L 106.984644 265.101913 
L 107.11478 265.248 
L 107.147313 265.248 
L 107.277448 265.392689 
L 107.309982 265.392689 
L 107.440117 265.536 
L 107.472651 265.536 
L 107.537719 265.677953 
L 107.667854 280.653283 
L 107.960658 280.72293 
L 108.090793 280.791925 
L 108.285995 280.860279 
L 108.416131 280.928 
L 108.611333 280.995097 
L 108.741468 281.061578 
L 108.936671 281.127452 
L 109.066806 281.192727 
L 109.262009 281.257412 
L 109.392144 281.321514 
L 109.587347 281.38504 
L 109.717482 281.448 
L 109.912684 281.5104 
L 110.042819 281.572248 
L 110.238022 281.633551 
L 110.368157 281.694316 
L 110.56336 281.75455 
L 110.693495 281.814261 
L 110.82363 281.873455 
L 110.888698 268.258909 
L 110.953765 268.376276 
L 111.051366 268.376276 
L 111.181502 268.492635 
L 111.214035 268.492635 
L 111.34417 268.608 
L 111.376704 268.608 
L 111.506839 268.722383 
L 111.539373 268.722383 
L 111.669508 268.835797 
L 111.702042 268.835797 
L 111.832177 268.948253 
L 111.864711 268.948253 
L 111.994846 269.059765 
L 112.190049 269.170343 
L 112.320184 269.28 
L 112.515386 269.388747 
L 112.645521 269.496595 
L 112.840724 269.603556 
L 112.970859 269.709639 
L 113.166062 269.814857 
L 113.296197 269.91922 
L 113.4914 270.022737 
L 113.621535 270.125419 
L 113.816737 270.227277 
L 113.881805 270.32832 
L 114.01194 282.958279 
L 114.467413 283.057328 
L 114.662615 283.154824 
L 115.118088 283.250802 
L 115.313291 283.345297 
L 115.768764 283.438345 
L 115.898899 283.484336 
L 115.931433 271.480672 
L 116.029034 271.571954 
L 116.25677 271.662545 
L 116.386906 271.752453 
L 116.582108 271.841684 
L 116.712243 271.930247 
L 116.907446 272.018149 
L 117.037581 272.105398 
L 117.232784 272.192 
L 117.362919 272.277963 
L 117.558122 272.363294 
L 117.688257 272.448 
L 117.883459 272.532088 
L 118.013594 272.615564 
L 118.208797 272.698435 
L 118.338932 272.780708 
L 118.534135 272.862388 
L 118.66427 272.943484 
L 118.859473 273.024 
L 118.989608 273.103943 
L 119.18481 273.183319 
L 119.314945 273.262134 
L 119.510148 273.340394 
L 119.640283 273.418105 
L 119.835486 273.495273 
L 119.965621 273.571902 
L 120.160824 273.648 
L 120.225891 273.723571 
L 120.356026 284.64331 
L 120.974168 284.754348 
L 121.104303 274.093714 
L 121.299506 274.166237 
L 121.429641 274.23827 
L 121.624843 274.309818 
L 121.754979 274.380886 
L 121.950181 274.451478 
L 122.080316 274.5216 
L 122.275519 274.591256 
L 122.405654 274.66045 
L 122.600857 274.729188 
L 122.730992 274.797474 
L 122.926194 274.865311 
L 123.05633 274.932706 
L 123.251532 274.999661 
L 123.381667 275.066182 
L 123.57687 275.132272 
L 123.707005 275.197935 
L 123.902208 275.263177 
L 124.032343 275.328 
L 124.227545 275.392409 
L 124.357681 275.456408 
L 124.552883 275.52 
L 124.683018 275.58319 
L 124.878221 275.645981 
L 125.008356 275.708377 
L 125.203559 275.770382 
L 125.333694 275.832 
L 125.528897 275.893234 
L 125.659032 275.954087 
L 125.854234 276.014563 
L 125.984369 276.074667 
L 126.049437 276.1344 
L 126.179572 266.4576 
L 126.309707 266.54665 
L 126.50491 266.635156 
L 126.569977 266.723122 
L 126.700112 276.369702 
L 126.992916 276.427636 
L 127.123051 276.485221 
L 127.318254 276.542458 
L 127.448389 276.599351 
L 127.643592 276.655904 
L 127.773727 276.712119 
L 127.96893 276.768 
L 128.099065 276.823549 
L 128.456936 276.933664 
L 128.587071 276.988235 
L 128.944943 277.096421 
L 129.075078 277.150041 
L 129.43295 277.256348 
L 129.628152 277.361429 
L 130.083625 277.465307 
L 130.278828 277.568 
L 130.734301 277.66953 
L 130.929503 277.769915 
L 131.124706 277.819685 
L 131.222307 268.985528 
L 131.254841 269.059765 
L 131.547645 269.133587 
L 131.67778 269.206997 
L 131.872983 269.28 
L 132.003118 269.352598 
L 132.19832 269.424796 
L 132.328456 269.496595 
L 132.523658 269.568 
L 132.653793 269.639014 
L 132.848996 269.709639 
L 132.914064 269.77988 
L 133.044199 278.395826 
L 133.499671 278.488216 
L 133.694874 278.579613 
L 134.150347 278.670032 
L 134.34555 278.759489 
L 134.801023 278.848 
L 134.996225 278.935579 
L 135.451698 279.022241 
L 135.646901 279.108 
L 136.102374 279.19287 
L 136.232509 279.234977 
L 136.265042 271.108465 
L 136.362644 271.171299 
L 136.59038 271.23381 
L 136.720515 271.296 
L 136.915718 271.357872 
L 137.045853 271.419429 
L 137.241056 271.480672 
L 137.371191 271.541604 
L 137.566393 271.602228 
L 137.696529 271.662545 
L 137.891731 271.722559 
L 138.021866 271.782271 
L 138.217069 271.841684 
L 138.347204 271.9008 
L 138.542407 271.959621 
L 138.672542 272.018149 
L 138.867744 272.076387 
L 138.99788 272.134337 
L 139.193082 272.192 
L 139.25815 272.249379 
L 139.388285 280.033651 
L 139.843758 280.109222 
L 140.03896 280.184058 
L 140.657102 280.294957 
L 140.852305 280.368 
L 141.307778 280.440344 
L 141.437913 272.970387 
L 141.795784 273.077359 
L 141.990987 273.183319 
L 142.44646 273.288282 
L 142.641662 273.392262 
L 143.097135 273.495273 
L 143.292338 273.597327 
L 143.747811 273.698439 
L 143.943013 273.798621 
L 144.398486 273.897886 
L 144.593689 273.996246 
L 145.049162 274.093714 
L 145.244364 274.190302 
L 145.602236 274.286022 
L 145.732371 281.38504 
L 146.350513 281.479269 
L 146.383047 281.5104 
L 146.513182 274.5216 
L 146.708384 274.614372 
L 147.163857 274.706326 
L 147.35906 274.797474 
L 147.814533 274.887825 
L 148.009735 274.977391 
L 148.465208 275.066182 
L 148.660411 275.154207 
L 149.115884 275.241476 
L 149.311086 275.328 
L 149.766559 275.413787 
L 149.961762 275.498847 
L 150.417235 275.58319 
L 150.612437 275.666824 
L 151.06791 275.749757 
L 151.263113 275.832 
L 151.458316 275.872865 
L 151.555917 269.334486 
L 151.588451 269.388747 
L 151.978856 269.496595 
L 152.108991 276.034639 
L 152.53193 276.11453 
L 152.727133 276.193767 
L 153.182606 276.272358 
L 153.377808 276.350312 
L 153.833281 276.427636 
L 154.028484 276.504338 
L 154.483957 276.580425 
L 154.679159 276.655904 
L 155.134632 276.730783 
L 155.329835 276.805069 
L 155.947977 276.915402 
L 156.143179 276.988235 
L 156.533585 277.0605 
L 156.598652 270.918 
L 156.66372 270.965895 
L 157.086659 271.061126 
L 157.281861 271.155621 
L 157.737334 271.249387 
L 157.932537 271.342434 
L 158.322942 271.434769 
L 158.453077 277.482504 
L 159.038685 277.585002 
L 159.233888 277.652688 
L 159.85203 277.753263 
L 160.047232 277.819685 
L 160.665374 277.918391 
L 160.860577 277.983584 
L 161.478718 278.080472 
L 161.608854 278.11253 
L 161.641387 272.320707 
L 161.738989 272.363294 
L 162.129394 272.448 
L 162.324597 272.532088 
L 162.780069 272.615564 
L 162.975272 272.698435 
L 163.430745 272.780708 
L 163.625948 272.862388 
L 164.08142 272.943484 
L 164.276623 273.024 
L 164.667028 273.103943 
L 164.797163 278.729776 
L 165.382771 278.818601 
L 165.610508 278.877296 
L 166.196116 278.964567 
L 166.423852 279.022241 
L 166.684122 279.050927 
L 166.814258 273.610017 
L 167.172129 273.685851 
L 167.367332 273.761161 
L 167.822805 273.835952 
L 168.018007 273.91023 
L 168.636149 274.020696 
L 168.831352 274.093714 
L 169.449493 274.202315 
L 169.644696 274.274105 
L 170.262838 274.380886 
L 170.45804 274.451478 
L 171.011115 274.556486 
L 171.14125 279.815442 
L 171.759391 279.918891 
L 171.889527 274.729188 
L 172.084729 274.797474 
L 172.702871 274.899064 
L 172.898074 274.966238 
L 173.516215 275.066182 
L 173.711418 275.132272 
L 174.32956 275.230609 
L 174.524762 275.29564 
L 175.142904 275.392409 
L 175.338107 275.456408 
L 175.956248 275.551645 
L 176.151451 275.614635 
L 176.769593 275.708377 
L 176.83466 275.739429 
L 176.932262 270.802286 
L 176.964796 270.840978 
L 177.355201 270.918 
L 177.485336 275.862665 
L 178.070944 275.954087 
L 178.29868 276.014563 
L 178.884288 276.104579 
L 179.112025 276.164129 
L 179.697633 276.252771 
L 179.925369 276.311415 
L 180.510977 276.398713 
L 180.738713 276.456472 
L 181.324321 276.542458 
L 181.552058 276.599351 
L 181.942463 276.655904 
L 181.974997 271.94788 
L 182.072598 271.983067 
L 182.625672 272.088 
L 182.820875 272.157436 
L 183.439017 272.260821 
L 183.634219 272.329237 
L 183.699287 272.329237 
L 183.829422 276.988235 
L 184.577699 277.096421 
L 184.805435 277.150041 
L 185.553712 277.256348 
L 185.781449 277.30904 
L 186.529726 277.413517 
L 186.757462 277.465307 
L 187.017732 277.49109 
L 187.147867 273.024 
L 187.668408 273.119863 
L 187.86361 273.183319 
L 188.481752 273.277831 
L 188.676955 273.340394 
L 189.295096 273.433582 
L 189.490299 273.495273 
L 190.043373 273.587164 
L 190.173508 277.9917 
L 190.921785 278.088498 
L 191.149522 278.136497 
L 191.897798 278.231704 
L 192.125535 278.278917 
L 192.483406 278.325872 
L 192.548474 274.03534 
L 192.613542 274.064567 
L 193.199149 274.151772 
L 193.426886 274.209516 
L 194.012494 274.295547 
L 194.24023 274.352516 
L 194.825838 274.437398 
L 195.053575 274.493607 
L 195.639183 274.577362 
L 195.866919 274.632828 
L 196.387459 274.715477 
L 196.517595 278.891905 
L 197.42854 279.000661 
L 197.688811 279.043765 
L 198.567222 279.150545 
L 198.664824 279.171735 
L 198.729891 271.013603 
L 198.794959 271.045306 
L 199.380567 271.139923 
L 199.575769 271.202595 
L 200.193911 271.296 
L 200.389114 271.357872 
L 201.007256 271.450089 
L 201.202458 271.511177 
L 201.8206 271.602228 
L 202.048336 271.662545 
L 202.633944 271.752453 
L 202.731546 271.782271 
L 202.861681 275.758013 
L 203.609958 275.856539 
L 203.837694 275.905435 
L 204.585971 276.002498 
L 204.813707 276.05067 
L 205.561984 276.146303 
L 205.789721 276.193767 
L 206.537997 276.288 
L 206.765734 276.334772 
L 207.514011 276.427636 
L 207.741747 276.473732 
L 208.490024 276.565256 
L 208.71776 276.610689 
L 209.108166 276.655904 
L 209.238301 280.440344 
L 210.279382 280.547572 
L 210.572186 280.582976 
L 211.580733 280.688188 
L 211.873537 280.72293 
L 212.882084 280.826182 
L 213.174888 280.860279 
L 214.183435 280.961626 
L 214.476239 280.995097 
L 215.452252 281.09459 
L 215.582387 284.70528 
L 217.111474 284.815059 
L 217.50188 284.851157 
L 219.063501 284.958 
L 219.48644 284.993139 
L 221.015528 285.097163 
L 221.438467 285.131381 
L 222.284345 285.187913 
L 222.41448 288.628763 
L 224.919581 288.739159 
L 225.537722 288.768 
L 228.010289 288.873994 
L 228.693499 288.908586 
L 230.027383 288.963187 
L 230.157518 295.488 
L 398.487273 295.488 
L 398.487273 295.488 
" style="fill:none;stroke:#1f77b4;stroke-linecap:square;stroke-width:1.5;"/>
   </g>
   <g id="patch_3">
    <path d="M 57.6 307.584 
L 57.6 41.472 
" style="fill:none;stroke:#000000;stroke-linecap:square;stroke-linejoin:miter;stroke-width:0.8;"/>
   </g>
   <g id="patch_4">
    <path d="M 414.72 307.584 
L 414.72 41.472 
" style="fill:none;stroke:#000000;stroke-linecap:square;stroke-linejoin:miter;stroke-width:0.8;"/>
   </g>
   <g id="patch_5">
    <path d="M 57.6 307.584 
L 414.72 307.584 
" style="fill:none;stroke:#000000;stroke-linecap:square;stroke-linejoin:miter;stroke-width:0.8;"/>
   </g>
   <g id="patch_6">
    <path d="M 57.6 41.472 
L 414.72 41.472 
" style="fill:none;stroke:#000000;stroke-linecap:square;stroke-linejoin:miter;stroke-width:0.8;"/>
   </g>
  </g>
 </g>
 <defs>
  <clipPath id="pc0d5326952">
   <rect height="266.112" width="357.12" x="57.6" y="41.472"/>
  </clipPath>
 </defs>
</svg>
