<?xml version="1.0" encoding="utf-8" standalone="no"?>
<!DOCTYPE svg PUBLIC "-//W3C//DTD SVG 1.1//EN"
  "http://www.w3.org/Graphics/SVG/1.1/DTD/svg11.dtd">
<!-- Created with matplotlib (https://matplotlib.org/) -->
<svg height="345.6pt" version="1.1" viewBox="0 0 460.8 345.6" width="460.8pt" xmlns="http://www.w3.org/2000/svg" xmlns:xlink="http://www.w3.org/1999/xlink">
 <metadata>
  <rdf:RDF xmlns:cc="http://creativecommons.org/ns#" xmlns:dc="http://purl.org/dc/elements/1.1/" xmlns:rdf="http://www.w3.org/1999/02/22-rdf-syntax-ns#">
   <cc:Work>
    <dc:type rdf:resource="http://purl.org/dc/dcmitype/StillImage"/>
    <dc:date>2022-08-27T16:54:03.362048</dc:date>
    <dc:format>image/svg+xml</dc:format>
    <dc:creator>
     <cc:Agent>
      <dc:title>Matplotlib v3.3.4, https://matplotlib.org/</dc:title>
     </cc:Agent>
    </dc:creator>
   </cc:Work>
  </rdf:RDF>
 </metadata>
 <defs>
  <style type="text/css">*{stroke-linecap:butt;stroke-linejoin:round;}</style>
 </defs>
 <g id="figure_1">
  <g id="patch_1">
   <path d="M 0 345.6 
L 460.8 345.6 
L 460.8 0 
L 0 0 
z
" style="fill:#ffffff;"/>
  </g>
  <g id="axes_1">
   <g id="patch_2">
    <path d="M 57.6 307.584 
L 414.72 307.584 
L 414.72 41.472 
L 57.6 41.472 
z
" style="fill:#ffffff;"/>
   </g>
   <g id="matplotlib.axis_1">
    <g id="xtick_1">
     <g id="line2d_1">
      <path clip-path="url(#pe13b3407cc)" d="M 72.692445 307.584 
L 72.692445 41.472 
" style="fill:none;stroke:#b0b0b0;stroke-linecap:square;stroke-width:0.8;"/>
     </g>
     <g id="line2d_2">
      <defs>
       <path d="M 0 0 
L 0 3.5 
" id="mc049f54116" style="stroke:#000000;stroke-width:0.8;"/>
      </defs>
      <g>
       <use style="stroke:#000000;stroke-width:0.8;" x="72.692445" xlink:href="#mc049f54116" y="307.584"/>
      </g>
     </g>
     <g id="text_1">
      <!-- 0 -->
      <g transform="translate(69.511195 322.182437)scale(0.1 -0.1)">
       <defs>
        <path d="M 31.78125 3.421875 
Q 39.265625 3.421875 42.96875 11.625 
Q 46.6875 19.828125 46.6875 36.375 
Q 46.6875 52.984375 42.96875 61.1875 
Q 39.265625 69.390625 31.78125 69.390625 
Q 24.3125 69.390625 20.59375 61.1875 
Q 16.890625 52.984375 16.890625 36.375 
Q 16.890625 19.828125 20.59375 11.625 
Q 24.3125 3.421875 31.78125 3.421875 
z
M 31.78125 -1.421875 
Q 19.921875 -1.421875 13.25 8.53125 
Q 6.59375 18.5 6.59375 36.375 
Q 6.59375 54.296875 13.25 64.25 
Q 19.921875 74.21875 31.78125 74.21875 
Q 43.703125 74.21875 50.34375 64.25 
Q 56.984375 54.296875 56.984375 36.375 
Q 56.984375 18.5 50.34375 8.53125 
Q 43.703125 -1.421875 31.78125 -1.421875 
z
" id="DejaVuSerif-48"/>
       </defs>
       <use xlink:href="#DejaVuSerif-48"/>
      </g>
     </g>
    </g>
    <g id="xtick_2">
     <g id="line2d_3">
      <path clip-path="url(#pe13b3407cc)" d="M 126.991583 307.584 
L 126.991583 41.472 
" style="fill:none;stroke:#b0b0b0;stroke-linecap:square;stroke-width:0.8;"/>
     </g>
     <g id="line2d_4">
      <g>
       <use style="stroke:#000000;stroke-width:0.8;" x="126.991583" xlink:href="#mc049f54116" y="307.584"/>
      </g>
     </g>
     <g id="text_2">
      <!-- 100 -->
      <g transform="translate(117.447833 322.182437)scale(0.1 -0.1)">
       <defs>
        <path d="M 14.203125 0 
L 14.203125 5.171875 
L 26.90625 5.171875 
L 26.90625 65.828125 
L 12.203125 56.296875 
L 12.203125 62.703125 
L 29.984375 74.21875 
L 36.71875 74.21875 
L 36.71875 5.171875 
L 49.421875 5.171875 
L 49.421875 0 
z
" id="DejaVuSerif-49"/>
       </defs>
       <use xlink:href="#DejaVuSerif-49"/>
       <use x="63.623047" xlink:href="#DejaVuSerif-48"/>
       <use x="127.246094" xlink:href="#DejaVuSerif-48"/>
      </g>
     </g>
    </g>
    <g id="xtick_3">
     <g id="line2d_5">
      <path clip-path="url(#pe13b3407cc)" d="M 181.290721 307.584 
L 181.290721 41.472 
" style="fill:none;stroke:#b0b0b0;stroke-linecap:square;stroke-width:0.8;"/>
     </g>
     <g id="line2d_6">
      <g>
       <use style="stroke:#000000;stroke-width:0.8;" x="181.290721" xlink:href="#mc049f54116" y="307.584"/>
      </g>
     </g>
     <g id="text_3">
      <!-- 200 -->
      <g transform="translate(171.746971 322.182437)scale(0.1 -0.1)">
       <defs>
        <path d="M 12.796875 55.515625 
L 7.328125 55.515625 
L 7.328125 68.5 
Q 12.546875 71.296875 17.84375 72.75 
Q 23.140625 74.21875 28.21875 74.21875 
Q 39.59375 74.21875 46.1875 68.703125 
Q 52.78125 63.1875 52.78125 53.71875 
Q 52.78125 43.015625 37.84375 28.125 
Q 36.671875 27 36.078125 26.421875 
L 17.671875 8.015625 
L 48.09375 8.015625 
L 48.09375 17 
L 53.8125 17 
L 53.8125 0 
L 6.78125 0 
L 6.78125 5.328125 
L 28.90625 27.390625 
Q 36.234375 34.71875 39.359375 40.84375 
Q 42.484375 46.96875 42.484375 53.71875 
Q 42.484375 61.078125 38.640625 65.234375 
Q 34.8125 69.390625 28.078125 69.390625 
Q 21.09375 69.390625 17.28125 65.921875 
Q 13.484375 62.453125 12.796875 55.515625 
z
" id="DejaVuSerif-50"/>
       </defs>
       <use xlink:href="#DejaVuSerif-50"/>
       <use x="63.623047" xlink:href="#DejaVuSerif-48"/>
       <use x="127.246094" xlink:href="#DejaVuSerif-48"/>
      </g>
     </g>
    </g>
    <g id="xtick_4">
     <g id="line2d_7">
      <path clip-path="url(#pe13b3407cc)" d="M 235.589859 307.584 
L 235.589859 41.472 
" style="fill:none;stroke:#b0b0b0;stroke-linecap:square;stroke-width:0.8;"/>
     </g>
     <g id="line2d_8">
      <g>
       <use style="stroke:#000000;stroke-width:0.8;" x="235.589859" xlink:href="#mc049f54116" y="307.584"/>
      </g>
     </g>
     <g id="text_4">
      <!-- 300 -->
      <g transform="translate(226.046109 322.182437)scale(0.1 -0.1)">
       <defs>
        <path d="M 9.71875 69.828125 
Q 15.4375 71.96875 20.671875 73.09375 
Q 25.921875 74.21875 30.515625 74.21875 
Q 41.21875 74.21875 47.21875 69.59375 
Q 53.21875 64.984375 53.21875 56.78125 
Q 53.21875 50.203125 49.0625 45.78125 
Q 44.921875 41.359375 37.3125 39.796875 
Q 46.296875 38.53125 51.25 33.28125 
Q 56.203125 28.03125 56.203125 19.671875 
Q 56.203125 9.46875 49.34375 4.015625 
Q 42.484375 -1.421875 29.59375 -1.421875 
Q 23.875 -1.421875 18.421875 -0.1875 
Q 12.984375 1.03125 7.625 3.515625 
L 7.625 17.671875 
L 13.09375 17.671875 
Q 13.578125 10.640625 17.828125 7.03125 
Q 22.078125 3.421875 29.78125 3.421875 
Q 37.25 3.421875 41.578125 7.734375 
Q 45.90625 12.0625 45.90625 19.578125 
Q 45.90625 28.171875 41.453125 32.59375 
Q 37.015625 37.015625 28.421875 37.015625 
L 23.78125 37.015625 
L 23.78125 42 
L 26.21875 42 
Q 34.765625 42 39.03125 45.53125 
Q 43.3125 49.078125 43.3125 56.203125 
Q 43.3125 62.59375 39.796875 65.984375 
Q 36.28125 69.390625 29.6875 69.390625 
Q 23.09375 69.390625 19.453125 66.265625 
Q 15.828125 63.140625 15.1875 56.984375 
L 9.71875 56.984375 
z
" id="DejaVuSerif-51"/>
       </defs>
       <use xlink:href="#DejaVuSerif-51"/>
       <use x="63.623047" xlink:href="#DejaVuSerif-48"/>
       <use x="127.246094" xlink:href="#DejaVuSerif-48"/>
      </g>
     </g>
    </g>
    <g id="xtick_5">
     <g id="line2d_9">
      <path clip-path="url(#pe13b3407cc)" d="M 289.888997 307.584 
L 289.888997 41.472 
" style="fill:none;stroke:#b0b0b0;stroke-linecap:square;stroke-width:0.8;"/>
     </g>
     <g id="line2d_10">
      <g>
       <use style="stroke:#000000;stroke-width:0.8;" x="289.888997" xlink:href="#mc049f54116" y="307.584"/>
      </g>
     </g>
     <g id="text_5">
      <!-- 400 -->
      <g transform="translate(280.345247 322.182437)scale(0.1 -0.1)">
       <defs>
        <path d="M 34.90625 24.703125 
L 34.90625 63.484375 
L 10.015625 24.703125 
z
M 56.390625 0 
L 23.1875 0 
L 23.1875 5.171875 
L 34.90625 5.171875 
L 34.90625 19.484375 
L 3.078125 19.484375 
L 3.078125 24.8125 
L 35.015625 74.21875 
L 44.671875 74.21875 
L 44.671875 24.703125 
L 58.59375 24.703125 
L 58.59375 19.484375 
L 44.671875 19.484375 
L 44.671875 5.171875 
L 56.390625 5.171875 
z
" id="DejaVuSerif-52"/>
       </defs>
       <use xlink:href="#DejaVuSerif-52"/>
       <use x="63.623047" xlink:href="#DejaVuSerif-48"/>
       <use x="127.246094" xlink:href="#DejaVuSerif-48"/>
      </g>
     </g>
    </g>
    <g id="xtick_6">
     <g id="line2d_11">
      <path clip-path="url(#pe13b3407cc)" d="M 344.188135 307.584 
L 344.188135 41.472 
" style="fill:none;stroke:#b0b0b0;stroke-linecap:square;stroke-width:0.8;"/>
     </g>
     <g id="line2d_12">
      <g>
       <use style="stroke:#000000;stroke-width:0.8;" x="344.188135" xlink:href="#mc049f54116" y="307.584"/>
      </g>
     </g>
     <g id="text_6">
      <!-- 500 -->
      <g transform="translate(334.644385 322.182437)scale(0.1 -0.1)">
       <defs>
        <path d="M 50.296875 72.90625 
L 50.296875 64.890625 
L 16.890625 64.890625 
L 16.890625 44 
Q 19.4375 45.75 22.828125 46.625 
Q 26.21875 47.515625 30.421875 47.515625 
Q 42.234375 47.515625 49.0625 40.96875 
Q 55.90625 34.421875 55.90625 23.09375 
Q 55.90625 11.53125 49 5.046875 
Q 42.09375 -1.421875 29.59375 -1.421875 
Q 24.5625 -1.421875 19.28125 -0.1875 
Q 14.015625 1.03125 8.5 3.515625 
L 8.5 17.671875 
L 14.015625 17.671875 
Q 14.453125 10.75 18.421875 7.078125 
Q 22.40625 3.421875 29.59375 3.421875 
Q 37.3125 3.421875 41.453125 8.5 
Q 45.609375 13.578125 45.609375 23.09375 
Q 45.609375 32.5625 41.484375 37.609375 
Q 37.359375 42.671875 29.59375 42.671875 
Q 25.203125 42.671875 21.84375 41.109375 
Q 18.5 39.546875 15.921875 36.28125 
L 11.71875 36.28125 
L 11.71875 72.90625 
z
" id="DejaVuSerif-53"/>
       </defs>
       <use xlink:href="#DejaVuSerif-53"/>
       <use x="63.623047" xlink:href="#DejaVuSerif-48"/>
       <use x="127.246094" xlink:href="#DejaVuSerif-48"/>
      </g>
     </g>
    </g>
    <g id="xtick_7">
     <g id="line2d_13">
      <path clip-path="url(#pe13b3407cc)" d="M 398.487273 307.584 
L 398.487273 41.472 
" style="fill:none;stroke:#b0b0b0;stroke-linecap:square;stroke-width:0.8;"/>
     </g>
     <g id="line2d_14">
      <g>
       <use style="stroke:#000000;stroke-width:0.8;" x="398.487273" xlink:href="#mc049f54116" y="307.584"/>
      </g>
     </g>
     <g id="text_7">
      <!-- 600 -->
      <g transform="translate(388.943523 322.182437)scale(0.1 -0.1)">
       <defs>
        <path d="M 32.71875 3.421875 
Q 39.59375 3.421875 43.296875 8.46875 
Q 47.015625 13.53125 47.015625 23 
Q 47.015625 32.46875 43.296875 37.515625 
Q 39.59375 42.578125 32.71875 42.578125 
Q 25.734375 42.578125 22.0625 37.6875 
Q 18.40625 32.8125 18.40625 23.578125 
Q 18.40625 13.875 22.109375 8.640625 
Q 25.828125 3.421875 32.71875 3.421875 
z
M 16.796875 40.140625 
Q 20.125 43.796875 24.3125 45.59375 
Q 28.515625 47.40625 33.796875 47.40625 
Q 44.671875 47.40625 51 40.859375 
Q 57.328125 34.328125 57.328125 23 
Q 57.328125 11.921875 50.515625 5.25 
Q 43.703125 -1.421875 32.328125 -1.421875 
Q 19.96875 -1.421875 13.328125 7.78125 
Q 6.6875 17 6.6875 34.078125 
Q 6.6875 53.21875 14.546875 63.71875 
Q 22.40625 74.21875 36.71875 74.21875 
Q 40.578125 74.21875 44.828125 73.484375 
Q 49.078125 72.75 53.515625 71.296875 
L 53.515625 59.28125 
L 48 59.28125 
Q 47.40625 64.203125 44.234375 66.796875 
Q 41.0625 69.390625 35.6875 69.390625 
Q 26.21875 69.390625 21.578125 62.203125 
Q 16.9375 55.03125 16.796875 40.140625 
z
" id="DejaVuSerif-54"/>
       </defs>
       <use xlink:href="#DejaVuSerif-54"/>
       <use x="63.623047" xlink:href="#DejaVuSerif-48"/>
       <use x="127.246094" xlink:href="#DejaVuSerif-48"/>
      </g>
     </g>
    </g>
    <g id="text_8">
     <!-- Time -->
     <g transform="translate(223.524844 335.860562)scale(0.1 -0.1)">
      <defs>
       <path d="M 19.09375 0 
L 19.09375 5.171875 
L 28.421875 5.171875 
L 28.421875 67.09375 
L 6.984375 67.09375 
L 6.984375 55.71875 
L 0.984375 55.71875 
L 0.984375 72.90625 
L 65.71875 72.90625 
L 65.71875 55.71875 
L 59.71875 55.71875 
L 59.71875 67.09375 
L 38.28125 67.09375 
L 38.28125 5.171875 
L 47.609375 5.171875 
L 47.609375 0 
z
" id="DejaVuSerif-84"/>
       <path d="M 9.71875 68.015625 
Q 9.71875 70.265625 11.34375 71.921875 
Q 12.984375 73.578125 15.28125 73.578125 
Q 17.53125 73.578125 19.15625 71.921875 
Q 20.796875 70.265625 20.796875 68.015625 
Q 20.796875 65.71875 19.1875 64.109375 
Q 17.578125 62.5 15.28125 62.5 
Q 12.984375 62.5 11.34375 64.109375 
Q 9.71875 65.71875 9.71875 68.015625 
z
M 21.1875 5.171875 
L 29.6875 5.171875 
L 29.6875 0 
L 3.609375 0 
L 3.609375 5.171875 
L 12.203125 5.171875 
L 12.203125 46.6875 
L 3.609375 46.6875 
L 3.609375 51.90625 
L 21.1875 51.90625 
z
" id="DejaVuSerif-105"/>
       <path d="M 51.8125 41.796875 
Q 54.390625 47.515625 58.421875 50.421875 
Q 62.453125 53.328125 67.828125 53.328125 
Q 75.984375 53.328125 79.984375 48.265625 
Q 83.984375 43.21875 83.984375 33.015625 
L 83.984375 5.171875 
L 92.09375 5.171875 
L 92.09375 0 
L 67.1875 0 
L 67.1875 5.171875 
L 75 5.171875 
L 75 31.984375 
Q 75 39.9375 72.65625 43.3125 
Q 70.3125 46.6875 64.890625 46.6875 
Q 58.890625 46.6875 55.734375 42.140625 
Q 52.59375 37.59375 52.59375 28.90625 
L 52.59375 5.171875 
L 60.40625 5.171875 
L 60.40625 0 
L 35.796875 0 
L 35.796875 5.171875 
L 43.609375 5.171875 
L 43.609375 32.328125 
Q 43.609375 40.09375 41.265625 43.390625 
Q 38.921875 46.6875 33.5 46.6875 
Q 27.484375 46.6875 24.328125 42.140625 
Q 21.1875 37.59375 21.1875 28.90625 
L 21.1875 5.171875 
L 29 5.171875 
L 29 0 
L 4.109375 0 
L 4.109375 5.171875 
L 12.203125 5.171875 
L 12.203125 46.78125 
L 3.609375 46.78125 
L 3.609375 51.90625 
L 21.1875 51.90625 
L 21.1875 42.671875 
Q 23.6875 47.859375 27.53125 50.59375 
Q 31.390625 53.328125 36.28125 53.328125 
Q 42.328125 53.328125 46.375 50.3125 
Q 50.4375 47.3125 51.8125 41.796875 
z
" id="DejaVuSerif-109"/>
       <path d="M 54.203125 25 
L 15.484375 25 
L 15.484375 24.609375 
Q 15.484375 14.109375 19.4375 8.765625 
Q 23.390625 3.421875 31.109375 3.421875 
Q 37.015625 3.421875 40.796875 6.515625 
Q 44.578125 9.625 46.09375 15.71875 
L 53.328125 15.71875 
Q 51.171875 7.171875 45.375 2.875 
Q 39.59375 -1.421875 30.171875 -1.421875 
Q 18.796875 -1.421875 11.890625 6.078125 
Q 4.984375 13.578125 4.984375 25.984375 
Q 4.984375 38.28125 11.765625 45.796875 
Q 18.5625 53.328125 29.59375 53.328125 
Q 41.359375 53.328125 47.65625 46.0625 
Q 53.953125 38.8125 54.203125 25 
z
M 43.609375 30.171875 
Q 43.3125 39.265625 39.765625 43.875 
Q 36.234375 48.484375 29.59375 48.484375 
Q 23.390625 48.484375 19.828125 43.84375 
Q 16.265625 39.203125 15.484375 30.171875 
z
" id="DejaVuSerif-101"/>
      </defs>
      <use xlink:href="#DejaVuSerif-84"/>
      <use x="66.699219" xlink:href="#DejaVuSerif-105"/>
      <use x="98.681641" xlink:href="#DejaVuSerif-109"/>
      <use x="193.505859" xlink:href="#DejaVuSerif-101"/>
     </g>
    </g>
   </g>
   <g id="matplotlib.axis_2">
    <g id="ytick_1">
     <g id="line2d_15">
      <path clip-path="url(#pe13b3407cc)" d="M 57.6 292.8 
L 414.72 292.8 
" style="fill:none;stroke:#b0b0b0;stroke-linecap:square;stroke-width:0.8;"/>
     </g>
     <g id="line2d_16">
      <defs>
       <path d="M 0 0 
L -3.5 0 
" id="m03862b15d7" style="stroke:#000000;stroke-width:0.8;"/>
      </defs>
      <g>
       <use style="stroke:#000000;stroke-width:0.8;" x="57.6" xlink:href="#m03862b15d7" y="292.8"/>
      </g>
     </g>
     <g id="text_9">
      <!-- 0.0 -->
      <g transform="translate(34.696875 296.599219)scale(0.1 -0.1)">
       <defs>
        <path d="M 9.421875 5.078125 
Q 9.421875 7.8125 11.28125 9.71875 
Q 13.140625 11.625 15.921875 11.625 
Q 18.609375 11.625 20.5 9.71875 
Q 22.40625 7.8125 22.40625 5.078125 
Q 22.40625 2.390625 20.5 0.484375 
Q 18.609375 -1.421875 15.921875 -1.421875 
Q 13.140625 -1.421875 11.28125 0.453125 
Q 9.421875 2.34375 9.421875 5.078125 
z
" id="DejaVuSerif-46"/>
       </defs>
       <use xlink:href="#DejaVuSerif-48"/>
       <use x="63.623047" xlink:href="#DejaVuSerif-46"/>
       <use x="95.410156" xlink:href="#DejaVuSerif-48"/>
      </g>
     </g>
    </g>
    <g id="ytick_2">
     <g id="line2d_17">
      <path clip-path="url(#pe13b3407cc)" d="M 57.6 263.232 
L 414.72 263.232 
" style="fill:none;stroke:#b0b0b0;stroke-linecap:square;stroke-width:0.8;"/>
     </g>
     <g id="line2d_18">
      <g>
       <use style="stroke:#000000;stroke-width:0.8;" x="57.6" xlink:href="#m03862b15d7" y="263.232"/>
      </g>
     </g>
     <g id="text_10">
      <!-- 0.2 -->
      <g transform="translate(34.696875 267.031219)scale(0.1 -0.1)">
       <use xlink:href="#DejaVuSerif-48"/>
       <use x="63.623047" xlink:href="#DejaVuSerif-46"/>
       <use x="95.410156" xlink:href="#DejaVuSerif-50"/>
      </g>
     </g>
    </g>
    <g id="ytick_3">
     <g id="line2d_19">
      <path clip-path="url(#pe13b3407cc)" d="M 57.6 233.664 
L 414.72 233.664 
" style="fill:none;stroke:#b0b0b0;stroke-linecap:square;stroke-width:0.8;"/>
     </g>
     <g id="line2d_20">
      <g>
       <use style="stroke:#000000;stroke-width:0.8;" x="57.6" xlink:href="#m03862b15d7" y="233.664"/>
      </g>
     </g>
     <g id="text_11">
      <!-- 0.4 -->
      <g transform="translate(34.696875 237.463219)scale(0.1 -0.1)">
       <use xlink:href="#DejaVuSerif-48"/>
       <use x="63.623047" xlink:href="#DejaVuSerif-46"/>
       <use x="95.410156" xlink:href="#DejaVuSerif-52"/>
      </g>
     </g>
    </g>
    <g id="ytick_4">
     <g id="line2d_21">
      <path clip-path="url(#pe13b3407cc)" d="M 57.6 204.096 
L 414.72 204.096 
" style="fill:none;stroke:#b0b0b0;stroke-linecap:square;stroke-width:0.8;"/>
     </g>
     <g id="line2d_22">
      <g>
       <use style="stroke:#000000;stroke-width:0.8;" x="57.6" xlink:href="#m03862b15d7" y="204.096"/>
      </g>
     </g>
     <g id="text_12">
      <!-- 0.6 -->
      <g transform="translate(34.696875 207.895219)scale(0.1 -0.1)">
       <use xlink:href="#DejaVuSerif-48"/>
       <use x="63.623047" xlink:href="#DejaVuSerif-46"/>
       <use x="95.410156" xlink:href="#DejaVuSerif-54"/>
      </g>
     </g>
    </g>
    <g id="ytick_5">
     <g id="line2d_23">
      <path clip-path="url(#pe13b3407cc)" d="M 57.6 174.528 
L 414.72 174.528 
" style="fill:none;stroke:#b0b0b0;stroke-linecap:square;stroke-width:0.8;"/>
     </g>
     <g id="line2d_24">
      <g>
       <use style="stroke:#000000;stroke-width:0.8;" x="57.6" xlink:href="#m03862b15d7" y="174.528"/>
      </g>
     </g>
     <g id="text_13">
      <!-- 0.8 -->
      <g transform="translate(34.696875 178.327219)scale(0.1 -0.1)">
       <defs>
        <path d="M 46.578125 19.921875 
Q 46.578125 27.734375 42.6875 32.046875 
Q 38.8125 36.375 31.78125 36.375 
Q 24.75 36.375 20.875 32.046875 
Q 17 27.734375 17 19.921875 
Q 17 12.0625 20.875 7.734375 
Q 24.75 3.421875 31.78125 3.421875 
Q 38.8125 3.421875 42.6875 7.734375 
Q 46.578125 12.0625 46.578125 19.921875 
z
M 44.578125 55.328125 
Q 44.578125 61.96875 41.203125 65.671875 
Q 37.84375 69.390625 31.78125 69.390625 
Q 25.78125 69.390625 22.390625 65.671875 
Q 19 61.96875 19 55.328125 
Q 19 48.640625 22.390625 44.921875 
Q 25.78125 41.21875 31.78125 41.21875 
Q 37.84375 41.21875 41.203125 44.921875 
Q 44.578125 48.640625 44.578125 55.328125 
z
M 39.3125 38.8125 
Q 47.609375 37.703125 52.25 32.6875 
Q 56.890625 27.6875 56.890625 19.921875 
Q 56.890625 9.671875 50.390625 4.125 
Q 43.890625 -1.421875 31.78125 -1.421875 
Q 19.734375 -1.421875 13.203125 4.125 
Q 6.6875 9.671875 6.6875 19.921875 
Q 6.6875 27.6875 11.328125 32.6875 
Q 15.96875 37.703125 24.3125 38.8125 
Q 16.9375 40.140625 13 44.40625 
Q 9.078125 48.6875 9.078125 55.328125 
Q 9.078125 64.109375 15.125 69.15625 
Q 21.1875 74.21875 31.78125 74.21875 
Q 42.390625 74.21875 48.4375 69.15625 
Q 54.5 64.109375 54.5 55.328125 
Q 54.5 48.6875 50.5625 44.40625 
Q 46.625 40.140625 39.3125 38.8125 
z
" id="DejaVuSerif-56"/>
       </defs>
       <use xlink:href="#DejaVuSerif-48"/>
       <use x="63.623047" xlink:href="#DejaVuSerif-46"/>
       <use x="95.410156" xlink:href="#DejaVuSerif-56"/>
      </g>
     </g>
    </g>
    <g id="ytick_6">
     <g id="line2d_25">
      <path clip-path="url(#pe13b3407cc)" d="M 57.6 144.96 
L 414.72 144.96 
" style="fill:none;stroke:#b0b0b0;stroke-linecap:square;stroke-width:0.8;"/>
     </g>
     <g id="line2d_26">
      <g>
       <use style="stroke:#000000;stroke-width:0.8;" x="57.6" xlink:href="#m03862b15d7" y="144.96"/>
      </g>
     </g>
     <g id="text_14">
      <!-- 1.0 -->
      <g transform="translate(34.696875 148.759219)scale(0.1 -0.1)">
       <use xlink:href="#DejaVuSerif-49"/>
       <use x="63.623047" xlink:href="#DejaVuSerif-46"/>
       <use x="95.410156" xlink:href="#DejaVuSerif-48"/>
      </g>
     </g>
    </g>
    <g id="ytick_7">
     <g id="line2d_27">
      <path clip-path="url(#pe13b3407cc)" d="M 57.6 115.392 
L 414.72 115.392 
" style="fill:none;stroke:#b0b0b0;stroke-linecap:square;stroke-width:0.8;"/>
     </g>
     <g id="line2d_28">
      <g>
       <use style="stroke:#000000;stroke-width:0.8;" x="57.6" xlink:href="#m03862b15d7" y="115.392"/>
      </g>
     </g>
     <g id="text_15">
      <!-- 1.2 -->
      <g transform="translate(34.696875 119.191219)scale(0.1 -0.1)">
       <use xlink:href="#DejaVuSerif-49"/>
       <use x="63.623047" xlink:href="#DejaVuSerif-46"/>
       <use x="95.410156" xlink:href="#DejaVuSerif-50"/>
      </g>
     </g>
    </g>
    <g id="ytick_8">
     <g id="line2d_29">
      <path clip-path="url(#pe13b3407cc)" d="M 57.6 85.824 
L 414.72 85.824 
" style="fill:none;stroke:#b0b0b0;stroke-linecap:square;stroke-width:0.8;"/>
     </g>
     <g id="line2d_30">
      <g>
       <use style="stroke:#000000;stroke-width:0.8;" x="57.6" xlink:href="#m03862b15d7" y="85.824"/>
      </g>
     </g>
     <g id="text_16">
      <!-- 1.4 -->
      <g transform="translate(34.696875 89.623219)scale(0.1 -0.1)">
       <use xlink:href="#DejaVuSerif-49"/>
       <use x="63.623047" xlink:href="#DejaVuSerif-46"/>
       <use x="95.410156" xlink:href="#DejaVuSerif-52"/>
      </g>
     </g>
    </g>
    <g id="ytick_9">
     <g id="line2d_31">
      <path clip-path="url(#pe13b3407cc)" d="M 57.6 56.256 
L 414.72 56.256 
" style="fill:none;stroke:#b0b0b0;stroke-linecap:square;stroke-width:0.8;"/>
     </g>
     <g id="line2d_32">
      <g>
       <use style="stroke:#000000;stroke-width:0.8;" x="57.6" xlink:href="#m03862b15d7" y="56.256"/>
      </g>
     </g>
     <g id="text_17">
      <!-- 1.6 -->
      <g transform="translate(34.696875 60.055219)scale(0.1 -0.1)">
       <use xlink:href="#DejaVuSerif-49"/>
       <use x="63.623047" xlink:href="#DejaVuSerif-46"/>
       <use x="95.410156" xlink:href="#DejaVuSerif-54"/>
      </g>
     </g>
    </g>
    <g id="text_18">
     <!-- Speed -->
     <g transform="translate(28.617187 190.273313)rotate(-90)scale(0.1 -0.1)">
      <defs>
       <path d="M 9.28125 3.515625 
L 9.28125 20.125 
L 14.890625 20.0625 
Q 15.140625 11.765625 19.703125 7.78125 
Q 24.265625 3.8125 33.59375 3.8125 
Q 42.28125 3.8125 46.84375 7.25 
Q 51.421875 10.6875 51.421875 17.28125 
Q 51.421875 22.5625 48.65625 25.390625 
Q 45.90625 28.21875 37.015625 30.90625 
L 27.390625 33.796875 
Q 16.9375 36.96875 12.671875 41.703125 
Q 8.40625 46.4375 8.40625 54.6875 
Q 8.40625 63.96875 14.984375 69.09375 
Q 21.578125 74.21875 33.5 74.21875 
Q 38.578125 74.21875 44.625 73.109375 
Q 50.6875 72.015625 57.515625 69.921875 
L 57.515625 54.390625 
L 52 54.390625 
Q 51.171875 62.109375 46.84375 65.546875 
Q 42.53125 69 33.6875 69 
Q 25.984375 69 21.953125 65.84375 
Q 17.921875 62.703125 17.921875 56.6875 
Q 17.921875 51.46875 20.9375 48.484375 
Q 23.96875 45.515625 33.796875 42.578125 
L 42.828125 39.890625 
Q 52.734375 36.921875 56.953125 32.296875 
Q 61.1875 27.6875 61.1875 19.921875 
Q 61.1875 9.328125 54.390625 3.953125 
Q 47.609375 -1.421875 34.1875 -1.421875 
Q 28.171875 -1.421875 21.9375 -0.1875 
Q 15.71875 1.03125 9.28125 3.515625 
z
" id="DejaVuSerif-83"/>
       <path d="M 20.515625 28.515625 
L 20.515625 23.390625 
Q 20.515625 14.015625 24.09375 9.109375 
Q 27.6875 4.203125 34.515625 4.203125 
Q 41.40625 4.203125 44.9375 9.71875 
Q 48.484375 15.234375 48.484375 25.984375 
Q 48.484375 36.765625 44.9375 42.234375 
Q 41.40625 47.703125 34.515625 47.703125 
Q 27.6875 47.703125 24.09375 42.765625 
Q 20.515625 37.84375 20.515625 28.515625 
z
M 11.53125 46.6875 
L 2.875 46.6875 
L 2.875 51.90625 
L 20.515625 51.90625 
L 20.515625 43.796875 
Q 23.140625 48.6875 27.21875 51 
Q 31.296875 53.328125 37.3125 53.328125 
Q 46.875 53.328125 52.921875 45.75 
Q 58.984375 38.1875 58.984375 25.984375 
Q 58.984375 13.765625 52.921875 6.171875 
Q 46.875 -1.421875 37.3125 -1.421875 
Q 31.296875 -1.421875 27.21875 0.890625 
Q 23.140625 3.21875 20.515625 8.109375 
L 20.515625 -15.578125 
L 29 -15.578125 
L 29 -20.796875 
L 2.875 -20.796875 
L 2.875 -15.578125 
L 11.53125 -15.578125 
z
" id="DejaVuSerif-112"/>
       <path d="M 52.484375 5.171875 
L 61.078125 5.171875 
L 61.078125 0 
L 43.5 0 
L 43.5 8.109375 
Q 40.875 3.21875 36.796875 0.890625 
Q 32.71875 -1.421875 26.703125 -1.421875 
Q 17.140625 -1.421875 11.0625 6.171875 
Q 4.984375 13.765625 4.984375 25.984375 
Q 4.984375 38.1875 11.03125 45.75 
Q 17.09375 53.328125 26.703125 53.328125 
Q 32.71875 53.328125 36.796875 51 
Q 40.875 48.6875 43.5 43.796875 
L 43.5 70.796875 
L 35.015625 70.796875 
L 35.015625 75.984375 
L 52.484375 75.984375 
z
M 43.5 23.390625 
L 43.5 28.515625 
Q 43.5 37.84375 39.90625 42.765625 
Q 36.328125 47.703125 29.5 47.703125 
Q 22.5625 47.703125 19.015625 42.234375 
Q 15.484375 36.765625 15.484375 25.984375 
Q 15.484375 15.234375 19.015625 9.71875 
Q 22.5625 4.203125 29.5 4.203125 
Q 36.328125 4.203125 39.90625 9.109375 
Q 43.5 14.015625 43.5 23.390625 
z
" id="DejaVuSerif-100"/>
      </defs>
      <use xlink:href="#DejaVuSerif-83"/>
      <use x="68.505859" xlink:href="#DejaVuSerif-112"/>
      <use x="132.519531" xlink:href="#DejaVuSerif-101"/>
      <use x="191.699219" xlink:href="#DejaVuSerif-101"/>
      <use x="250.878906" xlink:href="#DejaVuSerif-100"/>
     </g>
    </g>
   </g>
   <g id="LineCollection_1">
    <path clip-path="url(#pe13b3407cc)" d="M 73.832727 292.8 
L 398.487273 292.8 
" style="fill:none;stroke:#696969;stroke-width:1.5;"/>
   </g>
   <g id="line2d_33">
    <path clip-path="url(#pe13b3407cc)" d="M 73.832727 292.8 
L 74.212821 292.8 
L 74.266775 -1 
M 74.323491 -1 
L 74.484317 46.4 
L 74.538616 46.4 
L 74.701513 292.8 
L 76.16759 292.8 
L 76.221889 169.6 
L 76.276188 179.076923 
L 76.493385 179.076923 
L 76.656282 187.2 
L 76.764881 187.2 
L 76.927778 194.24 
L 76.982077 194.24 
L 77.144975 292.8 
L 78.285257 292.8 
L 78.393855 218.88 
L 78.556752 222.4 
L 78.665351 222.4 
L 78.828248 225.6 
L 78.936846 225.6 
L 79.099744 228.521739 
L 79.208342 228.521739 
L 79.371239 231.2 
L 79.479838 231.2 
L 79.642735 233.664 
L 79.805632 292.8 
L 80.674419 292.8 
L 80.837316 241.82069 
L 81.000213 243.52 
L 81.108812 243.52 
L 81.271709 245.109677 
L 81.380307 245.109677 
L 81.543205 246.6 
L 81.651803 246.6 
L 81.814701 248 
L 81.923299 248 
L 82.086196 249.317647 
L 82.194795 249.317647 
L 82.357692 250.56 
L 82.46629 250.56 
L 82.629188 251.733333 
L 82.792085 292.8 
L 83.226478 292.8 
L 83.280777 253.894737 
L 83.389376 254.892308 
L 83.552273 254.892308 
L 83.71517 255.84 
L 83.823769 255.84 
L 83.986666 256.741463 
L 84.095264 256.741463 
L 84.258162 257.6 
L 84.36676 257.6 
L 84.529657 258.418605 
L 84.638256 258.418605 
L 84.801153 259.2 
L 84.909751 259.2 
L 85.072649 259.946667 
L 85.181247 259.946667 
L 85.344145 260.66087 
L 85.452743 260.66087 
L 85.61564 261.344681 
L 85.724238 261.344681 
L 85.832837 262 
L 85.995734 292.8 
L 86.158632 262.628571 
L 86.26723 262.628571 
L 86.430127 263.232 
L 86.538726 263.232 
L 86.701623 263.811765 
L 86.810221 263.811765 
L 86.973119 264.369231 
L 87.081717 264.369231 
L 87.244614 264.90566 
L 87.353213 264.90566 
L 87.51611 265.422222 
L 87.624708 265.422222 
L 87.787606 265.92 
L 87.896204 265.92 
L 88.059101 266.4 
L 88.1677 266.4 
L 88.330597 266.863158 
L 88.439195 266.863158 
L 88.602093 267.310345 
L 88.710691 267.310345 
L 88.873588 267.742373 
L 88.927888 267.742373 
L 88.982187 242.684746 
L 89.090785 243.52 
L 89.253682 243.52 
L 89.307982 244.327869 
L 89.470879 268.563934 
L 89.525178 268.563934 
L 89.688076 268.954839 
L 89.796674 268.954839 
L 89.959571 269.333333 
L 90.06817 269.333333 
L 90.231067 269.7 
L 90.339665 269.7 
L 90.502563 270.055385 
L 90.611161 270.055385 
L 90.774058 270.4 
L 90.882657 270.4 
L 91.045554 270.734328 
L 91.154152 270.734328 
L 91.31705 271.058824 
L 91.425648 271.058824 
L 91.588545 271.373913 
L 91.697144 271.373913 
L 91.860041 271.68 
L 91.968639 271.68 
L 92.077238 271.977465 
L 92.240135 251.15493 
L 92.403032 251.733333 
L 92.511631 251.733333 
L 92.674528 252.29589 
L 92.783126 252.29589 
L 92.946024 252.843243 
L 93.108921 273.088 
L 93.326118 273.088 
L 93.489015 273.347368 
L 93.597613 273.347368 
L 93.760511 273.6 
L 93.869109 273.6 
L 94.032007 273.846154 
L 94.140605 273.846154 
L 94.303502 274.086076 
L 94.412101 274.086076 
L 94.574998 274.32 
L 94.683596 274.32 
L 94.846494 274.548148 
L 94.955092 274.548148 
L 95.117989 274.770732 
L 95.226588 274.770732 
L 95.389485 274.987952 
L 95.498083 257.175904 
L 95.552382 257.6 
L 95.769579 257.6 
L 95.932476 258.014118 
L 96.041075 258.014118 
L 96.203972 258.418605 
L 96.31257 258.418605 
L 96.475468 258.813793 
L 96.584066 258.813793 
L 96.746963 259.2 
L 96.855562 259.2 
L 96.909861 259.577528 
L 97.072758 276.188764 
L 97.127057 276.188764 
L 97.289955 276.373333 
L 97.398553 276.373333 
L 97.561451 276.553846 
L 97.670049 276.553846 
L 97.832946 276.730435 
L 97.941544 276.730435 
L 98.104442 276.903226 
L 98.21304 276.903226 
L 98.375938 277.07234 
L 98.484536 277.07234 
L 98.647433 277.237895 
L 98.756032 277.237895 
L 98.918929 277.4 
L 99.027527 262 
L 99.081826 262.317526 
L 99.299023 262.317526 
L 99.46192 262.628571 
L 99.570519 262.628571 
L 99.733416 262.933333 
L 99.842014 262.933333 
L 100.004912 263.232 
L 100.11351 263.232 
L 100.276407 263.524752 
L 100.385006 263.524752 
L 100.547903 263.811765 
L 100.656501 263.811765 
L 100.819399 264.093204 
L 100.927997 264.093204 
L 101.036595 264.369231 
L 101.199493 278.584615 
L 101.36239 278.72 
L 101.470988 278.72 
L 101.633886 278.85283 
L 101.742484 278.85283 
L 101.905382 278.983178 
L 102.01398 278.983178 
L 102.176877 279.111111 
L 102.285476 279.111111 
L 102.448373 279.236697 
L 102.556971 279.236697 
L 102.61127 279.36 
L 102.774168 265.92 
L 102.828467 265.92 
L 102.991364 266.162162 
L 103.099963 266.162162 
L 103.26286 266.4 
L 103.371458 266.4 
L 103.534356 266.633628 
L 103.642954 266.633628 
L 103.805851 266.863158 
L 103.91445 266.863158 
L 104.077347 267.088696 
L 104.185945 267.088696 
L 104.348843 267.310345 
L 104.457441 267.310345 
L 104.620338 267.528205 
L 104.728937 267.528205 
L 104.891834 267.742373 
L 105.000432 267.742373 
L 105.16333 267.952941 
L 105.271928 267.952941 
L 105.434826 268.16 
L 105.597723 280.581818 
L 106.086415 280.681967 
L 106.249313 280.780488 
L 106.466509 280.877419 
L 106.629407 268.954839 
L 106.792304 269.1456 
L 106.900902 269.1456 
L 107.0638 269.333333 
L 107.172398 269.333333 
L 107.335295 269.51811 
L 107.443894 269.51811 
L 107.606791 269.7 
L 107.715389 269.7 
L 107.878287 269.87907 
L 107.986885 269.87907 
L 108.149782 270.055385 
L 108.258381 270.055385 
L 108.421278 270.229008 
L 108.529876 270.229008 
L 108.692774 270.4 
L 108.801372 270.4 
L 108.964269 270.568421 
L 109.072868 270.568421 
L 109.235765 270.734328 
L 109.344363 270.734328 
L 109.507261 270.897778 
L 109.615859 270.897778 
L 109.778757 271.058824 
L 109.887355 271.058824 
L 110.050252 271.217518 
L 110.21315 282.086957 
L 110.484645 282.164029 
L 110.647543 271.528058 
L 110.701842 271.528058 
L 110.864739 271.68 
L 110.973338 271.68 
L 111.136235 271.829787 
L 111.244833 271.829787 
L 111.407731 271.977465 
L 111.516329 271.977465 
L 111.679226 272.123077 
L 111.787825 272.123077 
L 111.950722 272.266667 
L 112.05932 272.266667 
L 112.222218 272.408276 
L 112.330816 272.408276 
L 112.493713 272.547945 
L 112.602312 272.547945 
L 112.765209 272.685714 
L 112.873807 272.685714 
L 113.036705 272.821622 
L 113.145303 272.821622 
L 113.308201 272.955705 
L 113.416799 272.955705 
L 113.579696 273.088 
L 113.688294 273.088 
L 113.851192 273.218543 
L 113.95979 273.218543 
L 114.122688 273.347368 
L 114.231286 273.347368 
L 114.394183 273.47451 
L 114.502782 273.47451 
L 114.665679 273.6 
L 114.719978 273.6 
L 114.774277 264 
L 114.882876 264.185806 
L 115.045773 273.723871 
L 115.20867 273.846154 
L 115.317269 273.846154 
L 115.480166 273.966879 
L 115.588764 273.966879 
L 115.751662 274.086076 
L 115.86026 274.086076 
L 116.023157 274.203774 
L 116.131756 274.203774 
L 116.294653 274.32 
L 116.403251 274.32 
L 116.566149 274.434783 
L 116.674747 274.434783 
L 116.837644 274.548148 
L 116.946243 274.548148 
L 117.10914 274.660123 
L 117.489234 274.770732 
L 117.652132 274.88 
L 118.032226 274.987952 
L 118.195123 275.094611 
L 118.575217 275.2 
L 118.738114 275.304142 
L 119.118208 275.407059 
L 119.281106 266.863158 
L 119.389704 266.863158 
L 119.552601 267.013953 
L 119.6612 267.013953 
L 119.824097 267.163006 
L 119.878396 267.163006 
L 120.041294 275.806897 
L 120.475687 275.904 
L 120.638584 276 
L 121.018678 276.094915 
L 121.181576 276.188764 
L 121.561669 276.281564 
L 121.724567 276.373333 
L 122.104661 276.464088 
L 122.267558 276.553846 
L 122.647652 276.642623 
L 122.81055 276.730435 
L 123.190644 276.817297 
L 123.353541 276.903226 
L 123.733635 276.988235 
L 123.896532 269.208511 
L 124.005131 269.208511 
L 124.168028 269.333333 
L 124.276626 269.333333 
L 124.439524 269.456842 
L 124.548122 269.456842 
L 124.711019 269.579058 
L 124.819618 269.579058 
L 124.982515 269.7 
L 125.091113 269.7 
L 125.199712 269.819689 
L 125.362609 277.479793 
L 125.525507 277.558763 
L 125.905601 277.636923 
L 126.068498 277.714286 
L 126.448592 277.790863 
L 126.611489 277.866667 
L 126.991583 277.941709 
L 127.154481 278.016 
L 127.534575 278.089552 
L 127.697472 278.162376 
L 128.077566 278.234483 
L 128.240463 278.305882 
L 128.511959 278.376585 
L 128.620557 271.164878 
L 128.674857 271.269903 
L 129.163549 271.373913 
L 129.326446 271.476923 
L 129.70654 271.578947 
L 129.869438 271.68 
L 130.249532 271.780095 
L 130.412429 271.879245 
L 130.683925 271.977465 
L 130.846822 278.983178 
L 131.335514 279.047442 
L 131.498412 279.111111 
L 131.878506 279.174194 
L 132.041403 279.236697 
L 132.421497 279.29863 
L 132.584394 279.36 
L 132.964488 279.420814 
L 133.127386 279.481081 
L 133.453181 279.540807 
L 133.50748 272.911211 
L 133.616078 273 
L 134.050471 273.088 
L 134.213369 273.175221 
L 134.593463 273.261674 
L 134.75636 273.347368 
L 135.136454 273.432314 
L 135.299351 273.516522 
L 135.679445 273.6 
L 135.842343 273.682759 
L 136.222437 273.764807 
L 136.385334 273.846154 
L 136.439633 273.846154 
L 136.602531 280.217872 
L 137.308419 280.324051 
L 137.471317 280.376471 
L 138.122907 280.48 
L 138.285804 280.53112 
L 138.5573 280.581818 
L 138.665898 274.472727 
L 138.720197 274.548148 
L 139.208889 274.622951 
L 139.371787 274.697143 
L 139.751881 274.770732 
L 139.914778 274.843725 
L 140.294872 274.916129 
L 140.457769 274.987952 
L 140.837863 275.0592 
L 141.000761 275.12988 
L 141.380855 275.2 
L 141.543752 275.269565 
L 141.923846 275.338583 
L 142.086744 275.407059 
L 142.412538 275.475 
L 142.575436 281.294942 
L 143.281325 281.383784 
L 143.498521 281.427692 
L 143.878615 281.514504 
L 144.041513 275.871756 
L 144.367307 275.936122 
L 144.530205 276 
L 144.910299 276.063396 
L 145.073196 276.126316 
L 145.45329 276.188764 
L 145.616188 276.250746 
L 145.996282 276.312268 
L 146.159179 276.373333 
L 146.539273 276.433948 
L 146.70217 276.494118 
L 147.082264 276.553846 
L 147.245162 276.613139 
L 147.625256 276.672 
L 147.788153 276.730435 
L 148.168247 276.788448 
L 148.331144 276.846043 
L 148.60264 276.903226 
L 148.765538 282.24 
L 149.362828 282.314894 
L 149.525725 277.07234 
L 149.688623 277.127915 
L 150.340213 277.237895 
L 150.50311 277.292308 
L 151.1547 277.4 
L 151.317597 277.453287 
L 151.969187 277.558763 
L 152.132084 277.610959 
L 152.783674 277.714286 
L 152.946571 277.765424 
L 153.598161 277.866667 
L 153.815357 277.916779 
L 154.412648 278.016 
L 154.629844 278.065116 
L 155.227135 278.162376 
L 155.444332 278.210526 
L 156.041622 278.305882 
L 156.258819 278.353094 
L 156.856109 278.446602 
L 157.073306 278.492903 
L 157.670596 278.584615 
L 157.887793 278.630032 
L 158.485083 278.72 
L 158.70228 278.764557 
L 159.29957 278.85283 
L 159.516767 278.896552 
L 160.114057 278.983178 
L 160.331254 279.026087 
L 160.819946 279.111111 
L 160.928544 274.548148 
L 160.982844 274.604308 
L 161.471536 274.660123 
L 161.634433 274.715596 
L 161.797331 279.278049 
L 162.557519 279.36 
L 162.774715 279.400604 
L 163.372006 279.481081 
L 163.589202 279.520958 
L 164.186493 279.6 
L 164.403689 279.639169 
L 165.00098 279.716814 
L 165.218176 279.755294 
L 165.815467 279.831579 
L 166.032663 279.869388 
L 166.629954 279.944348 
L 166.792851 279.981503 
L 166.90145 275.708671 
L 166.955749 275.757925 
L 167.715937 275.855587 
L 167.933133 275.904 
L 168.476125 276 
L 168.639022 280.235694 
L 169.616407 280.341573 
L 169.833603 280.376471 
L 170.702389 280.48 
L 170.919586 280.514127 
L 171.788372 280.615385 
L 172.005569 280.648767 
L 172.874355 280.747826 
L 172.928654 280.780488 
L 173.091551 276.773984 
L 173.688842 276.860377 
L 173.906038 276.903226 
L 174.503329 276.988235 
L 174.720525 277.0304 
L 175.317816 277.114058 
L 175.535013 277.155556 
L 175.69791 281.097625 
L 176.675294 281.189529 
L 177.001089 281.25 
L 178.032773 281.339535 
L 178.358568 281.398458 
L 179.227354 281.485714 
L 179.390251 277.714286 
L 179.607448 277.752672 
L 180.204738 277.828861 
L 180.421935 277.866667 
L 181.019225 277.941709 
L 181.236422 277.978947 
L 182.105208 278.089552 
L 182.322405 278.126055 
L 182.811097 278.198519 
L 182.973994 281.875862 
L 184.277174 281.982439 
L 184.602969 282.034951 
L 185.634652 282.112771 
L 185.79755 278.584615 
L 186.720635 278.686396 
L 186.937832 278.72 
L 187.806618 278.819858 
L 188.023814 278.85283 
L 188.8926 278.95082 
L 189.109797 278.983178 
L 189.978583 279.07935 
L 190.304378 279.142725 
L 190.467275 282.557044 
L 191.607557 282.650801 
L 191.987651 282.697039 
L 192.150549 282.697039 
L 192.313446 279.36 
L 193.236531 279.451016 
L 193.562326 279.511011 
L 194.59401 279.6 
L 194.919805 279.658667 
L 195.951488 279.745695 
L 196.277283 279.803077 
L 197.308967 279.88821 
L 197.634762 279.944348 
L 197.960556 279.972234 
L 198.123454 283.179176 
L 198.503548 283.220734 
L 198.829343 283.241379 
L 198.937941 280.055172 
L 198.99224 280.082581 
L 200.295419 280.191045 
L 200.621214 280.244586 
L 201.924394 280.350316 
L 202.250188 280.402516 
L 203.553368 280.505613 
L 203.879163 280.556522 
L 205.182342 280.657084 
L 205.508137 280.706748 
L 205.616735 280.706748 
L 205.725333 277.683436 
L 205.779632 277.714286 
L 205.833931 277.714286 
L 205.996829 280.731429 
L 206.322624 280.780488 
L 207.625803 280.877419 
L 208.005897 280.925301 
L 209.254777 281.01992 
L 209.634871 281.066667 
L 210.883751 281.159055 
L 211.263845 281.204706 
L 212.512725 281.294942 
L 212.675623 278.446602 
L 213.815905 278.557225 
L 213.978802 281.427692 
L 215.499178 281.536 
L 215.879272 281.578748 
L 217.399648 281.684211 
L 217.779742 281.725843 
L 219.300118 281.828571 
L 219.463015 281.848889 
L 219.571613 279.111111 
L 219.625913 279.136414 
L 220.929092 279.236697 
L 221.254887 279.286289 
L 221.960775 279.335519 
L 222.123673 282.048 
L 223.644049 282.144865 
L 224.078442 282.183124 
L 225.544519 282.27758 
L 225.978912 282.314894 
L 226.576202 282.351943 
L 226.630501 279.739929 
L 226.7391 279.762963 
L 227.98798 279.854291 
L 228.368074 279.899476 
L 229.616954 279.988908 
L 229.997048 280.033161 
L 230.322843 280.055172 
L 230.48574 282.621687 
L 232.331911 282.725724 
L 232.766304 282.759932 
L 233.743688 282.827656 
L 233.906586 280.33457 
L 235.318363 280.438796 
L 235.698457 280.48 
L 237.218833 280.581818 
L 237.598927 280.622076 
L 238.793508 280.7018 
L 238.956406 283.137255 
L 240.965474 283.246527 
L 241.019773 280.858158 
L 241.128371 280.877419 
L 242.648747 280.9728 
L 243.08314 281.010526 
L 244.549217 281.103797 
L 244.98361 281.140694 
L 246.721182 281.25 
L 247.155575 281.285981 
L 247.427071 281.303888 
L 247.589969 283.617391 
L 248.295857 283.64582 
L 248.350156 281.357276 
L 248.458755 281.374961 
L 250.250626 281.479939 
L 250.685019 281.514504 
L 252.422592 281.616944 
L 252.856985 281.650679 
L 254.594557 281.750673 
L 255.08325 281.783607 
L 255.68054 281.816345 
L 255.843437 279.639169 
L 256.114933 279.658667 
L 256.277831 281.865089 
L 258.124001 281.96129 
L 258.612694 281.992982 
L 260.567462 282.10246 
L 261.056155 282.133333 
L 263.010924 282.24 
L 263.119522 282.255064 
L 263.282419 280.146077 
L 263.716812 280.182077 
L 265.019992 280.271186 
L 265.182889 282.359322 
L 265.671581 282.388732 
L 267.62635 282.490377 
L 268.169342 282.519054 
L 268.766632 282.561773 
L 270.612803 282.646154 
L 270.7757 280.632099 
L 272.513273 280.731429 
L 273.001965 280.764179 
L 273.97935 280.82915 
L 274.142247 282.824291 
L 274.739537 282.864516 
L 277.1287 282.970213 
L 277.72599 283.009272 
L 278.703375 283.048021 
L 278.757674 281.097625 
L 278.866272 281.113043 
L 280.929639 281.219843 
L 281.418331 281.25 
L 282.993006 281.339535 
L 283.155904 283.261935 
L 285.816562 283.371429 
L 286.468151 283.40737 
L 287.82563 283.466667 
L 287.988527 281.6 
L 288.585818 281.642264 
L 290.703484 281.739651 
L 291.300775 281.78087 
L 292.169561 281.821782 
L 292.332458 283.651485 
L 293.038347 283.685327 
L 295.861902 283.796346 
L 296.567791 283.829126 
L 299.391346 283.936691 
L 300.097235 283.968459 
L 301.400414 284.020903 
L 301.563312 285.776722 
L 302.486397 285.809929 
L 306.178738 285.915716 
L 307.156123 285.947625 
L 310.685567 286.049315 
L 310.848464 287.742759 
L 316.224079 287.85 
L 317.635856 287.882927 
L 320.079318 287.931504 
L 320.242215 289.554336 
L 328.984376 289.664475 
L 330.178957 289.681013 
L 330.341855 291.240506 
L 334.902982 291.267979 
L 341.581776 291.306667 
L 341.744674 292.8 
L 398.487273 292.8 
L 398.487273 292.8 
" style="fill:none;stroke:#1f77b4;stroke-linecap:square;stroke-width:1.5;"/>
   </g>
   <g id="patch_3">
    <path d="M 57.6 307.584 
L 57.6 41.472 
" style="fill:none;stroke:#000000;stroke-linecap:square;stroke-linejoin:miter;stroke-width:0.8;"/>
   </g>
   <g id="patch_4">
    <path d="M 414.72 307.584 
L 414.72 41.472 
" style="fill:none;stroke:#000000;stroke-linecap:square;stroke-linejoin:miter;stroke-width:0.8;"/>
   </g>
   <g id="patch_5">
    <path d="M 57.6 307.584 
L 414.72 307.584 
" style="fill:none;stroke:#000000;stroke-linecap:square;stroke-linejoin:miter;stroke-width:0.8;"/>
   </g>
   <g id="patch_6">
    <path d="M 57.6 41.472 
L 414.72 41.472 
" style="fill:none;stroke:#000000;stroke-linecap:square;stroke-linejoin:miter;stroke-width:0.8;"/>
   </g>
  </g>
 </g>
 <defs>
  <clipPath id="pe13b3407cc">
   <rect height="266.112" width="357.12" x="57.6" y="41.472"/>
  </clipPath>
 </defs>
</svg>
