<?xml version="1.0" encoding="utf-8" standalone="no"?>
<!DOCTYPE svg PUBLIC "-//W3C//DTD SVG 1.1//EN"
  "http://www.w3.org/Graphics/SVG/1.1/DTD/svg11.dtd">
<!-- Created with matplotlib (https://matplotlib.org/) -->
<svg height="345.6pt" version="1.1" viewBox="0 0 460.8 345.6" width="460.8pt" xmlns="http://www.w3.org/2000/svg" xmlns:xlink="http://www.w3.org/1999/xlink">
 <metadata>
  <rdf:RDF xmlns:cc="http://creativecommons.org/ns#" xmlns:dc="http://purl.org/dc/elements/1.1/" xmlns:rdf="http://www.w3.org/1999/02/22-rdf-syntax-ns#">
   <cc:Work>
    <dc:type rdf:resource="http://purl.org/dc/dcmitype/StillImage"/>
    <dc:date>2022-08-18T17:06:38.252674</dc:date>
    <dc:format>image/svg+xml</dc:format>
    <dc:creator>
     <cc:Agent>
      <dc:title>Matplotlib v3.3.4, https://matplotlib.org/</dc:title>
     </cc:Agent>
    </dc:creator>
   </cc:Work>
  </rdf:RDF>
 </metadata>
 <defs>
  <style type="text/css">*{stroke-linecap:butt;stroke-linejoin:round;}</style>
 </defs>
 <g id="figure_1">
  <g id="patch_1">
   <path d="M 0 345.6 
L 460.8 345.6 
L 460.8 0 
L 0 0 
z
" style="fill:#ffffff;"/>
  </g>
  <g id="axes_1">
   <g id="patch_2">
    <path d="M 57.6 307.584 
L 414.72 307.584 
L 414.72 41.472 
L 57.6 41.472 
z
" style="fill:#ffffff;"/>
   </g>
   <g id="matplotlib.axis_1">
    <g id="xtick_1">
     <g id="line2d_1">
      <path clip-path="url(#pccbff3e99d)" d="M 70.00038 307.584 
L 70.00038 41.472 
" style="fill:none;stroke:#b0b0b0;stroke-linecap:square;stroke-width:0.8;"/>
     </g>
     <g id="line2d_2">
      <defs>
       <path d="M 0 0 
L 0 3.5 
" id="mad999b3e75" style="stroke:#000000;stroke-width:0.8;"/>
      </defs>
      <g>
       <use style="stroke:#000000;stroke-width:0.8;" x="70.00038" xlink:href="#mad999b3e75" y="307.584"/>
      </g>
     </g>
     <g id="text_1">
      <!-- 0 -->
      <g transform="translate(66.81913 322.182437)scale(0.1 -0.1)">
       <defs>
        <path d="M 31.78125 3.421875 
Q 39.265625 3.421875 42.96875 11.625 
Q 46.6875 19.828125 46.6875 36.375 
Q 46.6875 52.984375 42.96875 61.1875 
Q 39.265625 69.390625 31.78125 69.390625 
Q 24.3125 69.390625 20.59375 61.1875 
Q 16.890625 52.984375 16.890625 36.375 
Q 16.890625 19.828125 20.59375 11.625 
Q 24.3125 3.421875 31.78125 3.421875 
z
M 31.78125 -1.421875 
Q 19.921875 -1.421875 13.25 8.53125 
Q 6.59375 18.5 6.59375 36.375 
Q 6.59375 54.296875 13.25 64.25 
Q 19.921875 74.21875 31.78125 74.21875 
Q 43.703125 74.21875 50.34375 64.25 
Q 56.984375 54.296875 56.984375 36.375 
Q 56.984375 18.5 50.34375 8.53125 
Q 43.703125 -1.421875 31.78125 -1.421875 
z
" id="DejaVuSerif-48"/>
       </defs>
       <use xlink:href="#DejaVuSerif-48"/>
      </g>
     </g>
    </g>
    <g id="xtick_2">
     <g id="line2d_3">
      <path clip-path="url(#pccbff3e99d)" d="M 124.748196 307.584 
L 124.748196 41.472 
" style="fill:none;stroke:#b0b0b0;stroke-linecap:square;stroke-width:0.8;"/>
     </g>
     <g id="line2d_4">
      <g>
       <use style="stroke:#000000;stroke-width:0.8;" x="124.748196" xlink:href="#mad999b3e75" y="307.584"/>
      </g>
     </g>
     <g id="text_2">
      <!-- 50 -->
      <g transform="translate(118.385696 322.182437)scale(0.1 -0.1)">
       <defs>
        <path d="M 50.296875 72.90625 
L 50.296875 64.890625 
L 16.890625 64.890625 
L 16.890625 44 
Q 19.4375 45.75 22.828125 46.625 
Q 26.21875 47.515625 30.421875 47.515625 
Q 42.234375 47.515625 49.0625 40.96875 
Q 55.90625 34.421875 55.90625 23.09375 
Q 55.90625 11.53125 49 5.046875 
Q 42.09375 -1.421875 29.59375 -1.421875 
Q 24.5625 -1.421875 19.28125 -0.1875 
Q 14.015625 1.03125 8.5 3.515625 
L 8.5 17.671875 
L 14.015625 17.671875 
Q 14.453125 10.75 18.421875 7.078125 
Q 22.40625 3.421875 29.59375 3.421875 
Q 37.3125 3.421875 41.453125 8.5 
Q 45.609375 13.578125 45.609375 23.09375 
Q 45.609375 32.5625 41.484375 37.609375 
Q 37.359375 42.671875 29.59375 42.671875 
Q 25.203125 42.671875 21.84375 41.109375 
Q 18.5 39.546875 15.921875 36.28125 
L 11.71875 36.28125 
L 11.71875 72.90625 
z
" id="DejaVuSerif-53"/>
       </defs>
       <use xlink:href="#DejaVuSerif-53"/>
       <use x="63.623047" xlink:href="#DejaVuSerif-48"/>
      </g>
     </g>
    </g>
    <g id="xtick_3">
     <g id="line2d_5">
      <path clip-path="url(#pccbff3e99d)" d="M 179.496011 307.584 
L 179.496011 41.472 
" style="fill:none;stroke:#b0b0b0;stroke-linecap:square;stroke-width:0.8;"/>
     </g>
     <g id="line2d_6">
      <g>
       <use style="stroke:#000000;stroke-width:0.8;" x="179.496011" xlink:href="#mad999b3e75" y="307.584"/>
      </g>
     </g>
     <g id="text_3">
      <!-- 100 -->
      <g transform="translate(169.952261 322.182437)scale(0.1 -0.1)">
       <defs>
        <path d="M 14.203125 0 
L 14.203125 5.171875 
L 26.90625 5.171875 
L 26.90625 65.828125 
L 12.203125 56.296875 
L 12.203125 62.703125 
L 29.984375 74.21875 
L 36.71875 74.21875 
L 36.71875 5.171875 
L 49.421875 5.171875 
L 49.421875 0 
z
" id="DejaVuSerif-49"/>
       </defs>
       <use xlink:href="#DejaVuSerif-49"/>
       <use x="63.623047" xlink:href="#DejaVuSerif-48"/>
       <use x="127.246094" xlink:href="#DejaVuSerif-48"/>
      </g>
     </g>
    </g>
    <g id="xtick_4">
     <g id="line2d_7">
      <path clip-path="url(#pccbff3e99d)" d="M 234.243826 307.584 
L 234.243826 41.472 
" style="fill:none;stroke:#b0b0b0;stroke-linecap:square;stroke-width:0.8;"/>
     </g>
     <g id="line2d_8">
      <g>
       <use style="stroke:#000000;stroke-width:0.8;" x="234.243826" xlink:href="#mad999b3e75" y="307.584"/>
      </g>
     </g>
     <g id="text_4">
      <!-- 150 -->
      <g transform="translate(224.700076 322.182437)scale(0.1 -0.1)">
       <use xlink:href="#DejaVuSerif-49"/>
       <use x="63.623047" xlink:href="#DejaVuSerif-53"/>
       <use x="127.246094" xlink:href="#DejaVuSerif-48"/>
      </g>
     </g>
    </g>
    <g id="xtick_5">
     <g id="line2d_9">
      <path clip-path="url(#pccbff3e99d)" d="M 288.991642 307.584 
L 288.991642 41.472 
" style="fill:none;stroke:#b0b0b0;stroke-linecap:square;stroke-width:0.8;"/>
     </g>
     <g id="line2d_10">
      <g>
       <use style="stroke:#000000;stroke-width:0.8;" x="288.991642" xlink:href="#mad999b3e75" y="307.584"/>
      </g>
     </g>
     <g id="text_5">
      <!-- 200 -->
      <g transform="translate(279.447892 322.182437)scale(0.1 -0.1)">
       <defs>
        <path d="M 12.796875 55.515625 
L 7.328125 55.515625 
L 7.328125 68.5 
Q 12.546875 71.296875 17.84375 72.75 
Q 23.140625 74.21875 28.21875 74.21875 
Q 39.59375 74.21875 46.1875 68.703125 
Q 52.78125 63.1875 52.78125 53.71875 
Q 52.78125 43.015625 37.84375 28.125 
Q 36.671875 27 36.078125 26.421875 
L 17.671875 8.015625 
L 48.09375 8.015625 
L 48.09375 17 
L 53.8125 17 
L 53.8125 0 
L 6.78125 0 
L 6.78125 5.328125 
L 28.90625 27.390625 
Q 36.234375 34.71875 39.359375 40.84375 
Q 42.484375 46.96875 42.484375 53.71875 
Q 42.484375 61.078125 38.640625 65.234375 
Q 34.8125 69.390625 28.078125 69.390625 
Q 21.09375 69.390625 17.28125 65.921875 
Q 13.484375 62.453125 12.796875 55.515625 
z
" id="DejaVuSerif-50"/>
       </defs>
       <use xlink:href="#DejaVuSerif-50"/>
       <use x="63.623047" xlink:href="#DejaVuSerif-48"/>
       <use x="127.246094" xlink:href="#DejaVuSerif-48"/>
      </g>
     </g>
    </g>
    <g id="xtick_6">
     <g id="line2d_11">
      <path clip-path="url(#pccbff3e99d)" d="M 343.739457 307.584 
L 343.739457 41.472 
" style="fill:none;stroke:#b0b0b0;stroke-linecap:square;stroke-width:0.8;"/>
     </g>
     <g id="line2d_12">
      <g>
       <use style="stroke:#000000;stroke-width:0.8;" x="343.739457" xlink:href="#mad999b3e75" y="307.584"/>
      </g>
     </g>
     <g id="text_6">
      <!-- 250 -->
      <g transform="translate(334.195707 322.182437)scale(0.1 -0.1)">
       <use xlink:href="#DejaVuSerif-50"/>
       <use x="63.623047" xlink:href="#DejaVuSerif-53"/>
       <use x="127.246094" xlink:href="#DejaVuSerif-48"/>
      </g>
     </g>
    </g>
    <g id="xtick_7">
     <g id="line2d_13">
      <path clip-path="url(#pccbff3e99d)" d="M 398.487273 307.584 
L 398.487273 41.472 
" style="fill:none;stroke:#b0b0b0;stroke-linecap:square;stroke-width:0.8;"/>
     </g>
     <g id="line2d_14">
      <g>
       <use style="stroke:#000000;stroke-width:0.8;" x="398.487273" xlink:href="#mad999b3e75" y="307.584"/>
      </g>
     </g>
     <g id="text_7">
      <!-- 300 -->
      <g transform="translate(388.943523 322.182437)scale(0.1 -0.1)">
       <defs>
        <path d="M 9.71875 69.828125 
Q 15.4375 71.96875 20.671875 73.09375 
Q 25.921875 74.21875 30.515625 74.21875 
Q 41.21875 74.21875 47.21875 69.59375 
Q 53.21875 64.984375 53.21875 56.78125 
Q 53.21875 50.203125 49.0625 45.78125 
Q 44.921875 41.359375 37.3125 39.796875 
Q 46.296875 38.53125 51.25 33.28125 
Q 56.203125 28.03125 56.203125 19.671875 
Q 56.203125 9.46875 49.34375 4.015625 
Q 42.484375 -1.421875 29.59375 -1.421875 
Q 23.875 -1.421875 18.421875 -0.1875 
Q 12.984375 1.03125 7.625 3.515625 
L 7.625 17.671875 
L 13.09375 17.671875 
Q 13.578125 10.640625 17.828125 7.03125 
Q 22.078125 3.421875 29.78125 3.421875 
Q 37.25 3.421875 41.578125 7.734375 
Q 45.90625 12.0625 45.90625 19.578125 
Q 45.90625 28.171875 41.453125 32.59375 
Q 37.015625 37.015625 28.421875 37.015625 
L 23.78125 37.015625 
L 23.78125 42 
L 26.21875 42 
Q 34.765625 42 39.03125 45.53125 
Q 43.3125 49.078125 43.3125 56.203125 
Q 43.3125 62.59375 39.796875 65.984375 
Q 36.28125 69.390625 29.6875 69.390625 
Q 23.09375 69.390625 19.453125 66.265625 
Q 15.828125 63.140625 15.1875 56.984375 
L 9.71875 56.984375 
z
" id="DejaVuSerif-51"/>
       </defs>
       <use xlink:href="#DejaVuSerif-51"/>
       <use x="63.623047" xlink:href="#DejaVuSerif-48"/>
       <use x="127.246094" xlink:href="#DejaVuSerif-48"/>
      </g>
     </g>
    </g>
    <g id="text_8">
     <!-- Time -->
     <g transform="translate(214.680234 341.179469)scale(0.17 -0.17)">
      <defs>
       <path d="M 19.09375 0 
L 19.09375 5.171875 
L 28.421875 5.171875 
L 28.421875 67.09375 
L 6.984375 67.09375 
L 6.984375 55.71875 
L 0.984375 55.71875 
L 0.984375 72.90625 
L 65.71875 72.90625 
L 65.71875 55.71875 
L 59.71875 55.71875 
L 59.71875 67.09375 
L 38.28125 67.09375 
L 38.28125 5.171875 
L 47.609375 5.171875 
L 47.609375 0 
z
" id="DejaVuSerif-84"/>
       <path d="M 9.71875 68.015625 
Q 9.71875 70.265625 11.34375 71.921875 
Q 12.984375 73.578125 15.28125 73.578125 
Q 17.53125 73.578125 19.15625 71.921875 
Q 20.796875 70.265625 20.796875 68.015625 
Q 20.796875 65.71875 19.1875 64.109375 
Q 17.578125 62.5 15.28125 62.5 
Q 12.984375 62.5 11.34375 64.109375 
Q 9.71875 65.71875 9.71875 68.015625 
z
M 21.1875 5.171875 
L 29.6875 5.171875 
L 29.6875 0 
L 3.609375 0 
L 3.609375 5.171875 
L 12.203125 5.171875 
L 12.203125 46.6875 
L 3.609375 46.6875 
L 3.609375 51.90625 
L 21.1875 51.90625 
z
" id="DejaVuSerif-105"/>
       <path d="M 51.8125 41.796875 
Q 54.390625 47.515625 58.421875 50.421875 
Q 62.453125 53.328125 67.828125 53.328125 
Q 75.984375 53.328125 79.984375 48.265625 
Q 83.984375 43.21875 83.984375 33.015625 
L 83.984375 5.171875 
L 92.09375 5.171875 
L 92.09375 0 
L 67.1875 0 
L 67.1875 5.171875 
L 75 5.171875 
L 75 31.984375 
Q 75 39.9375 72.65625 43.3125 
Q 70.3125 46.6875 64.890625 46.6875 
Q 58.890625 46.6875 55.734375 42.140625 
Q 52.59375 37.59375 52.59375 28.90625 
L 52.59375 5.171875 
L 60.40625 5.171875 
L 60.40625 0 
L 35.796875 0 
L 35.796875 5.171875 
L 43.609375 5.171875 
L 43.609375 32.328125 
Q 43.609375 40.09375 41.265625 43.390625 
Q 38.921875 46.6875 33.5 46.6875 
Q 27.484375 46.6875 24.328125 42.140625 
Q 21.1875 37.59375 21.1875 28.90625 
L 21.1875 5.171875 
L 29 5.171875 
L 29 0 
L 4.109375 0 
L 4.109375 5.171875 
L 12.203125 5.171875 
L 12.203125 46.78125 
L 3.609375 46.78125 
L 3.609375 51.90625 
L 21.1875 51.90625 
L 21.1875 42.671875 
Q 23.6875 47.859375 27.53125 50.59375 
Q 31.390625 53.328125 36.28125 53.328125 
Q 42.328125 53.328125 46.375 50.3125 
Q 50.4375 47.3125 51.8125 41.796875 
z
" id="DejaVuSerif-109"/>
       <path d="M 54.203125 25 
L 15.484375 25 
L 15.484375 24.609375 
Q 15.484375 14.109375 19.4375 8.765625 
Q 23.390625 3.421875 31.109375 3.421875 
Q 37.015625 3.421875 40.796875 6.515625 
Q 44.578125 9.625 46.09375 15.71875 
L 53.328125 15.71875 
Q 51.171875 7.171875 45.375 2.875 
Q 39.59375 -1.421875 30.171875 -1.421875 
Q 18.796875 -1.421875 11.890625 6.078125 
Q 4.984375 13.578125 4.984375 25.984375 
Q 4.984375 38.28125 11.765625 45.796875 
Q 18.5625 53.328125 29.59375 53.328125 
Q 41.359375 53.328125 47.65625 46.0625 
Q 53.953125 38.8125 54.203125 25 
z
M 43.609375 30.171875 
Q 43.3125 39.265625 39.765625 43.875 
Q 36.234375 48.484375 29.59375 48.484375 
Q 23.390625 48.484375 19.828125 43.84375 
Q 16.265625 39.203125 15.484375 30.171875 
z
" id="DejaVuSerif-101"/>
      </defs>
      <use xlink:href="#DejaVuSerif-84"/>
      <use x="66.699219" xlink:href="#DejaVuSerif-105"/>
      <use x="98.681641" xlink:href="#DejaVuSerif-109"/>
      <use x="193.505859" xlink:href="#DejaVuSerif-101"/>
     </g>
    </g>
   </g>
   <g id="matplotlib.axis_2">
    <g id="ytick_1">
     <g id="line2d_15">
      <path clip-path="url(#pccbff3e99d)" d="M 57.6 289.8432 
L 414.72 289.8432 
" style="fill:none;stroke:#b0b0b0;stroke-linecap:square;stroke-width:0.8;"/>
     </g>
     <g id="line2d_16">
      <defs>
       <path d="M 0 0 
L -3.5 0 
" id="mafe481c898" style="stroke:#000000;stroke-width:0.8;"/>
      </defs>
      <g>
       <use style="stroke:#000000;stroke-width:0.8;" x="57.6" xlink:href="#mafe481c898" y="289.8432"/>
      </g>
     </g>
     <g id="text_9">
      <!-- −0.2 -->
      <g transform="translate(26.317187 293.642419)scale(0.1 -0.1)">
       <defs>
        <path d="M 10.59375 35.296875 
L 73.1875 35.296875 
L 73.1875 27.390625 
L 10.59375 27.390625 
z
" id="DejaVuSerif-8722"/>
        <path d="M 9.421875 5.078125 
Q 9.421875 7.8125 11.28125 9.71875 
Q 13.140625 11.625 15.921875 11.625 
Q 18.609375 11.625 20.5 9.71875 
Q 22.40625 7.8125 22.40625 5.078125 
Q 22.40625 2.390625 20.5 0.484375 
Q 18.609375 -1.421875 15.921875 -1.421875 
Q 13.140625 -1.421875 11.28125 0.453125 
Q 9.421875 2.34375 9.421875 5.078125 
z
" id="DejaVuSerif-46"/>
       </defs>
       <use xlink:href="#DejaVuSerif-8722"/>
       <use x="83.789062" xlink:href="#DejaVuSerif-48"/>
       <use x="147.412109" xlink:href="#DejaVuSerif-46"/>
       <use x="179.199219" xlink:href="#DejaVuSerif-50"/>
      </g>
     </g>
    </g>
    <g id="ytick_2">
     <g id="line2d_17">
      <path clip-path="url(#pccbff3e99d)" d="M 57.6 254.3616 
L 414.72 254.3616 
" style="fill:none;stroke:#b0b0b0;stroke-linecap:square;stroke-width:0.8;"/>
     </g>
     <g id="line2d_18">
      <g>
       <use style="stroke:#000000;stroke-width:0.8;" x="57.6" xlink:href="#mafe481c898" y="254.3616"/>
      </g>
     </g>
     <g id="text_10">
      <!-- −0.1 -->
      <g transform="translate(26.317187 258.160819)scale(0.1 -0.1)">
       <use xlink:href="#DejaVuSerif-8722"/>
       <use x="83.789062" xlink:href="#DejaVuSerif-48"/>
       <use x="147.412109" xlink:href="#DejaVuSerif-46"/>
       <use x="179.199219" xlink:href="#DejaVuSerif-49"/>
      </g>
     </g>
    </g>
    <g id="ytick_3">
     <g id="line2d_19">
      <path clip-path="url(#pccbff3e99d)" d="M 57.6 218.88 
L 414.72 218.88 
" style="fill:none;stroke:#b0b0b0;stroke-linecap:square;stroke-width:0.8;"/>
     </g>
     <g id="line2d_20">
      <g>
       <use style="stroke:#000000;stroke-width:0.8;" x="57.6" xlink:href="#mafe481c898" y="218.88"/>
      </g>
     </g>
     <g id="text_11">
      <!-- 0.0 -->
      <g transform="translate(34.696875 222.679219)scale(0.1 -0.1)">
       <use xlink:href="#DejaVuSerif-48"/>
       <use x="63.623047" xlink:href="#DejaVuSerif-46"/>
       <use x="95.410156" xlink:href="#DejaVuSerif-48"/>
      </g>
     </g>
    </g>
    <g id="ytick_4">
     <g id="line2d_21">
      <path clip-path="url(#pccbff3e99d)" d="M 57.6 183.3984 
L 414.72 183.3984 
" style="fill:none;stroke:#b0b0b0;stroke-linecap:square;stroke-width:0.8;"/>
     </g>
     <g id="line2d_22">
      <g>
       <use style="stroke:#000000;stroke-width:0.8;" x="57.6" xlink:href="#mafe481c898" y="183.3984"/>
      </g>
     </g>
     <g id="text_12">
      <!-- 0.1 -->
      <g transform="translate(34.696875 187.197619)scale(0.1 -0.1)">
       <use xlink:href="#DejaVuSerif-48"/>
       <use x="63.623047" xlink:href="#DejaVuSerif-46"/>
       <use x="95.410156" xlink:href="#DejaVuSerif-49"/>
      </g>
     </g>
    </g>
    <g id="ytick_5">
     <g id="line2d_23">
      <path clip-path="url(#pccbff3e99d)" d="M 57.6 147.9168 
L 414.72 147.9168 
" style="fill:none;stroke:#b0b0b0;stroke-linecap:square;stroke-width:0.8;"/>
     </g>
     <g id="line2d_24">
      <g>
       <use style="stroke:#000000;stroke-width:0.8;" x="57.6" xlink:href="#mafe481c898" y="147.9168"/>
      </g>
     </g>
     <g id="text_13">
      <!-- 0.2 -->
      <g transform="translate(34.696875 151.716019)scale(0.1 -0.1)">
       <use xlink:href="#DejaVuSerif-48"/>
       <use x="63.623047" xlink:href="#DejaVuSerif-46"/>
       <use x="95.410156" xlink:href="#DejaVuSerif-50"/>
      </g>
     </g>
    </g>
    <g id="ytick_6">
     <g id="line2d_25">
      <path clip-path="url(#pccbff3e99d)" d="M 57.6 112.4352 
L 414.72 112.4352 
" style="fill:none;stroke:#b0b0b0;stroke-linecap:square;stroke-width:0.8;"/>
     </g>
     <g id="line2d_26">
      <g>
       <use style="stroke:#000000;stroke-width:0.8;" x="57.6" xlink:href="#mafe481c898" y="112.4352"/>
      </g>
     </g>
     <g id="text_14">
      <!-- 0.3 -->
      <g transform="translate(34.696875 116.234419)scale(0.1 -0.1)">
       <use xlink:href="#DejaVuSerif-48"/>
       <use x="63.623047" xlink:href="#DejaVuSerif-46"/>
       <use x="95.410156" xlink:href="#DejaVuSerif-51"/>
      </g>
     </g>
    </g>
    <g id="ytick_7">
     <g id="line2d_27">
      <path clip-path="url(#pccbff3e99d)" d="M 57.6 76.9536 
L 414.72 76.9536 
" style="fill:none;stroke:#b0b0b0;stroke-linecap:square;stroke-width:0.8;"/>
     </g>
     <g id="line2d_28">
      <g>
       <use style="stroke:#000000;stroke-width:0.8;" x="57.6" xlink:href="#mafe481c898" y="76.9536"/>
      </g>
     </g>
     <g id="text_15">
      <!-- 0.4 -->
      <g transform="translate(34.696875 80.752819)scale(0.1 -0.1)">
       <defs>
        <path d="M 34.90625 24.703125 
L 34.90625 63.484375 
L 10.015625 24.703125 
z
M 56.390625 0 
L 23.1875 0 
L 23.1875 5.171875 
L 34.90625 5.171875 
L 34.90625 19.484375 
L 3.078125 19.484375 
L 3.078125 24.8125 
L 35.015625 74.21875 
L 44.671875 74.21875 
L 44.671875 24.703125 
L 58.59375 24.703125 
L 58.59375 19.484375 
L 44.671875 19.484375 
L 44.671875 5.171875 
L 56.390625 5.171875 
z
" id="DejaVuSerif-52"/>
       </defs>
       <use xlink:href="#DejaVuSerif-48"/>
       <use x="63.623047" xlink:href="#DejaVuSerif-46"/>
       <use x="95.410156" xlink:href="#DejaVuSerif-52"/>
      </g>
     </g>
    </g>
    <g id="ytick_8">
     <g id="line2d_29">
      <path clip-path="url(#pccbff3e99d)" d="M 57.6 41.472 
L 414.72 41.472 
" style="fill:none;stroke:#b0b0b0;stroke-linecap:square;stroke-width:0.8;"/>
     </g>
     <g id="line2d_30">
      <g>
       <use style="stroke:#000000;stroke-width:0.8;" x="57.6" xlink:href="#mafe481c898" y="41.472"/>
      </g>
     </g>
     <g id="text_16">
      <!-- 0.5 -->
      <g transform="translate(34.696875 45.271219)scale(0.1 -0.1)">
       <use xlink:href="#DejaVuSerif-48"/>
       <use x="63.623047" xlink:href="#DejaVuSerif-46"/>
       <use x="95.410156" xlink:href="#DejaVuSerif-53"/>
      </g>
     </g>
    </g>
    <g id="text_17">
     <!-- Speed -->
     <g transform="translate(18.781719 201.295031)rotate(-90)scale(0.17 -0.17)">
      <defs>
       <path d="M 9.28125 3.515625 
L 9.28125 20.125 
L 14.890625 20.0625 
Q 15.140625 11.765625 19.703125 7.78125 
Q 24.265625 3.8125 33.59375 3.8125 
Q 42.28125 3.8125 46.84375 7.25 
Q 51.421875 10.6875 51.421875 17.28125 
Q 51.421875 22.5625 48.65625 25.390625 
Q 45.90625 28.21875 37.015625 30.90625 
L 27.390625 33.796875 
Q 16.9375 36.96875 12.671875 41.703125 
Q 8.40625 46.4375 8.40625 54.6875 
Q 8.40625 63.96875 14.984375 69.09375 
Q 21.578125 74.21875 33.5 74.21875 
Q 38.578125 74.21875 44.625 73.109375 
Q 50.6875 72.015625 57.515625 69.921875 
L 57.515625 54.390625 
L 52 54.390625 
Q 51.171875 62.109375 46.84375 65.546875 
Q 42.53125 69 33.6875 69 
Q 25.984375 69 21.953125 65.84375 
Q 17.921875 62.703125 17.921875 56.6875 
Q 17.921875 51.46875 20.9375 48.484375 
Q 23.96875 45.515625 33.796875 42.578125 
L 42.828125 39.890625 
Q 52.734375 36.921875 56.953125 32.296875 
Q 61.1875 27.6875 61.1875 19.921875 
Q 61.1875 9.328125 54.390625 3.953125 
Q 47.609375 -1.421875 34.1875 -1.421875 
Q 28.171875 -1.421875 21.9375 -0.1875 
Q 15.71875 1.03125 9.28125 3.515625 
z
" id="DejaVuSerif-83"/>
       <path d="M 20.515625 28.515625 
L 20.515625 23.390625 
Q 20.515625 14.015625 24.09375 9.109375 
Q 27.6875 4.203125 34.515625 4.203125 
Q 41.40625 4.203125 44.9375 9.71875 
Q 48.484375 15.234375 48.484375 25.984375 
Q 48.484375 36.765625 44.9375 42.234375 
Q 41.40625 47.703125 34.515625 47.703125 
Q 27.6875 47.703125 24.09375 42.765625 
Q 20.515625 37.84375 20.515625 28.515625 
z
M 11.53125 46.6875 
L 2.875 46.6875 
L 2.875 51.90625 
L 20.515625 51.90625 
L 20.515625 43.796875 
Q 23.140625 48.6875 27.21875 51 
Q 31.296875 53.328125 37.3125 53.328125 
Q 46.875 53.328125 52.921875 45.75 
Q 58.984375 38.1875 58.984375 25.984375 
Q 58.984375 13.765625 52.921875 6.171875 
Q 46.875 -1.421875 37.3125 -1.421875 
Q 31.296875 -1.421875 27.21875 0.890625 
Q 23.140625 3.21875 20.515625 8.109375 
L 20.515625 -15.578125 
L 29 -15.578125 
L 29 -20.796875 
L 2.875 -20.796875 
L 2.875 -15.578125 
L 11.53125 -15.578125 
z
" id="DejaVuSerif-112"/>
       <path d="M 52.484375 5.171875 
L 61.078125 5.171875 
L 61.078125 0 
L 43.5 0 
L 43.5 8.109375 
Q 40.875 3.21875 36.796875 0.890625 
Q 32.71875 -1.421875 26.703125 -1.421875 
Q 17.140625 -1.421875 11.0625 6.171875 
Q 4.984375 13.765625 4.984375 25.984375 
Q 4.984375 38.1875 11.03125 45.75 
Q 17.09375 53.328125 26.703125 53.328125 
Q 32.71875 53.328125 36.796875 51 
Q 40.875 48.6875 43.5 43.796875 
L 43.5 70.796875 
L 35.015625 70.796875 
L 35.015625 75.984375 
L 52.484375 75.984375 
z
M 43.5 23.390625 
L 43.5 28.515625 
Q 43.5 37.84375 39.90625 42.765625 
Q 36.328125 47.703125 29.5 47.703125 
Q 22.5625 47.703125 19.015625 42.234375 
Q 15.484375 36.765625 15.484375 25.984375 
Q 15.484375 15.234375 19.015625 9.71875 
Q 22.5625 4.203125 29.5 4.203125 
Q 36.328125 4.203125 39.90625 9.109375 
Q 43.5 14.015625 43.5 23.390625 
z
" id="DejaVuSerif-100"/>
      </defs>
      <use xlink:href="#DejaVuSerif-83"/>
      <use x="68.505859" xlink:href="#DejaVuSerif-112"/>
      <use x="132.519531" xlink:href="#DejaVuSerif-101"/>
      <use x="191.699219" xlink:href="#DejaVuSerif-101"/>
      <use x="250.878906" xlink:href="#DejaVuSerif-100"/>
     </g>
    </g>
   </g>
   <g id="LineCollection_1">
    <path clip-path="url(#pccbff3e99d)" d="M 73.832727 218.88 
L 398.487273 218.88 
" style="fill:none;stroke:#696969;stroke-width:1.5;"/>
   </g>
   <g id="line2d_31">
    <path clip-path="url(#pccbff3e99d)" d="M 73.9742 346.6 
L 74.01887 218.88 
L 76.931454 218.88 
L 77.009625 346.6 
M 78.659524 346.6 
L 78.760031 218.88 
L 81.311279 218.88 
L 81.445287 346.6 
M 84.067302 346.6 
L 84.234812 218.88 
L 86.063389 218.88 
L 86.238582 344.109176 
L 86.424725 344.109176 
L 86.610867 337.152 
L 87.333539 337.152 
L 87.519681 330.927158 
L 88.253302 330.927158 
L 88.428495 325.3248 
L 89.162116 325.3248 
L 89.348258 320.256 
L 89.895736 320.256 
L 90.070929 218.88 
L 91.352028 218.88 
L 91.538171 311.440696 
L 91.899506 311.440696 
L 92.085649 307.584 
L 92.80832 307.584 
L 92.994463 304.03584 
L 93.728083 304.03584 
L 93.903276 300.760615 
L 94.636897 300.760615 
L 94.82304 297.728 
L 95.545711 297.728 
L 95.731853 294.912 
L 96.465474 294.912 
L 96.640667 292.290207 
L 96.82681 218.88 
L 97.012952 218.88 
L 97.188145 292.290207 
L 97.374288 292.290207 
L 97.56043 289.8432 
L 98.283102 289.8432 
L 98.469244 287.554065 
L 99.202865 287.554065 
L 99.378058 285.408 
L 100.111679 285.408 
L 100.297821 283.392 
L 101.020492 283.392 
L 101.206635 281.494588 
L 101.940256 281.494588 
L 102.115449 279.7056 
L 102.849069 279.7056 
L 103.035212 278.016 
L 103.210405 337.152 
L 103.58269 337.152 
L 103.757883 278.016 
L 103.944026 276.41773 
L 104.677646 276.41773 
L 104.852839 274.903579 
L 105.58646 274.903579 
L 105.772603 273.467077 
L 106.495274 273.467077 
L 106.681417 272.1024 
L 107.415037 272.1024 
L 107.59023 270.804293 
L 108.323851 270.804293 
L 108.509994 269.568 
L 109.232665 269.568 
L 109.418807 268.389209 
L 109.60495 317.898419 
L 110.152428 317.898419 
L 110.327621 315.648 
L 111.061242 315.648 
L 111.247384 313.4976 
L 111.422577 266.1888 
L 111.970055 266.1888 
L 112.156198 265.160348 
L 112.889819 265.160348 
L 113.065012 264.17566 
L 113.798633 264.17566 
L 113.984775 263.232 
L 114.707446 263.232 
L 114.893589 262.326857 
L 115.62721 262.326857 
L 115.802403 261.45792 
L 116.174688 261.45792 
L 116.349881 304.03584 
L 116.536023 304.03584 
L 116.722166 302.366118 
L 117.444837 302.366118 
L 117.63098 300.760615 
L 118.3646 300.760615 
L 118.539793 299.215698 
L 119.087272 299.215698 
L 119.273414 259.047849 
L 119.459557 258.304 
L 120.182228 258.304 
L 120.36837 257.5872 
L 121.101991 257.5872 
L 121.277184 256.896 
L 122.010805 256.896 
L 122.196947 256.229053 
L 122.919619 256.229053 
L 123.105761 255.585103 
L 123.291904 255.585103 
L 123.467097 292.290207 
L 123.839382 292.290207 
L 124.014575 291.045966 
L 124.748196 291.045966 
L 124.934338 289.8432 
L 125.657009 289.8432 
L 125.843152 288.679869 
L 126.576773 288.679869 
L 126.751966 287.554065 
L 127.485586 287.554065 
L 127.671729 286.464 
L 127.846922 252.672 
L 128.3944 252.672 
L 128.580543 252.144 
L 129.314163 252.144 
L 129.489356 251.632246 
L 130.222977 251.632246 
L 130.40912 251.136 
L 130.956598 251.136 
L 131.131791 283.392 
L 131.317933 282.429134 
L 132.051554 282.429134 
L 132.226747 281.494588 
L 132.960368 281.494588 
L 133.146511 280.58713 
L 133.869182 280.58713 
L 134.055324 279.7056 
L 134.788945 279.7056 
L 134.964138 278.848901 
L 135.697759 278.848901 
L 135.883901 278.016 
L 136.431379 278.016 
L 136.606572 248.448 
L 136.792715 248.042959 
L 137.526336 248.042959 
L 137.701529 247.648865 
L 138.435149 247.648865 
L 138.621292 247.26528 
L 138.982628 247.26528 
L 139.16877 275.65056 
L 139.343963 275.65056 
L 139.530106 274.903579 
L 140.263727 274.903579 
L 140.43892 274.176 
L 141.17254 274.176 
L 141.358683 273.467077 
L 142.081354 273.467077 
L 142.267497 272.776101 
L 143.001117 272.776101 
L 143.17631 272.1024 
L 143.909931 272.1024 
L 144.096074 271.445333 
L 144.818745 271.445333 
L 145.004887 270.804293 
L 145.738508 270.804293 
L 145.913701 270.178699 
L 146.099844 270.178699 
L 146.285986 244.529349 
L 146.647322 244.529349 
L 146.833464 244.224 
L 147.380943 244.224 
L 147.556136 269.568 
L 147.742278 268.971671 
L 148.475899 268.971671 
L 148.651092 268.389209 
L 149.384713 268.389209 
L 149.570855 267.820138 
L 150.293526 267.820138 
L 150.479669 267.264 
L 151.21329 267.264 
L 151.388483 266.72036 
L 152.122103 266.72036 
L 152.308246 266.1888 
L 153.030917 266.1888 
L 153.21706 265.668923 
L 153.95068 265.668923 
L 154.125873 265.160348 
L 154.859494 265.160348 
L 155.045637 264.66271 
L 155.768308 264.66271 
L 155.95445 264.17566 
L 156.140593 264.17566 
L 156.315786 241.52783 
L 156.501929 264.17566 
L 156.688071 264.17566 
L 156.863264 263.698863 
L 157.596885 263.698863 
L 157.783027 263.232 
L 158.505699 263.232 
L 158.691841 262.774763 
L 159.425462 262.774763 
L 159.600655 262.326857 
L 160.334276 262.326857 
L 160.520418 261.888 
L 161.243089 261.888 
L 161.429232 261.45792 
L 162.162853 261.45792 
L 162.338046 261.036356 
L 163.071666 261.036356 
L 163.257809 260.623059 
L 163.98048 260.623059 
L 164.166623 260.217786 
L 164.900243 260.217786 
L 165.075436 259.820308 
L 165.447722 259.820308 
L 165.622915 280.290462 
L 165.809057 280.290462 
L 165.9952 279.7056 
L 166.542678 279.7056 
L 166.717871 259.4304 
L 166.904013 259.047849 
L 167.637634 259.047849 
L 167.812827 258.672449 
L 168.546448 258.672449 
L 168.732591 258.304 
L 169.455262 258.304 
L 169.641404 257.942312 
L 170.375025 257.942312 
L 170.550218 257.5872 
L 171.283839 257.5872 
L 171.469981 257.238486 
L 172.192652 257.238486 
L 172.378795 256.896 
L 173.112416 256.896 
L 173.287609 256.559575 
L 174.021229 256.559575 
L 174.207372 256.229053 
L 174.930043 256.229053 
L 175.116186 255.904278 
L 175.302328 255.904278 
L 175.477521 274.416417 
L 175.849807 274.416417 
L 176.025 273.937655 
L 176.75862 273.937655 
L 176.944763 273.467077 
L 177.667434 273.467077 
L 177.853577 273.004475 
L 178.039719 254.962983 
L 178.587197 254.962983 
L 178.76239 254.659765 
L 179.496011 254.659765 
L 179.682154 254.3616 
L 180.404825 254.3616 
L 180.590967 254.068364 
L 181.324588 254.068364 
L 181.499781 253.779934 
L 182.233402 253.779934 
L 182.419544 253.496195 
L 183.142216 253.496195 
L 183.328358 253.217032 
L 184.061979 253.217032 
L 184.237172 252.942336 
L 184.970793 252.942336 
L 185.156935 252.672 
L 185.332128 252.672 
L 185.518271 269.568 
L 185.879606 269.568 
L 186.065749 269.168882 
L 186.79937 269.168882 
L 186.974563 268.776 
L 187.708183 268.776 
L 187.894326 268.389209 
L 188.616997 268.389209 
L 188.80314 268.008369 
L 189.164475 268.008369 
L 189.350618 251.632246 
L 189.53676 251.632246 
L 189.711953 251.382229 
L 190.445574 251.382229 
L 190.631717 251.136 
L 191.354388 251.136 
L 191.54053 250.893474 
L 192.274151 250.893474 
L 192.449344 250.654567 
L 193.182965 250.654567 
L 193.369107 250.4192 
L 194.091779 250.4192 
L 194.277921 250.187294 
L 195.011542 250.187294 
L 195.186735 249.958774 
L 195.920356 249.958774 
L 196.106498 265.160348 
L 196.829169 265.160348 
L 197.015312 264.827396 
L 197.748933 264.827396 
L 197.924126 264.4992 
L 198.657746 264.4992 
L 198.843889 264.17566 
L 199.56656 264.17566 
L 199.752703 263.856676 
L 200.486323 263.856676 
L 200.661516 263.542154 
L 201.395137 263.542154 
L 201.58128 263.232 
L 201.756473 248.448 
L 202.303951 248.448 
L 202.490094 248.244083 
L 203.223714 248.244083 
L 203.398907 248.042959 
L 204.132528 248.042959 
L 204.318671 247.844571 
L 205.041342 247.844571 
L 205.227484 247.648865 
L 205.961105 247.648865 
L 206.136298 247.455785 
L 206.869919 247.455785 
L 207.056061 261.45792 
L 207.778732 261.45792 
L 207.964875 261.175947 
L 208.698496 261.175947 
L 208.873689 260.897684 
L 209.60731 260.897684 
L 209.793452 260.623059 
L 210.516123 260.623059 
L 210.702266 260.352 
L 211.435887 260.352 
L 211.61108 260.084439 
L 212.3447 260.084439 
L 212.530843 259.820308 
L 213.253514 259.820308 
L 213.439657 259.559541 
L 213.987135 259.559541 
L 214.173277 245.999694 
L 214.34847 245.828051 
L 215.082091 245.828051 
L 215.268234 245.658566 
L 215.990905 245.658566 
L 216.177047 245.4912 
L 216.910668 245.4912 
L 217.085861 245.325913 
L 217.819482 245.325913 
L 218.005624 245.162667 
L 218.36696 245.162667 
L 218.553103 258.304 
L 218.728296 258.304 
L 218.914438 258.062135 
L 219.648059 258.062135 
L 219.823252 257.82322 
L 220.556873 257.82322 
L 220.743015 257.5872 
L 221.465686 257.5872 
L 221.651829 257.354024 
L 222.38545 257.354024 
L 222.560643 257.123641 
L 223.294263 257.123641 
L 223.480406 256.896 
L 224.203077 256.896 
L 224.38922 256.671053 
L 225.12284 256.671053 
L 225.298033 256.448753 
L 226.031654 256.448753 
L 226.217797 256.229053 
L 226.940468 256.229053 
L 227.12661 256.011907 
L 227.312753 256.011907 
L 227.487946 243.634605 
L 227.860231 243.634605 
L 228.035424 243.491514 
L 228.769045 243.491514 
L 229.13038 243.350069 
L 229.677859 243.350069 
L 229.864001 243.21024 
L 230.225337 243.21024 
L 230.411479 255.37536 
L 230.597622 255.37536 
L 230.772815 255.168 
L 231.506436 255.168 
L 231.692578 254.962983 
L 232.415249 254.962983 
L 232.601392 254.76027 
L 233.335013 254.76027 
L 233.510206 254.559821 
L 234.243826 254.559821 
L 234.429969 254.3616 
L 235.15264 254.3616 
L 235.338783 254.165569 
L 236.072403 254.165569 
L 236.247597 253.971692 
L 236.981217 253.971692 
L 237.16736 253.779934 
L 237.890031 253.779934 
L 238.076174 253.590261 
L 238.809794 253.590261 
L 238.984987 253.402638 
L 239.718608 253.402638 
L 239.904751 253.217032 
L 240.627422 253.217032 
L 240.813564 253.033412 
L 240.999707 253.033412 
L 241.1749 241.648941 
L 241.547185 241.648941 
L 241.908521 241.52783 
L 242.269856 241.52783 
L 242.455999 252.851745 
L 242.642141 252.672 
L 243.364813 252.672 
L 243.550955 252.494147 
L 244.284576 252.494147 
L 244.459769 252.318157 
L 245.19339 252.318157 
L 245.379532 252.144 
L 246.102203 252.144 
L 246.288346 251.971648 
L 247.021967 251.971648 
L 247.19716 251.801072 
L 247.93078 251.801072 
L 248.116923 251.632246 
L 248.839594 251.632246 
L 249.025737 251.465143 
L 249.759357 251.465143 
L 249.93455 251.299736 
L 250.668171 251.299736 
L 250.854314 251.136 
L 251.576985 251.136 
L 251.763127 250.97391 
L 252.496748 250.97391 
L 252.671941 250.81344 
L 253.405562 250.81344 
L 253.591704 250.654567 
L 254.314376 250.654567 
L 254.500518 250.497267 
L 254.861854 250.497267 
L 255.047996 261.036356 
L 255.234139 261.036356 
L 255.409332 260.82869 
L 255.595474 250.341517 
L 256.142953 250.341517 
L 256.329095 250.187294 
L 257.051766 250.187294 
L 257.237909 250.034576 
L 257.97153 250.034576 
L 258.146723 249.88334 
L 258.880343 249.88334 
L 259.241679 249.733565 
L 259.789157 249.733565 
L 259.9753 249.585231 
L 260.70892 249.585231 
L 260.884113 249.438316 
L 261.617734 249.438316 
L 261.97907 249.2928 
L 262.526548 249.2928 
L 262.71269 249.148664 
L 263.446311 249.148664 
L 263.621504 249.005887 
L 264.355125 249.005887 
L 264.716461 248.864451 
L 265.263939 248.864451 
L 265.450081 248.724336 
L 266.183702 248.724336 
L 266.358895 248.585526 
L 267.092516 248.585526 
L 267.453851 248.448 
L 267.826136 248.448 
L 268.001329 258.304 
L 268.187472 258.122323 
L 268.921093 258.122323 
L 269.096286 257.942312 
L 269.829906 257.942312 
L 270.016049 257.763945 
L 270.191242 257.763945 
L 270.377385 248.042959 
L 270.73872 248.042959 
L 271.111005 247.9104 
L 271.658484 247.9104 
L 271.833677 247.779041 
L 272.567297 247.779041 
L 272.928633 247.648865 
L 273.476111 247.648865 
L 273.848396 247.519857 
L 274.395874 247.519857 
L 274.75721 247.392 
L 275.304688 247.392 
L 275.666024 247.26528 
L 276.213502 247.26528 
L 276.585787 247.139681 
L 277.133265 247.139681 
L 277.494601 247.015189 
L 278.042079 247.015189 
L 278.403414 246.891789 
L 278.950893 246.891789 
L 279.323178 246.769467 
L 279.870656 246.769467 
L 280.231991 246.648209 
L 280.77947 246.648209 
L 281.140805 246.528 
L 281.326948 255.744 
L 281.688283 255.744 
L 281.874426 255.585103 
L 282.608047 255.585103 
L 282.78324 255.427571 
L 283.51686 255.427571 
L 283.703003 255.271385 
L 284.425674 255.271385 
L 284.611817 255.116528 
L 285.159295 255.116528 
L 285.345437 246.057396 
L 285.706773 245.942237 
L 286.254251 245.942237 
L 286.615587 245.828051 
L 287.163065 245.828051 
L 287.53535 245.714824 
L 288.082828 245.714824 
L 288.444164 245.602544 
L 288.991642 245.602544 
L 289.352977 245.4912 
L 290.820219 245.38078 
L 291.181554 245.271273 
L 292.637846 245.162667 
L 293.010132 245.054951 
L 294.466423 244.948114 
L 294.827759 244.842146 
L 295.013902 253.496195 
L 295.375237 253.496195 
L 295.56138 253.356049 
L 296.295 253.356049 
L 296.470193 253.217032 
L 297.203814 253.217032 
L 297.56515 253.079133 
L 298.112628 253.079133 
L 298.484913 252.942336 
L 299.032391 252.942336 
L 299.207584 252.806629 
L 299.941205 252.806629 
L 300.302541 252.672 
L 300.850019 252.672 
L 301.036161 252.538435 
L 301.222304 244.123826 
L 302.678596 244.024441 
L 303.039931 243.925835 
L 304.507173 243.828 
L 304.868508 243.730926 
L 306.3248 243.634605 
L 306.697085 243.539027 
L 308.153377 243.444185 
L 308.514713 243.350069 
L 308.700855 243.350069 
L 308.886998 251.506759 
L 309.062191 251.506759 
L 309.434476 251.382229 
L 309.981954 251.382229 
L 310.34329 251.258646 
L 310.890768 251.258646 
L 311.252104 251.136 
L 311.799582 251.136 
L 312.171867 251.014279 
L 312.719345 251.014279 
L 313.080681 250.893474 
L 313.628159 250.893474 
L 313.989494 250.773573 
L 314.536973 250.773573 
L 314.909258 250.654567 
L 315.456736 250.654567 
L 315.818071 250.536446 
L 316.36555 250.536446 
L 316.726885 250.4192 
L 317.09917 250.4192 
L 317.274363 242.5344 
L 317.646648 242.447114 
L 319.10294 242.360471 
L 319.464276 242.274462 
L 320.931517 242.18908 
L 321.292853 242.10432 
L 322.749145 242.020174 
L 322.935287 241.936635 
L 323.12143 249.622181 
L 324.577722 249.511597 
L 324.939057 249.401806 
L 326.406299 249.2928 
L 326.767635 249.184569 
L 328.223926 249.077106 
L 328.596212 248.970403 
L 330.052503 248.864451 
L 330.413839 248.759242 
L 331.88108 248.654769 
L 332.242416 248.551024 
L 333.698708 248.448 
L 333.884851 248.345689 
L 334.070993 240.979266 
L 335.527285 240.903062 
L 335.888621 240.827381 
L 337.355862 240.752219 
L 337.531055 247.943427 
L 339.173489 247.844571 
L 339.545775 247.746386 
L 341.002067 247.648865 
L 341.363402 247.552 
L 342.830644 247.455785 
L 343.191979 247.360214 
L 344.648271 247.26528 
L 345.020556 247.170977 
L 346.476848 247.077298 
L 346.838184 246.984238 
L 348.305425 246.891789 
L 348.666761 246.799948 
L 350.123053 246.708706 
L 350.495338 246.618059 
L 350.856673 246.618059 
L 351.042816 239.683544 
L 351.404151 239.616 
L 352.137772 239.548893 
L 352.312965 246.438524 
L 353.780207 246.349626 
L 354.141542 246.261299 
L 355.597834 246.173538 
L 355.970119 246.086339 
L 357.426411 245.999694 
L 357.787747 245.9136 
L 359.254988 245.828051 
L 359.616324 245.743041 
L 361.072616 245.658566 
L 361.444901 245.574621 
L 362.901193 245.4912 
L 363.262528 245.408299 
L 364.72977 245.325913 
L 365.091105 245.244037 
L 366.547397 245.162667 
L 366.919682 245.081797 
L 367.094875 251.632246 
L 368.189832 251.531779 
L 368.375974 245.001423 
L 368.73731 244.921541 
L 370.204551 244.842146 
L 370.565887 244.763234 
L 372.022179 244.6848 
L 372.394464 244.60684 
L 373.850756 244.529349 
L 374.212091 244.452324 
L 375.679333 244.37576 
L 376.040668 244.299654 
L 377.49696 244.224 
L 377.869245 244.148795 
L 379.325537 244.074036 
L 379.686873 243.999717 
L 381.154114 243.925835 
L 381.51545 243.852387 
L 382.062928 243.852387 
L 382.249071 250.004211 
L 383.891505 249.913469 
L 384.252841 249.823256 
L 385.709133 249.733565 
L 386.081418 249.644393 
L 386.256611 243.491514 
L 387.53771 243.420588 
L 387.899045 243.350069 
L 389.366287 243.279954 
L 389.727622 243.21024 
L 391.183914 243.140923 
L 391.556199 243.072 
L 393.012491 243.003467 
L 393.373827 242.935322 
L 394.841068 242.867561 
L 395.202404 242.80018 
L 396.658696 242.733176 
L 397.030981 242.666547 
L 397.392316 242.666547 
L 397.578459 248.613184 
L 397.939795 248.530362 
L 398.487273 248.530362 
L 398.487273 248.530362 
" style="fill:none;stroke:#1f77b4;stroke-linecap:square;stroke-width:1.5;"/>
   </g>
   <g id="patch_3">
    <path d="M 57.6 307.584 
L 57.6 41.472 
" style="fill:none;stroke:#000000;stroke-linecap:square;stroke-linejoin:miter;stroke-width:0.8;"/>
   </g>
   <g id="patch_4">
    <path d="M 414.72 307.584 
L 414.72 41.472 
" style="fill:none;stroke:#000000;stroke-linecap:square;stroke-linejoin:miter;stroke-width:0.8;"/>
   </g>
   <g id="patch_5">
    <path d="M 57.6 307.584 
L 414.72 307.584 
" style="fill:none;stroke:#000000;stroke-linecap:square;stroke-linejoin:miter;stroke-width:0.8;"/>
   </g>
   <g id="patch_6">
    <path d="M 57.6 41.472 
L 414.72 41.472 
" style="fill:none;stroke:#000000;stroke-linecap:square;stroke-linejoin:miter;stroke-width:0.8;"/>
   </g>
  </g>
 </g>
 <defs>
  <clipPath id="pccbff3e99d">
   <rect height="266.112" width="357.12" x="57.6" y="41.472"/>
  </clipPath>
 </defs>
</svg>
