<?xml version="1.0" encoding="UTF-8" standalone="no"?>
<!-- Created with matplotlib (https://matplotlib.org/) -->

<svg
   height="345.6pt"
   version="1.1"
   viewBox="0 0 460.8 345.6"
   width="460.8pt"
   id="svg498"
   sodipodi:docname="a.svg"
   inkscape:version="1.2.1 (2ed6d7ae0b, 2022-08-22, custom)"
   xmlns:inkscape="http://www.inkscape.org/namespaces/inkscape"
   xmlns:sodipodi="http://sodipodi.sourceforge.net/DTD/sodipodi-0.dtd"
   xmlns:xlink="http://www.w3.org/1999/xlink"
   xmlns="http://www.w3.org/2000/svg"
   xmlns:svg="http://www.w3.org/2000/svg"
   xmlns:rdf="http://www.w3.org/1999/02/22-rdf-syntax-ns#"
   xmlns:cc="http://creativecommons.org/ns#"
   xmlns:dc="http://purl.org/dc/elements/1.1/">
  <sodipodi:namedview
     id="namedview500"
     pagecolor="#ffffff"
     bordercolor="#666666"
     borderopacity="1.0"
     inkscape:showpageshadow="2"
     inkscape:pageopacity="0.0"
     inkscape:pagecheckerboard="0"
     inkscape:deskcolor="#d1d1d1"
     inkscape:document-units="pt"
     showgrid="false"
     inkscape:zoom="1.212195"
     inkscape:cx="319.25556"
     inkscape:cy="250.37225"
     inkscape:window-width="1853"
     inkscape:window-height="1018"
     inkscape:window-x="67"
     inkscape:window-y="34"
     inkscape:window-maximized="1"
     inkscape:current-layer="svg498" />
  <metadata
     id="metadata164">
    <rdf:RDF>
      <cc:Work>
        <dc:type
           rdf:resource="http://purl.org/dc/dcmitype/StillImage" />
        <dc:date>2022-08-28T22:49:47.185086</dc:date>
        <dc:format>image/svg+xml</dc:format>
        <dc:creator>
          <cc:Agent>
            <dc:title>Matplotlib v3.3.4, https://matplotlib.org/</dc:title>
          </cc:Agent>
        </dc:creator>
      </cc:Work>
    </rdf:RDF>
  </metadata>
  <defs
     id="defs168">
    <style
       type="text/css"
       id="style166">*{stroke-linecap:butt;stroke-linejoin:round;}</style>
  </defs>
  <g
     id="patch_1">
    <path
       d="M 0,345.6 H 460.8 V 0 H 0 Z"
       style="fill:#ffffff"
       id="path170" />
  </g>
  <g
     id="patch_2">
    <path
       d="M 103.104,307.584 H 369.216 V 41.472 H 103.104 Z"
       style="fill:#ffffff"
       id="path173" />
  </g>
  <g
     id="LineCollection_1">
    <path
       clip-path="url(#p6929c46881)"
       d="m 230.02336,186.86132 h 20.1215 l 0.21311,-0.2131 v -26.10509 l -0.21311,-0.2131 h -26.10508 l -0.2131,0.2131 v 21.29164 0"
       style="fill:none;stroke:#4b0082;stroke-width:3"
       id="path424" />
  </g>
  <g
     id="LineCollection_2">
    <path
       clip-path="url(#p6929c46881)"
       d="m 241.68603,239.73594 3.83166,-0.0784 0.0987,-1.34187 4.52843,-0.0724 0.79914,-0.0496 2.66378,-0.0626 0.24021,-0.0718 0.0262,-1.60394 2.93016,-0.0626 0.53276,-0.0768 2.93016,-0.0992 0.0525,-0.0221 v -1.33189 l 0.48027,-0.0673 2.66378,-0.10124 0.20354,-0.0979 0.0628,-1.35605 2.93016,-0.11107 0.24079,-0.13115 0.0256,-1.34358 h 1.59827 l 0.26638,-0.12794 h 1.33189 l 0.20633,-0.12675 0.06,-1.36376 h 1.33189 l 0.26638,-0.15454 1.44791,-0.08 v -1.59827 l 0.15036,-0.0915 h 1.33189 l 0.24012,-0.17485 0.0263,-1.34961 h 1.59827 l 0.26638,-0.191 1.40292,-0.0577 v -1.33189 l 0.19535,-0.14936 h 1.33189 l 0.13607,-0.11702 v -1.33189 l 0.13031,-0.10923 h 1.33189 l 0.17216,-0.15715 0.0942,-1.41822 h 1.59827 l 0.18564,-0.18005 0.0807,-1.67901 h 1.33189 l 0.18005,-0.18564 0.0863,-1.42611 h 1.33189 l 0.15715,-0.17216 0.10923,-1.4622 h 1.33189 l 0.11702,-0.13607 v -1.33189 l 0.14936,-0.19535 1.38954,-0.071 v -1.59827 l 0.19101,-0.26637 0.0177,-1.35816 h 1.59827 l 0.17485,-0.24012 0.0915,-1.48225 h 1.33189 l 0.08,-0.11602 v -1.33189 l 0.15454,-0.26638 0.0319,-1.39194 h 1.33189 l 0.12675,-0.20633 v -1.59827 l 0.12794,-0.26637 0.0117,-1.35749 h 1.33189 l 0.13115,-0.24078 0.11107,-2.93017 0.0242,-0.0628 h 1.33189 l 0.0979,-0.20353 0.10124,-3.19655 0.0673,-0.21389 1.62042,-0.0525 0.0992,-2.93017 0.0768,-0.53275 0.0683,-2.68996 h 1.33189 l 0.0718,-0.50658 0.0626,-2.93017 0.0496,-0.79913 0.0824,-4.3608 h 1.33189 l 0.0255,-0.70039 -0.0255,-15.88396 -1.34187,-0.0987 -0.0724,-4.52844 -0.0496,-0.79913 -0.0626,-2.66378 -0.0718,-0.24021 -1.33757,-0.0262 -0.0626,-2.93016 -0.0768,-0.53276 -0.0992,-2.93016 -0.0221,-0.0525 h -1.59827 l -0.0673,-0.48027 -0.10124,-2.66378 -0.0979,-0.20354 -1.35605,-0.0628 -0.11107,-2.93016 -0.13115,-0.24079 -1.34358,-0.0256 v -1.59827 l -0.12794,-0.26638 v -1.33189 l -0.12675,-0.20633 -1.36376,-0.06 v -1.33189 l -0.15454,-0.26638 -0.08,-1.44791 h -1.33189 l -0.0915,-0.15036 v -1.33189 l -0.17485,-0.24012 -1.61599,-0.0263 v -1.59827 l -0.19101,-0.26638 -0.0577,-1.40292 h -1.33189 l -0.14936,-0.19535 v -1.33189 l -0.11702,-0.13607 h -1.33189 l -0.10923,-0.13031 v -1.33189 l -0.15715,-0.17216 -1.41822,-0.0942 v -1.59827 l -0.18005,-0.18564 -1.41263,-0.0807 v -1.33189 l -0.18564,-0.18005 -1.69249,-0.0863 v -1.33189 l -0.17216,-0.15715 -1.4622,-0.10923 v -1.33189 l -0.13607,-0.11702 h -1.33189 l -0.19535,-0.14936 -0.071,-1.38954 h -1.33189 l -0.26638,-0.19101 -1.62453,-0.0177 v -1.59827 l -0.24012,-0.17485 -1.48225,-0.0915 v -1.33189 l -0.11602,-0.08 h -1.33189 l -0.26638,-0.15454 -1.39194,-0.0319 v -1.33189 l -0.20633,-0.12675 h -1.33189 l -0.26638,-0.12794 -1.62386,-0.0117 v -1.33189 l -0.24079,-0.13114 -2.93016,-0.11108 -0.0628,-0.0242 v -1.33189 l -0.20354,-0.0979 -2.93016,-0.10124 -0.21389,-0.0673 -0.0525,-1.62042 -3.19654,-0.0991 -0.53275,-0.0768 -2.68996,-0.0683 v -1.33189 l -0.50659,-0.0718 -2.93016,-0.0626 -0.79913,-0.0496 -4.09442,-0.0824 v -1.33189 l -0.70039,-0.0255 -15.88396,0.0255 -0.0987,1.34187 -4.79481,0.0724 -0.79913,0.0496 -2.66379,0.0626 -0.2402,0.0718 -0.0262,1.33757 -2.93017,0.0626 -0.53275,0.0768 -2.66379,0.0991 -0.0525,0.0221 v 1.59827 l -0.48026,0.0673 -2.93017,0.10124 -0.20354,0.0979 -0.0628,1.35605 -2.93017,0.11108 -0.24078,0.13114 -0.0256,1.34358 h -1.3319 l -0.26637,0.12794 h -1.59828 l -0.20632,0.12675 -0.06,1.36376 h -1.3319 l -0.26637,0.15454 -1.44791,0.08 v 1.33189 l -0.15036,0.0915 h -1.3319 l -0.24011,0.17485 -0.0263,1.61599 h -1.3319 l -0.26637,0.19101 -1.66931,0.0577 v 1.33189 l -0.19534,0.14936 h -1.33189 l -0.13607,0.11702 v 1.33189 l -0.13031,0.10923 h -1.3319 l -0.17216,0.15715 -0.0942,1.41822 h -1.3319 l -0.18563,0.18005 -0.0807,1.41263 h -1.59827 l -0.18005,0.18564 -0.0863,1.69249 h -1.33189 l -0.15715,0.17216 -0.10923,1.4622 h -1.33189 l -0.11702,0.13607 v 1.33189 l -0.14936,0.19535 -1.38955,0.071 v 1.33189 l -0.191,0.26638 -0.0177,1.62453 h -1.3319 l -0.17484,0.24012 -0.0915,1.48225 h -1.59827 l -0.08,0.11602 v 1.33189 l -0.15454,0.26638 -0.0319,1.39194 h -1.33189 l -0.12676,0.20633 v 1.33189 l -0.12793,0.26638 -0.0117,1.62386 h -1.33189 l -0.13115,0.24079 -0.11108,2.93016 -0.0241,0.0628 h -1.33189 l -0.0979,0.20354 -0.10124,2.93016 -0.0673,0.21389 -1.35404,0.0525 -0.0992,3.19654 -0.0768,0.53275 -0.0683,2.68996 h -1.59827 l -0.0718,0.50658 -0.0626,2.93017 -0.0496,0.79913 -0.0824,4.09442 h -1.33189 l -0.0255,0.70039 0.0255,15.88396 1.34187,0.0987 0.0724,4.79482 0.0496,0.79913 0.0626,2.66378 0.0718,0.24021 1.60394,0.0262 0.0626,2.93017 0.0768,0.53275 0.0992,2.66379 0.0221,0.0525 h 1.3319 l 0.0673,0.48027 0.10124,2.93017 0.0979,0.20353 1.35604,0.0628 0.11108,2.93017 0.13115,0.24078 1.34358,0.0256 v 1.3319 l 0.12793,0.26637 v 1.59827 l 0.12676,0.20633 1.36376,0.06 v 1.33189 l 0.15454,0.26638 0.08,1.44791 h 1.59827 l 0.0915,0.15036 v 1.33189 l 0.17484,0.24012 1.34962,0.0263 v 1.3319 l 0.191,0.26637 0.0576,1.6693 h 1.3319 l 0.14936,0.19535 v 1.33189 l 0.11702,0.13607 h 1.33189 l 0.10923,0.13031 v 1.33189 l 0.15715,0.17216 1.41822,0.0942 v 1.33189 l 0.18005,0.18564 1.67901,0.0807 v 1.59827 l 0.18563,0.18005 1.42611,0.0863 v 1.33189 l 0.17216,0.15715 1.46221,0.10923 v 1.33189 l 0.13607,0.11702 h 1.33189 l 0.19534,0.14936 0.071,1.38955 h 1.59827 l 0.26637,0.191 1.35816,0.0177 v 1.33189 l 0.24011,0.17485 1.48226,0.0915 v 1.59827 l 0.11601,0.08 h 1.3319 l 0.26637,0.15454 1.39195,0.0319 v 1.33189 l 0.20632,0.12675 h 1.59828 l 0.26637,0.12794 1.35749,0.0117 v 1.33189 l 0.24078,0.13115 2.93017,0.11107 0.0628,0.0242 v 1.33189 l 0.20354,0.0979 3.19654,0.10124 0.21389,0.0673 0.0525,1.35404 2.93017,0.0992 0.53275,0.0768 2.68996,0.0683 v 1.59827 l 0.50658,0.0718 3.06459,0.0877 v 0"
       style="fill:none;stroke:#800080;stroke-width:3"
       id="path427" />
  </g>
  <g
     id="LineCollection_3">
    <path
       clip-path="url(#p6929c46881)"
       d="m 246.47966,269.49195 0.46915,-6e-5 v -1.59827 l 1.86416,-0.0489 4.79481,-0.0698 0.79914,-0.0458 2.58073,-0.10189 0.0831,-1.34655 4.79481,-0.11103 0.53276,-0.073 1.2694,-0.0676 0.0625,-1.34721 2.93016,-0.0693 0.53276,-0.0834 1.58254,-0.0984 0.0157,-1.33667 2.93016,-0.0832 0.53276,-0.10163 1.233,-0.0768 0.0989,-1.36747 3.19654,-0.10407 0.25379,-0.12673 0.0126,-1.60344 h 1.33189 l 0.53276,-0.1114 h 1.06551 l 0.26638,-0.14345 1.34297,-0.006 v -1.33189 l 0.2553,-0.1185 h 1.59827 l 0.25,-0.14788 0.0164,-1.34025 h 1.33189 l 0.26638,-0.13905 h 1.33189 l 0.18502,-0.11897 0.0814,-1.37749 h 1.33189 l 0.26638,-0.16409 1.41324,-0.0567 v -1.33189 l 0.18503,-0.11326 H 291.7 l 0.21212,-0.15312 0.0543,-1.63405 h 1.33189 l 0.26638,-0.18939 1.3847,-0.0412 v -1.33189 l 0.21357,-0.15277 h 1.33189 l 0.14012,-0.11361 v -1.33189 l 0.12626,-0.0965 h 1.33189 l 0.20142,-0.1699 0.065,-1.38477 h 1.59827 l 0.24295,-0.2135 0.0234,-1.61854 h 1.33189 l 0.26638,-0.24345 1.33472,-0.003 v -1.33189 l 0.26355,-0.24796 1.35068,-0.0184 v -1.33189 l 0.24759,-0.24759 1.35031,-0.0188 v -1.33189 l 0.24796,-0.26355 1.60093,-0.003 v -1.33189 l 0.24345,-0.26638 0.0203,-1.6217 h 1.33189 l 0.2135,-0.24295 0.0529,-1.39685 h 1.33189 l 0.1699,-0.20142 0.0965,-1.45815 h 1.33189 l 0.11361,-0.14012 v -1.33189 l 0.15277,-0.21357 1.63948,-0.0528 v -1.33189 l 0.18939,-0.26638 0.0358,-1.65253 h 1.33189 l 0.15312,-0.21212 v -1.33189 l 0.11326,-0.18503 1.38858,-0.0813 v -1.33189 l 0.16409,-0.26638 0.0456,-1.41325 h 1.33189 l 0.11897,-0.18502 v -1.33189 l 0.13904,-0.26638 0.008,-1.61465 h 1.33189 l 0.14788,-0.25 v -1.33189 l 0.1185,-0.2553 1.60463,-0.0111 v -1.33189 l 0.14345,-0.26638 v -1.33189 l 0.1114,-0.53275 0.005,-1.34448 h 1.33189 l 0.12673,-0.25379 0.10407,-2.93017 0.0356,-0.0989 h 1.33189 l 0.0768,-0.43386 0.10163,-2.66379 0.0832,-0.53275 0.005,-1.34763 h 1.33189 l 0.0984,-0.51702 0.0834,-2.66379 0.0693,-0.53275 0.0153,-1.12801 h 1.33189 l 0.0676,-0.47026 0.0731,-2.93017 0.06,-0.53275 0.0657,-2.74684 h 1.59827 l 0.0459,-0.4497 0.10181,-4.52844 0.038,-0.79913 0.0807,-4.26157 1.33195,-4.8e-4 -6e-5,-19.71249 h -1.33189 l -0.0489,-1.86416 -0.0698,-4.79481 -0.0458,-0.79914 -0.10189,-2.58073 -1.61293,-0.083 -0.11103,-4.79481 -0.0731,-0.53276 -0.0676,-1.2694 -1.34721,-0.0625 -0.0693,-2.93016 -0.0834,-0.53276 -0.0984,-1.58254 -1.33667,-0.0157 -0.0832,-2.93016 -0.10163,-0.53276 -0.0768,-1.233 -1.36747,-0.0989 -0.10407,-3.19654 -0.12673,-0.2538 -1.33706,-0.0126 v -1.33189 l -0.1114,-0.53276 v -1.06551 l -0.14345,-0.26638 -0.006,-1.34297 h -1.59827 l -0.1185,-0.2553 v -1.59827 l -0.14788,-0.25 -1.34026,-0.0164 v -1.33189 l -0.13904,-0.26638 v -1.33189 l -0.11897,-0.18502 -1.37749,-0.0814 v -1.33189 l -0.16409,-0.26638 -0.0567,-1.41324 h -1.33189 l -0.11326,-0.18503 v -1.59827 l -0.15312,-0.21212 -1.36767,-0.0543 v -1.33189 l -0.18939,-0.26638 -0.0412,-1.3847 h -1.59827 l -0.15277,-0.21357 v -1.33189 l -0.11361,-0.14012 h -1.33189 l -0.0965,-0.12626 v -1.33189 l -0.1699,-0.20142 -1.38477,-0.065 v -1.59827 l -0.2135,-0.24295 -1.35216,-0.0234 v -1.33189 l -0.24345,-0.26638 -0.003,-1.33472 h -1.59827 l -0.24796,-0.26355 -0.0184,-1.35068 h -1.33189 l -0.24759,-0.24759 -0.0188,-1.35031 h -1.33189 l -0.26355,-0.24796 -0.003,-1.60093 h -1.33189 l -0.26638,-0.24345 -1.35532,-0.0203 v -1.33189 l -0.24295,-0.2135 -1.66323,-0.0529 v -1.331892 l -0.20142,-0.169895 -1.45815,-0.09648 v -1.331892 l -0.14012,-0.113609 h -1.33189 l -0.21357,-0.15277 -0.0528,-1.63948 h -1.33189 l -0.26638,-0.189392 -1.38615,-0.03578 v -1.331892 l -0.21212,-0.153123 h -1.59827 L 289.9164,93.9483 289.8351,92.559715 h -1.33189 l -0.26638,-0.164086 -1.41325,-0.0456 v -1.331892 l -0.18502,-0.118967 h -1.33189 l -0.26638,-0.139045 -1.34827,-0.0084 v -1.331892 l -0.25,-0.147875 h -1.59827 l -0.2553,-0.118503 -0.0111,-1.604632 h -1.33189 l -0.26638,-0.143445 h -1.33189 l -0.53276,-0.111405 -1.0781,-0.0052 V 85.956881 L 276.78254,85.830154 273.586,85.72608 273.4871,85.6905 v -1.331892 l -0.43387,-0.07679 -2.66378,-0.101624 -0.53275,-0.08319 -1.08125,-0.0048 v -1.331892 l -0.51702,-0.09839 -2.93017,-0.08336 -0.53275,-0.06931 -1.12801,-0.01532 V 81.16204 l -0.47027,-0.06764 -2.66378,-0.07304 -0.53276,-0.05998 -3.01321,-0.06571 V 79.2974 l -0.4497,-0.04591 -4.26206,-0.101809 -0.79913,-0.038 -4.52795,-0.08066 -4.9e-4,-1.331954 -19.71248,6.2e-5 v 1.331892 l -1.86416,0.04888 -4.79482,0.06977 -0.79913,0.04583 -2.58073,0.101887 -0.0831,1.612934 -4.79482,0.111027 -0.53275,0.07304 -1.2694,0.06764 -0.0625,1.347213 -2.93017,0.06931 -0.53275,0.08336 -1.31616,0.09839 -0.0157,1.336668 -3.19655,0.08319 -0.53275,0.101624 -1.233,0.07679 -0.0989,1.367469 -2.93017,0.104074 -0.25379,0.126727 -0.0126,1.337059 h -1.59827 l -0.53276,0.111405 h -1.06551 l -0.26638,0.143445 -1.34297,0.0064 v 1.598271 l -0.2553,0.118503 h -1.3319 l -0.24999,0.147875 -0.0164,1.340258 h -1.59827 l -0.26638,0.139045 h -1.33189 l -0.18503,0.118967 -0.0813,1.377492 h -1.33189 l -0.26638,0.164086 -1.41324,0.05669 v 1.331892 l -0.18503,0.113255 h -1.3319 l -0.21211,0.153123 -0.0543,1.367668 h -1.59827 l -0.26638,0.189392 -1.3847,0.04121 v 1.59827 l -0.21357,0.15277 h -1.33189 l -0.14012,0.113609 v 1.331892 l -0.12626,0.09648 h -1.33189 l -0.20142,0.169895 -0.065,1.384774 h -1.3319 l -0.24294,0.2135 -0.0234,1.35216 h -1.59827 l -0.26638,0.24345 -1.33472,0.003 v 1.59827 l -0.26355,0.24796 -1.35069,0.0184 v 1.33189 l -0.24758,0.24759 -1.35031,0.0188 v 1.33189 l -0.24796,0.26355 -1.33456,0.003 v 1.33189 l -0.24344,0.26638 -0.0203,1.35532 h -1.59827 l -0.2135,0.24295 -0.0529,1.66323 h -1.33189 l -0.1699,0.20142 -0.0965,1.45815 h -1.33189 l -0.11361,0.14012 v 1.33189 l -0.15277,0.21357 -1.3731,0.0528 v 1.33189 l -0.1894,0.26638 -0.0358,1.38615 h -1.59827 l -0.15313,0.21212 v 1.59827 l -0.11325,0.18503 -1.38859,0.0814 v 1.33189 l -0.16408,0.26638 -0.0456,1.41325 h -1.33189 l -0.11897,0.18502 v 1.33189 l -0.13905,0.26638 -0.008,1.34827 h -1.33189 l -0.14788,0.25 v 1.59827 l -0.1185,0.2553 -1.33826,0.0111 v 1.33189 l -0.14344,0.26638 v 1.33189 l -0.11141,0.53275 -0.005,1.0781 h -1.59827 l -0.12673,0.2538 -0.10407,3.19654 -0.0356,0.0989 h -1.33189 l -0.0768,0.43386 -0.10162,2.66379 -0.0832,0.53275 -0.005,1.08125 h -1.33189 l -0.0984,0.51702 -0.0834,2.93017 -0.0693,0.53275 -0.0153,1.12801 h -1.33189 l -0.0677,0.47027 -0.073,2.66378 -0.06,0.53275 -0.0657,3.01322 h -1.33189 l -0.0459,0.4497 -0.1018,4.26206 -0.038,0.79913 -0.0807,4.52795 -1.59833,4.9e-4 6e-5,19.71248 h 1.59827 l 0.0489,1.86416 0.0698,4.79481 0.0458,0.79914 0.10189,2.58073 1.34655,0.083 0.11103,4.79481 0.073,0.53276 0.0677,1.2694 1.34721,0.0625 0.0693,2.93017 0.0834,0.53275 0.0984,1.31616 1.33667,0.0157 0.0832,3.19654 0.10162,0.53276 0.0768,1.233 1.36747,0.0989 0.10407,2.93017 0.12673,0.25379 1.60343,0.0126 v 1.59827 l 0.11141,0.53276 v 1.06551 l 0.14344,0.26638 0.006,1.34297 h 1.33189 l 0.1185,0.2553 v 1.33189 l 0.14788,0.25 1.34025,0.0164 v 1.59827 l 0.13905,0.26638 v 1.33189 l 0.11897,0.18502 1.37749,0.0814 v 1.33189 l 0.16408,0.26638 0.0567,1.41324 h 1.33189 l 0.11325,0.18503 v 1.33189 l 0.15313,0.21212 1.63404,0.0543 v 1.59827 l 0.1894,0.26638 0.0412,1.3847 h 1.33189 l 0.15277,0.21357 v 1.33189 l 0.11361,0.14012 h 1.33189 l 0.0965,0.12626 v 1.33189 l 0.1699,0.20142 1.38477,0.065 v 1.33189 l 0.2135,0.24295 1.61854,0.0234 v 1.59827 l 0.24344,0.26638 0.003,1.33472 h 1.33189 l 0.24796,0.26355 0.0184,1.35068 h 1.33189 l 0.24758,0.24759 0.0188,1.35031 h 1.33189 l 0.26355,0.24796 0.003,1.33455 h 1.33189 l 0.26638,0.24345 1.6217,0.0203 v 1.59827 l 0.24294,0.2135 1.39686,0.0529 v 1.33189 l 0.20142,0.1699 1.45815,0.0965 v 1.33189 l 0.14012,0.11361 h 1.33189 l 0.21357,0.15277 0.0528,1.3731 h 1.33189 l 0.26638,0.18939 1.65253,0.0358 v 1.59827 l 0.21211,0.15312 h 1.3319 l 0.18503,0.11326 0.0813,1.38858 h 1.3319 l 0.26638,0.16409 1.41324,0.0456 v 1.33189 l 0.18503,0.11897 h 1.33189 l 0.26638,0.13905 1.61465,0.008 v 1.33189 l 0.24999,0.14788 h 1.3319 l 0.2553,0.1185 0.0111,1.33825 h 1.3319 l 0.26638,0.14345 h 1.33189 l 0.53275,0.1114 1.34448,0.005 v 1.59827 l 0.25379,0.12673 2.93017,0.10407 0.0989,0.0356 v 1.33189 l 0.43386,0.0768 2.66379,0.10163 0.53275,0.0832 1.34763,0.005 v 1.33189 l 0.51702,0.0984 2.66379,0.0834 0.53275,0.0693 1.12801,0.0153 v 1.33189 l 0.47026,0.0676 2.93016,0.073 0.53276,0.06 2.74684,0.0657 v 1.33189 l 0.4497,0.0459 4.52843,0.10181 0.79914,0.038 4.26157,0.0807 4.8e-4,1.59833 h 0.46867 v 0"
       style="fill:none;stroke:#8b008b;stroke-width:3"
       id="path430" />
  </g>
  <g
     id="LineCollection_4">
    <path
       clip-path="url(#p6929c46881)"
       d="m 357.8334,161.00201 -0.0717,-2.58168 -1.33273,-0.008 -0.10245,-6.12671 -0.0457,-0.79913 -0.0545,-2.66378 -0.0629,-0.2556 -1.33379,-0.0108 -0.10466,-4.52843 -0.066,-0.53276 -0.0938,-2.96999 h -1.59827 l -0.0535,-0.49293 -0.0714,-2.66378 -0.0866,-0.53276 -0.0548,-1.21058 h -1.33189 l -0.0343,-0.38769 -0.0812,-2.93016 -0.0993,-0.53276 -0.0515,-1.18578 h -1.33189 l -0.0478,-0.41249 -0.0963,-2.93016 -0.12178,-0.53276 -5.5e-4,-1.06665 h -1.33189 l -0.098,-0.53162 v -1.06551 l -0.12149,-0.53276 -0.0469,-1.15639 h -1.33189 l -0.0719,-0.44188 v -1.06551 l -0.12627,-0.26638 -0.0682,-1.7222 h -1.59827 l -0.064,-0.40883 v -1.06551 l -0.13575,-0.26638 -0.0666,-1.44524 h -1.33189 l -0.0747,-0.15303 v -1.33189 l -0.1508,-0.26638 -0.0408,-1.39698 h -1.33189 l -0.10614,-0.20129 v -1.59827 l -0.16024,-0.24984 -1.34127,-0.0165 v -1.33189 l -0.1534,-0.26638 -0.1036,-1.48296 h -1.59827 l -0.0698,-0.11531 v -1.33189 l -0.18431,-0.26638 -0.0123,-1.34868 h -1.33189 l -0.16122,-0.24959 -0.10516,-1.73824 h -1.33189 l -0.0865,-0.12641 v -1.33189 l -0.17984,-0.23266 -1.35629,-0.0337 v -1.331892 l -0.20226,-0.266378 -0.0397,-1.380178 h -1.33189 l -0.16762,-0.218093 -0.0988,-1.714706 H 329.792 l -0.12126,-0.149942 v -1.331892 l -0.14512,-0.165789 -1.41735,-0.100589 v -1.331892 l -0.18092,-0.200118 -1.39094,-0.06626 V 91.018378 L 326.32908,90.79652 324.95562,90.752 v -1.331892 l -0.22481,-0.232591 -1.36492,-0.03379 v -1.598271 l -0.23335,-0.233352 -1.63206,-0.03303 v -1.331892 l -0.23259,-0.224813 -1.37641,-0.04157 v -1.331892 l -0.22186,-0.207333 -1.39815,-0.05904 v -1.331892 l -0.20012,-0.180921 -1.43248,-0.08546 v -1.331892 l -0.16579,-0.145114 h -1.33189 L 314.99125,80.896 v -1.59827 l -0.11644,-0.09876 h -1.59827 l -0.21809,-0.167618 -0.0483,-1.371615 h -1.33189 l -0.26638,-0.202251 -1.36561,-0.0244 v -1.331892 l -0.23266,-0.179841 -1.4583,-0.08654 v -1.331892 l -0.13997,-0.10516 h -1.59827 l -0.24959,-0.161218 -0.0168,-1.344159 h -1.33189 l -0.26638,-0.184312 -1.4472,-0.0698 V 71.04 l -0.15107,-0.103596 h -1.33189 l -0.26638,-0.153406 -1.34843,-0.0094 V 69.44173 l -0.24984,-0.160241 -1.79956,-0.106138 -0.0651,-1.372738 h -1.33189 l -0.26638,-0.1508 -1.48493,-0.07473 v -1.331892 l -0.11334,-0.06664 h -1.33189 l -0.26638,-0.135749 -1.47434,-0.06399 v -1.59827 l -0.12393,-0.06823 h -1.59827 l -0.26638,-0.126267 -1.50739,-0.07188 -0.0909,-1.37875 h -1.33189 l -0.53276,-0.12149 -1.33075,-0.09803 -10e-4,-1.332441 h -1.33189 l -0.53276,-0.121784 -2.93016,-0.09626 -0.14611,-0.04778 v -1.3319 l -0.38664,-0.05153 -2.66379,-0.09935 -0.53276,-0.08124 -1.4532,-0.03427 v -1.331892 l -0.41144,-0.05481 -2.66379,-0.08665 -0.53276,-0.07142 -1.29206,-0.05351 -0.0398,-1.611438 -3.19654,-0.08064 -0.53275,-0.06601 -4.27284,-0.10656 v -1.331891 l -0.52198,-0.06293 -4.52843,-0.10016 -0.79913,-0.03902 -4.0039,-0.06427 V 52.92627 l -0.79091,-0.03867 -7.72498,-0.0999 -2.3974,-0.02375 -17.3146,0.09066 -1.06551,0.033 -0.79091,0.03867 -0.008,1.332729 -6.39308,0.102449 -0.79913,0.04572 -2.66379,0.05444 -0.25559,0.06293 -0.0108,1.333788 -4.52844,0.104663 -0.53275,0.06601 -2.96999,0.09381 v 1.59827 l -0.49293,0.05351 -2.66379,0.07142 -0.53275,0.08665 -1.21059,0.05481 v 1.331892 l -0.38768,0.03427 -2.93016,0.08124 -0.53276,0.09935 -1.18578,0.05153 v 1.331892 l -0.41249,0.04778 -2.66379,0.09626 -0.53275,0.121784 -1.33303,5.49e-4 v 1.331892 l -0.53162,0.09803 h -1.06551 l -0.53276,0.12149 -1.15639,0.04686 v 1.331892 l -0.44188,0.07188 h -1.06552 l -0.26637,0.126267 -1.45582,0.06823 v 1.59827 l -0.40883,0.06399 h -1.33189 l -0.26638,0.135749 -1.44524,0.06664 v 1.331892 l -0.15303,0.07473 h -1.33189 l -0.26638,0.1508 -1.39699,0.04085 v 1.331892 l -0.20128,0.106138 h -1.3319 l -0.24984,0.160241 -0.0165,1.341268 h -1.59827 l -0.26638,0.153406 -1.48296,0.103596 v 1.59827 l -0.11531,0.0698 h -1.33189 l -0.26638,0.184312 -1.34868,0.01227 v 1.331892 l -0.24959,0.161218 -1.47186,0.10516 v 1.331892 l -0.12641,0.08654 h -1.59827 l -0.23266,0.179841 -0.0337,1.356296 h -1.33189 l -0.26638,0.202251 -1.38018,0.03972 v 1.331892 l -0.21809,0.167618 -1.44833,0.09876 V 80.896 l -0.14994,0.121264 h -1.59827 l -0.16579,0.145114 -0.10059,1.41735 h -1.33189 l -0.20012,0.180921 -0.0663,1.390938 h -1.33189 l -0.22186,0.207332 -0.0445,1.373457 h -1.33189 l -0.23259,0.224813 -0.0338,1.364918 h -1.33189 l -0.23336,0.233352 -0.033,1.632058 h -1.59827 l -0.22482,0.232591 -0.0416,1.376412 h -1.33189 l -0.20734,0.221858 -0.059,1.398153 h -1.33189 l -0.18092,0.200118 -0.0855,1.432481 h -1.33189 l -0.14512,0.165789 v 1.331892 l -0.12126,0.149942 h -1.33189 l -0.0988,0.116436 v 1.59827 l -0.16762,0.218093 -1.638,0.04829 v 1.331892 l -0.20225,0.266378 -0.0244,1.365608 h -1.33189 l -0.17984,0.23266 -0.0865,1.4583 h -1.33189 l -0.10516,0.13997 v 1.59827 l -0.16122,0.24959 -1.34416,0.0168 v 1.33189 l -0.18431,0.26638 -0.0698,1.4472 h -1.33189 l -0.1036,0.15107 v 1.33189 l -0.15341,0.26638 -0.009,1.34843 h -1.59827 l -0.16024,0.24984 -0.10614,1.79956 -1.37274,0.0651 v 1.33189 l -0.1508,0.26638 -0.0747,1.48493 h -1.33189 l -0.0666,0.11334 v 1.33189 l -0.13575,0.26638 -0.064,1.47434 h -1.33189 l -0.0682,0.12393 v 1.59827 l -0.12627,0.26638 -0.0719,1.50739 -1.64513,0.0909 v 1.33189 l -0.12149,0.53276 -0.098,1.33075 -1.33244,0.001 v 1.33189 l -0.12178,0.53276 -0.0963,2.93016 -0.0478,0.14612 h -1.33189 l -0.0515,0.38663 -0.0993,2.66379 -0.0812,0.53276 -0.0343,1.4532 h -1.33189 l -0.0548,0.41144 -0.0866,2.66379 -0.0714,0.53275 -0.0535,1.29208 -1.34505,0.0398 -0.0806,3.19654 -0.066,0.53275 -0.10657,4.27288 h -1.59827 l -0.0629,0.52193 -0.10016,4.52844 -0.039,0.79913 -0.0643,4.00412 h -1.33189 l -0.0386,0.79069 -0.0999,7.72498 -0.0238,2.3974 0.0906,17.3146 0.033,1.06551 0.0386,0.79069 1.33275,0.008 0.10244,6.39309 0.0457,0.79913 0.0544,2.66378 0.0629,0.25556 1.60017,0.0108 0.10467,4.52844 0.066,0.53275 0.0938,2.96998 h 1.33189 l 0.0535,0.49294 0.0714,2.66378 0.0866,0.53276 0.0548,1.21058 h 1.33189 l 0.0343,0.38769 0.0812,2.93016 0.0993,0.53276 0.0515,1.18577 h 1.33189 l 0.0478,0.4125 0.0963,2.66378 0.12178,0.53276 5.5e-4,1.33303 h 1.33189 l 0.098,0.53162 v 1.06551 l 0.12149,0.53276 0.0469,1.15639 h 1.59827 l 0.0719,0.44188 v 1.06551 l 0.12627,0.26638 0.0682,1.45582 h 1.33189 l 0.064,0.40883 v 1.33189 l 0.13575,0.26638 0.0666,1.44524 h 1.33189 l 0.0747,0.15303 v 1.33189 l 0.1508,0.26638 0.0409,1.39698 h 1.33189 l 0.10614,0.20129 v 1.33189 l 0.16024,0.24985 1.60764,0.0165 v 1.59827 l 0.15341,0.26638 0.1036,1.48296 h 1.33189 l 0.0698,0.11531 v 1.33189 l 0.18431,0.26638 0.0123,1.34868 h 1.33189 l 0.16122,0.24959 0.10516,1.47186 h 1.33189 l 0.0865,0.12641 v 1.59827 l 0.17984,0.23266 1.35629,0.0337 v 1.33189 l 0.20225,0.26638 0.0397,1.38018 h 1.59827 l 0.16762,0.21809 0.0988,1.44833 h 1.33189 l 0.12126,0.14994 v 1.59827 l 0.14512,0.16579 1.41735,0.10059 v 1.33189 l 0.18092,0.20012 1.39093,0.0663 v 1.33189 l 0.20734,0.22186 1.37345,0.0445 v 1.33189 l 0.22482,0.23259 1.63129,0.0338 v 1.33189 l 0.23336,0.23336 1.36568,0.033 v 1.59827 l 0.23259,0.22482 1.37641,0.0416 v 1.33189 l 0.22186,0.20733 1.39815,0.0591 v 1.33189 l 0.20012,0.18092 1.43248,0.0855 v 1.33189 l 0.16579,0.14512 h 1.59827 l 0.14994,0.12126 v 1.33189 l 0.11644,0.0988 h 1.33189 l 0.21809,0.16762 0.0483,1.63799 h 1.33189 l 0.26638,0.20226 1.36561,0.0244 v 1.33189 l 0.23266,0.17984 1.72468,0.0865 v 1.33189 l 0.13997,0.10516 h 1.33189 l 0.24959,0.16122 0.0168,1.34416 h 1.33189 l 0.26638,0.18431 1.4472,0.0698 v 1.33189 l 0.15107,0.1036 h 1.33189 l 0.26638,0.1534 1.6148,0.009 v 1.59827 l 0.24984,0.16024 1.53319,0.10614 0.0651,1.37274 h 1.33189 l 0.26638,0.1508 1.48492,0.0747 v 1.33189 l 0.11335,0.0666 h 1.33189 l 0.26638,0.13575 1.74072,0.064 v 1.33189 l 0.12392,0.0682 h 1.3319 l 0.26637,0.12627 1.5074,0.0719 0.0909,1.64513 h 1.33189 l 0.53275,0.12149 1.33076,0.098 0.001,1.33244 h 1.59827 l 0.53275,0.12178 2.66379,0.0963 0.14612,0.0478 v 1.33189 l 0.38663,0.0515 2.93017,0.0993 0.53275,0.0812 1.18683,0.0343 v 1.33189 l 0.41144,0.0548 2.66379,0.0866 0.53275,0.0714 1.29208,0.0535 0.0398,1.34505 3.19655,0.0806 0.53275,0.066 4.27288,0.10657 v 1.59827 l 0.52193,0.0629 4.52844,0.10016 0.79913,0.039 4.2705,0.0643 v 1.33189 l 0.79069,0.0386 7.45859,0.0999 2.39741,0.0237 17.31459,-0.0906 1.06552,-0.033 1.05707,-0.0386 0.008,-1.33275 6.12671,-0.10244 0.79913,-0.0457 2.66378,-0.0544 0.25556,-0.0629 0.0108,-1.60017 4.52843,-0.10467 0.53276,-0.066 2.96997,-0.0938 v -1.33189 l 0.49295,-0.0535 2.66378,-0.0714 0.53276,-0.0866 1.21057,-0.0548 V 287.872 l 0.3877,-0.0343 2.93016,-0.0812 0.53276,-0.0993 1.18577,-0.0515 v -1.33189 l 0.4125,-0.0478 2.93016,-0.0963 0.53276,-0.12178 1.06665,-5.5e-4 v -1.33189 l 0.53162,-0.098 h 1.06551 l 0.53276,-0.12149 1.15639,-0.0469 v -1.59827 l 0.44188,-0.0719 h 1.06551 l 0.26638,-0.12627 1.7222,-0.0682 v -1.33189 l 0.40883,-0.064 h 1.06551 l 0.26638,-0.13575 1.44523,-0.0666 v -1.33189 l 0.15304,-0.0747 h 1.33189 l 0.26638,-0.1508 1.39698,-0.0408 V 278.016 l 0.20129,-0.10614 h 1.59827 l 0.24984,-0.16024 0.0165,-1.60765 h 1.33189 l 0.26638,-0.1534 1.48296,-0.1036 v -1.33189 l 0.11531,-0.0698 h 1.33189 l 0.26638,-0.18431 1.34868,-0.0123 v -1.33189 l 0.24959,-0.16122 1.73824,-0.10516 v -1.33189 l 0.12641,-0.0865 h 1.33189 l 0.23266,-0.17984 0.0337,-1.35629 h 1.33189 l 0.26638,-0.20226 1.38018,-0.0397 v -1.59827 l 0.21809,-0.16762 1.71471,-0.0988 v -1.33189 l 0.14994,-0.12126 h 1.33189 l 0.16579,-0.14512 0.10059,-1.41735 h 1.33189 l 0.20012,-0.18092 0.0663,-1.39094 h 1.33189 l 0.22186,-0.20733 0.0445,-1.37345 h 1.33189 l 0.23259,-0.22482 0.0338,-1.63129 h 1.59827 l 0.23335,-0.23336 0.033,-1.36568 h 1.33189 l 0.22481,-0.23259 0.0416,-1.37641 h 1.33189 l 0.20733,-0.22186 0.0591,-1.39815 h 1.33189 l 0.18092,-0.20012 0.0855,-1.43248 h 1.33189 l 0.14512,-0.16579 v -1.59827 l 0.12126,-0.14994 h 1.59827 l 0.0988,-0.11644 v -1.33189 l 0.16762,-0.21809 1.37161,-0.0483 v -1.33189 l 0.20226,-0.26638 0.0244,-1.36561 h 1.33189 l 0.17984,-0.23266 0.0865,-1.72468 h 1.33189 l 0.10516,-0.13997 v -1.33189 l 0.16122,-0.24959 1.34416,-0.0168 v -1.33189 l 0.18431,-0.26638 0.0698,-1.4472 h 1.59827 l 0.1036,-0.15107 v -1.33189 l 0.1534,-0.26638 0.009,-1.6148 h 1.33189 l 0.16024,-0.24985 0.10614,-1.53318 1.37274,-0.0651 v -1.33189 l 0.1508,-0.26638 0.0747,-1.48492 h 1.33189 l 0.0666,-0.11335 v -1.33189 l 0.13575,-0.26638 0.064,-1.74072 h 1.59827 l 0.0682,-0.12393 v -1.33189 l 0.12627,-0.26638 0.0719,-1.50739 1.37875,-0.0909 v -1.33189 l 0.12149,-0.53275 0.098,-1.33076 1.33244,-0.001 v -1.59827 l 0.12178,-0.53275 0.0963,-2.66379 0.0478,-0.14611 h 1.33189 l 0.0515,-0.38664 0.0993,-2.93017 0.0812,-0.53275 0.0343,-1.18683 h 1.33189 l 0.0548,-0.41144 0.0866,-2.66379 0.0714,-0.53275 0.0535,-1.29207 1.61144,-0.0398 0.0806,-3.19654 0.066,-0.53275 0.10656,-4.27284 h 1.33189 l 0.0629,-0.52197 0.10016,-4.52844 0.039,-0.79913 0.0643,-4.27028 h 1.33189 l 0.0387,-0.79091 0.033,-1.52439 v 0"
       style="fill:none;stroke:#bf00bf;stroke-width:3"
       id="path433" />
  </g>
  <g
     id="patch_3">
    <path
       d="M 103.104,307.584 V 41.472"
       style="fill:none;stroke:#000000;stroke-width:0.8;stroke-linecap:square;stroke-linejoin:miter"
       id="path436" />
  </g>
  <g
     id="patch_4">
    <path
       d="M 369.216,307.584 V 41.472"
       style="fill:none;stroke:#000000;stroke-width:0.8;stroke-linecap:square;stroke-linejoin:miter"
       id="path439" />
  </g>
  <g
     id="patch_5">
    <path
       d="M 103.104,307.584 H 369.216"
       style="fill:none;stroke:#000000;stroke-width:0.8;stroke-linecap:square;stroke-linejoin:miter"
       id="path442" />
  </g>
  <g
     id="patch_6">
    <path
       d="M 103.104,41.472 H 369.216"
       style="fill:none;stroke:#000000;stroke-width:0.8;stroke-linecap:square;stroke-linejoin:miter"
       id="path445" />
  </g>
  <g
     id="text_17">
    <g
       clip-path="url(#p6929c46881)"
       id="g452">
      <!-- 0 -->
      <g
         style="fill:#4b0082"
         transform="matrix(0.09571659,0.028954,0.028954,-0.09571659,221.26136,188.5814)"
         id="g450">
        <path
           d="m 31.78125,3.421875 q 7.484375,0 11.1875,8.203125 3.71875,8.203125 3.71875,24.75 0,16.609375 -3.71875,24.8125 -3.703125,8.203125 -11.1875,8.203125 -7.46875,0 -11.1875,-8.203125 -3.703125,-8.203125 -3.703125,-24.8125 0,-16.546875 3.703125,-24.75 3.71875,-8.203125 11.1875,-8.203125 z m 0,-4.84375 Q 19.921875,-1.421875 13.25,8.53125 6.59375,18.5 6.59375,36.375 q 0,17.921875 6.65625,27.875 6.671875,9.96875 18.53125,9.96875 11.921875,0 18.5625,-9.96875 6.640625,-9.953125 6.640625,-27.875 0,-17.875 -6.640625,-27.84375 -6.640625,-9.953125 -18.5625,-9.953125 z"
           id="use448" />
      </g>
    </g>
  </g>
  <g
     id="text_18">
    <g
       clip-path="url(#p6929c46881)"
       id="g463">
      <!-- 100 -->
      <g
         style="fill:#800080"
         transform="matrix(0.09961476,0.00876929,0.00876929,-0.09961476,222.54855,241.64777)"
         id="g461">
        <path
           d="M 14.203125,0 V 5.171875 H 26.90625 v 60.65625 l -14.703125,-9.53125 v 6.40625 L 29.984375,74.21875 H 36.71875 V 5.171875 H 49.421875 V 0 Z"
           id="use455" />
        <path
           d="m 95.404297,3.421875 q 7.484373,0 11.187503,8.203125 3.71875,8.203125 3.71875,24.75 0,16.609375 -3.71875,24.8125 -3.70313,8.203125 -11.187503,8.203125 -7.46875,0 -11.1875,-8.203125 -3.703125,-8.203125 -3.703125,-24.8125 0,-16.546875 3.703125,-24.75 3.71875,-8.203125 11.1875,-8.203125 z m 0,-4.84375 q -11.859375,0 -18.53125,9.953125 -6.65625,9.96875 -6.65625,27.84375 0,17.921875 6.65625,27.875 6.671875,9.96875 18.53125,9.96875 11.921873,0 18.562503,-9.96875 6.64062,-9.953125 6.64062,-27.875 0,-17.875 -6.64062,-27.84375 -6.64063,-9.953125 -18.562503,-9.953125 z"
           id="use457" />
        <path
           d="m 159.02734,3.421875 q 7.48438,0 11.1875,8.203125 3.71875,8.203125 3.71875,24.75 0,16.609375 -3.71875,24.8125 -3.70312,8.203125 -11.1875,8.203125 -7.46875,0 -11.1875,-8.203125 -3.70312,-8.203125 -3.70312,-24.8125 0,-16.546875 3.70312,-24.75 3.71875,-8.203125 11.1875,-8.203125 z m 0,-4.84375 q -11.85937,0 -18.53125,9.953125 -6.65625,9.96875 -6.65625,27.84375 0,17.921875 6.65625,27.875 6.67188,9.96875 18.53125,9.96875 11.92188,0 18.5625,-9.96875 6.64063,-9.953125 6.64063,-27.875 0,-17.875 -6.64063,-27.84375 -6.64062,-9.953125 -18.5625,-9.953125 z"
           id="use459" />
      </g>
    </g>
  </g>
  <g
     id="text_19">
    <g
       clip-path="url(#p6929c46881)"
       id="g474">
      <!-- 200 -->
      <g
         style="fill:#8b008b"
         transform="matrix(0.1,0,0,-0.1,227.54857,272.33174)"
         id="g472">
        <path
           d="M 12.796875,55.515625 H 7.328125 V 68.5 q 5.21875,2.796875 10.515625,4.25 5.296875,1.46875 10.375,1.46875 11.375,0 17.96875,-5.515625 6.59375,-5.515625 6.59375,-14.984375 0,-10.703125 -14.9375,-25.59375 Q 36.671875,27 36.078125,26.421875 L 17.671875,8.015625 H 48.09375 V 17 H 53.8125 V 0 H 6.78125 v 5.328125 l 22.125,22.0625 q 7.328125,7.328125 10.453125,13.453125 3.125,6.125 3.125,12.875 0,7.359375 -3.84375,11.515625 -3.828125,4.15625 -10.5625,4.15625 -6.984375,0 -10.796875,-3.46875 -3.796875,-3.46875 -4.484375,-10.40625 z"
           id="use466" />
        <path
           d="m 95.404297,3.421875 q 7.484373,0 11.187503,8.203125 3.71875,8.203125 3.71875,24.75 0,16.609375 -3.71875,24.8125 -3.70313,8.203125 -11.187503,8.203125 -7.46875,0 -11.1875,-8.203125 -3.703125,-8.203125 -3.703125,-24.8125 0,-16.546875 3.703125,-24.75 3.71875,-8.203125 11.1875,-8.203125 z m 0,-4.84375 q -11.859375,0 -18.53125,9.953125 -6.65625,9.96875 -6.65625,27.84375 0,17.921875 6.65625,27.875 6.671875,9.96875 18.53125,9.96875 11.921873,0 18.562503,-9.96875 6.64062,-9.953125 6.64062,-27.875 0,-17.875 -6.64062,-27.84375 -6.64063,-9.953125 -18.562503,-9.953125 z"
           id="use468" />
        <path
           d="m 159.02734,3.421875 q 7.48438,0 11.1875,8.203125 3.71875,8.203125 3.71875,24.75 0,16.609375 -3.71875,24.8125 -3.70312,8.203125 -11.1875,8.203125 -7.46875,0 -11.1875,-8.203125 -3.70312,-8.203125 -3.70312,-24.8125 0,-16.546875 3.70312,-24.75 3.71875,-8.203125 11.1875,-8.203125 z m 0,-4.84375 q -11.85937,0 -18.53125,9.953125 -6.65625,9.96875 -6.65625,27.84375 0,17.921875 6.65625,27.875 6.67188,9.96875 18.53125,9.96875 11.92188,0 18.5625,-9.96875 6.64063,-9.953125 6.64063,-27.875 0,-17.875 -6.64063,-27.84375 -6.64062,-9.953125 -18.5625,-9.953125 z"
           id="use470" />
      </g>
    </g>
  </g>
  <g
     id="text_20">
    <g
       clip-path="url(#p6929c46881)"
       id="g488">
      <!-- 300 -->
      <g
         style="fill:#bf00bf"
         transform="matrix(0,0.1,0.1,0,355.17453,164.05193)"
         id="g486">
        <defs
           id="defs478">
          <path
             d="m 9.71875,69.828125 q 5.71875,2.140625 10.953125,3.265625 5.25,1.125 9.84375,1.125 10.703125,0 16.703125,-4.625 6,-4.609375 6,-12.8125 0,-6.578125 -4.15625,-11 -4.140625,-4.421875 -11.75,-5.984375 8.984375,-1.265625 13.9375,-6.515625 4.953125,-5.25 4.953125,-13.609375 0,-10.203125 -6.859375,-15.65625 -6.859375,-5.4375 -19.75,-5.4375 -5.71875,0 -11.171875,1.234375 Q 12.984375,1.03125 7.625,3.515625 v 14.15625 h 5.46875 q 0.484375,-7.03125 4.734375,-10.640625 4.25,-3.609375 11.953125,-3.609375 7.46875,0 11.796875,4.3125 4.328125,4.328125 4.328125,11.84375 0,8.59375 -4.453125,13.015625 -4.4375,4.421875 -13.03125,4.421875 H 23.78125 V 42 h 2.4375 q 8.546875,0 12.8125,3.53125 4.28125,3.546875 4.28125,10.671875 0,6.390625 -3.515625,9.78125 -3.515625,3.40625 -10.109375,3.40625 -6.59375,0 -10.234375,-3.125 -3.625,-3.125 -4.265625,-9.28125 H 9.71875 Z"
             id="DejaVuSerif-51" />
        </defs>
        <use
           xlink:href="#DejaVuSerif-51"
           id="use480" />
        <path
           d="m 95.404297,3.421875 q 7.484373,0 11.187503,8.203125 3.71875,8.203125 3.71875,24.75 0,16.609375 -3.71875,24.8125 -3.70313,8.203125 -11.187503,8.203125 -7.46875,0 -11.1875,-8.203125 -3.703125,-8.203125 -3.703125,-24.8125 0,-16.546875 3.703125,-24.75 3.71875,-8.203125 11.1875,-8.203125 z m 0,-4.84375 q -11.859375,0 -18.53125,9.953125 -6.65625,9.96875 -6.65625,27.84375 0,17.921875 6.65625,27.875 6.671875,9.96875 18.53125,9.96875 11.921873,0 18.562503,-9.96875 6.64062,-9.953125 6.64062,-27.875 0,-17.875 -6.64062,-27.84375 -6.64063,-9.953125 -18.562503,-9.953125 z"
           id="use482" />
        <path
           d="m 159.02734,3.421875 q 7.48438,0 11.1875,8.203125 3.71875,8.203125 3.71875,24.75 0,16.609375 -3.71875,24.8125 -3.70312,8.203125 -11.1875,8.203125 -7.46875,0 -11.1875,-8.203125 -3.70312,-8.203125 -3.70312,-24.8125 0,-16.546875 3.70312,-24.75 3.71875,-8.203125 11.1875,-8.203125 z m 0,-4.84375 q -11.85937,0 -18.53125,9.953125 -6.65625,9.96875 -6.65625,27.84375 0,17.921875 6.65625,27.875 6.67188,9.96875 18.53125,9.96875 11.92188,0 18.5625,-9.96875 6.64063,-9.953125 6.64063,-27.875 0,-17.875 -6.64063,-27.84375 -6.64062,-9.953125 -18.5625,-9.953125 z"
           id="use484" />
      </g>
    </g>
  </g>
  <defs
     id="defs496">
    <clipPath
       id="p6929c46881">
      <rect
         height="266.112"
         width="266.112"
         x="103.104"
         y="41.472"
         id="rect493" />
    </clipPath>
  </defs>
</svg>
