<?xml version="1.0" encoding="utf-8" standalone="no"?>
<!DOCTYPE svg PUBLIC "-//W3C//DTD SVG 1.1//EN"
  "http://www.w3.org/Graphics/SVG/1.1/DTD/svg11.dtd">
<!-- Created with matplotlib (https://matplotlib.org/) -->
<svg height="345.6pt" version="1.1" viewBox="0 0 460.8 345.6" width="460.8pt" xmlns="http://www.w3.org/2000/svg" xmlns:xlink="http://www.w3.org/1999/xlink">
 <metadata>
  <rdf:RDF xmlns:cc="http://creativecommons.org/ns#" xmlns:dc="http://purl.org/dc/elements/1.1/" xmlns:rdf="http://www.w3.org/1999/02/22-rdf-syntax-ns#">
   <cc:Work>
    <dc:type rdf:resource="http://purl.org/dc/dcmitype/StillImage"/>
    <dc:date>2022-08-28T21:48:48.230027</dc:date>
    <dc:format>image/svg+xml</dc:format>
    <dc:creator>
     <cc:Agent>
      <dc:title>Matplotlib v3.3.4, https://matplotlib.org/</dc:title>
     </cc:Agent>
    </dc:creator>
   </cc:Work>
  </rdf:RDF>
 </metadata>
 <defs>
  <style type="text/css">*{stroke-linecap:butt;stroke-linejoin:round;}</style>
 </defs>
 <g id="figure_1">
  <g id="patch_1">
   <path d="M 0 345.6 
L 460.8 345.6 
L 460.8 0 
L 0 0 
z
" style="fill:#ffffff;"/>
  </g>
  <g id="axes_1">
   <g id="patch_2">
    <path d="M 103.104 307.584 
L 369.216 307.584 
L 369.216 41.472 
L 103.104 41.472 
z
" style="fill:#ffffff;"/>
   </g>
   <g id="matplotlib.axis_1">
    <g id="xtick_1">
     <g id="line2d_1">
      <defs>
       <path d="M 0 0 
L 0 3.5 
" id="m4af959bd13" style="stroke:#000000;stroke-width:0.8;"/>
      </defs>
      <g>
       <use style="stroke:#000000;stroke-width:0.8;" x="103.932091" xlink:href="#m4af959bd13" y="307.584"/>
      </g>
     </g>
     <g id="text_1">
      <!-- 0 -->
      <g transform="translate(100.750841 322.182437)scale(0.1 -0.1)">
       <defs>
        <path d="M 31.78125 3.421875 
Q 39.265625 3.421875 42.96875 11.625 
Q 46.6875 19.828125 46.6875 36.375 
Q 46.6875 52.984375 42.96875 61.1875 
Q 39.265625 69.390625 31.78125 69.390625 
Q 24.3125 69.390625 20.59375 61.1875 
Q 16.890625 52.984375 16.890625 36.375 
Q 16.890625 19.828125 20.59375 11.625 
Q 24.3125 3.421875 31.78125 3.421875 
z
M 31.78125 -1.421875 
Q 19.921875 -1.421875 13.25 8.53125 
Q 6.59375 18.5 6.59375 36.375 
Q 6.59375 54.296875 13.25 64.25 
Q 19.921875 74.21875 31.78125 74.21875 
Q 43.703125 74.21875 50.34375 64.25 
Q 56.984375 54.296875 56.984375 36.375 
Q 56.984375 18.5 50.34375 8.53125 
Q 43.703125 -1.421875 31.78125 -1.421875 
z
" id="DejaVuSerif-48"/>
       </defs>
       <use xlink:href="#DejaVuSerif-48"/>
      </g>
     </g>
    </g>
    <g id="xtick_2">
     <g id="line2d_2">
      <g>
       <use style="stroke:#000000;stroke-width:0.8;" x="145.336639" xlink:href="#m4af959bd13" y="307.584"/>
      </g>
     </g>
     <g id="text_2">
      <!-- 25 -->
      <g transform="translate(138.974139 322.182437)scale(0.1 -0.1)">
       <defs>
        <path d="M 12.796875 55.515625 
L 7.328125 55.515625 
L 7.328125 68.5 
Q 12.546875 71.296875 17.84375 72.75 
Q 23.140625 74.21875 28.21875 74.21875 
Q 39.59375 74.21875 46.1875 68.703125 
Q 52.78125 63.1875 52.78125 53.71875 
Q 52.78125 43.015625 37.84375 28.125 
Q 36.671875 27 36.078125 26.421875 
L 17.671875 8.015625 
L 48.09375 8.015625 
L 48.09375 17 
L 53.8125 17 
L 53.8125 0 
L 6.78125 0 
L 6.78125 5.328125 
L 28.90625 27.390625 
Q 36.234375 34.71875 39.359375 40.84375 
Q 42.484375 46.96875 42.484375 53.71875 
Q 42.484375 61.078125 38.640625 65.234375 
Q 34.8125 69.390625 28.078125 69.390625 
Q 21.09375 69.390625 17.28125 65.921875 
Q 13.484375 62.453125 12.796875 55.515625 
z
" id="DejaVuSerif-50"/>
        <path d="M 50.296875 72.90625 
L 50.296875 64.890625 
L 16.890625 64.890625 
L 16.890625 44 
Q 19.4375 45.75 22.828125 46.625 
Q 26.21875 47.515625 30.421875 47.515625 
Q 42.234375 47.515625 49.0625 40.96875 
Q 55.90625 34.421875 55.90625 23.09375 
Q 55.90625 11.53125 49 5.046875 
Q 42.09375 -1.421875 29.59375 -1.421875 
Q 24.5625 -1.421875 19.28125 -0.1875 
Q 14.015625 1.03125 8.5 3.515625 
L 8.5 17.671875 
L 14.015625 17.671875 
Q 14.453125 10.75 18.421875 7.078125 
Q 22.40625 3.421875 29.59375 3.421875 
Q 37.3125 3.421875 41.453125 8.5 
Q 45.609375 13.578125 45.609375 23.09375 
Q 45.609375 32.5625 41.484375 37.609375 
Q 37.359375 42.671875 29.59375 42.671875 
Q 25.203125 42.671875 21.84375 41.109375 
Q 18.5 39.546875 15.921875 36.28125 
L 11.71875 36.28125 
L 11.71875 72.90625 
z
" id="DejaVuSerif-53"/>
       </defs>
       <use xlink:href="#DejaVuSerif-50"/>
       <use x="63.623047" xlink:href="#DejaVuSerif-53"/>
      </g>
     </g>
    </g>
    <g id="xtick_3">
     <g id="line2d_3">
      <g>
       <use style="stroke:#000000;stroke-width:0.8;" x="186.741187" xlink:href="#m4af959bd13" y="307.584"/>
      </g>
     </g>
     <g id="text_3">
      <!-- 50 -->
      <g transform="translate(180.378687 322.182437)scale(0.1 -0.1)">
       <use xlink:href="#DejaVuSerif-53"/>
       <use x="63.623047" xlink:href="#DejaVuSerif-48"/>
      </g>
     </g>
    </g>
    <g id="xtick_4">
     <g id="line2d_4">
      <g>
       <use style="stroke:#000000;stroke-width:0.8;" x="228.145736" xlink:href="#m4af959bd13" y="307.584"/>
      </g>
     </g>
     <g id="text_4">
      <!-- 75 -->
      <g transform="translate(221.783236 322.182437)scale(0.1 -0.1)">
       <defs>
        <path d="M 56.390625 67.921875 
L 27.875 0 
L 20.609375 0 
L 47.796875 64.890625 
L 14.109375 64.890625 
L 14.109375 55.90625 
L 8.40625 55.90625 
L 8.40625 72.90625 
L 56.390625 72.90625 
z
" id="DejaVuSerif-55"/>
       </defs>
       <use xlink:href="#DejaVuSerif-55"/>
       <use x="63.623047" xlink:href="#DejaVuSerif-53"/>
      </g>
     </g>
    </g>
    <g id="xtick_5">
     <g id="line2d_5">
      <g>
       <use style="stroke:#000000;stroke-width:0.8;" x="269.550284" xlink:href="#m4af959bd13" y="307.584"/>
      </g>
     </g>
     <g id="text_5">
      <!-- 100 -->
      <g transform="translate(260.006534 322.182437)scale(0.1 -0.1)">
       <defs>
        <path d="M 14.203125 0 
L 14.203125 5.171875 
L 26.90625 5.171875 
L 26.90625 65.828125 
L 12.203125 56.296875 
L 12.203125 62.703125 
L 29.984375 74.21875 
L 36.71875 74.21875 
L 36.71875 5.171875 
L 49.421875 5.171875 
L 49.421875 0 
z
" id="DejaVuSerif-49"/>
       </defs>
       <use xlink:href="#DejaVuSerif-49"/>
       <use x="63.623047" xlink:href="#DejaVuSerif-48"/>
       <use x="127.246094" xlink:href="#DejaVuSerif-48"/>
      </g>
     </g>
    </g>
    <g id="xtick_6">
     <g id="line2d_6">
      <g>
       <use style="stroke:#000000;stroke-width:0.8;" x="310.954832" xlink:href="#m4af959bd13" y="307.584"/>
      </g>
     </g>
     <g id="text_6">
      <!-- 125 -->
      <g transform="translate(301.411082 322.182437)scale(0.1 -0.1)">
       <use xlink:href="#DejaVuSerif-49"/>
       <use x="63.623047" xlink:href="#DejaVuSerif-50"/>
       <use x="127.246094" xlink:href="#DejaVuSerif-53"/>
      </g>
     </g>
    </g>
    <g id="xtick_7">
     <g id="line2d_7">
      <g>
       <use style="stroke:#000000;stroke-width:0.8;" x="352.35938" xlink:href="#m4af959bd13" y="307.584"/>
      </g>
     </g>
     <g id="text_7">
      <!-- 150 -->
      <g transform="translate(342.81563 322.182437)scale(0.1 -0.1)">
       <use xlink:href="#DejaVuSerif-49"/>
       <use x="63.623047" xlink:href="#DejaVuSerif-53"/>
       <use x="127.246094" xlink:href="#DejaVuSerif-48"/>
      </g>
     </g>
    </g>
   </g>
   <g id="matplotlib.axis_2">
    <g id="ytick_1">
     <g id="line2d_8">
      <defs>
       <path d="M 0 0 
L -3.5 0 
" id="md8c6ff175a" style="stroke:#000000;stroke-width:0.8;"/>
      </defs>
      <g>
       <use style="stroke:#000000;stroke-width:0.8;" x="103.104" xlink:href="#md8c6ff175a" y="306.755909"/>
      </g>
     </g>
     <g id="text_8">
      <!-- 0 -->
      <g transform="translate(89.7415 310.555128)scale(0.1 -0.1)">
       <use xlink:href="#DejaVuSerif-48"/>
      </g>
     </g>
    </g>
    <g id="ytick_2">
     <g id="line2d_9">
      <g>
       <use style="stroke:#000000;stroke-width:0.8;" x="103.104" xlink:href="#md8c6ff175a" y="273.63227"/>
      </g>
     </g>
     <g id="text_9">
      <!-- 20 -->
      <g transform="translate(83.379 277.431489)scale(0.1 -0.1)">
       <use xlink:href="#DejaVuSerif-50"/>
       <use x="63.623047" xlink:href="#DejaVuSerif-48"/>
      </g>
     </g>
    </g>
    <g id="ytick_3">
     <g id="line2d_10">
      <g>
       <use style="stroke:#000000;stroke-width:0.8;" x="103.104" xlink:href="#md8c6ff175a" y="240.508632"/>
      </g>
     </g>
     <g id="text_10">
      <!-- 40 -->
      <g transform="translate(83.379 244.307851)scale(0.1 -0.1)">
       <defs>
        <path d="M 34.90625 24.703125 
L 34.90625 63.484375 
L 10.015625 24.703125 
z
M 56.390625 0 
L 23.1875 0 
L 23.1875 5.171875 
L 34.90625 5.171875 
L 34.90625 19.484375 
L 3.078125 19.484375 
L 3.078125 24.8125 
L 35.015625 74.21875 
L 44.671875 74.21875 
L 44.671875 24.703125 
L 58.59375 24.703125 
L 58.59375 19.484375 
L 44.671875 19.484375 
L 44.671875 5.171875 
L 56.390625 5.171875 
z
" id="DejaVuSerif-52"/>
       </defs>
       <use xlink:href="#DejaVuSerif-52"/>
       <use x="63.623047" xlink:href="#DejaVuSerif-48"/>
      </g>
     </g>
    </g>
    <g id="ytick_4">
     <g id="line2d_11">
      <g>
       <use style="stroke:#000000;stroke-width:0.8;" x="103.104" xlink:href="#md8c6ff175a" y="207.384993"/>
      </g>
     </g>
     <g id="text_11">
      <!-- 60 -->
      <g transform="translate(83.379 211.184212)scale(0.1 -0.1)">
       <defs>
        <path d="M 32.71875 3.421875 
Q 39.59375 3.421875 43.296875 8.46875 
Q 47.015625 13.53125 47.015625 23 
Q 47.015625 32.46875 43.296875 37.515625 
Q 39.59375 42.578125 32.71875 42.578125 
Q 25.734375 42.578125 22.0625 37.6875 
Q 18.40625 32.8125 18.40625 23.578125 
Q 18.40625 13.875 22.109375 8.640625 
Q 25.828125 3.421875 32.71875 3.421875 
z
M 16.796875 40.140625 
Q 20.125 43.796875 24.3125 45.59375 
Q 28.515625 47.40625 33.796875 47.40625 
Q 44.671875 47.40625 51 40.859375 
Q 57.328125 34.328125 57.328125 23 
Q 57.328125 11.921875 50.515625 5.25 
Q 43.703125 -1.421875 32.328125 -1.421875 
Q 19.96875 -1.421875 13.328125 7.78125 
Q 6.6875 17 6.6875 34.078125 
Q 6.6875 53.21875 14.546875 63.71875 
Q 22.40625 74.21875 36.71875 74.21875 
Q 40.578125 74.21875 44.828125 73.484375 
Q 49.078125 72.75 53.515625 71.296875 
L 53.515625 59.28125 
L 48 59.28125 
Q 47.40625 64.203125 44.234375 66.796875 
Q 41.0625 69.390625 35.6875 69.390625 
Q 26.21875 69.390625 21.578125 62.203125 
Q 16.9375 55.03125 16.796875 40.140625 
z
" id="DejaVuSerif-54"/>
       </defs>
       <use xlink:href="#DejaVuSerif-54"/>
       <use x="63.623047" xlink:href="#DejaVuSerif-48"/>
      </g>
     </g>
    </g>
    <g id="ytick_5">
     <g id="line2d_12">
      <g>
       <use style="stroke:#000000;stroke-width:0.8;" x="103.104" xlink:href="#md8c6ff175a" y="174.261355"/>
      </g>
     </g>
     <g id="text_12">
      <!-- 80 -->
      <g transform="translate(83.379 178.060573)scale(0.1 -0.1)">
       <defs>
        <path d="M 46.578125 19.921875 
Q 46.578125 27.734375 42.6875 32.046875 
Q 38.8125 36.375 31.78125 36.375 
Q 24.75 36.375 20.875 32.046875 
Q 17 27.734375 17 19.921875 
Q 17 12.0625 20.875 7.734375 
Q 24.75 3.421875 31.78125 3.421875 
Q 38.8125 3.421875 42.6875 7.734375 
Q 46.578125 12.0625 46.578125 19.921875 
z
M 44.578125 55.328125 
Q 44.578125 61.96875 41.203125 65.671875 
Q 37.84375 69.390625 31.78125 69.390625 
Q 25.78125 69.390625 22.390625 65.671875 
Q 19 61.96875 19 55.328125 
Q 19 48.640625 22.390625 44.921875 
Q 25.78125 41.21875 31.78125 41.21875 
Q 37.84375 41.21875 41.203125 44.921875 
Q 44.578125 48.640625 44.578125 55.328125 
z
M 39.3125 38.8125 
Q 47.609375 37.703125 52.25 32.6875 
Q 56.890625 27.6875 56.890625 19.921875 
Q 56.890625 9.671875 50.390625 4.125 
Q 43.890625 -1.421875 31.78125 -1.421875 
Q 19.734375 -1.421875 13.203125 4.125 
Q 6.6875 9.671875 6.6875 19.921875 
Q 6.6875 27.6875 11.328125 32.6875 
Q 15.96875 37.703125 24.3125 38.8125 
Q 16.9375 40.140625 13 44.40625 
Q 9.078125 48.6875 9.078125 55.328125 
Q 9.078125 64.109375 15.125 69.15625 
Q 21.1875 74.21875 31.78125 74.21875 
Q 42.390625 74.21875 48.4375 69.15625 
Q 54.5 64.109375 54.5 55.328125 
Q 54.5 48.6875 50.5625 44.40625 
Q 46.625 40.140625 39.3125 38.8125 
z
" id="DejaVuSerif-56"/>
       </defs>
       <use xlink:href="#DejaVuSerif-56"/>
       <use x="63.623047" xlink:href="#DejaVuSerif-48"/>
      </g>
     </g>
    </g>
    <g id="ytick_6">
     <g id="line2d_13">
      <g>
       <use style="stroke:#000000;stroke-width:0.8;" x="103.104" xlink:href="#md8c6ff175a" y="141.137716"/>
      </g>
     </g>
     <g id="text_13">
      <!-- 100 -->
      <g transform="translate(77.0165 144.936935)scale(0.1 -0.1)">
       <use xlink:href="#DejaVuSerif-49"/>
       <use x="63.623047" xlink:href="#DejaVuSerif-48"/>
       <use x="127.246094" xlink:href="#DejaVuSerif-48"/>
      </g>
     </g>
    </g>
    <g id="ytick_7">
     <g id="line2d_14">
      <g>
       <use style="stroke:#000000;stroke-width:0.8;" x="103.104" xlink:href="#md8c6ff175a" y="108.014078"/>
      </g>
     </g>
     <g id="text_14">
      <!-- 120 -->
      <g transform="translate(77.0165 111.813296)scale(0.1 -0.1)">
       <use xlink:href="#DejaVuSerif-49"/>
       <use x="63.623047" xlink:href="#DejaVuSerif-50"/>
       <use x="127.246094" xlink:href="#DejaVuSerif-48"/>
      </g>
     </g>
    </g>
    <g id="ytick_8">
     <g id="line2d_15">
      <g>
       <use style="stroke:#000000;stroke-width:0.8;" x="103.104" xlink:href="#md8c6ff175a" y="74.890439"/>
      </g>
     </g>
     <g id="text_15">
      <!-- 140 -->
      <g transform="translate(77.0165 78.689658)scale(0.1 -0.1)">
       <use xlink:href="#DejaVuSerif-49"/>
       <use x="63.623047" xlink:href="#DejaVuSerif-52"/>
       <use x="127.246094" xlink:href="#DejaVuSerif-48"/>
      </g>
     </g>
    </g>
    <g id="ytick_9">
     <g id="line2d_16">
      <g>
       <use style="stroke:#000000;stroke-width:0.8;" x="103.104" xlink:href="#md8c6ff175a" y="41.7668"/>
      </g>
     </g>
     <g id="text_16">
      <!-- 160 -->
      <g transform="translate(77.0165 45.566019)scale(0.1 -0.1)">
       <use xlink:href="#DejaVuSerif-49"/>
       <use x="63.623047" xlink:href="#DejaVuSerif-54"/>
       <use x="127.246094" xlink:href="#DejaVuSerif-48"/>
      </g>
     </g>
    </g>
   </g>
   <g id="LineCollection_1">
    <path clip-path="url(#p355c7804e0)" d="M 230.023362 186.861319 
L 250.144865 186.861319 
L 250.357968 186.648216 
L 250.357968 160.543135 
L 250.144865 160.330032 
L 224.039784 160.330032 
L 223.826681 160.543135 
L 223.826681 181.834775 
L 223.826681 181.834775 
" style="fill:none;stroke:#4b0082;stroke-width:3;"/>
   </g>
   <g id="LineCollection_2">
    <path clip-path="url(#p355c7804e0)" d="M 241.686034 239.735943 
L 245.517687 239.657514 
L 245.616432 238.315639 
L 250.144865 238.243244 
L 250.944 238.193641 
L 253.607784 238.131004 
L 253.847986 238.059243 
L 253.874162 236.455297 
L 256.804324 236.39266 
L 257.337081 236.31589 
L 260.267243 236.216741 
L 260.319732 236.194595 
L 260.319732 234.862703 
L 260.8 234.795453 
L 263.463784 234.694208 
L 263.667323 234.596324 
L 263.730162 233.240275 
L 266.660324 233.129196 
L 266.901106 232.998054 
L 266.926703 231.654472 
L 268.524973 231.654472 
L 268.791351 231.526535 
L 270.123243 231.526535 
L 270.329572 231.399784 
L 270.389622 230.036017 
L 271.721514 230.036017 
L 271.987892 229.881477 
L 273.435802 229.801514 
L 273.435802 228.203243 
L 273.586162 228.111714 
L 274.918054 228.111714 
L 275.158166 227.936865 
L 275.184432 226.587251 
L 276.782703 226.587251 
L 277.049081 226.396246 
L 278.452004 226.338595 
L 278.452004 225.006703 
L 278.647351 224.857343 
L 279.979243 224.857343 
L 280.115307 224.740324 
L 280.115307 223.408432 
L 280.245622 223.299198 
L 281.577514 223.299198 
L 281.749674 223.142054 
L 281.843892 221.723832 
L 283.442162 221.723832 
L 283.627798 221.543784 
L 283.708541 219.864771 
L 285.040432 219.864771 
L 285.220481 219.679135 
L 285.306811 218.253025 
L 286.638703 218.253025 
L 286.795847 218.080865 
L 286.905081 216.618658 
L 288.236973 216.618658 
L 288.353992 216.482595 
L 288.353992 215.150703 
L 288.503351 214.955355 
L 289.892895 214.884324 
L 289.892895 213.286054 
L 290.0839 213.019676 
L 290.101622 211.661517 
L 291.699892 211.661517 
L 291.874741 211.421405 
L 291.96627 209.939153 
L 293.298162 209.939153 
L 293.378126 209.823135 
L 293.378126 208.491243 
L 293.532666 208.224865 
L 293.564541 206.832923 
L 294.896432 206.832923 
L 295.023184 206.626595 
L 295.023184 205.028324 
L 295.15112 204.761946 
L 295.162811 203.404457 
L 296.494703 203.404457 
L 296.625845 203.163676 
L 296.736923 200.233514 
L 296.761081 200.170675 
L 298.092973 200.170675 
L 298.190857 199.967135 
L 298.292102 196.770595 
L 298.359351 196.556705 
L 299.979768 196.504216 
L 300.078917 193.574054 
L 300.155687 193.041297 
L 300.224 190.351338 
L 301.555892 190.351338 
L 301.627652 189.844757 
L 301.69029 186.914595 
L 301.739892 186.115459 
L 301.82227 181.75466 
L 303.154162 181.75466 
L 303.179692 181.05427 
L 303.154162 165.170313 
L 301.812288 165.071568 
L 301.739892 160.543135 
L 301.69029 159.744 
L 301.627652 157.080216 
L 301.555892 156.840014 
L 300.218324 156.813838 
L 300.155687 153.883676 
L 300.078917 153.350919 
L 299.979768 150.420757 
L 299.957622 150.368268 
L 298.359351 150.368268 
L 298.292102 149.888 
L 298.190857 147.224216 
L 298.092973 147.020677 
L 296.736923 146.957838 
L 296.625845 144.027676 
L 296.494703 143.786894 
L 295.15112 143.761297 
L 295.15112 142.163027 
L 295.023184 141.896649 
L 295.023184 140.564757 
L 294.896432 140.358428 
L 293.532666 140.298378 
L 293.532666 138.966486 
L 293.378126 138.700108 
L 293.298162 137.252198 
L 291.96627 137.252198 
L 291.874741 137.101838 
L 291.874741 135.769946 
L 291.699892 135.529834 
L 290.0839 135.503568 
L 290.0839 133.905297 
L 289.892895 133.638919 
L 289.835243 132.235996 
L 288.503351 132.235996 
L 288.353992 132.040649 
L 288.353992 130.708757 
L 288.236973 130.572693 
L 286.905081 130.572693 
L 286.795847 130.442378 
L 286.795847 129.110486 
L 286.638703 128.938326 
L 285.220481 128.844108 
L 285.220481 127.245838 
L 285.040432 127.060202 
L 283.627798 126.979459 
L 283.627798 125.647568 
L 283.442162 125.467519 
L 281.749674 125.381189 
L 281.749674 124.049297 
L 281.577514 123.892153 
L 280.115307 123.782919 
L 280.115307 122.451027 
L 279.979243 122.334008 
L 278.647351 122.334008 
L 278.452004 122.184649 
L 278.380973 120.795105 
L 277.049081 120.795105 
L 276.782703 120.6041 
L 275.158166 120.586378 
L 275.158166 118.988108 
L 274.918054 118.813259 
L 273.435802 118.72173 
L 273.435802 117.389838 
L 273.319784 117.309874 
L 271.987892 117.309874 
L 271.721514 117.155334 
L 270.329572 117.123459 
L 270.329572 115.791568 
L 270.123243 115.664816 
L 268.791351 115.664816 
L 268.524973 115.53688 
L 266.901106 115.525189 
L 266.901106 114.193297 
L 266.660324 114.062155 
L 263.730162 113.951077 
L 263.667323 113.926919 
L 263.667323 112.595027 
L 263.463784 112.497143 
L 260.533622 112.395898 
L 260.319732 112.328649 
L 260.267243 110.708232 
L 257.070703 110.609083 
L 256.537946 110.532313 
L 253.847986 110.464 
L 253.847986 109.132108 
L 253.341405 109.060348 
L 250.411243 108.99771 
L 249.612108 108.948108 
L 245.517687 108.86573 
L 245.517687 107.533838 
L 244.817297 107.508308 
L 228.93334 107.533838 
L 228.834595 108.875712 
L 224.039784 108.948108 
L 223.240649 108.99771 
L 220.576865 109.060348 
L 220.336662 109.132108 
L 220.310486 110.469676 
L 217.380324 110.532313 
L 216.847568 110.609083 
L 214.183784 110.708232 
L 214.131295 110.730378 
L 214.131295 112.328649 
L 213.651027 112.395898 
L 210.720865 112.497143 
L 210.517325 112.595027 
L 210.454486 113.951077 
L 207.524324 114.062155 
L 207.283543 114.193297 
L 207.257946 115.53688 
L 205.926054 115.53688 
L 205.659676 115.664816 
L 204.061405 115.664816 
L 203.855077 115.791568 
L 203.795027 117.155334 
L 202.463135 117.155334 
L 202.196757 117.309874 
L 200.748847 117.389838 
L 200.748847 118.72173 
L 200.598486 118.813259 
L 199.266595 118.813259 
L 199.026483 118.988108 
L 199.000216 120.6041 
L 197.668324 120.6041 
L 197.401946 120.795105 
L 195.732645 120.852757 
L 195.732645 122.184649 
L 195.537297 122.334008 
L 194.205405 122.334008 
L 194.069342 122.451027 
L 194.069342 123.782919 
L 193.939027 123.892153 
L 192.607135 123.892153 
L 192.434975 124.049297 
L 192.340757 125.467519 
L 191.008865 125.467519 
L 190.823229 125.647568 
L 190.742486 127.060202 
L 189.144216 127.060202 
L 188.964168 127.245838 
L 188.877838 128.938326 
L 187.545946 128.938326 
L 187.388802 129.110486 
L 187.279568 130.572693 
L 185.947676 130.572693 
L 185.830657 130.708757 
L 185.830657 132.040649 
L 185.681297 132.235996 
L 184.291754 132.307027 
L 184.291754 133.638919 
L 184.100749 133.905297 
L 184.083027 135.529834 
L 182.751135 135.529834 
L 182.576286 135.769946 
L 182.484757 137.252198 
L 180.886486 137.252198 
L 180.806523 137.368216 
L 180.806523 138.700108 
L 180.651983 138.966486 
L 180.620108 140.358428 
L 179.288216 140.358428 
L 179.161465 140.564757 
L 179.161465 141.896649 
L 179.033528 142.163027 
L 179.021838 143.786894 
L 177.689946 143.786894 
L 177.558804 144.027676 
L 177.447725 146.957838 
L 177.423568 147.020677 
L 176.091676 147.020677 
L 175.993792 147.224216 
L 175.892547 150.154378 
L 175.825297 150.368268 
L 174.471259 150.420757 
L 174.37211 153.617297 
L 174.29534 154.150054 
L 174.227027 156.840014 
L 172.628757 156.840014 
L 172.556996 157.346595 
L 172.494359 160.276757 
L 172.444756 161.075892 
L 172.362378 165.170313 
L 171.030486 165.170313 
L 171.004957 165.870703 
L 171.030486 181.75466 
L 172.372361 181.853405 
L 172.444756 186.648216 
L 172.494359 187.447351 
L 172.556996 190.111135 
L 172.628757 190.351338 
L 174.232703 190.377514 
L 174.29534 193.307676 
L 174.37211 193.840432 
L 174.471259 196.504216 
L 174.493405 196.556705 
L 175.825297 196.556705 
L 175.892547 197.036973 
L 175.993792 199.967135 
L 176.091676 200.170675 
L 177.447725 200.233514 
L 177.558804 203.163676 
L 177.689946 203.404457 
L 179.033528 203.430054 
L 179.033528 204.761946 
L 179.161465 205.028324 
L 179.161465 206.626595 
L 179.288216 206.832923 
L 180.651983 206.892973 
L 180.651983 208.224865 
L 180.806523 208.491243 
L 180.886486 209.939153 
L 182.484757 209.939153 
L 182.576286 210.089514 
L 182.576286 211.421405 
L 182.751135 211.661517 
L 184.100749 211.687784 
L 184.100749 213.019676 
L 184.291754 213.286054 
L 184.349405 214.955355 
L 185.681297 214.955355 
L 185.830657 215.150703 
L 185.830657 216.482595 
L 185.947676 216.618658 
L 187.279568 216.618658 
L 187.388802 216.748973 
L 187.388802 218.080865 
L 187.545946 218.253025 
L 188.964168 218.347243 
L 188.964168 219.679135 
L 189.144216 219.864771 
L 190.823229 219.945514 
L 190.823229 221.543784 
L 191.008865 221.723832 
L 192.434975 221.810162 
L 192.434975 223.142054 
L 192.607135 223.299198 
L 194.069342 223.408432 
L 194.069342 224.740324 
L 194.205405 224.857343 
L 195.537297 224.857343 
L 195.732645 225.006703 
L 195.803676 226.396246 
L 197.401946 226.396246 
L 197.668324 226.587251 
L 199.026483 226.604973 
L 199.026483 227.936865 
L 199.266595 228.111714 
L 200.748847 228.203243 
L 200.748847 229.801514 
L 200.864865 229.881477 
L 202.196757 229.881477 
L 202.463135 230.036017 
L 203.855077 230.067892 
L 203.855077 231.399784 
L 204.061405 231.526535 
L 205.659676 231.526535 
L 205.926054 231.654472 
L 207.283543 231.666162 
L 207.283543 232.998054 
L 207.524324 233.129196 
L 210.454486 233.240275 
L 210.517325 233.264432 
L 210.517325 234.596324 
L 210.720865 234.694208 
L 213.917405 234.795453 
L 214.131295 234.862703 
L 214.183784 236.216741 
L 217.113946 236.31589 
L 217.646703 236.39266 
L 220.336662 236.460973 
L 220.336662 238.059243 
L 220.843243 238.131004 
L 223.907827 238.218672 
L 223.907827 238.218672 
" style="fill:none;stroke:#800080;stroke-width:3;"/>
   </g>
   <g id="patch_3">
    <path d="M 103.104 307.584 
L 103.104 41.472 
" style="fill:none;stroke:#000000;stroke-linecap:square;stroke-linejoin:miter;stroke-width:0.8;"/>
   </g>
   <g id="patch_4">
    <path d="M 369.216 307.584 
L 369.216 41.472 
" style="fill:none;stroke:#000000;stroke-linecap:square;stroke-linejoin:miter;stroke-width:0.8;"/>
   </g>
   <g id="patch_5">
    <path d="M 103.104 307.584 
L 369.216 307.584 
" style="fill:none;stroke:#000000;stroke-linecap:square;stroke-linejoin:miter;stroke-width:0.8;"/>
   </g>
   <g id="patch_6">
    <path d="M 103.104 41.472 
L 369.216 41.472 
" style="fill:none;stroke:#000000;stroke-linecap:square;stroke-linejoin:miter;stroke-width:0.8;"/>
   </g>
   <g id="text_17">
    <g clip-path="url(#p355c7804e0)">
     <!-- 0 -->
     <g style="fill:#4b0082;" transform="translate(221.261364 188.5814)rotate(-343.169584)scale(0.1 -0.1)">
      <use xlink:href="#DejaVuSerif-48"/>
     </g>
    </g>
   </g>
   <g id="text_18">
    <g clip-path="url(#p355c7804e0)">
     <!-- 100 -->
     <g style="fill:#800080;" transform="translate(222.548553 241.647768)rotate(-354.969103)scale(0.1 -0.1)">
      <use xlink:href="#DejaVuSerif-49"/>
      <use x="63.623047" xlink:href="#DejaVuSerif-48"/>
      <use x="127.246094" xlink:href="#DejaVuSerif-48"/>
     </g>
    </g>
   </g>
  </g>
 </g>
 <defs>
  <clipPath id="p355c7804e0">
   <rect height="266.112" width="266.112" x="103.104" y="41.472"/>
  </clipPath>
 </defs>
</svg>
