<?xml version="1.0" encoding="utf-8" standalone="no"?>
<!DOCTYPE svg PUBLIC "-//W3C//DTD SVG 1.1//EN"
  "http://www.w3.org/Graphics/SVG/1.1/DTD/svg11.dtd">
<!-- Created with matplotlib (https://matplotlib.org/) -->
<svg height="345.6pt" version="1.1" viewBox="0 0 460.8 345.6" width="460.8pt" xmlns="http://www.w3.org/2000/svg" xmlns:xlink="http://www.w3.org/1999/xlink">
 <metadata>
  <rdf:RDF xmlns:cc="http://creativecommons.org/ns#" xmlns:dc="http://purl.org/dc/elements/1.1/" xmlns:rdf="http://www.w3.org/1999/02/22-rdf-syntax-ns#">
   <cc:Work>
    <dc:type rdf:resource="http://purl.org/dc/dcmitype/StillImage"/>
    <dc:date>2022-08-28T23:01:54.468596</dc:date>
    <dc:format>image/svg+xml</dc:format>
    <dc:creator>
     <cc:Agent>
      <dc:title>Matplotlib v3.3.4, https://matplotlib.org/</dc:title>
     </cc:Agent>
    </dc:creator>
   </cc:Work>
  </rdf:RDF>
 </metadata>
 <defs>
  <style type="text/css">*{stroke-linecap:butt;stroke-linejoin:round;}</style>
 </defs>
 <g id="figure_1">
  <g id="patch_1">
   <path d="M 0 345.6 
L 460.8 345.6 
L 460.8 0 
L 0 0 
z
" style="fill:#ffffff;"/>
  </g>
  <g id="axes_1">
   <g id="patch_2">
    <path d="M 103.104 307.584 
L 369.216 307.584 
L 369.216 41.472 
L 103.104 41.472 
z
" style="fill:#ffffff;"/>
   </g>
   <g id="matplotlib.axis_1">
    <g id="xtick_1">
     <g id="line2d_1">
      <defs>
       <path d="M 0 0 
L 0 3.5 
" id="m69eda3c3f1" style="stroke:#000000;stroke-width:0.8;"/>
      </defs>
      <g>
       <use style="stroke:#000000;stroke-width:0.8;" x="103.932091" xlink:href="#m69eda3c3f1" y="307.584"/>
      </g>
     </g>
     <g id="text_1">
      <!-- 0 -->
      <g transform="translate(100.750841 322.182437)scale(0.1 -0.1)">
       <defs>
        <path d="M 31.78125 3.421875 
Q 39.265625 3.421875 42.96875 11.625 
Q 46.6875 19.828125 46.6875 36.375 
Q 46.6875 52.984375 42.96875 61.1875 
Q 39.265625 69.390625 31.78125 69.390625 
Q 24.3125 69.390625 20.59375 61.1875 
Q 16.890625 52.984375 16.890625 36.375 
Q 16.890625 19.828125 20.59375 11.625 
Q 24.3125 3.421875 31.78125 3.421875 
z
M 31.78125 -1.421875 
Q 19.921875 -1.421875 13.25 8.53125 
Q 6.59375 18.5 6.59375 36.375 
Q 6.59375 54.296875 13.25 64.25 
Q 19.921875 74.21875 31.78125 74.21875 
Q 43.703125 74.21875 50.34375 64.25 
Q 56.984375 54.296875 56.984375 36.375 
Q 56.984375 18.5 50.34375 8.53125 
Q 43.703125 -1.421875 31.78125 -1.421875 
z
" id="DejaVuSerif-48"/>
       </defs>
       <use xlink:href="#DejaVuSerif-48"/>
      </g>
     </g>
    </g>
    <g id="xtick_2">
     <g id="line2d_2">
      <g>
       <use style="stroke:#000000;stroke-width:0.8;" x="145.336639" xlink:href="#m69eda3c3f1" y="307.584"/>
      </g>
     </g>
     <g id="text_2">
      <!-- 25 -->
      <g transform="translate(138.974139 322.182437)scale(0.1 -0.1)">
       <defs>
        <path d="M 12.796875 55.515625 
L 7.328125 55.515625 
L 7.328125 68.5 
Q 12.546875 71.296875 17.84375 72.75 
Q 23.140625 74.21875 28.21875 74.21875 
Q 39.59375 74.21875 46.1875 68.703125 
Q 52.78125 63.1875 52.78125 53.71875 
Q 52.78125 43.015625 37.84375 28.125 
Q 36.671875 27 36.078125 26.421875 
L 17.671875 8.015625 
L 48.09375 8.015625 
L 48.09375 17 
L 53.8125 17 
L 53.8125 0 
L 6.78125 0 
L 6.78125 5.328125 
L 28.90625 27.390625 
Q 36.234375 34.71875 39.359375 40.84375 
Q 42.484375 46.96875 42.484375 53.71875 
Q 42.484375 61.078125 38.640625 65.234375 
Q 34.8125 69.390625 28.078125 69.390625 
Q 21.09375 69.390625 17.28125 65.921875 
Q 13.484375 62.453125 12.796875 55.515625 
z
" id="DejaVuSerif-50"/>
        <path d="M 50.296875 72.90625 
L 50.296875 64.890625 
L 16.890625 64.890625 
L 16.890625 44 
Q 19.4375 45.75 22.828125 46.625 
Q 26.21875 47.515625 30.421875 47.515625 
Q 42.234375 47.515625 49.0625 40.96875 
Q 55.90625 34.421875 55.90625 23.09375 
Q 55.90625 11.53125 49 5.046875 
Q 42.09375 -1.421875 29.59375 -1.421875 
Q 24.5625 -1.421875 19.28125 -0.1875 
Q 14.015625 1.03125 8.5 3.515625 
L 8.5 17.671875 
L 14.015625 17.671875 
Q 14.453125 10.75 18.421875 7.078125 
Q 22.40625 3.421875 29.59375 3.421875 
Q 37.3125 3.421875 41.453125 8.5 
Q 45.609375 13.578125 45.609375 23.09375 
Q 45.609375 32.5625 41.484375 37.609375 
Q 37.359375 42.671875 29.59375 42.671875 
Q 25.203125 42.671875 21.84375 41.109375 
Q 18.5 39.546875 15.921875 36.28125 
L 11.71875 36.28125 
L 11.71875 72.90625 
z
" id="DejaVuSerif-53"/>
       </defs>
       <use xlink:href="#DejaVuSerif-50"/>
       <use x="63.623047" xlink:href="#DejaVuSerif-53"/>
      </g>
     </g>
    </g>
    <g id="xtick_3">
     <g id="line2d_3">
      <g>
       <use style="stroke:#000000;stroke-width:0.8;" x="186.741187" xlink:href="#m69eda3c3f1" y="307.584"/>
      </g>
     </g>
     <g id="text_3">
      <!-- 50 -->
      <g transform="translate(180.378687 322.182437)scale(0.1 -0.1)">
       <use xlink:href="#DejaVuSerif-53"/>
       <use x="63.623047" xlink:href="#DejaVuSerif-48"/>
      </g>
     </g>
    </g>
    <g id="xtick_4">
     <g id="line2d_4">
      <g>
       <use style="stroke:#000000;stroke-width:0.8;" x="228.145736" xlink:href="#m69eda3c3f1" y="307.584"/>
      </g>
     </g>
     <g id="text_4">
      <!-- 75 -->
      <g transform="translate(221.783236 322.182437)scale(0.1 -0.1)">
       <defs>
        <path d="M 56.390625 67.921875 
L 27.875 0 
L 20.609375 0 
L 47.796875 64.890625 
L 14.109375 64.890625 
L 14.109375 55.90625 
L 8.40625 55.90625 
L 8.40625 72.90625 
L 56.390625 72.90625 
z
" id="DejaVuSerif-55"/>
       </defs>
       <use xlink:href="#DejaVuSerif-55"/>
       <use x="63.623047" xlink:href="#DejaVuSerif-53"/>
      </g>
     </g>
    </g>
    <g id="xtick_5">
     <g id="line2d_5">
      <g>
       <use style="stroke:#000000;stroke-width:0.8;" x="269.550284" xlink:href="#m69eda3c3f1" y="307.584"/>
      </g>
     </g>
     <g id="text_5">
      <!-- 100 -->
      <g transform="translate(260.006534 322.182437)scale(0.1 -0.1)">
       <defs>
        <path d="M 14.203125 0 
L 14.203125 5.171875 
L 26.90625 5.171875 
L 26.90625 65.828125 
L 12.203125 56.296875 
L 12.203125 62.703125 
L 29.984375 74.21875 
L 36.71875 74.21875 
L 36.71875 5.171875 
L 49.421875 5.171875 
L 49.421875 0 
z
" id="DejaVuSerif-49"/>
       </defs>
       <use xlink:href="#DejaVuSerif-49"/>
       <use x="63.623047" xlink:href="#DejaVuSerif-48"/>
       <use x="127.246094" xlink:href="#DejaVuSerif-48"/>
      </g>
     </g>
    </g>
    <g id="xtick_6">
     <g id="line2d_6">
      <g>
       <use style="stroke:#000000;stroke-width:0.8;" x="310.954832" xlink:href="#m69eda3c3f1" y="307.584"/>
      </g>
     </g>
     <g id="text_6">
      <!-- 125 -->
      <g transform="translate(301.411082 322.182437)scale(0.1 -0.1)">
       <use xlink:href="#DejaVuSerif-49"/>
       <use x="63.623047" xlink:href="#DejaVuSerif-50"/>
       <use x="127.246094" xlink:href="#DejaVuSerif-53"/>
      </g>
     </g>
    </g>
    <g id="xtick_7">
     <g id="line2d_7">
      <g>
       <use style="stroke:#000000;stroke-width:0.8;" x="352.35938" xlink:href="#m69eda3c3f1" y="307.584"/>
      </g>
     </g>
     <g id="text_7">
      <!-- 150 -->
      <g transform="translate(342.81563 322.182437)scale(0.1 -0.1)">
       <use xlink:href="#DejaVuSerif-49"/>
       <use x="63.623047" xlink:href="#DejaVuSerif-53"/>
       <use x="127.246094" xlink:href="#DejaVuSerif-48"/>
      </g>
     </g>
    </g>
   </g>
   <g id="matplotlib.axis_2">
    <g id="ytick_1">
     <g id="line2d_8">
      <defs>
       <path d="M 0 0 
L -3.5 0 
" id="m2596a32ecd" style="stroke:#000000;stroke-width:0.8;"/>
      </defs>
      <g>
       <use style="stroke:#000000;stroke-width:0.8;" x="103.104" xlink:href="#m2596a32ecd" y="306.755909"/>
      </g>
     </g>
     <g id="text_8">
      <!-- 0 -->
      <g transform="translate(89.7415 310.555128)scale(0.1 -0.1)">
       <use xlink:href="#DejaVuSerif-48"/>
      </g>
     </g>
    </g>
    <g id="ytick_2">
     <g id="line2d_9">
      <g>
       <use style="stroke:#000000;stroke-width:0.8;" x="103.104" xlink:href="#m2596a32ecd" y="273.63227"/>
      </g>
     </g>
     <g id="text_9">
      <!-- 20 -->
      <g transform="translate(83.379 277.431489)scale(0.1 -0.1)">
       <use xlink:href="#DejaVuSerif-50"/>
       <use x="63.623047" xlink:href="#DejaVuSerif-48"/>
      </g>
     </g>
    </g>
    <g id="ytick_3">
     <g id="line2d_10">
      <g>
       <use style="stroke:#000000;stroke-width:0.8;" x="103.104" xlink:href="#m2596a32ecd" y="240.508632"/>
      </g>
     </g>
     <g id="text_10">
      <!-- 40 -->
      <g transform="translate(83.379 244.307851)scale(0.1 -0.1)">
       <defs>
        <path d="M 34.90625 24.703125 
L 34.90625 63.484375 
L 10.015625 24.703125 
z
M 56.390625 0 
L 23.1875 0 
L 23.1875 5.171875 
L 34.90625 5.171875 
L 34.90625 19.484375 
L 3.078125 19.484375 
L 3.078125 24.8125 
L 35.015625 74.21875 
L 44.671875 74.21875 
L 44.671875 24.703125 
L 58.59375 24.703125 
L 58.59375 19.484375 
L 44.671875 19.484375 
L 44.671875 5.171875 
L 56.390625 5.171875 
z
" id="DejaVuSerif-52"/>
       </defs>
       <use xlink:href="#DejaVuSerif-52"/>
       <use x="63.623047" xlink:href="#DejaVuSerif-48"/>
      </g>
     </g>
    </g>
    <g id="ytick_4">
     <g id="line2d_11">
      <g>
       <use style="stroke:#000000;stroke-width:0.8;" x="103.104" xlink:href="#m2596a32ecd" y="207.384993"/>
      </g>
     </g>
     <g id="text_11">
      <!-- 60 -->
      <g transform="translate(83.379 211.184212)scale(0.1 -0.1)">
       <defs>
        <path d="M 32.71875 3.421875 
Q 39.59375 3.421875 43.296875 8.46875 
Q 47.015625 13.53125 47.015625 23 
Q 47.015625 32.46875 43.296875 37.515625 
Q 39.59375 42.578125 32.71875 42.578125 
Q 25.734375 42.578125 22.0625 37.6875 
Q 18.40625 32.8125 18.40625 23.578125 
Q 18.40625 13.875 22.109375 8.640625 
Q 25.828125 3.421875 32.71875 3.421875 
z
M 16.796875 40.140625 
Q 20.125 43.796875 24.3125 45.59375 
Q 28.515625 47.40625 33.796875 47.40625 
Q 44.671875 47.40625 51 40.859375 
Q 57.328125 34.328125 57.328125 23 
Q 57.328125 11.921875 50.515625 5.25 
Q 43.703125 -1.421875 32.328125 -1.421875 
Q 19.96875 -1.421875 13.328125 7.78125 
Q 6.6875 17 6.6875 34.078125 
Q 6.6875 53.21875 14.546875 63.71875 
Q 22.40625 74.21875 36.71875 74.21875 
Q 40.578125 74.21875 44.828125 73.484375 
Q 49.078125 72.75 53.515625 71.296875 
L 53.515625 59.28125 
L 48 59.28125 
Q 47.40625 64.203125 44.234375 66.796875 
Q 41.0625 69.390625 35.6875 69.390625 
Q 26.21875 69.390625 21.578125 62.203125 
Q 16.9375 55.03125 16.796875 40.140625 
z
" id="DejaVuSerif-54"/>
       </defs>
       <use xlink:href="#DejaVuSerif-54"/>
       <use x="63.623047" xlink:href="#DejaVuSerif-48"/>
      </g>
     </g>
    </g>
    <g id="ytick_5">
     <g id="line2d_12">
      <g>
       <use style="stroke:#000000;stroke-width:0.8;" x="103.104" xlink:href="#m2596a32ecd" y="174.261355"/>
      </g>
     </g>
     <g id="text_12">
      <!-- 80 -->
      <g transform="translate(83.379 178.060573)scale(0.1 -0.1)">
       <defs>
        <path d="M 46.578125 19.921875 
Q 46.578125 27.734375 42.6875 32.046875 
Q 38.8125 36.375 31.78125 36.375 
Q 24.75 36.375 20.875 32.046875 
Q 17 27.734375 17 19.921875 
Q 17 12.0625 20.875 7.734375 
Q 24.75 3.421875 31.78125 3.421875 
Q 38.8125 3.421875 42.6875 7.734375 
Q 46.578125 12.0625 46.578125 19.921875 
z
M 44.578125 55.328125 
Q 44.578125 61.96875 41.203125 65.671875 
Q 37.84375 69.390625 31.78125 69.390625 
Q 25.78125 69.390625 22.390625 65.671875 
Q 19 61.96875 19 55.328125 
Q 19 48.640625 22.390625 44.921875 
Q 25.78125 41.21875 31.78125 41.21875 
Q 37.84375 41.21875 41.203125 44.921875 
Q 44.578125 48.640625 44.578125 55.328125 
z
M 39.3125 38.8125 
Q 47.609375 37.703125 52.25 32.6875 
Q 56.890625 27.6875 56.890625 19.921875 
Q 56.890625 9.671875 50.390625 4.125 
Q 43.890625 -1.421875 31.78125 -1.421875 
Q 19.734375 -1.421875 13.203125 4.125 
Q 6.6875 9.671875 6.6875 19.921875 
Q 6.6875 27.6875 11.328125 32.6875 
Q 15.96875 37.703125 24.3125 38.8125 
Q 16.9375 40.140625 13 44.40625 
Q 9.078125 48.6875 9.078125 55.328125 
Q 9.078125 64.109375 15.125 69.15625 
Q 21.1875 74.21875 31.78125 74.21875 
Q 42.390625 74.21875 48.4375 69.15625 
Q 54.5 64.109375 54.5 55.328125 
Q 54.5 48.6875 50.5625 44.40625 
Q 46.625 40.140625 39.3125 38.8125 
z
" id="DejaVuSerif-56"/>
       </defs>
       <use xlink:href="#DejaVuSerif-56"/>
       <use x="63.623047" xlink:href="#DejaVuSerif-48"/>
      </g>
     </g>
    </g>
    <g id="ytick_6">
     <g id="line2d_13">
      <g>
       <use style="stroke:#000000;stroke-width:0.8;" x="103.104" xlink:href="#m2596a32ecd" y="141.137716"/>
      </g>
     </g>
     <g id="text_13">
      <!-- 100 -->
      <g transform="translate(77.0165 144.936935)scale(0.1 -0.1)">
       <use xlink:href="#DejaVuSerif-49"/>
       <use x="63.623047" xlink:href="#DejaVuSerif-48"/>
       <use x="127.246094" xlink:href="#DejaVuSerif-48"/>
      </g>
     </g>
    </g>
    <g id="ytick_7">
     <g id="line2d_14">
      <g>
       <use style="stroke:#000000;stroke-width:0.8;" x="103.104" xlink:href="#m2596a32ecd" y="108.014078"/>
      </g>
     </g>
     <g id="text_14">
      <!-- 120 -->
      <g transform="translate(77.0165 111.813296)scale(0.1 -0.1)">
       <use xlink:href="#DejaVuSerif-49"/>
       <use x="63.623047" xlink:href="#DejaVuSerif-50"/>
       <use x="127.246094" xlink:href="#DejaVuSerif-48"/>
      </g>
     </g>
    </g>
    <g id="ytick_8">
     <g id="line2d_15">
      <g>
       <use style="stroke:#000000;stroke-width:0.8;" x="103.104" xlink:href="#m2596a32ecd" y="74.890439"/>
      </g>
     </g>
     <g id="text_15">
      <!-- 140 -->
      <g transform="translate(77.0165 78.689658)scale(0.1 -0.1)">
       <use xlink:href="#DejaVuSerif-49"/>
       <use x="63.623047" xlink:href="#DejaVuSerif-52"/>
       <use x="127.246094" xlink:href="#DejaVuSerif-48"/>
      </g>
     </g>
    </g>
    <g id="ytick_9">
     <g id="line2d_16">
      <g>
       <use style="stroke:#000000;stroke-width:0.8;" x="103.104" xlink:href="#m2596a32ecd" y="41.7668"/>
      </g>
     </g>
     <g id="text_16">
      <!-- 160 -->
      <g transform="translate(77.0165 45.566019)scale(0.1 -0.1)">
       <use xlink:href="#DejaVuSerif-49"/>
       <use x="63.623047" xlink:href="#DejaVuSerif-54"/>
       <use x="127.246094" xlink:href="#DejaVuSerif-48"/>
      </g>
     </g>
    </g>
   </g>
   <g id="LineCollection_1">
    <path clip-path="url(#pb2699e5937)" d="M 230.023362 186.861319 
L 250.144865 186.861319 
L 250.357968 186.648216 
L 250.357968 160.543135 
L 250.144865 160.330032 
L 224.039784 160.330032 
L 223.826681 160.543135 
L 223.826681 181.834775 
L 223.826681 181.834775 
" style="fill:none;stroke:#4b0082;stroke-width:3;"/>
   </g>
   <g id="LineCollection_2">
    <path clip-path="url(#pb2699e5937)" d="M 241.686034 239.735943 
L 245.517687 239.657514 
L 245.616432 238.315639 
L 250.144865 238.243244 
L 250.944 238.193641 
L 253.607784 238.131004 
L 253.847986 238.059243 
L 253.874162 236.455297 
L 256.804324 236.39266 
L 257.337081 236.31589 
L 260.267243 236.216741 
L 260.319732 236.194595 
L 260.319732 234.862703 
L 260.8 234.795453 
L 263.463784 234.694208 
L 263.667323 234.596324 
L 263.730162 233.240275 
L 266.660324 233.129196 
L 266.901106 232.998054 
L 266.926703 231.654472 
L 268.524973 231.654472 
L 268.791351 231.526535 
L 270.123243 231.526535 
L 270.329572 231.399784 
L 270.389622 230.036017 
L 271.721514 230.036017 
L 271.987892 229.881477 
L 273.435802 229.801514 
L 273.435802 228.203243 
L 273.586162 228.111714 
L 274.918054 228.111714 
L 275.158166 227.936865 
L 275.184432 226.587251 
L 276.782703 226.587251 
L 277.049081 226.396246 
L 278.452004 226.338595 
L 278.452004 225.006703 
L 278.647351 224.857343 
L 279.979243 224.857343 
L 280.115307 224.740324 
L 280.115307 223.408432 
L 280.245622 223.299198 
L 281.577514 223.299198 
L 281.749674 223.142054 
L 281.843892 221.723832 
L 283.442162 221.723832 
L 283.627798 221.543784 
L 283.708541 219.864771 
L 285.040432 219.864771 
L 285.220481 219.679135 
L 285.306811 218.253025 
L 286.638703 218.253025 
L 286.795847 218.080865 
L 286.905081 216.618658 
L 288.236973 216.618658 
L 288.353992 216.482595 
L 288.353992 215.150703 
L 288.503351 214.955355 
L 289.892895 214.884324 
L 289.892895 213.286054 
L 290.0839 213.019676 
L 290.101622 211.661517 
L 291.699892 211.661517 
L 291.874741 211.421405 
L 291.96627 209.939153 
L 293.298162 209.939153 
L 293.378126 209.823135 
L 293.378126 208.491243 
L 293.532666 208.224865 
L 293.564541 206.832923 
L 294.896432 206.832923 
L 295.023184 206.626595 
L 295.023184 205.028324 
L 295.15112 204.761946 
L 295.162811 203.404457 
L 296.494703 203.404457 
L 296.625845 203.163676 
L 296.736923 200.233514 
L 296.761081 200.170675 
L 298.092973 200.170675 
L 298.190857 199.967135 
L 298.292102 196.770595 
L 298.359351 196.556705 
L 299.979768 196.504216 
L 300.078917 193.574054 
L 300.155687 193.041297 
L 300.224 190.351338 
L 301.555892 190.351338 
L 301.627652 189.844757 
L 301.69029 186.914595 
L 301.739892 186.115459 
L 301.82227 181.75466 
L 303.154162 181.75466 
L 303.179692 181.05427 
L 303.154162 165.170313 
L 301.812288 165.071568 
L 301.739892 160.543135 
L 301.69029 159.744 
L 301.627652 157.080216 
L 301.555892 156.840014 
L 300.218324 156.813838 
L 300.155687 153.883676 
L 300.078917 153.350919 
L 299.979768 150.420757 
L 299.957622 150.368268 
L 298.359351 150.368268 
L 298.292102 149.888 
L 298.190857 147.224216 
L 298.092973 147.020677 
L 296.736923 146.957838 
L 296.625845 144.027676 
L 296.494703 143.786894 
L 295.15112 143.761297 
L 295.15112 142.163027 
L 295.023184 141.896649 
L 295.023184 140.564757 
L 294.896432 140.358428 
L 293.532666 140.298378 
L 293.532666 138.966486 
L 293.378126 138.700108 
L 293.298162 137.252198 
L 291.96627 137.252198 
L 291.874741 137.101838 
L 291.874741 135.769946 
L 291.699892 135.529834 
L 290.0839 135.503568 
L 290.0839 133.905297 
L 289.892895 133.638919 
L 289.835243 132.235996 
L 288.503351 132.235996 
L 288.353992 132.040649 
L 288.353992 130.708757 
L 288.236973 130.572693 
L 286.905081 130.572693 
L 286.795847 130.442378 
L 286.795847 129.110486 
L 286.638703 128.938326 
L 285.220481 128.844108 
L 285.220481 127.245838 
L 285.040432 127.060202 
L 283.627798 126.979459 
L 283.627798 125.647568 
L 283.442162 125.467519 
L 281.749674 125.381189 
L 281.749674 124.049297 
L 281.577514 123.892153 
L 280.115307 123.782919 
L 280.115307 122.451027 
L 279.979243 122.334008 
L 278.647351 122.334008 
L 278.452004 122.184649 
L 278.380973 120.795105 
L 277.049081 120.795105 
L 276.782703 120.6041 
L 275.158166 120.586378 
L 275.158166 118.988108 
L 274.918054 118.813259 
L 273.435802 118.72173 
L 273.435802 117.389838 
L 273.319784 117.309874 
L 271.987892 117.309874 
L 271.721514 117.155334 
L 270.329572 117.123459 
L 270.329572 115.791568 
L 270.123243 115.664816 
L 268.791351 115.664816 
L 268.524973 115.53688 
L 266.901106 115.525189 
L 266.901106 114.193297 
L 266.660324 114.062155 
L 263.730162 113.951077 
L 263.667323 113.926919 
L 263.667323 112.595027 
L 263.463784 112.497143 
L 260.533622 112.395898 
L 260.319732 112.328649 
L 260.267243 110.708232 
L 257.070703 110.609083 
L 256.537946 110.532313 
L 253.847986 110.464 
L 253.847986 109.132108 
L 253.341405 109.060348 
L 250.411243 108.99771 
L 249.612108 108.948108 
L 245.517687 108.86573 
L 245.517687 107.533838 
L 244.817297 107.508308 
L 228.93334 107.533838 
L 228.834595 108.875712 
L 224.039784 108.948108 
L 223.240649 108.99771 
L 220.576865 109.060348 
L 220.336662 109.132108 
L 220.310486 110.469676 
L 217.380324 110.532313 
L 216.847568 110.609083 
L 214.183784 110.708232 
L 214.131295 110.730378 
L 214.131295 112.328649 
L 213.651027 112.395898 
L 210.720865 112.497143 
L 210.517325 112.595027 
L 210.454486 113.951077 
L 207.524324 114.062155 
L 207.283543 114.193297 
L 207.257946 115.53688 
L 205.926054 115.53688 
L 205.659676 115.664816 
L 204.061405 115.664816 
L 203.855077 115.791568 
L 203.795027 117.155334 
L 202.463135 117.155334 
L 202.196757 117.309874 
L 200.748847 117.389838 
L 200.748847 118.72173 
L 200.598486 118.813259 
L 199.266595 118.813259 
L 199.026483 118.988108 
L 199.000216 120.6041 
L 197.668324 120.6041 
L 197.401946 120.795105 
L 195.732645 120.852757 
L 195.732645 122.184649 
L 195.537297 122.334008 
L 194.205405 122.334008 
L 194.069342 122.451027 
L 194.069342 123.782919 
L 193.939027 123.892153 
L 192.607135 123.892153 
L 192.434975 124.049297 
L 192.340757 125.467519 
L 191.008865 125.467519 
L 190.823229 125.647568 
L 190.742486 127.060202 
L 189.144216 127.060202 
L 188.964168 127.245838 
L 188.877838 128.938326 
L 187.545946 128.938326 
L 187.388802 129.110486 
L 187.279568 130.572693 
L 185.947676 130.572693 
L 185.830657 130.708757 
L 185.830657 132.040649 
L 185.681297 132.235996 
L 184.291754 132.307027 
L 184.291754 133.638919 
L 184.100749 133.905297 
L 184.083027 135.529834 
L 182.751135 135.529834 
L 182.576286 135.769946 
L 182.484757 137.252198 
L 180.886486 137.252198 
L 180.806523 137.368216 
L 180.806523 138.700108 
L 180.651983 138.966486 
L 180.620108 140.358428 
L 179.288216 140.358428 
L 179.161465 140.564757 
L 179.161465 141.896649 
L 179.033528 142.163027 
L 179.021838 143.786894 
L 177.689946 143.786894 
L 177.558804 144.027676 
L 177.447725 146.957838 
L 177.423568 147.020677 
L 176.091676 147.020677 
L 175.993792 147.224216 
L 175.892547 150.154378 
L 175.825297 150.368268 
L 174.471259 150.420757 
L 174.37211 153.617297 
L 174.29534 154.150054 
L 174.227027 156.840014 
L 172.628757 156.840014 
L 172.556996 157.346595 
L 172.494359 160.276757 
L 172.444756 161.075892 
L 172.362378 165.170313 
L 171.030486 165.170313 
L 171.004957 165.870703 
L 171.030486 181.75466 
L 172.372361 181.853405 
L 172.444756 186.648216 
L 172.494359 187.447351 
L 172.556996 190.111135 
L 172.628757 190.351338 
L 174.232703 190.377514 
L 174.29534 193.307676 
L 174.37211 193.840432 
L 174.471259 196.504216 
L 174.493405 196.556705 
L 175.825297 196.556705 
L 175.892547 197.036973 
L 175.993792 199.967135 
L 176.091676 200.170675 
L 177.447725 200.233514 
L 177.558804 203.163676 
L 177.689946 203.404457 
L 179.033528 203.430054 
L 179.033528 204.761946 
L 179.161465 205.028324 
L 179.161465 206.626595 
L 179.288216 206.832923 
L 180.651983 206.892973 
L 180.651983 208.224865 
L 180.806523 208.491243 
L 180.886486 209.939153 
L 182.484757 209.939153 
L 182.576286 210.089514 
L 182.576286 211.421405 
L 182.751135 211.661517 
L 184.100749 211.687784 
L 184.100749 213.019676 
L 184.291754 213.286054 
L 184.349405 214.955355 
L 185.681297 214.955355 
L 185.830657 215.150703 
L 185.830657 216.482595 
L 185.947676 216.618658 
L 187.279568 216.618658 
L 187.388802 216.748973 
L 187.388802 218.080865 
L 187.545946 218.253025 
L 188.964168 218.347243 
L 188.964168 219.679135 
L 189.144216 219.864771 
L 190.823229 219.945514 
L 190.823229 221.543784 
L 191.008865 221.723832 
L 192.434975 221.810162 
L 192.434975 223.142054 
L 192.607135 223.299198 
L 194.069342 223.408432 
L 194.069342 224.740324 
L 194.205405 224.857343 
L 195.537297 224.857343 
L 195.732645 225.006703 
L 195.803676 226.396246 
L 197.401946 226.396246 
L 197.668324 226.587251 
L 199.026483 226.604973 
L 199.026483 227.936865 
L 199.266595 228.111714 
L 200.748847 228.203243 
L 200.748847 229.801514 
L 200.864865 229.881477 
L 202.196757 229.881477 
L 202.463135 230.036017 
L 203.855077 230.067892 
L 203.855077 231.399784 
L 204.061405 231.526535 
L 205.659676 231.526535 
L 205.926054 231.654472 
L 207.283543 231.666162 
L 207.283543 232.998054 
L 207.524324 233.129196 
L 210.454486 233.240275 
L 210.517325 233.264432 
L 210.517325 234.596324 
L 210.720865 234.694208 
L 213.917405 234.795453 
L 214.131295 234.862703 
L 214.183784 236.216741 
L 217.113946 236.31589 
L 217.646703 236.39266 
L 220.336662 236.460973 
L 220.336662 238.059243 
L 220.843243 238.131004 
L 223.907827 238.218672 
L 223.907827 238.218672 
" style="fill:none;stroke:#800080;stroke-width:3;"/>
   </g>
   <g id="LineCollection_3">
    <path clip-path="url(#pb2699e5937)" d="M 246.479657 269.491954 
L 246.948811 269.491892 
L 246.948811 267.893622 
L 248.812973 267.844739 
L 253.607784 267.774964 
L 254.406919 267.72913 
L 256.987653 267.627243 
L 257.070703 266.280688 
L 261.865514 266.169661 
L 262.39827 266.096616 
L 263.667667 266.028973 
L 263.730162 264.68176 
L 266.660324 264.612448 
L 267.193081 264.52909 
L 268.775618 264.430703 
L 268.791351 263.094034 
L 271.721514 263.010849 
L 272.25427 262.909225 
L 273.487271 262.832432 
L 273.586162 261.464964 
L 276.782703 261.36089 
L 277.036495 261.234162 
L 277.049081 259.630725 
L 278.380973 259.630725 
L 278.91373 259.51932 
L 279.979243 259.51932 
L 280.245622 259.375875 
L 281.588586 259.369514 
L 281.588586 258.037622 
L 281.843892 257.919118 
L 283.442162 257.919118 
L 283.692157 257.771243 
L 283.708541 256.430985 
L 285.040432 256.430985 
L 285.306811 256.29194 
L 286.638703 256.29194 
L 286.823724 256.172973 
L 286.905081 254.795481 
L 288.236973 254.795481 
L 288.503351 254.631395 
L 289.916591 254.574703 
L 289.916591 253.242811 
L 290.101622 253.129555 
L 291.699892 253.129555 
L 291.912008 252.976432 
L 291.96627 251.342385 
L 293.298162 251.342385 
L 293.564541 251.152994 
L 294.949239 251.111784 
L 294.949239 249.779892 
L 295.162811 249.627122 
L 296.494703 249.627122 
L 296.634822 249.513514 
L 296.634822 248.181622 
L 296.761081 248.085139 
L 298.092973 248.085139 
L 298.294391 247.915243 
L 298.359351 246.530468 
L 299.957622 246.530468 
L 300.20057 246.316973 
L 300.224 244.698434 
L 301.555892 244.698434 
L 301.82227 244.454985 
L 303.156988 244.452324 
L 303.156988 243.120432 
L 303.420541 242.872471 
L 304.771224 242.854054 
L 304.771224 241.522162 
L 305.018811 241.274575 
L 306.36912 241.255784 
L 306.36912 239.923892 
L 306.617081 239.660339 
L 308.218012 239.657514 
L 308.218012 238.325622 
L 308.461461 238.059243 
L 308.48173 236.437543 
L 309.813622 236.437543 
L 310.027116 236.194595 
L 310.08 234.797742 
L 311.411892 234.797742 
L 311.581787 234.596324 
L 311.67827 233.138174 
L 313.010162 233.138174 
L 313.123771 232.998054 
L 313.123771 231.666162 
L 313.276541 231.452591 
L 314.916021 231.399784 
L 314.916021 230.067892 
L 315.105413 229.801514 
L 315.141189 228.148981 
L 316.473081 228.148981 
L 316.626204 227.936865 
L 316.626204 226.604973 
L 316.739459 226.419942 
L 318.128044 226.338595 
L 318.128044 225.006703 
L 318.29213 224.740324 
L 318.33773 223.327075 
L 319.669622 223.327075 
L 319.788589 223.142054 
L 319.788589 221.810162 
L 319.927634 221.543784 
L 319.936 219.92913 
L 321.267892 219.92913 
L 321.415767 219.679135 
L 321.415767 218.347243 
L 321.53427 218.091937 
L 323.138902 218.080865 
L 323.138902 216.748973 
L 323.282347 216.482595 
L 323.282347 215.150703 
L 323.393752 214.617946 
L 323.398919 213.273468 
L 324.730811 213.273468 
L 324.857538 213.019676 
L 324.961612 210.089514 
L 324.997189 209.990622 
L 326.329081 209.990622 
L 326.405874 209.556757 
L 326.507498 206.892973 
L 326.590683 206.360216 
L 326.595459 205.012591 
L 327.927351 205.012591 
L 328.025739 204.495568 
L 328.109096 201.831784 
L 328.178409 201.299027 
L 328.19373 200.171018 
L 329.525622 200.171018 
L 329.593265 199.700757 
L 329.666309 196.770595 
L 329.726286 196.237838 
L 329.792 193.491004 
L 331.39027 193.491004 
L 331.436182 193.041297 
L 331.537991 188.512865 
L 331.575988 187.71373 
L 331.656649 183.452163 
L 332.988603 183.451676 
L 332.988541 163.739189 
L 331.656649 163.739189 
L 331.607766 161.875027 
L 331.537991 157.080216 
L 331.492157 156.281081 
L 331.39027 153.700347 
L 329.777336 153.617297 
L 329.666309 148.822486 
L 329.593265 148.28973 
L 329.525622 147.020333 
L 328.178409 146.957838 
L 328.109096 144.027676 
L 328.025739 143.494919 
L 327.927351 141.912382 
L 326.590683 141.896649 
L 326.507498 138.966486 
L 326.405874 138.43373 
L 326.329081 137.200729 
L 324.961612 137.101838 
L 324.857538 133.905297 
L 324.730811 133.651505 
L 323.393752 133.638919 
L 323.393752 132.307027 
L 323.282347 131.77427 
L 323.282347 130.708757 
L 323.138902 130.442378 
L 323.132541 129.099414 
L 321.53427 129.099414 
L 321.415767 128.844108 
L 321.415767 127.245838 
L 321.267892 126.995843 
L 319.927634 126.979459 
L 319.927634 125.647568 
L 319.788589 125.381189 
L 319.788589 124.049297 
L 319.669622 123.864276 
L 318.29213 123.782919 
L 318.29213 122.451027 
L 318.128044 122.184649 
L 318.071351 120.771409 
L 316.739459 120.771409 
L 316.626204 120.586378 
L 316.626204 118.988108 
L 316.473081 118.775992 
L 315.105413 118.72173 
L 315.105413 117.389838 
L 314.916021 117.123459 
L 314.874811 115.738761 
L 313.276541 115.738761 
L 313.123771 115.525189 
L 313.123771 114.193297 
L 313.010162 114.053178 
L 311.67827 114.053178 
L 311.581787 113.926919 
L 311.581787 112.595027 
L 311.411892 112.393609 
L 310.027116 112.328649 
L 310.027116 110.730378 
L 309.813622 110.48743 
L 308.461461 110.464 
L 308.461461 109.132108 
L 308.218012 108.86573 
L 308.215351 107.531012 
L 306.617081 107.531012 
L 306.36912 107.267459 
L 306.350703 105.916776 
L 305.018811 105.916776 
L 304.771224 105.669189 
L 304.752432 104.31888 
L 303.420541 104.31888 
L 303.156988 104.070919 
L 303.154162 102.469988 
L 301.82227 102.469988 
L 301.555892 102.226539 
L 300.20057 102.20627 
L 300.20057 100.874378 
L 299.957622 100.660884 
L 298.294391 100.608 
L 298.294391 99.276108 
L 298.092973 99.106213 
L 296.634822 99.00973 
L 296.634822 97.677838 
L 296.494703 97.564229 
L 295.162811 97.564229 
L 294.949239 97.411459 
L 294.896432 95.771979 
L 293.564541 95.771979 
L 293.298162 95.582587 
L 291.912008 95.546811 
L 291.912008 94.214919 
L 291.699892 94.061796 
L 290.101622 94.061796 
L 289.916591 93.948541 
L 289.835243 92.559956 
L 288.503351 92.559956 
L 288.236973 92.39587 
L 286.823724 92.35027 
L 286.823724 91.018378 
L 286.638703 90.899411 
L 285.306811 90.899411 
L 285.040432 90.760366 
L 283.692157 90.752 
L 283.692157 89.420108 
L 283.442162 89.272233 
L 281.843892 89.272233 
L 281.588586 89.15373 
L 281.577514 87.549098 
L 280.245622 87.549098 
L 279.979243 87.405653 
L 278.647351 87.405653 
L 278.114595 87.294248 
L 277.036495 87.289081 
L 277.036495 85.957189 
L 276.782703 85.830462 
L 273.586162 85.726388 
L 273.487271 85.690811 
L 273.487271 84.358919 
L 273.053405 84.282126 
L 270.389622 84.180502 
L 269.856865 84.097317 
L 268.775618 84.092541 
L 268.775618 82.760649 
L 268.258595 82.662261 
L 265.328432 82.578904 
L 264.795676 82.509591 
L 263.667667 82.49427 
L 263.667667 81.162378 
L 263.197405 81.094735 
L 260.533622 81.021691 
L 260.000865 80.961714 
L 256.987653 80.896 
L 256.987653 79.29773 
L 256.537946 79.251818 
L 252.275892 79.150009 
L 251.476757 79.112012 
L 246.948811 79.031351 
L 246.948324 77.699397 
L 227.235837 77.699459 
L 227.235837 79.031351 
L 225.371676 79.080234 
L 220.576865 79.150009 
L 219.77773 79.195843 
L 217.196996 79.29773 
L 217.113946 80.910664 
L 212.319135 81.021691 
L 211.786378 81.094735 
L 210.516982 81.162378 
L 210.454486 82.509591 
L 207.524324 82.578904 
L 206.991568 82.662261 
L 205.675409 82.760649 
L 205.659676 84.097317 
L 202.463135 84.180502 
L 201.930378 84.282126 
L 200.697378 84.358919 
L 200.598486 85.726388 
L 197.668324 85.830462 
L 197.414532 85.957189 
L 197.401946 87.294248 
L 195.803676 87.294248 
L 195.270919 87.405653 
L 194.205405 87.405653 
L 193.939027 87.549098 
L 192.596063 87.555459 
L 192.596063 89.15373 
L 192.340757 89.272233 
L 191.008865 89.272233 
L 190.75887 89.420108 
L 190.742486 90.760366 
L 189.144216 90.760366 
L 188.877838 90.899411 
L 187.545946 90.899411 
L 187.360925 91.018378 
L 187.279568 92.39587 
L 185.947676 92.39587 
L 185.681297 92.559956 
L 184.268058 92.616649 
L 184.268058 93.948541 
L 184.083027 94.061796 
L 182.751135 94.061796 
L 182.539019 94.214919 
L 182.484757 95.582587 
L 180.886486 95.582587 
L 180.620108 95.771979 
L 179.235409 95.813189 
L 179.235409 97.411459 
L 179.021838 97.564229 
L 177.689946 97.564229 
L 177.549826 97.677838 
L 177.549826 99.00973 
L 177.423568 99.106213 
L 176.091676 99.106213 
L 175.890258 99.276108 
L 175.825297 100.660884 
L 174.493405 100.660884 
L 174.250457 100.874378 
L 174.227027 102.226539 
L 172.628757 102.226539 
L 172.362378 102.469988 
L 171.027661 102.472649 
L 171.027661 104.070919 
L 170.764108 104.31888 
L 169.413425 104.337297 
L 169.413425 105.669189 
L 169.165838 105.916776 
L 167.815529 105.935568 
L 167.815529 107.267459 
L 167.567568 107.531012 
L 166.233015 107.533838 
L 166.233015 108.86573 
L 165.989566 109.132108 
L 165.969297 110.48743 
L 164.371027 110.48743 
L 164.157532 110.730378 
L 164.104649 112.393609 
L 162.772757 112.393609 
L 162.602861 112.595027 
L 162.506378 114.053178 
L 161.174486 114.053178 
L 161.060878 114.193297 
L 161.060878 115.525189 
L 160.908108 115.738761 
L 159.535006 115.791568 
L 159.535006 117.123459 
L 159.345615 117.389838 
L 159.309838 118.775992 
L 157.711568 118.775992 
L 157.558445 118.988108 
L 157.558445 120.586378 
L 157.445189 120.771409 
L 156.056605 120.852757 
L 156.056605 122.184649 
L 155.892519 122.451027 
L 155.846919 123.864276 
L 154.515027 123.864276 
L 154.39606 124.049297 
L 154.39606 125.381189 
L 154.257015 125.647568 
L 154.248649 126.995843 
L 152.916757 126.995843 
L 152.768882 127.245838 
L 152.768882 128.844108 
L 152.650378 129.099414 
L 151.312125 129.110486 
L 151.312125 130.442378 
L 151.16868 130.708757 
L 151.16868 132.040649 
L 151.057275 132.573405 
L 151.052108 133.651505 
L 149.453838 133.651505 
L 149.32711 133.905297 
L 149.223036 137.101838 
L 149.187459 137.200729 
L 147.855568 137.200729 
L 147.778775 137.634595 
L 147.677151 140.298378 
L 147.593966 140.831135 
L 147.589189 141.912382 
L 146.257297 141.912382 
L 146.15891 142.429405 
L 146.075552 145.359568 
L 146.00624 145.892324 
L 145.990919 147.020333 
L 144.659027 147.020333 
L 144.591384 147.490595 
L 144.518339 150.154378 
L 144.458362 150.687135 
L 144.392649 153.700347 
L 143.060757 153.700347 
L 143.014845 154.150054 
L 142.913036 158.412108 
L 142.875039 159.211243 
L 142.794378 163.739189 
L 141.196046 163.739676 
L 141.196108 183.452163 
L 142.794378 183.452163 
L 142.843261 185.316324 
L 142.913036 190.111135 
L 142.95887 190.91027 
L 143.060757 193.491004 
L 144.407312 193.574054 
L 144.518339 198.368865 
L 144.591384 198.901622 
L 144.659027 200.171018 
L 146.00624 200.233514 
L 146.075552 203.163676 
L 146.15891 203.696432 
L 146.257297 205.012591 
L 147.593966 205.028324 
L 147.677151 208.224865 
L 147.778775 208.757622 
L 147.855568 209.990622 
L 149.223036 210.089514 
L 149.32711 213.019676 
L 149.453838 213.273468 
L 151.057275 213.286054 
L 151.057275 214.884324 
L 151.16868 215.417081 
L 151.16868 216.482595 
L 151.312125 216.748973 
L 151.318486 218.091937 
L 152.650378 218.091937 
L 152.768882 218.347243 
L 152.768882 219.679135 
L 152.916757 219.92913 
L 154.257015 219.945514 
L 154.257015 221.543784 
L 154.39606 221.810162 
L 154.39606 223.142054 
L 154.515027 223.327075 
L 155.892519 223.408432 
L 155.892519 224.740324 
L 156.056605 225.006703 
L 156.113297 226.419942 
L 157.445189 226.419942 
L 157.558445 226.604973 
L 157.558445 227.936865 
L 157.711568 228.148981 
L 159.345615 228.203243 
L 159.345615 229.801514 
L 159.535006 230.067892 
L 159.576216 231.452591 
L 160.908108 231.452591 
L 161.060878 231.666162 
L 161.060878 232.998054 
L 161.174486 233.138174 
L 162.506378 233.138174 
L 162.602861 233.264432 
L 162.602861 234.596324 
L 162.772757 234.797742 
L 164.157532 234.862703 
L 164.157532 236.194595 
L 164.371027 236.437543 
L 165.989566 236.460973 
L 165.989566 238.059243 
L 166.233015 238.325622 
L 166.235676 239.660339 
L 167.567568 239.660339 
L 167.815529 239.923892 
L 167.833946 241.274575 
L 169.165838 241.274575 
L 169.413425 241.522162 
L 169.432216 242.872471 
L 170.764108 242.872471 
L 171.027661 243.120432 
L 171.030486 244.454985 
L 172.362378 244.454985 
L 172.628757 244.698434 
L 174.250457 244.718703 
L 174.250457 246.316973 
L 174.493405 246.530468 
L 175.890258 246.583351 
L 175.890258 247.915243 
L 176.091676 248.085139 
L 177.549826 248.181622 
L 177.549826 249.513514 
L 177.689946 249.627122 
L 179.021838 249.627122 
L 179.235409 249.779892 
L 179.288216 251.152994 
L 180.620108 251.152994 
L 180.886486 251.342385 
L 182.539019 251.378162 
L 182.539019 252.976432 
L 182.751135 253.129555 
L 184.083027 253.129555 
L 184.268058 253.242811 
L 184.349405 254.631395 
L 185.681297 254.631395 
L 185.947676 254.795481 
L 187.360925 254.841081 
L 187.360925 256.172973 
L 187.545946 256.29194 
L 188.877838 256.29194 
L 189.144216 256.430985 
L 190.75887 256.439351 
L 190.75887 257.771243 
L 191.008865 257.919118 
L 192.340757 257.919118 
L 192.596063 258.037622 
L 192.607135 259.375875 
L 193.939027 259.375875 
L 194.205405 259.51932 
L 195.537297 259.51932 
L 196.070054 259.630725 
L 197.414532 259.635892 
L 197.414532 261.234162 
L 197.668324 261.36089 
L 200.598486 261.464964 
L 200.697378 261.500541 
L 200.697378 262.832432 
L 201.131243 262.909225 
L 203.795027 263.010849 
L 204.327784 263.094034 
L 205.675409 263.098811 
L 205.675409 264.430703 
L 206.192432 264.52909 
L 208.856216 264.612448 
L 209.388973 264.68176 
L 210.516982 264.697081 
L 210.516982 266.028973 
L 210.987243 266.096616 
L 213.917405 266.169661 
L 214.450162 266.229638 
L 217.196996 266.295351 
L 217.196996 267.627243 
L 217.646703 267.673155 
L 222.175135 267.774964 
L 222.97427 267.812961 
L 227.235837 267.893622 
L 227.236324 269.491954 
L 227.704992 269.491954 
L 227.704992 269.491954 
" style="fill:none;stroke:#8b008b;stroke-width:3;"/>
   </g>
   <g id="LineCollection_4">
    <path clip-path="url(#pb2699e5937)" d="M 252.162828 307.584 
L 252.162828 307.317622 
L 252.162828 307.051243 
L 252.162828 306.784865 
L 252.162828 306.518486 
L 252.162828 306.252108 
L 252.162828 305.98573 
L 252.162828 305.719351 
L 252.162828 305.452973 
L 252.162828 305.186595 
L 252.162828 304.920216 
L 252.162828 304.653838 
L 252.162828 304.387459 
L 252.275892 304.350786 
L 252.54227 304.350786 
L 252.808649 304.350786 
L 253.075027 304.350786 
L 253.341405 304.350786 
L 253.607784 304.350786 
L 253.874162 304.262254 
L 254.140541 304.262254 
L 254.406919 304.262254 
L 254.673297 304.262254 
L 254.939676 304.262254 
L 255.206054 304.262254 
L 255.472432 304.16653 
L 255.738811 304.16653 
L 256.005189 304.16653 
L 256.271568 304.16653 
L 256.537946 304.16653 
L 256.804324 304.16653 
L 256.924174 304.121081 
L 256.924174 303.854703 
L 256.924174 303.588324 
L 256.924174 303.321946 
L 256.924174 303.055568 
L 256.924174 302.789189 
L 257.070703 302.759767 
L 257.337081 302.759767 
L 257.603459 302.759767 
L 257.869838 302.759767 
L 258.136216 302.759767 
L 258.402595 302.759767 
L 258.668973 302.704326 
L 258.935351 302.704326 
L 259.20173 302.704326 
L 259.468108 302.704326 
L 259.734486 302.704326 
L 260.000865 302.704326 
L 260.267243 302.704326 
L 260.533622 302.643314 
L 260.8 302.643314 
L 261.066378 302.643314 
L 261.332757 302.643314 
L 261.599135 302.643314 
L 261.865514 302.643314 
L 262.131892 302.5739 
L 262.39827 302.5739 
L 262.664649 302.5739 
L 262.931027 302.5739 
L 263.197405 302.5739 
L 263.463784 302.5739 
L 263.638439 302.522811 
L 263.638439 302.256432 
L 263.638439 301.990054 
L 263.638439 301.723676 
L 263.638439 301.457297 
L 263.638439 301.190919 
L 263.730162 301.172874 
L 263.996541 301.172874 
L 264.262919 301.172874 
L 264.529297 301.172874 
L 264.795676 301.172874 
L 265.062054 301.172874 
L 265.328432 301.118376 
L 265.413491 301.118376 
" style="fill:none;stroke:#bf00bf;stroke-width:3;"/>
    <path clip-path="url(#pb2699e5937)" d="M 281.651375 297.063685 
L 281.651375 296.12973 
L 282.11027 296.070171 
L 285.040432 295.976901 
L 285.299571 295.863351 
L 285.306811 294.528935 
L 288.236973 294.435666 
L 288.76973 294.321812 
L 289.950941 294.265081 
L 289.950941 292.933189 
L 290.368 292.87498 
L 291.699892 292.87498 
L 292.232649 292.75965 
L 293.476412 292.666811 
L 293.564541 291.031193 
L 294.896432 291.031193 
L 295.429189 290.910429 
L 296.690275 290.802162 
L 296.761081 289.437662 
L 298.092973 289.437662 
L 298.359351 289.307823 
L 300.134158 289.203892 
L 300.224 287.827396 
L 301.555892 287.827396 
L 301.82227 287.684065 
L 303.279465 287.605622 
L 303.279465 286.27373 
L 303.420541 286.198684 
L 304.752432 286.198684 
L 305.018811 286.035075 
L 306.392393 286.007351 
L 306.392393 284.675459 
L 306.617081 284.547887 
L 308.215351 284.547887 
L 308.419614 284.409081 
L 308.48173 282.773255 
L 309.813622 282.773255 
L 310.08 282.601124 
L 311.490386 282.544432 
L 311.490386 281.212541 
L 311.67827 281.092171 
L 313.010162 281.092171 
L 313.207426 280.946162 
L 313.276541 279.567465 
L 314.874811 279.567465 
L 315.141189 279.370959 
L 316.502462 279.347892 
L 316.502462 278.016 
L 316.739459 277.846307 
L 318.191219 277.749622 
L 318.191219 276.151351 
L 318.33773 276.041082 
L 319.669622 276.041082 
L 319.857838 275.884973 
L 319.936 274.491362 
L 321.267892 274.491362 
L 321.507612 274.286703 
L 321.53427 272.932768 
L 323.132541 272.932768 
L 323.398919 272.702047 
L 324.745915 272.688432 
L 324.745915 271.356541 
L 324.997189 271.136587 
L 326.379101 271.090162 
L 326.379101 269.75827 
L 326.595459 269.56018 
L 327.998778 269.491892 
L 327.998778 267.893622 
L 328.19373 267.707051 
L 329.606636 267.627243 
L 329.606636 266.295351 
L 329.792 266.109988 
L 331.470078 266.028973 
L 331.470078 264.697081 
L 331.656649 264.50213 
L 333.056829 264.430703 
L 333.056829 263.098811 
L 333.254919 262.882452 
L 334.633235 262.832432 
L 334.633235 261.500541 
L 334.853189 261.249267 
L 336.198696 261.234162 
L 336.198696 259.635892 
L 336.429417 259.369514 
L 336.451459 258.010963 
L 337.783351 258.010963 
L 337.988011 257.771243 
L 338.04973 256.36119 
L 339.648 256.36119 
L 339.80411 256.172973 
L 339.914378 254.694571 
L 341.24627 254.694571 
L 341.342956 254.574703 
L 341.342956 253.242811 
L 341.512649 253.005815 
L 342.867609 252.976432 
L 342.867609 251.378162 
L 343.064115 251.111784 
L 343.110919 249.710779 
L 344.442811 249.710779 
L 344.588821 249.513514 
L 344.588821 248.181622 
L 344.709189 247.99374 
L 346.364153 247.915243 
L 346.364153 246.583351 
L 346.536284 246.316973 
L 346.573838 244.65659 
L 347.90573 244.65659 
L 348.044538 244.452324 
L 348.044538 243.120432 
L 348.172108 242.895751 
L 349.531728 242.854054 
L 349.531728 241.522162 
L 349.695337 241.255784 
L 349.770378 239.782826 
L 351.10227 239.782826 
L 351.180721 239.657514 
L 351.180721 238.325622 
L 351.324053 238.059243 
L 351.368649 236.371149 
L 352.700541 236.371149 
L 352.804484 236.194595 
L 352.804484 234.862703 
L 352.934326 234.596324 
L 352.966919 233.193666 
L 354.565189 233.193666 
L 354.673484 232.998054 
L 354.673484 231.666162 
L 354.794257 231.133405 
L 354.831568 229.979869 
L 356.163459 229.979869 
L 356.256371 229.801514 
L 356.256371 228.203243 
L 356.371726 227.670486 
L 356.429838 226.45464 
L 357.76173 226.45464 
L 357.818664 226.338595 
L 357.818664 225.006703 
L 357.932588 224.473946 
L 358.028108 221.804072 
L 359.36 221.804072 
L 359.474357 221.277405 
L 359.567937 218.347243 
L 359.626378 218.159942 
L 360.991223 218.080865 
L 361.091281 215.150703 
L 361.173326 214.617946 
L 361.224649 213.102006 
L 362.85449 213.019676 
L 362.947486 210.089514 
L 363.025606 209.556757 
L 363.089297 208.250856 
L 364.431334 208.224865 
L 364.532428 205.028324 
L 364.622176 204.495568 
L 364.687568 203.233145 
L 366.061745 203.163676 
L 366.061745 201.831784 
L 366.233225 201.565405 
L 366.285838 200.160635 
L 369.216 200.160635 
L 369.216 200.160635 
" style="fill:none;stroke:#bf00bf;stroke-width:3;"/>
    <path clip-path="url(#pb2699e5937)" d="M 103.104 188.399801 
L 103.370378 188.399801 
L 103.636757 188.399801 
L 103.903135 188.399801 
L 104.169514 188.399801 
L 104.435892 188.399801 
L 104.70227 188.399801 
L 104.968649 188.399801 
L 105.235027 188.399801 
L 105.501405 188.399801 
L 105.767784 188.399801 
L 106.034162 188.399801 
L 106.300541 188.399801 
L 106.337214 188.512865 
L 106.337214 188.779243 
L 106.337214 189.045622 
L 106.337214 189.312 
L 106.337214 189.578378 
L 106.337214 189.844757 
L 106.337214 190.111135 
L 106.425746 190.377514 
L 106.425746 190.643892 
L 106.425746 190.91027 
L 106.425746 191.176649 
L 106.425746 191.443027 
L 106.425746 191.709405 
L 106.52147 191.975784 
L 106.52147 192.242162 
L 106.52147 192.508541 
L 106.52147 192.774919 
L 106.52147 193.041297 
L 106.52147 193.307676 
L 106.566919 193.427525 
L 106.833297 193.427525 
L 107.099676 193.427525 
L 107.366054 193.427525 
L 107.632432 193.427525 
L 107.898811 193.427525 
L 107.928233 193.574054 
L 107.928233 193.840432 
L 107.928233 194.106811 
L 107.928233 194.373189 
L 107.928233 194.639568 
L 107.928233 194.905946 
L 107.983674 195.172324 
L 107.983674 195.438703 
L 107.983674 195.705081 
L 107.983674 195.971459 
L 107.983674 196.237838 
L 107.983674 196.504216 
L 108.044686 196.770595 
L 108.044686 197.036973 
L 108.044686 197.303351 
L 108.044686 197.56973 
L 108.044686 197.836108 
L 108.044686 198.102486 
L 108.044686 198.368865 
L 108.1141 198.635243 
L 108.1141 198.901622 
L 108.1141 199.168 
L 108.1141 199.434378 
L 108.1141 199.700757 
L 108.1141 199.967135 
L 108.165189 200.14179 
L 108.431568 200.14179 
L 108.697946 200.14179 
L 108.964324 200.14179 
L 108.977007 200.14179 
" style="fill:none;stroke:#bf00bf;stroke-width:3;"/>
    <path clip-path="url(#pb2699e5937)" d="M 114.617829 218.705441 
L 114.711099 221.543784 
L 114.824649 221.802922 
L 116.159065 221.810162 
L 116.252334 224.740324 
L 116.366188 225.273081 
L 116.422919 226.454293 
L 117.754811 226.454293 
L 117.81302 226.871351 
L 117.81302 227.936865 
L 117.92835 228.469622 
L 118.021189 229.979763 
L 119.656807 230.067892 
L 119.656807 231.399784 
L 119.777571 231.932541 
L 119.885838 233.193626 
L 121.250338 233.264432 
L 121.250338 234.596324 
L 121.380177 234.862703 
L 121.484108 236.371131 
L 122.860604 236.460973 
L 122.860604 238.059243 
L 123.003935 238.325622 
L 123.082378 239.782816 
L 124.41427 239.782816 
L 124.489316 239.923892 
L 124.489316 241.255784 
L 124.652925 241.522162 
L 124.680649 242.895745 
L 126.012541 242.895745 
L 126.140113 243.120432 
L 126.140113 244.452324 
L 126.278919 244.656587 
L 127.914745 244.718703 
L 127.914745 246.316973 
L 128.086876 246.583351 
L 128.143568 247.993737 
L 129.475459 247.993737 
L 129.595829 248.181622 
L 129.595829 249.513514 
L 129.741838 249.710777 
L 131.120535 249.779892 
L 131.120535 251.111784 
L 131.317041 251.378162 
L 131.340108 253.005814 
L 132.672 253.005814 
L 132.841693 253.242811 
L 132.938378 254.69457 
L 134.536649 254.69457 
L 134.646918 254.841081 
L 134.646918 256.172973 
L 134.803027 256.361189 
L 136.196638 256.439351 
L 136.196638 257.771243 
L 136.401297 258.010963 
L 137.755232 258.037622 
L 137.755232 259.369514 
L 137.985953 259.635892 
L 137.999568 261.249266 
L 139.331459 261.249266 
L 139.551413 261.500541 
L 139.597838 262.882452 
L 140.92973 262.882452 
L 141.12782 263.098811 
L 141.196108 264.502129 
L 142.794378 264.502129 
L 142.980949 264.697081 
L 143.060757 266.109987 
L 144.392649 266.109987 
L 144.578013 266.295351 
L 144.659027 267.707051 
L 145.990919 267.707051 
L 146.185871 267.893622 
L 146.257297 269.56018 
L 147.589189 269.56018 
L 147.805548 269.75827 
L 147.855568 271.136587 
L 149.187459 271.136587 
L 149.438734 271.356541 
L 149.453838 272.702047 
L 151.052108 272.702047 
L 151.318486 272.932768 
L 152.677037 272.954811 
L 152.677037 274.286703 
L 152.916757 274.491362 
L 154.326811 274.553081 
L 154.326811 275.884973 
L 154.515027 276.041082 
L 155.99343 276.151351 
L 155.99343 277.749622 
L 156.113297 277.846307 
L 157.445189 277.846307 
L 157.682186 278.016 
L 157.711568 279.370959 
L 159.309838 279.370959 
L 159.576216 279.567465 
L 160.977223 279.61427 
L 160.977223 280.946162 
L 161.174486 281.092171 
L 162.506378 281.092171 
L 162.694263 281.212541 
L 162.772757 282.601124 
L 164.104649 282.601124 
L 164.371027 282.773255 
L 166.031413 282.810811 
L 166.031413 284.409081 
L 166.235676 284.547887 
L 167.567568 284.547887 
L 167.792255 284.675459 
L 167.833946 286.035075 
L 169.165838 286.035075 
L 169.432216 286.198684 
L 170.905184 286.27373 
L 170.905184 287.605622 
L 171.030486 287.684065 
L 172.362378 287.684065 
L 172.628757 287.827396 
L 174.316869 287.872 
L 174.316869 289.203892 
L 174.493405 289.307823 
L 175.825297 289.307823 
L 176.091676 289.437662 
L 177.494374 289.47027 
L 177.494374 290.802162 
L 177.689946 290.910429 
L 179.021838 290.910429 
L 179.554595 291.031193 
L 180.708237 291.068541 
L 180.708237 292.666811 
L 180.886486 292.75965 
L 182.484757 292.75965 
L 183.017514 292.87498 
L 184.233707 292.933189 
L 184.233707 294.265081 
L 184.349405 294.321812 
L 185.681297 294.321812 
L 186.214054 294.435666 
L 188.885078 294.531459 
L 188.885078 295.863351 
L 189.410595 295.976901 
L 192.340757 296.070171 
L 192.533274 296.12973 
L 192.607135 297.492138 
L 195.537297 297.591363 
L 196.070054 297.672194 
L 197.609233 297.728 
L 197.668324 299.081727 
L 200.598486 299.171503 
L 201.131243 299.245199 
L 203.872567 299.32627 
L 203.872567 300.924541 
L 204.327784 300.984259 
L 207.257946 301.056737 
L 207.790703 301.118376 
L 210.54621 301.190919 
L 210.54621 302.522811 
L 210.987243 302.5739 
L 213.917405 302.643314 
L 214.450162 302.704326 
L 217.260475 302.789189 
L 217.260475 304.121081 
L 217.646703 304.16653 
L 220.310486 304.262254 
L 220.843243 304.350786 
L 222.288199 304.387459 
L 222.288199 307.584 
L 222.288199 307.584 
" style="fill:none;stroke:#bf00bf;stroke-width:3;"/>
    <path clip-path="url(#pb2699e5937)" d="M 369.216 147.030717 
L 366.233225 146.957838 
L 366.233225 145.625946 
L 366.061745 145.359568 
L 366.019459 143.958206 
L 364.687568 143.958206 
L 364.622176 143.494919 
L 364.532428 140.564757 
L 364.431334 140.032 
L 364.421189 138.940496 
L 363.089297 138.940496 
L 363.025606 138.43373 
L 362.947486 135.769946 
L 362.85449 135.237189 
L 362.822919 133.822967 
L 361.224649 133.822967 
L 361.173326 133.372541 
L 361.091281 130.708757 
L 360.991223 130.176 
L 360.95827 129.03141 
L 359.626378 129.03141 
L 359.567937 128.57773 
L 359.474357 125.647568 
L 359.36 125.387279 
L 358.025979 125.381189 
L 357.932588 122.451027 
L 357.818664 121.91827 
L 357.76173 120.736712 
L 356.429838 120.736712 
L 356.371726 120.32 
L 356.371726 118.988108 
L 356.256371 118.455351 
L 356.163459 117.211482 
L 354.794257 117.123459 
L 354.794257 115.791568 
L 354.673484 115.258811 
L 354.565189 113.997686 
L 352.934326 113.926919 
L 352.934326 112.595027 
L 352.804484 112.328649 
L 352.700541 110.553824 
L 351.324053 110.464 
L 351.324053 109.132108 
L 351.180721 108.86573 
L 351.10227 107.408525 
L 349.770378 107.408525 
L 349.695337 107.267459 
L 349.695337 105.935568 
L 349.531728 105.669189 
L 349.504 104.2956 
L 348.172108 104.2956 
L 348.044538 104.070919 
L 348.044538 102.472649 
L 347.90573 102.268383 
L 346.536284 102.20627 
L 346.536284 100.874378 
L 346.364153 100.608 
L 346.307459 99.197612 
L 344.709189 99.197612 
L 344.588821 99.00973 
L 344.588821 97.677838 
L 344.442811 97.480573 
L 343.064115 97.411459 
L 343.064115 95.813189 
L 342.867609 95.546811 
L 342.844541 94.185536 
L 341.512649 94.185536 
L 341.342956 93.948541 
L 341.24627 92.49678 
L 339.914378 92.49678 
L 339.80411 92.35027 
L 339.80411 91.018378 
L 339.648 90.830162 
L 337.988011 90.752 
L 337.988011 89.420108 
L 337.783351 89.180388 
L 336.429417 89.15373 
L 336.429417 88.322531 
L 336.429417 88.322531 
" style="fill:none;stroke:#bf00bf;stroke-width:3;"/>
    <path clip-path="url(#pb2699e5937)" d="M 325.856622 76.054765 
L 324.997189 76.054765 
L 324.745915 75.834811 
L 324.730811 74.489304 
L 323.398919 74.489304 
L 323.132541 74.258583 
L 321.507612 74.236541 
L 321.507612 72.904649 
L 321.267892 72.699989 
L 319.857838 72.63827 
L 319.857838 71.04 
L 319.669622 70.88389 
L 318.19122 70.773622 
L 318.19122 69.44173 
L 318.071351 69.345044 
L 316.739459 69.345044 
L 316.502464 69.175351 
L 316.473081 67.820391 
L 315.141189 67.820391 
L 314.874811 67.623885 
L 313.207427 67.577081 
L 313.207427 66.245189 
L 313.010162 66.099179 
L 311.67827 66.099179 
L 311.490388 65.978811 
L 311.411892 64.323847 
L 310.08 64.323847 
L 309.813622 64.151716 
L 308.419617 64.114162 
L 308.419617 62.78227 
L 308.215351 62.643462 
L 306.617081 62.643462 
L 306.3924 62.515892 
L 306.350703 61.156272 
L 305.018811 61.156272 
L 304.752432 60.992663 
L 303.279475 60.917622 
L 303.279475 59.58573 
L 303.154162 59.507279 
L 301.82227 59.507279 
L 301.555892 59.363947 
L 300.134176 59.319351 
L 300.134176 57.987459 
L 299.957622 57.883516 
L 298.359351 57.883516 
L 298.092973 57.753674 
L 296.690314 57.721081 
L 296.690314 56.122811 
L 296.494703 56.014516 
L 295.162811 56.014516 
L 294.630054 55.893743 
L 293.476518 55.856432 
L 293.476518 54.524541 
L 293.298162 54.431629 
L 291.96627 54.431629 
L 291.433514 54.316274 
L 289.951288 54.258162 
L 289.951288 52.92627 
L 289.835243 52.869336 
L 288.503351 52.869336 
L 287.970595 52.755412 
L 285.300721 52.659892 
L 285.300721 51.328 
L 284.774054 51.213643 
L 281.843892 51.120063 
L 281.65659 51.061622 
L 281.577514 49.696777 
L 278.647351 49.596719 
L 278.114595 49.514674 
L 276.865033 49.463351 
L 276.782703 47.83351 
L 273.586162 47.740514 
L 273.053405 47.662394 
L 271.747504 47.598703 
L 271.721514 46.256666 
L 268.791351 46.155572 
L 268.258595 46.065824 
L 266.729794 46.000432 
L 266.660324 44.626255 
L 265.328432 44.626255 
L 265.062054 44.454775 
L 263.657283 44.402162 
L 263.657283 41.472 
L 263.657283 41.472 
" style="fill:none;stroke:#bf00bf;stroke-width:3;"/>
    <path clip-path="url(#pb2699e5937)" d="M 210.527365 41.472 
L 210.454486 44.454775 
L 209.122595 44.454775 
L 208.856216 44.626255 
L 207.454855 44.668541 
L 207.454855 46.000432 
L 206.991568 46.065824 
L 204.061405 46.155572 
L 203.528649 46.256666 
L 202.437144 46.266811 
L 202.437144 47.598703 
L 201.930378 47.662394 
L 199.266595 47.740514 
L 198.733838 47.83351 
L 197.585994 47.865081 
L 197.585994 49.463351 
L 197.135568 49.514674 
L 194.205405 49.596719 
L 193.672649 49.696777 
L 192.528058 49.72973 
L 192.528058 51.061622 
L 192.074378 51.120063 
L 189.144216 51.213643 
L 188.883928 51.328 
L 188.877838 52.662021 
L 185.947676 52.755412 
L 185.414919 52.869336 
L 184.23336 52.92627 
L 184.23336 54.258162 
L 183.816649 54.316274 
L 182.751135 54.316274 
L 182.218378 54.431629 
L 180.708131 54.524541 
L 180.620108 55.893743 
L 179.288216 55.893743 
L 178.755459 56.014516 
L 177.494334 56.122811 
L 177.423568 57.753674 
L 176.091676 57.753674 
L 175.825297 57.883516 
L 174.316851 57.987459 
L 174.227027 59.363947 
L 172.628757 59.363947 
L 172.362378 59.507279 
L 170.905174 59.58573 
L 170.905174 60.917622 
L 170.764108 60.992663 
L 169.432216 60.992663 
L 169.165838 61.156272 
L 167.792249 61.184 
L 167.792249 62.515892 
L 167.567568 62.643462 
L 166.235676 62.643462 
L 166.03141 62.78227 
L 165.969297 64.151716 
L 164.371027 64.151716 
L 164.104649 64.323847 
L 162.69426 64.380541 
L 162.69426 65.978811 
L 162.506378 66.099179 
L 161.174486 66.099179 
L 160.977221 66.245189 
L 160.908108 67.623885 
L 159.576216 67.623885 
L 159.309838 67.820391 
L 157.682185 67.843459 
L 157.682185 69.175351 
L 157.445189 69.345044 
L 155.993429 69.44173 
L 155.993429 70.773622 
L 155.846919 70.88389 
L 154.515027 70.88389 
L 154.32681 71.04 
L 154.248649 72.699989 
L 152.916757 72.699989 
L 152.677037 72.904649 
L 152.650378 74.258583 
L 151.318486 74.258583 
L 151.052108 74.489304 
L 149.438733 74.502919 
L 149.438733 75.834811 
L 149.187459 76.054765 
L 147.805548 76.101189 
L 147.805548 77.433081 
L 147.589189 77.631171 
L 146.18587 77.699459 
L 146.18587 79.031351 
L 145.990919 79.217922 
L 144.578012 79.29773 
L 144.578012 80.896 
L 144.392649 81.081364 
L 142.980949 81.162378 
L 142.980949 82.49427 
L 142.794378 82.689222 
L 141.12782 82.760649 
L 141.12782 84.092541 
L 140.92973 84.308899 
L 139.551413 84.358919 
L 139.551413 85.690811 
L 139.331459 85.942085 
L 137.985953 85.957189 
L 137.985953 87.289081 
L 137.755232 87.555459 
L 137.733189 89.180388 
L 136.401297 89.180388 
L 136.196638 89.420108 
L 136.134919 90.830162 
L 134.803027 90.830162 
L 134.646918 91.018378 
L 134.536649 92.496781 
L 132.938378 92.496781 
L 132.841693 92.616649 
L 132.841693 93.948541 
L 132.672 94.185538 
L 131.317041 94.214919 
L 131.317041 95.546811 
L 131.120535 95.813189 
L 131.07373 97.480574 
L 129.741838 97.480574 
L 129.595829 97.677838 
L 129.595829 99.00973 
L 129.475459 99.197614 
L 128.086876 99.276108 
L 128.086876 100.608 
L 127.914745 100.874378 
L 127.877189 102.268386 
L 126.278919 102.268386 
L 126.140113 102.472649 
L 126.140113 104.070919 
L 126.012541 104.295607 
L 124.652925 104.337297 
L 124.652925 105.669189 
L 124.489316 105.935568 
L 124.41427 107.408535 
L 123.082378 107.408535 
L 123.003935 107.533838 
L 123.003935 108.86573 
L 122.860604 109.132108 
L 122.816 110.553842 
L 121.484108 110.553842 
L 121.380177 110.730378 
L 121.380177 112.328649 
L 121.250338 112.595027 
L 121.21773 113.997725 
L 119.885838 113.997725 
L 119.777571 114.193297 
L 119.777571 115.525189 
L 119.656807 116.057946 
L 119.619459 117.211588 
L 118.021189 117.211588 
L 117.92835 117.389838 
L 117.92835 118.72173 
L 117.81302 119.254486 
L 117.754811 120.737059 
L 116.422919 120.737059 
L 116.366188 120.852757 
L 116.366188 122.184649 
L 116.252334 122.717405 
L 116.156541 125.388429 
L 114.824649 125.388429 
L 114.711099 125.913946 
L 114.617829 128.844108 
L 114.55827 129.036625 
L 113.195862 129.110486 
L 113.096637 132.040649 
L 113.015806 132.573405 
L 112.96 133.846206 
L 112.153822 133.846206 
L 112.153822 133.846206 
" style="fill:none;stroke:#bf00bf;stroke-width:3;"/>
    <path clip-path="url(#pb2699e5937)" d="M 107.554812 153.763826 
L 107.366054 153.763826 
L 107.099676 153.763826 
L 106.833297 153.763826 
L 106.566919 153.763826 
L 106.52147 153.883676 
L 106.52147 154.150054 
L 106.52147 154.416432 
L 106.52147 154.682811 
L 106.52147 154.949189 
L 106.52147 155.215568 
L 106.425746 155.481946 
L 106.425746 155.748324 
L 106.425746 156.014703 
L 106.425746 156.281081 
L 106.425746 156.547459 
L 106.425746 156.813838 
L 106.337214 157.080216 
L 106.337214 157.346595 
L 106.337214 157.612973 
L 106.337214 157.879351 
L 106.337214 158.14573 
L 106.337214 158.412108 
L 106.300541 158.525172 
L 106.034162 158.525172 
L 105.767784 158.525172 
L 105.501405 158.525172 
L 105.235027 158.525172 
L 104.968649 158.525172 
L 104.70227 158.525172 
L 104.435892 158.525172 
L 104.169514 158.525172 
L 103.903135 158.525172 
L 103.636757 158.525172 
L 103.370378 158.525172 
L 103.104 158.525172 
" style="fill:none;stroke:#bf00bf;stroke-width:3;"/>
   </g>
   <g id="patch_3">
    <path d="M 103.104 307.584 
L 103.104 41.472 
" style="fill:none;stroke:#000000;stroke-linecap:square;stroke-linejoin:miter;stroke-width:0.8;"/>
   </g>
   <g id="patch_4">
    <path d="M 369.216 307.584 
L 369.216 41.472 
" style="fill:none;stroke:#000000;stroke-linecap:square;stroke-linejoin:miter;stroke-width:0.8;"/>
   </g>
   <g id="patch_5">
    <path d="M 103.104 307.584 
L 369.216 307.584 
" style="fill:none;stroke:#000000;stroke-linecap:square;stroke-linejoin:miter;stroke-width:0.8;"/>
   </g>
   <g id="patch_6">
    <path d="M 103.104 41.472 
L 369.216 41.472 
" style="fill:none;stroke:#000000;stroke-linecap:square;stroke-linejoin:miter;stroke-width:0.8;"/>
   </g>
   <g id="text_17">
    <g clip-path="url(#pb2699e5937)">
     <!-- 0 -->
     <g style="fill:#4b0082;" transform="translate(221.261364 188.5814)rotate(-343.169584)scale(0.1 -0.1)">
      <use xlink:href="#DejaVuSerif-48"/>
     </g>
    </g>
   </g>
   <g id="text_18">
    <g clip-path="url(#pb2699e5937)">
     <!-- 100 -->
     <g style="fill:#800080;" transform="translate(222.548553 241.647768)rotate(-354.969103)scale(0.1 -0.1)">
      <use xlink:href="#DejaVuSerif-49"/>
      <use x="63.623047" xlink:href="#DejaVuSerif-48"/>
      <use x="127.246094" xlink:href="#DejaVuSerif-48"/>
     </g>
    </g>
   </g>
   <g id="text_19">
    <g clip-path="url(#pb2699e5937)">
     <!-- 200 -->
     <g style="fill:#8b008b;" transform="translate(227.548574 272.331745)scale(0.1 -0.1)">
      <use xlink:href="#DejaVuSerif-50"/>
      <use x="63.623047" xlink:href="#DejaVuSerif-48"/>
      <use x="127.246094" xlink:href="#DejaVuSerif-48"/>
     </g>
    </g>
   </g>
   <g id="text_20">
    <g clip-path="url(#pb2699e5937)">
     <!-- 340 -->
     <g style="fill:#bf00bf;" transform="translate(264.907584 304.006749)rotate(-12.998131)scale(0.1 -0.1)">
      <defs>
       <path d="M 9.71875 69.828125 
Q 15.4375 71.96875 20.671875 73.09375 
Q 25.921875 74.21875 30.515625 74.21875 
Q 41.21875 74.21875 47.21875 69.59375 
Q 53.21875 64.984375 53.21875 56.78125 
Q 53.21875 50.203125 49.0625 45.78125 
Q 44.921875 41.359375 37.3125 39.796875 
Q 46.296875 38.53125 51.25 33.28125 
Q 56.203125 28.03125 56.203125 19.671875 
Q 56.203125 9.46875 49.34375 4.015625 
Q 42.484375 -1.421875 29.59375 -1.421875 
Q 23.875 -1.421875 18.421875 -0.1875 
Q 12.984375 1.03125 7.625 3.515625 
L 7.625 17.671875 
L 13.09375 17.671875 
Q 13.578125 10.640625 17.828125 7.03125 
Q 22.078125 3.421875 29.78125 3.421875 
Q 37.25 3.421875 41.578125 7.734375 
Q 45.90625 12.0625 45.90625 19.578125 
Q 45.90625 28.171875 41.453125 32.59375 
Q 37.015625 37.015625 28.421875 37.015625 
L 23.78125 37.015625 
L 23.78125 42 
L 26.21875 42 
Q 34.765625 42 39.03125 45.53125 
Q 43.3125 49.078125 43.3125 56.203125 
Q 43.3125 62.59375 39.796875 65.984375 
Q 36.28125 69.390625 29.6875 69.390625 
Q 23.09375 69.390625 19.453125 66.265625 
Q 15.828125 63.140625 15.1875 56.984375 
L 9.71875 56.984375 
z
" id="DejaVuSerif-51"/>
      </defs>
      <use xlink:href="#DejaVuSerif-51"/>
      <use x="63.623047" xlink:href="#DejaVuSerif-52"/>
      <use x="127.246094" xlink:href="#DejaVuSerif-48"/>
     </g>
    </g>
   </g>
   <g id="text_21">
    <g clip-path="url(#pb2699e5937)">
     <!-- 340 -->
     <g style="fill:#bf00bf;" transform="translate(105.682754 201.728744)rotate(-289.309907)scale(0.1 -0.1)">
      <use xlink:href="#DejaVuSerif-51"/>
      <use x="63.623047" xlink:href="#DejaVuSerif-52"/>
      <use x="127.246094" xlink:href="#DejaVuSerif-48"/>
     </g>
    </g>
   </g>
   <g id="text_22">
    <g clip-path="url(#pb2699e5937)">
     <!-- 340 -->
     <g style="fill:#bf00bf;" transform="translate(322.257128 77.977762)rotate(-321.900086)scale(0.1 -0.1)">
      <use xlink:href="#DejaVuSerif-51"/>
      <use x="63.623047" xlink:href="#DejaVuSerif-52"/>
      <use x="127.246094" xlink:href="#DejaVuSerif-48"/>
     </g>
    </g>
   </g>
   <g id="text_23">
    <g clip-path="url(#pb2699e5937)">
     <!-- 340 -->
     <g style="fill:#bf00bf;" transform="translate(109.169187 153.418819)rotate(-71.208012)scale(0.1 -0.1)">
      <use xlink:href="#DejaVuSerif-51"/>
      <use x="63.623047" xlink:href="#DejaVuSerif-52"/>
      <use x="127.246094" xlink:href="#DejaVuSerif-48"/>
     </g>
    </g>
   </g>
  </g>
 </g>
 <defs>
  <clipPath id="pb2699e5937">
   <rect height="266.112" width="266.112" x="103.104" y="41.472"/>
  </clipPath>
 </defs>
</svg>
