<?xml version="1.0" encoding="utf-8" standalone="no"?>
<!DOCTYPE svg PUBLIC "-//W3C//DTD SVG 1.1//EN"
  "http://www.w3.org/Graphics/SVG/1.1/DTD/svg11.dtd">
<!-- Created with matplotlib (https://matplotlib.org/) -->
<svg height="345.6pt" version="1.1" viewBox="0 0 460.8 345.6" width="460.8pt" xmlns="http://www.w3.org/2000/svg" xmlns:xlink="http://www.w3.org/1999/xlink">
 <metadata>
  <rdf:RDF xmlns:cc="http://creativecommons.org/ns#" xmlns:dc="http://purl.org/dc/elements/1.1/" xmlns:rdf="http://www.w3.org/1999/02/22-rdf-syntax-ns#">
   <cc:Work>
    <dc:type rdf:resource="http://purl.org/dc/dcmitype/StillImage"/>
    <dc:date>2022-08-02T01:38:19.688363</dc:date>
    <dc:format>image/svg+xml</dc:format>
    <dc:creator>
     <cc:Agent>
      <dc:title>Matplotlib v3.3.4, https://matplotlib.org/</dc:title>
     </cc:Agent>
    </dc:creator>
   </cc:Work>
  </rdf:RDF>
 </metadata>
 <defs>
  <style type="text/css">*{stroke-linecap:butt;stroke-linejoin:round;}</style>
 </defs>
 <g id="figure_1">
  <g id="patch_1">
   <path d="M 0 345.6 
L 460.8 345.6 
L 460.8 0 
L 0 0 
z
" style="fill:#ffffff;"/>
  </g>
  <g id="axes_1">
   <g id="patch_2">
    <path d="M 57.6 307.584 
L 414.72 307.584 
L 414.72 41.472 
L 57.6 41.472 
z
" style="fill:#ffffff;"/>
   </g>
   <g id="matplotlib.axis_1">
    <g id="xtick_1">
     <g id="line2d_1">
      <path clip-path="url(#p4fef054046)" d="M 72.692445 307.584 
L 72.692445 41.472 
" style="fill:none;stroke:#b0b0b0;stroke-linecap:square;stroke-width:0.8;"/>
     </g>
     <g id="line2d_2">
      <defs>
       <path d="M 0 0 
L 0 3.5 
" id="m768cafa540" style="stroke:#000000;stroke-width:0.8;"/>
      </defs>
      <g>
       <use style="stroke:#000000;stroke-width:0.8;" x="72.692445" xlink:href="#m768cafa540" y="307.584"/>
      </g>
     </g>
     <g id="text_1">
      <!-- 0 -->
      <g transform="translate(69.511195 322.182437)scale(0.1 -0.1)">
       <defs>
        <path d="M 31.78125 3.421875 
Q 39.265625 3.421875 42.96875 11.625 
Q 46.6875 19.828125 46.6875 36.375 
Q 46.6875 52.984375 42.96875 61.1875 
Q 39.265625 69.390625 31.78125 69.390625 
Q 24.3125 69.390625 20.59375 61.1875 
Q 16.890625 52.984375 16.890625 36.375 
Q 16.890625 19.828125 20.59375 11.625 
Q 24.3125 3.421875 31.78125 3.421875 
z
M 31.78125 -1.421875 
Q 19.921875 -1.421875 13.25 8.53125 
Q 6.59375 18.5 6.59375 36.375 
Q 6.59375 54.296875 13.25 64.25 
Q 19.921875 74.21875 31.78125 74.21875 
Q 43.703125 74.21875 50.34375 64.25 
Q 56.984375 54.296875 56.984375 36.375 
Q 56.984375 18.5 50.34375 8.53125 
Q 43.703125 -1.421875 31.78125 -1.421875 
z
" id="DejaVuSerif-48"/>
       </defs>
       <use xlink:href="#DejaVuSerif-48"/>
      </g>
     </g>
    </g>
    <g id="xtick_2">
     <g id="line2d_3">
      <path clip-path="url(#p4fef054046)" d="M 126.991583 307.584 
L 126.991583 41.472 
" style="fill:none;stroke:#b0b0b0;stroke-linecap:square;stroke-width:0.8;"/>
     </g>
     <g id="line2d_4">
      <g>
       <use style="stroke:#000000;stroke-width:0.8;" x="126.991583" xlink:href="#m768cafa540" y="307.584"/>
      </g>
     </g>
     <g id="text_2">
      <!-- 100 -->
      <g transform="translate(117.447833 322.182437)scale(0.1 -0.1)">
       <defs>
        <path d="M 14.203125 0 
L 14.203125 5.171875 
L 26.90625 5.171875 
L 26.90625 65.828125 
L 12.203125 56.296875 
L 12.203125 62.703125 
L 29.984375 74.21875 
L 36.71875 74.21875 
L 36.71875 5.171875 
L 49.421875 5.171875 
L 49.421875 0 
z
" id="DejaVuSerif-49"/>
       </defs>
       <use xlink:href="#DejaVuSerif-49"/>
       <use x="63.623047" xlink:href="#DejaVuSerif-48"/>
       <use x="127.246094" xlink:href="#DejaVuSerif-48"/>
      </g>
     </g>
    </g>
    <g id="xtick_3">
     <g id="line2d_5">
      <path clip-path="url(#p4fef054046)" d="M 181.290721 307.584 
L 181.290721 41.472 
" style="fill:none;stroke:#b0b0b0;stroke-linecap:square;stroke-width:0.8;"/>
     </g>
     <g id="line2d_6">
      <g>
       <use style="stroke:#000000;stroke-width:0.8;" x="181.290721" xlink:href="#m768cafa540" y="307.584"/>
      </g>
     </g>
     <g id="text_3">
      <!-- 200 -->
      <g transform="translate(171.746971 322.182437)scale(0.1 -0.1)">
       <defs>
        <path d="M 12.796875 55.515625 
L 7.328125 55.515625 
L 7.328125 68.5 
Q 12.546875 71.296875 17.84375 72.75 
Q 23.140625 74.21875 28.21875 74.21875 
Q 39.59375 74.21875 46.1875 68.703125 
Q 52.78125 63.1875 52.78125 53.71875 
Q 52.78125 43.015625 37.84375 28.125 
Q 36.671875 27 36.078125 26.421875 
L 17.671875 8.015625 
L 48.09375 8.015625 
L 48.09375 17 
L 53.8125 17 
L 53.8125 0 
L 6.78125 0 
L 6.78125 5.328125 
L 28.90625 27.390625 
Q 36.234375 34.71875 39.359375 40.84375 
Q 42.484375 46.96875 42.484375 53.71875 
Q 42.484375 61.078125 38.640625 65.234375 
Q 34.8125 69.390625 28.078125 69.390625 
Q 21.09375 69.390625 17.28125 65.921875 
Q 13.484375 62.453125 12.796875 55.515625 
z
" id="DejaVuSerif-50"/>
       </defs>
       <use xlink:href="#DejaVuSerif-50"/>
       <use x="63.623047" xlink:href="#DejaVuSerif-48"/>
       <use x="127.246094" xlink:href="#DejaVuSerif-48"/>
      </g>
     </g>
    </g>
    <g id="xtick_4">
     <g id="line2d_7">
      <path clip-path="url(#p4fef054046)" d="M 235.589859 307.584 
L 235.589859 41.472 
" style="fill:none;stroke:#b0b0b0;stroke-linecap:square;stroke-width:0.8;"/>
     </g>
     <g id="line2d_8">
      <g>
       <use style="stroke:#000000;stroke-width:0.8;" x="235.589859" xlink:href="#m768cafa540" y="307.584"/>
      </g>
     </g>
     <g id="text_4">
      <!-- 300 -->
      <g transform="translate(226.046109 322.182437)scale(0.1 -0.1)">
       <defs>
        <path d="M 9.71875 69.828125 
Q 15.4375 71.96875 20.671875 73.09375 
Q 25.921875 74.21875 30.515625 74.21875 
Q 41.21875 74.21875 47.21875 69.59375 
Q 53.21875 64.984375 53.21875 56.78125 
Q 53.21875 50.203125 49.0625 45.78125 
Q 44.921875 41.359375 37.3125 39.796875 
Q 46.296875 38.53125 51.25 33.28125 
Q 56.203125 28.03125 56.203125 19.671875 
Q 56.203125 9.46875 49.34375 4.015625 
Q 42.484375 -1.421875 29.59375 -1.421875 
Q 23.875 -1.421875 18.421875 -0.1875 
Q 12.984375 1.03125 7.625 3.515625 
L 7.625 17.671875 
L 13.09375 17.671875 
Q 13.578125 10.640625 17.828125 7.03125 
Q 22.078125 3.421875 29.78125 3.421875 
Q 37.25 3.421875 41.578125 7.734375 
Q 45.90625 12.0625 45.90625 19.578125 
Q 45.90625 28.171875 41.453125 32.59375 
Q 37.015625 37.015625 28.421875 37.015625 
L 23.78125 37.015625 
L 23.78125 42 
L 26.21875 42 
Q 34.765625 42 39.03125 45.53125 
Q 43.3125 49.078125 43.3125 56.203125 
Q 43.3125 62.59375 39.796875 65.984375 
Q 36.28125 69.390625 29.6875 69.390625 
Q 23.09375 69.390625 19.453125 66.265625 
Q 15.828125 63.140625 15.1875 56.984375 
L 9.71875 56.984375 
z
" id="DejaVuSerif-51"/>
       </defs>
       <use xlink:href="#DejaVuSerif-51"/>
       <use x="63.623047" xlink:href="#DejaVuSerif-48"/>
       <use x="127.246094" xlink:href="#DejaVuSerif-48"/>
      </g>
     </g>
    </g>
    <g id="xtick_5">
     <g id="line2d_9">
      <path clip-path="url(#p4fef054046)" d="M 289.888997 307.584 
L 289.888997 41.472 
" style="fill:none;stroke:#b0b0b0;stroke-linecap:square;stroke-width:0.8;"/>
     </g>
     <g id="line2d_10">
      <g>
       <use style="stroke:#000000;stroke-width:0.8;" x="289.888997" xlink:href="#m768cafa540" y="307.584"/>
      </g>
     </g>
     <g id="text_5">
      <!-- 400 -->
      <g transform="translate(280.345247 322.182437)scale(0.1 -0.1)">
       <defs>
        <path d="M 34.90625 24.703125 
L 34.90625 63.484375 
L 10.015625 24.703125 
z
M 56.390625 0 
L 23.1875 0 
L 23.1875 5.171875 
L 34.90625 5.171875 
L 34.90625 19.484375 
L 3.078125 19.484375 
L 3.078125 24.8125 
L 35.015625 74.21875 
L 44.671875 74.21875 
L 44.671875 24.703125 
L 58.59375 24.703125 
L 58.59375 19.484375 
L 44.671875 19.484375 
L 44.671875 5.171875 
L 56.390625 5.171875 
z
" id="DejaVuSerif-52"/>
       </defs>
       <use xlink:href="#DejaVuSerif-52"/>
       <use x="63.623047" xlink:href="#DejaVuSerif-48"/>
       <use x="127.246094" xlink:href="#DejaVuSerif-48"/>
      </g>
     </g>
    </g>
    <g id="xtick_6">
     <g id="line2d_11">
      <path clip-path="url(#p4fef054046)" d="M 344.188135 307.584 
L 344.188135 41.472 
" style="fill:none;stroke:#b0b0b0;stroke-linecap:square;stroke-width:0.8;"/>
     </g>
     <g id="line2d_12">
      <g>
       <use style="stroke:#000000;stroke-width:0.8;" x="344.188135" xlink:href="#m768cafa540" y="307.584"/>
      </g>
     </g>
     <g id="text_6">
      <!-- 500 -->
      <g transform="translate(334.644385 322.182437)scale(0.1 -0.1)">
       <defs>
        <path d="M 50.296875 72.90625 
L 50.296875 64.890625 
L 16.890625 64.890625 
L 16.890625 44 
Q 19.4375 45.75 22.828125 46.625 
Q 26.21875 47.515625 30.421875 47.515625 
Q 42.234375 47.515625 49.0625 40.96875 
Q 55.90625 34.421875 55.90625 23.09375 
Q 55.90625 11.53125 49 5.046875 
Q 42.09375 -1.421875 29.59375 -1.421875 
Q 24.5625 -1.421875 19.28125 -0.1875 
Q 14.015625 1.03125 8.5 3.515625 
L 8.5 17.671875 
L 14.015625 17.671875 
Q 14.453125 10.75 18.421875 7.078125 
Q 22.40625 3.421875 29.59375 3.421875 
Q 37.3125 3.421875 41.453125 8.5 
Q 45.609375 13.578125 45.609375 23.09375 
Q 45.609375 32.5625 41.484375 37.609375 
Q 37.359375 42.671875 29.59375 42.671875 
Q 25.203125 42.671875 21.84375 41.109375 
Q 18.5 39.546875 15.921875 36.28125 
L 11.71875 36.28125 
L 11.71875 72.90625 
z
" id="DejaVuSerif-53"/>
       </defs>
       <use xlink:href="#DejaVuSerif-53"/>
       <use x="63.623047" xlink:href="#DejaVuSerif-48"/>
       <use x="127.246094" xlink:href="#DejaVuSerif-48"/>
      </g>
     </g>
    </g>
    <g id="xtick_7">
     <g id="line2d_13">
      <path clip-path="url(#p4fef054046)" d="M 398.487273 307.584 
L 398.487273 41.472 
" style="fill:none;stroke:#b0b0b0;stroke-linecap:square;stroke-width:0.8;"/>
     </g>
     <g id="line2d_14">
      <g>
       <use style="stroke:#000000;stroke-width:0.8;" x="398.487273" xlink:href="#m768cafa540" y="307.584"/>
      </g>
     </g>
     <g id="text_7">
      <!-- 600 -->
      <g transform="translate(388.943523 322.182437)scale(0.1 -0.1)">
       <defs>
        <path d="M 32.71875 3.421875 
Q 39.59375 3.421875 43.296875 8.46875 
Q 47.015625 13.53125 47.015625 23 
Q 47.015625 32.46875 43.296875 37.515625 
Q 39.59375 42.578125 32.71875 42.578125 
Q 25.734375 42.578125 22.0625 37.6875 
Q 18.40625 32.8125 18.40625 23.578125 
Q 18.40625 13.875 22.109375 8.640625 
Q 25.828125 3.421875 32.71875 3.421875 
z
M 16.796875 40.140625 
Q 20.125 43.796875 24.3125 45.59375 
Q 28.515625 47.40625 33.796875 47.40625 
Q 44.671875 47.40625 51 40.859375 
Q 57.328125 34.328125 57.328125 23 
Q 57.328125 11.921875 50.515625 5.25 
Q 43.703125 -1.421875 32.328125 -1.421875 
Q 19.96875 -1.421875 13.328125 7.78125 
Q 6.6875 17 6.6875 34.078125 
Q 6.6875 53.21875 14.546875 63.71875 
Q 22.40625 74.21875 36.71875 74.21875 
Q 40.578125 74.21875 44.828125 73.484375 
Q 49.078125 72.75 53.515625 71.296875 
L 53.515625 59.28125 
L 48 59.28125 
Q 47.40625 64.203125 44.234375 66.796875 
Q 41.0625 69.390625 35.6875 69.390625 
Q 26.21875 69.390625 21.578125 62.203125 
Q 16.9375 55.03125 16.796875 40.140625 
z
" id="DejaVuSerif-54"/>
       </defs>
       <use xlink:href="#DejaVuSerif-54"/>
       <use x="63.623047" xlink:href="#DejaVuSerif-48"/>
       <use x="127.246094" xlink:href="#DejaVuSerif-48"/>
      </g>
     </g>
    </g>
   </g>
   <g id="matplotlib.axis_2">
    <g id="ytick_1">
     <g id="line2d_15">
      <path clip-path="url(#p4fef054046)" d="M 57.6 295.488 
L 414.72 295.488 
" style="fill:none;stroke:#b0b0b0;stroke-linecap:square;stroke-width:0.8;"/>
     </g>
     <g id="line2d_16">
      <defs>
       <path d="M 0 0 
L -3.5 0 
" id="mbfe3f0cb67" style="stroke:#000000;stroke-width:0.8;"/>
      </defs>
      <g>
       <use style="stroke:#000000;stroke-width:0.8;" x="57.6" xlink:href="#mbfe3f0cb67" y="295.488"/>
      </g>
     </g>
     <g id="text_8">
      <!-- 0.0 -->
      <g transform="translate(34.696875 299.287219)scale(0.1 -0.1)">
       <defs>
        <path d="M 9.421875 5.078125 
Q 9.421875 7.8125 11.28125 9.71875 
Q 13.140625 11.625 15.921875 11.625 
Q 18.609375 11.625 20.5 9.71875 
Q 22.40625 7.8125 22.40625 5.078125 
Q 22.40625 2.390625 20.5 0.484375 
Q 18.609375 -1.421875 15.921875 -1.421875 
Q 13.140625 -1.421875 11.28125 0.453125 
Q 9.421875 2.34375 9.421875 5.078125 
z
" id="DejaVuSerif-46"/>
       </defs>
       <use xlink:href="#DejaVuSerif-48"/>
       <use x="63.623047" xlink:href="#DejaVuSerif-46"/>
       <use x="95.410156" xlink:href="#DejaVuSerif-48"/>
      </g>
     </g>
    </g>
    <g id="ytick_2">
     <g id="line2d_17">
      <path clip-path="url(#p4fef054046)" d="M 57.6 243.860207 
L 414.72 243.860207 
" style="fill:none;stroke:#b0b0b0;stroke-linecap:square;stroke-width:0.8;"/>
     </g>
     <g id="line2d_18">
      <g>
       <use style="stroke:#000000;stroke-width:0.8;" x="57.6" xlink:href="#mbfe3f0cb67" y="243.860207"/>
      </g>
     </g>
     <g id="text_9">
      <!-- 0.1 -->
      <g transform="translate(34.696875 247.659425)scale(0.1 -0.1)">
       <use xlink:href="#DejaVuSerif-48"/>
       <use x="63.623047" xlink:href="#DejaVuSerif-46"/>
       <use x="95.410156" xlink:href="#DejaVuSerif-49"/>
      </g>
     </g>
    </g>
    <g id="ytick_3">
     <g id="line2d_19">
      <path clip-path="url(#p4fef054046)" d="M 57.6 192.232413 
L 414.72 192.232413 
" style="fill:none;stroke:#b0b0b0;stroke-linecap:square;stroke-width:0.8;"/>
     </g>
     <g id="line2d_20">
      <g>
       <use style="stroke:#000000;stroke-width:0.8;" x="57.6" xlink:href="#mbfe3f0cb67" y="192.232413"/>
      </g>
     </g>
     <g id="text_10">
      <!-- 0.2 -->
      <g transform="translate(34.696875 196.031632)scale(0.1 -0.1)">
       <use xlink:href="#DejaVuSerif-48"/>
       <use x="63.623047" xlink:href="#DejaVuSerif-46"/>
       <use x="95.410156" xlink:href="#DejaVuSerif-50"/>
      </g>
     </g>
    </g>
    <g id="ytick_4">
     <g id="line2d_21">
      <path clip-path="url(#p4fef054046)" d="M 57.6 140.60462 
L 414.72 140.60462 
" style="fill:none;stroke:#b0b0b0;stroke-linecap:square;stroke-width:0.8;"/>
     </g>
     <g id="line2d_22">
      <g>
       <use style="stroke:#000000;stroke-width:0.8;" x="57.6" xlink:href="#mbfe3f0cb67" y="140.60462"/>
      </g>
     </g>
     <g id="text_11">
      <!-- 0.3 -->
      <g transform="translate(34.696875 144.403839)scale(0.1 -0.1)">
       <use xlink:href="#DejaVuSerif-48"/>
       <use x="63.623047" xlink:href="#DejaVuSerif-46"/>
       <use x="95.410156" xlink:href="#DejaVuSerif-51"/>
      </g>
     </g>
    </g>
    <g id="ytick_5">
     <g id="line2d_23">
      <path clip-path="url(#p4fef054046)" d="M 57.6 88.976826 
L 414.72 88.976826 
" style="fill:none;stroke:#b0b0b0;stroke-linecap:square;stroke-width:0.8;"/>
     </g>
     <g id="line2d_24">
      <g>
       <use style="stroke:#000000;stroke-width:0.8;" x="57.6" xlink:href="#mbfe3f0cb67" y="88.976826"/>
      </g>
     </g>
     <g id="text_12">
      <!-- 0.4 -->
      <g transform="translate(34.696875 92.776045)scale(0.1 -0.1)">
       <use xlink:href="#DejaVuSerif-48"/>
       <use x="63.623047" xlink:href="#DejaVuSerif-46"/>
       <use x="95.410156" xlink:href="#DejaVuSerif-52"/>
      </g>
     </g>
    </g>
   </g>
   <g id="line2d_25">
    <path clip-path="url(#p4fef054046)" d="M 73.832727 295.488 
L 74.755813 295.488 
L 74.864411 53.568 
L 75.027308 83.808 
L 75.135907 83.808 
L 75.244505 107.328 
L 75.407402 295.488 
L 77.090676 295.488 
L 77.253573 252.527042 
L 77.307872 252.527042 
L 77.47077 255.054157 
L 77.579368 255.054157 
L 77.742265 257.300482 
L 77.850863 257.300482 
L 77.905163 259.310351 
L 78.06806 188.887903 
L 78.122359 188.887903 
L 78.176658 194.217908 
L 78.339556 228.586675 
L 78.393855 228.586675 
L 78.556752 231.772452 
L 78.665351 231.772452 
L 78.828248 234.668613 
L 78.936846 234.668613 
L 79.099744 237.312934 
L 79.154043 237.312934 
L 79.31694 295.488 
L 79.371239 295.488 
L 79.479838 101.598068 
L 79.534137 109.353665 
L 79.751333 109.353665 
L 79.914231 116.512678 
L 80.022829 116.512678 
L 80.185726 123.141394 
L 80.294325 123.141394 
L 80.457222 129.296629 
L 80.56582 129.296629 
L 80.728718 135.027366 
L 80.837316 135.027366 
L 81.000213 140.376054 
L 81.163111 295.488 
L 87.570409 295.488 
L 87.624708 259.834215 
L 87.733307 260.482466 
L 87.896204 260.482466 
L 88.059101 261.107564 
L 88.1677 261.107564 
L 88.330597 261.71073 
L 88.439195 261.71073 
L 88.602093 262.293097 
L 88.710691 262.293097 
L 88.873588 262.855722 
L 88.982187 262.855722 
L 89.145084 263.399593 
L 89.253682 263.399593 
L 89.41658 263.925633 
L 89.525178 263.925633 
L 89.688076 264.434703 
L 89.796674 264.434703 
L 89.959571 264.927613 
L 90.06817 264.927613 
L 90.231067 265.405119 
L 90.339665 265.405119 
L 90.502563 265.867932 
L 90.611161 265.867932 
L 90.774058 266.316721 
L 90.882657 266.316721 
L 90.991255 266.752114 
L 91.154152 230.739419 
L 91.262751 231.691605 
L 91.425648 260.004904 
L 91.588545 260.519152 
L 91.697144 260.519152 
L 91.860041 261.018707 
L 91.968639 261.018707 
L 92.131537 261.50419 
L 92.240135 261.50419 
L 92.403032 261.976188 
L 92.511631 261.976188 
L 92.674528 262.435253 
L 92.783126 262.435253 
L 92.946024 262.881912 
L 93.054622 262.881912 
L 93.21752 263.31666 
L 93.326118 263.31666 
L 93.489015 263.739967 
L 93.597613 263.739967 
L 93.760511 264.152279 
L 93.869109 264.152279 
L 94.032007 264.554019 
L 94.140605 264.554019 
L 94.303502 264.945589 
L 94.412101 264.945589 
L 94.574998 265.327369 
L 94.683596 265.327369 
L 94.846494 265.699722 
L 94.955092 265.699722 
L 95.117989 266.062994 
L 95.226588 266.062994 
L 95.280887 266.417512 
L 95.443784 262.301519 
L 95.498083 262.301519 
L 95.552382 262.696596 
L 95.71528 291.421007 
L 95.769579 291.421007 
L 95.932476 263.203876 
L 96.041075 263.203876 
L 96.203972 263.579273 
L 96.31257 263.579273 
L 96.475468 263.94604 
L 96.584066 263.94604 
L 96.746963 264.304471 
L 96.855562 264.304471 
L 97.018459 264.654848 
L 97.127057 264.654848 
L 97.289955 264.997438 
L 97.398553 264.997438 
L 97.561451 265.3325 
L 97.670049 265.3325 
L 97.832946 265.660277 
L 97.941544 265.660277 
L 98.104442 265.981005 
L 98.21304 265.981005 
L 98.375938 266.294909 
L 98.484536 266.294909 
L 98.647433 266.602205 
L 98.701732 266.602205 
L 98.756032 198.56061 
L 98.86463 199.570271 
L 99.027527 199.570271 
L 99.190425 200.559113 
L 99.299023 200.559113 
L 99.46192 201.527775 
L 99.570519 201.527775 
L 99.733416 202.476868 
L 99.842014 202.476868 
L 100.004912 203.40698 
L 100.11351 203.40698 
L 100.276407 204.318673 
L 100.385006 204.318673 
L 100.547903 205.21249 
L 100.656501 205.21249 
L 100.819399 206.088951 
L 100.873698 206.088951 
L 101.036595 210.233437 
L 101.199493 210.233437 
L 101.36239 211.045385 
L 101.470988 211.045385 
L 101.525288 211.842013 
L 101.688185 234.507326 
L 101.742484 234.507326 
L 101.905382 235.077238 
L 102.01398 235.077238 
L 102.176877 235.636597 
L 102.285476 235.636597 
L 102.448373 236.185693 
L 102.556971 236.185693 
L 102.719869 236.724805 
L 102.828467 236.724805 
L 102.991364 237.254203 
L 103.099963 237.254203 
L 103.26286 237.774147 
L 103.371458 237.774147 
L 103.534356 238.284889 
L 103.642954 238.284889 
L 103.805851 238.786671 
L 103.91445 238.786671 
L 104.077347 239.279726 
L 104.185945 239.279726 
L 104.348843 239.76428 
L 104.457441 239.76428 
L 104.620338 240.240551 
L 104.728937 240.240551 
L 104.891834 240.70875 
L 105.000432 240.70875 
L 105.16333 241.16908 
L 105.326227 295.488 
L 113.036705 295.488 
L 113.145303 280.923793 
L 113.199602 281.021539 
L 113.688294 281.117982 
L 113.851192 281.213148 
L 114.231286 281.307062 
L 114.394183 281.399747 
L 114.774277 281.49123 
L 114.937175 281.581531 
L 115.317269 281.670675 
L 115.480166 281.758684 
L 115.86026 281.845578 
L 116.023157 281.93138 
L 116.403251 282.016109 
L 116.566149 282.099785 
L 116.891944 282.182428 
L 116.946243 264.882537 
L 117.054841 265.070301 
L 117.217738 265.070301 
L 117.380636 265.255774 
L 117.489234 265.255774 
L 117.652132 265.439 
L 117.76073 265.439 
L 117.923627 265.620018 
L 118.032226 265.620018 
L 118.195123 265.798868 
L 118.303721 265.798868 
L 118.466619 265.975589 
L 118.575217 265.975589 
L 118.738114 266.150219 
L 118.846713 266.150219 
L 119.00961 266.322794 
L 119.118208 266.322794 
L 119.281106 266.493351 
L 119.389704 266.493351 
L 119.552601 266.661924 
L 119.6612 266.661924 
L 119.824097 266.828549 
L 119.932695 266.828549 
L 120.095593 266.993259 
L 120.204191 266.993259 
L 120.367088 267.156086 
L 120.475687 267.156086 
L 120.638584 267.317062 
L 120.747182 267.317062 
L 120.91008 267.47622 
L 121.018678 267.47622 
L 121.127276 267.63359 
L 121.235875 267.157658 
L 121.290174 262.374372 
L 121.398772 262.559365 
L 121.561669 262.559365 
L 121.724567 262.742302 
L 121.833165 262.742302 
L 121.996063 262.923217 
L 122.104661 262.923217 
L 122.267558 263.102144 
L 122.321857 263.102144 
L 122.376157 246.077694 
L 122.484755 246.347696 
L 122.647652 246.347696 
L 122.81055 246.614763 
L 122.919148 246.614763 
L 123.082045 246.878942 
L 123.244943 258.729005 
L 123.462139 258.729005 
L 123.625037 258.925577 
L 123.733635 258.925577 
L 123.896532 259.120058 
L 124.005131 259.120058 
L 124.168028 259.312481 
L 124.276626 259.312481 
L 124.439524 259.502879 
L 124.548122 259.502879 
L 124.711019 259.691283 
L 124.819618 259.691283 
L 124.982515 259.877724 
L 125.091113 259.877724 
L 125.254011 260.062233 
L 125.362609 260.062233 
L 125.525507 260.24484 
L 125.634105 260.24484 
L 125.797002 260.425574 
L 125.905601 260.425574 
L 126.068498 260.604464 
L 126.177096 260.604464 
L 126.339994 260.781538 
L 126.448592 260.781538 
L 126.611489 260.956823 
L 126.720088 260.956823 
L 126.882985 261.130347 
L 126.991583 261.130347 
L 127.154481 261.302135 
L 127.263079 261.302135 
L 127.317378 261.472214 
L 127.480276 255.559893 
L 127.534575 255.559893 
L 127.697472 255.757557 
L 127.80607 255.757557 
L 127.914669 255.953274 
L 128.077566 269.759098 
L 128.240463 269.88522 
L 128.349062 269.88522 
L 128.511959 270.010112 
L 128.620557 270.010112 
L 128.783455 270.133791 
L 128.892053 270.133791 
L 129.054951 270.256275 
L 129.10925 270.256275 
L 129.163549 269.848978 
L 129.217848 269.972242 
L 129.272147 269.972242 
L 129.435044 267.096521 
L 129.597942 267.232366 
L 129.70654 267.232366 
L 129.869438 267.366916 
L 129.978036 267.366916 
L 130.140933 267.500192 
L 130.249532 260.474454 
L 130.303831 260.639612 
L 130.521027 260.639612 
L 130.683925 260.80322 
L 130.792523 260.80322 
L 130.95542 260.965298 
L 131.064019 260.965298 
L 131.226916 261.125869 
L 131.335514 261.125869 
L 131.498412 261.284953 
L 131.60701 261.284953 
L 131.769907 261.44257 
L 131.878506 261.44257 
L 132.041403 261.598742 
L 132.150001 261.598742 
L 132.312899 261.753488 
L 132.421497 252.217401 
L 132.475796 252.414085 
L 132.692993 252.414085 
L 132.85589 252.60899 
L 132.964488 252.60899 
L 133.127386 252.802139 
L 133.181685 252.802139 
L 133.344582 253.373447 
L 133.50748 257.191495 
L 133.670377 257.362462 
L 133.778976 257.362462 
L 133.941873 257.531909 
L 134.050471 257.531909 
L 134.213369 257.699856 
L 134.321967 257.699856 
L 134.484864 257.866324 
L 134.593463 257.866324 
L 134.702061 258.031331 
L 134.864958 271.621024 
L 135.027856 271.725246 
L 135.40795 271.828563 
L 135.516548 271.930984 
L 135.679445 263.65777 
L 135.842343 263.794969 
L 135.950941 263.794969 
L 136.113838 263.930991 
L 136.222437 263.930991 
L 136.385334 264.06585 
L 136.493932 264.06585 
L 136.65683 264.199561 
L 136.765428 264.199561 
L 136.928326 264.332139 
L 137.036924 264.332139 
L 137.199821 264.463599 
L 137.308419 264.463599 
L 137.471317 264.593953 
L 137.579915 264.593953 
L 137.742813 264.723217 
L 137.851411 264.723217 
L 138.014308 264.851404 
L 138.122907 264.851404 
L 138.285804 264.978527 
L 138.394402 264.978527 
L 138.503001 265.104599 
L 138.5573 265.034538 
L 138.665898 257.668894 
L 138.720197 257.824529 
L 138.937394 257.824529 
L 139.100291 257.978887 
L 139.208889 257.978887 
L 139.371787 258.131986 
L 139.480385 258.131986 
L 139.643282 258.283839 
L 139.751881 258.283839 
L 139.914778 258.434463 
L 140.023376 258.434463 
L 140.186274 258.583873 
L 140.294872 258.583873 
L 140.457769 258.732082 
L 140.566368 258.732082 
L 140.729265 258.879106 
L 140.837863 258.879106 
L 140.946462 259.024958 
L 141.109359 263.759525 
L 141.272257 263.885432 
L 141.326556 263.885432 
L 141.380855 255.936595 
L 141.489453 256.092925 
L 141.65235 256.092925 
L 141.815248 256.248023 
L 141.923846 256.248023 
L 142.086744 256.401906 
L 142.195342 256.401906 
L 142.358239 256.554586 
L 142.466838 256.554586 
L 142.629735 256.706078 
L 142.738333 256.706078 
L 142.901231 256.856395 
L 143.009829 256.856395 
L 143.335624 257.477833 
L 143.389923 257.477833 
L 143.55282 259.778409 
L 143.715718 259.915228 
L 143.824316 259.915228 
L 143.987213 260.051002 
L 144.095812 260.051002 
L 144.150111 260.185743 
L 144.313008 257.69329 
L 144.367307 257.69329 
L 144.475906 257.836452 
L 144.638803 263.451719 
L 144.8017 263.572611 
L 144.910299 263.572611 
L 144.964598 263.692593 
L 145.127495 248.840021 
L 145.181794 248.840021 
L 145.344692 249.014732 
L 145.45329 249.014732 
L 145.616188 249.18814 
L 145.724786 249.18814 
L 145.887683 249.360258 
L 145.996282 249.360258 
L 146.159179 249.531102 
L 146.267777 249.531102 
L 146.430675 249.700685 
L 146.539273 249.700685 
L 146.70217 249.86902 
L 146.810769 249.86902 
L 146.973666 250.036123 
L 147.082264 250.036123 
L 147.190863 250.202006 
L 147.35376 257.823914 
L 147.516657 257.960875 
L 147.625256 257.960875 
L 147.788153 258.096843 
L 147.896751 258.096843 
L 148.059649 258.231829 
L 148.168247 258.231829 
L 148.331144 258.365844 
L 148.439743 258.365844 
L 148.60264 258.498898 
L 148.711238 258.498898 
L 148.874136 258.631002 
L 148.982734 258.631002 
L 149.145632 258.762166 
L 149.25423 258.762166 
L 149.417127 258.892399 
L 149.525725 258.892399 
L 149.688623 259.021712 
L 149.797221 259.021712 
L 149.960119 259.150115 
L 150.068717 259.150115 
L 150.231614 259.277616 
L 150.340213 259.277616 
L 150.50311 259.404226 
L 150.611708 259.404226 
L 150.774606 259.529953 
L 150.883204 259.529953 
L 151.046101 259.654807 
L 151.1547 259.654807 
L 151.208999 259.778798 
L 151.371896 266.391644 
L 151.589093 266.491976 
L 151.697691 261.514397 
L 151.75199 261.631145 
L 151.969187 261.631145 
L 152.132084 261.747093 
L 152.240682 261.747093 
L 152.40358 261.86225 
L 152.512178 261.86225 
L 152.675075 261.976623 
L 152.783674 261.976623 
L 152.946571 262.090221 
L 153.055169 262.090221 
L 153.218067 262.203051 
L 153.272366 262.203051 
L 153.326665 246.013378 
L 153.435263 246.179959 
L 153.598161 246.179959 
L 153.761058 246.345422 
L 153.869657 246.345422 
L 154.032554 246.509779 
L 154.141152 246.509779 
L 154.30405 246.67304 
L 154.412648 246.67304 
L 154.575545 246.835216 
L 154.684144 246.835216 
L 154.847041 246.996318 
L 154.955639 247.052459 
L 155.009938 247.212313 
L 155.172836 253.095104 
L 155.227135 253.095104 
L 155.390032 253.234554 
L 155.498631 253.234554 
L 155.661528 253.37309 
L 155.770126 253.37309 
L 155.933024 253.51072 
L 156.041622 253.51072 
L 156.204519 253.647454 
L 156.313118 253.647454 
L 156.476015 253.7833 
L 156.584613 253.7833 
L 156.747511 253.918267 
L 156.856109 253.918267 
L 157.019007 254.052362 
L 157.127605 254.052362 
L 157.290502 254.185596 
L 157.3991 254.185596 
L 157.561998 254.317976 
L 157.670596 254.317976 
L 157.833494 254.449509 
L 157.942092 254.449509 
L 158.104989 254.580205 
L 158.213588 254.580205 
L 158.376485 254.710071 
L 158.430784 254.710071 
L 158.593682 261.178061 
L 159.028075 261.286294 
L 159.190972 261.393847 
L 159.571066 261.500725 
L 159.733963 261.606935 
L 160.114057 261.712484 
L 160.276955 261.817377 
L 160.657049 261.92162 
L 160.819946 262.02522 
L 161.20004 262.128182 
L 161.362938 262.230513 
L 161.743032 262.332218 
L 161.905929 262.433303 
L 161.960228 262.433303 
L 162.014527 264.431825 
L 162.068826 263.400101 
L 162.557519 263.497337 
L 162.720416 263.593985 
L 162.829014 257.332824 
L 162.883313 257.447749 
L 162.991912 257.447749 
L 163.154809 269.426201 
L 163.643501 269.504231 
L 163.806399 269.581794 
L 164.186493 269.658896 
L 164.34939 269.73554 
L 164.729484 269.811731 
L 164.892382 269.887472 
L 165.272475 269.962768 
L 165.435373 270.037622 
L 165.815467 270.112038 
L 165.978364 270.186021 
L 166.358458 270.259573 
L 166.521356 270.332699 
L 166.90145 270.405402 
L 167.064347 267.383214 
L 167.444441 267.463975 
L 167.607338 267.544273 
L 167.987432 267.624112 
L 168.15033 267.703496 
L 168.530424 267.78243 
L 168.693321 267.860916 
L 168.856219 267.938958 
L 169.019116 264.841203 
L 169.344911 264.927532 
L 169.507808 265.013376 
L 169.887902 265.098739 
L 170.0508 265.183625 
L 170.430894 265.268039 
L 170.485193 265.351983 
L 170.64809 261.203633 
L 170.973885 261.298603 
L 171.136782 261.393049 
L 171.29968 261.486975 
L 171.462577 265.463553 
L 171.788372 265.546038 
L 171.951269 265.62807 
L 172.059868 265.62807 
L 172.222765 247.570193 
L 172.331363 247.570193 
L 172.494261 247.700759 
L 172.602859 247.700759 
L 172.765757 247.830616 
L 172.874355 247.830616 
L 173.037252 247.959769 
L 173.14585 247.959769 
L 173.308748 248.088223 
L 173.363047 248.088223 
L 173.525944 261.132814 
L 173.960338 261.225166 
L 174.123235 261.317024 
L 174.503329 261.40839 
L 174.666226 261.499269 
L 175.04632 261.589665 
L 175.209218 261.679581 
L 175.589312 261.769021 
L 175.752209 261.857989 
L 176.132303 261.946489 
L 176.2952 262.034525 
L 176.675294 262.122099 
L 176.838192 262.209216 
L 177.218286 262.29588 
L 177.381183 262.382093 
L 177.761277 262.46786 
L 177.924175 262.553183 
L 178.304269 262.638067 
L 178.467166 262.722514 
L 178.84726 262.806528 
L 179.010157 262.890112 
L 179.390251 262.97327 
L 179.553149 263.056005 
L 179.933243 263.138319 
L 180.09614 263.220217 
L 180.476234 263.301702 
L 180.639132 263.382775 
L 181.019225 263.463442 
L 181.182123 263.543704 
L 181.562217 263.623565 
L 181.725114 263.703027 
L 182.105208 263.782094 
L 182.268106 263.860769 
L 182.6482 263.939054 
L 182.811097 264.016953 
L 183.191191 264.094468 
L 183.354088 264.171602 
L 183.734182 264.248357 
L 183.89708 264.324738 
L 184.277174 264.400746 
L 184.331473 264.476384 
L 184.49437 265.377828 
L 184.820165 265.450911 
L 184.983063 265.52364 
L 185.200259 265.596017 
L 185.363157 270.601922 
L 185.526054 270.661888 
L 185.906148 270.721567 
L 186.069045 270.780958 
L 186.449139 270.840066 
L 186.612037 270.898892 
L 186.992131 270.957437 
L 187.155028 271.015705 
L 187.535122 271.073696 
L 187.698019 271.131413 
L 188.078113 271.188858 
L 188.241011 271.246032 
L 188.621105 271.302938 
L 188.784002 271.359578 
L 189.164096 271.415953 
L 189.326994 271.472065 
L 189.707088 271.527916 
L 189.869985 271.583507 
L 190.412976 271.693921 
L 190.575874 274.222897 
L 191.336062 274.320444 
L 191.553258 274.368882 
L 192.150549 274.465097 
L 192.367745 274.512876 
L 192.856438 274.607786 
L 193.019335 277.130327 
L 193.779523 277.212833 
L 193.996719 277.253809 
L 194.59401 277.335212 
L 194.811206 277.375641 
L 194.919805 277.415891 
L 195.082702 280.734571 
L 195.951488 280.832276 
L 196.222984 280.864557 
L 196.548779 280.928695 
L 196.874574 280.960554 
L 197.037471 295.488 
L 198.232052 295.488 
L 198.39495 294.564136 
L 198.557847 294.566131 
L 198.666445 267.931367 
L 198.720744 267.990756 
L 199.209437 268.04989 
L 199.372334 268.10877 
L 199.752428 268.167398 
L 199.915325 268.225775 
L 200.295419 268.283904 
L 200.458317 268.341785 
L 200.838411 268.39942 
L 201.001308 268.456811 
L 201.381402 268.51396 
L 201.5443 268.570867 
L 201.924394 268.627535 
L 202.087291 268.683964 
L 202.467385 268.740157 
L 202.630282 268.796115 
L 203.010376 268.851839 
L 203.173274 268.907331 
L 203.824863 269.017624 
L 203.987761 269.072428 
L 204.63935 269.181359 
L 204.802248 269.235488 
L 205.453838 269.34308 
L 205.616735 269.396546 
L 206.268325 269.502825 
L 206.431222 269.55564 
L 207.082812 269.660629 
L 207.245709 269.712806 
L 207.897299 269.816529 
L 208.060196 269.868078 
L 208.711786 269.970558 
L 208.874683 270.021491 
L 209.526273 270.122749 
L 209.743469 270.173077 
L 210.34076 270.273136 
L 210.557956 270.32287 
L 211.155247 270.42175 
L 211.372444 270.4709 
L 211.969734 270.568623 
L 212.186931 270.617199 
L 212.784221 270.713784 
L 213.001418 270.761796 
L 213.598708 270.857264 
L 213.815905 270.904722 
L 214.413195 270.999092 
L 214.630392 271.046006 
L 215.227682 271.139296 
L 215.444879 271.185674 
L 216.042169 271.277903 
L 216.259366 271.323756 
L 216.856656 271.414941 
L 217.073853 271.460277 
L 217.671144 271.550437 
L 217.88834 271.595264 
L 218.485631 271.684416 
L 218.702827 271.728743 
L 219.300118 271.816903 
L 219.517314 271.860739 
L 220.114605 271.947924 
L 220.331801 271.991276 
L 220.929092 272.077503 
L 221.146288 272.120379 
L 221.743579 272.205662 
L 221.960775 272.248071 
L 222.558066 272.332426 
L 222.775263 272.374375 
L 223.372553 272.457818 
L 223.58975 272.499313 
L 224.18704 272.581858 
L 224.404237 272.622908 
L 225.001527 272.70457 
L 225.218724 272.745182 
L 225.816014 272.825973 
L 226.033211 272.866154 
L 226.630501 272.94609 
L 226.847698 272.985846 
L 227.444988 273.06494 
L 227.662185 273.104279 
L 228.259475 273.182544 
L 228.476672 273.221471 
L 229.073963 273.29892 
L 229.291159 273.337443 
L 229.562655 273.375832 
L 229.725552 274.15254 
L 229.997048 274.189389 
L 230.159945 295.488 
L 398.487273 295.488 
L 398.487273 295.488 
" style="fill:none;stroke:#1f77b4;stroke-linecap:square;stroke-width:1.5;"/>
   </g>
   <g id="patch_3">
    <path d="M 57.6 307.584 
L 57.6 41.472 
" style="fill:none;stroke:#000000;stroke-linecap:square;stroke-linejoin:miter;stroke-width:0.8;"/>
   </g>
   <g id="patch_4">
    <path d="M 414.72 307.584 
L 414.72 41.472 
" style="fill:none;stroke:#000000;stroke-linecap:square;stroke-linejoin:miter;stroke-width:0.8;"/>
   </g>
   <g id="patch_5">
    <path d="M 57.6 307.584 
L 414.72 307.584 
" style="fill:none;stroke:#000000;stroke-linecap:square;stroke-linejoin:miter;stroke-width:0.8;"/>
   </g>
   <g id="patch_6">
    <path d="M 57.6 41.472 
L 414.72 41.472 
" style="fill:none;stroke:#000000;stroke-linecap:square;stroke-linejoin:miter;stroke-width:0.8;"/>
   </g>
  </g>
 </g>
 <defs>
  <clipPath id="p4fef054046">
   <rect height="266.112" width="357.12" x="57.6" y="41.472"/>
  </clipPath>
 </defs>
</svg>
