<?xml version="1.0" encoding="utf-8" standalone="no"?>
<!DOCTYPE svg PUBLIC "-//W3C//DTD SVG 1.1//EN"
  "http://www.w3.org/Graphics/SVG/1.1/DTD/svg11.dtd">
<!-- Created with matplotlib (https://matplotlib.org/) -->
<svg height="345.6pt" version="1.1" viewBox="0 0 460.8 345.6" width="460.8pt" xmlns="http://www.w3.org/2000/svg" xmlns:xlink="http://www.w3.org/1999/xlink">
 <metadata>
  <rdf:RDF xmlns:cc="http://creativecommons.org/ns#" xmlns:dc="http://purl.org/dc/elements/1.1/" xmlns:rdf="http://www.w3.org/1999/02/22-rdf-syntax-ns#">
   <cc:Work>
    <dc:type rdf:resource="http://purl.org/dc/dcmitype/StillImage"/>
    <dc:date>2022-08-16T23:53:58.207926</dc:date>
    <dc:format>image/svg+xml</dc:format>
    <dc:creator>
     <cc:Agent>
      <dc:title>Matplotlib v3.3.4, https://matplotlib.org/</dc:title>
     </cc:Agent>
    </dc:creator>
   </cc:Work>
  </rdf:RDF>
 </metadata>
 <defs>
  <style type="text/css">*{stroke-linecap:butt;stroke-linejoin:round;}</style>
 </defs>
 <g id="figure_1">
  <g id="patch_1">
   <path d="M 0 345.6 
L 460.8 345.6 
L 460.8 0 
L 0 0 
z
" style="fill:#ffffff;"/>
  </g>
  <g id="axes_1">
   <g id="patch_2">
    <path d="M 57.6 307.584 
L 414.72 307.584 
L 414.72 41.472 
L 57.6 41.472 
z
" style="fill:#ffffff;"/>
   </g>
   <g id="matplotlib.axis_1">
    <g id="xtick_1">
     <g id="line2d_1">
      <path clip-path="url(#p819b7c2afd)" d="M 70.774071 307.584 
L 70.774071 41.472 
" style="fill:none;stroke:#b0b0b0;stroke-linecap:square;stroke-width:0.8;"/>
     </g>
     <g id="line2d_2">
      <defs>
       <path d="M 0 0 
L 0 3.5 
" id="mb54033ef1a" style="stroke:#000000;stroke-width:0.8;"/>
      </defs>
      <g>
       <use style="stroke:#000000;stroke-width:0.8;" x="70.774071" xlink:href="#mb54033ef1a" y="307.584"/>
      </g>
     </g>
     <g id="text_1">
      <!-- 0 -->
      <g transform="translate(67.592821 322.182437)scale(0.1 -0.1)">
       <defs>
        <path d="M 31.78125 3.421875 
Q 39.265625 3.421875 42.96875 11.625 
Q 46.6875 19.828125 46.6875 36.375 
Q 46.6875 52.984375 42.96875 61.1875 
Q 39.265625 69.390625 31.78125 69.390625 
Q 24.3125 69.390625 20.59375 61.1875 
Q 16.890625 52.984375 16.890625 36.375 
Q 16.890625 19.828125 20.59375 11.625 
Q 24.3125 3.421875 31.78125 3.421875 
z
M 31.78125 -1.421875 
Q 19.921875 -1.421875 13.25 8.53125 
Q 6.59375 18.5 6.59375 36.375 
Q 6.59375 54.296875 13.25 64.25 
Q 19.921875 74.21875 31.78125 74.21875 
Q 43.703125 74.21875 50.34375 64.25 
Q 56.984375 54.296875 56.984375 36.375 
Q 56.984375 18.5 50.34375 8.53125 
Q 43.703125 -1.421875 31.78125 -1.421875 
z
" id="DejaVuSerif-48"/>
       </defs>
       <use xlink:href="#DejaVuSerif-48"/>
      </g>
     </g>
    </g>
    <g id="xtick_2">
     <g id="line2d_3">
      <path clip-path="url(#p819b7c2afd)" d="M 114.469164 307.584 
L 114.469164 41.472 
" style="fill:none;stroke:#b0b0b0;stroke-linecap:square;stroke-width:0.8;"/>
     </g>
     <g id="line2d_4">
      <g>
       <use style="stroke:#000000;stroke-width:0.8;" x="114.469164" xlink:href="#mb54033ef1a" y="307.584"/>
      </g>
     </g>
     <g id="text_2">
      <!-- 50 -->
      <g transform="translate(108.106664 322.182437)scale(0.1 -0.1)">
       <defs>
        <path d="M 50.296875 72.90625 
L 50.296875 64.890625 
L 16.890625 64.890625 
L 16.890625 44 
Q 19.4375 45.75 22.828125 46.625 
Q 26.21875 47.515625 30.421875 47.515625 
Q 42.234375 47.515625 49.0625 40.96875 
Q 55.90625 34.421875 55.90625 23.09375 
Q 55.90625 11.53125 49 5.046875 
Q 42.09375 -1.421875 29.59375 -1.421875 
Q 24.5625 -1.421875 19.28125 -0.1875 
Q 14.015625 1.03125 8.5 3.515625 
L 8.5 17.671875 
L 14.015625 17.671875 
Q 14.453125 10.75 18.421875 7.078125 
Q 22.40625 3.421875 29.59375 3.421875 
Q 37.3125 3.421875 41.453125 8.5 
Q 45.609375 13.578125 45.609375 23.09375 
Q 45.609375 32.5625 41.484375 37.609375 
Q 37.359375 42.671875 29.59375 42.671875 
Q 25.203125 42.671875 21.84375 41.109375 
Q 18.5 39.546875 15.921875 36.28125 
L 11.71875 36.28125 
L 11.71875 72.90625 
z
" id="DejaVuSerif-53"/>
       </defs>
       <use xlink:href="#DejaVuSerif-53"/>
       <use x="63.623047" xlink:href="#DejaVuSerif-48"/>
      </g>
     </g>
    </g>
    <g id="xtick_3">
     <g id="line2d_5">
      <path clip-path="url(#p819b7c2afd)" d="M 158.164258 307.584 
L 158.164258 41.472 
" style="fill:none;stroke:#b0b0b0;stroke-linecap:square;stroke-width:0.8;"/>
     </g>
     <g id="line2d_6">
      <g>
       <use style="stroke:#000000;stroke-width:0.8;" x="158.164258" xlink:href="#mb54033ef1a" y="307.584"/>
      </g>
     </g>
     <g id="text_3">
      <!-- 100 -->
      <g transform="translate(148.620508 322.182437)scale(0.1 -0.1)">
       <defs>
        <path d="M 14.203125 0 
L 14.203125 5.171875 
L 26.90625 5.171875 
L 26.90625 65.828125 
L 12.203125 56.296875 
L 12.203125 62.703125 
L 29.984375 74.21875 
L 36.71875 74.21875 
L 36.71875 5.171875 
L 49.421875 5.171875 
L 49.421875 0 
z
" id="DejaVuSerif-49"/>
       </defs>
       <use xlink:href="#DejaVuSerif-49"/>
       <use x="63.623047" xlink:href="#DejaVuSerif-48"/>
       <use x="127.246094" xlink:href="#DejaVuSerif-48"/>
      </g>
     </g>
    </g>
    <g id="xtick_4">
     <g id="line2d_7">
      <path clip-path="url(#p819b7c2afd)" d="M 201.859352 307.584 
L 201.859352 41.472 
" style="fill:none;stroke:#b0b0b0;stroke-linecap:square;stroke-width:0.8;"/>
     </g>
     <g id="line2d_8">
      <g>
       <use style="stroke:#000000;stroke-width:0.8;" x="201.859352" xlink:href="#mb54033ef1a" y="307.584"/>
      </g>
     </g>
     <g id="text_4">
      <!-- 150 -->
      <g transform="translate(192.315602 322.182437)scale(0.1 -0.1)">
       <use xlink:href="#DejaVuSerif-49"/>
       <use x="63.623047" xlink:href="#DejaVuSerif-53"/>
       <use x="127.246094" xlink:href="#DejaVuSerif-48"/>
      </g>
     </g>
    </g>
    <g id="xtick_5">
     <g id="line2d_9">
      <path clip-path="url(#p819b7c2afd)" d="M 245.554445 307.584 
L 245.554445 41.472 
" style="fill:none;stroke:#b0b0b0;stroke-linecap:square;stroke-width:0.8;"/>
     </g>
     <g id="line2d_10">
      <g>
       <use style="stroke:#000000;stroke-width:0.8;" x="245.554445" xlink:href="#mb54033ef1a" y="307.584"/>
      </g>
     </g>
     <g id="text_5">
      <!-- 200 -->
      <g transform="translate(236.010695 322.182437)scale(0.1 -0.1)">
       <defs>
        <path d="M 12.796875 55.515625 
L 7.328125 55.515625 
L 7.328125 68.5 
Q 12.546875 71.296875 17.84375 72.75 
Q 23.140625 74.21875 28.21875 74.21875 
Q 39.59375 74.21875 46.1875 68.703125 
Q 52.78125 63.1875 52.78125 53.71875 
Q 52.78125 43.015625 37.84375 28.125 
Q 36.671875 27 36.078125 26.421875 
L 17.671875 8.015625 
L 48.09375 8.015625 
L 48.09375 17 
L 53.8125 17 
L 53.8125 0 
L 6.78125 0 
L 6.78125 5.328125 
L 28.90625 27.390625 
Q 36.234375 34.71875 39.359375 40.84375 
Q 42.484375 46.96875 42.484375 53.71875 
Q 42.484375 61.078125 38.640625 65.234375 
Q 34.8125 69.390625 28.078125 69.390625 
Q 21.09375 69.390625 17.28125 65.921875 
Q 13.484375 62.453125 12.796875 55.515625 
z
" id="DejaVuSerif-50"/>
       </defs>
       <use xlink:href="#DejaVuSerif-50"/>
       <use x="63.623047" xlink:href="#DejaVuSerif-48"/>
       <use x="127.246094" xlink:href="#DejaVuSerif-48"/>
      </g>
     </g>
    </g>
    <g id="xtick_6">
     <g id="line2d_11">
      <path clip-path="url(#p819b7c2afd)" d="M 289.249539 307.584 
L 289.249539 41.472 
" style="fill:none;stroke:#b0b0b0;stroke-linecap:square;stroke-width:0.8;"/>
     </g>
     <g id="line2d_12">
      <g>
       <use style="stroke:#000000;stroke-width:0.8;" x="289.249539" xlink:href="#mb54033ef1a" y="307.584"/>
      </g>
     </g>
     <g id="text_6">
      <!-- 250 -->
      <g transform="translate(279.705789 322.182437)scale(0.1 -0.1)">
       <use xlink:href="#DejaVuSerif-50"/>
       <use x="63.623047" xlink:href="#DejaVuSerif-53"/>
       <use x="127.246094" xlink:href="#DejaVuSerif-48"/>
      </g>
     </g>
    </g>
    <g id="xtick_7">
     <g id="line2d_13">
      <path clip-path="url(#p819b7c2afd)" d="M 332.944632 307.584 
L 332.944632 41.472 
" style="fill:none;stroke:#b0b0b0;stroke-linecap:square;stroke-width:0.8;"/>
     </g>
     <g id="line2d_14">
      <g>
       <use style="stroke:#000000;stroke-width:0.8;" x="332.944632" xlink:href="#mb54033ef1a" y="307.584"/>
      </g>
     </g>
     <g id="text_7">
      <!-- 300 -->
      <g transform="translate(323.400882 322.182437)scale(0.1 -0.1)">
       <defs>
        <path d="M 9.71875 69.828125 
Q 15.4375 71.96875 20.671875 73.09375 
Q 25.921875 74.21875 30.515625 74.21875 
Q 41.21875 74.21875 47.21875 69.59375 
Q 53.21875 64.984375 53.21875 56.78125 
Q 53.21875 50.203125 49.0625 45.78125 
Q 44.921875 41.359375 37.3125 39.796875 
Q 46.296875 38.53125 51.25 33.28125 
Q 56.203125 28.03125 56.203125 19.671875 
Q 56.203125 9.46875 49.34375 4.015625 
Q 42.484375 -1.421875 29.59375 -1.421875 
Q 23.875 -1.421875 18.421875 -0.1875 
Q 12.984375 1.03125 7.625 3.515625 
L 7.625 17.671875 
L 13.09375 17.671875 
Q 13.578125 10.640625 17.828125 7.03125 
Q 22.078125 3.421875 29.78125 3.421875 
Q 37.25 3.421875 41.578125 7.734375 
Q 45.90625 12.0625 45.90625 19.578125 
Q 45.90625 28.171875 41.453125 32.59375 
Q 37.015625 37.015625 28.421875 37.015625 
L 23.78125 37.015625 
L 23.78125 42 
L 26.21875 42 
Q 34.765625 42 39.03125 45.53125 
Q 43.3125 49.078125 43.3125 56.203125 
Q 43.3125 62.59375 39.796875 65.984375 
Q 36.28125 69.390625 29.6875 69.390625 
Q 23.09375 69.390625 19.453125 66.265625 
Q 15.828125 63.140625 15.1875 56.984375 
L 9.71875 56.984375 
z
" id="DejaVuSerif-51"/>
       </defs>
       <use xlink:href="#DejaVuSerif-51"/>
       <use x="63.623047" xlink:href="#DejaVuSerif-48"/>
       <use x="127.246094" xlink:href="#DejaVuSerif-48"/>
      </g>
     </g>
    </g>
    <g id="xtick_8">
     <g id="line2d_15">
      <path clip-path="url(#p819b7c2afd)" d="M 376.639726 307.584 
L 376.639726 41.472 
" style="fill:none;stroke:#b0b0b0;stroke-linecap:square;stroke-width:0.8;"/>
     </g>
     <g id="line2d_16">
      <g>
       <use style="stroke:#000000;stroke-width:0.8;" x="376.639726" xlink:href="#mb54033ef1a" y="307.584"/>
      </g>
     </g>
     <g id="text_8">
      <!-- 350 -->
      <g transform="translate(367.095976 322.182437)scale(0.1 -0.1)">
       <use xlink:href="#DejaVuSerif-51"/>
       <use x="63.623047" xlink:href="#DejaVuSerif-53"/>
       <use x="127.246094" xlink:href="#DejaVuSerif-48"/>
      </g>
     </g>
    </g>
    <g id="text_9">
     <!-- Time -->
     <g transform="translate(214.680234 341.179469)scale(0.17 -0.17)">
      <defs>
       <path d="M 19.09375 0 
L 19.09375 5.171875 
L 28.421875 5.171875 
L 28.421875 67.09375 
L 6.984375 67.09375 
L 6.984375 55.71875 
L 0.984375 55.71875 
L 0.984375 72.90625 
L 65.71875 72.90625 
L 65.71875 55.71875 
L 59.71875 55.71875 
L 59.71875 67.09375 
L 38.28125 67.09375 
L 38.28125 5.171875 
L 47.609375 5.171875 
L 47.609375 0 
z
" id="DejaVuSerif-84"/>
       <path d="M 9.71875 68.015625 
Q 9.71875 70.265625 11.34375 71.921875 
Q 12.984375 73.578125 15.28125 73.578125 
Q 17.53125 73.578125 19.15625 71.921875 
Q 20.796875 70.265625 20.796875 68.015625 
Q 20.796875 65.71875 19.1875 64.109375 
Q 17.578125 62.5 15.28125 62.5 
Q 12.984375 62.5 11.34375 64.109375 
Q 9.71875 65.71875 9.71875 68.015625 
z
M 21.1875 5.171875 
L 29.6875 5.171875 
L 29.6875 0 
L 3.609375 0 
L 3.609375 5.171875 
L 12.203125 5.171875 
L 12.203125 46.6875 
L 3.609375 46.6875 
L 3.609375 51.90625 
L 21.1875 51.90625 
z
" id="DejaVuSerif-105"/>
       <path d="M 51.8125 41.796875 
Q 54.390625 47.515625 58.421875 50.421875 
Q 62.453125 53.328125 67.828125 53.328125 
Q 75.984375 53.328125 79.984375 48.265625 
Q 83.984375 43.21875 83.984375 33.015625 
L 83.984375 5.171875 
L 92.09375 5.171875 
L 92.09375 0 
L 67.1875 0 
L 67.1875 5.171875 
L 75 5.171875 
L 75 31.984375 
Q 75 39.9375 72.65625 43.3125 
Q 70.3125 46.6875 64.890625 46.6875 
Q 58.890625 46.6875 55.734375 42.140625 
Q 52.59375 37.59375 52.59375 28.90625 
L 52.59375 5.171875 
L 60.40625 5.171875 
L 60.40625 0 
L 35.796875 0 
L 35.796875 5.171875 
L 43.609375 5.171875 
L 43.609375 32.328125 
Q 43.609375 40.09375 41.265625 43.390625 
Q 38.921875 46.6875 33.5 46.6875 
Q 27.484375 46.6875 24.328125 42.140625 
Q 21.1875 37.59375 21.1875 28.90625 
L 21.1875 5.171875 
L 29 5.171875 
L 29 0 
L 4.109375 0 
L 4.109375 5.171875 
L 12.203125 5.171875 
L 12.203125 46.78125 
L 3.609375 46.78125 
L 3.609375 51.90625 
L 21.1875 51.90625 
L 21.1875 42.671875 
Q 23.6875 47.859375 27.53125 50.59375 
Q 31.390625 53.328125 36.28125 53.328125 
Q 42.328125 53.328125 46.375 50.3125 
Q 50.4375 47.3125 51.8125 41.796875 
z
" id="DejaVuSerif-109"/>
       <path d="M 54.203125 25 
L 15.484375 25 
L 15.484375 24.609375 
Q 15.484375 14.109375 19.4375 8.765625 
Q 23.390625 3.421875 31.109375 3.421875 
Q 37.015625 3.421875 40.796875 6.515625 
Q 44.578125 9.625 46.09375 15.71875 
L 53.328125 15.71875 
Q 51.171875 7.171875 45.375 2.875 
Q 39.59375 -1.421875 30.171875 -1.421875 
Q 18.796875 -1.421875 11.890625 6.078125 
Q 4.984375 13.578125 4.984375 25.984375 
Q 4.984375 38.28125 11.765625 45.796875 
Q 18.5625 53.328125 29.59375 53.328125 
Q 41.359375 53.328125 47.65625 46.0625 
Q 53.953125 38.8125 54.203125 25 
z
M 43.609375 30.171875 
Q 43.3125 39.265625 39.765625 43.875 
Q 36.234375 48.484375 29.59375 48.484375 
Q 23.390625 48.484375 19.828125 43.84375 
Q 16.265625 39.203125 15.484375 30.171875 
z
" id="DejaVuSerif-101"/>
      </defs>
      <use xlink:href="#DejaVuSerif-84"/>
      <use x="66.699219" xlink:href="#DejaVuSerif-105"/>
      <use x="98.681641" xlink:href="#DejaVuSerif-109"/>
      <use x="193.505859" xlink:href="#DejaVuSerif-101"/>
     </g>
    </g>
   </g>
   <g id="matplotlib.axis_2">
    <g id="ytick_1">
     <g id="line2d_17">
      <path clip-path="url(#p819b7c2afd)" d="M 57.6 289.8432 
L 414.72 289.8432 
" style="fill:none;stroke:#b0b0b0;stroke-linecap:square;stroke-width:0.8;"/>
     </g>
     <g id="line2d_18">
      <defs>
       <path d="M 0 0 
L -3.5 0 
" id="m0f1ca1b904" style="stroke:#000000;stroke-width:0.8;"/>
      </defs>
      <g>
       <use style="stroke:#000000;stroke-width:0.8;" x="57.6" xlink:href="#m0f1ca1b904" y="289.8432"/>
      </g>
     </g>
     <g id="text_10">
      <!-- −0.2 -->
      <g transform="translate(26.317187 293.642419)scale(0.1 -0.1)">
       <defs>
        <path d="M 10.59375 35.296875 
L 73.1875 35.296875 
L 73.1875 27.390625 
L 10.59375 27.390625 
z
" id="DejaVuSerif-8722"/>
        <path d="M 9.421875 5.078125 
Q 9.421875 7.8125 11.28125 9.71875 
Q 13.140625 11.625 15.921875 11.625 
Q 18.609375 11.625 20.5 9.71875 
Q 22.40625 7.8125 22.40625 5.078125 
Q 22.40625 2.390625 20.5 0.484375 
Q 18.609375 -1.421875 15.921875 -1.421875 
Q 13.140625 -1.421875 11.28125 0.453125 
Q 9.421875 2.34375 9.421875 5.078125 
z
" id="DejaVuSerif-46"/>
       </defs>
       <use xlink:href="#DejaVuSerif-8722"/>
       <use x="83.789062" xlink:href="#DejaVuSerif-48"/>
       <use x="147.412109" xlink:href="#DejaVuSerif-46"/>
       <use x="179.199219" xlink:href="#DejaVuSerif-50"/>
      </g>
     </g>
    </g>
    <g id="ytick_2">
     <g id="line2d_19">
      <path clip-path="url(#p819b7c2afd)" d="M 57.6 254.3616 
L 414.72 254.3616 
" style="fill:none;stroke:#b0b0b0;stroke-linecap:square;stroke-width:0.8;"/>
     </g>
     <g id="line2d_20">
      <g>
       <use style="stroke:#000000;stroke-width:0.8;" x="57.6" xlink:href="#m0f1ca1b904" y="254.3616"/>
      </g>
     </g>
     <g id="text_11">
      <!-- −0.1 -->
      <g transform="translate(26.317187 258.160819)scale(0.1 -0.1)">
       <use xlink:href="#DejaVuSerif-8722"/>
       <use x="83.789062" xlink:href="#DejaVuSerif-48"/>
       <use x="147.412109" xlink:href="#DejaVuSerif-46"/>
       <use x="179.199219" xlink:href="#DejaVuSerif-49"/>
      </g>
     </g>
    </g>
    <g id="ytick_3">
     <g id="line2d_21">
      <path clip-path="url(#p819b7c2afd)" d="M 57.6 218.88 
L 414.72 218.88 
" style="fill:none;stroke:#b0b0b0;stroke-linecap:square;stroke-width:0.8;"/>
     </g>
     <g id="line2d_22">
      <g>
       <use style="stroke:#000000;stroke-width:0.8;" x="57.6" xlink:href="#m0f1ca1b904" y="218.88"/>
      </g>
     </g>
     <g id="text_12">
      <!-- 0.0 -->
      <g transform="translate(34.696875 222.679219)scale(0.1 -0.1)">
       <use xlink:href="#DejaVuSerif-48"/>
       <use x="63.623047" xlink:href="#DejaVuSerif-46"/>
       <use x="95.410156" xlink:href="#DejaVuSerif-48"/>
      </g>
     </g>
    </g>
    <g id="ytick_4">
     <g id="line2d_23">
      <path clip-path="url(#p819b7c2afd)" d="M 57.6 183.3984 
L 414.72 183.3984 
" style="fill:none;stroke:#b0b0b0;stroke-linecap:square;stroke-width:0.8;"/>
     </g>
     <g id="line2d_24">
      <g>
       <use style="stroke:#000000;stroke-width:0.8;" x="57.6" xlink:href="#m0f1ca1b904" y="183.3984"/>
      </g>
     </g>
     <g id="text_13">
      <!-- 0.1 -->
      <g transform="translate(34.696875 187.197619)scale(0.1 -0.1)">
       <use xlink:href="#DejaVuSerif-48"/>
       <use x="63.623047" xlink:href="#DejaVuSerif-46"/>
       <use x="95.410156" xlink:href="#DejaVuSerif-49"/>
      </g>
     </g>
    </g>
    <g id="ytick_5">
     <g id="line2d_25">
      <path clip-path="url(#p819b7c2afd)" d="M 57.6 147.9168 
L 414.72 147.9168 
" style="fill:none;stroke:#b0b0b0;stroke-linecap:square;stroke-width:0.8;"/>
     </g>
     <g id="line2d_26">
      <g>
       <use style="stroke:#000000;stroke-width:0.8;" x="57.6" xlink:href="#m0f1ca1b904" y="147.9168"/>
      </g>
     </g>
     <g id="text_14">
      <!-- 0.2 -->
      <g transform="translate(34.696875 151.716019)scale(0.1 -0.1)">
       <use xlink:href="#DejaVuSerif-48"/>
       <use x="63.623047" xlink:href="#DejaVuSerif-46"/>
       <use x="95.410156" xlink:href="#DejaVuSerif-50"/>
      </g>
     </g>
    </g>
    <g id="ytick_6">
     <g id="line2d_27">
      <path clip-path="url(#p819b7c2afd)" d="M 57.6 112.4352 
L 414.72 112.4352 
" style="fill:none;stroke:#b0b0b0;stroke-linecap:square;stroke-width:0.8;"/>
     </g>
     <g id="line2d_28">
      <g>
       <use style="stroke:#000000;stroke-width:0.8;" x="57.6" xlink:href="#m0f1ca1b904" y="112.4352"/>
      </g>
     </g>
     <g id="text_15">
      <!-- 0.3 -->
      <g transform="translate(34.696875 116.234419)scale(0.1 -0.1)">
       <use xlink:href="#DejaVuSerif-48"/>
       <use x="63.623047" xlink:href="#DejaVuSerif-46"/>
       <use x="95.410156" xlink:href="#DejaVuSerif-51"/>
      </g>
     </g>
    </g>
    <g id="ytick_7">
     <g id="line2d_29">
      <path clip-path="url(#p819b7c2afd)" d="M 57.6 76.9536 
L 414.72 76.9536 
" style="fill:none;stroke:#b0b0b0;stroke-linecap:square;stroke-width:0.8;"/>
     </g>
     <g id="line2d_30">
      <g>
       <use style="stroke:#000000;stroke-width:0.8;" x="57.6" xlink:href="#m0f1ca1b904" y="76.9536"/>
      </g>
     </g>
     <g id="text_16">
      <!-- 0.4 -->
      <g transform="translate(34.696875 80.752819)scale(0.1 -0.1)">
       <defs>
        <path d="M 34.90625 24.703125 
L 34.90625 63.484375 
L 10.015625 24.703125 
z
M 56.390625 0 
L 23.1875 0 
L 23.1875 5.171875 
L 34.90625 5.171875 
L 34.90625 19.484375 
L 3.078125 19.484375 
L 3.078125 24.8125 
L 35.015625 74.21875 
L 44.671875 74.21875 
L 44.671875 24.703125 
L 58.59375 24.703125 
L 58.59375 19.484375 
L 44.671875 19.484375 
L 44.671875 5.171875 
L 56.390625 5.171875 
z
" id="DejaVuSerif-52"/>
       </defs>
       <use xlink:href="#DejaVuSerif-48"/>
       <use x="63.623047" xlink:href="#DejaVuSerif-46"/>
       <use x="95.410156" xlink:href="#DejaVuSerif-52"/>
      </g>
     </g>
    </g>
    <g id="ytick_8">
     <g id="line2d_31">
      <path clip-path="url(#p819b7c2afd)" d="M 57.6 41.472 
L 414.72 41.472 
" style="fill:none;stroke:#b0b0b0;stroke-linecap:square;stroke-width:0.8;"/>
     </g>
     <g id="line2d_32">
      <g>
       <use style="stroke:#000000;stroke-width:0.8;" x="57.6" xlink:href="#m0f1ca1b904" y="41.472"/>
      </g>
     </g>
     <g id="text_17">
      <!-- 0.5 -->
      <g transform="translate(34.696875 45.271219)scale(0.1 -0.1)">
       <use xlink:href="#DejaVuSerif-48"/>
       <use x="63.623047" xlink:href="#DejaVuSerif-46"/>
       <use x="95.410156" xlink:href="#DejaVuSerif-53"/>
      </g>
     </g>
    </g>
    <g id="text_18">
     <!-- Speed -->
     <g transform="translate(18.781719 201.295031)rotate(-90)scale(0.17 -0.17)">
      <defs>
       <path d="M 9.28125 3.515625 
L 9.28125 20.125 
L 14.890625 20.0625 
Q 15.140625 11.765625 19.703125 7.78125 
Q 24.265625 3.8125 33.59375 3.8125 
Q 42.28125 3.8125 46.84375 7.25 
Q 51.421875 10.6875 51.421875 17.28125 
Q 51.421875 22.5625 48.65625 25.390625 
Q 45.90625 28.21875 37.015625 30.90625 
L 27.390625 33.796875 
Q 16.9375 36.96875 12.671875 41.703125 
Q 8.40625 46.4375 8.40625 54.6875 
Q 8.40625 63.96875 14.984375 69.09375 
Q 21.578125 74.21875 33.5 74.21875 
Q 38.578125 74.21875 44.625 73.109375 
Q 50.6875 72.015625 57.515625 69.921875 
L 57.515625 54.390625 
L 52 54.390625 
Q 51.171875 62.109375 46.84375 65.546875 
Q 42.53125 69 33.6875 69 
Q 25.984375 69 21.953125 65.84375 
Q 17.921875 62.703125 17.921875 56.6875 
Q 17.921875 51.46875 20.9375 48.484375 
Q 23.96875 45.515625 33.796875 42.578125 
L 42.828125 39.890625 
Q 52.734375 36.921875 56.953125 32.296875 
Q 61.1875 27.6875 61.1875 19.921875 
Q 61.1875 9.328125 54.390625 3.953125 
Q 47.609375 -1.421875 34.1875 -1.421875 
Q 28.171875 -1.421875 21.9375 -0.1875 
Q 15.71875 1.03125 9.28125 3.515625 
z
" id="DejaVuSerif-83"/>
       <path d="M 20.515625 28.515625 
L 20.515625 23.390625 
Q 20.515625 14.015625 24.09375 9.109375 
Q 27.6875 4.203125 34.515625 4.203125 
Q 41.40625 4.203125 44.9375 9.71875 
Q 48.484375 15.234375 48.484375 25.984375 
Q 48.484375 36.765625 44.9375 42.234375 
Q 41.40625 47.703125 34.515625 47.703125 
Q 27.6875 47.703125 24.09375 42.765625 
Q 20.515625 37.84375 20.515625 28.515625 
z
M 11.53125 46.6875 
L 2.875 46.6875 
L 2.875 51.90625 
L 20.515625 51.90625 
L 20.515625 43.796875 
Q 23.140625 48.6875 27.21875 51 
Q 31.296875 53.328125 37.3125 53.328125 
Q 46.875 53.328125 52.921875 45.75 
Q 58.984375 38.1875 58.984375 25.984375 
Q 58.984375 13.765625 52.921875 6.171875 
Q 46.875 -1.421875 37.3125 -1.421875 
Q 31.296875 -1.421875 27.21875 0.890625 
Q 23.140625 3.21875 20.515625 8.109375 
L 20.515625 -15.578125 
L 29 -15.578125 
L 29 -20.796875 
L 2.875 -20.796875 
L 2.875 -15.578125 
L 11.53125 -15.578125 
z
" id="DejaVuSerif-112"/>
       <path d="M 52.484375 5.171875 
L 61.078125 5.171875 
L 61.078125 0 
L 43.5 0 
L 43.5 8.109375 
Q 40.875 3.21875 36.796875 0.890625 
Q 32.71875 -1.421875 26.703125 -1.421875 
Q 17.140625 -1.421875 11.0625 6.171875 
Q 4.984375 13.765625 4.984375 25.984375 
Q 4.984375 38.1875 11.03125 45.75 
Q 17.09375 53.328125 26.703125 53.328125 
Q 32.71875 53.328125 36.796875 51 
Q 40.875 48.6875 43.5 43.796875 
L 43.5 70.796875 
L 35.015625 70.796875 
L 35.015625 75.984375 
L 52.484375 75.984375 
z
M 43.5 23.390625 
L 43.5 28.515625 
Q 43.5 37.84375 39.90625 42.765625 
Q 36.328125 47.703125 29.5 47.703125 
Q 22.5625 47.703125 19.015625 42.234375 
Q 15.484375 36.765625 15.484375 25.984375 
Q 15.484375 15.234375 19.015625 9.71875 
Q 22.5625 4.203125 29.5 4.203125 
Q 36.328125 4.203125 39.90625 9.109375 
Q 43.5 14.015625 43.5 23.390625 
z
" id="DejaVuSerif-100"/>
      </defs>
      <use xlink:href="#DejaVuSerif-83"/>
      <use x="68.505859" xlink:href="#DejaVuSerif-112"/>
      <use x="132.519531" xlink:href="#DejaVuSerif-101"/>
      <use x="191.699219" xlink:href="#DejaVuSerif-101"/>
      <use x="250.878906" xlink:href="#DejaVuSerif-100"/>
     </g>
    </g>
   </g>
   <g id="LineCollection_1">
    <path clip-path="url(#p819b7c2afd)" d="M 73.832727 218.88 
L 398.487273 218.88 
" style="fill:none;stroke:#696969;stroke-width:1.5;"/>
   </g>
   <g id="line2d_33">
    <path clip-path="url(#p819b7c2afd)" d="M 73.919914 -1 
L 73.981291 218.88 
L 76.30587 218.88 
L 76.413279 -1 
M 77.627188 -1 
L 77.765286 218.88 
L 79.801477 218.88 
L 79.95004 41.472 
L 80.238428 41.472 
L 80.386991 55.118769 
L 80.972506 55.118769 
L 81.11233 66.816 
L 81.697844 66.816 
L 81.846407 76.9536 
L 81.986232 76.9536 
L 82.134795 218.88 
L 83.594211 218.88 
L 83.734035 93.650824 
L 83.882599 93.650824 
L 84.031162 100.608 
L 84.607937 100.608 
L 84.756501 106.832842 
L 85.342015 106.832842 
L 85.481839 112.4352 
L 86.067353 112.4352 
L 86.215917 117.504 
L 86.652868 117.504 
L 86.792692 218.88 
L 87.815157 218.88 
L 87.963721 126.319304 
L 88.252108 126.319304 
L 88.400671 130.176 
L 88.977447 130.176 
L 89.12601 133.72416 
L 89.711524 133.72416 
L 89.851349 136.999385 
L 90.436863 136.999385 
L 90.585426 140.032 
L 91.162201 140.032 
L 91.310765 142.848 
L 91.896279 142.848 
L 92.036103 145.469793 
L 92.184667 218.88 
L 92.33323 218.88 
L 92.473054 145.469793 
L 92.621618 145.469793 
L 92.770181 147.9168 
L 93.346956 147.9168 
L 93.495519 150.205935 
L 94.081034 150.205935 
L 94.220858 152.352 
L 94.806372 152.352 
L 94.954936 154.368 
L 95.531711 154.368 
L 95.680274 156.265412 
L 96.265788 156.265412 
L 96.405613 158.0544 
L 96.991127 158.0544 
L 97.13969 100.608 
L 97.576641 100.608 
L 97.716465 159.744 
L 97.865029 161.34227 
L 98.450543 161.34227 
L 98.590367 162.856421 
L 99.175882 162.856421 
L 99.324445 164.292923 
L 99.90122 164.292923 
L 100.049783 165.6576 
L 100.635298 165.6576 
L 100.775122 166.955707 
L 101.360636 166.955707 
L 101.5092 168.192 
L 102.085975 168.192 
L 102.234538 119.861581 
L 102.820052 119.861581 
L 102.959877 122.112 
L 103.396828 122.112 
L 103.545391 170.496 
L 103.693954 171.5712 
L 104.270729 171.5712 
L 104.419293 172.599652 
L 105.004807 172.599652 
L 105.144631 173.58434 
L 105.730146 173.58434 
L 105.878709 174.528 
L 106.455484 174.528 
L 106.604047 175.433143 
L 107.189562 175.433143 
L 107.329386 176.30208 
L 107.477949 176.30208 
L 107.626513 133.72416 
L 107.9149 133.72416 
L 108.063464 135.393882 
L 108.640239 135.393882 
L 108.788802 136.999385 
L 109.374316 136.999385 
L 109.514141 138.544302 
L 109.811267 138.544302 
L 109.951092 178.712151 
L 110.099655 178.712151 
L 110.248218 179.456 
L 110.824994 179.456 
L 110.973557 180.1728 
L 111.559071 180.1728 
L 111.698895 180.864 
L 112.28441 180.864 
L 112.432973 181.530947 
L 113.009748 181.530947 
L 113.158312 182.174897 
L 113.306875 182.174897 
L 113.446699 145.469793 
L 113.743826 145.469793 
L 113.88365 146.714034 
L 114.469164 146.714034 
L 114.617728 147.9168 
L 115.194503 147.9168 
L 115.343066 149.080131 
L 115.92858 149.080131 
L 116.068405 150.205935 
L 116.505356 150.205935 
L 116.653919 184.542968 
L 116.802482 185.088 
L 117.379258 185.088 
L 117.527821 185.616 
L 118.113335 185.616 
L 118.253159 186.127754 
L 118.838674 186.127754 
L 118.987237 186.624 
L 119.275625 186.624 
L 119.424188 154.368 
L 119.564012 154.368 
L 119.712576 155.330866 
L 120.29809 155.330866 
L 120.437914 156.265412 
L 121.023428 156.265412 
L 121.171992 157.17287 
L 121.748767 157.17287 
L 121.89733 158.0544 
L 122.482844 158.0544 
L 122.622669 158.911099 
L 123.208183 158.911099 
L 123.356746 159.744 
L 123.793697 159.744 
L 123.933522 189.312 
L 124.082085 189.717041 
L 124.667599 189.717041 
L 124.807423 190.111135 
L 125.392938 190.111135 
L 125.541501 190.49472 
L 125.681325 190.49472 
L 125.829889 162.10944 
L 126.118276 162.10944 
L 126.26684 162.856421 
L 126.852354 162.856421 
L 126.992178 163.584 
L 127.577692 163.584 
L 127.726256 164.292923 
L 128.303031 164.292923 
L 128.451594 164.983899 
L 129.037109 164.983899 
L 129.176933 165.6576 
L 129.762447 165.6576 
L 129.91101 166.314667 
L 130.487786 166.314667 
L 130.636349 166.955707 
L 131.221863 166.955707 
L 131.361688 167.581301 
L 131.510251 193.230651 
L 131.947202 193.230651 
L 132.095765 193.536 
L 132.384153 193.536 
L 132.532716 168.192 
L 132.67254 168.192 
L 132.821104 168.788329 
L 133.406618 168.788329 
L 133.546442 169.370791 
L 134.131956 169.370791 
L 134.28052 169.939862 
L 134.857295 169.939862 
L 135.005858 170.496 
L 135.591373 170.496 
L 135.731197 171.03964 
L 136.316711 171.03964 
L 136.465274 171.5712 
L 137.04205 171.5712 
L 137.190613 172.091077 
L 137.776127 172.091077 
L 137.915952 172.599652 
L 138.501466 172.599652 
L 138.650029 173.09729 
L 139.226804 173.09729 
L 139.375368 173.58434 
L 139.960882 173.58434 
L 140.100706 174.061137 
L 140.68622 174.061137 
L 140.834784 174.528 
L 141.411559 174.528 
L 141.560122 174.985237 
L 142.145637 174.985237 
L 142.285461 175.433143 
L 142.870975 175.433143 
L 143.019538 175.872 
L 143.596314 175.872 
L 143.744877 176.30208 
L 144.330391 176.30208 
L 144.470216 176.723644 
L 145.05573 176.723644 
L 145.204293 177.136941 
L 145.781068 177.136941 
L 145.929632 177.542214 
L 146.515146 177.542214 
L 146.65497 177.939692 
L 146.803534 177.939692 
L 146.952097 157.469538 
L 147.240485 157.469538 
L 147.389048 158.0544 
L 147.677435 158.0544 
L 147.825999 178.3296 
L 147.965823 178.3296 
L 148.114386 178.712151 
L 148.699901 178.712151 
L 148.839725 179.087551 
L 149.425239 179.087551 
L 149.573803 179.456 
L 150.150578 179.456 
L 150.299141 179.817688 
L 150.884655 179.817688 
L 151.02448 180.1728 
L 151.609994 180.1728 
L 151.758557 180.521514 
L 152.335332 180.521514 
L 152.483896 180.864 
L 153.06941 180.864 
L 153.209234 181.200425 
L 153.794749 181.200425 
L 153.943312 181.530947 
L 154.520087 181.530947 
L 154.66865 163.343583 
L 155.254165 163.343583 
L 155.393989 163.822345 
L 155.979503 163.822345 
L 156.128067 164.292923 
L 156.416454 164.292923 
L 156.565017 182.488615 
L 156.704842 182.488615 
L 156.853405 182.797017 
L 157.438919 182.797017 
L 157.578744 183.100235 
L 158.164258 183.100235 
L 158.312821 183.3984 
L 158.889596 183.3984 
L 159.03816 183.691636 
L 159.623674 183.691636 
L 159.763498 183.980066 
L 160.349013 183.980066 
L 160.497576 184.263805 
L 161.074351 184.263805 
L 161.222914 184.542968 
L 161.808429 184.542968 
L 161.948253 184.817664 
L 162.533767 184.817664 
L 162.682331 168.192 
L 163.259106 168.192 
L 163.407669 168.591118 
L 163.993183 168.591118 
L 164.133008 168.984 
L 164.718522 168.984 
L 164.867085 169.370791 
L 165.443861 169.370791 
L 165.592424 169.751631 
L 165.740987 169.751631 
L 165.880811 186.127754 
L 166.177938 186.127754 
L 166.317762 186.377771 
L 166.903277 186.377771 
L 167.05184 186.624 
L 167.628615 186.624 
L 167.777179 186.866526 
L 168.362693 186.866526 
L 168.502517 187.105433 
L 169.088031 187.105433 
L 169.236595 187.3408 
L 169.81337 187.3408 
L 169.961933 187.572706 
L 170.547447 187.572706 
L 170.687272 187.801226 
L 170.984398 187.801226 
L 171.124223 172.261839 
L 171.272786 172.261839 
L 171.421349 172.599652 
L 171.998125 172.599652 
L 172.146688 172.932604 
L 172.732202 172.932604 
L 172.872026 173.2608 
L 173.457541 173.2608 
L 173.606104 173.58434 
L 174.182879 173.58434 
L 174.331443 173.903324 
L 174.916957 173.903324 
L 175.056781 174.217846 
L 175.353908 174.217846 
L 175.493732 189.105231 
L 175.642295 189.105231 
L 175.790859 189.312 
L 176.367634 189.312 
L 176.516197 189.515917 
L 177.101711 189.515917 
L 177.241536 189.717041 
L 177.82705 189.717041 
L 177.975613 189.915429 
L 178.552389 189.915429 
L 178.700952 190.111135 
L 179.286466 190.111135 
L 179.42629 190.304215 
L 179.574854 190.304215 
L 179.723417 176.016322 
L 180.011805 176.016322 
L 180.160368 176.30208 
L 180.737143 176.30208 
L 180.885707 176.584053 
L 181.471221 176.584053 
L 181.611045 176.862316 
L 182.196559 176.862316 
L 182.345123 177.136941 
L 182.921898 177.136941 
L 183.070461 177.408 
L 183.655976 177.408 
L 183.7958 177.675561 
L 184.381314 177.675561 
L 184.529877 177.939692 
L 185.106653 177.939692 
L 185.255216 178.200459 
L 185.403779 178.200459 
L 185.543604 191.760306 
L 185.84073 191.760306 
L 185.980555 191.931949 
L 186.566069 191.931949 
L 186.854456 192.101434 
L 187.291407 192.101434 
L 187.588534 192.2688 
L 188.025485 192.2688 
L 188.165309 192.434087 
L 188.60226 192.434087 
L 188.750823 179.21113 
L 188.899387 179.456 
L 189.476162 179.456 
L 189.624725 179.697865 
L 190.21024 179.697865 
L 190.350064 179.93678 
L 190.935578 179.93678 
L 191.084141 180.1728 
L 191.660917 180.1728 
L 191.80948 180.405976 
L 192.394994 180.405976 
L 192.534819 180.636359 
L 193.120333 180.636359 
L 193.268896 180.864 
L 193.845671 180.864 
L 193.994235 181.088947 
L 194.579749 181.088947 
L 194.719573 181.311247 
L 195.305087 181.311247 
L 195.453651 181.530947 
L 195.890602 181.530947 
L 196.030426 193.980632 
L 196.327553 194.125395 
L 196.764504 194.125395 
L 197.052891 194.268486 
L 197.489842 194.268486 
L 197.77823 194.409931 
L 198.075356 194.409931 
L 198.215181 182.174897 
L 198.363744 182.38464 
L 198.949258 182.38464 
L 199.089083 182.592 
L 199.674597 182.592 
L 199.82316 182.797017 
L 200.399935 182.797017 
L 200.548499 182.99973 
L 201.134013 182.99973 
L 201.273837 183.200179 
L 201.859352 183.200179 
L 202.007915 183.3984 
L 202.58469 183.3984 
L 202.733253 183.594431 
L 203.318768 183.594431 
L 203.458592 183.788308 
L 204.044106 183.788308 
L 204.332494 183.980066 
L 204.769445 183.980066 
L 204.918008 184.169739 
L 205.503522 184.169739 
L 205.643347 184.357362 
L 206.228861 184.357362 
L 206.517249 184.542968 
L 206.665812 184.542968 
L 206.814375 195.988645 
L 206.954199 195.988645 
L 207.251326 196.111059 
L 207.688277 196.111059 
L 207.828101 184.908255 
L 208.413616 184.908255 
L 208.702003 185.088 
L 209.138954 185.088 
L 209.287517 185.265853 
L 209.873032 185.265853 
L 210.012856 185.441843 
L 210.59837 185.441843 
L 210.886758 185.616 
L 211.323709 185.616 
L 211.472272 185.788352 
L 212.057786 185.788352 
L 212.197611 185.958928 
L 212.783125 185.958928 
L 213.071513 186.127754 
L 213.508463 186.127754 
L 213.80559 186.294857 
L 214.242541 186.294857 
L 214.382365 186.460264 
L 214.96788 186.460264 
L 215.256267 186.624 
L 215.693218 186.624 
L 215.990345 186.78609 
L 216.427296 186.78609 
L 216.56712 186.94656 
L 217.152634 186.94656 
L 217.441022 187.105433 
L 217.738149 187.105433 
L 217.877973 176.51391 
L 218.026536 176.723644 
L 218.175099 187.262733 
L 218.61205 187.262733 
L 218.900438 187.418483 
L 219.337389 187.418483 
L 219.625777 187.572706 
L 220.062728 187.572706 
L 220.359854 187.725424 
L 220.796805 187.725424 
L 221.085193 187.87666 
L 221.522144 187.87666 
L 221.810531 188.026435 
L 222.247482 188.026435 
L 222.544609 188.174769 
L 222.98156 188.174769 
L 223.269947 188.321684 
L 223.706898 188.321684 
L 223.995286 188.4672 
L 224.432237 188.4672 
L 224.729364 188.611336 
L 225.166314 188.611336 
L 225.454702 188.754113 
L 225.891653 188.754113 
L 226.180041 188.895549 
L 226.616992 188.895549 
L 226.914118 189.035664 
L 227.351069 189.035664 
L 227.639457 189.174474 
L 228.076408 189.174474 
L 228.224971 179.456 
L 228.801746 179.456 
L 228.95031 179.637677 
L 229.535824 179.637677 
L 229.675648 179.817688 
L 229.824211 179.817688 
L 229.972775 189.583266 
L 230.261162 189.583266 
L 230.54955 189.717041 
L 230.986501 189.717041 
L 231.283628 189.8496 
L 231.720578 189.8496 
L 232.008966 189.980959 
L 232.445917 189.980959 
L 232.734305 190.111135 
L 233.171256 190.111135 
L 233.468382 190.240143 
L 233.905333 190.240143 
L 234.193721 190.368 
L 234.630672 190.368 
L 234.919059 190.49472 
L 235.35601 190.49472 
L 235.653137 190.620319 
L 236.090088 190.620319 
L 236.378475 190.744811 
L 236.815426 190.744811 
L 237.103814 190.868211 
L 237.540765 190.868211 
L 237.837892 190.990533 
L 238.274843 190.990533 
L 238.56323 191.111791 
L 238.711793 181.855722 
L 239.000181 181.855722 
L 239.288569 182.016 
L 239.72552 182.016 
L 240.022646 182.174897 
L 240.459597 182.174897 
L 240.747985 182.332429 
L 241.184936 182.332429 
L 241.473323 182.488615 
L 241.77045 182.488615 
L 241.910274 191.586462 
L 242.207401 191.702604 
L 242.644352 191.702604 
L 242.93274 191.817763 
L 243.36969 191.817763 
L 243.658078 191.931949 
L 244.095029 191.931949 
L 244.392156 192.045176 
L 244.829107 192.045176 
L 245.117494 192.157456 
L 245.554445 192.157456 
L 245.842833 192.2688 
L 247.013861 192.37922 
L 247.302249 192.488727 
L 248.464538 192.597333 
L 248.761665 192.705049 
L 249.33844 192.811886 
L 249.487004 184.122514 
L 249.923954 184.122514 
L 250.212342 184.263805 
L 250.649293 184.263805 
L 250.94642 184.403951 
L 251.383371 184.403951 
L 251.671758 184.542968 
L 252.108709 184.542968 
L 252.397097 184.680867 
L 252.834048 184.680867 
L 253.131174 184.817664 
L 253.568125 184.817664 
L 253.856513 184.953371 
L 254.293464 184.953371 
L 254.442027 185.088 
L 254.581851 193.536 
L 255.75288 193.636174 
L 256.041268 193.735559 
L 257.203557 193.834165 
L 257.500684 193.932 
L 258.662973 194.029074 
L 258.951361 194.125395 
L 260.122389 194.220973 
L 260.410777 194.315815 
L 260.55934 186.127754 
L 260.847728 186.127754 
L 261.136116 186.253241 
L 261.573066 186.253241 
L 261.870193 186.377771 
L 262.307144 186.377771 
L 262.595532 186.501354 
L 263.032483 186.501354 
L 263.32087 186.624 
L 263.757821 186.624 
L 264.054948 186.745721 
L 264.491899 186.745721 
L 264.780286 186.866526 
L 265.217237 186.866526 
L 265.505625 186.986427 
L 265.942576 186.986427 
L 266.239702 187.105433 
L 266.676653 187.105433 
L 266.965041 187.223554 
L 267.253429 187.223554 
L 267.401992 195.137665 
L 267.69038 195.2256 
L 268.861408 195.312886 
L 269.149796 195.399529 
L 270.312085 195.485538 
L 270.609212 195.57092 
L 271.771501 195.65568 
L 271.920065 188.026435 
L 272.49684 188.026435 
L 272.793966 188.137819 
L 273.956256 188.248403 
L 274.244644 188.358194 
L 275.415672 188.4672 
L 275.70406 188.575431 
L 276.866349 188.682894 
L 277.163476 188.789597 
L 278.325765 188.895549 
L 278.614153 189.000758 
L 279.785181 189.105231 
L 280.073569 189.208976 
L 280.361957 189.208976 
L 280.51052 196.626732 
L 280.798908 196.704 
L 281.969936 196.780734 
L 282.258324 196.856938 
L 283.280789 196.932619 
L 283.420613 189.616825 
L 283.71774 189.717041 
L 284.880029 189.816573 
L 285.168417 189.915429 
L 286.339445 190.013614 
L 286.627833 190.111135 
L 287.790123 190.208 
L 288.087249 190.304215 
L 289.249539 190.399786 
L 289.537926 190.49472 
L 290.708955 190.589023 
L 290.997342 190.682702 
L 292.159632 190.775762 
L 292.456759 190.868211 
L 293.619048 190.960052 
L 293.907436 191.051294 
L 294.055999 198.008471 
L 294.929901 198.076456 
L 295.078464 191.141941 
L 295.366852 191.232 
L 296.529141 191.321476 
L 296.826268 191.410374 
L 297.988557 191.498701 
L 298.276945 191.586462 
L 299.447974 191.673661 
L 299.736361 191.760306 
L 300.898651 191.8464 
L 301.195777 191.931949 
L 302.358067 192.016959 
L 302.646454 192.101434 
L 303.817483 192.185379 
L 304.105871 192.2688 
L 305.26816 192.351701 
L 305.565287 192.434087 
L 306.727576 192.515963 
L 306.876139 186.026667 
L 307.750041 186.127754 
L 307.889866 192.678203 
L 308.912331 192.758577 
L 309.200718 192.838459 
L 310.371747 192.917854 
L 310.660135 192.996766 
L 311.822424 193.0752 
L 312.119551 193.15316 
L 313.28184 193.230651 
L 313.570228 193.307676 
L 314.741256 193.38424 
L 315.029644 193.460346 
L 316.191933 193.536 
L 316.48906 193.611205 
L 317.65135 193.685964 
L 317.939737 193.760283 
L 318.813639 193.834165 
L 318.962202 187.572706 
L 319.836104 187.664516 
L 320.124492 187.755789 
L 321.29552 187.846531 
L 321.583908 187.936744 
L 321.872296 187.936744 
L 322.020859 194.125395 
L 322.309247 194.197148 
L 323.480275 194.268486 
L 323.768663 194.339412 
L 324.930952 194.409931 
L 325.228079 194.480046 
L 326.390368 194.54976 
L 326.678756 194.619077 
L 327.849784 194.688 
L 328.138172 194.756533 
L 329.300462 194.824678 
L 329.597588 194.892439 
L 330.759878 194.95982 
L 330.908441 195.026824 
L 331.048265 189.063529 
L 332.219294 189.146816 
L 332.507681 189.229638 
L 333.669971 189.312 
L 333.967098 189.393906 
L 335.129387 189.475359 
L 335.417775 189.556364 
L 336.291676 189.636923 
L 336.44024 195.485538 
L 337.314142 195.549633 
L 337.602529 195.613377 
L 338.773558 195.676774 
L 339.061945 195.739826 
L 340.224235 195.802537 
L 340.521362 195.864908 
L 341.683651 195.926943 
L 342.120602 195.988645 
L 343.143067 196.050016 
L 343.282891 196.111059 
L 343.431455 190.418824 
L 344.593744 190.49472 
L 344.890871 190.570213 
L 346.05316 190.645305 
L 346.341548 190.72 
L 347.512577 190.794301 
L 347.800964 190.868211 
L 348.963254 190.941732 
L 349.26038 191.014869 
L 350.42267 191.087624 
L 350.711057 191.16 
L 350.859621 191.16 
L 351.008184 196.704 
L 351.882086 196.7616 
L 352.170474 196.818902 
L 353.332763 196.875907 
L 353.769714 196.932619 
L 354.792179 196.989039 
L 355.22913 197.045169 
L 355.666081 197.101013 
L 355.814644 191.656266 
L 356.976934 191.725714 
L 357.265321 191.794809 
L 358.43635 191.863553 
L 358.724738 191.931949 
L 359.887027 192 
L 360.184154 192.067708 
L 361.346443 192.135075 
L 361.634831 192.202105 
L 362.805859 192.2688 
L 363.094247 192.335162 
L 364.256536 192.401194 
L 364.553663 192.466898 
L 365.567389 192.532277 
L 365.715953 197.801822 
L 366.152903 197.853867 
L 367.900707 197.957189 
L 368.189095 198.008471 
L 368.337658 192.790588 
L 369.360123 192.854377 
L 369.648511 192.917854 
L 370.8108 192.981022 
L 371.107927 193.043883 
L 372.270217 193.106441 
L 372.558604 193.168696 
L 373.729633 193.230651 
L 374.01802 193.292308 
L 375.18031 193.353669 
L 375.617261 193.414737 
L 376.639726 193.475513 
L 377.076677 193.536 
L 378.099142 193.5962 
L 378.38753 193.656114 
L 379.549819 193.715745 
L 379.98677 193.775094 
L 381.009235 193.834165 
L 381.446186 193.892958 
L 382.468651 193.951475 
L 382.757039 194.00972 
L 383.919329 194.067692 
L 384.356279 194.125395 
L 385.378745 194.182831 
L 385.815696 194.24 
L 386.838161 194.296905 
L 387.126548 194.353548 
L 388.288838 194.409931 
L 388.725789 194.466055 
L 389.748254 194.521922 
L 390.185205 194.577534 
L 391.933009 194.688 
L 392.36996 194.742857 
L 392.518523 189.915429 
L 393.392425 189.980959 
L 393.680812 190.046194 
L 394.843102 190.111135 
L 395.140229 190.175784 
L 395.865567 190.240143 
L 396.01413 195.013453 
L 397.761934 195.12 
L 398.198885 195.172918 
L 398.487273 195.172918 
L 398.487273 195.172918 
" style="fill:none;stroke:#1f77b4;stroke-linecap:square;stroke-width:1.5;"/>
   </g>
   <g id="patch_3">
    <path d="M 57.6 307.584 
L 57.6 41.472 
" style="fill:none;stroke:#000000;stroke-linecap:square;stroke-linejoin:miter;stroke-width:0.8;"/>
   </g>
   <g id="patch_4">
    <path d="M 414.72 307.584 
L 414.72 41.472 
" style="fill:none;stroke:#000000;stroke-linecap:square;stroke-linejoin:miter;stroke-width:0.8;"/>
   </g>
   <g id="patch_5">
    <path d="M 57.6 307.584 
L 414.72 307.584 
" style="fill:none;stroke:#000000;stroke-linecap:square;stroke-linejoin:miter;stroke-width:0.8;"/>
   </g>
   <g id="patch_6">
    <path d="M 57.6 41.472 
L 414.72 41.472 
" style="fill:none;stroke:#000000;stroke-linecap:square;stroke-linejoin:miter;stroke-width:0.8;"/>
   </g>
  </g>
 </g>
 <defs>
  <clipPath id="p819b7c2afd">
   <rect height="266.112" width="357.12" x="57.6" y="41.472"/>
  </clipPath>
 </defs>
</svg>
