<?xml version="1.0" encoding="utf-8" standalone="no"?>
<!DOCTYPE svg PUBLIC "-//W3C//DTD SVG 1.1//EN"
  "http://www.w3.org/Graphics/SVG/1.1/DTD/svg11.dtd">
<!-- Created with matplotlib (https://matplotlib.org/) -->
<svg height="345.6pt" version="1.1" viewBox="0 0 460.8 345.6" width="460.8pt" xmlns="http://www.w3.org/2000/svg" xmlns:xlink="http://www.w3.org/1999/xlink">
 <metadata>
  <rdf:RDF xmlns:cc="http://creativecommons.org/ns#" xmlns:dc="http://purl.org/dc/elements/1.1/" xmlns:rdf="http://www.w3.org/1999/02/22-rdf-syntax-ns#">
   <cc:Work>
    <dc:type rdf:resource="http://purl.org/dc/dcmitype/StillImage"/>
    <dc:date>2022-08-03T13:30:31.137274</dc:date>
    <dc:format>image/svg+xml</dc:format>
    <dc:creator>
     <cc:Agent>
      <dc:title>Matplotlib v3.3.4, https://matplotlib.org/</dc:title>
     </cc:Agent>
    </dc:creator>
   </cc:Work>
  </rdf:RDF>
 </metadata>
 <defs>
  <style type="text/css">*{stroke-linecap:butt;stroke-linejoin:round;}</style>
 </defs>
 <g id="figure_1">
  <g id="patch_1">
   <path d="M 0 345.6 
L 460.8 345.6 
L 460.8 0 
L 0 0 
z
" style="fill:#ffffff;"/>
  </g>
  <g id="axes_1">
   <g id="patch_2">
    <path d="M 57.6 307.584 
L 414.72 307.584 
L 414.72 41.472 
L 57.6 41.472 
z
" style="fill:#ffffff;"/>
   </g>
   <g id="matplotlib.axis_1">
    <g id="xtick_1">
     <g id="line2d_1">
      <path clip-path="url(#p61f8a385df)" d="M 72.692445 307.584 
L 72.692445 41.472 
" style="fill:none;stroke:#b0b0b0;stroke-linecap:square;stroke-width:0.8;"/>
     </g>
     <g id="line2d_2">
      <defs>
       <path d="M 0 0 
L 0 3.5 
" id="ma5a6453215" style="stroke:#000000;stroke-width:0.8;"/>
      </defs>
      <g>
       <use style="stroke:#000000;stroke-width:0.8;" x="72.692445" xlink:href="#ma5a6453215" y="307.584"/>
      </g>
     </g>
     <g id="text_1">
      <!-- 0 -->
      <g transform="translate(69.511195 322.182437)scale(0.1 -0.1)">
       <defs>
        <path d="M 31.78125 3.421875 
Q 39.265625 3.421875 42.96875 11.625 
Q 46.6875 19.828125 46.6875 36.375 
Q 46.6875 52.984375 42.96875 61.1875 
Q 39.265625 69.390625 31.78125 69.390625 
Q 24.3125 69.390625 20.59375 61.1875 
Q 16.890625 52.984375 16.890625 36.375 
Q 16.890625 19.828125 20.59375 11.625 
Q 24.3125 3.421875 31.78125 3.421875 
z
M 31.78125 -1.421875 
Q 19.921875 -1.421875 13.25 8.53125 
Q 6.59375 18.5 6.59375 36.375 
Q 6.59375 54.296875 13.25 64.25 
Q 19.921875 74.21875 31.78125 74.21875 
Q 43.703125 74.21875 50.34375 64.25 
Q 56.984375 54.296875 56.984375 36.375 
Q 56.984375 18.5 50.34375 8.53125 
Q 43.703125 -1.421875 31.78125 -1.421875 
z
" id="DejaVuSerif-48"/>
       </defs>
       <use xlink:href="#DejaVuSerif-48"/>
      </g>
     </g>
    </g>
    <g id="xtick_2">
     <g id="line2d_3">
      <path clip-path="url(#p61f8a385df)" d="M 126.991583 307.584 
L 126.991583 41.472 
" style="fill:none;stroke:#b0b0b0;stroke-linecap:square;stroke-width:0.8;"/>
     </g>
     <g id="line2d_4">
      <g>
       <use style="stroke:#000000;stroke-width:0.8;" x="126.991583" xlink:href="#ma5a6453215" y="307.584"/>
      </g>
     </g>
     <g id="text_2">
      <!-- 100 -->
      <g transform="translate(117.447833 322.182437)scale(0.1 -0.1)">
       <defs>
        <path d="M 14.203125 0 
L 14.203125 5.171875 
L 26.90625 5.171875 
L 26.90625 65.828125 
L 12.203125 56.296875 
L 12.203125 62.703125 
L 29.984375 74.21875 
L 36.71875 74.21875 
L 36.71875 5.171875 
L 49.421875 5.171875 
L 49.421875 0 
z
" id="DejaVuSerif-49"/>
       </defs>
       <use xlink:href="#DejaVuSerif-49"/>
       <use x="63.623047" xlink:href="#DejaVuSerif-48"/>
       <use x="127.246094" xlink:href="#DejaVuSerif-48"/>
      </g>
     </g>
    </g>
    <g id="xtick_3">
     <g id="line2d_5">
      <path clip-path="url(#p61f8a385df)" d="M 181.290721 307.584 
L 181.290721 41.472 
" style="fill:none;stroke:#b0b0b0;stroke-linecap:square;stroke-width:0.8;"/>
     </g>
     <g id="line2d_6">
      <g>
       <use style="stroke:#000000;stroke-width:0.8;" x="181.290721" xlink:href="#ma5a6453215" y="307.584"/>
      </g>
     </g>
     <g id="text_3">
      <!-- 200 -->
      <g transform="translate(171.746971 322.182437)scale(0.1 -0.1)">
       <defs>
        <path d="M 12.796875 55.515625 
L 7.328125 55.515625 
L 7.328125 68.5 
Q 12.546875 71.296875 17.84375 72.75 
Q 23.140625 74.21875 28.21875 74.21875 
Q 39.59375 74.21875 46.1875 68.703125 
Q 52.78125 63.1875 52.78125 53.71875 
Q 52.78125 43.015625 37.84375 28.125 
Q 36.671875 27 36.078125 26.421875 
L 17.671875 8.015625 
L 48.09375 8.015625 
L 48.09375 17 
L 53.8125 17 
L 53.8125 0 
L 6.78125 0 
L 6.78125 5.328125 
L 28.90625 27.390625 
Q 36.234375 34.71875 39.359375 40.84375 
Q 42.484375 46.96875 42.484375 53.71875 
Q 42.484375 61.078125 38.640625 65.234375 
Q 34.8125 69.390625 28.078125 69.390625 
Q 21.09375 69.390625 17.28125 65.921875 
Q 13.484375 62.453125 12.796875 55.515625 
z
" id="DejaVuSerif-50"/>
       </defs>
       <use xlink:href="#DejaVuSerif-50"/>
       <use x="63.623047" xlink:href="#DejaVuSerif-48"/>
       <use x="127.246094" xlink:href="#DejaVuSerif-48"/>
      </g>
     </g>
    </g>
    <g id="xtick_4">
     <g id="line2d_7">
      <path clip-path="url(#p61f8a385df)" d="M 235.589859 307.584 
L 235.589859 41.472 
" style="fill:none;stroke:#b0b0b0;stroke-linecap:square;stroke-width:0.8;"/>
     </g>
     <g id="line2d_8">
      <g>
       <use style="stroke:#000000;stroke-width:0.8;" x="235.589859" xlink:href="#ma5a6453215" y="307.584"/>
      </g>
     </g>
     <g id="text_4">
      <!-- 300 -->
      <g transform="translate(226.046109 322.182437)scale(0.1 -0.1)">
       <defs>
        <path d="M 9.71875 69.828125 
Q 15.4375 71.96875 20.671875 73.09375 
Q 25.921875 74.21875 30.515625 74.21875 
Q 41.21875 74.21875 47.21875 69.59375 
Q 53.21875 64.984375 53.21875 56.78125 
Q 53.21875 50.203125 49.0625 45.78125 
Q 44.921875 41.359375 37.3125 39.796875 
Q 46.296875 38.53125 51.25 33.28125 
Q 56.203125 28.03125 56.203125 19.671875 
Q 56.203125 9.46875 49.34375 4.015625 
Q 42.484375 -1.421875 29.59375 -1.421875 
Q 23.875 -1.421875 18.421875 -0.1875 
Q 12.984375 1.03125 7.625 3.515625 
L 7.625 17.671875 
L 13.09375 17.671875 
Q 13.578125 10.640625 17.828125 7.03125 
Q 22.078125 3.421875 29.78125 3.421875 
Q 37.25 3.421875 41.578125 7.734375 
Q 45.90625 12.0625 45.90625 19.578125 
Q 45.90625 28.171875 41.453125 32.59375 
Q 37.015625 37.015625 28.421875 37.015625 
L 23.78125 37.015625 
L 23.78125 42 
L 26.21875 42 
Q 34.765625 42 39.03125 45.53125 
Q 43.3125 49.078125 43.3125 56.203125 
Q 43.3125 62.59375 39.796875 65.984375 
Q 36.28125 69.390625 29.6875 69.390625 
Q 23.09375 69.390625 19.453125 66.265625 
Q 15.828125 63.140625 15.1875 56.984375 
L 9.71875 56.984375 
z
" id="DejaVuSerif-51"/>
       </defs>
       <use xlink:href="#DejaVuSerif-51"/>
       <use x="63.623047" xlink:href="#DejaVuSerif-48"/>
       <use x="127.246094" xlink:href="#DejaVuSerif-48"/>
      </g>
     </g>
    </g>
    <g id="xtick_5">
     <g id="line2d_9">
      <path clip-path="url(#p61f8a385df)" d="M 289.888997 307.584 
L 289.888997 41.472 
" style="fill:none;stroke:#b0b0b0;stroke-linecap:square;stroke-width:0.8;"/>
     </g>
     <g id="line2d_10">
      <g>
       <use style="stroke:#000000;stroke-width:0.8;" x="289.888997" xlink:href="#ma5a6453215" y="307.584"/>
      </g>
     </g>
     <g id="text_5">
      <!-- 400 -->
      <g transform="translate(280.345247 322.182437)scale(0.1 -0.1)">
       <defs>
        <path d="M 34.90625 24.703125 
L 34.90625 63.484375 
L 10.015625 24.703125 
z
M 56.390625 0 
L 23.1875 0 
L 23.1875 5.171875 
L 34.90625 5.171875 
L 34.90625 19.484375 
L 3.078125 19.484375 
L 3.078125 24.8125 
L 35.015625 74.21875 
L 44.671875 74.21875 
L 44.671875 24.703125 
L 58.59375 24.703125 
L 58.59375 19.484375 
L 44.671875 19.484375 
L 44.671875 5.171875 
L 56.390625 5.171875 
z
" id="DejaVuSerif-52"/>
       </defs>
       <use xlink:href="#DejaVuSerif-52"/>
       <use x="63.623047" xlink:href="#DejaVuSerif-48"/>
       <use x="127.246094" xlink:href="#DejaVuSerif-48"/>
      </g>
     </g>
    </g>
    <g id="xtick_6">
     <g id="line2d_11">
      <path clip-path="url(#p61f8a385df)" d="M 344.188135 307.584 
L 344.188135 41.472 
" style="fill:none;stroke:#b0b0b0;stroke-linecap:square;stroke-width:0.8;"/>
     </g>
     <g id="line2d_12">
      <g>
       <use style="stroke:#000000;stroke-width:0.8;" x="344.188135" xlink:href="#ma5a6453215" y="307.584"/>
      </g>
     </g>
     <g id="text_6">
      <!-- 500 -->
      <g transform="translate(334.644385 322.182437)scale(0.1 -0.1)">
       <defs>
        <path d="M 50.296875 72.90625 
L 50.296875 64.890625 
L 16.890625 64.890625 
L 16.890625 44 
Q 19.4375 45.75 22.828125 46.625 
Q 26.21875 47.515625 30.421875 47.515625 
Q 42.234375 47.515625 49.0625 40.96875 
Q 55.90625 34.421875 55.90625 23.09375 
Q 55.90625 11.53125 49 5.046875 
Q 42.09375 -1.421875 29.59375 -1.421875 
Q 24.5625 -1.421875 19.28125 -0.1875 
Q 14.015625 1.03125 8.5 3.515625 
L 8.5 17.671875 
L 14.015625 17.671875 
Q 14.453125 10.75 18.421875 7.078125 
Q 22.40625 3.421875 29.59375 3.421875 
Q 37.3125 3.421875 41.453125 8.5 
Q 45.609375 13.578125 45.609375 23.09375 
Q 45.609375 32.5625 41.484375 37.609375 
Q 37.359375 42.671875 29.59375 42.671875 
Q 25.203125 42.671875 21.84375 41.109375 
Q 18.5 39.546875 15.921875 36.28125 
L 11.71875 36.28125 
L 11.71875 72.90625 
z
" id="DejaVuSerif-53"/>
       </defs>
       <use xlink:href="#DejaVuSerif-53"/>
       <use x="63.623047" xlink:href="#DejaVuSerif-48"/>
       <use x="127.246094" xlink:href="#DejaVuSerif-48"/>
      </g>
     </g>
    </g>
    <g id="xtick_7">
     <g id="line2d_13">
      <path clip-path="url(#p61f8a385df)" d="M 398.487273 307.584 
L 398.487273 41.472 
" style="fill:none;stroke:#b0b0b0;stroke-linecap:square;stroke-width:0.8;"/>
     </g>
     <g id="line2d_14">
      <g>
       <use style="stroke:#000000;stroke-width:0.8;" x="398.487273" xlink:href="#ma5a6453215" y="307.584"/>
      </g>
     </g>
     <g id="text_7">
      <!-- 600 -->
      <g transform="translate(388.943523 322.182437)scale(0.1 -0.1)">
       <defs>
        <path d="M 32.71875 3.421875 
Q 39.59375 3.421875 43.296875 8.46875 
Q 47.015625 13.53125 47.015625 23 
Q 47.015625 32.46875 43.296875 37.515625 
Q 39.59375 42.578125 32.71875 42.578125 
Q 25.734375 42.578125 22.0625 37.6875 
Q 18.40625 32.8125 18.40625 23.578125 
Q 18.40625 13.875 22.109375 8.640625 
Q 25.828125 3.421875 32.71875 3.421875 
z
M 16.796875 40.140625 
Q 20.125 43.796875 24.3125 45.59375 
Q 28.515625 47.40625 33.796875 47.40625 
Q 44.671875 47.40625 51 40.859375 
Q 57.328125 34.328125 57.328125 23 
Q 57.328125 11.921875 50.515625 5.25 
Q 43.703125 -1.421875 32.328125 -1.421875 
Q 19.96875 -1.421875 13.328125 7.78125 
Q 6.6875 17 6.6875 34.078125 
Q 6.6875 53.21875 14.546875 63.71875 
Q 22.40625 74.21875 36.71875 74.21875 
Q 40.578125 74.21875 44.828125 73.484375 
Q 49.078125 72.75 53.515625 71.296875 
L 53.515625 59.28125 
L 48 59.28125 
Q 47.40625 64.203125 44.234375 66.796875 
Q 41.0625 69.390625 35.6875 69.390625 
Q 26.21875 69.390625 21.578125 62.203125 
Q 16.9375 55.03125 16.796875 40.140625 
z
" id="DejaVuSerif-54"/>
       </defs>
       <use xlink:href="#DejaVuSerif-54"/>
       <use x="63.623047" xlink:href="#DejaVuSerif-48"/>
       <use x="127.246094" xlink:href="#DejaVuSerif-48"/>
      </g>
     </g>
    </g>
    <g id="text_8">
     <!-- Time -->
     <g transform="translate(214.680234 341.179469)scale(0.17 -0.17)">
      <defs>
       <path d="M 19.09375 0 
L 19.09375 5.171875 
L 28.421875 5.171875 
L 28.421875 67.09375 
L 6.984375 67.09375 
L 6.984375 55.71875 
L 0.984375 55.71875 
L 0.984375 72.90625 
L 65.71875 72.90625 
L 65.71875 55.71875 
L 59.71875 55.71875 
L 59.71875 67.09375 
L 38.28125 67.09375 
L 38.28125 5.171875 
L 47.609375 5.171875 
L 47.609375 0 
z
" id="DejaVuSerif-84"/>
       <path d="M 9.71875 68.015625 
Q 9.71875 70.265625 11.34375 71.921875 
Q 12.984375 73.578125 15.28125 73.578125 
Q 17.53125 73.578125 19.15625 71.921875 
Q 20.796875 70.265625 20.796875 68.015625 
Q 20.796875 65.71875 19.1875 64.109375 
Q 17.578125 62.5 15.28125 62.5 
Q 12.984375 62.5 11.34375 64.109375 
Q 9.71875 65.71875 9.71875 68.015625 
z
M 21.1875 5.171875 
L 29.6875 5.171875 
L 29.6875 0 
L 3.609375 0 
L 3.609375 5.171875 
L 12.203125 5.171875 
L 12.203125 46.6875 
L 3.609375 46.6875 
L 3.609375 51.90625 
L 21.1875 51.90625 
z
" id="DejaVuSerif-105"/>
       <path d="M 51.8125 41.796875 
Q 54.390625 47.515625 58.421875 50.421875 
Q 62.453125 53.328125 67.828125 53.328125 
Q 75.984375 53.328125 79.984375 48.265625 
Q 83.984375 43.21875 83.984375 33.015625 
L 83.984375 5.171875 
L 92.09375 5.171875 
L 92.09375 0 
L 67.1875 0 
L 67.1875 5.171875 
L 75 5.171875 
L 75 31.984375 
Q 75 39.9375 72.65625 43.3125 
Q 70.3125 46.6875 64.890625 46.6875 
Q 58.890625 46.6875 55.734375 42.140625 
Q 52.59375 37.59375 52.59375 28.90625 
L 52.59375 5.171875 
L 60.40625 5.171875 
L 60.40625 0 
L 35.796875 0 
L 35.796875 5.171875 
L 43.609375 5.171875 
L 43.609375 32.328125 
Q 43.609375 40.09375 41.265625 43.390625 
Q 38.921875 46.6875 33.5 46.6875 
Q 27.484375 46.6875 24.328125 42.140625 
Q 21.1875 37.59375 21.1875 28.90625 
L 21.1875 5.171875 
L 29 5.171875 
L 29 0 
L 4.109375 0 
L 4.109375 5.171875 
L 12.203125 5.171875 
L 12.203125 46.78125 
L 3.609375 46.78125 
L 3.609375 51.90625 
L 21.1875 51.90625 
L 21.1875 42.671875 
Q 23.6875 47.859375 27.53125 50.59375 
Q 31.390625 53.328125 36.28125 53.328125 
Q 42.328125 53.328125 46.375 50.3125 
Q 50.4375 47.3125 51.8125 41.796875 
z
" id="DejaVuSerif-109"/>
       <path d="M 54.203125 25 
L 15.484375 25 
L 15.484375 24.609375 
Q 15.484375 14.109375 19.4375 8.765625 
Q 23.390625 3.421875 31.109375 3.421875 
Q 37.015625 3.421875 40.796875 6.515625 
Q 44.578125 9.625 46.09375 15.71875 
L 53.328125 15.71875 
Q 51.171875 7.171875 45.375 2.875 
Q 39.59375 -1.421875 30.171875 -1.421875 
Q 18.796875 -1.421875 11.890625 6.078125 
Q 4.984375 13.578125 4.984375 25.984375 
Q 4.984375 38.28125 11.765625 45.796875 
Q 18.5625 53.328125 29.59375 53.328125 
Q 41.359375 53.328125 47.65625 46.0625 
Q 53.953125 38.8125 54.203125 25 
z
M 43.609375 30.171875 
Q 43.3125 39.265625 39.765625 43.875 
Q 36.234375 48.484375 29.59375 48.484375 
Q 23.390625 48.484375 19.828125 43.84375 
Q 16.265625 39.203125 15.484375 30.171875 
z
" id="DejaVuSerif-101"/>
      </defs>
      <use xlink:href="#DejaVuSerif-84"/>
      <use x="66.699219" xlink:href="#DejaVuSerif-105"/>
      <use x="98.681641" xlink:href="#DejaVuSerif-109"/>
      <use x="193.505859" xlink:href="#DejaVuSerif-101"/>
     </g>
    </g>
   </g>
   <g id="matplotlib.axis_2">
    <g id="ytick_1">
     <g id="line2d_15">
      <path clip-path="url(#p61f8a385df)" d="M 57.6 289.8432 
L 414.72 289.8432 
" style="fill:none;stroke:#b0b0b0;stroke-linecap:square;stroke-width:0.8;"/>
     </g>
     <g id="line2d_16">
      <defs>
       <path d="M 0 0 
L -3.5 0 
" id="m85a88b29e2" style="stroke:#000000;stroke-width:0.8;"/>
      </defs>
      <g>
       <use style="stroke:#000000;stroke-width:0.8;" x="57.6" xlink:href="#m85a88b29e2" y="289.8432"/>
      </g>
     </g>
     <g id="text_9">
      <!-- −0.2 -->
      <g transform="translate(26.317187 293.642419)scale(0.1 -0.1)">
       <defs>
        <path d="M 10.59375 35.296875 
L 73.1875 35.296875 
L 73.1875 27.390625 
L 10.59375 27.390625 
z
" id="DejaVuSerif-8722"/>
        <path d="M 9.421875 5.078125 
Q 9.421875 7.8125 11.28125 9.71875 
Q 13.140625 11.625 15.921875 11.625 
Q 18.609375 11.625 20.5 9.71875 
Q 22.40625 7.8125 22.40625 5.078125 
Q 22.40625 2.390625 20.5 0.484375 
Q 18.609375 -1.421875 15.921875 -1.421875 
Q 13.140625 -1.421875 11.28125 0.453125 
Q 9.421875 2.34375 9.421875 5.078125 
z
" id="DejaVuSerif-46"/>
       </defs>
       <use xlink:href="#DejaVuSerif-8722"/>
       <use x="83.789062" xlink:href="#DejaVuSerif-48"/>
       <use x="147.412109" xlink:href="#DejaVuSerif-46"/>
       <use x="179.199219" xlink:href="#DejaVuSerif-50"/>
      </g>
     </g>
    </g>
    <g id="ytick_2">
     <g id="line2d_17">
      <path clip-path="url(#p61f8a385df)" d="M 57.6 254.3616 
L 414.72 254.3616 
" style="fill:none;stroke:#b0b0b0;stroke-linecap:square;stroke-width:0.8;"/>
     </g>
     <g id="line2d_18">
      <g>
       <use style="stroke:#000000;stroke-width:0.8;" x="57.6" xlink:href="#m85a88b29e2" y="254.3616"/>
      </g>
     </g>
     <g id="text_10">
      <!-- −0.1 -->
      <g transform="translate(26.317187 258.160819)scale(0.1 -0.1)">
       <use xlink:href="#DejaVuSerif-8722"/>
       <use x="83.789062" xlink:href="#DejaVuSerif-48"/>
       <use x="147.412109" xlink:href="#DejaVuSerif-46"/>
       <use x="179.199219" xlink:href="#DejaVuSerif-49"/>
      </g>
     </g>
    </g>
    <g id="ytick_3">
     <g id="line2d_19">
      <path clip-path="url(#p61f8a385df)" d="M 57.6 218.88 
L 414.72 218.88 
" style="fill:none;stroke:#b0b0b0;stroke-linecap:square;stroke-width:0.8;"/>
     </g>
     <g id="line2d_20">
      <g>
       <use style="stroke:#000000;stroke-width:0.8;" x="57.6" xlink:href="#m85a88b29e2" y="218.88"/>
      </g>
     </g>
     <g id="text_11">
      <!-- 0.0 -->
      <g transform="translate(34.696875 222.679219)scale(0.1 -0.1)">
       <use xlink:href="#DejaVuSerif-48"/>
       <use x="63.623047" xlink:href="#DejaVuSerif-46"/>
       <use x="95.410156" xlink:href="#DejaVuSerif-48"/>
      </g>
     </g>
    </g>
    <g id="ytick_4">
     <g id="line2d_21">
      <path clip-path="url(#p61f8a385df)" d="M 57.6 183.3984 
L 414.72 183.3984 
" style="fill:none;stroke:#b0b0b0;stroke-linecap:square;stroke-width:0.8;"/>
     </g>
     <g id="line2d_22">
      <g>
       <use style="stroke:#000000;stroke-width:0.8;" x="57.6" xlink:href="#m85a88b29e2" y="183.3984"/>
      </g>
     </g>
     <g id="text_12">
      <!-- 0.1 -->
      <g transform="translate(34.696875 187.197619)scale(0.1 -0.1)">
       <use xlink:href="#DejaVuSerif-48"/>
       <use x="63.623047" xlink:href="#DejaVuSerif-46"/>
       <use x="95.410156" xlink:href="#DejaVuSerif-49"/>
      </g>
     </g>
    </g>
    <g id="ytick_5">
     <g id="line2d_23">
      <path clip-path="url(#p61f8a385df)" d="M 57.6 147.9168 
L 414.72 147.9168 
" style="fill:none;stroke:#b0b0b0;stroke-linecap:square;stroke-width:0.8;"/>
     </g>
     <g id="line2d_24">
      <g>
       <use style="stroke:#000000;stroke-width:0.8;" x="57.6" xlink:href="#m85a88b29e2" y="147.9168"/>
      </g>
     </g>
     <g id="text_13">
      <!-- 0.2 -->
      <g transform="translate(34.696875 151.716019)scale(0.1 -0.1)">
       <use xlink:href="#DejaVuSerif-48"/>
       <use x="63.623047" xlink:href="#DejaVuSerif-46"/>
       <use x="95.410156" xlink:href="#DejaVuSerif-50"/>
      </g>
     </g>
    </g>
    <g id="ytick_6">
     <g id="line2d_25">
      <path clip-path="url(#p61f8a385df)" d="M 57.6 112.4352 
L 414.72 112.4352 
" style="fill:none;stroke:#b0b0b0;stroke-linecap:square;stroke-width:0.8;"/>
     </g>
     <g id="line2d_26">
      <g>
       <use style="stroke:#000000;stroke-width:0.8;" x="57.6" xlink:href="#m85a88b29e2" y="112.4352"/>
      </g>
     </g>
     <g id="text_14">
      <!-- 0.3 -->
      <g transform="translate(34.696875 116.234419)scale(0.1 -0.1)">
       <use xlink:href="#DejaVuSerif-48"/>
       <use x="63.623047" xlink:href="#DejaVuSerif-46"/>
       <use x="95.410156" xlink:href="#DejaVuSerif-51"/>
      </g>
     </g>
    </g>
    <g id="ytick_7">
     <g id="line2d_27">
      <path clip-path="url(#p61f8a385df)" d="M 57.6 76.9536 
L 414.72 76.9536 
" style="fill:none;stroke:#b0b0b0;stroke-linecap:square;stroke-width:0.8;"/>
     </g>
     <g id="line2d_28">
      <g>
       <use style="stroke:#000000;stroke-width:0.8;" x="57.6" xlink:href="#m85a88b29e2" y="76.9536"/>
      </g>
     </g>
     <g id="text_15">
      <!-- 0.4 -->
      <g transform="translate(34.696875 80.752819)scale(0.1 -0.1)">
       <use xlink:href="#DejaVuSerif-48"/>
       <use x="63.623047" xlink:href="#DejaVuSerif-46"/>
       <use x="95.410156" xlink:href="#DejaVuSerif-52"/>
      </g>
     </g>
    </g>
    <g id="ytick_8">
     <g id="line2d_29">
      <path clip-path="url(#p61f8a385df)" d="M 57.6 41.472 
L 414.72 41.472 
" style="fill:none;stroke:#b0b0b0;stroke-linecap:square;stroke-width:0.8;"/>
     </g>
     <g id="line2d_30">
      <g>
       <use style="stroke:#000000;stroke-width:0.8;" x="57.6" xlink:href="#m85a88b29e2" y="41.472"/>
      </g>
     </g>
     <g id="text_16">
      <!-- 0.5 -->
      <g transform="translate(34.696875 45.271219)scale(0.1 -0.1)">
       <use xlink:href="#DejaVuSerif-48"/>
       <use x="63.623047" xlink:href="#DejaVuSerif-46"/>
       <use x="95.410156" xlink:href="#DejaVuSerif-53"/>
      </g>
     </g>
    </g>
    <g id="text_17">
     <!-- Speed -->
     <g transform="translate(18.781719 201.295031)rotate(-90)scale(0.17 -0.17)">
      <defs>
       <path d="M 9.28125 3.515625 
L 9.28125 20.125 
L 14.890625 20.0625 
Q 15.140625 11.765625 19.703125 7.78125 
Q 24.265625 3.8125 33.59375 3.8125 
Q 42.28125 3.8125 46.84375 7.25 
Q 51.421875 10.6875 51.421875 17.28125 
Q 51.421875 22.5625 48.65625 25.390625 
Q 45.90625 28.21875 37.015625 30.90625 
L 27.390625 33.796875 
Q 16.9375 36.96875 12.671875 41.703125 
Q 8.40625 46.4375 8.40625 54.6875 
Q 8.40625 63.96875 14.984375 69.09375 
Q 21.578125 74.21875 33.5 74.21875 
Q 38.578125 74.21875 44.625 73.109375 
Q 50.6875 72.015625 57.515625 69.921875 
L 57.515625 54.390625 
L 52 54.390625 
Q 51.171875 62.109375 46.84375 65.546875 
Q 42.53125 69 33.6875 69 
Q 25.984375 69 21.953125 65.84375 
Q 17.921875 62.703125 17.921875 56.6875 
Q 17.921875 51.46875 20.9375 48.484375 
Q 23.96875 45.515625 33.796875 42.578125 
L 42.828125 39.890625 
Q 52.734375 36.921875 56.953125 32.296875 
Q 61.1875 27.6875 61.1875 19.921875 
Q 61.1875 9.328125 54.390625 3.953125 
Q 47.609375 -1.421875 34.1875 -1.421875 
Q 28.171875 -1.421875 21.9375 -0.1875 
Q 15.71875 1.03125 9.28125 3.515625 
z
" id="DejaVuSerif-83"/>
       <path d="M 20.515625 28.515625 
L 20.515625 23.390625 
Q 20.515625 14.015625 24.09375 9.109375 
Q 27.6875 4.203125 34.515625 4.203125 
Q 41.40625 4.203125 44.9375 9.71875 
Q 48.484375 15.234375 48.484375 25.984375 
Q 48.484375 36.765625 44.9375 42.234375 
Q 41.40625 47.703125 34.515625 47.703125 
Q 27.6875 47.703125 24.09375 42.765625 
Q 20.515625 37.84375 20.515625 28.515625 
z
M 11.53125 46.6875 
L 2.875 46.6875 
L 2.875 51.90625 
L 20.515625 51.90625 
L 20.515625 43.796875 
Q 23.140625 48.6875 27.21875 51 
Q 31.296875 53.328125 37.3125 53.328125 
Q 46.875 53.328125 52.921875 45.75 
Q 58.984375 38.1875 58.984375 25.984375 
Q 58.984375 13.765625 52.921875 6.171875 
Q 46.875 -1.421875 37.3125 -1.421875 
Q 31.296875 -1.421875 27.21875 0.890625 
Q 23.140625 3.21875 20.515625 8.109375 
L 20.515625 -15.578125 
L 29 -15.578125 
L 29 -20.796875 
L 2.875 -20.796875 
L 2.875 -15.578125 
L 11.53125 -15.578125 
z
" id="DejaVuSerif-112"/>
       <path d="M 52.484375 5.171875 
L 61.078125 5.171875 
L 61.078125 0 
L 43.5 0 
L 43.5 8.109375 
Q 40.875 3.21875 36.796875 0.890625 
Q 32.71875 -1.421875 26.703125 -1.421875 
Q 17.140625 -1.421875 11.0625 6.171875 
Q 4.984375 13.765625 4.984375 25.984375 
Q 4.984375 38.1875 11.03125 45.75 
Q 17.09375 53.328125 26.703125 53.328125 
Q 32.71875 53.328125 36.796875 51 
Q 40.875 48.6875 43.5 43.796875 
L 43.5 70.796875 
L 35.015625 70.796875 
L 35.015625 75.984375 
L 52.484375 75.984375 
z
M 43.5 23.390625 
L 43.5 28.515625 
Q 43.5 37.84375 39.90625 42.765625 
Q 36.328125 47.703125 29.5 47.703125 
Q 22.5625 47.703125 19.015625 42.234375 
Q 15.484375 36.765625 15.484375 25.984375 
Q 15.484375 15.234375 19.015625 9.71875 
Q 22.5625 4.203125 29.5 4.203125 
Q 36.328125 4.203125 39.90625 9.109375 
Q 43.5 14.015625 43.5 23.390625 
z
" id="DejaVuSerif-100"/>
      </defs>
      <use xlink:href="#DejaVuSerif-83"/>
      <use x="68.505859" xlink:href="#DejaVuSerif-112"/>
      <use x="132.519531" xlink:href="#DejaVuSerif-101"/>
      <use x="191.699219" xlink:href="#DejaVuSerif-101"/>
      <use x="250.878906" xlink:href="#DejaVuSerif-100"/>
     </g>
    </g>
   </g>
   <g id="LineCollection_1">
    <path clip-path="url(#p61f8a385df)" d="M 73.832727 218.88 
L 398.487273 218.88 
" style="fill:none;stroke:#696969;stroke-width:1.5;"/>
   </g>
   <g id="line2d_31">
    <path clip-path="url(#p61f8a385df)" d="M 73.832727 218.88 
L 73.995625 307.584 
L 74.049924 307.584 
L 74.104223 289.8432 
L 74.26712 218.88 
L 74.592915 218.88 
L 74.755813 269.568 
L 74.864411 269.568 
L 75.027308 263.232 
L 75.190206 218.88 
L 75.353103 258.304 
L 75.407402 258.304 
L 75.5703 254.3616 
L 75.678898 254.3616 
L 75.733197 251.136 
L 75.787496 283.392 
L 75.841795 251.136 
L 75.950394 251.136 
L 76.113291 248.448 
L 76.221889 248.448 
L 76.276188 246.173538 
L 76.439086 273.467077 
L 76.601983 244.224 
L 76.764881 244.224 
L 76.927778 266.1888 
L 77.036376 266.1888 
L 77.144975 263.232 
L 77.307872 241.056 
L 77.47077 260.623059 
L 77.579368 260.623059 
L 77.742265 258.304 
L 77.796564 238.592 
L 77.850863 258.304 
L 78.013761 256.229053 
L 78.122359 256.229053 
L 78.285257 254.3616 
L 78.393855 272.1024 
L 78.448154 269.568 
L 78.611051 252.672 
L 78.665351 252.672 
L 78.773949 251.136 
L 78.936846 267.264 
L 79.045445 265.160348 
L 79.208342 249.733565 
L 79.262641 248.448 
L 79.425538 263.232 
L 79.479838 263.232 
L 79.642735 261.45792 
L 79.751333 247.26528 
L 79.914231 259.820308 
L 80.022829 259.820308 
L 80.185726 258.304 
L 80.294325 258.304 
L 80.457222 256.896 
L 80.56582 256.896 
L 80.728718 255.585103 
L 80.837316 267.820138 
L 80.891615 266.1888 
L 81.054513 254.3616 
L 81.108812 254.3616 
L 81.21741 253.217032 
L 81.380307 264.66271 
L 81.488906 263.232 
L 81.651803 252.144 
L 81.706102 251.136 
L 81.869 261.888 
L 81.923299 261.888 
L 82.086196 260.623059 
L 82.194795 250.187294 
L 82.357692 259.4304 
L 82.46629 259.4304 
L 82.629188 258.304 
L 82.737786 258.304 
L 82.900683 257.238486 
L 83.009282 257.238486 
L 83.172179 256.229053 
L 83.280777 265.566316 
L 83.335076 264.369231 
L 83.497974 255.271385 
L 83.552273 255.271385 
L 83.660871 254.3616 
L 83.823769 263.232 
L 83.932367 262.150244 
L 84.095264 253.496195 
L 84.149563 252.672 
L 84.312461 261.12 
L 84.36676 261.12 
L 84.529657 260.137674 
L 84.638256 251.88614 
L 84.801153 259.2 
L 84.909751 259.2 
L 85.072649 258.304 
L 85.181247 258.304 
L 85.344145 257.446957 
L 85.452743 257.446957 
L 85.561341 256.626383 
L 85.724238 264.17566 
L 85.778538 263.232 
L 85.941435 255.84 
L 85.995734 255.84 
L 86.050033 255.085714 
L 86.212931 262.326857 
L 86.26723 262.326857 
L 86.375828 261.45792 
L 86.538726 254.3616 
L 86.701623 260.623059 
L 86.810221 260.623059 
L 86.973119 259.820308 
L 87.027418 252.996923 
L 87.081717 259.820308 
L 87.244614 259.047849 
L 87.353213 259.047849 
L 87.51611 258.304 
L 87.570409 264.874667 
L 87.624708 258.304 
L 87.787606 257.5872 
L 87.896204 257.5872 
L 88.004802 256.896 
L 88.1677 263.232 
L 88.221999 262.453895 
L 88.384896 256.229053 
L 88.439195 256.229053 
L 88.493495 255.585103 
L 88.656392 261.702621 
L 88.710691 261.702621 
L 88.76499 260.976814 
L 88.927888 254.962983 
L 88.982187 254.962983 
L 89.145084 260.2752 
L 89.253682 260.2752 
L 89.362281 259.59659 
L 89.470879 253.779934 
L 89.525178 259.59659 
L 89.579477 258.939871 
L 89.796674 258.939871 
L 89.959571 258.304 
L 90.06817 258.304 
L 90.231067 257.688 
L 90.339665 257.688 
L 90.393964 257.090954 
L 90.556862 262.549662 
L 90.719759 256.512 
L 90.882657 256.512 
L 91.045554 261.24609 
L 91.154152 261.24609 
L 91.208451 260.623059 
L 91.371349 255.405176 
L 91.425648 260.623059 
L 91.479947 260.018087 
L 91.697144 260.018087 
L 91.805742 259.4304 
L 91.860041 254.3616 
L 91.91434 259.4304 
L 91.968639 259.4304 
L 92.131537 258.859268 
L 92.240135 258.859268 
L 92.348733 258.304 
L 92.403032 263.232 
L 92.457332 258.304 
L 92.511631 258.304 
L 92.674528 257.763945 
L 92.783126 257.763945 
L 92.837426 257.238486 
L 93.000323 262.033297 
L 93.16322 256.72704 
L 93.326118 256.72704 
L 93.489015 260.897684 
L 93.597613 260.897684 
L 93.651913 260.352 
L 93.81481 255.744 
L 93.869109 260.352 
L 93.923408 259.820308 
L 94.140605 259.820308 
L 94.249203 259.302076 
L 94.303502 254.810734 
L 94.357801 259.302076 
L 94.412101 259.302076 
L 94.574998 258.7968 
L 94.683596 258.7968 
L 94.737895 258.304 
L 94.792194 262.684444 
L 94.846494 258.304 
L 94.955092 258.304 
L 95.117989 257.82322 
L 95.226588 257.82322 
L 95.389485 261.628916 
L 95.552382 256.896 
L 95.71528 256.896 
L 95.769579 261.12 
L 95.823878 260.623059 
L 95.986776 260.623059 
L 96.149673 256.011907 
L 96.203972 256.011907 
L 96.31257 260.137674 
L 96.475468 259.663448 
L 96.584066 259.663448 
L 96.638365 259.2 
L 96.692664 255.168 
L 96.746963 259.2 
L 96.855562 259.2 
L 97.018459 258.746966 
L 97.127057 258.746966 
L 97.181357 258.304 
L 97.235656 262.2464 
L 97.289955 258.304 
L 97.398553 258.304 
L 97.561451 257.870769 
L 97.670049 257.870769 
L 97.832946 261.303652 
L 97.995844 257.032258 
L 98.158741 257.032258 
L 98.21304 260.847484 
L 98.267339 260.401021 
L 98.430237 260.401021 
L 98.593134 256.229053 
L 98.756032 259.963958 
L 98.918929 259.536 
L 99.027527 259.536 
L 99.190425 259.116866 
L 99.299023 259.116866 
L 99.46192 258.706286 
L 99.570519 258.706286 
L 99.679117 261.888 
L 99.842014 258.304 
L 100.004912 257.90976 
L 100.059211 257.90976 
L 100.11351 261.45792 
L 100.167809 261.036356 
L 100.222108 261.036356 
L 100.385006 257.523327 
L 100.547903 257.144471 
L 100.656501 260.623059 
L 100.819399 260.217786 
L 100.982296 256.408615 
L 101.036595 256.408615 
L 101.199493 259.820308 
L 101.36239 259.4304 
L 101.416689 259.4304 
L 101.525288 255.700528 
L 101.688185 259.047849 
L 101.742484 259.047849 
L 101.905382 258.672449 
L 102.01398 258.672449 
L 102.068279 261.589333 
L 102.231176 258.304 
L 102.285476 258.304 
L 102.448373 257.942312 
L 102.556971 261.197505 
L 102.665569 260.8128 
L 102.828467 257.5872 
L 102.937065 257.238486 
L 103.099963 260.435027 
L 103.26286 260.064 
L 103.425757 256.559575 
L 103.588655 259.69954 
L 103.642954 259.69954 
L 103.805851 259.341474 
L 103.860151 259.341474 
L 103.91445 256.229053 
L 103.968749 258.989635 
L 104.185945 258.989635 
L 104.348843 258.643862 
L 104.403142 258.643862 
L 104.457441 261.702621 
L 104.51174 261.336615 
L 104.674638 258.304 
L 104.728937 258.304 
L 104.891834 257.969898 
L 105.000432 260.976814 
L 105.054732 260.623059 
L 105.217629 257.641412 
L 105.271928 257.641412 
L 105.380526 257.3184 
L 105.543424 260.2752 
L 105.652022 259.933091 
L 105.814919 257.000727 
L 105.869219 256.688262 
L 106.032116 259.59659 
L 106.086415 259.59659 
L 106.249313 259.265561 
L 106.357911 256.380878 
L 106.520808 258.939871 
L 106.629407 258.939871 
L 106.792304 258.619392 
L 106.846603 261.45792 
L 106.900902 258.619392 
L 107.0638 258.304 
L 107.172398 258.304 
L 107.280996 257.993575 
L 107.443894 260.787402 
L 107.498193 260.46 
L 107.66109 257.688 
L 107.715389 257.688 
L 107.769688 257.387163 
L 107.932586 260.137674 
L 107.986885 260.137674 
L 108.095483 259.820308 
L 108.258381 257.090954 
L 108.421278 259.507786 
L 108.529876 259.507786 
L 108.692774 259.2 
L 108.747073 256.512 
L 108.801372 259.2 
L 108.964269 258.896842 
L 109.072868 258.896842 
L 109.235765 258.598209 
L 109.290064 261.24609 
L 109.344363 258.598209 
L 109.507261 258.304 
L 109.615859 258.304 
L 109.724457 258.014118 
L 109.833056 260.623059 
L 109.995953 257.728467 
L 110.158851 257.728467 
L 110.21315 257.446957 
L 110.376047 260.018087 
L 110.430346 260.018087 
L 110.484645 259.722129 
L 110.647543 257.169496 
L 110.701842 259.722129 
L 110.756141 259.4304 
L 110.973338 259.4304 
L 111.081936 259.142809 
L 111.136235 256.626383 
L 111.190534 259.142809 
L 111.244833 259.142809 
L 111.407731 258.859268 
L 111.516329 258.859268 
L 111.624927 258.579692 
L 111.679226 261.060923 
L 111.733526 258.579692 
L 111.787825 258.579692 
L 111.950722 258.304 
L 112.05932 258.304 
L 112.113619 258.03211 
L 112.276517 260.479117 
L 112.439414 257.763945 
L 112.602312 257.763945 
L 112.765209 259.913143 
L 112.873807 259.913143 
L 112.928107 259.635892 
L 113.091004 257.238486 
L 113.145303 259.635892 
L 113.199602 259.362362 
L 113.416799 259.362362 
L 113.525397 259.09248 
L 113.579696 256.72704 
L 113.633995 259.09248 
L 113.688294 259.09248 
L 113.851192 258.826172 
L 113.95979 258.826172 
L 114.068388 258.563368 
L 114.122688 260.897684 
L 114.176987 258.563368 
L 114.231286 258.563368 
L 114.394183 258.304 
L 114.502782 258.304 
L 114.665679 260.352 
L 114.719978 260.352 
L 114.882876 257.795303 
L 114.991474 257.795303 
L 115.045773 260.084439 
L 115.100072 259.820308 
L 115.262969 259.820308 
L 115.425867 257.299567 
L 115.480166 257.299567 
L 115.588764 259.559541 
L 115.751662 259.302076 
L 115.86026 259.302076 
L 115.914559 259.047849 
L 115.968858 256.816302 
L 116.023157 259.047849 
L 116.131756 259.047849 
L 116.294653 258.7968 
L 116.403251 258.7968 
L 116.457551 258.54887 
L 116.51185 260.752696 
L 116.566149 258.54887 
L 116.674747 258.54887 
L 116.837644 258.304 
L 116.946243 258.304 
L 117.10914 260.23892 
L 117.272038 257.82322 
L 117.434935 257.82322 
L 117.489234 259.986732 
L 117.543533 259.7376 
L 117.706431 259.7376 
L 117.869328 257.354024 
L 117.923627 257.354024 
L 118.032226 259.49147 
L 118.195123 259.248287 
L 118.303721 259.248287 
L 118.466619 259.008 
L 118.575217 259.008 
L 118.738114 258.770556 
L 118.846713 258.770556 
L 118.955311 260.623059 
L 119.118208 258.535906 
L 119.281106 258.304 
L 119.335405 258.304 
L 119.389704 260.378947 
L 119.444003 260.137674 
L 119.552601 260.137674 
L 119.715499 257.848231 
L 119.824097 257.848231 
L 119.932695 259.899191 
L 120.095593 259.663448 
L 120.25849 257.40288 
L 120.312789 257.40288 
L 120.475687 259.4304 
L 120.638584 259.2 
L 120.692883 259.2 
L 120.801482 256.967593 
L 120.964379 258.972203 
L 121.018678 258.972203 
L 121.181576 258.746966 
L 121.290174 258.746966 
L 121.344473 260.506458 
L 121.50737 258.524246 
L 121.561669 258.524246 
L 121.724567 258.304 
L 121.778866 258.304 
L 121.833165 260.2752 
L 121.887464 260.046497 
L 121.941763 260.046497 
L 122.104661 258.086188 
L 122.213259 257.870769 
L 122.376157 259.820308 
L 122.539054 259.59659 
L 122.701951 257.446957 
L 122.864849 259.375304 
L 122.919148 259.375304 
L 123.082045 259.156411 
L 123.136344 259.156411 
L 123.190644 257.238486 
L 123.244943 258.939871 
L 123.462139 258.939871 
L 123.625037 258.725647 
L 123.679336 258.725647 
L 123.733635 260.623059 
L 123.787934 260.401021 
L 123.950832 258.513702 
L 124.005131 258.513702 
L 124.168028 258.304 
L 124.276626 260.181333 
L 124.385225 259.963958 
L 124.548122 258.096505 
L 124.65672 257.891183 
L 124.819618 259.748859 
L 124.928216 259.536 
L 125.091113 257.688 
L 125.145413 257.486922 
L 125.30831 259.325347 
L 125.362609 259.325347 
L 125.525507 259.116866 
L 125.634105 257.287918 
L 125.797002 258.910523 
L 125.905601 258.910523 
L 126.068498 258.706286 
L 126.122797 260.516571 
L 126.177096 258.706286 
L 126.339994 258.504122 
L 126.448592 258.504122 
L 126.55719 258.304 
L 126.720088 260.096 
L 126.774387 259.888884 
L 126.937284 258.105889 
L 126.991583 258.105889 
L 127.045882 257.90976 
L 127.20878 259.68384 
L 127.263079 259.68384 
L 127.371677 259.480836 
L 127.534575 257.715582 
L 127.697472 259.279842 
L 127.80607 259.279842 
L 127.968968 259.080828 
L 128.023267 257.332966 
L 128.077566 259.080828 
L 128.240463 258.883765 
L 128.349062 258.883765 
L 128.511959 258.688624 
L 128.566258 260.419434 
L 128.620557 258.688624 
L 128.783455 258.495379 
L 128.892053 258.495379 
L 129.000651 258.304 
L 129.163549 260.018087 
L 129.217848 259.820308 
L 129.380745 258.114462 
L 129.435044 258.114462 
L 129.489344 257.926737 
L 129.652241 259.624421 
L 129.70654 259.624421 
L 129.760839 259.4304 
L 129.923737 257.7408 
L 129.978036 259.4304 
L 130.032335 259.238218 
L 130.249532 259.238218 
L 130.35813 259.047849 
L 130.412429 257.374189 
L 130.466728 259.047849 
L 130.521027 259.047849 
L 130.683925 258.859268 
L 130.792523 258.859268 
L 130.901121 258.672449 
L 130.95542 260.330467 
L 131.009719 258.672449 
L 131.064019 258.672449 
L 131.226916 258.487367 
L 131.335514 258.487367 
L 131.389813 258.304 
L 131.552711 259.946667 
L 131.715608 258.122323 
L 131.878506 258.122323 
L 132.041403 259.569908 
L 132.150001 259.569908 
L 132.204301 259.38411 
L 132.367198 257.763945 
L 132.421497 259.38411 
L 132.475796 259.2 
L 132.692993 259.2 
L 132.801591 259.017557 
L 132.85589 257.412054 
L 132.910189 259.017557 
L 132.964488 259.017557 
L 133.127386 258.836757 
L 133.235984 258.836757 
L 133.290283 258.657578 
L 133.398882 260.248682 
L 133.561779 258.48 
L 133.778976 258.48 
L 133.941873 259.88096 
L 133.996172 259.88096 
L 134.159069 258.129558 
L 134.267668 258.129558 
L 134.321967 259.69954 
L 134.376266 259.519718 
L 134.539163 259.519718 
L 134.702061 257.785263 
L 134.75636 257.785263 
L 134.864958 259.341474 
L 135.027856 259.164786 
L 135.136454 259.164786 
L 135.190753 258.989635 
L 135.245052 257.446957 
L 135.299351 258.989635 
L 135.40795 258.989635 
L 135.570847 258.816 
L 135.679445 258.816 
L 135.733744 258.643862 
L 135.788044 260.173241 
L 135.842343 258.643862 
L 135.950941 258.643862 
L 136.113838 258.473202 
L 136.222437 258.473202 
L 136.385334 259.820308 
L 136.548232 258.136238 
L 136.711129 258.136238 
L 136.765428 259.646094 
L 136.819727 259.473356 
L 136.982625 259.473356 
L 137.145522 257.804962 
L 137.308419 259.302076 
L 137.471317 259.132235 
L 137.579915 259.132235 
L 137.742813 258.963816 
L 137.851411 258.963816 
L 138.014308 258.7968 
L 138.122907 258.7968 
L 138.231505 260.103436 
L 138.394402 258.63117 
L 138.5573 258.466909 
L 138.611599 258.466909 
L 138.665898 259.933091 
L 138.720197 259.764148 
L 138.828795 259.764148 
L 138.991693 258.142426 
L 139.100291 258.142426 
L 139.208889 259.59659 
L 139.371787 259.4304 
L 139.534684 257.82322 
L 139.588983 257.82322 
L 139.751881 259.265561 
L 139.914778 259.102057 
L 139.969077 259.102057 
L 140.077676 257.509161 
L 140.240573 258.939871 
L 140.294872 258.939871 
L 140.457769 258.778988 
L 140.566368 258.778988 
L 140.620667 260.038656 
L 140.783564 258.619392 
L 140.837863 258.619392 
L 141.000761 258.461068 
L 141.109359 259.874677 
L 141.217957 259.712 
L 141.380855 258.304 
L 141.489453 258.148174 
L 141.65235 259.550609 
L 141.815248 259.390488 
L 141.978145 257.840188 
L 142.141043 259.231624 
L 142.195342 259.231624 
L 142.358239 259.074 
L 142.412538 259.074 
L 142.466838 257.688 
L 142.521137 258.917603 
L 142.738333 258.917603 
L 142.901231 258.762419 
L 142.95553 258.762419 
L 143.009829 260.137674 
L 143.064128 259.978378 
L 143.227025 258.608432 
L 143.281325 258.608432 
L 143.444222 258.455631 
L 143.55282 259.820308 
L 143.661419 259.663448 
L 143.824316 258.304 
L 143.932914 258.153527 
L 144.095812 259.507786 
L 144.20441 259.353308 
L 144.367307 258.004198 
L 144.421607 257.856 
L 144.584504 259.2 
L 144.638803 259.2 
L 144.8017 259.047849 
L 144.856 257.708921 
L 144.910299 259.047849 
L 145.073196 258.896842 
L 145.181794 258.896842 
L 145.344692 258.746966 
L 145.398991 260.075865 
L 145.45329 258.746966 
L 145.616188 258.598209 
L 145.724786 258.598209 
L 145.833384 258.450558 
L 145.996282 259.769576 
L 146.050581 259.618133 
L 146.213478 258.304 
L 146.267777 258.304 
L 146.322076 258.158524 
L 146.484974 259.467808 
L 146.539273 259.467808 
L 146.647871 259.318588 
L 146.810769 258.014118 
L 146.973666 259.170462 
L 147.082264 259.170462 
L 147.245162 259.023416 
L 147.299461 257.728467 
L 147.35376 259.023416 
L 147.516657 258.87744 
L 147.625256 258.87744 
L 147.788153 258.732522 
L 147.842452 260.018087 
L 147.896751 258.732522 
L 148.059649 258.58865 
L 148.168247 258.58865 
L 148.276845 258.445813 
L 148.385444 259.722129 
L 148.548341 258.304 
L 148.711238 258.304 
L 148.874136 259.4304 
L 148.982734 259.4304 
L 149.037033 259.286093 
L 149.199931 258.023402 
L 149.25423 259.286093 
L 149.308529 259.142809 
L 149.525725 259.142809 
L 149.634324 259.000537 
L 149.688623 257.74677 
L 149.742922 259.000537 
L 149.797221 259.000537 
L 149.960119 258.859268 
L 150.068717 258.859268 
L 150.177315 258.718989 
L 150.231614 259.963958 
L 150.285913 258.718989 
L 150.340213 258.718989 
L 150.50311 258.579692 
L 150.611708 258.579692 
L 150.666007 258.441366 
L 150.828905 259.677659 
L 150.991802 258.304 
L 151.1547 258.304 
L 151.317597 259.395322 
L 151.426195 259.395322 
L 151.480494 259.255614 
L 151.643392 258.03211 
L 151.697691 259.255614 
L 151.75199 259.116866 
L 151.969187 259.116866 
L 152.077785 258.979068 
L 152.132084 257.763945 
L 152.186383 258.979068 
L 152.240682 258.979068 
L 152.40358 258.842212 
L 152.512178 258.842212 
L 152.566477 258.706286 
L 152.675075 259.913143 
L 152.837973 258.571281 
L 153.055169 258.571281 
L 153.218067 259.635892 
L 153.380964 258.304 
L 153.543862 258.304 
L 153.598161 259.498667 
L 153.65246 259.362362 
L 153.815357 259.362362 
L 153.978255 258.040294 
L 154.032554 258.040294 
L 154.141152 259.22697 
L 154.30405 259.09248 
L 154.412648 259.09248 
L 154.466947 258.958884 
L 154.521246 257.780093 
L 154.575545 258.958884 
L 154.684144 258.958884 
L 154.847041 258.826172 
L 154.955639 258.826172 
L 155.009938 258.694337 
L 155.064238 259.865347 
L 155.118537 258.694337 
L 155.227135 258.694337 
L 155.390032 258.563368 
L 155.498631 258.563368 
L 155.661528 259.59659 
L 155.824425 258.304 
L 155.987323 258.304 
L 156.041622 259.463529 
L 156.095921 259.331336 
L 156.258819 259.331336 
L 156.421716 258.048 
L 156.584613 259.2 
L 156.747511 259.069515 
L 156.856109 259.069515 
L 157.019007 258.939871 
L 157.127605 258.939871 
L 157.290502 258.811061 
L 157.3991 258.811061 
L 157.507699 259.820308 
L 157.670596 258.683077 
L 157.833494 258.555911 
L 157.887793 258.555911 
L 157.942092 259.689508 
L 157.996391 259.559541 
L 158.05069 259.559541 
L 158.213588 258.429554 
L 158.376485 258.304 
L 158.485083 259.4304 
L 158.647981 259.302076 
L 158.810878 258.055268 
L 158.865177 258.055268 
L 159.028075 259.174562 
L 159.190972 259.047849 
L 159.245271 259.047849 
L 159.353869 257.809655 
L 159.516767 258.921931 
L 159.571066 258.921931 
L 159.733963 258.7968 
L 159.842562 258.7968 
L 159.896861 259.777794 
L 160.059758 258.672449 
L 160.114057 258.672449 
L 160.276955 258.54887 
L 160.385553 259.650783 
L 160.494151 259.524557 
L 160.657049 258.426056 
L 160.765647 258.304 
L 160.928544 259.399111 
L 161.091442 259.274437 
L 161.254339 258.062135 
L 161.417237 259.150528 
L 161.471536 259.150528 
L 161.634433 259.027376 
L 161.688732 259.027376 
L 161.743032 257.942312 
L 161.797331 258.904976 
L 162.014527 258.904976 
L 162.177425 258.783319 
L 162.231724 258.783319 
L 162.286023 259.861787 
L 162.340322 259.7376 
L 162.503219 258.6624 
L 162.557519 258.6624 
L 162.720416 258.542211 
L 162.829014 259.614163 
L 162.883313 259.49147 
L 163.046211 258.422747 
L 163.10051 258.422747 
L 163.209108 258.304 
L 163.372006 259.369514 
L 163.480604 259.248287 
L 163.643501 258.185964 
L 163.6978 258.068633 
L 163.860698 259.127785 
L 163.914997 259.127785 
L 164.077894 259.008 
L 164.132194 257.952 
L 164.186493 259.008 
L 164.34939 258.888926 
L 164.457988 258.888926 
L 164.620886 258.770556 
L 164.675185 259.820308 
L 164.729484 258.770556 
L 164.892382 258.652885 
L 165.00098 258.652885 
L 165.109578 258.535906 
L 165.272475 259.579482 
L 165.326775 259.460129 
L 165.489672 258.419613 
L 165.543971 258.419613 
L 165.59827 258.304 
L 165.761168 259.341474 
L 165.815467 259.341474 
L 165.924065 259.22351 
L 166.086963 258.189061 
L 166.24986 259.106233 
L 166.358458 259.106233 
L 166.521356 258.989635 
L 166.575655 257.961183 
L 166.629954 258.989635 
L 166.792851 258.873711 
L 166.90145 258.873711 
L 167.064347 258.758455 
L 167.118646 259.78098 
L 167.172945 258.758455 
L 167.335843 258.643862 
L 167.444441 258.643862 
L 167.553039 258.529926 
L 167.661638 259.54659 
L 167.824535 258.41664 
L 167.987432 258.41664 
L 168.15033 259.314872 
L 168.258928 259.314872 
L 168.313227 259.2 
L 168.476125 258.192 
L 168.530424 259.2 
L 168.584723 259.085779 
L 168.801919 259.085779 
L 168.910518 258.972203 
L 168.964817 257.969898 
L 169.019116 258.972203 
L 169.073415 258.972203 
L 169.236313 258.859268 
L 169.344911 258.859268 
L 169.453509 258.746966 
L 169.507808 259.74364 
L 169.562107 258.746966 
L 169.616407 258.746966 
L 169.779304 258.635294 
L 169.942201 258.524246 
L 170.105099 259.515352 
L 170.267996 258.413816 
L 170.430894 258.413816 
L 170.593791 259.2896 
L 170.702389 259.2896 
L 170.756688 259.177662 
L 170.919586 258.194792 
L 170.973885 259.177662 
L 171.028184 259.066343 
L 171.353979 258.955636 
L 171.408278 257.978182 
L 171.462577 258.955636 
L 171.788372 258.845538 
L 171.842671 258.736044 
L 171.951269 259.708142 
L 172.114167 258.627148 
L 172.331363 258.627148 
L 172.494261 259.485646 
L 172.657158 258.41113 
L 172.820056 258.41113 
L 172.874355 259.375304 
L 172.928654 259.265561 
L 173.091551 259.265561 
L 173.254449 258.197449 
L 173.308748 258.197449 
L 173.417346 259.156411 
L 173.580244 259.047849 
L 173.743141 258.939871 
L 173.79744 257.986065 
L 173.851739 258.939871 
L 174.231833 258.832472 
L 174.286132 258.725647 
L 174.340432 259.674353 
L 174.394731 258.725647 
L 174.774825 258.619392 
L 174.937722 259.457362 
L 175.100619 258.408573 
L 175.263517 258.408573 
L 175.317816 259.349729 
L 175.372115 259.242667 
L 175.535013 259.242667 
L 175.69791 258.199979 
L 175.860807 259.136169 
L 176.023705 259.030232 
L 176.403799 258.92485 
L 176.566696 258.820021 
L 176.675294 258.820021 
L 176.783893 259.642151 
L 176.94679 258.715739 
L 177.109688 258.612 
L 177.163987 258.612 
L 177.218286 259.536 
L 177.272585 259.4304 
L 177.326884 259.4304 
L 177.489782 258.5088 
L 177.652679 258.406135 
L 177.761277 259.325347 
L 177.924175 259.220837 
L 178.087072 258.202392 
L 178.141371 258.202392 
L 178.304269 259.116866 
L 178.467166 259.013429 
L 178.521465 259.013429 
L 178.630063 258.000738 
L 178.792961 258.910523 
L 179.064457 258.808143 
L 179.118756 259.715601 
L 179.173055 259.611429 
L 179.335952 258.706286 
L 179.553149 258.604947 
L 179.661747 259.507786 
L 179.770345 259.40467 
L 179.933243 258.504122 
L 180.041841 258.403808 
L 180.204738 259.302076 
L 180.367636 259.2 
L 180.530533 258.204695 
L 180.693431 259.098438 
L 180.964926 258.997387 
L 181.019225 258.105889 
L 181.073525 258.896842 
L 181.507918 258.7968 
L 181.562217 259.68384 
L 181.616516 259.582085 
L 181.779413 258.697257 
L 181.99661 258.598209 
L 182.105208 259.480836 
L 182.159507 259.380089 
L 182.322405 258.499653 
L 182.485302 258.401584 
L 182.6482 259.279842 
L 182.756798 259.180089 
L 182.919695 258.304 
L 183.082593 259.080828 
L 183.354088 258.982054 
L 183.408388 258.11027 
L 183.462687 258.982054 
L 183.625584 258.883765 
L 183.89708 258.785956 
L 183.951379 259.653477 
L 184.005678 258.785956 
L 184.168575 258.688624 
L 184.385772 258.591766 
L 184.548669 259.455066 
L 184.602969 259.356583 
L 184.765866 258.495379 
L 184.874464 258.399458 
L 185.037362 259.258576 
L 185.200259 259.161043 
L 185.363157 258.304 
L 185.526054 259.063981 
L 185.79755 258.967385 
L 185.851849 258.114462 
L 185.906148 258.967385 
L 186.069045 258.871252 
L 186.340541 258.775579 
L 186.39484 259.624421 
L 186.449139 258.775579 
L 186.612037 258.680363 
L 186.774934 258.5856 
L 186.937832 259.4304 
L 187.100729 258.491287 
L 187.263626 258.491287 
L 187.426524 259.238218 
L 187.589421 259.142809 
L 187.752319 258.304 
L 187.806618 259.142809 
L 187.860917 259.047849 
L 188.186712 258.953336 
L 188.241011 258.118475 
L 188.29531 258.953336 
L 188.621105 258.859268 
L 188.729703 258.765639 
L 188.784002 259.59659 
L 188.838301 258.765639 
L 189.164096 258.672449 
L 189.218395 258.579692 
L 189.381293 259.406769 
L 189.54419 258.487367 
L 189.707088 258.487367 
L 189.869985 259.21871 
L 190.032882 259.125333 
L 190.19578 258.304 
L 190.250079 259.125333 
L 190.304378 259.032388 
L 190.79307 258.939871 
L 190.955968 258.847779 
L 191.118865 258.75611 
L 191.227463 259.569908 
L 191.390361 258.66486 
L 191.607557 258.66486 
L 191.770455 259.38411 
L 191.933352 258.483608 
L 192.09625 258.483608 
L 192.150549 259.291845 
L 192.204848 259.2 
L 192.367745 259.2 
L 192.530643 258.304 
L 192.584942 258.304 
L 192.69354 259.108571 
L 192.856438 259.017557 
L 193.019335 258.926953 
L 193.073634 258.126014 
L 193.127933 258.926953 
L 193.508027 258.836757 
L 193.562326 258.746966 
L 193.616625 259.544306 
L 193.670925 258.746966 
L 194.051019 258.657578 
L 194.213916 259.362362 
L 194.376813 258.48 
L 194.485412 258.48 
L 194.59401 259.272 
L 194.756907 259.18204 
L 194.811206 259.18204 
L 194.974104 258.304 
L 195.137001 259.09248 
L 195.299899 259.003317 
L 195.679993 258.914549 
L 195.84289 258.826172 
L 195.951488 258.826172 
L 196.060087 259.519718 
L 196.222984 258.738185 
L 196.385881 258.650585 
L 196.440181 258.650585 
L 196.49448 259.4304 
L 196.548779 259.341474 
L 196.603078 259.341474 
L 196.765975 258.563368 
L 196.928873 258.476534 
L 197.037471 259.252937 
L 197.200369 259.164786 
L 197.363266 258.304 
L 197.417565 258.304 
L 197.580463 259.07702 
L 197.74336 258.989635 
L 197.797659 258.989635 
L 197.906257 258.132963 
L 198.069155 258.902629 
L 198.34065 258.816 
L 198.39495 259.584 
L 198.449249 259.496086 
L 198.612146 258.729745 
L 198.829343 258.643862 
L 198.937941 259.408552 
L 199.046539 259.321394 
L 199.209437 258.558348 
L 199.318035 258.473202 
L 199.480932 259.234609 
L 199.64383 259.148197 
L 199.806727 258.304 
L 199.969625 259.062154 
L 200.24112 258.976478 
L 200.295419 258.21994 
L 200.349719 258.891166 
L 200.784112 258.806217 
L 200.838411 259.559541 
L 200.89271 259.473356 
L 201.055607 258.721627 
L 201.272804 258.637395 
L 201.381402 259.387535 
L 201.435701 259.302076 
L 201.598599 258.553519 
L 201.761496 258.469996 
L 201.924394 259.216977 
L 202.032992 259.132235 
L 202.195889 258.386824 
L 202.358787 259.047849 
L 202.630282 258.963816 
L 202.684581 258.221523 
L 202.738881 258.963816 
L 202.901778 258.880134 
L 203.173274 258.7968 
L 203.227573 259.536 
L 203.281872 258.7968 
L 203.444769 258.713813 
L 203.661966 258.63117 
L 203.824863 259.367303 
L 203.879163 259.283478 
L 204.04206 258.54887 
L 204.150658 258.466909 
L 204.313556 259.2 
L 204.476453 259.116866 
L 204.63935 258.385287 
L 204.802248 259.034074 
L 205.073744 258.951622 
L 205.128043 258.223047 
L 205.182342 258.951622 
L 205.345239 258.869508 
L 205.725333 258.78773 
L 205.888231 258.706286 
L 206.051128 258.625173 
L 206.214025 259.347813 
L 206.376923 258.54439 
L 206.53982 258.54439 
L 206.702718 259.183643 
L 206.865615 259.102057 
L 207.028513 258.383806 
L 207.082812 259.102057 
L 207.137111 259.0208 
L 207.462906 258.939871 
L 207.517205 258.224516 
L 207.571504 258.939871 
L 207.897299 258.859268 
L 208.005897 258.778988 
L 208.060196 259.49147 
L 208.114495 258.778988 
L 208.44029 258.69903 
L 208.494589 258.619392 
L 208.657487 259.329024 
L 208.820384 258.540072 
L 208.983281 258.540072 
L 209.146179 259.167873 
L 209.309076 259.087777 
L 209.471974 258.382378 
L 209.526273 259.087777 
L 209.580572 259.008 
L 210.069264 258.928539 
L 210.232162 258.849391 
L 210.395059 258.770556 
L 210.449358 259.470391 
L 210.503657 258.770556 
L 210.883751 258.692031 
L 211.046649 259.3109 
L 211.209546 258.535906 
L 211.372444 258.535906 
L 211.426743 259.231624 
L 211.481042 259.152658 
L 211.643939 259.152658 
L 211.806837 258.381 
L 211.861136 258.381 
L 211.969734 259.074 
L 212.132631 258.995649 
L 212.295529 258.917603 
L 212.349828 258.2273 
L 212.404127 258.917603 
L 212.784221 258.83986 
L 212.83852 258.762419 
L 212.892819 259.450047 
L 212.947119 258.762419 
L 213.327213 258.685277 
L 213.49011 259.293405 
L 213.653007 258.531884 
L 213.761606 258.531884 
L 213.870204 259.215538 
L 214.033101 259.137969 
L 214.0874 259.137969 
L 214.250298 258.37967 
L 214.413195 259.060699 
L 214.576093 258.983724 
L 214.956187 258.907044 
L 215.119084 258.830656 
L 215.227682 258.830656 
L 215.281981 259.4304 
L 215.444879 258.75456 
L 215.716375 258.678753 
L 215.770674 259.353308 
L 215.824973 259.276509 
L 215.879272 259.276509 
L 216.042169 258.603233 
L 216.205067 258.528 
L 216.313665 259.2 
L 216.476563 259.123781 
L 216.63946 258.378385 
L 216.693759 258.378385 
L 216.856656 259.047849 
L 217.019554 258.972203 
L 217.073853 258.972203 
L 217.182451 258.229895 
L 217.345349 258.896842 
L 217.616844 258.821764 
L 217.671144 259.48746 
L 217.725443 259.411416 
L 217.88834 258.746966 
L 218.105537 258.672449 
L 218.214135 259.335656 
L 218.322733 259.260179 
L 218.485631 258.598209 
L 218.594229 258.524246 
L 218.757126 259.184983 
L 218.920024 259.110067 
L 219.082921 258.377143 
L 219.245819 259.035429 
L 219.517314 258.961067 
L 219.571613 258.304 
L 219.625913 258.88698 
L 220.114605 258.813166 
L 220.277502 258.739624 
L 220.548998 258.666353 
L 220.657596 259.318588 
L 220.711895 259.244389 
L 220.874793 258.59335 
L 220.983391 258.520615 
L 221.146288 259.170462 
L 221.309186 259.096804 
L 221.472083 258.448146 
L 221.634981 259.023416 
L 221.906476 258.950295 
L 221.960775 258.304 
L 222.015075 258.950295 
L 222.177972 258.87744 
L 222.449468 258.804849 
L 222.503767 259.448799 
L 222.558066 258.804849 
L 222.720963 258.732522 
L 222.93816 258.660456 
L 223.101057 259.302076 
L 223.155356 259.229112 
L 223.318254 258.58865 
L 223.426852 258.517103 
L 223.58975 259.156411 
L 223.752647 259.083971 
L 223.915544 258.445813 
L 224.078442 259.011792 
L 224.349938 258.939871 
L 224.404237 258.304 
L 224.458536 258.939871 
L 224.621433 258.868208 
L 224.83863 258.7968 
L 224.892929 259.4304 
L 224.947228 258.7968 
L 225.273023 258.725647 
L 225.327322 258.654747 
L 225.490219 259.286093 
L 225.653117 258.584099 
L 225.816014 258.584099 
L 225.978912 259.142809 
L 226.141809 259.071547 
L 226.304706 258.443554 
L 226.359006 259.071547 
L 226.413305 259.000537 
L 226.7391 258.929778 
L 226.793399 258.304 
L 226.847698 258.929778 
L 227.173493 258.859268 
L 227.282091 258.789005 
L 227.33639 259.412583 
L 227.390689 258.789005 
L 227.716484 258.718989 
L 227.770783 258.649219 
L 227.933681 259.270613 
L 228.096578 258.579692 
L 228.259475 258.579692 
L 228.422373 259.129634 
L 228.58527 259.059512 
L 228.693869 258.441366 
L 228.802467 259.059512 
L 228.965364 258.989635 
L 229.345458 258.92 
L 229.508356 258.850607 
L 229.671253 258.781453 
L 229.725552 259.395322 
L 229.779851 258.781453 
L 230.159945 258.712539 
L 230.322843 259.255614 
L 230.48574 258.575422 
L 230.648638 258.575422 
L 230.702937 259.18612 
L 230.757236 259.116866 
L 230.920133 259.116866 
L 231.083031 258.439245 
L 231.13733 258.439245 
L 231.245928 259.047849 
L 231.408825 258.979068 
L 231.571723 258.910523 
L 231.626022 258.304 
L 231.680321 258.910523 
L 232.060415 258.842212 
L 232.114714 258.774133 
L 232.169013 259.378589 
L 232.223313 258.774133 
L 232.549107 258.706286 
L 232.603406 259.309714 
L 232.657706 259.241073 
L 232.766304 259.241073 
L 232.929201 258.571281 
L 233.0378 258.571281 
L 233.146398 259.172664 
L 233.309295 259.104487 
L 233.363594 259.104487 
L 233.526492 258.437189 
L 233.689389 259.036541 
L 233.852287 258.968823 
L 234.232381 258.901333 
L 234.395278 258.834071 
L 234.503876 258.834071 
L 234.558175 259.362362 
L 234.721073 258.767034 
L 234.992569 258.700221 
L 235.046868 259.294553 
L 235.101167 259.22697 
L 235.155466 259.22697 
L 235.318363 258.633632 
L 235.481261 258.567265 
L 235.589859 259.159613 
L 235.752756 259.09248 
L 235.915654 258.435195 
L 235.969953 258.435195 
L 236.13285 259.025571 
L 236.295748 258.958884 
L 236.350047 258.958884 
L 236.404346 258.369488 
L 236.458645 258.892418 
L 236.893038 258.826172 
L 236.947337 259.413616 
L 237.001637 259.346618 
L 237.164534 258.760145 
L 237.381731 258.694337 
L 237.490329 259.279842 
L 237.598927 259.213285 
L 237.761825 258.628745 
L 237.870423 258.563368 
L 238.03332 259.146947 
L 238.196218 259.080828 
L 238.359115 258.433259 
L 238.522012 259.014925 
L 238.793508 258.949237 
L 238.847807 258.368524 
L 238.902106 258.883765 
L 239.390799 258.818506 
L 239.553696 258.753459 
L 239.825192 258.688624 
L 239.93379 259.265561 
L 239.988089 259.2 
L 240.150987 258.624 
L 240.259585 258.559585 
L 240.422482 259.134652 
L 240.58538 259.069515 
L 240.748277 258.495379 
L 240.911175 259.004588 
L 241.18267 258.939871 
L 241.236969 258.367587 
L 241.291269 258.939871 
L 241.454166 258.875362 
L 241.725662 258.811061 
L 241.779961 259.381505 
L 241.83426 258.811061 
L 241.997157 258.746966 
L 242.214354 258.683077 
L 242.377251 259.251692 
L 242.43155 259.187098 
L 242.594448 258.619392 
L 242.703046 258.555911 
L 242.865944 259.122709 
L 243.028841 259.058526 
L 243.191738 258.492632 
L 243.354636 258.994548 
L 243.626131 258.930773 
L 243.680431 258.366677 
L 243.73473 258.930773 
L 243.897627 258.8672 
L 244.114824 258.803829 
L 244.169123 259.366136 
L 244.223422 258.803829 
L 244.549217 258.740658 
L 244.603516 258.677687 
L 244.766413 259.238218 
L 244.929311 258.614915 
L 245.092208 258.614915 
L 245.255106 259.111106 
L 245.418003 259.047849 
L 245.5809 258.489962 
L 245.6352 259.047849 
L 245.689499 258.984791 
L 246.015294 258.921931 
L 246.069593 258.365793 
L 246.123892 258.921931 
L 246.449687 258.859268 
L 246.558285 258.7968 
L 246.612584 259.3512 
L 246.666883 258.7968 
L 246.992678 258.734527 
L 247.046977 258.672449 
L 247.209875 259.225121 
L 247.372772 258.610563 
L 247.535669 258.610563 
L 247.698567 259.099826 
L 247.861464 259.03747 
L 247.970062 258.487367 
L 248.078661 259.03747 
L 248.241558 258.975307 
L 248.621652 258.913335 
L 248.78455 258.851556 
L 248.947447 258.789966 
L 249.001746 259.336678 
L 249.056045 258.789966 
L 249.436139 258.728566 
L 249.599037 259.212387 
L 249.761934 258.606331 
L 249.924831 258.606331 
L 249.979131 259.150528 
L 250.03343 259.088858 
L 250.196327 259.088858 
L 250.359225 258.484844 
L 250.413524 258.484844 
L 250.522122 259.027376 
L 250.685019 258.966082 
L 250.847917 258.904976 
L 250.902216 258.364098 
L 250.956515 258.904976 
L 251.336609 258.844055 
L 251.390908 258.783319 
L 251.445207 259.322553 
L 251.499506 258.783319 
L 251.825301 258.722768 
L 251.8796 259.261184 
L 251.9339 259.2 
L 252.042498 259.2 
L 252.205395 258.602215 
L 252.313994 258.602215 
L 252.422592 259.139002 
L 252.585489 259.078187 
L 252.639788 259.078187 
L 252.802686 258.482389 
L 252.965583 259.017557 
L 253.128481 258.957108 
L 253.508575 258.896842 
L 253.671472 258.836757 
L 253.78007 258.836757 
L 253.834369 259.30881 
L 253.997267 258.776852 
L 254.268762 258.717126 
L 254.323062 259.248287 
L 254.377361 259.187946 
L 254.43166 259.187946 
L 254.594557 258.657578 
L 254.757455 258.598209 
L 254.866053 259.127785 
L 255.02895 259.067803 
L 255.191848 258.48 
L 255.246147 258.48 
L 255.409044 259.008 
L 255.571942 258.948374 
L 255.626241 258.948374 
L 255.68054 258.421159 
L 255.734839 258.888926 
L 256.169232 258.829653 
L 256.223531 259.355307 
L 256.277831 259.295432 
L 256.440728 258.770556 
L 256.657925 258.711634 
L 256.766523 259.235734 
L 256.875121 259.176212 
L 257.038019 258.652885 
L 257.146617 258.594309 
L 257.309514 259.116866 
L 257.472412 259.057694 
L 257.635309 258.477674 
L 257.798206 258.998696 
L 258.015403 258.939871 
L 258.124001 258.419613 
L 258.286899 258.881218 
L 258.666993 258.822737 
L 258.82989 258.764426 
L 259.047087 258.706286 
L 259.209984 259.22351 
L 259.264283 259.164786 
L 259.427181 258.648314 
L 259.535779 258.590512 
L 259.698676 259.106233 
L 259.861574 259.047849 
L 260.024471 258.532877 
L 260.187369 258.989635 
L 260.458864 258.931589 
L 260.513163 258.418107 
L 260.567462 258.931589 
L 260.73036 258.873711 
L 261.001856 258.816 
L 261.056155 259.328 
L 261.110454 258.816 
L 261.273351 258.758455 
L 261.490548 258.701076 
L 261.653445 259.211603 
L 261.707744 259.153655 
L 261.870642 258.643862 
L 261.97924 258.586812 
L 262.142137 259.095874 
L 262.305035 259.038258 
L 262.467932 258.529926 
L 262.63083 258.980807 
L 262.848026 258.92352 
L 262.902325 258.41664 
L 262.956625 258.92352 
L 263.282419 258.866397 
L 263.391018 258.809436 
L 263.445317 259.314872 
L 263.499616 258.809436 
L 263.825411 258.752637 
L 263.87971 258.696 
L 264.042607 259.2 
L 264.205505 258.639523 
L 264.368402 258.639523 
L 264.5313 259.085779 
L 264.694197 259.028911 
L 264.857094 258.52705 
L 264.911394 259.028911 
L 264.965693 258.972203 
L 265.291487 258.915656 
L 265.345787 258.41521 
L 265.400086 258.915656 
L 265.725881 258.859268 
L 265.834479 258.803038 
L 265.888778 259.302076 
L 265.943077 258.803038 
L 266.268872 258.746966 
L 266.323171 258.691052 
L 266.486069 259.18869 
L 266.648966 258.635294 
L 266.757564 258.635294 
L 266.811863 259.132235 
L 266.866162 259.075938 
L 267.137658 259.019799 
L 267.246256 258.524246 
L 267.354855 259.019799 
L 267.517752 258.963816 
L 267.68065 258.907989 
L 267.734949 258.413816 
L 267.789248 258.907989 
L 268.169342 258.852317 
L 268.223641 258.7968 
L 268.27794 259.2896 
L 268.332239 258.7968 
L 268.712333 258.741437 
L 268.875231 259.177662 
L 269.038128 258.63117 
L 269.201025 258.63117 
L 269.255325 259.121925 
L 269.309624 259.066343 
L 269.472521 259.066343 
L 269.635419 258.521512 
L 269.689718 258.521512 
L 269.798316 259.010913 
L 269.961213 258.955636 
L 270.124111 258.900512 
L 270.17841 258.412457 
L 270.232709 258.900512 
L 270.612803 258.845538 
L 270.721401 259.277432 
L 270.884299 258.790716 
L 271.047196 258.736044 
L 271.101495 258.736044 
L 271.155794 259.222093 
L 271.210094 259.166906 
L 271.318692 259.166906 
L 271.481589 258.627148 
L 271.590187 258.627148 
L 271.698786 259.111869 
L 271.861683 259.056982 
L 271.915982 259.056982 
L 272.07888 258.518845 
L 272.241777 259.002245 
L 272.404675 258.947657 
L 272.458974 258.947657 
L 272.567572 258.41113 
L 272.730469 258.893217 
L 273.056264 258.838925 
L 273.110563 259.265561 
L 273.273461 258.78478 
L 273.544956 258.730782 
L 273.599256 259.210912 
L 273.653555 259.156411 
L 273.707854 259.156411 
L 273.870751 258.67693 
L 274.033649 258.623223 
L 274.142247 259.102057 
L 274.305144 259.047849 
L 274.468042 258.516242 
L 274.630939 258.993787 
L 274.902435 258.939871 
L 274.956734 258.462968 
L 275.011033 258.886099 
L 275.445426 258.832472 
L 275.499725 259.308097 
L 275.554025 259.253976 
L 275.716922 258.778988 
L 275.934119 258.725647 
L 276.042717 259.2 
L 276.151315 259.146168 
L 276.314212 258.672449 
L 276.422811 258.619392 
L 276.585708 259.09248 
L 276.748606 259.038935 
L 276.911503 258.513702 
L 277.0744 258.985532 
L 277.291597 258.932271 
L 277.400195 258.461068 
L 277.563093 258.879151 
L 278.214682 258.773333 
L 278.323281 258.720634 
L 278.486178 259.189347 
L 278.540477 259.136169 
L 278.703375 258.668074 
L 278.811973 258.615652 
L 278.97487 259.08313 
L 279.137768 259.030232 
L 279.300665 258.563368 
L 279.463562 258.977472 
L 279.735058 258.92485 
L 279.789357 258.459213 
L 279.843656 258.92485 
L 280.006554 258.872367 
L 280.27805 258.820021 
L 280.332349 259.28444 
L 280.386648 258.820021 
L 280.549545 258.767812 
L 280.766742 258.715739 
L 280.929639 259.178945 
L 280.983938 259.126404 
L 281.146836 258.663802 
L 281.255434 258.612 
L 281.418331 259.074 
L 281.581229 259.021732 
L 281.744126 258.560333 
L 281.907024 258.9696 
L 282.12422 258.917603 
L 282.178519 258.457401 
L 282.232819 258.917603 
L 282.667212 258.814013 
L 282.721511 259.273025 
L 282.77581 258.814013 
L 283.155904 258.710957 
L 283.318801 259.168785 
L 283.481699 258.659629 
L 283.644596 258.659629 
L 283.807493 259.065081 
L 283.970391 259.013429 
L 284.133288 258.557368 
L 284.187587 259.013429 
L 284.241887 258.96191 
L 284.567681 258.910523 
L 284.621981 258.455631 
L 284.67628 258.910523 
L 285.110673 258.808143 
L 285.164972 259.261872 
L 285.219271 258.808143 
L 285.599365 258.706286 
L 285.762262 259.158857 
L 285.92516 258.655552 
L 286.033758 258.655552 
L 286.088057 259.107546 
L 286.142356 259.056366 
L 286.413852 259.005316 
L 286.52245 258.55447 
L 286.631049 259.005316 
L 286.793946 258.954396 
L 286.956843 258.903605 
L 287.011143 258.453901 
L 287.065442 258.903605 
L 287.499835 258.802407 
L 287.554134 259.250973 
L 287.608433 258.802407 
L 287.988527 258.752 
L 288.151425 259.149155 
L 288.314322 258.651567 
L 288.477219 258.651567 
L 288.531518 259.098438 
L 288.585818 259.047849 
L 288.748715 259.047849 
L 288.911612 258.551638 
L 288.965912 258.551638 
L 289.07451 258.997387 
L 289.291706 258.947051 
L 289.400305 258.896842 
L 289.454604 258.452211 
L 289.508903 258.896842 
L 289.888997 258.846758 
L 289.997595 259.24032 
L 290.160493 258.7968 
L 290.377689 258.746966 
L 290.431988 259.189933 
L 290.486287 259.139671 
L 290.594886 259.139671 
L 290.757783 258.647671 
L 290.866381 258.647671 
L 290.97498 259.089534 
L 291.192176 259.039522 
L 291.355074 258.54887 
L 291.517971 258.989635 
L 291.735168 258.939871 
L 291.843766 258.450558 
L 292.006663 258.89023 
L 292.332458 258.840713 
L 292.386757 259.229904 
L 292.549655 258.791318 
L 292.82115 258.742044 
L 292.87545 259.180089 
L 292.929749 259.130397 
L 292.984048 259.130397 
L 293.146945 258.692893 
L 293.309843 258.643862 
L 293.418441 259.080828 
L 293.581338 259.03138 
L 293.744236 258.546162 
L 293.907133 258.982054 
L 294.178629 258.932849 
L 294.232928 258.497492 
L 294.287227 258.883765 
L 294.72162 258.8348 
L 294.775919 259.269092 
L 294.830218 259.219716 
L 294.993116 258.785956 
L 295.210312 258.737231 
L 295.318911 259.170462 
L 295.427509 259.121327 
L 295.590406 258.688624 
L 295.699005 258.640136 
L 295.861902 259.072312 
L 296.0248 259.023416 
L 296.187697 258.543514 
L 296.350594 258.974639 
L 296.567791 258.925981 
L 296.676389 258.495379 
L 296.839287 258.87744 
L 297.490876 258.780711 
L 297.599475 258.732522 
L 297.762372 259.161043 
L 297.816671 259.112454 
L 297.979568 258.684449 
L 298.088167 258.636492 
L 298.251064 259.063981 
L 298.413962 259.015625 
L 298.576859 258.58865 
L 298.739756 258.967385 
L 299.011252 258.919261 
L 299.065551 258.493311 
L 299.11985 258.919261 
L 299.337047 258.871252 
L 299.554243 258.823358 
L 299.608543 259.248287 
L 299.662842 258.823358 
L 299.880038 258.775579 
L 300.042936 258.727914 
L 300.205833 259.151828 
L 300.260132 259.103771 
L 300.42303 258.680363 
L 300.531628 258.632925 
L 300.694525 259.055828 
L 300.857423 259.008 
L 300.966021 258.5856 
L 301.02032 259.008 
L 301.074619 258.960285 
L 301.400414 258.912684 
L 301.454713 258.491287 
L 301.509012 258.912684 
L 301.943406 258.81782 
L 301.997705 259.238218 
L 302.052004 258.81782 
L 302.432098 258.723404 
L 302.594995 259.142809 
L 302.757893 258.676364 
L 302.92079 258.676364 
L 303.083687 259.047849 
L 303.246585 259.000537 
L 303.409482 258.582615 
L 303.463781 259.000537 
L 303.518081 258.953336 
L 303.843875 258.906247 
L 303.898175 258.489307 
L 303.952474 258.906247 
L 304.386867 258.812399 
L 304.441166 259.228361 
L 304.495465 258.812399 
L 304.82126 258.765639 
L 304.984157 259.133979 
L 305.038456 259.133979 
L 305.201354 258.672449 
L 305.309952 258.672449 
L 305.364251 259.086953 
L 305.41855 259.040037 
L 305.581448 259.040037 
L 305.744345 258.579692 
L 305.798644 258.579692 
L 305.907243 258.993231 
L 306.124439 258.946533 
L 306.233037 258.899944 
L 306.287337 258.487367 
L 306.341636 258.899944 
L 306.776029 258.80709 
L 306.830328 259.21871 
L 306.884627 258.80709 
L 307.264721 258.760825 
L 307.427618 259.125333 
L 307.590516 258.668615 
L 307.753413 258.668615 
L 307.807712 259.078807 
L 307.862012 259.032388 
L 308.024909 259.032388 
L 308.187806 258.57683 
L 308.242106 258.57683 
L 308.350704 258.986076 
L 308.5679 258.939871 
L 309.165191 258.847779 
L 309.273789 259.209258 
L 309.436687 258.801892 
L 309.653883 258.75611 
L 309.708182 259.163009 
L 309.762481 259.116866 
L 309.87108 259.116866 
L 310.033977 258.66486 
L 310.142575 258.66486 
L 310.251174 259.070828 
L 310.414071 259.024896 
L 310.576968 258.574027 
L 310.631268 258.574027 
L 310.794165 258.979068 
L 311.011362 258.933345 
L 311.11996 258.483608 
L 311.282857 258.887727 
L 311.608652 258.842212 
L 311.662951 259.2 
L 311.825849 258.7968 
L 312.097344 258.751491 
L 312.151643 259.154234 
L 312.205943 259.108571 
L 312.260242 259.108571 
L 312.423139 258.706286 
L 312.531737 258.661182 
L 312.694635 259.063012 
L 312.857532 259.017557 
L 313.02043 258.571281 
L 313.183327 258.972203 
L 313.454823 258.926953 
L 313.509122 258.526483 
L 313.563421 258.881804 
L 313.997814 258.836757 
L 314.052113 259.236324 
L 314.106412 259.190929 
L 314.26931 258.791811 
L 314.486506 258.746966 
L 314.595105 259.145636 
L 314.703703 259.100444 
L 314.8666 258.702222 
L 314.975199 258.657578 
L 315.138096 259.055354 
L 315.246694 259.010365 
L 315.409592 258.613035 
L 315.463891 258.568591 
L 315.626788 258.965477 
L 315.843985 258.920688 
L 315.952583 258.524246 
L 316.115481 258.876 
L 316.386976 258.831411 
L 316.441275 259.22697 
L 316.495575 258.831411 
L 316.712771 258.786922 
L 316.875668 258.742532 
L 317.038566 259.13721 
L 317.092865 259.09248 
L 317.255762 258.69824 
L 317.364361 258.654047 
L 317.527258 259.047849 
L 317.690156 259.003317 
L 317.853053 258.609951 
L 318.01595 258.958884 
L 318.287446 258.914549 
L 318.341745 258.522053 
L 318.396044 258.914549 
L 318.613241 258.870312 
L 318.830437 258.826172 
L 318.884737 259.217801 
L 318.939036 258.826172 
L 319.156232 258.78213 
L 319.31913 258.738185 
L 319.482027 259.128952 
L 319.536326 259.084673 
L 319.699224 258.694337 
L 319.807822 258.650585 
L 319.970719 259.040492 
L 320.079318 258.996408 
L 320.242215 258.606929 
L 320.296514 258.996408 
L 320.350813 258.952421 
L 320.676608 258.90853 
L 320.730907 258.519904 
L 320.785206 258.90853 
L 321.2196 258.821036 
L 321.273899 259.208813 
L 321.328198 258.821036 
L 321.708292 258.733924 
L 321.871189 259.120855 
L 322.034087 258.69051 
L 322.196984 258.69051 
L 322.359881 259.03328 
L 322.522779 258.989635 
L 322.685676 258.603965 
L 322.739975 258.989635 
L 322.794275 258.946085 
L 323.120069 258.902629 
L 323.174368 258.517796 
L 323.228668 258.902629 
L 323.663061 258.816 
L 323.71736 259.2 
L 323.771659 258.816 
L 324.097454 258.772826 
L 324.260351 259.112916 
L 324.31465 259.112916 
L 324.477548 258.686757 
L 324.586146 258.686757 
L 324.640445 259.069515 
L 324.694744 259.026207 
L 324.857642 259.026207 
L 325.020539 258.601059 
L 325.074838 258.601059 
L 325.183437 258.982992 
L 325.400633 258.939871 
L 325.509231 258.896842 
L 325.563531 258.515729 
L 325.61783 258.896842 
L 326.052223 258.811061 
L 326.106522 259.191357 
L 326.160821 258.811061 
L 326.540915 258.768308 
L 326.703812 259.105129 
L 326.86671 258.683077 
L 327.029607 258.683077 
L 327.083906 259.062154 
L 327.138206 259.01927 
L 327.301103 259.01927 
L 327.464 258.598209 
L 327.5183 258.598209 
L 327.626898 258.976478 
L 327.844094 258.933776 
L 328.441385 258.848646 
L 328.549983 259.182879 
L 328.712881 258.806217 
L 328.930077 258.763877 
L 328.984376 259.14014 
L 329.038675 259.097492 
L 329.147274 259.097492 
L 329.310171 258.679467 
L 329.418769 258.679467 
L 329.527368 259.054933 
L 329.690265 259.012465 
L 329.853162 258.595413 
L 329.907462 258.595413 
L 330.070359 258.970087 
L 330.287556 258.927797 
L 330.396154 258.511713 
L 330.559051 258.885597 
L 330.884846 258.843486 
L 330.939145 259.174562 
L 331.102043 258.801464 
L 331.373538 258.759529 
L 331.427837 259.132235 
L 331.482137 259.089998 
L 331.536436 259.089998 
L 331.699333 258.717683 
L 331.807931 258.675925 
L 331.970829 259.047849 
L 332.133726 259.005788 
L 332.296624 258.592669 
L 332.459521 258.963816 
L 332.731017 258.921931 
L 332.785316 258.551172 
L 332.839615 258.880134 
L 333.274008 258.838423 
L 333.328307 259.208409 
L 333.382606 259.1664 
L 333.545504 258.7968 
L 333.7627 258.755263 
L 333.871299 259.124479 
L 333.979897 259.082644 
L 334.142794 258.713813 
L 334.251393 258.672449 
L 334.41429 259.040897 
L 334.522888 258.999237 
L 334.685786 258.63117 
L 334.740085 258.589977 
L 334.902982 258.957662 
L 335.120179 258.916174 
L 335.228777 258.54887 
L 335.391674 258.874771 
L 335.66317 258.833455 
L 335.717469 259.2 
L 335.771768 258.833455 
L 335.988965 258.792223 
L 336.151862 258.751076 
L 336.31476 259.116866 
L 336.369059 259.075427 
L 336.531956 258.710014 
L 336.640555 258.669037 
L 336.803452 259.034074 
L 336.966349 258.992806 
L 337.129247 258.628144 
L 337.292144 258.951622 
L 337.56364 258.910523 
L 337.617939 258.546609 
L 337.672238 258.910523 
L 337.889435 258.869508 
L 338.106631 258.828577 
L 338.160931 259.191746 
L 338.21523 258.828577 
L 338.432426 258.78773 
L 338.595324 258.746966 
L 338.758221 259.109393 
L 338.81252 259.068343 
L 338.975418 258.706286 
L 339.029717 258.706286 
L 339.192614 259.027376 
L 339.355512 258.986493 
L 339.518409 258.625173 
L 339.572708 258.986493 
L 339.627007 258.945693 
L 339.952802 258.904976 
L 340.007101 258.54439 
L 340.0614 258.904976 
L 340.495793 258.823789 
L 340.550093 259.183643 
L 340.604392 258.823789 
L 340.984486 258.742931 
L 341.147383 259.102057 
L 341.310281 258.702625 
L 341.473178 258.702625 
L 341.636075 259.0208 
L 341.798973 258.980295 
L 341.96187 258.622256 
L 342.016169 258.980295 
L 342.070468 258.939871 
L 342.396263 258.899529 
L 342.450562 258.542211 
L 342.504862 258.899529 
L 342.884956 258.819087 
L 342.993554 259.175686 
L 343.156451 258.778988 
L 343.373648 258.778988 
L 343.536545 259.094853 
L 343.590844 259.094853 
L 343.753742 258.69903 
L 343.86234 258.69903 
L 343.916639 259.054557 
L 343.970938 259.014342 
L 344.133836 259.014342 
L 344.296733 258.619392 
L 344.351032 258.619392 
L 344.459631 258.974208 
L 344.676827 258.934154 
L 344.785425 258.89418 
L 344.839724 258.540072 
L 344.894024 258.89418 
L 345.328417 258.81447 
L 345.382716 259.167873 
L 345.437015 258.81447 
L 345.817109 258.774734 
L 345.980006 259.087777 
L 346.142904 258.6955 
L 346.305801 258.6955 
L 346.3601 259.047849 
L 346.414399 259.008 
L 346.577297 259.008 
L 346.740194 258.616579 
L 346.903092 258.96823 
L 347.120288 258.928539 
L 347.717579 258.849391 
L 347.826177 259.160197 
L 347.989074 258.809935 
L 348.206271 258.770556 
L 348.26057 259.120473 
L 348.314869 259.080828 
L 348.423468 259.080828 
L 348.586365 258.692031 
L 348.694963 258.692031 
L 348.803562 259.04126 
L 348.966459 259.00177 
L 349.129356 258.613815 
L 349.183656 258.613815 
L 349.346553 258.962358 
L 349.563749 258.923023 
L 349.672348 258.535906 
L 349.835245 258.883765 
L 350.16104 258.844584 
L 350.215339 259.152658 
L 350.378237 258.805479 
L 350.595433 258.766452 
L 350.704031 259.11329 
L 350.81263 259.074 
L 350.975527 258.7275 
L 351.084125 258.688624 
L 351.247023 259.034786 
L 351.40992 258.995649 
L 351.572818 258.6111 
L 351.735715 258.956588 
L 352.007211 258.917603 
L 352.06151 258.572451 
L 352.115809 258.878694 
L 352.550202 258.83986 
L 352.604501 259.184342 
L 352.6588 259.145249 
L 352.821698 258.801102 
L 353.038894 258.762419 
L 353.147493 259.106233 
L 353.256091 259.067291 
L 353.418988 258.72381 
L 353.527587 258.685277 
L 353.690484 259.028426 
L 353.799082 258.989635 
L 353.96198 258.646817 
L 354.016279 258.608432 
L 354.179176 258.950919 
L 354.396373 258.912278 
L 354.450672 258.570122 
L 354.504971 258.912278 
L 354.722168 258.873711 
L 354.939364 258.835218 
L 354.993663 259.176716 
L 355.047962 258.835218 
L 355.265159 258.7968 
L 355.428056 258.758455 
L 355.590954 259.099297 
L 355.645253 259.060699 
L 355.80815 258.720184 
L 355.916749 258.681987 
L 356.079646 259.022174 
L 356.242543 258.983724 
L 356.405441 258.643862 
L 356.568338 258.945347 
L 356.839834 258.907044 
L 356.894133 258.567832 
L 356.948432 258.907044 
L 357.165629 258.868814 
L 357.382825 258.830656 
L 357.437124 259.169221 
L 357.491424 258.830656 
L 357.70862 258.792572 
L 357.871518 258.75456 
L 357.980116 259.09248 
L 358.143013 258.71662 
L 358.305911 258.71662 
L 358.468808 259.01603 
L 358.631706 258.977915 
L 358.794603 258.640957 
L 358.848902 258.977915 
L 358.903201 258.939871 
L 359.228996 258.9019 
L 359.283295 258.565581 
L 359.337594 258.9019 
L 359.771987 258.826172 
L 359.826287 259.161854 
L 359.880586 258.826172 
L 360.26068 258.750731 
L 360.423577 259.085779 
L 360.586474 258.713117 
L 360.749372 258.713117 
L 360.912269 259.009991 
L 361.075167 258.972203 
L 361.238064 258.638102 
L 361.292363 258.972203 
L 361.346662 258.934487 
L 361.672457 258.896842 
L 361.726756 258.563368 
L 361.781056 258.896842 
L 362.161149 258.821764 
L 362.269748 259.154612 
L 362.432645 258.78433 
L 362.649842 258.78433 
L 362.812739 259.079191 
L 362.975637 258.709673 
L 363.138534 258.709673 
L 363.192833 259.041587 
L 363.247132 259.004052 
L 363.41003 259.004052 
L 363.572927 258.635294 
L 363.627226 258.635294 
L 363.735824 258.966588 
L 363.953021 258.929194 
L 364.061619 258.89187 
L 364.115918 258.561193 
L 364.170218 258.89187 
L 364.604611 258.817429 
L 364.65891 259.14749 
L 364.713209 258.817429 
L 365.093303 258.780312 
L 365.2562 259.072713 
L 365.419098 258.706286 
L 365.581995 258.706286 
L 365.636294 259.035429 
L 365.690593 258.998213 
L 365.853491 258.998213 
L 366.016388 258.632533 
L 366.179286 258.961067 
L 366.396482 258.923989 
L 366.993773 258.850039 
L 367.102371 259.140487 
L 367.265268 258.813166 
L 367.482465 258.776361 
L 367.536764 259.103381 
L 367.591063 259.066343 
L 367.645362 259.066343 
L 367.80826 258.739624 
L 367.971157 258.702955 
L 368.079756 259.029373 
L 368.242653 258.992471 
L 368.40555 258.629818 
L 368.459849 258.629818 
L 368.622747 258.955636 
L 368.839943 258.91887 
L 368.948542 258.55695 
L 369.111439 258.88217 
L 369.437234 258.845538 
L 369.491533 259.133599 
L 369.654431 258.808973 
L 369.871627 258.772475 
L 369.980225 259.096804 
L 370.088824 259.060077 
L 370.251721 258.736044 
L 370.360319 258.699679 
L 370.523217 259.023416 
L 370.686114 258.986822 
L 370.849012 258.627148 
L 371.011909 258.950295 
L 371.283405 258.913834 
L 371.337704 258.590981 
L 371.392003 258.87744 
L 371.826396 258.841112 
L 371.880695 259.163379 
L 371.934994 259.126824 
L 372.097892 258.804849 
L 372.315088 258.768653 
L 372.423687 259.090335 
L 372.477986 259.053913 
L 372.640883 258.732522 
L 372.803781 258.696456 
L 372.966678 259.017557 
L 373.075276 258.981266 
L 373.238174 258.660456 
L 373.292473 258.62452 
L 373.45537 258.945041 
L 373.672567 258.908881 
L 373.726866 258.58865 
L 373.781165 258.908881 
L 373.998362 258.872786 
L 374.215558 258.836757 
L 374.269857 259.156411 
L 374.324156 258.836757 
L 374.541353 258.800792 
L 374.70425 258.764892 
L 374.867148 259.083971 
L 374.921447 259.047849 
L 375.084344 258.729057 
L 375.192943 258.693285 
L 375.35584 259.011792 
L 375.518737 258.975799 
L 375.681635 258.657578 
L 375.844532 258.939871 
L 376.116028 258.904007 
L 376.170327 258.586356 
L 376.224626 258.904007 
L 376.441823 258.868208 
L 376.659019 258.832472 
L 376.713318 259.149555 
L 376.767618 258.832472 
L 376.984814 258.7968 
L 377.093412 258.761192 
L 377.25631 259.077709 
L 377.419207 258.725647 
L 377.582105 258.725647 
L 377.745002 259.006119 
L 377.907899 258.97042 
L 378.070797 258.654747 
L 378.125096 258.97042 
L 378.179395 258.934784 
L 378.50519 258.899211 
L 378.559489 258.584099 
L 378.613788 258.899211 
L 379.048181 258.828255 
L 379.10248 259.142809 
L 379.15678 258.828255 
L 379.536874 258.75755 
L 379.699771 259.071547 
L 379.862668 258.722292 
L 380.025566 258.722292 
L 380.188463 259.000537 
L 380.351361 258.965126 
L 380.514258 258.651961 
L 380.568557 258.965126 
L 380.622856 258.929778 
L 381.437343 258.824106 
L 381.545942 259.136169 
L 381.708839 258.789005 
L 381.926036 258.789005 
L 382.088933 259.065482 
L 382.25183 258.718989 
L 382.414728 258.718989 
L 382.469027 259.030232 
L 382.523326 258.995043 
L 382.686224 258.995043 
L 382.849121 258.649219 
L 382.90342 258.649219 
L 383.012018 258.959916 
L 383.229215 258.92485 
L 383.337813 258.889846 
L 383.392112 258.579692 
L 383.446412 258.889846 
L 383.880805 258.820021 
L 383.935104 259.129634 
L 383.989403 258.820021 
L 384.369497 258.7852 
L 384.532394 259.059512 
L 384.695292 258.715739 
L 384.80389 258.715739 
L 384.912488 259.024543 
L 385.129685 258.989635 
L 385.292582 258.64652 
L 385.45548 258.954787 
L 385.672676 258.92 
L 386.269967 258.850607 
L 386.378565 259.1232 
L 386.541462 258.816 
L 386.758659 258.781453 
L 386.812958 259.088388 
L 386.867257 259.053635 
L 386.921556 259.053635 
L 387.084454 258.746966 
L 387.247351 258.712539 
L 387.355949 259.018943 
L 387.518847 258.984311 
L 387.681744 258.643862 
L 387.736043 258.643862 
L 387.898941 258.949738 
L 388.116137 258.915225 
L 388.224736 258.575422 
L 388.387633 258.880771 
L 388.659129 258.846377 
L 388.713428 259.151463 
L 388.767727 259.116866 
L 388.930624 258.812041 
L 389.147821 258.777765 
L 389.256419 259.082328 
L 389.365018 259.047849 
L 389.527915 258.743547 
L 389.636513 258.709388 
L 389.799411 259.013429 
L 389.962308 258.979068 
L 390.125205 258.641246 
L 390.288103 258.944766 
L 390.559599 258.910523 
L 390.613898 258.607262 
L 390.668197 258.876338 
L 391.10259 258.842212 
L 391.156889 259.144956 
L 391.211188 259.110629 
L 391.374086 258.808143 
L 391.591282 258.774133 
L 391.69988 259.076361 
L 391.75418 259.042151 
L 391.917077 258.74018 
L 392.079974 258.706286 
L 392.242872 259.008 
L 392.35147 258.973907 
L 392.514368 258.672449 
L 392.677265 258.939871 
L 392.948761 258.905893 
L 393.00306 258.604947 
L 393.057359 258.905893 
L 393.274555 258.871973 
L 393.491752 258.83811 
L 393.546051 259.138547 
L 393.60035 258.83811 
L 393.817547 258.804305 
L 393.980444 258.770556 
L 394.143342 259.070485 
L 394.197641 259.036541 
L 394.360538 258.736865 
L 394.469137 258.70323 
L 394.632034 259.002653 
L 394.794931 258.968823 
L 394.957829 258.669653 
L 395.120726 258.93505 
L 395.392222 258.901333 
L 395.446521 258.602667 
L 395.50082 258.901333 
L 395.718017 258.867674 
L 395.935213 258.834071 
L 395.989512 259.132235 
L 396.043812 258.834071 
L 396.261008 258.800524 
L 396.369606 258.767034 
L 396.532504 259.064698 
L 396.695401 258.733599 
L 396.858299 258.733599 
L 397.021196 258.997387 
L 397.184093 258.963816 
L 397.346991 258.666899 
L 397.40129 258.963816 
L 397.455589 258.930301 
L 397.781384 258.896842 
L 397.835683 258.600421 
L 397.889982 258.896842 
L 398.324375 258.830092 
L 398.378674 259.126018 
L 398.432974 258.830092 
L 398.487273 258.830092 
L 398.487273 258.830092 
" style="fill:none;stroke:#1f77b4;stroke-linecap:square;stroke-width:1.5;"/>
   </g>
   <g id="patch_3">
    <path d="M 57.6 307.584 
L 57.6 41.472 
" style="fill:none;stroke:#000000;stroke-linecap:square;stroke-linejoin:miter;stroke-width:0.8;"/>
   </g>
   <g id="patch_4">
    <path d="M 414.72 307.584 
L 414.72 41.472 
" style="fill:none;stroke:#000000;stroke-linecap:square;stroke-linejoin:miter;stroke-width:0.8;"/>
   </g>
   <g id="patch_5">
    <path d="M 57.6 307.584 
L 414.72 307.584 
" style="fill:none;stroke:#000000;stroke-linecap:square;stroke-linejoin:miter;stroke-width:0.8;"/>
   </g>
   <g id="patch_6">
    <path d="M 57.6 41.472 
L 414.72 41.472 
" style="fill:none;stroke:#000000;stroke-linecap:square;stroke-linejoin:miter;stroke-width:0.8;"/>
   </g>
  </g>
 </g>
 <defs>
  <clipPath id="p61f8a385df">
   <rect height="266.112" width="357.12" x="57.6" y="41.472"/>
  </clipPath>
 </defs>
</svg>
