<?xml version="1.0" encoding="UTF-8" standalone="no"?>
<!-- Created with matplotlib (https://matplotlib.org/) -->

<svg
   height="345.6pt"
   version="1.1"
   viewBox="0 0 460.8 345.6"
   width="460.8pt"
   id="svg2348"
   sodipodi:docname="a.svg"
   inkscape:version="1.2.1 (2ed6d7ae0b, 2022-08-22, custom)"
   xmlns:inkscape="http://www.inkscape.org/namespaces/inkscape"
   xmlns:sodipodi="http://sodipodi.sourceforge.net/DTD/sodipodi-0.dtd"
   xmlns="http://www.w3.org/2000/svg"
   xmlns:svg="http://www.w3.org/2000/svg"
   xmlns:rdf="http://www.w3.org/1999/02/22-rdf-syntax-ns#"
   xmlns:cc="http://creativecommons.org/ns#"
   xmlns:dc="http://purl.org/dc/elements/1.1/">
  <sodipodi:namedview
     id="namedview2350"
     pagecolor="#ffffff"
     bordercolor="#666666"
     borderopacity="1.0"
     inkscape:showpageshadow="2"
     inkscape:pageopacity="0.0"
     inkscape:pagecheckerboard="0"
     inkscape:deskcolor="#d1d1d1"
     inkscape:document-units="pt"
     showgrid="false"
     inkscape:zoom="1.3412694"
     inkscape:cx="124.50892"
     inkscape:cy="118.17164"
     inkscape:window-width="1853"
     inkscape:window-height="1018"
     inkscape:window-x="67"
     inkscape:window-y="34"
     inkscape:window-maximized="1"
     inkscape:current-layer="svg2348" />
  <metadata
     id="metadata2068">
    <rdf:RDF>
      <cc:Work>
        <dc:type
           rdf:resource="http://purl.org/dc/dcmitype/StillImage" />
        <dc:date>2022-08-28T23:12:13.565945</dc:date>
        <dc:format>image/svg+xml</dc:format>
        <dc:creator>
          <cc:Agent>
            <dc:title>Matplotlib v3.3.4, https://matplotlib.org/</dc:title>
          </cc:Agent>
        </dc:creator>
      </cc:Work>
    </rdf:RDF>
  </metadata>
  <defs
     id="defs2072">
    <style
       type="text/css"
       id="style2070">*{stroke-linecap:butt;stroke-linejoin:round;}</style>
  </defs>
  <path
     d="M 0,345.6 H 460.8 V 0 H 0 Z"
     style="fill:#ffffff"
     id="path2074" />
  <g
     id="patch_2">
    <path
       d="M 103.104,307.584 H 369.216 V 41.472 H 103.104 Z"
       style="fill:#ffffff"
       id="path2077" />
  </g>
  <g
     id="LineCollection_1">
    <path
       clip-path="url(#pcc71c43cdb)"
       d="m 230.28974,186.59494 h 17.99048 l 0.2131,-0.2131 v -23.97406 l -0.2131,-0.2131 h -23.97406 l -0.2131,0.2131 v 19.16062 0"
       style="fill:none;stroke:#4b0082;stroke-width:3"
       id="path2277" />
  </g>
  <g
     id="LineCollection_2">
    <path
       clip-path="url(#pcc71c43cdb)"
       d="m 228.86985,218.79521 h 19.41037 l 0.26637,-0.176 7.73724,-0.006 v -7.72497 l 1.05325,-0.0281 15.18357,-0.0189 0.21935,-0.21935 0.047,-16.23682 7.73056,-0.0123 v -7.72497 l 0.176,-0.26638 v -23.97406 l -0.176,-0.26638 -0.006,-7.73723 h -7.72497 l -0.0281,-1.05325 -0.0189,-15.18357 -0.21935,-0.21935 -16.23682,-0.047 -0.0123,-7.73056 h -7.72498 l -0.26637,-0.176 h -23.97406 l -0.26638,0.176 -7.73723,0.006 v 7.72497 l -1.05325,0.0281 -15.18357,0.0189 -0.21935,0.21935 -0.047,16.23682 -7.73056,0.0123 v 7.72497 l -0.176,0.26638 v 23.97406 l 0.176,0.26638 0.006,7.73723 h 7.72497 l 0.0281,1.05325 0.0189,15.18357 0.21935,0.21935 15.81449,0.0189 v 0"
       style="fill:none;stroke:#800080;stroke-width:3"
       id="path2280" />
  </g>
  <g
     id="LineCollection_3">
    <path
       clip-path="url(#pcc71c43cdb)"
       d="m 204.65986,218.8401 75.85214,-0.009 0.21708,-0.21708 V 130.176 l -0.21708,-0.21708 h -88.43762 l -0.21708,0.21708 -0.008,80.49091 v 0"
       style="fill:none;stroke:#8b008b;stroke-width:3"
       id="path2283" />
  </g>
  <g
     id="LineCollection_4">
    <path
       clip-path="url(#pcc71c43cdb)"
       d="m 204.65987,218.83608 75.85213,-0.009 0.21353,-0.21353 V 130.176 l -0.21353,-0.21353 h -88.43762 l -0.21353,0.21353 -0.008,80.48495 v 0"
       style="fill:none;stroke:#bf00bf;stroke-width:3"
       id="path2286" />
  </g>
  <g
     id="patch_3">
    <path
       d="M 103.104,307.584 V 41.472"
       style="fill:none;stroke:#000000;stroke-width:0.8;stroke-linecap:square;stroke-linejoin:miter"
       id="path2289" />
  </g>
  <g
     id="patch_4">
    <path
       d="M 369.216,307.584 V 41.472"
       style="fill:none;stroke:#000000;stroke-width:0.8;stroke-linecap:square;stroke-linejoin:miter"
       id="path2292" />
  </g>
  <g
     id="patch_5">
    <path
       d="M 103.104,307.584 H 369.216"
       style="fill:none;stroke:#000000;stroke-width:0.8;stroke-linecap:square;stroke-linejoin:miter"
       id="path2295" />
  </g>
  <g
     id="patch_6">
    <path
       d="M 103.104,41.472 H 369.216"
       style="fill:none;stroke:#000000;stroke-width:0.8;stroke-linecap:square;stroke-linejoin:miter"
       id="path2298" />
  </g>
  <g
     id="text_15">
    <g
       clip-path="url(#pcc71c43cdb)"
       id="g2305">
      <!-- 0 -->
      <g
         style="fill:#4b0082"
         transform="matrix(0.09571659,0.028954,0.028954,-0.09571659,221.52774,188.31502)"
         id="g2303">
        <path
           d="m 31.78125,3.421875 q 7.484375,0 11.1875,8.203125 3.71875,8.203125 3.71875,24.75 0,16.609375 -3.71875,24.8125 -3.703125,8.203125 -11.1875,8.203125 -7.46875,0 -11.1875,-8.203125 -3.703125,-8.203125 -3.703125,-24.8125 0,-16.546875 3.703125,-24.75 3.71875,-8.203125 11.1875,-8.203125 z m 0,-4.84375 Q 19.921875,-1.421875 13.25,8.53125 6.59375,18.5 6.59375,36.375 q 0,17.921875 6.65625,27.875 6.671875,9.96875 18.53125,9.96875 11.921875,0 18.5625,-9.96875 6.640625,-9.953125 6.640625,-27.875 0,-17.875 -6.640625,-27.84375 -6.640625,-9.953125 -18.5625,-9.953125 z"
           id="use2301" />
      </g>
    </g>
  </g>
  <g
     id="text_16"
     transform="translate(6,-4.5)">
    <g
       clip-path="url(#pcc71c43cdb)"
       id="g2316">
      <!-- 100 -->
      <g
         style="fill:#800080"
         transform="matrix(0.09386343,0.03449139,0.03449139,-0.09386343,209.60151,217.91748)"
         id="g2314">
        <path
           d="M 14.203125,0 V 5.171875 H 26.90625 v 60.65625 l -14.703125,-9.53125 v 6.40625 L 29.984375,74.21875 H 36.71875 V 5.171875 H 49.421875 V 0 Z"
           id="use2308" />
        <path
           d="m 95.404297,3.421875 q 7.484373,0 11.187503,8.203125 3.71875,8.203125 3.71875,24.75 0,16.609375 -3.71875,24.8125 -3.70313,8.203125 -11.187503,8.203125 -7.46875,0 -11.1875,-8.203125 -3.703125,-8.203125 -3.703125,-24.8125 0,-16.546875 3.703125,-24.75 3.71875,-8.203125 11.1875,-8.203125 z m 0,-4.84375 q -11.859375,0 -18.53125,9.953125 -6.65625,9.96875 -6.65625,27.84375 0,17.921875 6.65625,27.875 6.671875,9.96875 18.53125,9.96875 11.921873,0 18.562503,-9.96875 6.64062,-9.953125 6.64062,-27.875 0,-17.875 -6.64062,-27.84375 -6.64063,-9.953125 -18.562503,-9.953125 z"
           id="use2310" />
        <path
           d="m 159.02734,3.421875 q 7.48438,0 11.1875,8.203125 3.71875,8.203125 3.71875,24.75 0,16.609375 -3.71875,24.8125 -3.70312,8.203125 -11.1875,8.203125 -7.46875,0 -11.1875,-8.203125 -3.70312,-8.203125 -3.70312,-24.8125 0,-16.546875 3.70312,-24.75 3.71875,-8.203125 11.1875,-8.203125 z m 0,-4.84375 q -11.85937,0 -18.53125,9.953125 -6.65625,9.96875 -6.65625,27.84375 0,17.921875 6.65625,27.875 6.67188,9.96875 18.53125,9.96875 11.92188,0 18.5625,-9.96875 6.64063,-9.953125 6.64063,-27.875 0,-17.875 -6.64063,-27.84375 -6.64062,-9.953125 -18.5625,-9.953125 z"
           id="use2312" />
      </g>
    </g>
  </g>
  <g
     id="text_17"
     transform="translate(-1.5)">
    <g
       clip-path="url(#pcc71c43cdb)"
       id="g2327">
      <!-- 200 -->
      <g
         style="fill:#8b008b"
         transform="matrix(0.09477059,0.0319145,0.0319145,-0.09477059,185.34561,218.39994)"
         id="g2325">
        <path
           d="M 12.796875,55.515625 H 7.328125 V 68.5 q 5.21875,2.796875 10.515625,4.25 5.296875,1.46875 10.375,1.46875 11.375,0 17.96875,-5.515625 6.59375,-5.515625 6.59375,-14.984375 0,-10.703125 -14.9375,-25.59375 Q 36.671875,27 36.078125,26.421875 L 17.671875,8.015625 H 48.09375 V 17 H 53.8125 V 0 H 6.78125 v 5.328125 l 22.125,22.0625 q 7.328125,7.328125 10.453125,13.453125 3.125,6.125 3.125,12.875 0,7.359375 -3.84375,11.515625 -3.828125,4.15625 -10.5625,4.15625 -6.984375,0 -10.796875,-3.46875 -3.796875,-3.46875 -4.484375,-10.40625 z"
           id="use2319" />
        <path
           d="m 95.404297,3.421875 q 7.484373,0 11.187503,8.203125 3.71875,8.203125 3.71875,24.75 0,16.609375 -3.71875,24.8125 -3.70313,8.203125 -11.187503,8.203125 -7.46875,0 -11.1875,-8.203125 -3.703125,-8.203125 -3.703125,-24.8125 0,-16.546875 3.703125,-24.75 3.71875,-8.203125 11.1875,-8.203125 z m 0,-4.84375 q -11.859375,0 -18.53125,9.953125 -6.65625,9.96875 -6.65625,27.84375 0,17.921875 6.65625,27.875 6.671875,9.96875 18.53125,9.96875 11.921873,0 18.562503,-9.96875 6.64062,-9.953125 6.64062,-27.875 0,-17.875 -6.64062,-27.84375 -6.64063,-9.953125 -18.562503,-9.953125 z"
           id="use2321" />
        <path
           d="m 159.02734,3.421875 q 7.48438,0 11.1875,8.203125 3.71875,8.203125 3.71875,24.75 0,16.609375 -3.71875,24.8125 -3.70312,8.203125 -11.1875,8.203125 -7.46875,0 -11.1875,-8.203125 -3.70312,-8.203125 -3.70312,-24.8125 0,-16.546875 3.70312,-24.75 3.71875,-8.203125 11.1875,-8.203125 z m 0,-4.84375 q -11.85937,0 -18.53125,9.953125 -6.65625,9.96875 -6.65625,27.84375 0,17.921875 6.65625,27.875 6.67188,9.96875 18.53125,9.96875 11.92188,0 18.5625,-9.96875 6.64063,-9.953125 6.64063,-27.875 0,-17.875 -6.64063,-27.84375 -6.64062,-9.953125 -18.5625,-9.953125 z"
           id="use2323" />
      </g>
    </g>
  </g>
  <g
     id="text_18"
     transform="translate(-1.5,9)">
    <g
       clip-path="url(#pcc71c43cdb)"
       id="g2338">
      <!-- 300 -->
      <g
         style="fill:#bf00bf"
         transform="matrix(0.09476317,0.03193654,0.03193654,-0.09476317,185.34571,218.39408)"
         id="g2336">
        <path
           d="m 9.71875,69.828125 q 5.71875,2.140625 10.953125,3.265625 5.25,1.125 9.84375,1.125 10.703125,0 16.703125,-4.625 6,-4.609375 6,-12.8125 0,-6.578125 -4.15625,-11 -4.140625,-4.421875 -11.75,-5.984375 8.984375,-1.265625 13.9375,-6.515625 4.953125,-5.25 4.953125,-13.609375 0,-10.203125 -6.859375,-15.65625 -6.859375,-5.4375 -19.75,-5.4375 -5.71875,0 -11.171875,1.234375 Q 12.984375,1.03125 7.625,3.515625 v 14.15625 h 5.46875 q 0.484375,-7.03125 4.734375,-10.640625 4.25,-3.609375 11.953125,-3.609375 7.46875,0 11.796875,4.3125 4.328125,4.328125 4.328125,11.84375 0,8.59375 -4.453125,13.015625 -4.4375,4.421875 -13.03125,4.421875 H 23.78125 V 42 h 2.4375 q 8.546875,0 12.8125,3.53125 4.28125,3.546875 4.28125,10.671875 0,6.390625 -3.515625,9.78125 -3.515625,3.40625 -10.109375,3.40625 -6.59375,0 -10.234375,-3.125 -3.625,-3.125 -4.265625,-9.28125 H 9.71875 Z"
           id="use2330" />
        <path
           d="m 95.404297,3.421875 q 7.484373,0 11.187503,8.203125 3.71875,8.203125 3.71875,24.75 0,16.609375 -3.71875,24.8125 -3.70313,8.203125 -11.187503,8.203125 -7.46875,0 -11.1875,-8.203125 -3.703125,-8.203125 -3.703125,-24.8125 0,-16.546875 3.703125,-24.75 3.71875,-8.203125 11.1875,-8.203125 z m 0,-4.84375 q -11.859375,0 -18.53125,9.953125 -6.65625,9.96875 -6.65625,27.84375 0,17.921875 6.65625,27.875 6.671875,9.96875 18.53125,9.96875 11.921873,0 18.562503,-9.96875 6.64062,-9.953125 6.64062,-27.875 0,-17.875 -6.64062,-27.84375 -6.64063,-9.953125 -18.562503,-9.953125 z"
           id="use2332" />
        <path
           d="m 159.02734,3.421875 q 7.48438,0 11.1875,8.203125 3.71875,8.203125 3.71875,24.75 0,16.609375 -3.71875,24.8125 -3.70312,8.203125 -11.1875,8.203125 -7.46875,0 -11.1875,-8.203125 -3.70312,-8.203125 -3.70312,-24.8125 0,-16.546875 3.70312,-24.75 3.71875,-8.203125 11.1875,-8.203125 z m 0,-4.84375 q -11.85937,0 -18.53125,9.953125 -6.65625,9.96875 -6.65625,27.84375 0,17.921875 6.65625,27.875 6.67188,9.96875 18.53125,9.96875 11.92188,0 18.5625,-9.96875 6.64063,-9.953125 6.64063,-27.875 0,-17.875 -6.64063,-27.84375 -6.64062,-9.953125 -18.5625,-9.953125 z"
           id="use2334" />
      </g>
    </g>
  </g>
  <defs
     id="defs2346">
    <clipPath
       id="pcc71c43cdb">
      <rect
         height="266.112"
         width="266.112"
         x="103.104"
         y="41.472"
         id="rect2343" />
    </clipPath>
  </defs>
</svg>
