<?xml version="1.0" encoding="utf-8" standalone="no"?>
<!DOCTYPE svg PUBLIC "-//W3C//DTD SVG 1.1//EN"
  "http://www.w3.org/Graphics/SVG/1.1/DTD/svg11.dtd">
<!-- Created with matplotlib (https://matplotlib.org/) -->
<svg height="345.6pt" version="1.1" viewBox="0 0 460.8 345.6" width="460.8pt" xmlns="http://www.w3.org/2000/svg" xmlns:xlink="http://www.w3.org/1999/xlink">
 <metadata>
  <rdf:RDF xmlns:cc="http://creativecommons.org/ns#" xmlns:dc="http://purl.org/dc/elements/1.1/" xmlns:rdf="http://www.w3.org/1999/02/22-rdf-syntax-ns#">
   <cc:Work>
    <dc:type rdf:resource="http://purl.org/dc/dcmitype/StillImage"/>
    <dc:date>2022-08-12T15:24:40.549930</dc:date>
    <dc:format>image/svg+xml</dc:format>
    <dc:creator>
     <cc:Agent>
      <dc:title>Matplotlib v3.3.4, https://matplotlib.org/</dc:title>
     </cc:Agent>
    </dc:creator>
   </cc:Work>
  </rdf:RDF>
 </metadata>
 <defs>
  <style type="text/css">*{stroke-linecap:butt;stroke-linejoin:round;}</style>
 </defs>
 <g id="figure_1">
  <g id="patch_1">
   <path d="M 0 345.6 
L 460.8 345.6 
L 460.8 0 
L 0 0 
z
" style="fill:#ffffff;"/>
  </g>
  <g id="axes_1">
   <g id="patch_2">
    <path d="M 57.6 307.584 
L 414.72 307.584 
L 414.72 41.472 
L 57.6 41.472 
z
" style="fill:#ffffff;"/>
   </g>
   <g id="matplotlib.axis_1">
    <g id="xtick_1">
     <g id="line2d_1">
      <path clip-path="url(#pde8b0eee71)" d="M 70.966924 307.584 
L 70.966924 41.472 
" style="fill:none;stroke:#b0b0b0;stroke-linecap:square;stroke-width:0.8;"/>
     </g>
     <g id="line2d_2">
      <defs>
       <path d="M 0 0 
L 0 3.5 
" id="m013a97541c" style="stroke:#000000;stroke-width:0.8;"/>
      </defs>
      <g>
       <use style="stroke:#000000;stroke-width:0.8;" x="70.966924" xlink:href="#m013a97541c" y="307.584"/>
      </g>
     </g>
     <g id="text_1">
      <!-- 0 -->
      <g transform="translate(67.785674 322.182437)scale(0.1 -0.1)">
       <defs>
        <path d="M 31.78125 3.421875 
Q 39.265625 3.421875 42.96875 11.625 
Q 46.6875 19.828125 46.6875 36.375 
Q 46.6875 52.984375 42.96875 61.1875 
Q 39.265625 69.390625 31.78125 69.390625 
Q 24.3125 69.390625 20.59375 61.1875 
Q 16.890625 52.984375 16.890625 36.375 
Q 16.890625 19.828125 20.59375 11.625 
Q 24.3125 3.421875 31.78125 3.421875 
z
M 31.78125 -1.421875 
Q 19.921875 -1.421875 13.25 8.53125 
Q 6.59375 18.5 6.59375 36.375 
Q 6.59375 54.296875 13.25 64.25 
Q 19.921875 74.21875 31.78125 74.21875 
Q 43.703125 74.21875 50.34375 64.25 
Q 56.984375 54.296875 56.984375 36.375 
Q 56.984375 18.5 50.34375 8.53125 
Q 43.703125 -1.421875 31.78125 -1.421875 
z
" id="DejaVuSerif-48"/>
       </defs>
       <use xlink:href="#DejaVuSerif-48"/>
      </g>
     </g>
    </g>
    <g id="xtick_2">
     <g id="line2d_3">
      <path clip-path="url(#pde8b0eee71)" d="M 111.906968 307.584 
L 111.906968 41.472 
" style="fill:none;stroke:#b0b0b0;stroke-linecap:square;stroke-width:0.8;"/>
     </g>
     <g id="line2d_4">
      <g>
       <use style="stroke:#000000;stroke-width:0.8;" x="111.906968" xlink:href="#m013a97541c" y="307.584"/>
      </g>
     </g>
     <g id="text_2">
      <!-- 25 -->
      <g transform="translate(105.544468 322.182437)scale(0.1 -0.1)">
       <defs>
        <path d="M 12.796875 55.515625 
L 7.328125 55.515625 
L 7.328125 68.5 
Q 12.546875 71.296875 17.84375 72.75 
Q 23.140625 74.21875 28.21875 74.21875 
Q 39.59375 74.21875 46.1875 68.703125 
Q 52.78125 63.1875 52.78125 53.71875 
Q 52.78125 43.015625 37.84375 28.125 
Q 36.671875 27 36.078125 26.421875 
L 17.671875 8.015625 
L 48.09375 8.015625 
L 48.09375 17 
L 53.8125 17 
L 53.8125 0 
L 6.78125 0 
L 6.78125 5.328125 
L 28.90625 27.390625 
Q 36.234375 34.71875 39.359375 40.84375 
Q 42.484375 46.96875 42.484375 53.71875 
Q 42.484375 61.078125 38.640625 65.234375 
Q 34.8125 69.390625 28.078125 69.390625 
Q 21.09375 69.390625 17.28125 65.921875 
Q 13.484375 62.453125 12.796875 55.515625 
z
" id="DejaVuSerif-50"/>
        <path d="M 50.296875 72.90625 
L 50.296875 64.890625 
L 16.890625 64.890625 
L 16.890625 44 
Q 19.4375 45.75 22.828125 46.625 
Q 26.21875 47.515625 30.421875 47.515625 
Q 42.234375 47.515625 49.0625 40.96875 
Q 55.90625 34.421875 55.90625 23.09375 
Q 55.90625 11.53125 49 5.046875 
Q 42.09375 -1.421875 29.59375 -1.421875 
Q 24.5625 -1.421875 19.28125 -0.1875 
Q 14.015625 1.03125 8.5 3.515625 
L 8.5 17.671875 
L 14.015625 17.671875 
Q 14.453125 10.75 18.421875 7.078125 
Q 22.40625 3.421875 29.59375 3.421875 
Q 37.3125 3.421875 41.453125 8.5 
Q 45.609375 13.578125 45.609375 23.09375 
Q 45.609375 32.5625 41.484375 37.609375 
Q 37.359375 42.671875 29.59375 42.671875 
Q 25.203125 42.671875 21.84375 41.109375 
Q 18.5 39.546875 15.921875 36.28125 
L 11.71875 36.28125 
L 11.71875 72.90625 
z
" id="DejaVuSerif-53"/>
       </defs>
       <use xlink:href="#DejaVuSerif-50"/>
       <use x="63.623047" xlink:href="#DejaVuSerif-53"/>
      </g>
     </g>
    </g>
    <g id="xtick_3">
     <g id="line2d_5">
      <path clip-path="url(#pde8b0eee71)" d="M 152.847011 307.584 
L 152.847011 41.472 
" style="fill:none;stroke:#b0b0b0;stroke-linecap:square;stroke-width:0.8;"/>
     </g>
     <g id="line2d_6">
      <g>
       <use style="stroke:#000000;stroke-width:0.8;" x="152.847011" xlink:href="#m013a97541c" y="307.584"/>
      </g>
     </g>
     <g id="text_3">
      <!-- 50 -->
      <g transform="translate(146.484511 322.182437)scale(0.1 -0.1)">
       <use xlink:href="#DejaVuSerif-53"/>
       <use x="63.623047" xlink:href="#DejaVuSerif-48"/>
      </g>
     </g>
    </g>
    <g id="xtick_4">
     <g id="line2d_7">
      <path clip-path="url(#pde8b0eee71)" d="M 193.787055 307.584 
L 193.787055 41.472 
" style="fill:none;stroke:#b0b0b0;stroke-linecap:square;stroke-width:0.8;"/>
     </g>
     <g id="line2d_8">
      <g>
       <use style="stroke:#000000;stroke-width:0.8;" x="193.787055" xlink:href="#m013a97541c" y="307.584"/>
      </g>
     </g>
     <g id="text_4">
      <!-- 75 -->
      <g transform="translate(187.424555 322.182437)scale(0.1 -0.1)">
       <defs>
        <path d="M 56.390625 67.921875 
L 27.875 0 
L 20.609375 0 
L 47.796875 64.890625 
L 14.109375 64.890625 
L 14.109375 55.90625 
L 8.40625 55.90625 
L 8.40625 72.90625 
L 56.390625 72.90625 
z
" id="DejaVuSerif-55"/>
       </defs>
       <use xlink:href="#DejaVuSerif-55"/>
       <use x="63.623047" xlink:href="#DejaVuSerif-53"/>
      </g>
     </g>
    </g>
    <g id="xtick_5">
     <g id="line2d_9">
      <path clip-path="url(#pde8b0eee71)" d="M 234.727098 307.584 
L 234.727098 41.472 
" style="fill:none;stroke:#b0b0b0;stroke-linecap:square;stroke-width:0.8;"/>
     </g>
     <g id="line2d_10">
      <g>
       <use style="stroke:#000000;stroke-width:0.8;" x="234.727098" xlink:href="#m013a97541c" y="307.584"/>
      </g>
     </g>
     <g id="text_5">
      <!-- 100 -->
      <g transform="translate(225.183348 322.182437)scale(0.1 -0.1)">
       <defs>
        <path d="M 14.203125 0 
L 14.203125 5.171875 
L 26.90625 5.171875 
L 26.90625 65.828125 
L 12.203125 56.296875 
L 12.203125 62.703125 
L 29.984375 74.21875 
L 36.71875 74.21875 
L 36.71875 5.171875 
L 49.421875 5.171875 
L 49.421875 0 
z
" id="DejaVuSerif-49"/>
       </defs>
       <use xlink:href="#DejaVuSerif-49"/>
       <use x="63.623047" xlink:href="#DejaVuSerif-48"/>
       <use x="127.246094" xlink:href="#DejaVuSerif-48"/>
      </g>
     </g>
    </g>
    <g id="xtick_6">
     <g id="line2d_11">
      <path clip-path="url(#pde8b0eee71)" d="M 275.667142 307.584 
L 275.667142 41.472 
" style="fill:none;stroke:#b0b0b0;stroke-linecap:square;stroke-width:0.8;"/>
     </g>
     <g id="line2d_12">
      <g>
       <use style="stroke:#000000;stroke-width:0.8;" x="275.667142" xlink:href="#m013a97541c" y="307.584"/>
      </g>
     </g>
     <g id="text_6">
      <!-- 125 -->
      <g transform="translate(266.123392 322.182437)scale(0.1 -0.1)">
       <use xlink:href="#DejaVuSerif-49"/>
       <use x="63.623047" xlink:href="#DejaVuSerif-50"/>
       <use x="127.246094" xlink:href="#DejaVuSerif-53"/>
      </g>
     </g>
    </g>
    <g id="xtick_7">
     <g id="line2d_13">
      <path clip-path="url(#pde8b0eee71)" d="M 316.607186 307.584 
L 316.607186 41.472 
" style="fill:none;stroke:#b0b0b0;stroke-linecap:square;stroke-width:0.8;"/>
     </g>
     <g id="line2d_14">
      <g>
       <use style="stroke:#000000;stroke-width:0.8;" x="316.607186" xlink:href="#m013a97541c" y="307.584"/>
      </g>
     </g>
     <g id="text_7">
      <!-- 150 -->
      <g transform="translate(307.063436 322.182437)scale(0.1 -0.1)">
       <use xlink:href="#DejaVuSerif-49"/>
       <use x="63.623047" xlink:href="#DejaVuSerif-53"/>
       <use x="127.246094" xlink:href="#DejaVuSerif-48"/>
      </g>
     </g>
    </g>
    <g id="xtick_8">
     <g id="line2d_15">
      <path clip-path="url(#pde8b0eee71)" d="M 357.547229 307.584 
L 357.547229 41.472 
" style="fill:none;stroke:#b0b0b0;stroke-linecap:square;stroke-width:0.8;"/>
     </g>
     <g id="line2d_16">
      <g>
       <use style="stroke:#000000;stroke-width:0.8;" x="357.547229" xlink:href="#m013a97541c" y="307.584"/>
      </g>
     </g>
     <g id="text_8">
      <!-- 175 -->
      <g transform="translate(348.003479 322.182437)scale(0.1 -0.1)">
       <use xlink:href="#DejaVuSerif-49"/>
       <use x="63.623047" xlink:href="#DejaVuSerif-55"/>
       <use x="127.246094" xlink:href="#DejaVuSerif-53"/>
      </g>
     </g>
    </g>
    <g id="xtick_9">
     <g id="line2d_17">
      <path clip-path="url(#pde8b0eee71)" d="M 398.487273 307.584 
L 398.487273 41.472 
" style="fill:none;stroke:#b0b0b0;stroke-linecap:square;stroke-width:0.8;"/>
     </g>
     <g id="line2d_18">
      <g>
       <use style="stroke:#000000;stroke-width:0.8;" x="398.487273" xlink:href="#m013a97541c" y="307.584"/>
      </g>
     </g>
     <g id="text_9">
      <!-- 200 -->
      <g transform="translate(388.943523 322.182437)scale(0.1 -0.1)">
       <use xlink:href="#DejaVuSerif-50"/>
       <use x="63.623047" xlink:href="#DejaVuSerif-48"/>
       <use x="127.246094" xlink:href="#DejaVuSerif-48"/>
      </g>
     </g>
    </g>
    <g id="text_10">
     <!-- Time -->
     <g transform="translate(214.680234 341.179469)scale(0.17 -0.17)">
      <defs>
       <path d="M 19.09375 0 
L 19.09375 5.171875 
L 28.421875 5.171875 
L 28.421875 67.09375 
L 6.984375 67.09375 
L 6.984375 55.71875 
L 0.984375 55.71875 
L 0.984375 72.90625 
L 65.71875 72.90625 
L 65.71875 55.71875 
L 59.71875 55.71875 
L 59.71875 67.09375 
L 38.28125 67.09375 
L 38.28125 5.171875 
L 47.609375 5.171875 
L 47.609375 0 
z
" id="DejaVuSerif-84"/>
       <path d="M 9.71875 68.015625 
Q 9.71875 70.265625 11.34375 71.921875 
Q 12.984375 73.578125 15.28125 73.578125 
Q 17.53125 73.578125 19.15625 71.921875 
Q 20.796875 70.265625 20.796875 68.015625 
Q 20.796875 65.71875 19.1875 64.109375 
Q 17.578125 62.5 15.28125 62.5 
Q 12.984375 62.5 11.34375 64.109375 
Q 9.71875 65.71875 9.71875 68.015625 
z
M 21.1875 5.171875 
L 29.6875 5.171875 
L 29.6875 0 
L 3.609375 0 
L 3.609375 5.171875 
L 12.203125 5.171875 
L 12.203125 46.6875 
L 3.609375 46.6875 
L 3.609375 51.90625 
L 21.1875 51.90625 
z
" id="DejaVuSerif-105"/>
       <path d="M 51.8125 41.796875 
Q 54.390625 47.515625 58.421875 50.421875 
Q 62.453125 53.328125 67.828125 53.328125 
Q 75.984375 53.328125 79.984375 48.265625 
Q 83.984375 43.21875 83.984375 33.015625 
L 83.984375 5.171875 
L 92.09375 5.171875 
L 92.09375 0 
L 67.1875 0 
L 67.1875 5.171875 
L 75 5.171875 
L 75 31.984375 
Q 75 39.9375 72.65625 43.3125 
Q 70.3125 46.6875 64.890625 46.6875 
Q 58.890625 46.6875 55.734375 42.140625 
Q 52.59375 37.59375 52.59375 28.90625 
L 52.59375 5.171875 
L 60.40625 5.171875 
L 60.40625 0 
L 35.796875 0 
L 35.796875 5.171875 
L 43.609375 5.171875 
L 43.609375 32.328125 
Q 43.609375 40.09375 41.265625 43.390625 
Q 38.921875 46.6875 33.5 46.6875 
Q 27.484375 46.6875 24.328125 42.140625 
Q 21.1875 37.59375 21.1875 28.90625 
L 21.1875 5.171875 
L 29 5.171875 
L 29 0 
L 4.109375 0 
L 4.109375 5.171875 
L 12.203125 5.171875 
L 12.203125 46.78125 
L 3.609375 46.78125 
L 3.609375 51.90625 
L 21.1875 51.90625 
L 21.1875 42.671875 
Q 23.6875 47.859375 27.53125 50.59375 
Q 31.390625 53.328125 36.28125 53.328125 
Q 42.328125 53.328125 46.375 50.3125 
Q 50.4375 47.3125 51.8125 41.796875 
z
" id="DejaVuSerif-109"/>
       <path d="M 54.203125 25 
L 15.484375 25 
L 15.484375 24.609375 
Q 15.484375 14.109375 19.4375 8.765625 
Q 23.390625 3.421875 31.109375 3.421875 
Q 37.015625 3.421875 40.796875 6.515625 
Q 44.578125 9.625 46.09375 15.71875 
L 53.328125 15.71875 
Q 51.171875 7.171875 45.375 2.875 
Q 39.59375 -1.421875 30.171875 -1.421875 
Q 18.796875 -1.421875 11.890625 6.078125 
Q 4.984375 13.578125 4.984375 25.984375 
Q 4.984375 38.28125 11.765625 45.796875 
Q 18.5625 53.328125 29.59375 53.328125 
Q 41.359375 53.328125 47.65625 46.0625 
Q 53.953125 38.8125 54.203125 25 
z
M 43.609375 30.171875 
Q 43.3125 39.265625 39.765625 43.875 
Q 36.234375 48.484375 29.59375 48.484375 
Q 23.390625 48.484375 19.828125 43.84375 
Q 16.265625 39.203125 15.484375 30.171875 
z
" id="DejaVuSerif-101"/>
      </defs>
      <use xlink:href="#DejaVuSerif-84"/>
      <use x="66.699219" xlink:href="#DejaVuSerif-105"/>
      <use x="98.681641" xlink:href="#DejaVuSerif-109"/>
      <use x="193.505859" xlink:href="#DejaVuSerif-101"/>
     </g>
    </g>
   </g>
   <g id="matplotlib.axis_2">
    <g id="ytick_1">
     <g id="line2d_19">
      <path clip-path="url(#pde8b0eee71)" d="M 57.6 289.8432 
L 414.72 289.8432 
" style="fill:none;stroke:#b0b0b0;stroke-linecap:square;stroke-width:0.8;"/>
     </g>
     <g id="line2d_20">
      <defs>
       <path d="M 0 0 
L -3.5 0 
" id="m3ade1b0f85" style="stroke:#000000;stroke-width:0.8;"/>
      </defs>
      <g>
       <use style="stroke:#000000;stroke-width:0.8;" x="57.6" xlink:href="#m3ade1b0f85" y="289.8432"/>
      </g>
     </g>
     <g id="text_11">
      <!-- −0.2 -->
      <g transform="translate(26.317187 293.642419)scale(0.1 -0.1)">
       <defs>
        <path d="M 10.59375 35.296875 
L 73.1875 35.296875 
L 73.1875 27.390625 
L 10.59375 27.390625 
z
" id="DejaVuSerif-8722"/>
        <path d="M 9.421875 5.078125 
Q 9.421875 7.8125 11.28125 9.71875 
Q 13.140625 11.625 15.921875 11.625 
Q 18.609375 11.625 20.5 9.71875 
Q 22.40625 7.8125 22.40625 5.078125 
Q 22.40625 2.390625 20.5 0.484375 
Q 18.609375 -1.421875 15.921875 -1.421875 
Q 13.140625 -1.421875 11.28125 0.453125 
Q 9.421875 2.34375 9.421875 5.078125 
z
" id="DejaVuSerif-46"/>
       </defs>
       <use xlink:href="#DejaVuSerif-8722"/>
       <use x="83.789062" xlink:href="#DejaVuSerif-48"/>
       <use x="147.412109" xlink:href="#DejaVuSerif-46"/>
       <use x="179.199219" xlink:href="#DejaVuSerif-50"/>
      </g>
     </g>
    </g>
    <g id="ytick_2">
     <g id="line2d_21">
      <path clip-path="url(#pde8b0eee71)" d="M 57.6 254.3616 
L 414.72 254.3616 
" style="fill:none;stroke:#b0b0b0;stroke-linecap:square;stroke-width:0.8;"/>
     </g>
     <g id="line2d_22">
      <g>
       <use style="stroke:#000000;stroke-width:0.8;" x="57.6" xlink:href="#m3ade1b0f85" y="254.3616"/>
      </g>
     </g>
     <g id="text_12">
      <!-- −0.1 -->
      <g transform="translate(26.317187 258.160819)scale(0.1 -0.1)">
       <use xlink:href="#DejaVuSerif-8722"/>
       <use x="83.789062" xlink:href="#DejaVuSerif-48"/>
       <use x="147.412109" xlink:href="#DejaVuSerif-46"/>
       <use x="179.199219" xlink:href="#DejaVuSerif-49"/>
      </g>
     </g>
    </g>
    <g id="ytick_3">
     <g id="line2d_23">
      <path clip-path="url(#pde8b0eee71)" d="M 57.6 218.88 
L 414.72 218.88 
" style="fill:none;stroke:#b0b0b0;stroke-linecap:square;stroke-width:0.8;"/>
     </g>
     <g id="line2d_24">
      <g>
       <use style="stroke:#000000;stroke-width:0.8;" x="57.6" xlink:href="#m3ade1b0f85" y="218.88"/>
      </g>
     </g>
     <g id="text_13">
      <!-- 0.0 -->
      <g transform="translate(34.696875 222.679219)scale(0.1 -0.1)">
       <use xlink:href="#DejaVuSerif-48"/>
       <use x="63.623047" xlink:href="#DejaVuSerif-46"/>
       <use x="95.410156" xlink:href="#DejaVuSerif-48"/>
      </g>
     </g>
    </g>
    <g id="ytick_4">
     <g id="line2d_25">
      <path clip-path="url(#pde8b0eee71)" d="M 57.6 183.3984 
L 414.72 183.3984 
" style="fill:none;stroke:#b0b0b0;stroke-linecap:square;stroke-width:0.8;"/>
     </g>
     <g id="line2d_26">
      <g>
       <use style="stroke:#000000;stroke-width:0.8;" x="57.6" xlink:href="#m3ade1b0f85" y="183.3984"/>
      </g>
     </g>
     <g id="text_14">
      <!-- 0.1 -->
      <g transform="translate(34.696875 187.197619)scale(0.1 -0.1)">
       <use xlink:href="#DejaVuSerif-48"/>
       <use x="63.623047" xlink:href="#DejaVuSerif-46"/>
       <use x="95.410156" xlink:href="#DejaVuSerif-49"/>
      </g>
     </g>
    </g>
    <g id="ytick_5">
     <g id="line2d_27">
      <path clip-path="url(#pde8b0eee71)" d="M 57.6 147.9168 
L 414.72 147.9168 
" style="fill:none;stroke:#b0b0b0;stroke-linecap:square;stroke-width:0.8;"/>
     </g>
     <g id="line2d_28">
      <g>
       <use style="stroke:#000000;stroke-width:0.8;" x="57.6" xlink:href="#m3ade1b0f85" y="147.9168"/>
      </g>
     </g>
     <g id="text_15">
      <!-- 0.2 -->
      <g transform="translate(34.696875 151.716019)scale(0.1 -0.1)">
       <use xlink:href="#DejaVuSerif-48"/>
       <use x="63.623047" xlink:href="#DejaVuSerif-46"/>
       <use x="95.410156" xlink:href="#DejaVuSerif-50"/>
      </g>
     </g>
    </g>
    <g id="ytick_6">
     <g id="line2d_29">
      <path clip-path="url(#pde8b0eee71)" d="M 57.6 112.4352 
L 414.72 112.4352 
" style="fill:none;stroke:#b0b0b0;stroke-linecap:square;stroke-width:0.8;"/>
     </g>
     <g id="line2d_30">
      <g>
       <use style="stroke:#000000;stroke-width:0.8;" x="57.6" xlink:href="#m3ade1b0f85" y="112.4352"/>
      </g>
     </g>
     <g id="text_16">
      <!-- 0.3 -->
      <g transform="translate(34.696875 116.234419)scale(0.1 -0.1)">
       <defs>
        <path d="M 9.71875 69.828125 
Q 15.4375 71.96875 20.671875 73.09375 
Q 25.921875 74.21875 30.515625 74.21875 
Q 41.21875 74.21875 47.21875 69.59375 
Q 53.21875 64.984375 53.21875 56.78125 
Q 53.21875 50.203125 49.0625 45.78125 
Q 44.921875 41.359375 37.3125 39.796875 
Q 46.296875 38.53125 51.25 33.28125 
Q 56.203125 28.03125 56.203125 19.671875 
Q 56.203125 9.46875 49.34375 4.015625 
Q 42.484375 -1.421875 29.59375 -1.421875 
Q 23.875 -1.421875 18.421875 -0.1875 
Q 12.984375 1.03125 7.625 3.515625 
L 7.625 17.671875 
L 13.09375 17.671875 
Q 13.578125 10.640625 17.828125 7.03125 
Q 22.078125 3.421875 29.78125 3.421875 
Q 37.25 3.421875 41.578125 7.734375 
Q 45.90625 12.0625 45.90625 19.578125 
Q 45.90625 28.171875 41.453125 32.59375 
Q 37.015625 37.015625 28.421875 37.015625 
L 23.78125 37.015625 
L 23.78125 42 
L 26.21875 42 
Q 34.765625 42 39.03125 45.53125 
Q 43.3125 49.078125 43.3125 56.203125 
Q 43.3125 62.59375 39.796875 65.984375 
Q 36.28125 69.390625 29.6875 69.390625 
Q 23.09375 69.390625 19.453125 66.265625 
Q 15.828125 63.140625 15.1875 56.984375 
L 9.71875 56.984375 
z
" id="DejaVuSerif-51"/>
       </defs>
       <use xlink:href="#DejaVuSerif-48"/>
       <use x="63.623047" xlink:href="#DejaVuSerif-46"/>
       <use x="95.410156" xlink:href="#DejaVuSerif-51"/>
      </g>
     </g>
    </g>
    <g id="ytick_7">
     <g id="line2d_31">
      <path clip-path="url(#pde8b0eee71)" d="M 57.6 76.9536 
L 414.72 76.9536 
" style="fill:none;stroke:#b0b0b0;stroke-linecap:square;stroke-width:0.8;"/>
     </g>
     <g id="line2d_32">
      <g>
       <use style="stroke:#000000;stroke-width:0.8;" x="57.6" xlink:href="#m3ade1b0f85" y="76.9536"/>
      </g>
     </g>
     <g id="text_17">
      <!-- 0.4 -->
      <g transform="translate(34.696875 80.752819)scale(0.1 -0.1)">
       <defs>
        <path d="M 34.90625 24.703125 
L 34.90625 63.484375 
L 10.015625 24.703125 
z
M 56.390625 0 
L 23.1875 0 
L 23.1875 5.171875 
L 34.90625 5.171875 
L 34.90625 19.484375 
L 3.078125 19.484375 
L 3.078125 24.8125 
L 35.015625 74.21875 
L 44.671875 74.21875 
L 44.671875 24.703125 
L 58.59375 24.703125 
L 58.59375 19.484375 
L 44.671875 19.484375 
L 44.671875 5.171875 
L 56.390625 5.171875 
z
" id="DejaVuSerif-52"/>
       </defs>
       <use xlink:href="#DejaVuSerif-48"/>
       <use x="63.623047" xlink:href="#DejaVuSerif-46"/>
       <use x="95.410156" xlink:href="#DejaVuSerif-52"/>
      </g>
     </g>
    </g>
    <g id="ytick_8">
     <g id="line2d_33">
      <path clip-path="url(#pde8b0eee71)" d="M 57.6 41.472 
L 414.72 41.472 
" style="fill:none;stroke:#b0b0b0;stroke-linecap:square;stroke-width:0.8;"/>
     </g>
     <g id="line2d_34">
      <g>
       <use style="stroke:#000000;stroke-width:0.8;" x="57.6" xlink:href="#m3ade1b0f85" y="41.472"/>
      </g>
     </g>
     <g id="text_18">
      <!-- 0.5 -->
      <g transform="translate(34.696875 45.271219)scale(0.1 -0.1)">
       <use xlink:href="#DejaVuSerif-48"/>
       <use x="63.623047" xlink:href="#DejaVuSerif-46"/>
       <use x="95.410156" xlink:href="#DejaVuSerif-53"/>
      </g>
     </g>
    </g>
    <g id="text_19">
     <!-- Speed -->
     <g transform="translate(18.781719 201.295031)rotate(-90)scale(0.17 -0.17)">
      <defs>
       <path d="M 9.28125 3.515625 
L 9.28125 20.125 
L 14.890625 20.0625 
Q 15.140625 11.765625 19.703125 7.78125 
Q 24.265625 3.8125 33.59375 3.8125 
Q 42.28125 3.8125 46.84375 7.25 
Q 51.421875 10.6875 51.421875 17.28125 
Q 51.421875 22.5625 48.65625 25.390625 
Q 45.90625 28.21875 37.015625 30.90625 
L 27.390625 33.796875 
Q 16.9375 36.96875 12.671875 41.703125 
Q 8.40625 46.4375 8.40625 54.6875 
Q 8.40625 63.96875 14.984375 69.09375 
Q 21.578125 74.21875 33.5 74.21875 
Q 38.578125 74.21875 44.625 73.109375 
Q 50.6875 72.015625 57.515625 69.921875 
L 57.515625 54.390625 
L 52 54.390625 
Q 51.171875 62.109375 46.84375 65.546875 
Q 42.53125 69 33.6875 69 
Q 25.984375 69 21.953125 65.84375 
Q 17.921875 62.703125 17.921875 56.6875 
Q 17.921875 51.46875 20.9375 48.484375 
Q 23.96875 45.515625 33.796875 42.578125 
L 42.828125 39.890625 
Q 52.734375 36.921875 56.953125 32.296875 
Q 61.1875 27.6875 61.1875 19.921875 
Q 61.1875 9.328125 54.390625 3.953125 
Q 47.609375 -1.421875 34.1875 -1.421875 
Q 28.171875 -1.421875 21.9375 -0.1875 
Q 15.71875 1.03125 9.28125 3.515625 
z
" id="DejaVuSerif-83"/>
       <path d="M 20.515625 28.515625 
L 20.515625 23.390625 
Q 20.515625 14.015625 24.09375 9.109375 
Q 27.6875 4.203125 34.515625 4.203125 
Q 41.40625 4.203125 44.9375 9.71875 
Q 48.484375 15.234375 48.484375 25.984375 
Q 48.484375 36.765625 44.9375 42.234375 
Q 41.40625 47.703125 34.515625 47.703125 
Q 27.6875 47.703125 24.09375 42.765625 
Q 20.515625 37.84375 20.515625 28.515625 
z
M 11.53125 46.6875 
L 2.875 46.6875 
L 2.875 51.90625 
L 20.515625 51.90625 
L 20.515625 43.796875 
Q 23.140625 48.6875 27.21875 51 
Q 31.296875 53.328125 37.3125 53.328125 
Q 46.875 53.328125 52.921875 45.75 
Q 58.984375 38.1875 58.984375 25.984375 
Q 58.984375 13.765625 52.921875 6.171875 
Q 46.875 -1.421875 37.3125 -1.421875 
Q 31.296875 -1.421875 27.21875 0.890625 
Q 23.140625 3.21875 20.515625 8.109375 
L 20.515625 -15.578125 
L 29 -15.578125 
L 29 -20.796875 
L 2.875 -20.796875 
L 2.875 -15.578125 
L 11.53125 -15.578125 
z
" id="DejaVuSerif-112"/>
       <path d="M 52.484375 5.171875 
L 61.078125 5.171875 
L 61.078125 0 
L 43.5 0 
L 43.5 8.109375 
Q 40.875 3.21875 36.796875 0.890625 
Q 32.71875 -1.421875 26.703125 -1.421875 
Q 17.140625 -1.421875 11.0625 6.171875 
Q 4.984375 13.765625 4.984375 25.984375 
Q 4.984375 38.1875 11.03125 45.75 
Q 17.09375 53.328125 26.703125 53.328125 
Q 32.71875 53.328125 36.796875 51 
Q 40.875 48.6875 43.5 43.796875 
L 43.5 70.796875 
L 35.015625 70.796875 
L 35.015625 75.984375 
L 52.484375 75.984375 
z
M 43.5 23.390625 
L 43.5 28.515625 
Q 43.5 37.84375 39.90625 42.765625 
Q 36.328125 47.703125 29.5 47.703125 
Q 22.5625 47.703125 19.015625 42.234375 
Q 15.484375 36.765625 15.484375 25.984375 
Q 15.484375 15.234375 19.015625 9.71875 
Q 22.5625 4.203125 29.5 4.203125 
Q 36.328125 4.203125 39.90625 9.109375 
Q 43.5 14.015625 43.5 23.390625 
z
" id="DejaVuSerif-100"/>
      </defs>
      <use xlink:href="#DejaVuSerif-83"/>
      <use x="68.505859" xlink:href="#DejaVuSerif-112"/>
      <use x="132.519531" xlink:href="#DejaVuSerif-101"/>
      <use x="191.699219" xlink:href="#DejaVuSerif-101"/>
      <use x="250.878906" xlink:href="#DejaVuSerif-100"/>
     </g>
    </g>
   </g>
   <g id="LineCollection_1">
    <path clip-path="url(#pde8b0eee71)" d="M 73.832727 218.88 
L 398.487273 218.88 
" style="fill:none;stroke:#696969;stroke-width:1.5;"/>
   </g>
   <g id="line2d_35">
    <path clip-path="url(#pde8b0eee71)" d="M 73.832727 218.88 
L 75.060929 218.88 
L 75.191937 100.608 
L 75.748721 100.608 
L 75.879729 117.504 
L 76.010738 117.504 
L 76.158122 218.88 
L 78.205124 218.88 
L 78.336132 147.9168 
L 78.46714 147.9168 
L 78.614524 154.368 
L 79.154933 154.368 
L 79.285941 159.744 
L 79.842726 159.744 
L 79.973734 164.292923 
L 80.104742 218.88 
L 83.52733 218.88 
L 83.658338 179.456 
L 83.93673 179.456 
L 84.067738 181.530947 
L 84.608147 181.530947 
L 84.755531 183.3984 
L 85.295939 183.3984 
L 85.426948 185.088 
L 85.983732 185.088 
L 86.11474 186.624 
L 86.524141 186.624 
L 86.655149 218.88 
L 113.95397 218.88 
L 114.084978 230.144 
L 114.641763 230.144 
L 114.903779 229.968 
L 115.313179 229.968 
L 115.591572 229.797415 
L 116.000972 229.797415 
L 116.13198 229.632 
L 116.688765 229.632 
L 116.950781 229.471522 
L 117.360182 229.471522 
L 117.638574 229.315765 
L 118.047974 229.315765 
L 118.178982 229.164522 
L 118.735767 229.164522 
L 118.997783 229.0176 
L 119.407184 229.0176 
L 119.685576 228.874817 
L 120.094976 228.874817 
L 120.373369 228.736 
L 120.782769 228.736 
L 121.044786 228.600986 
L 121.454186 228.600986 
L 121.732578 228.469622 
L 122.141979 228.469622 
L 122.420371 228.34176 
L 122.829771 228.34176 
L 123.091788 228.217263 
L 123.501188 228.217263 
L 123.77958 228.096 
L 124.188981 228.096 
L 124.467373 227.977846 
L 124.598381 227.977846 
L 124.729389 218.88 
L 125.957591 218.88 
L 126.104975 227.7504 
L 126.923776 227.640889 
L 127.185792 227.534049 
L 128.282985 227.429783 
L 128.561378 227.328 
L 129.642195 227.228612 
L 129.920587 227.131535 
L 131.01778 227.03669 
L 131.279796 226.944 
L 132.37699 226.853393 
L 132.655382 226.7648 
L 133.736199 226.678154 
L 134.014591 226.593391 
L 135.111784 226.510452 
L 135.373801 226.429277 
L 135.652193 226.429277 
L 135.783201 233.978553 
L 136.061593 233.819621 
L 136.470994 233.819621 
L 136.602002 233.664 
L 137.158787 233.664 
L 137.420803 233.511588 
L 137.830203 233.511588 
L 138.108596 233.362286 
L 138.517996 233.362286 
L 138.796388 233.216 
L 139.205789 233.216 
L 139.467805 233.07264 
L 139.615189 233.07264 
L 139.746197 225.97632 
L 140.564998 225.906059 
L 140.843391 225.837176 
L 141.924208 225.769631 
L 142.333608 225.703385 
L 143.299793 225.6384 
L 143.561809 225.574642 
L 144.118594 225.512075 
L 144.249602 232.14415 
L 144.659003 232.14415 
L 144.937395 232.021333 
L 145.346795 232.021333 
L 145.608812 231.900771 
L 146.018212 231.900771 
L 146.296604 231.7824 
L 146.706005 231.7824 
L 146.984397 231.666162 
L 147.393798 231.666162 
L 147.655814 231.552 
L 148.065214 231.552 
L 148.343607 231.439858 
L 149.4408 231.329684 
L 149.702816 231.221426 
L 150.800009 231.115034 
L 151.078401 231.010462 
L 151.749818 230.907661 
L 151.897202 224.893831 
L 152.02821 224.893831 
L 152.159219 230.907661 
L 152.437611 230.806588 
L 153.534804 230.7072 
L 153.79682 230.609455 
L 154.894014 230.513311 
L 155.172406 230.418732 
L 156.253223 230.325677 
L 156.531615 230.234112 
L 157.628808 230.144 
L 157.890825 230.055307 
L 158.988018 229.968 
L 159.26641 229.882047 
L 159.528426 229.882047 
L 159.675811 235.38307 
L 159.937827 235.256123 
L 160.347227 235.256123 
L 160.62562 235.131115 
L 161.03502 235.131115 
L 161.313412 235.008 
L 161.722813 235.008 
L 161.984829 234.886737 
L 162.263221 234.886737 
L 162.39423 229.551158 
L 162.672622 229.471522 
L 163.769815 229.393067 
L 164.031831 229.315765 
L 165.129024 229.239591 
L 165.407417 229.164522 
L 166.488234 229.090532 
L 166.766626 229.0176 
L 166.897634 234.0864 
L 167.863819 233.978553 
L 168.125836 233.872225 
L 169.223029 233.767385 
L 169.501421 233.664 
L 170.582238 233.562041 
L 170.860631 233.461479 
L 171.957824 233.362286 
L 172.21984 233.264432 
L 172.367224 228.469622 
L 173.317033 228.405262 
L 173.595425 228.34176 
L 173.726434 228.34176 
L 173.857442 233.07264 
L 174.676243 232.978649 
L 174.954635 232.885895 
L 176.051828 232.794353 
L 176.313844 232.704 
L 177.411037 232.614813 
L 177.68943 232.526769 
L 178.770247 232.439847 
L 179.048639 232.354025 
L 180.145832 232.269283 
L 180.407849 232.1856 
L 180.555233 236.6208 
L 181.505042 236.510609 
L 181.63605 236.401778 
L 181.783434 232.021333 
L 182.864251 231.940712 
L 183.142644 231.861073 
L 184.239837 231.7824 
L 184.501853 231.704675 
L 185.599046 231.62788 
L 185.877438 231.552 
L 186.958256 231.477018 
L 187.10564 235.577224 
L 188.333841 235.479579 
L 188.595857 235.38307 
L 189.693051 235.287676 
L 189.971443 235.193379 
L 190.64286 235.10016 
L 190.790244 231.04512 
L 191.740053 230.976 
L 192.018445 230.907661 
L 193.099262 230.84009 
L 193.377654 230.773274 
L 193.508663 234.737698 
L 194.474848 234.6496 
L 194.736864 234.562475 
L 195.834057 234.476308 
L 196.112449 234.391082 
L 197.193267 234.306783 
L 197.471659 234.223395 
L 198.568852 234.140903 
L 198.830868 234.059294 
L 199.387653 233.978553 
L 199.518661 230.203915 
L 199.797053 230.203915 
L 199.928061 233.978553 
L 200.206454 233.898667 
L 201.287271 233.819621 
L 201.565663 233.741403 
L 202.662856 233.664 
L 202.924873 233.587399 
L 204.022066 233.511588 
L 204.300458 233.436554 
L 205.381275 233.362286 
L 205.659668 233.288772 
L 205.93806 233.288772 
L 206.069068 236.890964 
L 206.34746 236.8 
L 207.428277 236.70995 
L 207.70667 236.6208 
L 207.837678 233.07264 
L 208.803863 233.00203 
L 209.065879 232.932119 
L 210.163072 232.862897 
L 210.441465 232.794353 
L 211.522282 232.726478 
L 211.931682 232.659262 
L 212.079066 232.659262 
L 212.210075 236.104078 
L 212.488467 236.02087 
L 213.569284 235.938462 
L 213.847676 235.856842 
L 214.944869 235.776 
L 215.206886 235.695924 
L 215.894678 235.616604 
L 216.025687 232.269283 
L 216.991872 232.206423 
L 217.253888 232.14415 
L 218.220073 232.082456 
L 218.351081 235.38307 
L 218.629473 235.306667 
L 219.71029 235.230968 
L 219.988683 235.155963 
L 221.085876 235.081644 
L 221.347892 235.008 
L 222.445085 234.935023 
L 222.723478 234.862703 
L 223.804295 234.791031 
L 223.951679 234.72 
L 224.082687 231.552 
L 224.213695 231.552 
L 224.361079 234.72 
L 225.17988 234.6496 
L 225.441897 234.579823 
L 226.53909 234.510661 
L 226.817482 234.442105 
L 227.898299 234.374148 
L 228.3077 234.306783 
L 229.273885 234.24 
L 229.535901 234.173793 
L 230.223694 234.108155 
L 230.354702 237.153785 
L 231.320887 237.075692 
L 231.582903 236.998264 
L 231.861295 236.998264 
L 231.992304 233.978553 
L 232.401704 233.914576 
L 233.367889 233.851139 
L 233.629905 233.788235 
L 234.727098 233.725858 
L 235.005491 233.664 
L 236.086308 233.602656 
L 236.233692 236.474182 
L 237.461893 236.401778 
L 237.72391 236.329967 
L 238.821103 236.258743 
L 239.099495 236.188098 
L 239.639904 236.118024 
L 239.770912 233.24502 
L 240.868105 233.187097 
L 241.146497 233.129639 
L 241.965298 233.07264 
L 242.096306 235.911168 
L 242.915107 235.843315 
L 243.193499 235.776 
L 244.274317 235.709217 
L 244.683717 235.642961 
L 245.649902 235.577224 
L 245.911918 235.512 
L 247.009112 235.447284 
L 247.287504 235.38307 
L 247.418512 232.632558 
L 247.696904 232.632558 
L 247.827912 235.319351 
L 249.056114 235.256123 
L 249.334506 235.193379 
L 250.415323 235.131115 
L 250.824724 235.069323 
L 251.790909 235.008 
L 252.052925 234.94714 
L 253.150118 234.886737 
L 253.42851 234.826787 
L 253.559519 234.826787 
L 253.690527 237.484584 
L 254.509328 237.415164 
L 254.918728 237.34626 
L 255.066112 234.708223 
L 255.884913 234.6496 
L 256.146929 234.59141 
L 257.244122 234.533647 
L 257.522515 234.476308 
L 258.603332 234.419387 
L 259.012732 234.36288 
L 259.291125 234.36288 
L 259.422133 236.877913 
L 260.650334 236.812939 
L 261.059734 236.748432 
L 262.02592 236.684387 
L 262.287936 236.6208 
L 262.43532 236.6208 
L 262.566328 234.0864 
L 264.072922 233.978553 
L 264.482322 233.925201 
L 265.022731 233.872225 
L 265.153739 236.37093 
L 266.119924 236.309558 
L 266.38194 236.248615 
L 267.479133 236.188098 
L 267.757526 236.128 
L 268.838343 236.068318 
L 269.247743 236.009048 
L 269.935536 235.950186 
L 270.066544 233.511588 
L 270.623329 233.461479 
L 270.754337 235.891726 
L 271.573138 235.833666 
L 271.85153 235.776 
L 272.932347 235.718725 
L 273.341748 235.661838 
L 274.307933 235.605333 
L 274.717333 235.549208 
L 275.667142 235.493458 
L 276.076542 235.43808 
L 276.354935 235.43808 
L 276.485943 237.740651 
L 277.304744 237.678199 
L 277.435752 235.328424 
L 279.073354 235.220211 
L 279.482754 235.166636 
L 281.120356 235.060534 
L 281.529756 235.008 
L 281.939157 234.955806 
L 282.086541 237.25235 
L 283.167358 237.193084 
L 283.576758 237.134199 
L 284.542943 237.075692 
L 284.673952 237.017559 
L 284.80496 234.750364 
L 286.589946 234.6496 
L 286.999346 234.599696 
L 287.539755 234.550107 
L 287.670763 236.788694 
L 288.636948 236.732377 
L 289.046348 236.676414 
L 290.68395 236.565533 
L 291.09335 236.510609 
L 291.764767 236.456025 
L 291.912151 234.259022 
L 293.140353 234.164382 
L 293.271361 236.347865 
L 294.777954 236.241028 
L 295.187355 236.188098 
L 296.824957 236.0832 
L 297.234357 236.031227 
L 298.724575 235.928216 
L 298.871959 238.059243 
L 299.133975 238.00182 
L 299.281359 235.877174 
L 300.918961 235.776 
L 301.328361 235.725864 
L 302.965963 235.626478 
L 303.375364 235.577224 
L 304.325173 235.528258 
L 304.456181 237.554526 
L 306.241167 237.445953 
L 306.372175 235.38307 
L 306.781575 235.335235 
L 308.419177 235.240392 
L 308.828577 235.193379 
L 309.778386 235.146636 
L 309.92577 237.12768 
L 311.825389 237.024 
L 312.234789 236.972601 
L 313.46299 236.87067 
L 313.610374 234.871707 
L 315.247976 234.782118 
L 315.378984 234.737698 
L 315.509992 236.719911 
L 317.294978 236.6208 
L 317.704379 236.571657 
L 319.341981 236.474182 
L 319.751381 236.425846 
L 320.422798 236.377775 
L 320.570182 234.433578 
L 320.832198 234.391082 
L 320.979582 236.329967 
L 322.748192 236.23513 
L 323.157593 236.188098 
L 324.795194 236.094792 
L 325.204595 236.048516 
L 326.301788 235.956706 
L 326.432796 237.854118 
L 327.660997 237.753191 
L 327.792006 235.865872 
L 329.576991 235.776 
L 329.986392 235.73142 
L 331.623994 235.642961 
L 331.755002 235.599079 
L 331.88601 237.456754 
L 333.670996 237.36 
L 334.080396 237.312 
L 334.620805 237.264249 
L 334.751813 235.425824 
L 336.389415 235.340536 
L 336.798815 235.298221 
L 337.208216 235.256123 
L 337.3556 237.075692 
L 339.12421 236.982857 
L 339.53361 236.936794 
L 341.171212 236.845367 
L 341.580612 236.8 
L 341.71162 235.008 
L 342.677805 234.926955 
L 342.808813 236.70995 
L 344.577423 236.6208 
L 344.986824 236.576559 
L 346.624426 236.488734 
L 347.033826 236.445149 
L 348.131019 236.358621 
L 348.262027 238.106483 
L 348.54042 238.106483 
L 348.671428 236.358621 
L 349.080828 236.315676 
L 350.71843 236.230416 
L 351.12783 236.188098 
L 352.765432 236.104078 
L 353.174833 236.062373 
L 353.584233 236.02087 
L 353.731617 237.734957 
L 355.500227 237.644308 
L 355.631235 237.599309 
L 355.778619 235.897554 
L 357.547229 235.816325 
L 357.95663 235.776 
L 359.053823 235.695924 
L 359.184831 237.377517 
L 360.953441 237.290264 
L 361.362841 237.246946 
L 362.591043 237.160918 
L 362.738427 235.499016 
L 364.376028 235.421538 
L 364.507037 237.033377 
L 366.423031 236.949333 
L 366.832431 236.907603 
L 368.470033 236.824717 
L 368.879433 236.78356 
L 369.419842 236.74259 
L 369.55085 235.118719 
L 369.829242 235.118719 
L 369.96025 236.701808 
L 371.876244 236.6208 
L 372.285645 236.580571 
L 373.923247 236.500659 
L 374.332647 236.460973 
L 375.151448 236.421465 
L 375.282456 238.016144 
L 375.691856 237.973238 
L 376.379649 237.930523 
L 376.510657 236.34298 
L 378.017251 236.265194 
L 378.426651 236.22656 
L 380.064253 236.149805 
L 380.473654 236.111682 
L 380.604662 236.111682 
L 380.752046 237.678199 
L 381.161446 237.636793 
L 382.799048 237.554526 
L 383.208448 237.513663 
L 383.339457 235.960858 
L 384.84605 235.886431 
L 385.255451 235.849461 
L 385.926867 235.812651 
L 386.074252 237.351983 
L 387.564469 237.27219 
L 388.121254 237.232552 
L 389.611471 237.153785 
L 390.020872 237.114655 
L 390.168256 235.595101 
L 391.396457 235.523821 
L 391.527465 237.036896 
L 393.034059 236.959796 
L 393.443459 236.921492 
L 395.081061 236.845367 
L 395.490462 236.807545 
L 396.718663 236.732377 
L 396.849671 238.220075 
L 396.980679 236.732377 
L 398.487273 236.657837 
L 398.487273 236.657837 
" style="fill:none;stroke:#1f77b4;stroke-linecap:square;stroke-width:1.5;"/>
   </g>
   <g id="patch_3">
    <path d="M 57.6 307.584 
L 57.6 41.472 
" style="fill:none;stroke:#000000;stroke-linecap:square;stroke-linejoin:miter;stroke-width:0.8;"/>
   </g>
   <g id="patch_4">
    <path d="M 414.72 307.584 
L 414.72 41.472 
" style="fill:none;stroke:#000000;stroke-linecap:square;stroke-linejoin:miter;stroke-width:0.8;"/>
   </g>
   <g id="patch_5">
    <path d="M 57.6 307.584 
L 414.72 307.584 
" style="fill:none;stroke:#000000;stroke-linecap:square;stroke-linejoin:miter;stroke-width:0.8;"/>
   </g>
   <g id="patch_6">
    <path d="M 57.6 41.472 
L 414.72 41.472 
" style="fill:none;stroke:#000000;stroke-linecap:square;stroke-linejoin:miter;stroke-width:0.8;"/>
   </g>
  </g>
 </g>
 <defs>
  <clipPath id="pde8b0eee71">
   <rect height="266.112" width="357.12" x="57.6" y="41.472"/>
  </clipPath>
 </defs>
</svg>
