<?xml version="1.0" encoding="utf-8" standalone="no"?>
<!DOCTYPE svg PUBLIC "-//W3C//DTD SVG 1.1//EN"
  "http://www.w3.org/Graphics/SVG/1.1/DTD/svg11.dtd">
<!-- Created with matplotlib (https://matplotlib.org/) -->
<svg height="345.6pt" version="1.1" viewBox="0 0 460.8 345.6" width="460.8pt" xmlns="http://www.w3.org/2000/svg" xmlns:xlink="http://www.w3.org/1999/xlink">
 <metadata>
  <rdf:RDF xmlns:cc="http://creativecommons.org/ns#" xmlns:dc="http://purl.org/dc/elements/1.1/" xmlns:rdf="http://www.w3.org/1999/02/22-rdf-syntax-ns#">
   <cc:Work>
    <dc:type rdf:resource="http://purl.org/dc/dcmitype/StillImage"/>
    <dc:date>2022-08-29T00:33:46.100361</dc:date>
    <dc:format>image/svg+xml</dc:format>
    <dc:creator>
     <cc:Agent>
      <dc:title>Matplotlib v3.3.4, https://matplotlib.org/</dc:title>
     </cc:Agent>
    </dc:creator>
   </cc:Work>
  </rdf:RDF>
 </metadata>
 <defs>
  <style type="text/css">*{stroke-linecap:butt;stroke-linejoin:round;}</style>
 </defs>
 <g id="figure_1">
  <g id="patch_1">
   <path d="M 0 345.6 
L 460.8 345.6 
L 460.8 0 
L 0 0 
z
" style="fill:#ffffff;"/>
  </g>
  <g id="axes_1">
   <g id="patch_2">
    <path d="M 103.104 307.584 
L 369.216 307.584 
L 369.216 41.472 
L 103.104 41.472 
z
" style="fill:#ffffff;"/>
   </g>
   <g id="matplotlib.axis_1">
    <g id="xtick_1">
     <g id="line2d_1">
      <defs>
       <path d="M 0 0 
L 0 3.5 
" id="m9d36bac4c2" style="stroke:#000000;stroke-width:0.8;"/>
      </defs>
      <g>
       <use style="stroke:#000000;stroke-width:0.8;" x="105.572938" xlink:href="#m9d36bac4c2" y="307.584"/>
      </g>
     </g>
     <g id="text_1">
      <!-- 0 -->
      <g transform="translate(102.391688 322.182437)scale(0.1 -0.1)">
       <defs>
        <path d="M 31.78125 3.421875 
Q 39.265625 3.421875 42.96875 11.625 
Q 46.6875 19.828125 46.6875 36.375 
Q 46.6875 52.984375 42.96875 61.1875 
Q 39.265625 69.390625 31.78125 69.390625 
Q 24.3125 69.390625 20.59375 61.1875 
Q 16.890625 52.984375 16.890625 36.375 
Q 16.890625 19.828125 20.59375 11.625 
Q 24.3125 3.421875 31.78125 3.421875 
z
M 31.78125 -1.421875 
Q 19.921875 -1.421875 13.25 8.53125 
Q 6.59375 18.5 6.59375 36.375 
Q 6.59375 54.296875 13.25 64.25 
Q 19.921875 74.21875 31.78125 74.21875 
Q 43.703125 74.21875 50.34375 64.25 
Q 56.984375 54.296875 56.984375 36.375 
Q 56.984375 18.5 50.34375 8.53125 
Q 43.703125 -1.421875 31.78125 -1.421875 
z
" id="DejaVuSerif-48"/>
       </defs>
       <use xlink:href="#DejaVuSerif-48"/>
      </g>
     </g>
    </g>
    <g id="xtick_2">
     <g id="line2d_2">
      <g>
       <use style="stroke:#000000;stroke-width:0.8;" x="154.951695" xlink:href="#m9d36bac4c2" y="307.584"/>
      </g>
     </g>
     <g id="text_2">
      <!-- 10 -->
      <g transform="translate(148.589195 322.182437)scale(0.1 -0.1)">
       <defs>
        <path d="M 14.203125 0 
L 14.203125 5.171875 
L 26.90625 5.171875 
L 26.90625 65.828125 
L 12.203125 56.296875 
L 12.203125 62.703125 
L 29.984375 74.21875 
L 36.71875 74.21875 
L 36.71875 5.171875 
L 49.421875 5.171875 
L 49.421875 0 
z
" id="DejaVuSerif-49"/>
       </defs>
       <use xlink:href="#DejaVuSerif-49"/>
       <use x="63.623047" xlink:href="#DejaVuSerif-48"/>
      </g>
     </g>
    </g>
    <g id="xtick_3">
     <g id="line2d_3">
      <g>
       <use style="stroke:#000000;stroke-width:0.8;" x="204.330453" xlink:href="#m9d36bac4c2" y="307.584"/>
      </g>
     </g>
     <g id="text_3">
      <!-- 20 -->
      <g transform="translate(197.967953 322.182437)scale(0.1 -0.1)">
       <defs>
        <path d="M 12.796875 55.515625 
L 7.328125 55.515625 
L 7.328125 68.5 
Q 12.546875 71.296875 17.84375 72.75 
Q 23.140625 74.21875 28.21875 74.21875 
Q 39.59375 74.21875 46.1875 68.703125 
Q 52.78125 63.1875 52.78125 53.71875 
Q 52.78125 43.015625 37.84375 28.125 
Q 36.671875 27 36.078125 26.421875 
L 17.671875 8.015625 
L 48.09375 8.015625 
L 48.09375 17 
L 53.8125 17 
L 53.8125 0 
L 6.78125 0 
L 6.78125 5.328125 
L 28.90625 27.390625 
Q 36.234375 34.71875 39.359375 40.84375 
Q 42.484375 46.96875 42.484375 53.71875 
Q 42.484375 61.078125 38.640625 65.234375 
Q 34.8125 69.390625 28.078125 69.390625 
Q 21.09375 69.390625 17.28125 65.921875 
Q 13.484375 62.453125 12.796875 55.515625 
z
" id="DejaVuSerif-50"/>
       </defs>
       <use xlink:href="#DejaVuSerif-50"/>
       <use x="63.623047" xlink:href="#DejaVuSerif-48"/>
      </g>
     </g>
    </g>
    <g id="xtick_4">
     <g id="line2d_4">
      <g>
       <use style="stroke:#000000;stroke-width:0.8;" x="253.70921" xlink:href="#m9d36bac4c2" y="307.584"/>
      </g>
     </g>
     <g id="text_4">
      <!-- 30 -->
      <g transform="translate(247.34671 322.182437)scale(0.1 -0.1)">
       <defs>
        <path d="M 9.71875 69.828125 
Q 15.4375 71.96875 20.671875 73.09375 
Q 25.921875 74.21875 30.515625 74.21875 
Q 41.21875 74.21875 47.21875 69.59375 
Q 53.21875 64.984375 53.21875 56.78125 
Q 53.21875 50.203125 49.0625 45.78125 
Q 44.921875 41.359375 37.3125 39.796875 
Q 46.296875 38.53125 51.25 33.28125 
Q 56.203125 28.03125 56.203125 19.671875 
Q 56.203125 9.46875 49.34375 4.015625 
Q 42.484375 -1.421875 29.59375 -1.421875 
Q 23.875 -1.421875 18.421875 -0.1875 
Q 12.984375 1.03125 7.625 3.515625 
L 7.625 17.671875 
L 13.09375 17.671875 
Q 13.578125 10.640625 17.828125 7.03125 
Q 22.078125 3.421875 29.78125 3.421875 
Q 37.25 3.421875 41.578125 7.734375 
Q 45.90625 12.0625 45.90625 19.578125 
Q 45.90625 28.171875 41.453125 32.59375 
Q 37.015625 37.015625 28.421875 37.015625 
L 23.78125 37.015625 
L 23.78125 42 
L 26.21875 42 
Q 34.765625 42 39.03125 45.53125 
Q 43.3125 49.078125 43.3125 56.203125 
Q 43.3125 62.59375 39.796875 65.984375 
Q 36.28125 69.390625 29.6875 69.390625 
Q 23.09375 69.390625 19.453125 66.265625 
Q 15.828125 63.140625 15.1875 56.984375 
L 9.71875 56.984375 
z
" id="DejaVuSerif-51"/>
       </defs>
       <use xlink:href="#DejaVuSerif-51"/>
       <use x="63.623047" xlink:href="#DejaVuSerif-48"/>
      </g>
     </g>
    </g>
    <g id="xtick_5">
     <g id="line2d_5">
      <g>
       <use style="stroke:#000000;stroke-width:0.8;" x="303.087968" xlink:href="#m9d36bac4c2" y="307.584"/>
      </g>
     </g>
     <g id="text_5">
      <!-- 40 -->
      <g transform="translate(296.725468 322.182437)scale(0.1 -0.1)">
       <defs>
        <path d="M 34.90625 24.703125 
L 34.90625 63.484375 
L 10.015625 24.703125 
z
M 56.390625 0 
L 23.1875 0 
L 23.1875 5.171875 
L 34.90625 5.171875 
L 34.90625 19.484375 
L 3.078125 19.484375 
L 3.078125 24.8125 
L 35.015625 74.21875 
L 44.671875 74.21875 
L 44.671875 24.703125 
L 58.59375 24.703125 
L 58.59375 19.484375 
L 44.671875 19.484375 
L 44.671875 5.171875 
L 56.390625 5.171875 
z
" id="DejaVuSerif-52"/>
       </defs>
       <use xlink:href="#DejaVuSerif-52"/>
       <use x="63.623047" xlink:href="#DejaVuSerif-48"/>
      </g>
     </g>
    </g>
    <g id="xtick_6">
     <g id="line2d_6">
      <g>
       <use style="stroke:#000000;stroke-width:0.8;" x="352.466725" xlink:href="#m9d36bac4c2" y="307.584"/>
      </g>
     </g>
     <g id="text_6">
      <!-- 50 -->
      <g transform="translate(346.104225 322.182437)scale(0.1 -0.1)">
       <defs>
        <path d="M 50.296875 72.90625 
L 50.296875 64.890625 
L 16.890625 64.890625 
L 16.890625 44 
Q 19.4375 45.75 22.828125 46.625 
Q 26.21875 47.515625 30.421875 47.515625 
Q 42.234375 47.515625 49.0625 40.96875 
Q 55.90625 34.421875 55.90625 23.09375 
Q 55.90625 11.53125 49 5.046875 
Q 42.09375 -1.421875 29.59375 -1.421875 
Q 24.5625 -1.421875 19.28125 -0.1875 
Q 14.015625 1.03125 8.5 3.515625 
L 8.5 17.671875 
L 14.015625 17.671875 
Q 14.453125 10.75 18.421875 7.078125 
Q 22.40625 3.421875 29.59375 3.421875 
Q 37.3125 3.421875 41.453125 8.5 
Q 45.609375 13.578125 45.609375 23.09375 
Q 45.609375 32.5625 41.484375 37.609375 
Q 37.359375 42.671875 29.59375 42.671875 
Q 25.203125 42.671875 21.84375 41.109375 
Q 18.5 39.546875 15.921875 36.28125 
L 11.71875 36.28125 
L 11.71875 72.90625 
z
" id="DejaVuSerif-53"/>
       </defs>
       <use xlink:href="#DejaVuSerif-53"/>
       <use x="63.623047" xlink:href="#DejaVuSerif-48"/>
      </g>
     </g>
    </g>
   </g>
   <g id="matplotlib.axis_2">
    <g id="ytick_1">
     <g id="line2d_7">
      <defs>
       <path d="M 0 0 
L -3.5 0 
" id="mf8be7feef0" style="stroke:#000000;stroke-width:0.8;"/>
      </defs>
      <g>
       <use style="stroke:#000000;stroke-width:0.8;" x="103.104" xlink:href="#mf8be7feef0" y="305.115062"/>
      </g>
     </g>
     <g id="text_7">
      <!-- 0 -->
      <g transform="translate(89.7415 308.914281)scale(0.1 -0.1)">
       <use xlink:href="#DejaVuSerif-48"/>
      </g>
     </g>
    </g>
    <g id="ytick_2">
     <g id="line2d_8">
      <g>
       <use style="stroke:#000000;stroke-width:0.8;" x="103.104" xlink:href="#mf8be7feef0" y="255.736305"/>
      </g>
     </g>
     <g id="text_8">
      <!-- 10 -->
      <g transform="translate(83.379 259.535523)scale(0.1 -0.1)">
       <use xlink:href="#DejaVuSerif-49"/>
       <use x="63.623047" xlink:href="#DejaVuSerif-48"/>
      </g>
     </g>
    </g>
    <g id="ytick_3">
     <g id="line2d_9">
      <g>
       <use style="stroke:#000000;stroke-width:0.8;" x="103.104" xlink:href="#mf8be7feef0" y="206.357547"/>
      </g>
     </g>
     <g id="text_9">
      <!-- 20 -->
      <g transform="translate(83.379 210.156766)scale(0.1 -0.1)">
       <use xlink:href="#DejaVuSerif-50"/>
       <use x="63.623047" xlink:href="#DejaVuSerif-48"/>
      </g>
     </g>
    </g>
    <g id="ytick_4">
     <g id="line2d_10">
      <g>
       <use style="stroke:#000000;stroke-width:0.8;" x="103.104" xlink:href="#mf8be7feef0" y="156.97879"/>
      </g>
     </g>
     <g id="text_10">
      <!-- 30 -->
      <g transform="translate(83.379 160.778008)scale(0.1 -0.1)">
       <use xlink:href="#DejaVuSerif-51"/>
       <use x="63.623047" xlink:href="#DejaVuSerif-48"/>
      </g>
     </g>
    </g>
    <g id="ytick_5">
     <g id="line2d_11">
      <g>
       <use style="stroke:#000000;stroke-width:0.8;" x="103.104" xlink:href="#mf8be7feef0" y="107.600032"/>
      </g>
     </g>
     <g id="text_11">
      <!-- 40 -->
      <g transform="translate(83.379 111.399251)scale(0.1 -0.1)">
       <use xlink:href="#DejaVuSerif-52"/>
       <use x="63.623047" xlink:href="#DejaVuSerif-48"/>
      </g>
     </g>
    </g>
    <g id="ytick_6">
     <g id="line2d_12">
      <g>
       <use style="stroke:#000000;stroke-width:0.8;" x="103.104" xlink:href="#mf8be7feef0" y="58.221275"/>
      </g>
     </g>
     <g id="text_12">
      <!-- 50 -->
      <g transform="translate(83.379 62.020493)scale(0.1 -0.1)">
       <use xlink:href="#DejaVuSerif-53"/>
       <use x="63.623047" xlink:href="#DejaVuSerif-48"/>
      </g>
     </g>
    </g>
   </g>
   <g id="LineCollection_1">
    <path clip-path="url(#pf6a9d1eb4d)" d="M 232.420767 184.463914 
L 250.944 184.463914 
L 251.157103 184.250811 
L 251.157103 159.744 
L 250.944 159.530897 
L 226.437189 159.530897 
L 226.224086 159.744 
L 226.224086 179.43737 
L 226.224086 179.43737 
" style="fill:none;stroke:#4b0082;stroke-width:3;"/>
   </g>
   <g id="LineCollection_2">
    <path clip-path="url(#pf6a9d1eb4d)" d="M 249.144671 228.666034 
L 256.005189 228.618193 
L 256.537946 228.528622 
L 260.928491 228.469622 
L 260.928491 223.941189 
L 261.599135 223.916785 
L 270.656 223.842305 
L 270.889564 223.674811 
L 270.922378 218.863395 
L 275.717189 218.863395 
L 275.983568 218.706338 
L 280.610835 218.613622 
L 280.610835 214.085189 
L 280.778378 213.917645 
L 285.665905 213.818811 
L 285.665905 209.024 
L 285.822962 208.757622 
L 285.839568 204.196375 
L 290.368 204.196375 
L 290.535494 203.962811 
L 290.634378 194.235302 
L 295.429189 194.235302 
L 295.48819 194.106811 
L 295.577761 184.517189 
L 295.625601 183.718054 
L 295.577761 154.682811 
L 295.48819 154.150054 
L 295.429189 149.759509 
L 290.634378 149.759509 
L 290.609974 149.088865 
L 290.535494 140.032 
L 290.368 139.798436 
L 285.822962 139.765622 
L 285.822962 134.970811 
L 285.665905 134.704432 
L 285.573189 130.077165 
L 280.778378 130.077165 
L 280.610835 129.909622 
L 280.512 125.022095 
L 275.983568 125.022095 
L 275.717189 124.865038 
L 270.889564 124.848432 
L 270.889564 120.32 
L 270.656 120.152506 
L 260.928491 120.053622 
L 260.928491 115.258811 
L 260.8 115.19981 
L 251.210378 115.110239 
L 250.411243 115.062399 
L 221.642378 115.110239 
L 221.109622 115.19981 
L 216.452698 115.258811 
L 216.452698 120.053622 
L 215.782054 120.078026 
L 206.725189 120.152506 
L 206.491625 120.32 
L 206.458811 124.865038 
L 201.930378 124.865038 
L 201.664 125.022095 
L 196.770355 125.114811 
L 196.770355 129.909622 
L 196.602811 130.077165 
L 191.981662 130.176 
L 191.981662 134.704432 
L 191.824605 134.970811 
L 191.808 139.798436 
L 187.013189 139.798436 
L 186.845695 140.032 
L 186.746811 149.759509 
L 182.218378 149.759509 
L 182.159378 149.888 
L 182.069807 159.477622 
L 182.021966 160.276757 
L 182.069807 189.045622 
L 182.159378 189.578378 
L 182.218378 194.235302 
L 186.746811 194.235302 
L 186.771215 194.905946 
L 186.845695 203.962811 
L 187.013189 204.196375 
L 191.824605 204.229189 
L 191.824605 208.757622 
L 191.981662 209.024 
L 192.074378 213.917645 
L 196.602811 213.917645 
L 196.770355 214.085189 
L 196.869189 218.706338 
L 201.664 218.706338 
L 201.930378 218.863395 
L 206.491625 218.88 
L 206.491625 223.674811 
L 206.725189 223.842305 
L 216.452698 223.941189 
L 216.452698 228.469622 
L 216.581189 228.528622 
L 226.170811 228.618193 
L 226.969946 228.666034 
L 230.367546 228.666034 
L 230.367546 228.666034 
" style="fill:none;stroke:#800080;stroke-width:3;"/>
   </g>
   <g id="patch_3">
    <path d="M 103.104 307.584 
L 103.104 41.472 
" style="fill:none;stroke:#000000;stroke-linecap:square;stroke-linejoin:miter;stroke-width:0.8;"/>
   </g>
   <g id="patch_4">
    <path d="M 369.216 307.584 
L 369.216 41.472 
" style="fill:none;stroke:#000000;stroke-linecap:square;stroke-linejoin:miter;stroke-width:0.8;"/>
   </g>
   <g id="patch_5">
    <path d="M 103.104 307.584 
L 369.216 307.584 
" style="fill:none;stroke:#000000;stroke-linecap:square;stroke-linejoin:miter;stroke-width:0.8;"/>
   </g>
   <g id="patch_6">
    <path d="M 103.104 41.472 
L 369.216 41.472 
" style="fill:none;stroke:#000000;stroke-linecap:square;stroke-linejoin:miter;stroke-width:0.8;"/>
   </g>
   <g id="text_13">
    <g clip-path="url(#pf6a9d1eb4d)">
     <!-- 0 -->
     <g style="fill:#4b0082;" transform="translate(223.658769 186.183994)rotate(-343.169584)scale(0.1 -0.1)">
      <use xlink:href="#DejaVuSerif-48"/>
     </g>
    </g>
   </g>
   <g id="text_14">
    <g clip-path="url(#pf6a9d1eb4d)">
     <!-- 100 -->
     <g style="fill:#800080;" transform="translate(230.2155 231.462419)rotate(-0.065112)scale(0.1 -0.1)">
      <use xlink:href="#DejaVuSerif-49"/>
      <use x="63.623047" xlink:href="#DejaVuSerif-48"/>
      <use x="127.246094" xlink:href="#DejaVuSerif-48"/>
     </g>
    </g>
   </g>
  </g>
 </g>
 <defs>
  <clipPath id="pf6a9d1eb4d">
   <rect height="266.112" width="266.112" x="103.104" y="41.472"/>
  </clipPath>
 </defs>
</svg>
