<?xml version="1.0" encoding="utf-8" standalone="no"?>
<!DOCTYPE svg PUBLIC "-//W3C//DTD SVG 1.1//EN"
  "http://www.w3.org/Graphics/SVG/1.1/DTD/svg11.dtd">
<!-- Created with matplotlib (https://matplotlib.org/) -->
<svg height="345.6pt" version="1.1" viewBox="0 0 460.8 345.6" width="460.8pt" xmlns="http://www.w3.org/2000/svg" xmlns:xlink="http://www.w3.org/1999/xlink">
 <metadata>
  <rdf:RDF xmlns:cc="http://creativecommons.org/ns#" xmlns:dc="http://purl.org/dc/elements/1.1/" xmlns:rdf="http://www.w3.org/1999/02/22-rdf-syntax-ns#">
   <cc:Work>
    <dc:type rdf:resource="http://purl.org/dc/dcmitype/StillImage"/>
    <dc:date>2022-08-02T11:18:23.136561</dc:date>
    <dc:format>image/svg+xml</dc:format>
    <dc:creator>
     <cc:Agent>
      <dc:title>Matplotlib v3.3.4, https://matplotlib.org/</dc:title>
     </cc:Agent>
    </dc:creator>
   </cc:Work>
  </rdf:RDF>
 </metadata>
 <defs>
  <style type="text/css">*{stroke-linecap:butt;stroke-linejoin:round;}</style>
 </defs>
 <g id="figure_1">
  <g id="patch_1">
   <path d="M 0 345.6 
L 460.8 345.6 
L 460.8 0 
L 0 0 
z
" style="fill:#ffffff;"/>
  </g>
  <g id="axes_1">
   <g id="patch_2">
    <path d="M 57.6 307.584 
L 414.72 307.584 
L 414.72 41.472 
L 57.6 41.472 
z
" style="fill:#ffffff;"/>
   </g>
   <g id="matplotlib.axis_1">
    <g id="xtick_1">
     <g id="line2d_1">
      <path clip-path="url(#p7ccb1f813e)" d="M 72.692445 307.584 
L 72.692445 41.472 
" style="fill:none;stroke:#b0b0b0;stroke-linecap:square;stroke-width:0.8;"/>
     </g>
     <g id="line2d_2">
      <defs>
       <path d="M 0 0 
L 0 3.5 
" id="m3c4fb38992" style="stroke:#000000;stroke-width:0.8;"/>
      </defs>
      <g>
       <use style="stroke:#000000;stroke-width:0.8;" x="72.692445" xlink:href="#m3c4fb38992" y="307.584"/>
      </g>
     </g>
     <g id="text_1">
      <!-- 0 -->
      <g transform="translate(69.511195 322.182437)scale(0.1 -0.1)">
       <defs>
        <path d="M 31.78125 3.421875 
Q 39.265625 3.421875 42.96875 11.625 
Q 46.6875 19.828125 46.6875 36.375 
Q 46.6875 52.984375 42.96875 61.1875 
Q 39.265625 69.390625 31.78125 69.390625 
Q 24.3125 69.390625 20.59375 61.1875 
Q 16.890625 52.984375 16.890625 36.375 
Q 16.890625 19.828125 20.59375 11.625 
Q 24.3125 3.421875 31.78125 3.421875 
z
M 31.78125 -1.421875 
Q 19.921875 -1.421875 13.25 8.53125 
Q 6.59375 18.5 6.59375 36.375 
Q 6.59375 54.296875 13.25 64.25 
Q 19.921875 74.21875 31.78125 74.21875 
Q 43.703125 74.21875 50.34375 64.25 
Q 56.984375 54.296875 56.984375 36.375 
Q 56.984375 18.5 50.34375 8.53125 
Q 43.703125 -1.421875 31.78125 -1.421875 
z
" id="DejaVuSerif-48"/>
       </defs>
       <use xlink:href="#DejaVuSerif-48"/>
      </g>
     </g>
    </g>
    <g id="xtick_2">
     <g id="line2d_3">
      <path clip-path="url(#p7ccb1f813e)" d="M 126.991583 307.584 
L 126.991583 41.472 
" style="fill:none;stroke:#b0b0b0;stroke-linecap:square;stroke-width:0.8;"/>
     </g>
     <g id="line2d_4">
      <g>
       <use style="stroke:#000000;stroke-width:0.8;" x="126.991583" xlink:href="#m3c4fb38992" y="307.584"/>
      </g>
     </g>
     <g id="text_2">
      <!-- 100 -->
      <g transform="translate(117.447833 322.182437)scale(0.1 -0.1)">
       <defs>
        <path d="M 14.203125 0 
L 14.203125 5.171875 
L 26.90625 5.171875 
L 26.90625 65.828125 
L 12.203125 56.296875 
L 12.203125 62.703125 
L 29.984375 74.21875 
L 36.71875 74.21875 
L 36.71875 5.171875 
L 49.421875 5.171875 
L 49.421875 0 
z
" id="DejaVuSerif-49"/>
       </defs>
       <use xlink:href="#DejaVuSerif-49"/>
       <use x="63.623047" xlink:href="#DejaVuSerif-48"/>
       <use x="127.246094" xlink:href="#DejaVuSerif-48"/>
      </g>
     </g>
    </g>
    <g id="xtick_3">
     <g id="line2d_5">
      <path clip-path="url(#p7ccb1f813e)" d="M 181.290721 307.584 
L 181.290721 41.472 
" style="fill:none;stroke:#b0b0b0;stroke-linecap:square;stroke-width:0.8;"/>
     </g>
     <g id="line2d_6">
      <g>
       <use style="stroke:#000000;stroke-width:0.8;" x="181.290721" xlink:href="#m3c4fb38992" y="307.584"/>
      </g>
     </g>
     <g id="text_3">
      <!-- 200 -->
      <g transform="translate(171.746971 322.182437)scale(0.1 -0.1)">
       <defs>
        <path d="M 12.796875 55.515625 
L 7.328125 55.515625 
L 7.328125 68.5 
Q 12.546875 71.296875 17.84375 72.75 
Q 23.140625 74.21875 28.21875 74.21875 
Q 39.59375 74.21875 46.1875 68.703125 
Q 52.78125 63.1875 52.78125 53.71875 
Q 52.78125 43.015625 37.84375 28.125 
Q 36.671875 27 36.078125 26.421875 
L 17.671875 8.015625 
L 48.09375 8.015625 
L 48.09375 17 
L 53.8125 17 
L 53.8125 0 
L 6.78125 0 
L 6.78125 5.328125 
L 28.90625 27.390625 
Q 36.234375 34.71875 39.359375 40.84375 
Q 42.484375 46.96875 42.484375 53.71875 
Q 42.484375 61.078125 38.640625 65.234375 
Q 34.8125 69.390625 28.078125 69.390625 
Q 21.09375 69.390625 17.28125 65.921875 
Q 13.484375 62.453125 12.796875 55.515625 
z
" id="DejaVuSerif-50"/>
       </defs>
       <use xlink:href="#DejaVuSerif-50"/>
       <use x="63.623047" xlink:href="#DejaVuSerif-48"/>
       <use x="127.246094" xlink:href="#DejaVuSerif-48"/>
      </g>
     </g>
    </g>
    <g id="xtick_4">
     <g id="line2d_7">
      <path clip-path="url(#p7ccb1f813e)" d="M 235.589859 307.584 
L 235.589859 41.472 
" style="fill:none;stroke:#b0b0b0;stroke-linecap:square;stroke-width:0.8;"/>
     </g>
     <g id="line2d_8">
      <g>
       <use style="stroke:#000000;stroke-width:0.8;" x="235.589859" xlink:href="#m3c4fb38992" y="307.584"/>
      </g>
     </g>
     <g id="text_4">
      <!-- 300 -->
      <g transform="translate(226.046109 322.182437)scale(0.1 -0.1)">
       <defs>
        <path d="M 9.71875 69.828125 
Q 15.4375 71.96875 20.671875 73.09375 
Q 25.921875 74.21875 30.515625 74.21875 
Q 41.21875 74.21875 47.21875 69.59375 
Q 53.21875 64.984375 53.21875 56.78125 
Q 53.21875 50.203125 49.0625 45.78125 
Q 44.921875 41.359375 37.3125 39.796875 
Q 46.296875 38.53125 51.25 33.28125 
Q 56.203125 28.03125 56.203125 19.671875 
Q 56.203125 9.46875 49.34375 4.015625 
Q 42.484375 -1.421875 29.59375 -1.421875 
Q 23.875 -1.421875 18.421875 -0.1875 
Q 12.984375 1.03125 7.625 3.515625 
L 7.625 17.671875 
L 13.09375 17.671875 
Q 13.578125 10.640625 17.828125 7.03125 
Q 22.078125 3.421875 29.78125 3.421875 
Q 37.25 3.421875 41.578125 7.734375 
Q 45.90625 12.0625 45.90625 19.578125 
Q 45.90625 28.171875 41.453125 32.59375 
Q 37.015625 37.015625 28.421875 37.015625 
L 23.78125 37.015625 
L 23.78125 42 
L 26.21875 42 
Q 34.765625 42 39.03125 45.53125 
Q 43.3125 49.078125 43.3125 56.203125 
Q 43.3125 62.59375 39.796875 65.984375 
Q 36.28125 69.390625 29.6875 69.390625 
Q 23.09375 69.390625 19.453125 66.265625 
Q 15.828125 63.140625 15.1875 56.984375 
L 9.71875 56.984375 
z
" id="DejaVuSerif-51"/>
       </defs>
       <use xlink:href="#DejaVuSerif-51"/>
       <use x="63.623047" xlink:href="#DejaVuSerif-48"/>
       <use x="127.246094" xlink:href="#DejaVuSerif-48"/>
      </g>
     </g>
    </g>
    <g id="xtick_5">
     <g id="line2d_9">
      <path clip-path="url(#p7ccb1f813e)" d="M 289.888997 307.584 
L 289.888997 41.472 
" style="fill:none;stroke:#b0b0b0;stroke-linecap:square;stroke-width:0.8;"/>
     </g>
     <g id="line2d_10">
      <g>
       <use style="stroke:#000000;stroke-width:0.8;" x="289.888997" xlink:href="#m3c4fb38992" y="307.584"/>
      </g>
     </g>
     <g id="text_5">
      <!-- 400 -->
      <g transform="translate(280.345247 322.182437)scale(0.1 -0.1)">
       <defs>
        <path d="M 34.90625 24.703125 
L 34.90625 63.484375 
L 10.015625 24.703125 
z
M 56.390625 0 
L 23.1875 0 
L 23.1875 5.171875 
L 34.90625 5.171875 
L 34.90625 19.484375 
L 3.078125 19.484375 
L 3.078125 24.8125 
L 35.015625 74.21875 
L 44.671875 74.21875 
L 44.671875 24.703125 
L 58.59375 24.703125 
L 58.59375 19.484375 
L 44.671875 19.484375 
L 44.671875 5.171875 
L 56.390625 5.171875 
z
" id="DejaVuSerif-52"/>
       </defs>
       <use xlink:href="#DejaVuSerif-52"/>
       <use x="63.623047" xlink:href="#DejaVuSerif-48"/>
       <use x="127.246094" xlink:href="#DejaVuSerif-48"/>
      </g>
     </g>
    </g>
    <g id="xtick_6">
     <g id="line2d_11">
      <path clip-path="url(#p7ccb1f813e)" d="M 344.188135 307.584 
L 344.188135 41.472 
" style="fill:none;stroke:#b0b0b0;stroke-linecap:square;stroke-width:0.8;"/>
     </g>
     <g id="line2d_12">
      <g>
       <use style="stroke:#000000;stroke-width:0.8;" x="344.188135" xlink:href="#m3c4fb38992" y="307.584"/>
      </g>
     </g>
     <g id="text_6">
      <!-- 500 -->
      <g transform="translate(334.644385 322.182437)scale(0.1 -0.1)">
       <defs>
        <path d="M 50.296875 72.90625 
L 50.296875 64.890625 
L 16.890625 64.890625 
L 16.890625 44 
Q 19.4375 45.75 22.828125 46.625 
Q 26.21875 47.515625 30.421875 47.515625 
Q 42.234375 47.515625 49.0625 40.96875 
Q 55.90625 34.421875 55.90625 23.09375 
Q 55.90625 11.53125 49 5.046875 
Q 42.09375 -1.421875 29.59375 -1.421875 
Q 24.5625 -1.421875 19.28125 -0.1875 
Q 14.015625 1.03125 8.5 3.515625 
L 8.5 17.671875 
L 14.015625 17.671875 
Q 14.453125 10.75 18.421875 7.078125 
Q 22.40625 3.421875 29.59375 3.421875 
Q 37.3125 3.421875 41.453125 8.5 
Q 45.609375 13.578125 45.609375 23.09375 
Q 45.609375 32.5625 41.484375 37.609375 
Q 37.359375 42.671875 29.59375 42.671875 
Q 25.203125 42.671875 21.84375 41.109375 
Q 18.5 39.546875 15.921875 36.28125 
L 11.71875 36.28125 
L 11.71875 72.90625 
z
" id="DejaVuSerif-53"/>
       </defs>
       <use xlink:href="#DejaVuSerif-53"/>
       <use x="63.623047" xlink:href="#DejaVuSerif-48"/>
       <use x="127.246094" xlink:href="#DejaVuSerif-48"/>
      </g>
     </g>
    </g>
    <g id="xtick_7">
     <g id="line2d_13">
      <path clip-path="url(#p7ccb1f813e)" d="M 398.487273 307.584 
L 398.487273 41.472 
" style="fill:none;stroke:#b0b0b0;stroke-linecap:square;stroke-width:0.8;"/>
     </g>
     <g id="line2d_14">
      <g>
       <use style="stroke:#000000;stroke-width:0.8;" x="398.487273" xlink:href="#m3c4fb38992" y="307.584"/>
      </g>
     </g>
     <g id="text_7">
      <!-- 600 -->
      <g transform="translate(388.943523 322.182437)scale(0.1 -0.1)">
       <defs>
        <path d="M 32.71875 3.421875 
Q 39.59375 3.421875 43.296875 8.46875 
Q 47.015625 13.53125 47.015625 23 
Q 47.015625 32.46875 43.296875 37.515625 
Q 39.59375 42.578125 32.71875 42.578125 
Q 25.734375 42.578125 22.0625 37.6875 
Q 18.40625 32.8125 18.40625 23.578125 
Q 18.40625 13.875 22.109375 8.640625 
Q 25.828125 3.421875 32.71875 3.421875 
z
M 16.796875 40.140625 
Q 20.125 43.796875 24.3125 45.59375 
Q 28.515625 47.40625 33.796875 47.40625 
Q 44.671875 47.40625 51 40.859375 
Q 57.328125 34.328125 57.328125 23 
Q 57.328125 11.921875 50.515625 5.25 
Q 43.703125 -1.421875 32.328125 -1.421875 
Q 19.96875 -1.421875 13.328125 7.78125 
Q 6.6875 17 6.6875 34.078125 
Q 6.6875 53.21875 14.546875 63.71875 
Q 22.40625 74.21875 36.71875 74.21875 
Q 40.578125 74.21875 44.828125 73.484375 
Q 49.078125 72.75 53.515625 71.296875 
L 53.515625 59.28125 
L 48 59.28125 
Q 47.40625 64.203125 44.234375 66.796875 
Q 41.0625 69.390625 35.6875 69.390625 
Q 26.21875 69.390625 21.578125 62.203125 
Q 16.9375 55.03125 16.796875 40.140625 
z
" id="DejaVuSerif-54"/>
       </defs>
       <use xlink:href="#DejaVuSerif-54"/>
       <use x="63.623047" xlink:href="#DejaVuSerif-48"/>
       <use x="127.246094" xlink:href="#DejaVuSerif-48"/>
      </g>
     </g>
    </g>
    <g id="text_8">
     <!-- Time -->
     <g transform="translate(214.680234 341.179469)scale(0.17 -0.17)">
      <defs>
       <path d="M 19.09375 0 
L 19.09375 5.171875 
L 28.421875 5.171875 
L 28.421875 67.09375 
L 6.984375 67.09375 
L 6.984375 55.71875 
L 0.984375 55.71875 
L 0.984375 72.90625 
L 65.71875 72.90625 
L 65.71875 55.71875 
L 59.71875 55.71875 
L 59.71875 67.09375 
L 38.28125 67.09375 
L 38.28125 5.171875 
L 47.609375 5.171875 
L 47.609375 0 
z
" id="DejaVuSerif-84"/>
       <path d="M 9.71875 68.015625 
Q 9.71875 70.265625 11.34375 71.921875 
Q 12.984375 73.578125 15.28125 73.578125 
Q 17.53125 73.578125 19.15625 71.921875 
Q 20.796875 70.265625 20.796875 68.015625 
Q 20.796875 65.71875 19.1875 64.109375 
Q 17.578125 62.5 15.28125 62.5 
Q 12.984375 62.5 11.34375 64.109375 
Q 9.71875 65.71875 9.71875 68.015625 
z
M 21.1875 5.171875 
L 29.6875 5.171875 
L 29.6875 0 
L 3.609375 0 
L 3.609375 5.171875 
L 12.203125 5.171875 
L 12.203125 46.6875 
L 3.609375 46.6875 
L 3.609375 51.90625 
L 21.1875 51.90625 
z
" id="DejaVuSerif-105"/>
       <path d="M 51.8125 41.796875 
Q 54.390625 47.515625 58.421875 50.421875 
Q 62.453125 53.328125 67.828125 53.328125 
Q 75.984375 53.328125 79.984375 48.265625 
Q 83.984375 43.21875 83.984375 33.015625 
L 83.984375 5.171875 
L 92.09375 5.171875 
L 92.09375 0 
L 67.1875 0 
L 67.1875 5.171875 
L 75 5.171875 
L 75 31.984375 
Q 75 39.9375 72.65625 43.3125 
Q 70.3125 46.6875 64.890625 46.6875 
Q 58.890625 46.6875 55.734375 42.140625 
Q 52.59375 37.59375 52.59375 28.90625 
L 52.59375 5.171875 
L 60.40625 5.171875 
L 60.40625 0 
L 35.796875 0 
L 35.796875 5.171875 
L 43.609375 5.171875 
L 43.609375 32.328125 
Q 43.609375 40.09375 41.265625 43.390625 
Q 38.921875 46.6875 33.5 46.6875 
Q 27.484375 46.6875 24.328125 42.140625 
Q 21.1875 37.59375 21.1875 28.90625 
L 21.1875 5.171875 
L 29 5.171875 
L 29 0 
L 4.109375 0 
L 4.109375 5.171875 
L 12.203125 5.171875 
L 12.203125 46.78125 
L 3.609375 46.78125 
L 3.609375 51.90625 
L 21.1875 51.90625 
L 21.1875 42.671875 
Q 23.6875 47.859375 27.53125 50.59375 
Q 31.390625 53.328125 36.28125 53.328125 
Q 42.328125 53.328125 46.375 50.3125 
Q 50.4375 47.3125 51.8125 41.796875 
z
" id="DejaVuSerif-109"/>
       <path d="M 54.203125 25 
L 15.484375 25 
L 15.484375 24.609375 
Q 15.484375 14.109375 19.4375 8.765625 
Q 23.390625 3.421875 31.109375 3.421875 
Q 37.015625 3.421875 40.796875 6.515625 
Q 44.578125 9.625 46.09375 15.71875 
L 53.328125 15.71875 
Q 51.171875 7.171875 45.375 2.875 
Q 39.59375 -1.421875 30.171875 -1.421875 
Q 18.796875 -1.421875 11.890625 6.078125 
Q 4.984375 13.578125 4.984375 25.984375 
Q 4.984375 38.28125 11.765625 45.796875 
Q 18.5625 53.328125 29.59375 53.328125 
Q 41.359375 53.328125 47.65625 46.0625 
Q 53.953125 38.8125 54.203125 25 
z
M 43.609375 30.171875 
Q 43.3125 39.265625 39.765625 43.875 
Q 36.234375 48.484375 29.59375 48.484375 
Q 23.390625 48.484375 19.828125 43.84375 
Q 16.265625 39.203125 15.484375 30.171875 
z
" id="DejaVuSerif-101"/>
      </defs>
      <use xlink:href="#DejaVuSerif-84"/>
      <use x="66.699219" xlink:href="#DejaVuSerif-105"/>
      <use x="98.681641" xlink:href="#DejaVuSerif-109"/>
      <use x="193.505859" xlink:href="#DejaVuSerif-101"/>
     </g>
    </g>
   </g>
   <g id="matplotlib.axis_2">
    <g id="ytick_1">
     <g id="line2d_15">
      <path clip-path="url(#p7ccb1f813e)" d="M 57.6 295.488 
L 414.72 295.488 
" style="fill:none;stroke:#b0b0b0;stroke-linecap:square;stroke-width:0.8;"/>
     </g>
     <g id="line2d_16">
      <defs>
       <path d="M 0 0 
L -3.5 0 
" id="m1a7912b094" style="stroke:#000000;stroke-width:0.8;"/>
      </defs>
      <g>
       <use style="stroke:#000000;stroke-width:0.8;" x="57.6" xlink:href="#m1a7912b094" y="295.488"/>
      </g>
     </g>
     <g id="text_9">
      <!-- −0.25 -->
      <g transform="translate(19.954687 299.287219)scale(0.1 -0.1)">
       <defs>
        <path d="M 10.59375 35.296875 
L 73.1875 35.296875 
L 73.1875 27.390625 
L 10.59375 27.390625 
z
" id="DejaVuSerif-8722"/>
        <path d="M 9.421875 5.078125 
Q 9.421875 7.8125 11.28125 9.71875 
Q 13.140625 11.625 15.921875 11.625 
Q 18.609375 11.625 20.5 9.71875 
Q 22.40625 7.8125 22.40625 5.078125 
Q 22.40625 2.390625 20.5 0.484375 
Q 18.609375 -1.421875 15.921875 -1.421875 
Q 13.140625 -1.421875 11.28125 0.453125 
Q 9.421875 2.34375 9.421875 5.078125 
z
" id="DejaVuSerif-46"/>
       </defs>
       <use xlink:href="#DejaVuSerif-8722"/>
       <use x="83.789062" xlink:href="#DejaVuSerif-48"/>
       <use x="147.412109" xlink:href="#DejaVuSerif-46"/>
       <use x="179.199219" xlink:href="#DejaVuSerif-50"/>
       <use x="242.822266" xlink:href="#DejaVuSerif-53"/>
      </g>
     </g>
    </g>
    <g id="ytick_2">
     <g id="line2d_17">
      <path clip-path="url(#p7ccb1f813e)" d="M 57.6 247.104 
L 414.72 247.104 
" style="fill:none;stroke:#b0b0b0;stroke-linecap:square;stroke-width:0.8;"/>
     </g>
     <g id="line2d_18">
      <g>
       <use style="stroke:#000000;stroke-width:0.8;" x="57.6" xlink:href="#m1a7912b094" y="247.104"/>
      </g>
     </g>
     <g id="text_10">
      <!-- −0.20 -->
      <g transform="translate(19.954687 250.903219)scale(0.1 -0.1)">
       <use xlink:href="#DejaVuSerif-8722"/>
       <use x="83.789062" xlink:href="#DejaVuSerif-48"/>
       <use x="147.412109" xlink:href="#DejaVuSerif-46"/>
       <use x="179.199219" xlink:href="#DejaVuSerif-50"/>
       <use x="242.822266" xlink:href="#DejaVuSerif-48"/>
      </g>
     </g>
    </g>
    <g id="ytick_3">
     <g id="line2d_19">
      <path clip-path="url(#p7ccb1f813e)" d="M 57.6 198.72 
L 414.72 198.72 
" style="fill:none;stroke:#b0b0b0;stroke-linecap:square;stroke-width:0.8;"/>
     </g>
     <g id="line2d_20">
      <g>
       <use style="stroke:#000000;stroke-width:0.8;" x="57.6" xlink:href="#m1a7912b094" y="198.72"/>
      </g>
     </g>
     <g id="text_11">
      <!-- −0.15 -->
      <g transform="translate(19.954687 202.519219)scale(0.1 -0.1)">
       <use xlink:href="#DejaVuSerif-8722"/>
       <use x="83.789062" xlink:href="#DejaVuSerif-48"/>
       <use x="147.412109" xlink:href="#DejaVuSerif-46"/>
       <use x="179.199219" xlink:href="#DejaVuSerif-49"/>
       <use x="242.822266" xlink:href="#DejaVuSerif-53"/>
      </g>
     </g>
    </g>
    <g id="ytick_4">
     <g id="line2d_21">
      <path clip-path="url(#p7ccb1f813e)" d="M 57.6 150.336 
L 414.72 150.336 
" style="fill:none;stroke:#b0b0b0;stroke-linecap:square;stroke-width:0.8;"/>
     </g>
     <g id="line2d_22">
      <g>
       <use style="stroke:#000000;stroke-width:0.8;" x="57.6" xlink:href="#m1a7912b094" y="150.336"/>
      </g>
     </g>
     <g id="text_12">
      <!-- −0.10 -->
      <g transform="translate(19.954687 154.135219)scale(0.1 -0.1)">
       <use xlink:href="#DejaVuSerif-8722"/>
       <use x="83.789062" xlink:href="#DejaVuSerif-48"/>
       <use x="147.412109" xlink:href="#DejaVuSerif-46"/>
       <use x="179.199219" xlink:href="#DejaVuSerif-49"/>
       <use x="242.822266" xlink:href="#DejaVuSerif-48"/>
      </g>
     </g>
    </g>
    <g id="ytick_5">
     <g id="line2d_23">
      <path clip-path="url(#p7ccb1f813e)" d="M 57.6 101.952 
L 414.72 101.952 
" style="fill:none;stroke:#b0b0b0;stroke-linecap:square;stroke-width:0.8;"/>
     </g>
     <g id="line2d_24">
      <g>
       <use style="stroke:#000000;stroke-width:0.8;" x="57.6" xlink:href="#m1a7912b094" y="101.952"/>
      </g>
     </g>
     <g id="text_13">
      <!-- −0.05 -->
      <g transform="translate(19.954687 105.751219)scale(0.1 -0.1)">
       <use xlink:href="#DejaVuSerif-8722"/>
       <use x="83.789062" xlink:href="#DejaVuSerif-48"/>
       <use x="147.412109" xlink:href="#DejaVuSerif-46"/>
       <use x="179.199219" xlink:href="#DejaVuSerif-48"/>
       <use x="242.822266" xlink:href="#DejaVuSerif-53"/>
      </g>
     </g>
    </g>
    <g id="ytick_6">
     <g id="line2d_25">
      <path clip-path="url(#p7ccb1f813e)" d="M 57.6 53.568 
L 414.72 53.568 
" style="fill:none;stroke:#b0b0b0;stroke-linecap:square;stroke-width:0.8;"/>
     </g>
     <g id="line2d_26">
      <g>
       <use style="stroke:#000000;stroke-width:0.8;" x="57.6" xlink:href="#m1a7912b094" y="53.568"/>
      </g>
     </g>
     <g id="text_14">
      <!-- 0.00 -->
      <g transform="translate(28.334375 57.367219)scale(0.1 -0.1)">
       <use xlink:href="#DejaVuSerif-48"/>
       <use x="63.623047" xlink:href="#DejaVuSerif-46"/>
       <use x="95.410156" xlink:href="#DejaVuSerif-48"/>
       <use x="159.033203" xlink:href="#DejaVuSerif-48"/>
      </g>
     </g>
    </g>
    <g id="text_15">
     <!-- Speed -->
     <g transform="translate(12.419219 201.295031)rotate(-90)scale(0.17 -0.17)">
      <defs>
       <path d="M 9.28125 3.515625 
L 9.28125 20.125 
L 14.890625 20.0625 
Q 15.140625 11.765625 19.703125 7.78125 
Q 24.265625 3.8125 33.59375 3.8125 
Q 42.28125 3.8125 46.84375 7.25 
Q 51.421875 10.6875 51.421875 17.28125 
Q 51.421875 22.5625 48.65625 25.390625 
Q 45.90625 28.21875 37.015625 30.90625 
L 27.390625 33.796875 
Q 16.9375 36.96875 12.671875 41.703125 
Q 8.40625 46.4375 8.40625 54.6875 
Q 8.40625 63.96875 14.984375 69.09375 
Q 21.578125 74.21875 33.5 74.21875 
Q 38.578125 74.21875 44.625 73.109375 
Q 50.6875 72.015625 57.515625 69.921875 
L 57.515625 54.390625 
L 52 54.390625 
Q 51.171875 62.109375 46.84375 65.546875 
Q 42.53125 69 33.6875 69 
Q 25.984375 69 21.953125 65.84375 
Q 17.921875 62.703125 17.921875 56.6875 
Q 17.921875 51.46875 20.9375 48.484375 
Q 23.96875 45.515625 33.796875 42.578125 
L 42.828125 39.890625 
Q 52.734375 36.921875 56.953125 32.296875 
Q 61.1875 27.6875 61.1875 19.921875 
Q 61.1875 9.328125 54.390625 3.953125 
Q 47.609375 -1.421875 34.1875 -1.421875 
Q 28.171875 -1.421875 21.9375 -0.1875 
Q 15.71875 1.03125 9.28125 3.515625 
z
" id="DejaVuSerif-83"/>
       <path d="M 20.515625 28.515625 
L 20.515625 23.390625 
Q 20.515625 14.015625 24.09375 9.109375 
Q 27.6875 4.203125 34.515625 4.203125 
Q 41.40625 4.203125 44.9375 9.71875 
Q 48.484375 15.234375 48.484375 25.984375 
Q 48.484375 36.765625 44.9375 42.234375 
Q 41.40625 47.703125 34.515625 47.703125 
Q 27.6875 47.703125 24.09375 42.765625 
Q 20.515625 37.84375 20.515625 28.515625 
z
M 11.53125 46.6875 
L 2.875 46.6875 
L 2.875 51.90625 
L 20.515625 51.90625 
L 20.515625 43.796875 
Q 23.140625 48.6875 27.21875 51 
Q 31.296875 53.328125 37.3125 53.328125 
Q 46.875 53.328125 52.921875 45.75 
Q 58.984375 38.1875 58.984375 25.984375 
Q 58.984375 13.765625 52.921875 6.171875 
Q 46.875 -1.421875 37.3125 -1.421875 
Q 31.296875 -1.421875 27.21875 0.890625 
Q 23.140625 3.21875 20.515625 8.109375 
L 20.515625 -15.578125 
L 29 -15.578125 
L 29 -20.796875 
L 2.875 -20.796875 
L 2.875 -15.578125 
L 11.53125 -15.578125 
z
" id="DejaVuSerif-112"/>
       <path d="M 52.484375 5.171875 
L 61.078125 5.171875 
L 61.078125 0 
L 43.5 0 
L 43.5 8.109375 
Q 40.875 3.21875 36.796875 0.890625 
Q 32.71875 -1.421875 26.703125 -1.421875 
Q 17.140625 -1.421875 11.0625 6.171875 
Q 4.984375 13.765625 4.984375 25.984375 
Q 4.984375 38.1875 11.03125 45.75 
Q 17.09375 53.328125 26.703125 53.328125 
Q 32.71875 53.328125 36.796875 51 
Q 40.875 48.6875 43.5 43.796875 
L 43.5 70.796875 
L 35.015625 70.796875 
L 35.015625 75.984375 
L 52.484375 75.984375 
z
M 43.5 23.390625 
L 43.5 28.515625 
Q 43.5 37.84375 39.90625 42.765625 
Q 36.328125 47.703125 29.5 47.703125 
Q 22.5625 47.703125 19.015625 42.234375 
Q 15.484375 36.765625 15.484375 25.984375 
Q 15.484375 15.234375 19.015625 9.71875 
Q 22.5625 4.203125 29.5 4.203125 
Q 36.328125 4.203125 39.90625 9.109375 
Q 43.5 14.015625 43.5 23.390625 
z
" id="DejaVuSerif-100"/>
      </defs>
      <use xlink:href="#DejaVuSerif-83"/>
      <use x="68.505859" xlink:href="#DejaVuSerif-112"/>
      <use x="132.519531" xlink:href="#DejaVuSerif-101"/>
      <use x="191.699219" xlink:href="#DejaVuSerif-101"/>
      <use x="250.878906" xlink:href="#DejaVuSerif-100"/>
     </g>
    </g>
   </g>
   <g id="line2d_27">
    <path clip-path="url(#p7ccb1f813e)" d="M 73.832727 53.568 
L 73.995625 295.488 
L 74.049924 295.488 
L 74.104223 247.104 
L 74.26712 53.568 
L 74.592915 53.568 
L 74.755813 191.808 
L 74.864411 191.808 
L 75.027308 174.528 
L 75.190206 53.568 
L 75.353103 161.088 
L 75.407402 161.088 
L 75.5703 150.336 
L 75.678898 150.336 
L 75.733197 141.538909 
L 75.787496 229.509818 
L 75.841795 141.538909 
L 75.950394 141.538909 
L 76.113291 134.208 
L 76.221889 134.208 
L 76.276188 128.004923 
L 76.439086 202.441846 
L 76.601983 122.688 
L 76.764881 122.688 
L 76.927778 182.592 
L 77.036376 182.592 
L 77.144975 174.528 
L 77.307872 114.048 
L 77.47077 167.412706 
L 77.579368 167.412706 
L 77.742265 161.088 
L 77.796564 107.328 
L 77.850863 161.088 
L 78.013761 155.429053 
L 78.122359 155.429053 
L 78.285257 150.336 
L 78.393855 198.72 
L 78.448154 191.808 
L 78.611051 145.728 
L 78.665351 145.728 
L 78.773949 141.538909 
L 78.936846 185.524364 
L 79.045445 179.78713 
L 79.208342 137.714087 
L 79.262641 134.208 
L 79.425538 174.528 
L 79.479838 174.528 
L 79.642735 169.6896 
L 79.751333 130.9824 
L 79.914231 165.223385 
L 80.022829 165.223385 
L 80.185726 161.088 
L 80.294325 161.088 
L 80.457222 157.248 
L 80.56582 157.248 
L 80.728718 153.672828 
L 80.837316 187.041103 
L 80.891615 182.592 
L 81.054513 150.336 
L 81.108812 150.336 
L 81.21741 147.214452 
L 81.380307 178.429935 
L 81.488906 174.528 
L 81.651803 144.288 
L 81.706102 141.538909 
L 81.869 170.862545 
L 81.923299 170.862545 
L 82.086196 167.412706 
L 82.194795 138.951529 
L 82.357692 164.16 
L 82.46629 164.16 
L 82.629188 161.088 
L 82.737786 161.088 
L 82.900683 158.182054 
L 83.009282 158.182054 
L 83.172179 155.429053 
L 83.280777 180.894316 
L 83.335076 177.629538 
L 83.497974 152.817231 
L 83.552273 152.817231 
L 83.660871 150.336 
L 83.823769 174.528 
L 83.932367 171.577756 
L 84.095264 147.975805 
L 84.149563 145.728 
L 84.312461 168.768 
L 84.36676 168.768 
L 84.529657 166.08893 
L 84.638256 143.584744 
L 84.801153 163.531636 
L 84.909751 163.531636 
L 85.072649 161.088 
L 85.181247 161.088 
L 85.344145 158.750609 
L 85.452743 158.750609 
L 85.561341 156.512681 
L 85.724238 177.101617 
L 85.778538 174.528 
L 85.941435 154.368 
L 85.995734 154.368 
L 86.050033 152.310857 
L 86.212931 172.059429 
L 86.26723 172.059429 
L 86.375828 169.6896 
L 86.538726 150.336 
L 86.701623 167.412706 
L 86.810221 167.412706 
L 86.973119 165.223385 
L 87.027418 146.614154 
L 87.081717 165.223385 
L 87.244614 163.116679 
L 87.353213 163.116679 
L 87.51611 161.088 
L 87.570409 179.008 
L 87.624708 161.088 
L 87.787606 159.133091 
L 87.896204 159.133091 
L 88.004802 157.248 
L 88.1677 174.528 
L 88.221999 172.405895 
L 88.384896 155.429053 
L 88.439195 155.429053 
L 88.493495 153.672828 
L 88.656392 170.356966 
L 88.710691 170.356966 
L 88.76499 168.377492 
L 88.927888 151.976136 
L 88.982187 151.976136 
L 89.145084 166.464 
L 89.253682 166.464 
L 89.362281 164.613246 
L 89.470879 148.749639 
L 89.525178 164.613246 
L 89.579477 162.822194 
L 89.796674 162.822194 
L 89.959571 161.088 
L 90.06817 161.088 
L 90.231067 159.408 
L 90.339665 159.408 
L 90.393964 157.779692 
L 90.556862 172.667077 
L 90.719759 156.200727 
L 90.882657 156.200727 
L 91.045554 169.111881 
L 91.154152 169.111881 
L 91.208451 167.412706 
L 91.371349 153.182118 
L 91.425648 167.412706 
L 91.479947 165.762783 
L 91.697144 165.762783 
L 91.805742 164.16 
L 91.860041 150.336 
L 91.91434 164.16 
L 91.968639 164.16 
L 92.131537 162.602366 
L 92.240135 162.602366 
L 92.348733 161.088 
L 92.403032 174.528 
L 92.457332 161.088 
L 92.511631 161.088 
L 92.674528 159.615123 
L 92.783126 159.615123 
L 92.837426 158.182054 
L 93.000323 171.258811 
L 93.16322 156.7872 
L 93.326118 156.7872 
L 93.489015 168.161684 
L 93.597613 168.161684 
L 93.651913 166.673455 
L 93.81481 154.106182 
L 93.869109 166.673455 
L 93.923408 165.223385 
L 94.140605 165.223385 
L 94.249203 163.810025 
L 94.303502 151.560911 
L 94.357801 163.810025 
L 94.412101 163.810025 
L 94.574998 162.432 
L 94.683596 162.432 
L 94.737895 161.088 
L 94.792194 173.034667 
L 94.846494 161.088 
L 94.955092 161.088 
L 95.117989 159.77678 
L 95.226588 159.77678 
L 95.389485 170.155952 
L 95.552382 157.248 
L 95.71528 157.248 
L 95.769579 168.768 
L 95.823878 167.412706 
L 95.986776 167.412706 
L 96.149673 154.836837 
L 96.203972 154.836837 
L 96.31257 166.08893 
L 96.475468 164.795586 
L 96.584066 164.795586 
L 96.638365 163.531636 
L 96.692664 152.535273 
L 96.746963 163.531636 
L 96.855562 163.531636 
L 97.018459 162.29609 
L 97.127057 162.29609 
L 97.181357 161.088 
L 97.235656 171.84 
L 97.289955 161.088 
L 97.398553 161.088 
L 97.561451 159.906462 
L 97.670049 159.906462 
L 97.832946 169.26887 
L 97.995844 157.619613 
L 98.158741 157.619613 
L 98.21304 168.024774 
L 98.267339 166.807149 
L 98.430237 166.807149 
L 98.593134 155.429053 
L 98.756032 165.615158 
L 98.918929 164.448 
L 99.027527 164.448 
L 99.190425 163.304907 
L 99.299023 163.304907 
L 99.46192 162.185143 
L 99.570519 162.185143 
L 99.679117 170.862545 
L 99.842014 161.088 
L 100.004912 160.0128 
L 100.059211 160.0128 
L 100.11351 169.6896 
L 100.167809 168.539881 
L 100.222108 168.539881 
L 100.385006 158.958891 
L 100.547903 157.925647 
L 100.656501 167.412706 
L 100.819399 166.307417 
L 100.982296 155.918769 
L 101.036595 155.918769 
L 101.199493 165.223385 
L 101.36239 164.16 
L 101.416689 164.16 
L 101.525288 153.987623 
L 101.688185 163.116679 
L 101.742484 163.116679 
L 101.905382 162.09286 
L 102.01398 162.09286 
L 102.068279 170.048 
L 102.231176 161.088 
L 102.285476 161.088 
L 102.448373 160.101578 
L 102.556971 168.979376 
L 102.665569 167.930182 
L 102.828467 159.133091 
L 102.937065 158.182054 
L 103.099963 166.899892 
L 103.26286 165.888 
L 103.425757 156.330478 
L 103.588655 164.894018 
L 103.642954 164.894018 
L 103.805851 163.917474 
L 103.860151 163.917474 
L 103.91445 155.429053 
L 103.968749 162.957913 
L 104.185945 162.957913 
L 104.348843 162.014897 
L 104.403142 162.014897 
L 104.457441 170.356966 
L 104.51174 169.358769 
L 104.674638 161.088 
L 104.728937 161.088 
L 104.891834 160.176814 
L 105.000432 168.377492 
L 105.054732 167.412706 
L 105.217629 159.280941 
L 105.271928 159.280941 
L 105.380526 158.4 
L 105.543424 166.464 
L 105.652022 165.530975 
L 105.814919 157.53362 
L 105.869219 156.681443 
L 106.032116 164.613246 
L 106.086415 164.613246 
L 106.249313 163.710439 
L 106.357911 155.843122 
L 106.520808 162.822194 
L 106.629407 162.822194 
L 106.792304 161.94816 
L 106.846603 169.6896 
L 106.900902 161.94816 
L 107.0638 161.088 
L 107.172398 161.088 
L 107.280996 160.241386 
L 107.443894 167.860913 
L 107.498193 166.968 
L 107.66109 159.408 
L 107.715389 159.408 
L 107.769688 158.587535 
L 107.932586 166.08893 
L 107.986885 166.08893 
L 108.095483 165.223385 
L 108.258381 157.779692 
L 108.421278 164.371053 
L 108.529876 164.371053 
L 108.692774 163.531636 
L 108.747073 156.200727 
L 108.801372 163.531636 
L 108.964269 162.704842 
L 109.072868 162.704842 
L 109.235765 161.890388 
L 109.290064 169.111881 
L 109.344363 161.890388 
L 109.507261 161.088 
L 109.615859 161.088 
L 109.724457 160.297412 
L 109.833056 167.412706 
L 109.995953 159.518365 
L 110.158851 159.518365 
L 110.21315 158.750609 
L 110.376047 165.762783 
L 110.430346 165.762783 
L 110.484645 164.955626 
L 110.647543 157.993899 
L 110.701842 164.955626 
L 110.756141 164.16 
L 110.973338 164.16 
L 111.081936 163.37566 
L 111.136235 156.512681 
L 111.190534 163.37566 
L 111.244833 163.37566 
L 111.407731 162.602366 
L 111.516329 162.602366 
L 111.624927 161.839888 
L 111.679226 168.606881 
L 111.733526 161.839888 
L 111.787825 161.839888 
L 111.950722 161.088 
L 112.05932 161.088 
L 112.113619 160.346483 
L 112.276517 167.020138 
L 112.439414 159.615123 
L 112.602312 159.615123 
L 112.765209 165.476571 
L 112.873807 165.476571 
L 112.928107 164.720432 
L 113.091004 158.182054 
L 113.145303 164.720432 
L 113.199602 163.974443 
L 113.416799 163.974443 
L 113.525397 163.2384 
L 113.579696 156.7872 
L 113.633995 163.2384 
L 113.688294 163.2384 
L 113.851192 162.512106 
L 113.95979 162.512106 
L 114.068388 161.795368 
L 114.122688 168.161684 
L 114.176987 161.795368 
L 114.231286 161.795368 
L 114.394183 161.088 
L 114.502782 161.088 
L 114.665679 166.673455 
L 114.719978 166.673455 
L 114.882876 159.700645 
L 114.991474 159.700645 
L 115.045773 165.943742 
L 115.100072 165.223385 
L 115.262969 165.223385 
L 115.425867 158.348637 
L 115.480166 158.348637 
L 115.588764 164.512204 
L 115.751662 163.810025 
L 115.86026 163.810025 
L 115.914559 163.116679 
L 115.968858 157.030642 
L 116.023157 163.116679 
L 116.131756 163.116679 
L 116.294653 162.432 
L 116.403251 162.432 
L 116.457551 161.755826 
L 116.51185 167.766261 
L 116.566149 161.755826 
L 116.674747 161.755826 
L 116.837644 161.088 
L 116.946243 161.088 
L 117.10914 166.365055 
L 117.272038 159.77678 
L 117.434935 159.77678 
L 117.489234 165.677268 
L 117.543533 164.997818 
L 117.706431 164.997818 
L 117.869328 158.497157 
L 117.923627 158.497157 
L 118.032226 164.326554 
L 118.195123 163.663329 
L 118.303721 163.663329 
L 118.466619 163.008 
L 118.575217 163.008 
L 118.738114 162.360426 
L 118.846713 162.360426 
L 118.955311 167.412706 
L 119.118208 161.720471 
L 119.281106 161.088 
L 119.335405 161.088 
L 119.389704 166.746947 
L 119.444003 166.08893 
L 119.552601 166.08893 
L 119.715499 159.844994 
L 119.824097 159.844994 
L 119.932695 165.43852 
L 120.095593 164.795586 
L 120.25849 158.6304 
L 120.312789 158.6304 
L 120.475687 164.16 
L 120.638584 163.531636 
L 120.692883 163.531636 
L 120.801482 157.443254 
L 120.964379 162.910373 
L 121.018678 162.910373 
L 121.181576 162.29609 
L 121.290174 162.29609 
L 121.344473 167.094704 
L 121.50737 161.68867 
L 121.561669 161.68867 
L 121.724567 161.088 
L 121.778866 161.088 
L 121.833165 166.464 
L 121.887464 165.840265 
L 121.941763 165.840265 
L 122.104661 160.493967 
L 122.213259 159.906462 
L 122.376157 165.223385 
L 122.539054 164.613246 
L 122.701951 158.750609 
L 122.864849 164.009739 
L 122.919148 164.009739 
L 123.082045 163.412757 
L 123.136344 163.412757 
L 123.190644 158.182054 
L 123.244943 162.822194 
L 123.462139 162.822194 
L 123.625037 162.237947 
L 123.679336 162.237947 
L 123.733635 167.412706 
L 123.787934 166.807149 
L 123.950832 161.659915 
L 124.005131 161.659915 
L 124.168028 161.088 
L 124.276626 166.208 
L 124.385225 165.615158 
L 124.548122 160.522105 
L 124.65672 159.962136 
L 124.819618 165.028524 
L 124.928216 164.448 
L 125.091113 159.408 
L 125.145413 158.859606 
L 125.30831 163.873492 
L 125.362609 163.873492 
L 125.525507 163.304907 
L 125.634105 158.316866 
L 125.797002 162.742154 
L 125.905601 162.742154 
L 126.068498 162.185143 
L 126.122797 167.122286 
L 126.177096 162.185143 
L 126.339994 161.633787 
L 126.448592 161.633787 
L 126.55719 161.088 
L 126.720088 165.975273 
L 126.774387 165.410412 
L 126.937284 160.547698 
L 126.991583 160.547698 
L 127.045882 160.0128 
L 127.20878 164.8512 
L 127.263079 164.8512 
L 127.371677 164.297552 
L 127.534575 159.483224 
L 127.697472 163.749386 
L 127.80607 163.749386 
L 127.968968 163.206621 
L 128.023267 158.439724 
L 128.077566 163.206621 
L 128.240463 162.669176 
L 128.349062 162.669176 
L 128.511959 162.136976 
L 128.566258 166.857366 
L 128.620557 162.136976 
L 128.783455 161.609942 
L 128.892053 161.609942 
L 129.000651 161.088 
L 129.163549 165.762783 
L 129.217848 165.223385 
L 129.380745 160.571077 
L 129.435044 160.571077 
L 129.489344 160.0591 
L 129.652241 164.689148 
L 129.70654 164.689148 
L 129.760839 164.16 
L 129.923737 159.552 
L 129.978036 164.16 
L 130.032335 163.635867 
L 130.249532 163.635867 
L 130.35813 163.116679 
L 130.412429 158.552151 
L 130.466728 163.116679 
L 130.521027 163.116679 
L 130.683925 162.602366 
L 130.792523 162.602366 
L 130.901121 162.09286 
L 130.95542 166.614729 
L 131.009719 162.09286 
L 131.064019 162.09286 
L 131.226916 161.588093 
L 131.335514 161.588093 
L 131.389813 161.088 
L 131.552711 165.568 
L 131.715608 160.592516 
L 131.878506 160.592516 
L 132.041403 164.540477 
L 132.150001 164.540477 
L 132.204301 164.033753 
L 132.367198 159.615123 
L 132.421497 164.033753 
L 132.475796 163.531636 
L 132.692993 163.531636 
L 132.801591 163.034063 
L 132.85589 158.655421 
L 132.910189 163.034063 
L 132.964488 163.034063 
L 133.127386 162.540973 
L 133.235984 162.540973 
L 133.290283 162.052305 
L 133.398882 166.391677 
L 133.561779 161.568 
L 133.778976 161.568 
L 133.941873 165.3888 
L 133.996172 165.3888 
L 134.159069 160.612248 
L 134.267668 160.612248 
L 134.321967 164.894018 
L 134.376266 164.403595 
L 134.539163 164.403595 
L 134.702061 159.673263 
L 134.75636 159.673263 
L 134.864958 163.917474 
L 135.027856 163.435598 
L 135.136454 163.435598 
L 135.190753 162.957913 
L 135.245052 158.750609 
L 135.299351 162.957913 
L 135.40795 162.957913 
L 135.570847 162.484364 
L 135.679445 162.484364 
L 135.733744 162.014897 
L 135.788044 166.185931 
L 135.842343 162.014897 
L 135.950941 162.014897 
L 136.113838 161.549459 
L 136.222437 161.549459 
L 136.385334 165.223385 
L 136.548232 160.630468 
L 136.711129 160.630468 
L 136.765428 164.748255 
L 136.819727 164.277153 
L 136.982625 164.277153 
L 137.145522 159.726987 
L 137.308419 163.810025 
L 137.471317 163.346824 
L 137.579915 163.346824 
L 137.742813 162.887498 
L 137.851411 162.887498 
L 138.014308 162.432 
L 138.122907 162.432 
L 138.231505 165.995552 
L 138.394402 161.980282 
L 138.5573 161.532298 
L 138.611599 161.532298 
L 138.665898 165.530975 
L 138.720197 165.070222 
L 138.828795 165.070222 
L 138.991693 160.647344 
L 139.100291 160.647344 
L 139.208889 164.613246 
L 139.371787 164.16 
L 139.534684 159.77678 
L 139.588983 159.77678 
L 139.751881 163.710439 
L 139.914778 163.264518 
L 139.969077 163.264518 
L 140.077676 158.920258 
L 140.240573 162.822194 
L 140.294872 162.822194 
L 140.457769 162.383422 
L 140.566368 162.383422 
L 140.620667 165.81888 
L 140.783564 161.94816 
L 140.837863 161.94816 
L 141.000761 161.516367 
L 141.109359 165.371665 
L 141.217957 164.928 
L 141.380855 161.088 
L 141.489453 160.66302 
L 141.65235 164.487842 
L 141.815248 164.05115 
L 141.978145 159.823059 
L 142.141043 163.617882 
L 142.195342 163.617882 
L 142.358239 163.188 
L 142.412538 163.188 
L 142.466838 159.408 
L 142.521137 162.761463 
L 142.738333 162.761463 
L 142.901231 162.338233 
L 142.95553 162.338233 
L 143.009829 166.08893 
L 143.064128 165.654486 
L 143.227025 161.91827 
L 143.281325 161.91827 
L 143.444222 161.501538 
L 143.55282 165.223385 
L 143.661419 164.795586 
L 143.824316 161.088 
L 143.932914 160.677618 
L 144.095812 164.371053 
L 144.20441 163.949749 
L 144.367307 160.270357 
L 144.421607 159.866182 
L 144.584504 163.531636 
L 144.638803 163.531636 
L 144.8017 163.116679 
L 144.856 159.465057 
L 144.910299 163.116679 
L 145.073196 162.704842 
L 145.181794 162.704842 
L 145.344692 162.29609 
L 145.398991 165.92036 
L 145.45329 162.29609 
L 145.616188 161.890388 
L 145.724786 161.890388 
L 145.833384 161.487703 
L 145.996282 165.085026 
L 146.050581 164.672 
L 146.213478 161.088 
L 146.267777 161.088 
L 146.322076 160.691247 
L 146.484974 164.262022 
L 146.539273 164.262022 
L 146.647871 163.855059 
L 146.810769 160.297412 
L 146.973666 163.451077 
L 147.082264 163.451077 
L 147.245162 163.050044 
L 147.299461 159.518365 
L 147.35376 163.050044 
L 147.516657 162.651927 
L 147.625256 162.651927 
L 147.788153 162.256696 
L 147.842452 165.762783 
L 147.896751 162.256696 
L 148.059649 161.864318 
L 148.168247 161.864318 
L 148.276845 161.474763 
L 148.385444 164.955626 
L 148.548341 161.088 
L 148.711238 161.088 
L 148.874136 164.16 
L 148.982734 164.16 
L 149.037033 163.766434 
L 149.199931 160.322733 
L 149.25423 163.766434 
L 149.308529 163.37566 
L 149.525725 163.37566 
L 149.634324 162.987647 
L 149.688623 159.568283 
L 149.742922 162.987647 
L 149.797221 162.987647 
L 149.960119 162.602366 
L 150.068717 162.602366 
L 150.177315 162.219789 
L 150.231614 165.615158 
L 150.285913 162.219789 
L 150.340213 162.219789 
L 150.50311 161.839888 
L 150.611708 161.839888 
L 150.666007 161.462634 
L 150.828905 164.834341 
L 150.991802 161.088 
L 151.1547 161.088 
L 151.317597 164.064332 
L 151.426195 164.064332 
L 151.480494 163.68331 
L 151.643392 160.346483 
L 151.697691 163.68331 
L 151.75199 163.304907 
L 151.969187 163.304907 
L 152.077785 162.929096 
L 152.132084 159.615123 
L 152.186383 162.929096 
L 152.240682 162.929096 
L 152.40358 162.55585 
L 152.512178 162.55585 
L 152.566477 162.185143 
L 152.675075 165.476571 
L 152.837973 161.816949 
L 153.055169 161.816949 
L 153.218067 164.720432 
L 153.380964 161.088 
L 153.543862 161.088 
L 153.598161 164.346182 
L 153.65246 163.974443 
L 153.815357 163.974443 
L 153.978255 160.368803 
L 154.032554 160.368803 
L 154.141152 163.605191 
L 154.30405 163.2384 
L 154.412648 163.2384 
L 154.466947 162.874047 
L 154.521246 159.659163 
L 154.575545 162.874047 
L 154.684144 162.874047 
L 154.847041 162.512106 
L 154.955639 162.512106 
L 155.009938 162.152554 
L 155.064238 165.346218 
L 155.118537 162.152554 
L 155.227135 162.152554 
L 155.390032 161.795368 
L 155.498631 161.795368 
L 155.661528 164.613246 
L 155.824425 161.088 
L 155.987323 161.088 
L 156.041622 164.250353 
L 156.095921 163.889824 
L 156.258819 163.889824 
L 156.421716 160.389818 
L 156.584613 163.531636 
L 156.747511 163.175767 
L 156.856109 163.175767 
L 157.019007 162.822194 
L 157.127605 162.822194 
L 157.290502 162.470894 
L 157.3991 162.470894 
L 157.507699 165.223385 
L 157.670596 162.121846 
L 157.833494 161.775029 
L 157.887793 161.775029 
L 157.942092 164.866658 
L 157.996391 164.512204 
L 158.05069 164.512204 
L 158.213588 161.43042 
L 158.376485 161.088 
L 158.485083 164.16 
L 158.647981 163.810025 
L 158.810878 160.40964 
L 158.865177 160.40964 
L 159.028075 163.462259 
L 159.190972 163.116679 
L 159.245271 163.116679 
L 159.353869 159.739787 
L 159.516767 162.773266 
L 159.571066 162.773266 
L 159.733963 162.432 
L 159.842562 162.432 
L 159.896861 165.107439 
L 160.059758 162.09286 
L 160.114057 162.09286 
L 160.276955 161.755826 
L 160.385553 164.761043 
L 160.494151 164.416793 
L 160.657049 161.420879 
L 160.765647 161.088 
L 160.928544 164.074667 
L 161.091442 163.734646 
L 161.254339 160.428368 
L 161.417237 163.396712 
L 161.471536 163.396712 
L 161.634433 163.060844 
L 161.688732 163.060844 
L 161.743032 160.101578 
L 161.797331 162.727024 
L 162.014527 162.727024 
L 162.177425 162.395234 
L 162.231724 162.395234 
L 162.286023 165.336511 
L 162.340322 164.997818 
L 162.503219 162.065455 
L 162.557519 162.065455 
L 162.720416 161.737668 
L 162.829014 164.661172 
L 162.883313 164.326554 
L 163.046211 161.411855 
L 163.10051 161.411855 
L 163.209108 161.088 
L 163.372006 163.993946 
L 163.480604 163.663329 
L 163.643501 160.766084 
L 163.6978 160.44609 
L 163.860698 163.334687 
L 163.914997 163.334687 
L 164.077894 163.008 
L 164.132194 160.128 
L 164.186493 163.008 
L 164.34939 162.683252 
L 164.457988 162.683252 
L 164.620886 162.360426 
L 164.675185 165.223385 
L 164.729484 162.360426 
L 164.892382 162.039504 
L 165.00098 162.039504 
L 165.109578 161.720471 
L 165.272475 164.566588 
L 165.326775 164.241079 
L 165.489672 161.403308 
L 165.543971 161.403308 
L 165.59827 161.088 
L 165.761168 163.917474 
L 165.815467 163.917474 
L 165.924065 163.595755 
L 166.086963 160.774531 
L 166.24986 163.275907 
L 166.358458 163.275907 
L 166.521356 162.957913 
L 166.575655 160.153043 
L 166.629954 162.957913 
L 166.792851 162.641757 
L 166.90145 162.641757 
L 167.064347 162.327424 
L 167.118646 165.116127 
L 167.172945 162.327424 
L 167.335843 162.014897 
L 167.444441 162.014897 
L 167.553039 161.70416 
L 167.661638 164.476883 
L 167.824535 161.3952 
L 167.987432 161.3952 
L 168.15033 163.844923 
L 168.258928 163.844923 
L 168.313227 163.531636 
L 168.476125 160.782545 
L 168.530424 163.531636 
L 168.584723 163.220125 
L 168.801919 163.220125 
L 168.910518 162.910373 
L 168.964817 160.176814 
L 169.019116 162.910373 
L 169.073415 162.910373 
L 169.236313 162.602366 
L 169.344911 162.602366 
L 169.453509 162.29609 
L 169.507808 165.014292 
L 169.562107 162.29609 
L 169.616407 162.29609 
L 169.779304 161.991529 
L 169.887902 161.991529 
L 169.942201 161.68867 
L 170.105099 164.391687 
L 170.267996 161.387499 
L 170.430894 161.387499 
L 170.593791 163.776 
L 170.702389 163.776 
L 170.756688 163.470715 
L 170.919586 160.790161 
L 170.973885 163.470715 
L 171.028184 163.167116 
L 171.245381 163.167116 
L 171.353979 162.86519 
L 171.408278 160.199405 
L 171.462577 162.86519 
L 171.516876 162.86519 
L 171.679774 162.564923 
L 171.788372 162.564923 
L 171.842671 162.266301 
L 171.951269 164.917479 
L 172.114167 161.969311 
L 172.331363 161.969311 
L 172.494261 164.31067 
L 172.657158 161.380174 
L 172.820056 161.380174 
L 172.874355 164.009739 
L 172.928654 163.710439 
L 173.091551 163.710439 
L 173.254449 160.797405 
L 173.308748 160.797405 
L 173.417346 163.412757 
L 173.580244 163.116679 
L 173.688842 163.116679 
L 173.743141 162.822194 
L 173.79744 160.220903 
L 173.851739 162.822194 
L 173.960338 162.822194 
L 174.123235 162.529287 
L 174.231833 162.529287 
L 174.286132 162.237947 
L 174.340432 164.825326 
L 174.394731 162.237947 
L 174.503329 162.237947 
L 174.666226 161.94816 
L 174.774825 161.94816 
L 174.937722 164.233532 
L 175.100619 161.373199 
L 175.263517 161.373199 
L 175.317816 163.939989 
L 175.372115 163.648 
L 175.535013 163.648 
L 175.69791 160.804306 
L 175.860807 163.357551 
L 176.023705 163.068632 
L 176.132303 163.068632 
L 176.2952 162.781228 
L 176.403799 162.781228 
L 176.566696 162.49533 
L 176.675294 162.49533 
L 176.783893 164.737504 
L 176.94679 162.210924 
L 177.109688 161.928 
L 177.163987 161.928 
L 177.218286 164.448 
L 177.272585 164.16 
L 177.326884 164.16 
L 177.489782 161.646545 
L 177.652679 161.366549 
L 177.761277 163.873492 
L 177.924175 163.588465 
L 178.087072 160.810887 
L 178.141371 160.810887 
L 178.304269 163.304907 
L 178.467166 163.022807 
L 178.521465 163.022807 
L 178.630063 160.260923 
L 178.792961 162.742154 
L 178.84726 162.742154 
L 179.010157 162.462936 
L 179.064457 162.462936 
L 179.118756 164.937821 
L 179.173055 164.653714 
L 179.335952 162.185143 
L 179.390251 162.185143 
L 179.553149 161.908763 
L 179.661747 164.371053 
L 179.770345 164.089827 
L 179.933243 161.633787 
L 180.041841 161.360203 
L 180.204738 163.810025 
L 180.367636 163.531636 
L 180.530533 160.817169 
L 180.693431 163.25465 
L 180.74773 163.25465 
L 180.910627 162.979055 
L 180.964926 162.979055 
L 181.019225 160.547698 
L 181.073525 162.704842 
L 181.290721 162.704842 
L 181.453619 162.432 
L 181.507918 162.432 
L 181.562217 164.8512 
L 181.616516 164.573686 
L 181.779413 162.160519 
L 181.833713 162.160519 
L 181.99661 161.890388 
L 182.105208 164.297552 
L 182.159507 164.022789 
L 182.322405 161.621598 
L 182.376704 161.621598 
L 182.485302 161.354139 
L 182.6482 163.749386 
L 182.756798 163.477333 
L 182.919695 161.088 
L 183.082593 163.206621 
L 183.191191 163.206621 
L 183.354088 162.937238 
L 183.408388 160.559646 
L 183.462687 162.937238 
L 183.625584 162.669176 
L 183.734182 162.669176 
L 183.89708 162.402425 
L 183.951379 164.768391 
L 184.005678 162.402425 
L 184.168575 162.136976 
L 184.277174 162.136976 
L 184.385772 161.872818 
L 184.548669 164.22727 
L 184.602969 163.95868 
L 184.765866 161.609942 
L 184.820165 161.609942 
L 184.874464 161.348339 
L 185.037362 163.69139 
L 185.091661 163.69139 
L 185.200259 163.425391 
L 185.363157 161.088 
L 185.526054 163.160675 
L 185.634652 163.160675 
L 185.79755 162.897231 
L 185.851849 160.571077 
L 185.906148 162.897231 
L 186.069045 162.63505 
L 186.177644 162.63505 
L 186.340541 162.374124 
L 186.39484 164.689148 
L 186.449139 162.374124 
L 186.612037 162.114444 
L 186.720635 162.114444 
L 186.774934 161.856 
L 186.937832 164.16 
L 187.100729 161.598784 
L 187.263626 161.598784 
L 187.426524 163.635867 
L 187.535122 163.635867 
L 187.589421 163.37566 
L 187.752319 161.088 
L 187.806618 163.37566 
L 187.860917 163.116679 
L 188.078113 163.116679 
L 188.186712 162.858918 
L 188.241011 160.582024 
L 188.29531 162.858918 
L 188.349609 162.858918 
L 188.512507 162.602366 
L 188.621105 162.602366 
L 188.729703 162.347016 
L 188.784002 164.613246 
L 188.838301 162.347016 
L 188.8926 162.347016 
L 189.055498 162.09286 
L 189.164096 162.09286 
L 189.218395 161.839888 
L 189.381293 164.095552 
L 189.54419 161.588093 
L 189.707088 161.588093 
L 189.869985 163.582664 
L 189.978583 163.582664 
L 190.032882 163.328 
L 190.19578 161.088 
L 190.250079 163.328 
L 190.304378 163.074513 
L 190.521575 163.074513 
L 190.684472 162.822194 
L 190.79307 162.822194 
L 190.955968 162.571034 
L 191.064566 162.571034 
L 191.118865 162.321028 
L 191.227463 164.540477 
L 191.390361 162.072165 
L 191.607557 162.072165 
L 191.770455 164.033753 
L 191.933352 161.577841 
L 192.09625 161.577841 
L 192.150549 163.782123 
L 192.204848 163.531636 
L 192.367745 163.531636 
L 192.530643 161.088 
L 192.584942 161.088 
L 192.69354 163.282286 
L 192.856438 163.034063 
L 192.965036 163.034063 
L 193.019335 162.786962 
L 193.073634 160.602582 
L 193.127933 162.786962 
L 193.236531 162.786962 
L 193.399429 162.540973 
L 193.508027 162.540973 
L 193.562326 162.29609 
L 193.616625 164.470652 
L 193.670925 162.29609 
L 193.779523 162.29609 
L 193.94242 162.052305 
L 194.051019 162.052305 
L 194.213916 163.974443 
L 194.376813 161.568 
L 194.485412 161.568 
L 194.59401 163.728 
L 194.756907 163.482655 
L 194.811206 163.482655 
L 194.974104 161.088 
L 195.137001 163.2384 
L 195.299899 162.995228 
L 195.408497 162.995228 
L 195.571394 162.753133 
L 195.679993 162.753133 
L 195.84289 162.512106 
L 195.951488 162.512106 
L 196.060087 164.403595 
L 196.222984 162.272141 
L 196.385881 162.033231 
L 196.440181 162.033231 
L 196.49448 164.16 
L 196.548779 163.917474 
L 196.603078 163.917474 
L 196.765975 161.795368 
L 196.928873 161.558547 
L 197.037471 163.676009 
L 197.200369 163.435598 
L 197.363266 161.088 
L 197.417565 161.088 
L 197.580463 163.196235 
L 197.74336 162.957913 
L 197.797659 162.957913 
L 197.906257 160.621536 
L 198.069155 162.720625 
L 198.123454 162.720625 
L 198.286351 162.484364 
L 198.34065 162.484364 
L 198.39495 164.578909 
L 198.449249 164.339145 
L 198.612146 162.249123 
L 198.666445 162.249123 
L 198.829343 162.014897 
L 198.937941 164.100414 
L 199.046539 163.86271 
L 199.209437 161.781677 
L 199.318035 161.549459 
L 199.480932 163.626026 
L 199.64383 163.390355 
L 199.806727 161.088 
L 199.969625 163.155692 
L 200.023924 163.155692 
L 200.186821 162.92203 
L 200.24112 162.92203 
L 200.295419 160.858746 
L 200.349719 162.689362 
L 200.566915 162.689362 
L 200.729813 162.457682 
L 200.784112 162.457682 
L 200.838411 164.512204 
L 200.89271 164.277153 
L 201.055607 162.226983 
L 201.109906 162.226983 
L 201.272804 161.99726 
L 201.381402 164.043095 
L 201.435701 163.810025 
L 201.598599 161.768506 
L 201.652898 161.768506 
L 201.761496 161.540716 
L 201.924394 163.577937 
L 202.032992 163.346824 
L 202.195889 161.313882 
L 202.358787 163.116679 
L 202.467385 163.116679 
L 202.630282 162.887498 
L 202.684581 160.863063 
L 202.738881 162.887498 
L 202.901778 162.659273 
L 203.010376 162.659273 
L 203.173274 162.432 
L 203.227573 164.448 
L 203.281872 162.432 
L 203.444769 162.205672 
L 203.553368 162.205672 
L 203.661966 161.980282 
L 203.824863 163.987917 
L 203.879163 163.759304 
L 204.04206 161.755826 
L 204.096359 161.755826 
L 204.150658 161.532298 
L 204.313556 163.531636 
L 204.367855 163.531636 
L 204.476453 163.304907 
L 204.63935 161.309691 
L 204.802248 163.079111 
L 204.910846 163.079111 
L 205.073744 162.854242 
L 205.128043 160.86722 
L 205.182342 162.854242 
L 205.345239 162.630295 
L 205.453838 162.630295 
L 205.616735 162.407264 
L 205.725333 162.407264 
L 205.888231 162.185143 
L 205.996829 162.185143 
L 206.051128 161.963927 
L 206.214025 163.934762 
L 206.376923 161.74361 
L 206.53982 161.74361 
L 206.702718 163.487026 
L 206.811316 163.487026 
L 206.865615 163.264518 
L 207.028513 161.305652 
L 207.082812 163.264518 
L 207.137111 163.042909 
L 207.354307 163.042909 
L 207.462906 162.822194 
L 207.517205 160.871226 
L 207.571504 162.822194 
L 207.625803 162.822194 
L 207.7887 162.602366 
L 207.897299 162.602366 
L 208.005897 162.383422 
L 208.060196 164.326554 
L 208.114495 162.383422 
L 208.168794 162.383422 
L 208.331692 162.165355 
L 208.44029 162.165355 
L 208.494589 161.94816 
L 208.657487 163.88352 
L 208.820384 161.731832 
L 208.983281 161.731832 
L 209.146179 163.444016 
L 209.254777 163.444016 
L 209.309076 163.225575 
L 209.471974 161.301757 
L 209.526273 163.225575 
L 209.580572 163.008 
L 209.797769 163.008 
L 209.960666 162.791287 
L 210.069264 162.791287 
L 210.232162 162.575431 
L 210.34076 162.575431 
L 210.395059 162.360426 
L 210.449358 164.269065 
L 210.503657 162.360426 
L 210.612256 162.360426 
L 210.775153 162.146268 
L 210.883751 162.146268 
L 211.046649 163.83409 
L 211.209546 161.720471 
L 211.372444 161.720471 
L 211.426743 163.617882 
L 211.481042 163.402521 
L 211.643939 163.402521 
L 211.806837 161.298 
L 211.861136 161.298 
L 211.969734 163.188 
L 212.132631 162.974316 
L 212.24123 162.974316 
L 212.295529 162.761463 
L 212.349828 160.878817 
L 212.404127 162.761463 
L 212.512725 162.761463 
L 212.675623 162.549437 
L 212.784221 162.549437 
L 212.83852 162.338233 
L 212.892819 164.213581 
L 212.947119 162.338233 
L 213.055717 162.338233 
L 213.218614 162.127845 
L 213.327213 162.127845 
L 213.49011 163.786378 
L 213.653007 161.709503 
L 213.761606 161.709503 
L 213.870204 163.574012 
L 214.033101 163.362462 
L 214.0874 163.362462 
L 214.250298 161.294372 
L 214.413195 163.151724 
L 214.576093 162.941793 
L 214.684691 162.941793 
L 214.847588 162.732665 
L 214.956187 162.732665 
L 215.119084 162.524336 
L 215.227682 162.524336 
L 215.281981 164.16 
L 215.444879 162.3168 
L 215.499178 162.3168 
L 215.662075 162.110053 
L 215.716375 162.110053 
L 215.770674 163.949749 
L 215.824973 163.740296 
L 215.879272 163.740296 
L 216.042169 161.904091 
L 216.205067 161.698909 
L 216.313665 163.531636 
L 216.476563 163.323766 
L 216.63946 161.290868 
L 216.693759 161.290868 
L 216.856656 163.116679 
L 217.019554 162.910373 
L 217.073853 162.910373 
L 217.182451 160.885895 
L 217.345349 162.704842 
L 217.399648 162.704842 
L 217.562545 162.500083 
L 217.616844 162.500083 
L 217.671144 164.315617 
L 217.725443 164.108225 
L 217.88834 162.29609 
L 217.942639 162.29609 
L 218.105537 162.09286 
L 218.214135 163.901607 
L 218.322733 163.695761 
L 218.485631 161.890388 
L 218.594229 161.68867 
L 218.757126 163.490682 
L 218.920024 163.286364 
L 219.082921 161.287481 
L 219.245819 163.082805 
L 219.300118 163.082805 
L 219.463015 162.88 
L 219.517314 162.88 
L 219.571613 161.088 
L 219.625913 162.677945 
L 219.843109 162.677945 
L 220.006006 162.476635 
L 220.114605 162.476635 
L 220.277502 162.276066 
L 220.3861 162.276066 
L 220.548998 162.076235 
L 220.657596 163.855059 
L 220.711895 163.652697 
L 220.874793 161.877138 
L 220.929092 161.877138 
L 220.983391 161.678769 
L 221.146288 163.451077 
L 221.200588 163.451077 
L 221.309186 163.250194 
L 221.472083 161.481126 
L 221.634981 163.050044 
L 221.743579 163.050044 
L 221.906476 162.850623 
L 221.960775 161.088 
L 222.015075 162.850623 
L 222.177972 162.651927 
L 222.28657 162.651927 
L 222.449468 162.453953 
L 222.503767 164.210178 
L 222.558066 162.453953 
L 222.720963 162.256696 
L 222.829562 162.256696 
L 222.93816 162.060152 
L 223.101057 163.810025 
L 223.155356 163.611032 
L 223.318254 161.864318 
L 223.372553 161.864318 
L 223.426852 161.669189 
L 223.58975 163.412757 
L 223.644049 163.412757 
L 223.752647 163.215194 
L 223.915544 161.474763 
L 224.078442 163.018341 
L 224.18704 163.018341 
L 224.349938 162.822194 
L 224.404237 161.088 
L 224.458536 162.822194 
L 224.621433 162.626748 
L 224.730031 162.626748 
L 224.83863 162.432 
L 224.892929 164.16 
L 224.947228 162.432 
L 225.001527 162.432 
L 225.164425 162.237947 
L 225.273023 162.237947 
L 225.327322 162.044584 
L 225.490219 163.766434 
L 225.653117 161.851908 
L 225.816014 161.851908 
L 225.978912 163.37566 
L 226.08751 163.37566 
L 226.141809 163.18131 
L 226.304706 161.468602 
L 226.359006 163.18131 
L 226.413305 162.987647 
L 226.630501 162.987647 
L 226.7391 162.794667 
L 226.793399 161.088 
L 226.847698 162.794667 
L 226.901997 162.794667 
L 227.064894 162.602366 
L 227.173493 162.602366 
L 227.282091 162.410742 
L 227.33639 164.111409 
L 227.390689 162.410742 
L 227.444988 162.410742 
L 227.607886 162.219789 
L 227.716484 162.219789 
L 227.770783 162.029506 
L 227.933681 163.724217 
L 228.096578 161.839888 
L 228.259475 161.839888 
L 228.422373 163.339728 
L 228.530971 163.339728 
L 228.58527 163.148488 
L 228.693869 161.462634 
L 228.802467 163.148488 
L 228.965364 162.957913 
L 229.073963 162.957913 
L 229.23686 162.768 
L 229.345458 162.768 
L 229.508356 162.578745 
L 229.616954 162.578745 
L 229.671253 162.390145 
L 229.725552 164.064332 
L 229.779851 162.390145 
L 229.88845 162.390145 
L 230.051347 162.202197 
L 230.159945 162.202197 
L 230.322843 163.68331 
L 230.48574 161.828241 
L 230.648638 161.828241 
L 230.702937 163.493783 
L 230.757236 163.304907 
L 230.920133 163.304907 
L 231.083031 161.456851 
L 231.13733 161.456851 
L 231.245928 163.116679 
L 231.408825 162.929096 
L 231.517424 162.929096 
L 231.571723 162.742154 
L 231.626022 161.088 
L 231.680321 162.742154 
L 231.788919 162.742154 
L 231.951817 162.55585 
L 232.060415 162.55585 
L 232.114714 162.370181 
L 232.169013 164.018698 
L 232.223313 162.370181 
L 232.331911 162.370181 
L 232.494808 162.185143 
L 232.549107 162.185143 
L 232.603406 163.830857 
L 232.657706 163.643654 
L 232.766304 163.643654 
L 232.929201 161.816949 
L 233.0378 161.816949 
L 233.146398 163.457085 
L 233.309295 163.271147 
L 233.363594 163.271147 
L 233.526492 161.451243 
L 233.689389 163.085838 
L 233.852287 162.901153 
L 233.960885 162.901153 
L 234.123782 162.717091 
L 234.232381 162.717091 
L 234.395278 162.533647 
L 234.503876 162.533647 
L 234.558175 163.974443 
L 234.721073 162.350819 
L 234.775372 162.350819 
L 234.938269 162.168603 
L 234.992569 162.168603 
L 235.046868 163.789508 
L 235.101167 163.605191 
L 235.155466 163.605191 
L 235.318363 161.986997 
L 235.481261 161.805997 
L 235.589859 163.421489 
L 235.752756 163.2384 
L 235.915654 161.445804 
L 235.969953 161.445804 
L 236.13285 163.05592 
L 236.295748 162.874047 
L 236.350047 162.874047 
L 236.404346 161.266605 
L 236.458645 162.692776 
L 236.675842 162.692776 
L 236.838739 162.512106 
L 236.893038 162.512106 
L 236.947337 164.114225 
L 237.001637 163.931504 
L 237.164534 162.332033 
L 237.218833 162.332033 
L 237.381731 162.152554 
L 237.490329 163.749386 
L 237.598927 163.567868 
L 237.761825 161.973667 
L 237.870423 161.795368 
L 238.03332 163.386947 
L 238.196218 163.206621 
L 238.359115 161.440525 
L 238.522012 163.026885 
L 238.576312 163.026885 
L 238.739209 162.847738 
L 238.793508 162.847738 
L 238.847807 161.263974 
L 238.902106 162.669176 
L 239.119303 162.669176 
L 239.2822 162.491197 
L 239.390799 162.491197 
L 239.553696 162.313798 
L 239.662294 162.313798 
L 239.825192 162.136976 
L 239.93379 163.710439 
L 239.988089 163.531636 
L 240.150987 161.960727 
L 240.205286 161.960727 
L 240.259585 161.78505 
L 240.422482 163.353413 
L 240.476781 163.353413 
L 240.58538 163.175767 
L 240.748277 161.609942 
L 240.911175 162.998695 
L 241.019773 162.998695 
L 241.18267 162.822194 
L 241.236969 161.261419 
L 241.291269 162.822194 
L 241.454166 162.646261 
L 241.562764 162.646261 
L 241.725662 162.470894 
L 241.779961 164.02665 
L 241.83426 162.470894 
L 241.997157 162.29609 
L 242.105756 162.29609 
L 242.214354 162.121846 
L 242.377251 163.672615 
L 242.43155 163.496448 
L 242.594448 161.94816 
L 242.648747 161.94816 
L 242.703046 161.775029 
L 242.865944 163.320843 
L 242.920243 163.320843 
L 243.028841 163.145799 
L 243.191738 161.60245 
L 243.354636 162.971312 
L 243.463234 162.971312 
L 243.626131 162.79738 
L 243.680431 161.258938 
L 243.73473 162.79738 
L 243.897627 162.624 
L 244.006225 162.624 
L 244.114824 162.45117 
L 244.169123 163.984735 
L 244.223422 162.45117 
L 244.277721 162.45117 
L 244.440619 162.278886 
L 244.549217 162.278886 
L 244.603516 162.107147 
L 244.766413 163.635867 
L 244.929311 161.93595 
L 245.092208 161.93595 
L 245.255106 163.289197 
L 245.363704 163.289197 
L 245.418003 163.116679 
L 245.5809 161.59517 
L 245.6352 163.116679 
L 245.689499 162.944703 
L 245.906695 162.944703 
L 246.015294 162.773266 
L 246.069593 161.256527 
L 246.123892 162.773266 
L 246.178191 162.773266 
L 246.341088 162.602366 
L 246.449687 162.602366 
L 246.558285 162.432 
L 246.612584 163.944 
L 246.666883 162.432 
L 246.721182 162.432 
L 246.88408 162.262165 
L 246.992678 162.262165 
L 247.046977 162.09286 
L 247.209875 163.60015 
L 247.372772 161.924081 
L 247.535669 161.924081 
L 247.698567 163.258435 
L 247.807165 163.258435 
L 247.861464 163.088372 
L 247.970062 161.588093 
L 248.078661 163.088372 
L 248.241558 162.918836 
L 248.350156 162.918836 
L 248.513054 162.749824 
L 248.621652 162.749824 
L 248.78455 162.581333 
L 248.893148 162.581333 
L 248.947447 162.413362 
L 249.001746 163.904394 
L 249.056045 162.413362 
L 249.164644 162.413362 
L 249.327541 162.245908 
L 249.436139 162.245908 
L 249.599037 163.565419 
L 249.761934 161.91254 
L 249.924831 161.91254 
L 249.979131 163.396712 
L 250.03343 163.228521 
L 250.196327 163.228521 
L 250.359225 161.581211 
L 250.413524 161.581211 
L 250.522122 163.060844 
L 250.685019 162.893679 
L 250.793618 162.893679 
L 250.847917 162.727024 
L 250.902216 161.251902 
L 250.956515 162.727024 
L 251.065113 162.727024 
L 251.228011 162.560877 
L 251.336609 162.560877 
L 251.390908 162.395234 
L 251.445207 163.865872 
L 251.499506 162.395234 
L 251.608105 162.395234 
L 251.771002 162.230094 
L 251.825301 162.230094 
L 251.8796 163.698501 
L 251.9339 163.531636 
L 252.042498 163.531636 
L 252.205395 161.901313 
L 252.313994 161.901313 
L 252.422592 163.365277 
L 252.585489 163.19942 
L 252.639788 163.19942 
L 252.802686 161.574516 
L 252.965583 163.034063 
L 253.128481 162.869205 
L 253.237079 162.869205 
L 253.399976 162.704842 
L 253.508575 162.704842 
L 253.671472 162.540973 
L 253.78007 162.540973 
L 253.834369 163.82839 
L 253.997267 162.377595 
L 254.051566 162.377595 
L 254.214463 162.214707 
L 254.268762 162.214707 
L 254.323062 163.663329 
L 254.377361 163.498762 
L 254.43166 163.498762 
L 254.594557 162.052305 
L 254.757455 161.890388 
L 254.866053 163.334687 
L 255.02895 163.1711 
L 255.191848 161.568 
L 255.246147 161.568 
L 255.409044 163.008 
L 255.571942 162.845385 
L 255.626241 162.845385 
L 255.68054 161.407525 
L 255.734839 162.683252 
L 255.952036 162.683252 
L 256.114933 162.5216 
L 256.169232 162.5216 
L 256.223531 163.9552 
L 256.277831 163.791905 
L 256.440728 162.360426 
L 256.495027 162.360426 
L 256.657925 162.199728 
L 256.766523 163.629093 
L 256.875121 163.466761 
L 257.038019 162.039504 
L 257.146617 161.879753 
L 257.309514 163.304907 
L 257.472412 163.143529 
L 257.635309 161.561656 
L 257.798206 162.982626 
L 257.852506 162.982626 
L 258.015403 162.822194 
L 258.124001 161.403308 
L 258.286899 162.662231 
L 258.395497 162.662231 
L 258.558394 162.502737 
L 258.666993 162.502737 
L 258.82989 162.343708 
L 258.938488 162.343708 
L 259.047087 162.185143 
L 259.209984 163.595755 
L 259.264283 163.435598 
L 259.427181 162.027039 
L 259.48148 162.027039 
L 259.535779 161.869395 
L 259.698676 163.275907 
L 259.752975 163.275907 
L 259.861574 163.116679 
L 260.024471 161.712209 
L 260.187369 162.957913 
L 260.295967 162.957913 
L 260.458864 162.799606 
L 260.513163 161.399201 
L 260.567462 162.799606 
L 260.73036 162.641757 
L 260.838958 162.641757 
L 261.001856 162.484364 
L 261.056155 163.880727 
L 261.110454 162.484364 
L 261.273351 162.327424 
L 261.38195 162.327424 
L 261.490548 162.170935 
L 261.653445 163.563281 
L 261.707744 163.405241 
L 261.870642 162.014897 
L 261.924941 162.014897 
L 261.97924 161.859306 
L 262.142137 163.247656 
L 262.196437 163.247656 
L 262.305035 163.090521 
L 262.467932 161.70416 
L 262.63083 162.933837 
L 262.739428 162.933837 
L 262.848026 162.7776 
L 262.902325 161.3952 
L 262.956625 162.7776 
L 263.010924 162.7776 
L 263.173821 162.621809 
L 263.282419 162.621809 
L 263.391018 162.466462 
L 263.445317 163.844923 
L 263.499616 162.466462 
L 263.553915 162.466462 
L 263.716812 162.311556 
L 263.825411 162.311556 
L 263.87971 162.157091 
L 264.042607 163.531636 
L 264.205505 162.003064 
L 264.368402 162.003064 
L 264.5313 163.220125 
L 264.639898 163.220125 
L 264.694197 163.06503 
L 264.857094 161.696317 
L 264.911394 163.06503 
L 264.965693 162.910373 
L 265.182889 162.910373 
L 265.291487 162.756152 
L 265.345787 161.3913 
L 265.400086 162.756152 
L 265.454385 162.756152 
L 265.617282 162.602366 
L 265.725881 162.602366 
L 265.834479 162.449013 
L 265.888778 163.810025 
L 265.943077 162.449013 
L 265.997376 162.449013 
L 266.160274 162.29609 
L 266.268872 162.29609 
L 266.323171 162.143596 
L 266.486069 163.500791 
L 266.648966 161.991529 
L 266.757564 161.991529 
L 266.811863 163.346824 
L 266.866162 163.193287 
L 267.083359 163.193287 
L 267.137658 163.040179 
L 267.246256 161.68867 
L 267.354855 163.040179 
L 267.517752 162.887498 
L 267.62635 162.887498 
L 267.68065 162.735242 
L 267.734949 161.387499 
L 267.789248 162.735242 
L 267.897846 162.735242 
L 268.060744 162.58341 
L 268.169342 162.58341 
L 268.223641 162.432 
L 268.27794 163.776 
L 268.332239 162.432 
L 268.440837 162.432 
L 268.603735 162.28101 
L 268.712333 162.28101 
L 268.875231 163.470715 
L 269.038128 161.980282 
L 269.201025 161.980282 
L 269.255325 163.318705 
L 269.309624 163.167116 
L 269.472521 163.167116 
L 269.635419 161.681214 
L 269.689718 161.681214 
L 269.798316 163.015945 
L 269.961213 162.86519 
L 270.069812 162.86519 
L 270.124111 162.71485 
L 270.17841 161.383791 
L 270.232709 162.71485 
L 270.341307 162.71485 
L 270.504205 162.564923 
L 270.612803 162.564923 
L 270.721401 163.742815 
L 270.884299 162.415407 
L 271.047196 162.266301 
L 271.101495 162.266301 
L 271.155794 163.59189 
L 271.210094 163.441379 
L 271.318692 163.441379 
L 271.481589 161.969311 
L 271.590187 161.969311 
L 271.698786 163.291279 
L 271.861683 163.141588 
L 271.915982 163.141588 
L 272.07888 161.67394 
L 272.241777 162.992305 
L 272.404675 162.843429 
L 272.458974 162.843429 
L 272.567572 161.380174 
L 272.730469 162.694957 
L 272.784769 162.694957 
L 272.947666 162.546887 
L 273.056264 162.546887 
L 273.110563 163.710439 
L 273.273461 162.39922 
L 273.32776 162.39922 
L 273.490657 162.251951 
L 273.544956 162.251951 
L 273.599256 163.561396 
L 273.653555 163.412757 
L 273.707854 163.412757 
L 273.870751 162.105081 
L 274.033649 161.958607 
L 274.142247 163.264518 
L 274.305144 163.116679 
L 274.468042 161.666843 
L 274.630939 162.969238 
L 274.685238 162.969238 
L 274.848136 162.822194 
L 274.902435 162.822194 
L 274.956734 161.521548 
L 275.011033 162.675544 
L 275.22823 162.675544 
L 275.391127 162.529287 
L 275.445426 162.529287 
L 275.499725 163.826445 
L 275.554025 163.678843 
L 275.716922 162.383422 
L 275.771221 162.383422 
L 275.934119 162.237947 
L 276.042717 163.531636 
L 276.151315 163.384822 
L 276.314212 162.09286 
L 276.422811 161.94816 
L 276.585708 163.2384 
L 276.748606 163.092368 
L 276.911503 161.659915 
L 277.0744 162.946723 
L 277.1287 162.946723 
L 277.291597 162.801466 
L 277.400195 161.516367 
L 277.563093 162.656594 
L 277.671691 162.656594 
L 277.834588 162.512106 
L 277.943187 162.512106 
L 278.106084 162.368 
L 278.214682 162.368 
L 278.323281 162.224275 
L 278.486178 163.502584 
L 278.540477 163.357551 
L 278.703375 162.080929 
L 278.757674 162.080929 
L 278.811973 161.93796 
L 278.97487 163.212901 
L 279.029169 163.212901 
L 279.137768 163.068632 
L 279.300665 161.795368 
L 279.463562 162.924741 
L 279.572161 162.924741 
L 279.735058 162.781228 
L 279.789357 161.511307 
L 279.843656 162.781228 
L 280.006554 162.638092 
L 280.115152 162.638092 
L 280.27805 162.49533 
L 280.332349 163.761927 
L 280.386648 162.49533 
L 280.549545 162.352941 
L 280.658144 162.352941 
L 280.766742 162.210924 
L 280.929639 163.474214 
L 280.983938 163.33092 
L 281.146836 162.069278 
L 281.201135 162.069278 
L 281.255434 161.928 
L 281.418331 163.188 
L 281.472631 163.188 
L 281.581229 163.045451 
L 281.744126 161.78709 
L 281.907024 162.903273 
L 282.015622 162.903273 
L 282.12422 162.761463 
L 282.178519 161.506366 
L 282.232819 162.761463 
L 282.287118 162.761463 
L 282.450015 162.620021 
L 282.558613 162.620021 
L 282.667212 162.478944 
L 282.721511 163.730794 
L 282.77581 162.478944 
L 282.830109 162.478944 
L 282.993006 162.338233 
L 283.101605 162.338233 
L 283.155904 162.197884 
L 283.318801 163.446503 
L 283.481699 162.057897 
L 283.644596 162.057897 
L 283.807493 163.163676 
L 283.916092 163.163676 
L 283.970391 163.022807 
L 284.133288 161.779003 
L 284.187587 163.022807 
L 284.241887 162.8823 
L 284.459083 162.8823 
L 284.567681 162.742154 
L 284.621981 161.501538 
L 284.67628 162.742154 
L 284.730579 162.742154 
L 284.893476 162.602366 
L 285.002075 162.602366 
L 285.110673 162.462936 
L 285.164972 163.700379 
L 285.219271 162.462936 
L 285.27357 162.462936 
L 285.436468 162.323862 
L 285.545066 162.323862 
L 285.599365 162.185143 
L 285.762262 163.419429 
L 285.92516 162.046777 
L 286.033758 162.046777 
L 286.088057 163.27949 
L 286.142356 163.139908 
L 286.359553 163.139908 
L 286.413852 163.000681 
L 286.52245 161.7711 
L 286.631049 163.000681 
L 286.793946 162.861807 
L 286.902544 162.861807 
L 286.956843 162.723285 
L 287.011143 161.496821 
L 287.065442 162.723285 
L 287.17404 162.723285 
L 287.336937 162.585114 
L 287.445536 162.585114 
L 287.499835 162.447292 
L 287.554134 163.670655 
L 287.608433 162.447292 
L 287.717031 162.447292 
L 287.879929 162.309818 
L 287.988527 162.309818 
L 288.151425 163.392968 
L 288.314322 162.035909 
L 288.477219 162.035909 
L 288.531518 163.25465 
L 288.585818 163.116679 
L 288.748715 163.116679 
L 288.911612 161.763377 
L 288.965912 161.763377 
L 289.07451 162.979055 
L 289.237407 162.841777 
L 289.346006 162.841777 
L 289.400305 162.704842 
L 289.454604 161.492211 
L 289.508903 162.704842 
L 289.617501 162.704842 
L 289.780399 162.56825 
L 289.888997 162.56825 
L 289.997595 163.6416 
L 290.160493 162.432 
L 290.32339 162.29609 
L 290.377689 162.29609 
L 290.431988 163.50418 
L 290.486287 163.367102 
L 290.594886 163.367102 
L 290.757783 162.025285 
L 290.866381 162.025285 
L 290.97498 163.230366 
L 291.137877 163.09397 
L 291.192176 163.09397 
L 291.355074 161.755826 
L 291.517971 162.957913 
L 291.680868 162.822194 
L 291.735168 162.822194 
L 291.843766 161.487703 
L 292.006663 162.68681 
L 292.060962 162.68681 
L 292.22386 162.551762 
L 292.332458 162.551762 
L 292.386757 163.613192 
L 292.549655 162.417048 
L 292.603954 162.417048 
L 292.766851 162.282667 
L 292.82115 162.282667 
L 292.87545 163.477333 
L 292.929749 163.34181 
L 292.984048 163.34181 
L 293.146945 162.148617 
L 293.309843 162.014897 
L 293.418441 163.206621 
L 293.581338 163.071764 
L 293.744236 161.748442 
L 293.907133 162.937238 
L 293.961432 162.937238 
L 294.12433 162.803043 
L 294.178629 162.803043 
L 294.232928 161.615706 
L 294.287227 162.669176 
L 294.504424 162.669176 
L 294.667321 162.535638 
L 294.72162 162.535638 
L 294.775919 163.720069 
L 294.830218 163.585408 
L 294.993116 162.402425 
L 295.047415 162.402425 
L 295.210312 162.269538 
L 295.318911 163.451077 
L 295.427509 163.317073 
L 295.590406 162.136976 
L 295.699005 162.004736 
L 295.861902 163.183396 
L 296.0248 163.050044 
L 296.187697 161.74122 
L 296.350594 162.917016 
L 296.404893 162.917016 
L 296.567791 162.784311 
L 296.676389 161.609942 
L 296.839287 162.651927 
L 296.947885 162.651927 
L 297.110782 162.519864 
L 297.219381 162.519864 
L 297.382278 162.388121 
L 297.490876 162.388121 
L 297.599475 162.256696 
L 297.762372 163.425391 
L 297.816671 163.292873 
L 297.979568 162.125587 
L 298.033868 162.125587 
L 298.088167 161.994795 
L 298.251064 163.160675 
L 298.305363 163.160675 
L 298.413962 163.028794 
L 298.576859 161.864318 
L 298.739756 162.897231 
L 298.848355 162.897231 
L 299.011252 162.765983 
L 299.065551 161.604303 
L 299.11985 162.765983 
L 299.282748 162.63505 
L 299.391346 162.63505 
L 299.554243 162.504431 
L 299.608543 163.663329 
L 299.662842 162.504431 
L 299.825739 162.374124 
L 299.934337 162.374124 
L 300.042936 162.244129 
L 300.205833 163.400258 
L 300.260132 163.269193 
L 300.42303 162.114444 
L 300.477329 162.114444 
L 300.531628 161.985068 
L 300.694525 163.138441 
L 300.748825 163.138441 
L 300.857423 163.008 
L 300.966021 161.856 
L 301.02032 163.008 
L 301.074619 162.877869 
L 301.291816 162.877869 
L 301.400414 162.748048 
L 301.454713 161.598784 
L 301.509012 162.748048 
L 301.563312 162.748048 
L 301.726209 162.618534 
L 301.834807 162.618534 
L 301.943406 162.489327 
L 301.997705 163.635867 
L 302.052004 162.489327 
L 302.106303 162.489327 
L 302.2692 162.360426 
L 302.377799 162.360426 
L 302.432098 162.23183 
L 302.594995 163.37566 
L 302.757893 162.103537 
L 302.92079 162.103537 
L 303.083687 163.116679 
L 303.192286 163.116679 
L 303.246585 162.987647 
L 303.409482 161.847859 
L 303.463781 162.987647 
L 303.518081 162.858918 
L 303.735277 162.858918 
L 303.843875 162.730491 
L 303.898175 161.593382 
L 303.952474 162.730491 
L 304.006773 162.730491 
L 304.16967 162.602366 
L 304.278268 162.602366 
L 304.386867 162.474542 
L 304.441166 163.608985 
L 304.495465 162.474542 
L 304.549764 162.474542 
L 304.712662 162.347016 
L 304.82126 162.347016 
L 304.984157 163.351579 
L 305.038456 163.351579 
L 305.201354 162.09286 
L 305.309952 162.09286 
L 305.364251 163.223327 
L 305.41855 163.095375 
L 305.581448 163.095375 
L 305.744345 161.839888 
L 305.798644 161.839888 
L 305.907243 162.96772 
L 306.07014 162.840363 
L 306.178738 162.840363 
L 306.233037 162.713302 
L 306.287337 161.588093 
L 306.341636 162.713302 
L 306.450234 162.713302 
L 306.613131 162.586537 
L 306.72173 162.586537 
L 306.776029 162.460065 
L 306.830328 163.582664 
L 306.884627 162.460065 
L 306.993225 162.460065 
L 307.156123 162.333886 
L 307.264721 162.333886 
L 307.427618 163.328 
L 307.590516 162.082405 
L 307.753413 162.082405 
L 307.807712 163.20111 
L 307.862012 163.074513 
L 308.024909 163.074513 
L 308.187806 161.832083 
L 308.242106 161.832083 
L 308.350704 162.948208 
L 308.513601 162.822194 
L 308.6222 162.822194 
L 308.785097 162.69647 
L 308.893695 162.69647 
L 309.056593 162.571034 
L 309.165191 162.571034 
L 309.273789 163.556886 
L 309.436687 162.445887 
L 309.599584 162.321028 
L 309.653883 162.321028 
L 309.708182 163.430752 
L 309.762481 163.304907 
L 309.87108 163.304907 
L 310.033977 162.072165 
L 310.142575 162.072165 
L 310.251174 163.17935 
L 310.414071 163.05408 
L 310.576968 161.824438 
L 310.631268 161.824438 
L 310.794165 162.929096 
L 310.957062 162.804397 
L 311.011362 162.804397 
L 311.11996 161.577841 
L 311.282857 162.679982 
L 311.337156 162.679982 
L 311.500054 162.55585 
L 311.608652 162.55585 
L 311.662951 163.531636 
L 311.825849 162.432 
L 311.880148 162.432 
L 312.043045 162.308431 
L 312.097344 162.308431 
L 312.151643 163.40682 
L 312.205943 163.282286 
L 312.260242 163.282286 
L 312.423139 162.185143 
L 312.531737 162.062134 
L 312.694635 163.158034 
L 312.857532 163.034063 
L 313.02043 161.816949 
L 313.183327 162.910373 
L 313.237626 162.910373 
L 313.400524 162.786962 
L 313.454823 162.786962 
L 313.509122 161.694772 
L 313.563421 162.663829 
L 313.780618 162.663829 
L 313.943515 162.540973 
L 313.997814 162.540973 
L 314.052113 163.630703 
L 314.106412 163.506898 
L 314.26931 162.418394 
L 314.323609 162.418394 
L 314.486506 162.29609 
L 314.595105 163.383371 
L 314.703703 163.260121 
L 314.8666 162.174061 
L 314.975199 162.052305 
L 315.138096 163.137148 
L 315.246694 163.01445 
L 315.409592 161.930822 
L 315.463891 161.809611 
L 315.626788 162.892027 
L 315.681087 162.892027 
L 315.843985 162.769877 
L 315.952583 161.68867 
L 316.115481 162.648 
L 316.224079 162.648 
L 316.386976 162.526395 
L 316.441275 163.605191 
L 316.495575 162.526395 
L 316.658472 162.40506 
L 316.76707 162.40506 
L 316.875668 162.283996 
L 317.038566 163.360392 
L 317.092865 163.2384 
L 317.255762 162.1632 
L 317.310062 162.1632 
L 317.364361 162.042673 
L 317.527258 163.116679 
L 317.581557 163.116679 
L 317.690156 162.995228 
L 317.853053 161.922412 
L 318.01595 162.874047 
L 318.124549 162.874047 
L 318.287446 162.753133 
L 318.341745 161.68269 
L 318.396044 162.753133 
L 318.558942 162.632486 
L 318.66754 162.632486 
L 318.830437 162.512106 
L 318.884737 163.580185 
L 318.939036 162.512106 
L 319.101933 162.391991 
L 319.210531 162.391991 
L 319.31913 162.272141 
L 319.482027 163.337868 
L 319.536326 163.217109 
L 319.699224 162.152554 
L 319.753523 162.152554 
L 319.807822 162.033231 
L 319.970719 163.096615 
L 320.025018 163.096615 
L 320.079318 162.976386 
L 320.242215 161.914169 
L 320.296514 162.976386 
L 320.350813 162.856421 
L 320.56801 162.856421 
L 320.676608 162.736719 
L 320.730907 161.676828 
L 320.785206 162.736719 
L 320.839506 162.736719 
L 321.002403 162.617278 
L 321.111001 162.617278 
L 321.2196 162.498098 
L 321.273899 163.555672 
L 321.328198 162.498098 
L 321.382497 162.498098 
L 321.545394 162.379179 
L 321.653993 162.379179 
L 321.708292 162.260519 
L 321.871189 163.315786 
L 322.034087 162.142118 
L 322.196984 162.142118 
L 322.359881 163.076945 
L 322.46848 163.076945 
L 322.522779 162.957913 
L 322.685676 161.906087 
L 322.739975 162.957913 
L 322.794275 162.83914 
L 323.011471 162.83914 
L 323.120069 162.720625 
L 323.174368 161.67108 
L 323.228668 162.720625 
L 323.282967 162.720625 
L 323.445864 162.602366 
L 323.554462 162.602366 
L 323.663061 162.484364 
L 323.71736 163.531636 
L 323.771659 162.484364 
L 323.825958 162.484364 
L 323.988856 162.366616 
L 324.097454 162.366616 
L 324.260351 163.294134 
L 324.31465 163.294134 
L 324.477548 162.131883 
L 324.586146 162.131883 
L 324.640445 163.175767 
L 324.694744 163.057655 
L 324.857642 163.057655 
L 325.020539 161.898161 
L 325.074838 161.898161 
L 325.183437 162.939798 
L 325.346334 162.822194 
L 325.454932 162.822194 
L 325.509231 162.704842 
L 325.563531 161.665444 
L 325.61783 162.704842 
L 325.726428 162.704842 
L 325.889325 162.587742 
L 325.997924 162.587742 
L 326.052223 162.470894 
L 326.106522 163.508064 
L 326.160821 162.470894 
L 326.269419 162.470894 
L 326.432317 162.354296 
L 326.540915 162.354296 
L 326.703812 163.272898 
L 326.86671 162.121846 
L 327.029607 162.121846 
L 327.083906 163.155692 
L 327.138206 163.038736 
L 327.301103 163.038736 
L 327.464 161.890388 
L 327.5183 161.890388 
L 327.626898 162.92203 
L 327.789795 162.805572 
L 327.898393 162.805572 
L 328.061291 162.689362 
L 328.169889 162.689362 
L 328.332787 162.573399 
L 328.441385 162.573399 
L 328.549983 163.484943 
L 328.712881 162.457682 
L 328.875778 162.34221 
L 328.930077 162.34221 
L 328.984376 163.368382 
L 329.038675 163.252068 
L 329.147274 163.252068 
L 329.310171 162.112 
L 329.418769 162.112 
L 329.527368 163.136 
L 329.690265 163.020178 
L 329.853162 161.882762 
L 329.907462 161.882762 
L 330.070359 162.9046 
L 330.233256 162.789266 
L 330.287556 162.789266 
L 330.396154 161.654491 
L 330.559051 162.674175 
L 330.61335 162.674175 
L 330.776248 162.559326 
L 330.884846 162.559326 
L 330.939145 163.462259 
L 331.102043 162.444719 
L 331.156342 162.444719 
L 331.319239 162.330353 
L 331.373538 162.330353 
L 331.427837 163.346824 
L 331.482137 163.231631 
L 331.536436 163.231631 
L 331.699333 162.216227 
L 331.807931 162.10234 
L 331.970829 163.116679 
L 332.133726 163.001969 
L 332.296624 161.87528 
L 332.459521 162.887498 
L 332.51382 162.887498 
L 332.676718 162.773266 
L 332.731017 162.773266 
L 332.785316 161.762107 
L 332.839615 162.659273 
L 333.056812 162.659273 
L 333.219709 162.545518 
L 333.274008 162.545518 
L 333.328307 163.554569 
L 333.382606 163.44 
L 333.545504 162.432 
L 333.599803 162.432 
L 333.7627 162.318718 
L 333.871299 163.325669 
L 333.979897 163.211576 
L 334.142794 162.205672 
L 334.251393 162.09286 
L 334.41429 163.09772 
L 334.522888 162.9841 
L 334.685786 161.980282 
L 334.740085 161.867938 
L 334.902982 162.870715 
L 334.957281 162.870715 
L 335.120179 162.757565 
L 335.228777 161.755826 
L 335.391674 162.644649 
L 335.500273 162.644649 
L 335.66317 162.531967 
L 335.717469 163.531636 
L 335.771768 162.531967 
L 335.934666 162.419517 
L 336.043264 162.419517 
L 336.151862 162.307299 
L 336.31476 163.304907 
L 336.369059 163.191893 
L 336.531956 162.195312 
L 336.586256 162.195312 
L 336.640555 162.083556 
L 336.803452 163.079111 
L 336.857751 163.079111 
L 336.966349 162.966561 
L 337.129247 161.972029 
L 337.292144 162.854242 
L 337.400743 162.854242 
L 337.56364 162.742154 
L 337.617939 161.749662 
L 337.672238 162.742154 
L 337.835136 162.630295 
L 337.943734 162.630295 
L 338.106631 162.518665 
L 338.160931 163.509126 
L 338.21523 162.518665 
L 338.378127 162.407264 
L 338.486725 162.407264 
L 338.595324 162.29609 
L 338.758221 163.284527 
L 338.81252 163.172571 
L 338.975418 162.185143 
L 339.029717 162.185143 
L 339.192614 163.060844 
L 339.301212 163.060844 
L 339.355512 162.949344 
L 339.518409 161.963927 
L 339.572708 162.949344 
L 339.627007 162.838071 
L 339.952802 162.727024 
L 340.007101 161.74361 
L 340.0614 162.727024 
L 340.387195 162.616203 
L 340.495793 162.505606 
L 340.550093 163.487026 
L 340.604392 162.505606 
L 340.930187 162.395234 
L 340.984486 162.285085 
L 341.147383 163.264518 
L 341.310281 162.175159 
L 341.473178 162.175159 
L 341.636075 163.042909 
L 341.798973 162.93244 
L 341.96187 161.955972 
L 342.016169 162.93244 
L 342.070468 162.822194 
L 342.396263 162.712169 
L 342.450562 161.737668 
L 342.504862 162.712169 
L 342.830656 162.602366 
L 342.884956 162.492784 
L 342.993554 163.465327 
L 343.156451 162.383422 
L 343.373648 162.383422 
L 343.536545 163.244871 
L 343.590844 163.244871 
L 343.753742 162.165355 
L 343.86234 162.165355 
L 343.916639 163.134974 
L 343.970938 163.025297 
L 344.133836 163.025297 
L 344.296733 161.94816 
L 344.351032 161.94816 
L 344.459631 162.91584 
L 344.622528 162.806601 
L 344.785425 162.697581 
L 344.839724 161.731832 
L 344.894024 162.697581 
L 345.274118 162.588778 
L 345.328417 162.480191 
L 345.382716 163.444016 
L 345.437015 162.480191 
L 345.817109 162.371821 
L 345.980006 163.225575 
L 346.142904 162.155726 
L 346.305801 162.155726 
L 346.3601 163.116679 
L 346.414399 163.008 
L 346.577297 163.008 
L 346.740194 161.940488 
L 346.903092 162.899536 
L 347.065989 162.791287 
L 347.446083 162.683252 
L 347.608981 162.575431 
L 347.717579 162.575431 
L 347.826177 163.423084 
L 347.989074 162.467822 
L 348.151972 162.360426 
L 348.206271 162.360426 
L 348.26057 163.314746 
L 348.314869 163.206621 
L 348.423468 163.206621 
L 348.586365 162.146268 
L 348.694963 162.146268 
L 348.803562 163.098709 
L 348.966459 162.991009 
L 349.129356 161.932951 
L 349.183656 161.932951 
L 349.346553 162.883521 
L 349.50945 162.776243 
L 349.563749 162.776243 
L 349.672348 161.720471 
L 349.835245 162.669176 
L 350.16104 162.562319 
L 350.215339 163.402521 
L 350.378237 162.455671 
L 350.595433 162.349232 
L 350.704031 163.295155 
L 350.81263 163.188 
L 350.975527 162.243 
L 351.084125 162.136976 
L 351.247023 163.081054 
L 351.40992 162.974316 
L 351.572818 161.925546 
L 351.735715 162.867786 
L 352.007211 162.761463 
L 352.06151 161.82014 
L 352.115809 162.655347 
L 352.550202 162.549437 
L 352.604501 163.488932 
L 352.6588 163.382316 
L 352.821698 162.443732 
L 353.038894 162.338233 
L 353.147493 163.275907 
L 353.256091 163.169704 
L 353.418988 162.232937 
L 353.527587 162.127845 
L 353.690484 163.063706 
L 353.799082 162.957913 
L 353.96198 162.022957 
L 354.016279 161.91827 
L 354.179176 162.852324 
L 354.396373 162.746939 
L 354.450672 161.813786 
L 354.504971 162.746939 
L 354.667868 162.641757 
L 354.939364 162.536778 
L 354.993663 163.468135 
L 355.047962 162.536778 
L 355.21086 162.432 
L 355.428056 162.327424 
L 355.590954 163.256991 
L 355.645253 163.151724 
L 355.80815 162.223048 
L 355.916749 162.118872 
L 356.079646 163.046658 
L 356.242543 162.941793 
L 356.405441 162.014897 
L 356.568338 162.837129 
L 356.839834 162.732665 
L 356.894133 161.807541 
L 356.948432 162.732665 
L 357.11133 162.628401 
L 357.382825 162.524336 
L 357.437124 163.447695 
L 357.491424 162.524336 
L 357.654321 162.420469 
L 357.871518 162.3168 
L 357.980116 163.2384 
L 358.143013 162.213328 
L 358.305911 162.213328 
L 358.468808 163.029901 
L 358.631706 162.925949 
L 358.794603 162.006974 
L 358.848902 162.925949 
L 358.903201 162.822194 
L 359.228996 162.718635 
L 359.283295 161.801403 
L 359.337594 162.718635 
L 359.663389 162.615273 
L 359.771987 162.512106 
L 359.826287 163.427603 
L 359.880586 162.512106 
L 360.206381 162.409134 
L 360.26068 162.306357 
L 360.423577 163.220125 
L 360.586474 162.203774 
L 360.749372 162.203774 
L 360.912269 163.013429 
L 361.075167 162.910373 
L 361.238064 161.999186 
L 361.292363 162.910373 
L 361.346662 162.807511 
L 361.672457 162.704842 
L 361.726756 161.795368 
L 361.781056 162.704842 
L 362.10685 162.602366 
L 362.161149 162.500083 
L 362.269748 163.40785 
L 362.432645 162.397991 
L 362.649842 162.397991 
L 362.812739 163.202157 
L 362.975637 162.19438 
L 363.138534 162.19438 
L 363.192833 163.0996 
L 363.247132 162.997234 
L 363.41003 162.997234 
L 363.572927 161.991529 
L 363.627226 161.991529 
L 363.735824 162.895059 
L 363.898722 162.793075 
L 364.061619 162.691281 
L 364.115918 161.789435 
L 364.170218 162.691281 
L 364.550312 162.589676 
L 364.604611 162.48826 
L 364.65891 163.388428 
L 364.713209 162.48826 
L 365.093303 162.387033 
L 365.2562 163.18449 
L 365.419098 162.185143 
L 365.581995 162.185143 
L 365.636294 163.082805 
L 365.690593 162.981309 
L 365.853491 162.981309 
L 366.016388 161.984 
L 366.179286 162.88 
L 366.342183 162.778879 
L 366.722277 162.677945 
L 366.885174 162.577197 
L 366.993773 162.577197 
L 367.102371 163.369328 
L 367.265268 162.476635 
L 367.428166 162.376258 
L 367.482465 162.376258 
L 367.536764 163.268129 
L 367.591063 163.167116 
L 367.645362 163.167116 
L 367.80826 162.276066 
L 367.971157 162.176059 
L 368.079756 163.066289 
L 368.242653 162.965647 
L 368.40555 161.976595 
L 368.459849 161.976595 
L 368.622747 162.86519 
L 368.785644 162.764917 
L 368.839943 162.764917 
L 368.948542 161.777863 
L 369.111439 162.664829 
L 369.437234 162.564923 
L 369.491533 163.350543 
L 369.654431 162.4652 
L 369.871627 162.36566 
L 369.980225 163.250194 
L 370.088824 163.150027 
L 370.251721 162.266301 
L 370.360319 162.167124 
L 370.523217 163.050044 
L 370.686114 162.950242 
L 370.849012 161.969311 
L 371.011909 162.850623 
L 371.283405 162.751185 
L 371.337704 161.870675 
L 371.392003 162.651927 
L 371.826396 162.55285 
L 371.880695 163.43176 
L 371.934994 163.332065 
L 372.097892 162.453953 
L 372.315088 162.355235 
L 372.423687 163.232551 
L 372.477986 163.133217 
L 372.640883 162.256696 
L 372.803781 162.158335 
L 372.966678 163.034063 
L 373.075276 162.935089 
L 373.238174 162.060152 
L 373.292473 161.962146 
L 373.45537 162.836293 
L 373.672567 162.737675 
L 373.726866 161.864318 
L 373.781165 162.737675 
L 373.944062 162.639235 
L 374.215558 162.540973 
L 374.269857 163.412757 
L 374.324156 162.540973 
L 374.487054 162.442887 
L 374.70425 162.344978 
L 374.867148 163.215194 
L 374.921447 163.116679 
L 375.084344 162.247245 
L 375.192943 162.149688 
L 375.35584 163.018341 
L 375.518737 162.920179 
L 375.681635 162.052305 
L 375.844532 162.822194 
L 376.116028 162.724383 
L 376.170327 161.858063 
L 376.224626 162.724383 
L 376.387524 162.626748 
L 376.659019 162.529287 
L 376.713318 163.394059 
L 376.767618 162.529287 
L 376.930515 162.432 
L 377.093412 162.334887 
L 377.25631 163.198116 
L 377.419207 162.237947 
L 377.582105 162.237947 
L 377.745002 163.002871 
L 377.907899 162.905509 
L 378.070797 162.044584 
L 378.125096 162.905509 
L 378.179395 162.80832 
L 378.50519 162.711304 
L 378.559489 161.851908 
L 378.613788 162.711304 
L 378.939583 162.61446 
L 379.048181 162.517787 
L 379.10248 163.37566 
L 379.15678 162.517787 
L 379.482574 162.421286 
L 379.536874 162.324956 
L 379.699771 163.18131 
L 379.862668 162.228796 
L 380.025566 162.228796 
L 380.188463 162.987647 
L 380.351361 162.891071 
L 380.514258 162.036985 
L 380.568557 162.891071 
L 380.622856 162.794667 
L 381.111549 162.698432 
L 381.274446 162.602366 
L 381.437343 162.50647 
L 381.545942 163.357551 
L 381.708839 162.410742 
L 381.926036 162.410742 
L 382.088933 163.164769 
L 382.25183 162.219789 
L 382.414728 162.219789 
L 382.469027 163.068632 
L 382.523326 162.972663 
L 382.686224 162.972663 
L 382.849121 162.029506 
L 382.90342 162.029506 
L 383.012018 162.876862 
L 383.174916 162.781228 
L 383.337813 162.685762 
L 383.392112 161.839888 
L 383.446412 162.685762 
L 383.826505 162.590463 
L 383.880805 162.49533 
L 383.935104 163.339728 
L 383.989403 162.49533 
L 384.369497 162.400363 
L 384.532394 163.148488 
L 384.695292 162.210924 
L 384.80389 162.210924 
L 384.912488 163.053117 
L 385.075386 162.957913 
L 385.129685 162.957913 
L 385.292582 162.022144 
L 385.45548 162.862874 
L 385.618377 162.768 
L 385.998471 162.673291 
L 386.161368 162.578745 
L 386.269967 162.578745 
L 386.378565 163.322182 
L 386.541462 162.484364 
L 386.70436 162.390145 
L 386.758659 162.390145 
L 386.812958 163.227239 
L 386.867257 163.13246 
L 386.921556 163.13246 
L 387.084454 162.29609 
L 387.247351 162.202197 
L 387.355949 163.037845 
L 387.518847 162.943393 
L 387.681744 162.014897 
L 387.736043 162.014897 
L 387.898941 162.849103 
L 388.061838 162.754977 
L 388.116137 162.754977 
L 388.224736 161.828241 
L 388.387633 162.661012 
L 388.659129 162.567209 
L 388.713428 163.399264 
L 388.767727 163.304907 
L 388.930624 162.473567 
L 389.147821 162.380086 
L 389.256419 163.210712 
L 389.365018 163.116679 
L 389.527915 162.286765 
L 389.636513 162.193604 
L 389.799411 163.022807 
L 389.962308 162.929096 
L 390.125205 162.00776 
L 390.288103 162.835545 
L 390.559599 162.742154 
L 390.613898 161.915077 
L 390.668197 162.648922 
L 391.10259 162.55585 
L 391.156889 163.381515 
L 391.211188 163.287898 
L 391.374086 162.462936 
L 391.591282 162.370181 
L 391.69988 163.19444 
L 391.75418 163.10114 
L 391.917077 162.277583 
L 392.079974 162.185143 
L 392.242872 163.008 
L 392.35147 162.915018 
L 392.514368 162.09286 
L 392.677265 162.822194 
L 392.948761 162.729527 
L 393.00306 161.908763 
L 393.057359 162.729527 
L 393.220256 162.637017 
L 393.491752 162.544664 
L 393.546051 163.364037 
L 393.60035 162.544664 
L 393.763248 162.452467 
L 393.980444 162.360426 
L 394.143342 163.178414 
L 394.197641 163.085838 
L 394.360538 162.268541 
L 394.469137 162.17681 
L 394.632034 162.993418 
L 394.794931 162.901153 
L 394.957829 162.085234 
L 395.120726 162.809045 
L 395.392222 162.717091 
L 395.446521 161.902545 
L 395.50082 162.717091 
L 395.663718 162.625292 
L 395.935213 162.533647 
L 395.989512 163.346824 
L 396.043812 162.533647 
L 396.206709 162.442156 
L 396.369606 162.350819 
L 396.532504 163.162631 
L 396.695401 162.259635 
L 396.858299 162.259635 
L 397.021196 162.979055 
L 397.184093 162.887498 
L 397.346991 162.077724 
L 397.40129 162.887498 
L 397.455589 162.796094 
L 397.781384 162.704842 
L 397.835683 161.896421 
L 397.889982 162.704842 
L 398.215777 162.613743 
L 398.324375 162.522796 
L 398.378674 163.329868 
L 398.432974 162.522796 
L 398.487273 162.522796 
L 398.487273 162.522796 
" style="fill:none;stroke:#1f77b4;stroke-linecap:square;stroke-width:1.5;"/>
   </g>
   <g id="patch_3">
    <path d="M 57.6 307.584 
L 57.6 41.472 
" style="fill:none;stroke:#000000;stroke-linecap:square;stroke-linejoin:miter;stroke-width:0.8;"/>
   </g>
   <g id="patch_4">
    <path d="M 414.72 307.584 
L 414.72 41.472 
" style="fill:none;stroke:#000000;stroke-linecap:square;stroke-linejoin:miter;stroke-width:0.8;"/>
   </g>
   <g id="patch_5">
    <path d="M 57.6 307.584 
L 414.72 307.584 
" style="fill:none;stroke:#000000;stroke-linecap:square;stroke-linejoin:miter;stroke-width:0.8;"/>
   </g>
   <g id="patch_6">
    <path d="M 57.6 41.472 
L 414.72 41.472 
" style="fill:none;stroke:#000000;stroke-linecap:square;stroke-linejoin:miter;stroke-width:0.8;"/>
   </g>
  </g>
 </g>
 <defs>
  <clipPath id="p7ccb1f813e">
   <rect height="266.112" width="357.12" x="57.6" y="41.472"/>
  </clipPath>
 </defs>
</svg>
