<?xml version="1.0" encoding="utf-8" standalone="no"?>
<!DOCTYPE svg PUBLIC "-//W3C//DTD SVG 1.1//EN"
  "http://www.w3.org/Graphics/SVG/1.1/DTD/svg11.dtd">
<!-- Created with matplotlib (https://matplotlib.org/) -->
<svg height="345.6pt" version="1.1" viewBox="0 0 460.8 345.6" width="460.8pt" xmlns="http://www.w3.org/2000/svg" xmlns:xlink="http://www.w3.org/1999/xlink">
 <metadata>
  <rdf:RDF xmlns:cc="http://creativecommons.org/ns#" xmlns:dc="http://purl.org/dc/elements/1.1/" xmlns:rdf="http://www.w3.org/1999/02/22-rdf-syntax-ns#">
   <cc:Work>
    <dc:type rdf:resource="http://purl.org/dc/dcmitype/StillImage"/>
    <dc:date>2022-08-02T01:19:50.893928</dc:date>
    <dc:format>image/svg+xml</dc:format>
    <dc:creator>
     <cc:Agent>
      <dc:title>Matplotlib v3.3.4, https://matplotlib.org/</dc:title>
     </cc:Agent>
    </dc:creator>
   </cc:Work>
  </rdf:RDF>
 </metadata>
 <defs>
  <style type="text/css">*{stroke-linecap:butt;stroke-linejoin:round;}</style>
 </defs>
 <g id="figure_1">
  <g id="patch_1">
   <path d="M 0 345.6 
L 460.8 345.6 
L 460.8 0 
L 0 0 
z
" style="fill:#ffffff;"/>
  </g>
  <g id="axes_1">
   <g id="patch_2">
    <path d="M 57.6 307.584 
L 414.72 307.584 
L 414.72 41.472 
L 57.6 41.472 
z
" style="fill:#ffffff;"/>
   </g>
   <g id="matplotlib.axis_1">
    <g id="xtick_1">
     <g id="line2d_1">
      <path clip-path="url(#p88e7a14110)" d="M 72.692445 307.584 
L 72.692445 41.472 
" style="fill:none;stroke:#b0b0b0;stroke-linecap:square;stroke-width:0.8;"/>
     </g>
     <g id="line2d_2">
      <defs>
       <path d="M 0 0 
L 0 3.5 
" id="m14088f8cab" style="stroke:#000000;stroke-width:0.8;"/>
      </defs>
      <g>
       <use style="stroke:#000000;stroke-width:0.8;" x="72.692445" xlink:href="#m14088f8cab" y="307.584"/>
      </g>
     </g>
     <g id="text_1">
      <!-- 0 -->
      <g transform="translate(69.511195 322.182437)scale(0.1 -0.1)">
       <defs>
        <path d="M 31.78125 3.421875 
Q 39.265625 3.421875 42.96875 11.625 
Q 46.6875 19.828125 46.6875 36.375 
Q 46.6875 52.984375 42.96875 61.1875 
Q 39.265625 69.390625 31.78125 69.390625 
Q 24.3125 69.390625 20.59375 61.1875 
Q 16.890625 52.984375 16.890625 36.375 
Q 16.890625 19.828125 20.59375 11.625 
Q 24.3125 3.421875 31.78125 3.421875 
z
M 31.78125 -1.421875 
Q 19.921875 -1.421875 13.25 8.53125 
Q 6.59375 18.5 6.59375 36.375 
Q 6.59375 54.296875 13.25 64.25 
Q 19.921875 74.21875 31.78125 74.21875 
Q 43.703125 74.21875 50.34375 64.25 
Q 56.984375 54.296875 56.984375 36.375 
Q 56.984375 18.5 50.34375 8.53125 
Q 43.703125 -1.421875 31.78125 -1.421875 
z
" id="DejaVuSerif-48"/>
       </defs>
       <use xlink:href="#DejaVuSerif-48"/>
      </g>
     </g>
    </g>
    <g id="xtick_2">
     <g id="line2d_3">
      <path clip-path="url(#p88e7a14110)" d="M 126.991583 307.584 
L 126.991583 41.472 
" style="fill:none;stroke:#b0b0b0;stroke-linecap:square;stroke-width:0.8;"/>
     </g>
     <g id="line2d_4">
      <g>
       <use style="stroke:#000000;stroke-width:0.8;" x="126.991583" xlink:href="#m14088f8cab" y="307.584"/>
      </g>
     </g>
     <g id="text_2">
      <!-- 100 -->
      <g transform="translate(117.447833 322.182437)scale(0.1 -0.1)">
       <defs>
        <path d="M 14.203125 0 
L 14.203125 5.171875 
L 26.90625 5.171875 
L 26.90625 65.828125 
L 12.203125 56.296875 
L 12.203125 62.703125 
L 29.984375 74.21875 
L 36.71875 74.21875 
L 36.71875 5.171875 
L 49.421875 5.171875 
L 49.421875 0 
z
" id="DejaVuSerif-49"/>
       </defs>
       <use xlink:href="#DejaVuSerif-49"/>
       <use x="63.623047" xlink:href="#DejaVuSerif-48"/>
       <use x="127.246094" xlink:href="#DejaVuSerif-48"/>
      </g>
     </g>
    </g>
    <g id="xtick_3">
     <g id="line2d_5">
      <path clip-path="url(#p88e7a14110)" d="M 181.290721 307.584 
L 181.290721 41.472 
" style="fill:none;stroke:#b0b0b0;stroke-linecap:square;stroke-width:0.8;"/>
     </g>
     <g id="line2d_6">
      <g>
       <use style="stroke:#000000;stroke-width:0.8;" x="181.290721" xlink:href="#m14088f8cab" y="307.584"/>
      </g>
     </g>
     <g id="text_3">
      <!-- 200 -->
      <g transform="translate(171.746971 322.182437)scale(0.1 -0.1)">
       <defs>
        <path d="M 12.796875 55.515625 
L 7.328125 55.515625 
L 7.328125 68.5 
Q 12.546875 71.296875 17.84375 72.75 
Q 23.140625 74.21875 28.21875 74.21875 
Q 39.59375 74.21875 46.1875 68.703125 
Q 52.78125 63.1875 52.78125 53.71875 
Q 52.78125 43.015625 37.84375 28.125 
Q 36.671875 27 36.078125 26.421875 
L 17.671875 8.015625 
L 48.09375 8.015625 
L 48.09375 17 
L 53.8125 17 
L 53.8125 0 
L 6.78125 0 
L 6.78125 5.328125 
L 28.90625 27.390625 
Q 36.234375 34.71875 39.359375 40.84375 
Q 42.484375 46.96875 42.484375 53.71875 
Q 42.484375 61.078125 38.640625 65.234375 
Q 34.8125 69.390625 28.078125 69.390625 
Q 21.09375 69.390625 17.28125 65.921875 
Q 13.484375 62.453125 12.796875 55.515625 
z
" id="DejaVuSerif-50"/>
       </defs>
       <use xlink:href="#DejaVuSerif-50"/>
       <use x="63.623047" xlink:href="#DejaVuSerif-48"/>
       <use x="127.246094" xlink:href="#DejaVuSerif-48"/>
      </g>
     </g>
    </g>
    <g id="xtick_4">
     <g id="line2d_7">
      <path clip-path="url(#p88e7a14110)" d="M 235.589859 307.584 
L 235.589859 41.472 
" style="fill:none;stroke:#b0b0b0;stroke-linecap:square;stroke-width:0.8;"/>
     </g>
     <g id="line2d_8">
      <g>
       <use style="stroke:#000000;stroke-width:0.8;" x="235.589859" xlink:href="#m14088f8cab" y="307.584"/>
      </g>
     </g>
     <g id="text_4">
      <!-- 300 -->
      <g transform="translate(226.046109 322.182437)scale(0.1 -0.1)">
       <defs>
        <path d="M 9.71875 69.828125 
Q 15.4375 71.96875 20.671875 73.09375 
Q 25.921875 74.21875 30.515625 74.21875 
Q 41.21875 74.21875 47.21875 69.59375 
Q 53.21875 64.984375 53.21875 56.78125 
Q 53.21875 50.203125 49.0625 45.78125 
Q 44.921875 41.359375 37.3125 39.796875 
Q 46.296875 38.53125 51.25 33.28125 
Q 56.203125 28.03125 56.203125 19.671875 
Q 56.203125 9.46875 49.34375 4.015625 
Q 42.484375 -1.421875 29.59375 -1.421875 
Q 23.875 -1.421875 18.421875 -0.1875 
Q 12.984375 1.03125 7.625 3.515625 
L 7.625 17.671875 
L 13.09375 17.671875 
Q 13.578125 10.640625 17.828125 7.03125 
Q 22.078125 3.421875 29.78125 3.421875 
Q 37.25 3.421875 41.578125 7.734375 
Q 45.90625 12.0625 45.90625 19.578125 
Q 45.90625 28.171875 41.453125 32.59375 
Q 37.015625 37.015625 28.421875 37.015625 
L 23.78125 37.015625 
L 23.78125 42 
L 26.21875 42 
Q 34.765625 42 39.03125 45.53125 
Q 43.3125 49.078125 43.3125 56.203125 
Q 43.3125 62.59375 39.796875 65.984375 
Q 36.28125 69.390625 29.6875 69.390625 
Q 23.09375 69.390625 19.453125 66.265625 
Q 15.828125 63.140625 15.1875 56.984375 
L 9.71875 56.984375 
z
" id="DejaVuSerif-51"/>
       </defs>
       <use xlink:href="#DejaVuSerif-51"/>
       <use x="63.623047" xlink:href="#DejaVuSerif-48"/>
       <use x="127.246094" xlink:href="#DejaVuSerif-48"/>
      </g>
     </g>
    </g>
    <g id="xtick_5">
     <g id="line2d_9">
      <path clip-path="url(#p88e7a14110)" d="M 289.888997 307.584 
L 289.888997 41.472 
" style="fill:none;stroke:#b0b0b0;stroke-linecap:square;stroke-width:0.8;"/>
     </g>
     <g id="line2d_10">
      <g>
       <use style="stroke:#000000;stroke-width:0.8;" x="289.888997" xlink:href="#m14088f8cab" y="307.584"/>
      </g>
     </g>
     <g id="text_5">
      <!-- 400 -->
      <g transform="translate(280.345247 322.182437)scale(0.1 -0.1)">
       <defs>
        <path d="M 34.90625 24.703125 
L 34.90625 63.484375 
L 10.015625 24.703125 
z
M 56.390625 0 
L 23.1875 0 
L 23.1875 5.171875 
L 34.90625 5.171875 
L 34.90625 19.484375 
L 3.078125 19.484375 
L 3.078125 24.8125 
L 35.015625 74.21875 
L 44.671875 74.21875 
L 44.671875 24.703125 
L 58.59375 24.703125 
L 58.59375 19.484375 
L 44.671875 19.484375 
L 44.671875 5.171875 
L 56.390625 5.171875 
z
" id="DejaVuSerif-52"/>
       </defs>
       <use xlink:href="#DejaVuSerif-52"/>
       <use x="63.623047" xlink:href="#DejaVuSerif-48"/>
       <use x="127.246094" xlink:href="#DejaVuSerif-48"/>
      </g>
     </g>
    </g>
    <g id="xtick_6">
     <g id="line2d_11">
      <path clip-path="url(#p88e7a14110)" d="M 344.188135 307.584 
L 344.188135 41.472 
" style="fill:none;stroke:#b0b0b0;stroke-linecap:square;stroke-width:0.8;"/>
     </g>
     <g id="line2d_12">
      <g>
       <use style="stroke:#000000;stroke-width:0.8;" x="344.188135" xlink:href="#m14088f8cab" y="307.584"/>
      </g>
     </g>
     <g id="text_6">
      <!-- 500 -->
      <g transform="translate(334.644385 322.182437)scale(0.1 -0.1)">
       <defs>
        <path d="M 50.296875 72.90625 
L 50.296875 64.890625 
L 16.890625 64.890625 
L 16.890625 44 
Q 19.4375 45.75 22.828125 46.625 
Q 26.21875 47.515625 30.421875 47.515625 
Q 42.234375 47.515625 49.0625 40.96875 
Q 55.90625 34.421875 55.90625 23.09375 
Q 55.90625 11.53125 49 5.046875 
Q 42.09375 -1.421875 29.59375 -1.421875 
Q 24.5625 -1.421875 19.28125 -0.1875 
Q 14.015625 1.03125 8.5 3.515625 
L 8.5 17.671875 
L 14.015625 17.671875 
Q 14.453125 10.75 18.421875 7.078125 
Q 22.40625 3.421875 29.59375 3.421875 
Q 37.3125 3.421875 41.453125 8.5 
Q 45.609375 13.578125 45.609375 23.09375 
Q 45.609375 32.5625 41.484375 37.609375 
Q 37.359375 42.671875 29.59375 42.671875 
Q 25.203125 42.671875 21.84375 41.109375 
Q 18.5 39.546875 15.921875 36.28125 
L 11.71875 36.28125 
L 11.71875 72.90625 
z
" id="DejaVuSerif-53"/>
       </defs>
       <use xlink:href="#DejaVuSerif-53"/>
       <use x="63.623047" xlink:href="#DejaVuSerif-48"/>
       <use x="127.246094" xlink:href="#DejaVuSerif-48"/>
      </g>
     </g>
    </g>
    <g id="xtick_7">
     <g id="line2d_13">
      <path clip-path="url(#p88e7a14110)" d="M 398.487273 307.584 
L 398.487273 41.472 
" style="fill:none;stroke:#b0b0b0;stroke-linecap:square;stroke-width:0.8;"/>
     </g>
     <g id="line2d_14">
      <g>
       <use style="stroke:#000000;stroke-width:0.8;" x="398.487273" xlink:href="#m14088f8cab" y="307.584"/>
      </g>
     </g>
     <g id="text_7">
      <!-- 600 -->
      <g transform="translate(388.943523 322.182437)scale(0.1 -0.1)">
       <defs>
        <path d="M 32.71875 3.421875 
Q 39.59375 3.421875 43.296875 8.46875 
Q 47.015625 13.53125 47.015625 23 
Q 47.015625 32.46875 43.296875 37.515625 
Q 39.59375 42.578125 32.71875 42.578125 
Q 25.734375 42.578125 22.0625 37.6875 
Q 18.40625 32.8125 18.40625 23.578125 
Q 18.40625 13.875 22.109375 8.640625 
Q 25.828125 3.421875 32.71875 3.421875 
z
M 16.796875 40.140625 
Q 20.125 43.796875 24.3125 45.59375 
Q 28.515625 47.40625 33.796875 47.40625 
Q 44.671875 47.40625 51 40.859375 
Q 57.328125 34.328125 57.328125 23 
Q 57.328125 11.921875 50.515625 5.25 
Q 43.703125 -1.421875 32.328125 -1.421875 
Q 19.96875 -1.421875 13.328125 7.78125 
Q 6.6875 17 6.6875 34.078125 
Q 6.6875 53.21875 14.546875 63.71875 
Q 22.40625 74.21875 36.71875 74.21875 
Q 40.578125 74.21875 44.828125 73.484375 
Q 49.078125 72.75 53.515625 71.296875 
L 53.515625 59.28125 
L 48 59.28125 
Q 47.40625 64.203125 44.234375 66.796875 
Q 41.0625 69.390625 35.6875 69.390625 
Q 26.21875 69.390625 21.578125 62.203125 
Q 16.9375 55.03125 16.796875 40.140625 
z
" id="DejaVuSerif-54"/>
       </defs>
       <use xlink:href="#DejaVuSerif-54"/>
       <use x="63.623047" xlink:href="#DejaVuSerif-48"/>
       <use x="127.246094" xlink:href="#DejaVuSerif-48"/>
      </g>
     </g>
    </g>
   </g>
   <g id="matplotlib.axis_2">
    <g id="ytick_1">
     <g id="line2d_15">
      <path clip-path="url(#p88e7a14110)" d="M 57.6 295.488 
L 414.72 295.488 
" style="fill:none;stroke:#b0b0b0;stroke-linecap:square;stroke-width:0.8;"/>
     </g>
     <g id="line2d_16">
      <defs>
       <path d="M 0 0 
L -3.5 0 
" id="mc1ad673996" style="stroke:#000000;stroke-width:0.8;"/>
      </defs>
      <g>
       <use style="stroke:#000000;stroke-width:0.8;" x="57.6" xlink:href="#mc1ad673996" y="295.488"/>
      </g>
     </g>
     <g id="text_8">
      <!-- 0.00 -->
      <g transform="translate(28.334375 299.287219)scale(0.1 -0.1)">
       <defs>
        <path d="M 9.421875 5.078125 
Q 9.421875 7.8125 11.28125 9.71875 
Q 13.140625 11.625 15.921875 11.625 
Q 18.609375 11.625 20.5 9.71875 
Q 22.40625 7.8125 22.40625 5.078125 
Q 22.40625 2.390625 20.5 0.484375 
Q 18.609375 -1.421875 15.921875 -1.421875 
Q 13.140625 -1.421875 11.28125 0.453125 
Q 9.421875 2.34375 9.421875 5.078125 
z
" id="DejaVuSerif-46"/>
       </defs>
       <use xlink:href="#DejaVuSerif-48"/>
       <use x="63.623047" xlink:href="#DejaVuSerif-46"/>
       <use x="95.410156" xlink:href="#DejaVuSerif-48"/>
       <use x="159.033203" xlink:href="#DejaVuSerif-48"/>
      </g>
     </g>
    </g>
    <g id="ytick_2">
     <g id="line2d_17">
      <path clip-path="url(#p88e7a14110)" d="M 57.6 265.48992 
L 414.72 265.48992 
" style="fill:none;stroke:#b0b0b0;stroke-linecap:square;stroke-width:0.8;"/>
     </g>
     <g id="line2d_18">
      <g>
       <use style="stroke:#000000;stroke-width:0.8;" x="57.6" xlink:href="#mc1ad673996" y="265.48992"/>
      </g>
     </g>
     <g id="text_9">
      <!-- 0.02 -->
      <g transform="translate(28.334375 269.289139)scale(0.1 -0.1)">
       <use xlink:href="#DejaVuSerif-48"/>
       <use x="63.623047" xlink:href="#DejaVuSerif-46"/>
       <use x="95.410156" xlink:href="#DejaVuSerif-48"/>
       <use x="159.033203" xlink:href="#DejaVuSerif-50"/>
      </g>
     </g>
    </g>
    <g id="ytick_3">
     <g id="line2d_19">
      <path clip-path="url(#p88e7a14110)" d="M 57.6 235.49184 
L 414.72 235.49184 
" style="fill:none;stroke:#b0b0b0;stroke-linecap:square;stroke-width:0.8;"/>
     </g>
     <g id="line2d_20">
      <g>
       <use style="stroke:#000000;stroke-width:0.8;" x="57.6" xlink:href="#mc1ad673996" y="235.49184"/>
      </g>
     </g>
     <g id="text_10">
      <!-- 0.04 -->
      <g transform="translate(28.334375 239.291059)scale(0.1 -0.1)">
       <use xlink:href="#DejaVuSerif-48"/>
       <use x="63.623047" xlink:href="#DejaVuSerif-46"/>
       <use x="95.410156" xlink:href="#DejaVuSerif-48"/>
       <use x="159.033203" xlink:href="#DejaVuSerif-52"/>
      </g>
     </g>
    </g>
    <g id="ytick_4">
     <g id="line2d_21">
      <path clip-path="url(#p88e7a14110)" d="M 57.6 205.49376 
L 414.72 205.49376 
" style="fill:none;stroke:#b0b0b0;stroke-linecap:square;stroke-width:0.8;"/>
     </g>
     <g id="line2d_22">
      <g>
       <use style="stroke:#000000;stroke-width:0.8;" x="57.6" xlink:href="#mc1ad673996" y="205.49376"/>
      </g>
     </g>
     <g id="text_11">
      <!-- 0.06 -->
      <g transform="translate(28.334375 209.292979)scale(0.1 -0.1)">
       <use xlink:href="#DejaVuSerif-48"/>
       <use x="63.623047" xlink:href="#DejaVuSerif-46"/>
       <use x="95.410156" xlink:href="#DejaVuSerif-48"/>
       <use x="159.033203" xlink:href="#DejaVuSerif-54"/>
      </g>
     </g>
    </g>
    <g id="ytick_5">
     <g id="line2d_23">
      <path clip-path="url(#p88e7a14110)" d="M 57.6 175.49568 
L 414.72 175.49568 
" style="fill:none;stroke:#b0b0b0;stroke-linecap:square;stroke-width:0.8;"/>
     </g>
     <g id="line2d_24">
      <g>
       <use style="stroke:#000000;stroke-width:0.8;" x="57.6" xlink:href="#mc1ad673996" y="175.49568"/>
      </g>
     </g>
     <g id="text_12">
      <!-- 0.08 -->
      <g transform="translate(28.334375 179.294899)scale(0.1 -0.1)">
       <defs>
        <path d="M 46.578125 19.921875 
Q 46.578125 27.734375 42.6875 32.046875 
Q 38.8125 36.375 31.78125 36.375 
Q 24.75 36.375 20.875 32.046875 
Q 17 27.734375 17 19.921875 
Q 17 12.0625 20.875 7.734375 
Q 24.75 3.421875 31.78125 3.421875 
Q 38.8125 3.421875 42.6875 7.734375 
Q 46.578125 12.0625 46.578125 19.921875 
z
M 44.578125 55.328125 
Q 44.578125 61.96875 41.203125 65.671875 
Q 37.84375 69.390625 31.78125 69.390625 
Q 25.78125 69.390625 22.390625 65.671875 
Q 19 61.96875 19 55.328125 
Q 19 48.640625 22.390625 44.921875 
Q 25.78125 41.21875 31.78125 41.21875 
Q 37.84375 41.21875 41.203125 44.921875 
Q 44.578125 48.640625 44.578125 55.328125 
z
M 39.3125 38.8125 
Q 47.609375 37.703125 52.25 32.6875 
Q 56.890625 27.6875 56.890625 19.921875 
Q 56.890625 9.671875 50.390625 4.125 
Q 43.890625 -1.421875 31.78125 -1.421875 
Q 19.734375 -1.421875 13.203125 4.125 
Q 6.6875 9.671875 6.6875 19.921875 
Q 6.6875 27.6875 11.328125 32.6875 
Q 15.96875 37.703125 24.3125 38.8125 
Q 16.9375 40.140625 13 44.40625 
Q 9.078125 48.6875 9.078125 55.328125 
Q 9.078125 64.109375 15.125 69.15625 
Q 21.1875 74.21875 31.78125 74.21875 
Q 42.390625 74.21875 48.4375 69.15625 
Q 54.5 64.109375 54.5 55.328125 
Q 54.5 48.6875 50.5625 44.40625 
Q 46.625 40.140625 39.3125 38.8125 
z
" id="DejaVuSerif-56"/>
       </defs>
       <use xlink:href="#DejaVuSerif-48"/>
       <use x="63.623047" xlink:href="#DejaVuSerif-46"/>
       <use x="95.410156" xlink:href="#DejaVuSerif-48"/>
       <use x="159.033203" xlink:href="#DejaVuSerif-56"/>
      </g>
     </g>
    </g>
    <g id="ytick_6">
     <g id="line2d_25">
      <path clip-path="url(#p88e7a14110)" d="M 57.6 145.4976 
L 414.72 145.4976 
" style="fill:none;stroke:#b0b0b0;stroke-linecap:square;stroke-width:0.8;"/>
     </g>
     <g id="line2d_26">
      <g>
       <use style="stroke:#000000;stroke-width:0.8;" x="57.6" xlink:href="#mc1ad673996" y="145.4976"/>
      </g>
     </g>
     <g id="text_13">
      <!-- 0.10 -->
      <g transform="translate(28.334375 149.296819)scale(0.1 -0.1)">
       <use xlink:href="#DejaVuSerif-48"/>
       <use x="63.623047" xlink:href="#DejaVuSerif-46"/>
       <use x="95.410156" xlink:href="#DejaVuSerif-49"/>
       <use x="159.033203" xlink:href="#DejaVuSerif-48"/>
      </g>
     </g>
    </g>
    <g id="ytick_7">
     <g id="line2d_27">
      <path clip-path="url(#p88e7a14110)" d="M 57.6 115.49952 
L 414.72 115.49952 
" style="fill:none;stroke:#b0b0b0;stroke-linecap:square;stroke-width:0.8;"/>
     </g>
     <g id="line2d_28">
      <g>
       <use style="stroke:#000000;stroke-width:0.8;" x="57.6" xlink:href="#mc1ad673996" y="115.49952"/>
      </g>
     </g>
     <g id="text_14">
      <!-- 0.12 -->
      <g transform="translate(28.334375 119.298739)scale(0.1 -0.1)">
       <use xlink:href="#DejaVuSerif-48"/>
       <use x="63.623047" xlink:href="#DejaVuSerif-46"/>
       <use x="95.410156" xlink:href="#DejaVuSerif-49"/>
       <use x="159.033203" xlink:href="#DejaVuSerif-50"/>
      </g>
     </g>
    </g>
    <g id="ytick_8">
     <g id="line2d_29">
      <path clip-path="url(#p88e7a14110)" d="M 57.6 85.50144 
L 414.72 85.50144 
" style="fill:none;stroke:#b0b0b0;stroke-linecap:square;stroke-width:0.8;"/>
     </g>
     <g id="line2d_30">
      <g>
       <use style="stroke:#000000;stroke-width:0.8;" x="57.6" xlink:href="#mc1ad673996" y="85.50144"/>
      </g>
     </g>
     <g id="text_15">
      <!-- 0.14 -->
      <g transform="translate(28.334375 89.300659)scale(0.1 -0.1)">
       <use xlink:href="#DejaVuSerif-48"/>
       <use x="63.623047" xlink:href="#DejaVuSerif-46"/>
       <use x="95.410156" xlink:href="#DejaVuSerif-49"/>
       <use x="159.033203" xlink:href="#DejaVuSerif-52"/>
      </g>
     </g>
    </g>
    <g id="ytick_9">
     <g id="line2d_31">
      <path clip-path="url(#p88e7a14110)" d="M 57.6 55.50336 
L 414.72 55.50336 
" style="fill:none;stroke:#b0b0b0;stroke-linecap:square;stroke-width:0.8;"/>
     </g>
     <g id="line2d_32">
      <g>
       <use style="stroke:#000000;stroke-width:0.8;" x="57.6" xlink:href="#mc1ad673996" y="55.50336"/>
      </g>
     </g>
     <g id="text_16">
      <!-- 0.16 -->
      <g transform="translate(28.334375 59.302579)scale(0.1 -0.1)">
       <use xlink:href="#DejaVuSerif-48"/>
       <use x="63.623047" xlink:href="#DejaVuSerif-46"/>
       <use x="95.410156" xlink:href="#DejaVuSerif-49"/>
       <use x="159.033203" xlink:href="#DejaVuSerif-54"/>
      </g>
     </g>
    </g>
   </g>
   <g id="line2d_33">
    <path clip-path="url(#p88e7a14110)" d="M 73.832727 295.488 
L 106.41221 295.488 
L 106.575107 53.568 
L 106.629407 53.568 
L 106.792304 55.50336 
L 106.900902 55.50336 
L 107.0638 57.408 
L 107.172398 57.408 
L 107.335295 59.282646 
L 107.443894 59.282646 
L 107.606791 61.128 
L 107.715389 61.128 
L 107.878287 62.944744 
L 107.986885 62.944744 
L 108.149782 64.733538 
L 108.258381 64.733538 
L 108.421278 66.495023 
L 108.529876 66.495023 
L 108.692774 68.229818 
L 108.801372 68.229818 
L 108.964269 69.938526 
L 109.072868 69.938526 
L 109.235765 71.621731 
L 109.344363 71.621731 
L 109.507261 73.28 
L 109.615859 73.28 
L 109.778757 74.913882 
L 109.887355 74.913882 
L 110.050252 76.523912 
L 110.158851 76.523912 
L 110.321748 78.110609 
L 110.430346 78.110609 
L 110.593244 79.674475 
L 110.701842 79.674475 
L 110.864739 81.216 
L 110.973338 81.216 
L 111.136235 82.73566 
L 111.244833 82.73566 
L 111.407731 84.233915 
L 111.516329 84.233915 
L 111.679226 85.711217 
L 111.787825 85.711217 
L 111.950722 87.168 
L 112.05932 87.168 
L 112.222218 88.60469 
L 112.330816 88.60469 
L 112.493713 90.021699 
L 112.602312 90.021699 
L 112.765209 91.419429 
L 112.873807 91.419429 
L 113.036705 92.79827 
L 113.145303 92.79827 
L 113.308201 94.158604 
L 113.416799 94.158604 
L 113.579696 95.5008 
L 113.688294 95.5008 
L 113.851192 96.825219 
L 113.95979 96.825219 
L 114.122688 98.132211 
L 114.231286 98.132211 
L 114.394183 99.422118 
L 114.502782 99.422118 
L 114.665679 100.695273 
L 114.774277 100.695273 
L 114.828576 101.952 
L 114.991474 295.488 
L 120.312789 295.488 
L 120.475687 124.0704 
L 120.638584 125.044364 
L 120.747182 125.044364 
L 120.91008 126.007322 
L 121.018678 126.007322 
L 121.181576 126.959461 
L 121.290174 126.959461 
L 121.453071 127.900961 
L 121.561669 127.900961 
L 121.724567 128.832 
L 121.833165 128.832 
L 121.996063 129.752751 
L 122.104661 129.752751 
L 122.267558 130.663385 
L 122.376157 130.663385 
L 122.539054 131.564066 
L 122.647652 131.564066 
L 122.81055 132.454957 
L 122.919148 132.454957 
L 123.082045 133.336216 
L 123.190644 133.336216 
L 123.353541 134.208 
L 123.462139 134.208 
L 123.625037 135.07046 
L 123.733635 135.07046 
L 123.896532 135.923745 
L 124.005131 135.923745 
L 124.168028 136.768 
L 124.276626 136.768 
L 124.439524 137.603368 
L 124.548122 137.603368 
L 124.711019 138.42999 
L 124.819618 138.42999 
L 124.982515 139.248 
L 125.091113 139.248 
L 125.254011 140.057534 
L 125.362609 140.057534 
L 125.525507 140.858722 
L 125.634105 140.858722 
L 125.797002 141.651692 
L 125.905601 141.651692 
L 126.068498 142.436571 
L 126.177096 142.436571 
L 126.339994 143.213482 
L 126.448592 143.213482 
L 126.611489 143.982545 
L 126.720088 143.982545 
L 126.882985 144.743879 
L 126.991583 144.743879 
L 127.154481 145.4976 
L 127.263079 145.4976 
L 127.425976 146.243821 
L 127.534575 146.243821 
L 127.697472 146.982653 
L 127.80607 146.982653 
L 127.968968 147.714207 
L 128.077566 147.714207 
L 128.240463 148.438588 
L 128.349062 148.438588 
L 128.511959 149.155902 
L 128.620557 149.155902 
L 128.783455 149.866252 
L 128.892053 149.866252 
L 129.054951 150.569739 
L 129.163549 150.569739 
L 129.326446 151.266462 
L 129.435044 151.266462 
L 129.597942 151.956517 
L 129.70654 151.956517 
L 129.869438 152.64 
L 129.978036 152.64 
L 130.140933 153.317005 
L 130.249532 153.317005 
L 130.412429 153.987623 
L 130.521027 153.987623 
L 130.683925 154.651944 
L 130.792523 154.651944 
L 130.95542 155.310056 
L 131.064019 155.310056 
L 131.226916 155.962047 
L 131.335514 155.962047 
L 131.498412 156.608 
L 131.60701 156.608 
L 131.769907 157.248 
L 131.878506 157.248 
L 132.041403 157.882128 
L 132.150001 157.882128 
L 132.204301 158.510466 
L 132.367198 295.488 
L 136.113838 295.488 
L 136.222437 166.740876 
L 136.276736 167.291077 
L 136.493932 167.291077 
L 136.65683 167.836596 
L 136.765428 167.836596 
L 136.928326 168.377492 
L 137.036924 168.377492 
L 137.199821 168.913823 
L 137.308419 168.913823 
L 137.471317 169.445647 
L 137.579915 169.445647 
L 137.742813 169.973021 
L 137.851411 169.973021 
L 138.014308 170.496 
L 138.122907 170.496 
L 138.285804 171.014639 
L 138.394402 171.014639 
L 138.5573 171.528992 
L 138.665898 171.528992 
L 138.828795 172.039111 
L 138.937394 172.039111 
L 139.100291 172.545049 
L 139.208889 172.545049 
L 139.371787 173.046857 
L 139.480385 173.046857 
L 139.643282 173.544585 
L 139.751881 173.544585 
L 139.914778 174.038283 
L 140.023376 174.038283 
L 140.186274 174.528 
L 140.294872 174.528 
L 140.457769 175.013783 
L 140.566368 175.013783 
L 140.729265 175.49568 
L 140.837863 175.49568 
L 141.000761 175.973737 
L 141.109359 175.973737 
L 141.272257 176.448 
L 141.380855 176.448 
L 141.543752 176.918514 
L 141.65235 176.918514 
L 141.815248 177.385323 
L 141.923846 177.385323 
L 142.086744 177.848471 
L 142.195342 177.848471 
L 142.358239 178.308 
L 142.466838 178.308 
L 142.629735 178.763953 
L 142.738333 178.763953 
L 142.901231 179.216372 
L 143.009829 179.216372 
L 143.172726 179.665297 
L 143.281325 179.665297 
L 143.444222 180.110769 
L 143.55282 180.110769 
L 143.715718 180.552828 
L 143.824316 180.552828 
L 143.987213 180.991511 
L 144.095812 180.991511 
L 144.258709 181.426859 
L 144.367307 181.426859 
L 144.530205 181.858909 
L 144.638803 181.858909 
L 144.8017 182.287698 
L 144.910299 182.287698 
L 145.073196 182.713263 
L 145.181794 182.713263 
L 145.344692 183.13564 
L 145.45329 183.13564 
L 145.616188 183.554866 
L 145.724786 183.554866 
L 145.887683 183.970974 
L 145.996282 183.970974 
L 146.159179 184.384 
L 146.267777 184.384 
L 146.430675 184.793978 
L 146.539273 184.793978 
L 146.70217 185.200941 
L 146.810769 185.200941 
L 146.973666 185.604923 
L 147.082264 185.604923 
L 147.245162 186.005956 
L 147.35376 186.005956 
L 147.516657 186.404073 
L 147.625256 186.404073 
L 147.788153 186.799304 
L 147.896751 186.799304 
L 148.059649 187.191682 
L 148.168247 187.191682 
L 148.331144 187.581237 
L 148.439743 187.581237 
L 148.60264 187.968 
L 148.711238 187.968 
L 148.874136 188.352 
L 148.982734 188.352 
L 149.145632 188.733267 
L 149.25423 188.733267 
L 149.417127 189.11183 
L 149.525725 189.11183 
L 149.688623 189.487717 
L 149.797221 189.487717 
L 149.960119 189.860958 
L 150.068717 189.860958 
L 150.231614 190.231579 
L 150.340213 190.231579 
L 150.50311 190.599608 
L 150.611708 190.599608 
L 150.774606 190.965073 
L 150.883204 190.965073 
L 151.046101 191.328 
L 151.1547 191.328 
L 151.317597 191.688415 
L 151.426195 191.688415 
L 151.589093 192.046345 
L 151.697691 192.046345 
L 151.860588 192.401814 
L 151.914888 192.401814 
L 152.077785 295.488 
L 155.770126 295.488 
L 155.933024 197.455059 
L 156.041622 197.455059 
L 156.204519 197.774384 
L 156.313118 197.774384 
L 156.476015 198.091636 
L 156.584613 198.091636 
L 156.747511 198.406835 
L 156.856109 198.406835 
L 157.019007 198.72 
L 157.127605 198.72 
L 157.290502 199.031151 
L 157.3991 199.031151 
L 157.561998 199.340308 
L 157.670596 199.340308 
L 157.833494 199.647489 
L 157.942092 199.647489 
L 158.104989 199.952713 
L 158.213588 199.952713 
L 158.376485 200.256 
L 158.485083 200.256 
L 158.647981 200.557367 
L 158.756579 200.557367 
L 158.919476 200.856833 
L 159.028075 200.856833 
L 159.190972 201.154415 
L 159.29957 201.154415 
L 159.462468 201.450132 
L 159.571066 201.450132 
L 159.733963 201.744 
L 159.842562 201.744 
L 160.005459 202.036037 
L 160.114057 202.036037 
L 160.276955 202.326261 
L 160.385553 202.326261 
L 160.54845 202.614687 
L 160.657049 202.614687 
L 160.819946 202.901333 
L 160.928544 202.901333 
L 161.091442 203.186215 
L 161.20004 203.186215 
L 161.362938 203.46935 
L 161.471536 203.46935 
L 161.634433 203.750752 
L 161.743032 203.750752 
L 161.905929 204.030439 
L 162.014527 204.030439 
L 162.177425 204.308426 
L 162.286023 204.308426 
L 162.44892 204.584727 
L 162.557519 204.584727 
L 162.720416 204.85936 
L 162.829014 204.85936 
L 162.991912 205.132337 
L 163.10051 205.132337 
L 163.263407 205.403676 
L 163.372006 205.403676 
L 163.534903 205.673389 
L 163.643501 205.673389 
L 163.806399 205.941493 
L 163.914997 205.941493 
L 164.077894 206.208 
L 164.186493 206.208 
L 164.34939 206.472926 
L 164.457988 206.472926 
L 164.620886 206.736284 
L 164.729484 206.736284 
L 164.892382 206.998088 
L 165.00098 206.998088 
L 165.163877 207.258353 
L 165.272475 207.258353 
L 165.435373 207.517091 
L 165.543971 207.517091 
L 165.706869 207.774316 
L 165.815467 207.774316 
L 165.978364 208.030041 
L 166.086963 208.030041 
L 166.24986 208.284279 
L 166.358458 208.284279 
L 166.521356 208.537043 
L 166.629954 208.537043 
L 166.792851 208.788347 
L 166.90145 208.788347 
L 167.064347 209.038202 
L 167.172945 209.038202 
L 167.335843 209.286621 
L 167.444441 209.286621 
L 167.607338 209.533616 
L 167.715937 209.533616 
L 167.878834 209.7792 
L 167.987432 209.7792 
L 168.15033 210.023385 
L 168.258928 210.023385 
L 168.421825 210.266182 
L 168.530424 210.266182 
L 168.693321 210.507603 
L 168.801919 210.507603 
L 168.964817 210.747661 
L 169.073415 210.747661 
L 169.236313 210.986366 
L 169.344911 210.986366 
L 169.507808 211.22373 
L 169.616407 211.22373 
L 169.779304 211.459765 
L 169.887902 211.459765 
L 170.0508 211.69448 
L 170.159398 211.69448 
L 170.322295 211.927889 
L 170.430894 211.927889 
L 170.593791 212.16 
L 170.702389 212.16 
L 170.865287 212.390825 
L 170.973885 212.390825 
L 171.136782 212.620376 
L 171.245381 212.620376 
L 171.408278 212.848661 
L 171.516876 212.848661 
L 171.679774 213.075692 
L 171.788372 213.075692 
L 171.951269 213.301479 
L 172.059868 213.301479 
L 172.222765 213.526033 
L 172.331363 213.526033 
L 172.494261 213.749362 
L 172.602859 213.749362 
L 172.765757 213.971478 
L 172.874355 213.971478 
L 173.037252 214.19239 
L 173.14585 214.19239 
L 173.308748 214.412108 
L 173.417346 214.412108 
L 173.580244 214.630642 
L 173.688842 214.630642 
L 173.851739 214.848 
L 173.960338 214.848 
L 174.123235 215.064193 
L 174.231833 215.064193 
L 174.394731 215.27923 
L 174.503329 215.27923 
L 174.666226 215.49312 
L 174.774825 215.49312 
L 174.937722 215.705872 
L 175.04632 215.705872 
L 175.209218 215.917496 
L 175.317816 215.917496 
L 175.480713 216.128 
L 175.589312 216.128 
L 175.752209 216.337393 
L 175.860807 216.337393 
L 176.023705 216.545684 
L 176.132303 216.545684 
L 176.2952 216.752882 
L 176.403799 216.752882 
L 176.512397 216.958995 
L 176.675294 295.488 
L 184.874464 295.488 
L 185.037362 222.853424 
L 185.091661 222.853424 
L 185.254558 223.02887 
L 185.363157 223.02887 
L 185.526054 223.20347 
L 185.634652 223.20347 
L 185.79755 223.377231 
L 185.906148 223.377231 
L 186.069045 223.550158 
L 186.177644 223.550158 
L 186.340541 223.722258 
L 186.449139 223.722258 
L 186.612037 223.893537 
L 186.720635 223.893537 
L 186.883532 224.064 
L 186.992131 224.064 
L 187.155028 224.233653 
L 187.263626 224.233653 
L 187.426524 224.402502 
L 187.535122 224.402502 
L 187.698019 224.570553 
L 187.806618 224.570553 
L 187.969515 224.737811 
L 188.078113 224.737811 
L 188.241011 224.904282 
L 188.349609 224.904282 
L 188.512507 225.069972 
L 188.621105 225.069972 
L 188.784002 225.234885 
L 188.8926 225.234885 
L 189.055498 225.399028 
L 189.164096 225.399028 
L 189.326994 225.562406 
L 189.435592 225.562406 
L 189.598489 225.725023 
L 189.707088 225.725023 
L 189.869985 225.886886 
L 189.978583 225.886886 
L 190.141481 226.048 
L 190.250079 226.048 
L 190.412976 226.20837 
L 190.521575 226.20837 
L 190.684472 226.368 
L 190.79307 226.368 
L 190.955968 226.526897 
L 191.064566 226.526897 
L 191.227463 226.685064 
L 191.336062 226.685064 
L 191.498959 226.842508 
L 191.607557 226.842508 
L 191.770455 226.999233 
L 191.879053 226.999233 
L 192.04195 227.155244 
L 192.150549 227.155244 
L 192.313446 227.310545 
L 192.422044 227.310545 
L 192.584942 227.465143 
L 192.69354 227.465143 
L 192.856438 227.619041 
L 192.965036 227.619041 
L 193.127933 227.772244 
L 193.236531 227.772244 
L 193.399429 227.924757 
L 193.508027 227.924757 
L 193.670925 228.076584 
L 193.779523 228.076584 
L 193.94242 228.227731 
L 194.051019 228.227731 
L 194.213916 228.378201 
L 194.322514 228.378201 
L 194.485412 228.528 
L 194.59401 228.528 
L 194.756907 228.677131 
L 194.865506 228.677131 
L 195.028403 228.8256 
L 195.137001 228.8256 
L 195.299899 228.97341 
L 195.408497 228.97341 
L 195.571394 229.120566 
L 195.679993 229.120566 
L 195.84289 229.267073 
L 195.951488 229.267073 
L 196.114386 229.412934 
L 196.222984 229.412934 
L 196.385881 229.558154 
L 196.49448 229.558154 
L 196.657377 229.702737 
L 196.765975 229.702737 
L 196.928873 229.846687 
L 197.037471 229.846687 
L 197.200369 229.990009 
L 197.308967 229.990009 
L 197.471864 230.132706 
L 197.580463 230.132706 
L 197.74336 230.274783 
L 197.851958 230.274783 
L 198.014856 230.416243 
L 198.123454 230.416243 
L 198.286351 230.557091 
L 198.39495 230.557091 
L 198.557847 230.69733 
L 198.666445 230.69733 
L 198.829343 230.836966 
L 198.937941 230.836966 
L 199.100838 230.976 
L 199.209437 230.976 
L 199.372334 231.114438 
L 199.480932 231.114438 
L 199.64383 231.252283 
L 199.752428 231.252283 
L 199.915325 231.389538 
L 200.023924 231.389538 
L 200.186821 231.526209 
L 200.295419 231.526209 
L 200.458317 231.662298 
L 200.566915 231.662298 
L 200.729813 231.797809 
L 200.838411 231.797809 
L 201.001308 231.932746 
L 201.109906 231.932746 
L 201.272804 232.067112 
L 201.381402 232.067112 
L 201.5443 232.200911 
L 201.652898 232.200911 
L 201.815795 232.334147 
L 201.924394 232.334147 
L 202.087291 232.466824 
L 202.195889 232.466824 
L 202.358787 232.598943 
L 202.467385 232.598943 
L 202.630282 232.73051 
L 202.738881 232.73051 
L 202.901778 232.861528 
L 203.010376 232.861528 
L 203.173274 232.992 
L 203.281872 232.992 
L 203.444769 233.121929 
L 203.553368 233.121929 
L 203.716265 233.25132 
L 203.824863 233.25132 
L 203.987761 233.380174 
L 204.096359 233.380174 
L 204.259256 233.508496 
L 204.367855 233.508496 
L 204.530752 233.636289 
L 204.63935 233.636289 
L 204.802248 233.763556 
L 204.910846 233.763556 
L 205.073744 233.8903 
L 205.182342 233.8903 
L 205.345239 234.016525 
L 205.453838 234.016525 
L 205.616735 234.142233 
L 205.725333 234.142233 
L 205.888231 234.267429 
L 205.996829 234.267429 
L 206.159726 234.392114 
L 206.268325 234.392114 
L 206.431222 234.516293 
L 206.53982 234.516293 
L 206.702718 234.639968 
L 206.811316 234.639968 
L 206.974213 234.763142 
L 207.082812 234.763142 
L 207.245709 234.885818 
L 207.354307 234.885818 
L 207.517205 235.008 
L 207.625803 235.008 
L 207.7887 235.12969 
L 207.897299 235.12969 
L 208.060196 235.250892 
L 208.168794 235.250892 
L 208.331692 235.371607 
L 208.44029 235.371607 
L 208.603188 235.49184 
L 208.711786 235.49184 
L 208.874683 235.611593 
L 208.983281 235.611593 
L 209.146179 235.730869 
L 209.254777 235.730869 
L 209.417675 235.84967 
L 209.526273 235.84967 
L 209.68917 235.968 
L 209.797769 235.968 
L 209.960666 236.085861 
L 210.069264 236.085861 
L 210.232162 236.203257 
L 210.34076 236.203257 
L 210.503657 236.320189 
L 210.612256 236.320189 
L 210.775153 236.436661 
L 210.883751 236.436661 
L 211.046649 236.552676 
L 211.155247 236.552676 
L 211.318144 236.668235 
L 211.426743 236.668235 
L 211.58964 236.783342 
L 211.698238 236.783342 
L 211.861136 236.898 
L 211.969734 236.898 
L 212.132631 237.012211 
L 212.24123 237.012211 
L 212.404127 237.125977 
L 212.512725 237.125977 
L 212.675623 237.239301 
L 212.784221 237.239301 
L 212.892819 237.352186 
L 213.055717 295.488 
L 398.487273 295.488 
L 398.487273 295.488 
" style="fill:none;stroke:#1f77b4;stroke-linecap:square;stroke-width:1.5;"/>
   </g>
   <g id="patch_3">
    <path d="M 57.6 307.584 
L 57.6 41.472 
" style="fill:none;stroke:#000000;stroke-linecap:square;stroke-linejoin:miter;stroke-width:0.8;"/>
   </g>
   <g id="patch_4">
    <path d="M 414.72 307.584 
L 414.72 41.472 
" style="fill:none;stroke:#000000;stroke-linecap:square;stroke-linejoin:miter;stroke-width:0.8;"/>
   </g>
   <g id="patch_5">
    <path d="M 57.6 307.584 
L 414.72 307.584 
" style="fill:none;stroke:#000000;stroke-linecap:square;stroke-linejoin:miter;stroke-width:0.8;"/>
   </g>
   <g id="patch_6">
    <path d="M 57.6 41.472 
L 414.72 41.472 
" style="fill:none;stroke:#000000;stroke-linecap:square;stroke-linejoin:miter;stroke-width:0.8;"/>
   </g>
  </g>
 </g>
 <defs>
  <clipPath id="p88e7a14110">
   <rect height="266.112" width="357.12" x="57.6" y="41.472"/>
  </clipPath>
 </defs>
</svg>
