<?xml version="1.0" encoding="utf-8" standalone="no"?>
<!DOCTYPE svg PUBLIC "-//W3C//DTD SVG 1.1//EN"
  "http://www.w3.org/Graphics/SVG/1.1/DTD/svg11.dtd">
<!-- Created with matplotlib (https://matplotlib.org/) -->
<svg height="345.6pt" version="1.1" viewBox="0 0 460.8 345.6" width="460.8pt" xmlns="http://www.w3.org/2000/svg" xmlns:xlink="http://www.w3.org/1999/xlink">
 <metadata>
  <rdf:RDF xmlns:cc="http://creativecommons.org/ns#" xmlns:dc="http://purl.org/dc/elements/1.1/" xmlns:rdf="http://www.w3.org/1999/02/22-rdf-syntax-ns#">
   <cc:Work>
    <dc:type rdf:resource="http://purl.org/dc/dcmitype/StillImage"/>
    <dc:date>2022-08-03T12:13:02.775304</dc:date>
    <dc:format>image/svg+xml</dc:format>
    <dc:creator>
     <cc:Agent>
      <dc:title>Matplotlib v3.3.4, https://matplotlib.org/</dc:title>
     </cc:Agent>
    </dc:creator>
   </cc:Work>
  </rdf:RDF>
 </metadata>
 <defs>
  <style type="text/css">*{stroke-linecap:butt;stroke-linejoin:round;}</style>
 </defs>
 <g id="figure_1">
  <g id="patch_1">
   <path d="M 0 345.6 
L 460.8 345.6 
L 460.8 0 
L 0 0 
z
" style="fill:#ffffff;"/>
  </g>
  <g id="axes_1">
   <g id="patch_2">
    <path d="M 57.6 307.584 
L 414.72 307.584 
L 414.72 41.472 
L 57.6 41.472 
z
" style="fill:#ffffff;"/>
   </g>
   <g id="matplotlib.axis_1">
    <g id="xtick_1">
     <g id="line2d_1">
      <path clip-path="url(#p6edc1045d1)" d="M 72.692445 307.584 
L 72.692445 41.472 
" style="fill:none;stroke:#b0b0b0;stroke-linecap:square;stroke-width:0.8;"/>
     </g>
     <g id="line2d_2">
      <defs>
       <path d="M 0 0 
L 0 3.5 
" id="m4357ae010a" style="stroke:#000000;stroke-width:0.8;"/>
      </defs>
      <g>
       <use style="stroke:#000000;stroke-width:0.8;" x="72.692445" xlink:href="#m4357ae010a" y="307.584"/>
      </g>
     </g>
     <g id="text_1">
      <!-- 0 -->
      <g transform="translate(69.511195 322.182437)scale(0.1 -0.1)">
       <defs>
        <path d="M 31.78125 3.421875 
Q 39.265625 3.421875 42.96875 11.625 
Q 46.6875 19.828125 46.6875 36.375 
Q 46.6875 52.984375 42.96875 61.1875 
Q 39.265625 69.390625 31.78125 69.390625 
Q 24.3125 69.390625 20.59375 61.1875 
Q 16.890625 52.984375 16.890625 36.375 
Q 16.890625 19.828125 20.59375 11.625 
Q 24.3125 3.421875 31.78125 3.421875 
z
M 31.78125 -1.421875 
Q 19.921875 -1.421875 13.25 8.53125 
Q 6.59375 18.5 6.59375 36.375 
Q 6.59375 54.296875 13.25 64.25 
Q 19.921875 74.21875 31.78125 74.21875 
Q 43.703125 74.21875 50.34375 64.25 
Q 56.984375 54.296875 56.984375 36.375 
Q 56.984375 18.5 50.34375 8.53125 
Q 43.703125 -1.421875 31.78125 -1.421875 
z
" id="DejaVuSerif-48"/>
       </defs>
       <use xlink:href="#DejaVuSerif-48"/>
      </g>
     </g>
    </g>
    <g id="xtick_2">
     <g id="line2d_3">
      <path clip-path="url(#p6edc1045d1)" d="M 126.991583 307.584 
L 126.991583 41.472 
" style="fill:none;stroke:#b0b0b0;stroke-linecap:square;stroke-width:0.8;"/>
     </g>
     <g id="line2d_4">
      <g>
       <use style="stroke:#000000;stroke-width:0.8;" x="126.991583" xlink:href="#m4357ae010a" y="307.584"/>
      </g>
     </g>
     <g id="text_2">
      <!-- 100 -->
      <g transform="translate(117.447833 322.182437)scale(0.1 -0.1)">
       <defs>
        <path d="M 14.203125 0 
L 14.203125 5.171875 
L 26.90625 5.171875 
L 26.90625 65.828125 
L 12.203125 56.296875 
L 12.203125 62.703125 
L 29.984375 74.21875 
L 36.71875 74.21875 
L 36.71875 5.171875 
L 49.421875 5.171875 
L 49.421875 0 
z
" id="DejaVuSerif-49"/>
       </defs>
       <use xlink:href="#DejaVuSerif-49"/>
       <use x="63.623047" xlink:href="#DejaVuSerif-48"/>
       <use x="127.246094" xlink:href="#DejaVuSerif-48"/>
      </g>
     </g>
    </g>
    <g id="xtick_3">
     <g id="line2d_5">
      <path clip-path="url(#p6edc1045d1)" d="M 181.290721 307.584 
L 181.290721 41.472 
" style="fill:none;stroke:#b0b0b0;stroke-linecap:square;stroke-width:0.8;"/>
     </g>
     <g id="line2d_6">
      <g>
       <use style="stroke:#000000;stroke-width:0.8;" x="181.290721" xlink:href="#m4357ae010a" y="307.584"/>
      </g>
     </g>
     <g id="text_3">
      <!-- 200 -->
      <g transform="translate(171.746971 322.182437)scale(0.1 -0.1)">
       <defs>
        <path d="M 12.796875 55.515625 
L 7.328125 55.515625 
L 7.328125 68.5 
Q 12.546875 71.296875 17.84375 72.75 
Q 23.140625 74.21875 28.21875 74.21875 
Q 39.59375 74.21875 46.1875 68.703125 
Q 52.78125 63.1875 52.78125 53.71875 
Q 52.78125 43.015625 37.84375 28.125 
Q 36.671875 27 36.078125 26.421875 
L 17.671875 8.015625 
L 48.09375 8.015625 
L 48.09375 17 
L 53.8125 17 
L 53.8125 0 
L 6.78125 0 
L 6.78125 5.328125 
L 28.90625 27.390625 
Q 36.234375 34.71875 39.359375 40.84375 
Q 42.484375 46.96875 42.484375 53.71875 
Q 42.484375 61.078125 38.640625 65.234375 
Q 34.8125 69.390625 28.078125 69.390625 
Q 21.09375 69.390625 17.28125 65.921875 
Q 13.484375 62.453125 12.796875 55.515625 
z
" id="DejaVuSerif-50"/>
       </defs>
       <use xlink:href="#DejaVuSerif-50"/>
       <use x="63.623047" xlink:href="#DejaVuSerif-48"/>
       <use x="127.246094" xlink:href="#DejaVuSerif-48"/>
      </g>
     </g>
    </g>
    <g id="xtick_4">
     <g id="line2d_7">
      <path clip-path="url(#p6edc1045d1)" d="M 235.589859 307.584 
L 235.589859 41.472 
" style="fill:none;stroke:#b0b0b0;stroke-linecap:square;stroke-width:0.8;"/>
     </g>
     <g id="line2d_8">
      <g>
       <use style="stroke:#000000;stroke-width:0.8;" x="235.589859" xlink:href="#m4357ae010a" y="307.584"/>
      </g>
     </g>
     <g id="text_4">
      <!-- 300 -->
      <g transform="translate(226.046109 322.182437)scale(0.1 -0.1)">
       <defs>
        <path d="M 9.71875 69.828125 
Q 15.4375 71.96875 20.671875 73.09375 
Q 25.921875 74.21875 30.515625 74.21875 
Q 41.21875 74.21875 47.21875 69.59375 
Q 53.21875 64.984375 53.21875 56.78125 
Q 53.21875 50.203125 49.0625 45.78125 
Q 44.921875 41.359375 37.3125 39.796875 
Q 46.296875 38.53125 51.25 33.28125 
Q 56.203125 28.03125 56.203125 19.671875 
Q 56.203125 9.46875 49.34375 4.015625 
Q 42.484375 -1.421875 29.59375 -1.421875 
Q 23.875 -1.421875 18.421875 -0.1875 
Q 12.984375 1.03125 7.625 3.515625 
L 7.625 17.671875 
L 13.09375 17.671875 
Q 13.578125 10.640625 17.828125 7.03125 
Q 22.078125 3.421875 29.78125 3.421875 
Q 37.25 3.421875 41.578125 7.734375 
Q 45.90625 12.0625 45.90625 19.578125 
Q 45.90625 28.171875 41.453125 32.59375 
Q 37.015625 37.015625 28.421875 37.015625 
L 23.78125 37.015625 
L 23.78125 42 
L 26.21875 42 
Q 34.765625 42 39.03125 45.53125 
Q 43.3125 49.078125 43.3125 56.203125 
Q 43.3125 62.59375 39.796875 65.984375 
Q 36.28125 69.390625 29.6875 69.390625 
Q 23.09375 69.390625 19.453125 66.265625 
Q 15.828125 63.140625 15.1875 56.984375 
L 9.71875 56.984375 
z
" id="DejaVuSerif-51"/>
       </defs>
       <use xlink:href="#DejaVuSerif-51"/>
       <use x="63.623047" xlink:href="#DejaVuSerif-48"/>
       <use x="127.246094" xlink:href="#DejaVuSerif-48"/>
      </g>
     </g>
    </g>
    <g id="xtick_5">
     <g id="line2d_9">
      <path clip-path="url(#p6edc1045d1)" d="M 289.888997 307.584 
L 289.888997 41.472 
" style="fill:none;stroke:#b0b0b0;stroke-linecap:square;stroke-width:0.8;"/>
     </g>
     <g id="line2d_10">
      <g>
       <use style="stroke:#000000;stroke-width:0.8;" x="289.888997" xlink:href="#m4357ae010a" y="307.584"/>
      </g>
     </g>
     <g id="text_5">
      <!-- 400 -->
      <g transform="translate(280.345247 322.182437)scale(0.1 -0.1)">
       <defs>
        <path d="M 34.90625 24.703125 
L 34.90625 63.484375 
L 10.015625 24.703125 
z
M 56.390625 0 
L 23.1875 0 
L 23.1875 5.171875 
L 34.90625 5.171875 
L 34.90625 19.484375 
L 3.078125 19.484375 
L 3.078125 24.8125 
L 35.015625 74.21875 
L 44.671875 74.21875 
L 44.671875 24.703125 
L 58.59375 24.703125 
L 58.59375 19.484375 
L 44.671875 19.484375 
L 44.671875 5.171875 
L 56.390625 5.171875 
z
" id="DejaVuSerif-52"/>
       </defs>
       <use xlink:href="#DejaVuSerif-52"/>
       <use x="63.623047" xlink:href="#DejaVuSerif-48"/>
       <use x="127.246094" xlink:href="#DejaVuSerif-48"/>
      </g>
     </g>
    </g>
    <g id="xtick_6">
     <g id="line2d_11">
      <path clip-path="url(#p6edc1045d1)" d="M 344.188135 307.584 
L 344.188135 41.472 
" style="fill:none;stroke:#b0b0b0;stroke-linecap:square;stroke-width:0.8;"/>
     </g>
     <g id="line2d_12">
      <g>
       <use style="stroke:#000000;stroke-width:0.8;" x="344.188135" xlink:href="#m4357ae010a" y="307.584"/>
      </g>
     </g>
     <g id="text_6">
      <!-- 500 -->
      <g transform="translate(334.644385 322.182437)scale(0.1 -0.1)">
       <defs>
        <path d="M 50.296875 72.90625 
L 50.296875 64.890625 
L 16.890625 64.890625 
L 16.890625 44 
Q 19.4375 45.75 22.828125 46.625 
Q 26.21875 47.515625 30.421875 47.515625 
Q 42.234375 47.515625 49.0625 40.96875 
Q 55.90625 34.421875 55.90625 23.09375 
Q 55.90625 11.53125 49 5.046875 
Q 42.09375 -1.421875 29.59375 -1.421875 
Q 24.5625 -1.421875 19.28125 -0.1875 
Q 14.015625 1.03125 8.5 3.515625 
L 8.5 17.671875 
L 14.015625 17.671875 
Q 14.453125 10.75 18.421875 7.078125 
Q 22.40625 3.421875 29.59375 3.421875 
Q 37.3125 3.421875 41.453125 8.5 
Q 45.609375 13.578125 45.609375 23.09375 
Q 45.609375 32.5625 41.484375 37.609375 
Q 37.359375 42.671875 29.59375 42.671875 
Q 25.203125 42.671875 21.84375 41.109375 
Q 18.5 39.546875 15.921875 36.28125 
L 11.71875 36.28125 
L 11.71875 72.90625 
z
" id="DejaVuSerif-53"/>
       </defs>
       <use xlink:href="#DejaVuSerif-53"/>
       <use x="63.623047" xlink:href="#DejaVuSerif-48"/>
       <use x="127.246094" xlink:href="#DejaVuSerif-48"/>
      </g>
     </g>
    </g>
    <g id="xtick_7">
     <g id="line2d_13">
      <path clip-path="url(#p6edc1045d1)" d="M 398.487273 307.584 
L 398.487273 41.472 
" style="fill:none;stroke:#b0b0b0;stroke-linecap:square;stroke-width:0.8;"/>
     </g>
     <g id="line2d_14">
      <g>
       <use style="stroke:#000000;stroke-width:0.8;" x="398.487273" xlink:href="#m4357ae010a" y="307.584"/>
      </g>
     </g>
     <g id="text_7">
      <!-- 600 -->
      <g transform="translate(388.943523 322.182437)scale(0.1 -0.1)">
       <defs>
        <path d="M 32.71875 3.421875 
Q 39.59375 3.421875 43.296875 8.46875 
Q 47.015625 13.53125 47.015625 23 
Q 47.015625 32.46875 43.296875 37.515625 
Q 39.59375 42.578125 32.71875 42.578125 
Q 25.734375 42.578125 22.0625 37.6875 
Q 18.40625 32.8125 18.40625 23.578125 
Q 18.40625 13.875 22.109375 8.640625 
Q 25.828125 3.421875 32.71875 3.421875 
z
M 16.796875 40.140625 
Q 20.125 43.796875 24.3125 45.59375 
Q 28.515625 47.40625 33.796875 47.40625 
Q 44.671875 47.40625 51 40.859375 
Q 57.328125 34.328125 57.328125 23 
Q 57.328125 11.921875 50.515625 5.25 
Q 43.703125 -1.421875 32.328125 -1.421875 
Q 19.96875 -1.421875 13.328125 7.78125 
Q 6.6875 17 6.6875 34.078125 
Q 6.6875 53.21875 14.546875 63.71875 
Q 22.40625 74.21875 36.71875 74.21875 
Q 40.578125 74.21875 44.828125 73.484375 
Q 49.078125 72.75 53.515625 71.296875 
L 53.515625 59.28125 
L 48 59.28125 
Q 47.40625 64.203125 44.234375 66.796875 
Q 41.0625 69.390625 35.6875 69.390625 
Q 26.21875 69.390625 21.578125 62.203125 
Q 16.9375 55.03125 16.796875 40.140625 
z
" id="DejaVuSerif-54"/>
       </defs>
       <use xlink:href="#DejaVuSerif-54"/>
       <use x="63.623047" xlink:href="#DejaVuSerif-48"/>
       <use x="127.246094" xlink:href="#DejaVuSerif-48"/>
      </g>
     </g>
    </g>
    <g id="text_8">
     <!-- Time -->
     <g transform="translate(214.680234 341.179469)scale(0.17 -0.17)">
      <defs>
       <path d="M 19.09375 0 
L 19.09375 5.171875 
L 28.421875 5.171875 
L 28.421875 67.09375 
L 6.984375 67.09375 
L 6.984375 55.71875 
L 0.984375 55.71875 
L 0.984375 72.90625 
L 65.71875 72.90625 
L 65.71875 55.71875 
L 59.71875 55.71875 
L 59.71875 67.09375 
L 38.28125 67.09375 
L 38.28125 5.171875 
L 47.609375 5.171875 
L 47.609375 0 
z
" id="DejaVuSerif-84"/>
       <path d="M 9.71875 68.015625 
Q 9.71875 70.265625 11.34375 71.921875 
Q 12.984375 73.578125 15.28125 73.578125 
Q 17.53125 73.578125 19.15625 71.921875 
Q 20.796875 70.265625 20.796875 68.015625 
Q 20.796875 65.71875 19.1875 64.109375 
Q 17.578125 62.5 15.28125 62.5 
Q 12.984375 62.5 11.34375 64.109375 
Q 9.71875 65.71875 9.71875 68.015625 
z
M 21.1875 5.171875 
L 29.6875 5.171875 
L 29.6875 0 
L 3.609375 0 
L 3.609375 5.171875 
L 12.203125 5.171875 
L 12.203125 46.6875 
L 3.609375 46.6875 
L 3.609375 51.90625 
L 21.1875 51.90625 
z
" id="DejaVuSerif-105"/>
       <path d="M 51.8125 41.796875 
Q 54.390625 47.515625 58.421875 50.421875 
Q 62.453125 53.328125 67.828125 53.328125 
Q 75.984375 53.328125 79.984375 48.265625 
Q 83.984375 43.21875 83.984375 33.015625 
L 83.984375 5.171875 
L 92.09375 5.171875 
L 92.09375 0 
L 67.1875 0 
L 67.1875 5.171875 
L 75 5.171875 
L 75 31.984375 
Q 75 39.9375 72.65625 43.3125 
Q 70.3125 46.6875 64.890625 46.6875 
Q 58.890625 46.6875 55.734375 42.140625 
Q 52.59375 37.59375 52.59375 28.90625 
L 52.59375 5.171875 
L 60.40625 5.171875 
L 60.40625 0 
L 35.796875 0 
L 35.796875 5.171875 
L 43.609375 5.171875 
L 43.609375 32.328125 
Q 43.609375 40.09375 41.265625 43.390625 
Q 38.921875 46.6875 33.5 46.6875 
Q 27.484375 46.6875 24.328125 42.140625 
Q 21.1875 37.59375 21.1875 28.90625 
L 21.1875 5.171875 
L 29 5.171875 
L 29 0 
L 4.109375 0 
L 4.109375 5.171875 
L 12.203125 5.171875 
L 12.203125 46.78125 
L 3.609375 46.78125 
L 3.609375 51.90625 
L 21.1875 51.90625 
L 21.1875 42.671875 
Q 23.6875 47.859375 27.53125 50.59375 
Q 31.390625 53.328125 36.28125 53.328125 
Q 42.328125 53.328125 46.375 50.3125 
Q 50.4375 47.3125 51.8125 41.796875 
z
" id="DejaVuSerif-109"/>
       <path d="M 54.203125 25 
L 15.484375 25 
L 15.484375 24.609375 
Q 15.484375 14.109375 19.4375 8.765625 
Q 23.390625 3.421875 31.109375 3.421875 
Q 37.015625 3.421875 40.796875 6.515625 
Q 44.578125 9.625 46.09375 15.71875 
L 53.328125 15.71875 
Q 51.171875 7.171875 45.375 2.875 
Q 39.59375 -1.421875 30.171875 -1.421875 
Q 18.796875 -1.421875 11.890625 6.078125 
Q 4.984375 13.578125 4.984375 25.984375 
Q 4.984375 38.28125 11.765625 45.796875 
Q 18.5625 53.328125 29.59375 53.328125 
Q 41.359375 53.328125 47.65625 46.0625 
Q 53.953125 38.8125 54.203125 25 
z
M 43.609375 30.171875 
Q 43.3125 39.265625 39.765625 43.875 
Q 36.234375 48.484375 29.59375 48.484375 
Q 23.390625 48.484375 19.828125 43.84375 
Q 16.265625 39.203125 15.484375 30.171875 
z
" id="DejaVuSerif-101"/>
      </defs>
      <use xlink:href="#DejaVuSerif-84"/>
      <use x="66.699219" xlink:href="#DejaVuSerif-105"/>
      <use x="98.681641" xlink:href="#DejaVuSerif-109"/>
      <use x="193.505859" xlink:href="#DejaVuSerif-101"/>
     </g>
    </g>
   </g>
   <g id="matplotlib.axis_2">
    <g id="ytick_1">
     <g id="line2d_15">
      <path clip-path="url(#p6edc1045d1)" d="M 57.6 289.8432 
L 414.72 289.8432 
" style="fill:none;stroke:#b0b0b0;stroke-linecap:square;stroke-width:0.8;"/>
     </g>
     <g id="line2d_16">
      <defs>
       <path d="M 0 0 
L -3.5 0 
" id="mdc10c9a080" style="stroke:#000000;stroke-width:0.8;"/>
      </defs>
      <g>
       <use style="stroke:#000000;stroke-width:0.8;" x="57.6" xlink:href="#mdc10c9a080" y="289.8432"/>
      </g>
     </g>
     <g id="text_9">
      <!-- −0.2 -->
      <g transform="translate(26.317187 293.642419)scale(0.1 -0.1)">
       <defs>
        <path d="M 10.59375 35.296875 
L 73.1875 35.296875 
L 73.1875 27.390625 
L 10.59375 27.390625 
z
" id="DejaVuSerif-8722"/>
        <path d="M 9.421875 5.078125 
Q 9.421875 7.8125 11.28125 9.71875 
Q 13.140625 11.625 15.921875 11.625 
Q 18.609375 11.625 20.5 9.71875 
Q 22.40625 7.8125 22.40625 5.078125 
Q 22.40625 2.390625 20.5 0.484375 
Q 18.609375 -1.421875 15.921875 -1.421875 
Q 13.140625 -1.421875 11.28125 0.453125 
Q 9.421875 2.34375 9.421875 5.078125 
z
" id="DejaVuSerif-46"/>
       </defs>
       <use xlink:href="#DejaVuSerif-8722"/>
       <use x="83.789062" xlink:href="#DejaVuSerif-48"/>
       <use x="147.412109" xlink:href="#DejaVuSerif-46"/>
       <use x="179.199219" xlink:href="#DejaVuSerif-50"/>
      </g>
     </g>
    </g>
    <g id="ytick_2">
     <g id="line2d_17">
      <path clip-path="url(#p6edc1045d1)" d="M 57.6 254.3616 
L 414.72 254.3616 
" style="fill:none;stroke:#b0b0b0;stroke-linecap:square;stroke-width:0.8;"/>
     </g>
     <g id="line2d_18">
      <g>
       <use style="stroke:#000000;stroke-width:0.8;" x="57.6" xlink:href="#mdc10c9a080" y="254.3616"/>
      </g>
     </g>
     <g id="text_10">
      <!-- −0.1 -->
      <g transform="translate(26.317187 258.160819)scale(0.1 -0.1)">
       <use xlink:href="#DejaVuSerif-8722"/>
       <use x="83.789062" xlink:href="#DejaVuSerif-48"/>
       <use x="147.412109" xlink:href="#DejaVuSerif-46"/>
       <use x="179.199219" xlink:href="#DejaVuSerif-49"/>
      </g>
     </g>
    </g>
    <g id="ytick_3">
     <g id="line2d_19">
      <path clip-path="url(#p6edc1045d1)" d="M 57.6 218.88 
L 414.72 218.88 
" style="fill:none;stroke:#b0b0b0;stroke-linecap:square;stroke-width:0.8;"/>
     </g>
     <g id="line2d_20">
      <g>
       <use style="stroke:#000000;stroke-width:0.8;" x="57.6" xlink:href="#mdc10c9a080" y="218.88"/>
      </g>
     </g>
     <g id="text_11">
      <!-- 0.0 -->
      <g transform="translate(34.696875 222.679219)scale(0.1 -0.1)">
       <use xlink:href="#DejaVuSerif-48"/>
       <use x="63.623047" xlink:href="#DejaVuSerif-46"/>
       <use x="95.410156" xlink:href="#DejaVuSerif-48"/>
      </g>
     </g>
    </g>
    <g id="ytick_4">
     <g id="line2d_21">
      <path clip-path="url(#p6edc1045d1)" d="M 57.6 183.3984 
L 414.72 183.3984 
" style="fill:none;stroke:#b0b0b0;stroke-linecap:square;stroke-width:0.8;"/>
     </g>
     <g id="line2d_22">
      <g>
       <use style="stroke:#000000;stroke-width:0.8;" x="57.6" xlink:href="#mdc10c9a080" y="183.3984"/>
      </g>
     </g>
     <g id="text_12">
      <!-- 0.1 -->
      <g transform="translate(34.696875 187.197619)scale(0.1 -0.1)">
       <use xlink:href="#DejaVuSerif-48"/>
       <use x="63.623047" xlink:href="#DejaVuSerif-46"/>
       <use x="95.410156" xlink:href="#DejaVuSerif-49"/>
      </g>
     </g>
    </g>
    <g id="ytick_5">
     <g id="line2d_23">
      <path clip-path="url(#p6edc1045d1)" d="M 57.6 147.9168 
L 414.72 147.9168 
" style="fill:none;stroke:#b0b0b0;stroke-linecap:square;stroke-width:0.8;"/>
     </g>
     <g id="line2d_24">
      <g>
       <use style="stroke:#000000;stroke-width:0.8;" x="57.6" xlink:href="#mdc10c9a080" y="147.9168"/>
      </g>
     </g>
     <g id="text_13">
      <!-- 0.2 -->
      <g transform="translate(34.696875 151.716019)scale(0.1 -0.1)">
       <use xlink:href="#DejaVuSerif-48"/>
       <use x="63.623047" xlink:href="#DejaVuSerif-46"/>
       <use x="95.410156" xlink:href="#DejaVuSerif-50"/>
      </g>
     </g>
    </g>
    <g id="ytick_6">
     <g id="line2d_25">
      <path clip-path="url(#p6edc1045d1)" d="M 57.6 112.4352 
L 414.72 112.4352 
" style="fill:none;stroke:#b0b0b0;stroke-linecap:square;stroke-width:0.8;"/>
     </g>
     <g id="line2d_26">
      <g>
       <use style="stroke:#000000;stroke-width:0.8;" x="57.6" xlink:href="#mdc10c9a080" y="112.4352"/>
      </g>
     </g>
     <g id="text_14">
      <!-- 0.3 -->
      <g transform="translate(34.696875 116.234419)scale(0.1 -0.1)">
       <use xlink:href="#DejaVuSerif-48"/>
       <use x="63.623047" xlink:href="#DejaVuSerif-46"/>
       <use x="95.410156" xlink:href="#DejaVuSerif-51"/>
      </g>
     </g>
    </g>
    <g id="ytick_7">
     <g id="line2d_27">
      <path clip-path="url(#p6edc1045d1)" d="M 57.6 76.9536 
L 414.72 76.9536 
" style="fill:none;stroke:#b0b0b0;stroke-linecap:square;stroke-width:0.8;"/>
     </g>
     <g id="line2d_28">
      <g>
       <use style="stroke:#000000;stroke-width:0.8;" x="57.6" xlink:href="#mdc10c9a080" y="76.9536"/>
      </g>
     </g>
     <g id="text_15">
      <!-- 0.4 -->
      <g transform="translate(34.696875 80.752819)scale(0.1 -0.1)">
       <use xlink:href="#DejaVuSerif-48"/>
       <use x="63.623047" xlink:href="#DejaVuSerif-46"/>
       <use x="95.410156" xlink:href="#DejaVuSerif-52"/>
      </g>
     </g>
    </g>
    <g id="ytick_8">
     <g id="line2d_29">
      <path clip-path="url(#p6edc1045d1)" d="M 57.6 41.472 
L 414.72 41.472 
" style="fill:none;stroke:#b0b0b0;stroke-linecap:square;stroke-width:0.8;"/>
     </g>
     <g id="line2d_30">
      <g>
       <use style="stroke:#000000;stroke-width:0.8;" x="57.6" xlink:href="#mdc10c9a080" y="41.472"/>
      </g>
     </g>
     <g id="text_16">
      <!-- 0.5 -->
      <g transform="translate(34.696875 45.271219)scale(0.1 -0.1)">
       <use xlink:href="#DejaVuSerif-48"/>
       <use x="63.623047" xlink:href="#DejaVuSerif-46"/>
       <use x="95.410156" xlink:href="#DejaVuSerif-53"/>
      </g>
     </g>
    </g>
    <g id="text_17">
     <!-- Speed -->
     <g transform="translate(18.781719 201.295031)rotate(-90)scale(0.17 -0.17)">
      <defs>
       <path d="M 9.28125 3.515625 
L 9.28125 20.125 
L 14.890625 20.0625 
Q 15.140625 11.765625 19.703125 7.78125 
Q 24.265625 3.8125 33.59375 3.8125 
Q 42.28125 3.8125 46.84375 7.25 
Q 51.421875 10.6875 51.421875 17.28125 
Q 51.421875 22.5625 48.65625 25.390625 
Q 45.90625 28.21875 37.015625 30.90625 
L 27.390625 33.796875 
Q 16.9375 36.96875 12.671875 41.703125 
Q 8.40625 46.4375 8.40625 54.6875 
Q 8.40625 63.96875 14.984375 69.09375 
Q 21.578125 74.21875 33.5 74.21875 
Q 38.578125 74.21875 44.625 73.109375 
Q 50.6875 72.015625 57.515625 69.921875 
L 57.515625 54.390625 
L 52 54.390625 
Q 51.171875 62.109375 46.84375 65.546875 
Q 42.53125 69 33.6875 69 
Q 25.984375 69 21.953125 65.84375 
Q 17.921875 62.703125 17.921875 56.6875 
Q 17.921875 51.46875 20.9375 48.484375 
Q 23.96875 45.515625 33.796875 42.578125 
L 42.828125 39.890625 
Q 52.734375 36.921875 56.953125 32.296875 
Q 61.1875 27.6875 61.1875 19.921875 
Q 61.1875 9.328125 54.390625 3.953125 
Q 47.609375 -1.421875 34.1875 -1.421875 
Q 28.171875 -1.421875 21.9375 -0.1875 
Q 15.71875 1.03125 9.28125 3.515625 
z
" id="DejaVuSerif-83"/>
       <path d="M 20.515625 28.515625 
L 20.515625 23.390625 
Q 20.515625 14.015625 24.09375 9.109375 
Q 27.6875 4.203125 34.515625 4.203125 
Q 41.40625 4.203125 44.9375 9.71875 
Q 48.484375 15.234375 48.484375 25.984375 
Q 48.484375 36.765625 44.9375 42.234375 
Q 41.40625 47.703125 34.515625 47.703125 
Q 27.6875 47.703125 24.09375 42.765625 
Q 20.515625 37.84375 20.515625 28.515625 
z
M 11.53125 46.6875 
L 2.875 46.6875 
L 2.875 51.90625 
L 20.515625 51.90625 
L 20.515625 43.796875 
Q 23.140625 48.6875 27.21875 51 
Q 31.296875 53.328125 37.3125 53.328125 
Q 46.875 53.328125 52.921875 45.75 
Q 58.984375 38.1875 58.984375 25.984375 
Q 58.984375 13.765625 52.921875 6.171875 
Q 46.875 -1.421875 37.3125 -1.421875 
Q 31.296875 -1.421875 27.21875 0.890625 
Q 23.140625 3.21875 20.515625 8.109375 
L 20.515625 -15.578125 
L 29 -15.578125 
L 29 -20.796875 
L 2.875 -20.796875 
L 2.875 -15.578125 
L 11.53125 -15.578125 
z
" id="DejaVuSerif-112"/>
       <path d="M 52.484375 5.171875 
L 61.078125 5.171875 
L 61.078125 0 
L 43.5 0 
L 43.5 8.109375 
Q 40.875 3.21875 36.796875 0.890625 
Q 32.71875 -1.421875 26.703125 -1.421875 
Q 17.140625 -1.421875 11.0625 6.171875 
Q 4.984375 13.765625 4.984375 25.984375 
Q 4.984375 38.1875 11.03125 45.75 
Q 17.09375 53.328125 26.703125 53.328125 
Q 32.71875 53.328125 36.796875 51 
Q 40.875 48.6875 43.5 43.796875 
L 43.5 70.796875 
L 35.015625 70.796875 
L 35.015625 75.984375 
L 52.484375 75.984375 
z
M 43.5 23.390625 
L 43.5 28.515625 
Q 43.5 37.84375 39.90625 42.765625 
Q 36.328125 47.703125 29.5 47.703125 
Q 22.5625 47.703125 19.015625 42.234375 
Q 15.484375 36.765625 15.484375 25.984375 
Q 15.484375 15.234375 19.015625 9.71875 
Q 22.5625 4.203125 29.5 4.203125 
Q 36.328125 4.203125 39.90625 9.109375 
Q 43.5 14.015625 43.5 23.390625 
z
" id="DejaVuSerif-100"/>
      </defs>
      <use xlink:href="#DejaVuSerif-83"/>
      <use x="68.505859" xlink:href="#DejaVuSerif-112"/>
      <use x="132.519531" xlink:href="#DejaVuSerif-101"/>
      <use x="191.699219" xlink:href="#DejaVuSerif-101"/>
      <use x="250.878906" xlink:href="#DejaVuSerif-100"/>
     </g>
    </g>
   </g>
   <g id="LineCollection_1">
    <path clip-path="url(#p6edc1045d1)" d="M 73.832727 218.88 
L 398.487273 218.88 
" style="fill:none;stroke:#696969;stroke-width:1.5;"/>
   </g>
   <g id="line2d_31">
    <path clip-path="url(#p6edc1045d1)" d="M 73.832727 218.88 
L 73.995625 218.88 
L 74.049924 130.176 
L 74.104223 147.9168 
L 74.26712 147.9168 
L 74.430018 218.88 
L 74.538616 218.88 
L 74.592915 159.744 
L 74.647214 168.192 
L 74.864411 168.192 
L 74.973009 174.528 
L 75.135907 218.88 
L 75.190206 218.88 
L 75.353103 179.456 
L 75.407402 179.456 
L 75.5703 183.3984 
L 75.678898 183.3984 
L 75.787496 186.624 
L 75.841795 218.88 
L 75.896095 186.624 
L 75.950394 186.624 
L 76.113291 189.312 
L 76.221889 189.312 
L 76.384787 191.586462 
L 76.493385 191.586462 
L 76.547684 193.536 
L 76.601983 168.192 
L 76.656282 193.536 
L 76.764881 193.536 
L 76.927778 195.2256 
L 77.036376 195.2256 
L 77.199274 196.704 
L 77.307872 196.704 
L 77.47077 177.136941 
L 77.633667 199.168 
L 77.850863 199.168 
L 78.013761 200.205474 
L 78.122359 181.530947 
L 78.285257 183.3984 
L 78.393855 183.3984 
L 78.448154 185.088 
L 78.611051 201.984 
L 78.665351 201.984 
L 78.773949 202.752 
L 78.936846 186.624 
L 79.099744 188.026435 
L 79.208342 188.026435 
L 79.31694 189.312 
L 79.479838 204.096 
L 79.534137 204.68736 
L 79.697034 190.49472 
L 79.751333 190.49472 
L 79.914231 191.586462 
L 80.022829 191.586462 
L 80.185726 192.597333 
L 80.240026 192.597333 
L 80.348624 206.208 
L 80.511521 193.536 
L 80.56582 193.536 
L 80.728718 194.409931 
L 80.837316 194.409931 
L 81.000213 195.2256 
L 81.108812 195.2256 
L 81.21741 184.542968 
L 81.380307 195.988645 
L 81.543205 196.704 
L 81.651803 196.704 
L 81.814701 197.376 
L 81.869 197.376 
L 81.923299 186.624 
L 81.977598 187.572706 
L 82.194795 187.572706 
L 82.249094 188.4672 
L 82.411991 198.6048 
L 82.46629 198.6048 
L 82.629188 199.168 
L 82.737786 189.312 
L 82.900683 190.111135 
L 83.009282 190.111135 
L 83.172179 190.868211 
L 83.335076 200.684308 
L 83.443675 200.684308 
L 83.552273 191.586462 
L 83.71517 192.2688 
L 83.823769 192.2688 
L 83.986666 192.917854 
L 84.095264 192.917854 
L 84.149563 193.536 
L 84.203863 201.984 
L 84.258162 193.536 
L 84.36676 193.536 
L 84.529657 194.125395 
L 84.638256 194.125395 
L 84.801153 194.688 
L 84.909751 194.688 
L 84.964051 195.2256 
L 85.072649 187.3408 
L 85.235546 195.739826 
L 85.452743 195.739826 
L 85.61564 196.23217 
L 85.724238 196.23217 
L 85.887136 189.312 
L 85.995734 189.312 
L 86.104332 189.915429 
L 86.26723 197.156571 
L 86.430127 197.59104 
L 86.538726 197.59104 
L 86.701623 191.051294 
L 86.810221 191.051294 
L 86.973119 191.586462 
L 87.027418 191.586462 
L 87.190315 198.796075 
L 87.298913 198.796075 
L 87.353213 192.101434 
L 87.407512 192.597333 
L 87.624708 192.597333 
L 87.787606 193.0752 
L 87.896204 193.0752 
L 88.004802 193.536 
L 88.059101 199.872 
L 88.113401 193.536 
L 88.1677 193.536 
L 88.330597 193.980632 
L 88.439195 193.980632 
L 88.602093 194.409931 
L 88.710691 194.409931 
L 88.873588 194.824678 
L 88.927888 188.810847 
L 88.982187 194.824678 
L 89.145084 195.2256 
L 89.253682 195.2256 
L 89.41658 195.613377 
L 89.525178 195.613377 
L 89.633776 195.988645 
L 89.796674 190.265806 
L 89.959571 190.72 
L 90.122469 196.704 
L 90.339665 196.704 
L 90.393964 197.045169 
L 90.556862 191.586462 
L 90.611161 191.586462 
L 90.774058 192 
L 90.882657 192 
L 90.936956 192.401194 
L 91.099853 197.696955 
L 91.154152 197.696955 
L 91.208451 198.008471 
L 91.371349 192.790588 
L 91.425648 192.790588 
L 91.588545 193.168696 
L 91.697144 193.168696 
L 91.860041 193.536 
L 91.968639 198.6048 
L 92.131537 193.892958 
L 92.240135 193.892958 
L 92.403032 194.24 
L 92.511631 194.24 
L 92.674528 194.577534 
L 92.728827 194.577534 
L 92.783126 189.717041 
L 92.837426 190.111135 
L 92.891725 190.111135 
L 93.054622 194.905946 
L 93.21752 195.2256 
L 93.326118 195.2256 
L 93.489015 195.536842 
L 93.543314 195.536842 
L 93.597613 190.868211 
L 93.651913 191.232 
L 93.81481 191.232 
L 93.977707 196.135385 
L 94.140605 196.135385 
L 94.303502 196.423291 
L 94.412101 191.931949 
L 94.574998 192.2688 
L 94.683596 192.2688 
L 94.792194 192.597333 
L 94.955092 196.977778 
L 95.06369 197.244878 
L 95.226588 192.917854 
L 95.389485 193.230651 
L 95.498083 193.230651 
L 95.660981 193.536 
L 95.769579 193.536 
L 95.823878 193.834165 
L 95.878177 198.008471 
L 95.932476 193.834165 
L 96.041075 193.834165 
L 96.203972 194.125395 
L 96.31257 194.125395 
L 96.475468 194.409931 
L 96.584066 194.409931 
L 96.638365 194.688 
L 96.746963 190.656 
L 96.909861 194.95982 
L 97.127057 194.95982 
L 97.289955 195.2256 
L 97.398553 195.2256 
L 97.452852 195.485538 
L 97.61575 191.586462 
L 97.670049 191.586462 
L 97.724348 191.88313 
L 97.887245 195.739826 
L 97.941544 195.739826 
L 98.104442 195.988645 
L 98.21304 195.988645 
L 98.375938 192.457532 
L 98.484536 192.457532 
L 98.647433 192.735663 
L 98.701732 192.735663 
L 98.86463 196.704 
L 98.973228 196.704 
L 99.027527 193.008 
L 99.081826 193.274722 
L 99.299023 193.274722 
L 99.46192 193.536 
L 99.570519 193.536 
L 99.679117 193.792 
L 99.787715 197.376 
L 99.842014 193.792 
L 99.896313 194.04288 
L 100.11351 194.04288 
L 100.276407 194.288792 
L 100.385006 194.288792 
L 100.547903 194.529882 
L 100.602202 191.051294 
L 100.656501 194.529882 
L 100.819399 194.766291 
L 100.927997 194.766291 
L 101.090894 194.998154 
L 101.199493 194.998154 
L 101.308091 195.2256 
L 101.470988 191.8464 
L 101.633886 192.101434 
L 101.796783 195.667738 
L 102.01398 195.667738 
L 102.122578 195.882667 
L 102.285476 192.597333 
L 102.448373 192.838459 
L 102.556971 192.838459 
L 102.61127 193.0752 
L 102.774168 196.3008 
L 102.828467 196.3008 
L 102.882766 196.504216 
L 103.045663 193.307676 
L 103.099963 193.307676 
L 103.26286 193.536 
L 103.371458 193.536 
L 103.534356 193.760283 
L 103.588655 193.760283 
L 103.642954 196.900248 
L 103.697253 193.980632 
L 103.91445 193.980632 
L 104.077347 194.197148 
L 104.185945 194.197148 
L 104.348843 194.409931 
L 104.457441 194.409931 
L 104.566039 191.586462 
L 104.728937 194.619077 
L 104.891834 194.824678 
L 105.000432 194.824678 
L 105.16333 195.026824 
L 105.217629 195.026824 
L 105.271928 192.045176 
L 105.326227 192.2688 
L 105.489125 192.2688 
L 105.652022 195.421091 
L 105.814919 195.421091 
L 105.977817 195.613377 
L 106.086415 192.705049 
L 106.249313 192.917854 
L 106.357911 192.917854 
L 106.520808 193.127226 
L 106.683706 196.171776 
L 106.792304 196.171776 
L 106.900902 193.333248 
L 107.0638 193.536 
L 107.172398 193.536 
L 107.335295 193.735559 
L 107.443894 193.735559 
L 107.498193 193.932 
L 107.552492 196.704 
L 107.606791 193.932 
L 107.715389 193.932 
L 107.878287 194.125395 
L 107.986885 194.125395 
L 108.149782 194.315815 
L 108.258381 194.315815 
L 108.31268 194.503328 
L 108.421278 191.794809 
L 108.584176 194.688 
L 108.801372 194.688 
L 108.964269 194.869895 
L 109.072868 194.869895 
L 109.127167 195.049075 
L 109.290064 192.401194 
L 109.344363 192.401194 
L 109.452962 192.597333 
L 109.615859 195.2256 
L 109.778757 195.399529 
L 109.887355 195.399529 
L 110.050252 192.981022 
L 110.158851 192.981022 
L 110.321748 193.168696 
L 110.376047 193.168696 
L 110.538944 195.906302 
L 110.647543 195.906302 
L 110.701842 193.353669 
L 110.756141 193.536 
L 110.973338 193.536 
L 111.136235 193.715745 
L 111.244833 193.715745 
L 111.353432 193.892958 
L 111.46203 196.391662 
L 111.516329 193.892958 
L 111.570628 194.067692 
L 111.787825 194.067692 
L 111.950722 194.24 
L 112.05932 194.24 
L 112.222218 194.409931 
L 112.330816 191.962924 
L 112.385115 192.147288 
L 112.548013 194.577534 
L 112.602312 194.577534 
L 112.765209 194.742857 
L 112.873807 194.742857 
L 112.982406 194.905946 
L 113.145303 192.508541 
L 113.308201 192.68553 
L 113.471098 195.2256 
L 113.688294 195.2256 
L 113.796893 195.382252 
L 113.95979 193.032477 
L 114.122688 193.202526 
L 114.231286 193.202526 
L 114.285585 193.370353 
L 114.448482 195.689412 
L 114.502782 195.689412 
L 114.557081 195.84 
L 114.719978 193.536 
L 114.774277 193.536 
L 114.937175 193.69951 
L 115.045773 193.69951 
L 115.20867 193.860923 
L 115.262969 193.860923 
L 115.317269 196.135385 
L 115.371568 194.02028 
L 115.588764 194.02028 
L 115.751662 194.17762 
L 115.86026 194.17762 
L 116.023157 194.332981 
L 116.131756 194.332981 
L 116.240354 192.2688 
L 116.403251 194.4864 
L 116.566149 194.637913 
L 116.674747 194.637913 
L 116.837644 194.787556 
L 116.891944 194.787556 
L 116.946243 192.597333 
L 117.000542 192.758577 
L 117.163439 192.758577 
L 117.326337 195.081366 
L 117.489234 195.081366 
L 117.652132 195.2256 
L 117.76073 193.0752 
L 117.923627 193.230651 
L 118.032226 193.230651 
L 118.195123 193.38424 
L 118.35802 195.648 
L 118.466619 195.648 
L 118.575217 193.536 
L 118.738114 193.685964 
L 118.846713 193.685964 
L 119.00961 193.834165 
L 119.118208 193.834165 
L 119.172507 193.980632 
L 119.226807 196.055579 
L 119.281106 193.980632 
L 119.389704 193.980632 
L 119.552601 194.125395 
L 119.6612 194.125395 
L 119.824097 194.268486 
L 119.932695 194.268486 
L 119.986994 194.409931 
L 120.095593 192.370759 
L 120.25849 194.54976 
L 120.475687 194.54976 
L 120.638584 194.688 
L 120.747182 194.688 
L 120.801482 194.824678 
L 120.964379 192.820068 
L 121.018678 192.820068 
L 121.127276 192.966472 
L 121.290174 194.95982 
L 121.453071 195.093453 
L 121.561669 195.093453 
L 121.724567 193.2544 
L 121.833165 193.2544 
L 121.996063 193.395978 
L 122.050362 193.395978 
L 122.213259 195.485538 
L 122.321857 195.485538 
L 122.376157 193.536 
L 122.430456 193.674492 
L 122.647652 193.674492 
L 122.81055 193.811478 
L 122.919148 193.811478 
L 123.027746 193.946984 
L 123.136344 195.864908 
L 123.190644 193.946984 
L 123.244943 194.081032 
L 123.462139 194.081032 
L 123.625037 194.213647 
L 123.733635 194.213647 
L 123.896532 194.344851 
L 124.005131 192.457532 
L 124.05943 192.597333 
L 124.222327 194.474667 
L 124.276626 194.474667 
L 124.439524 194.603116 
L 124.548122 194.603116 
L 124.711019 194.73022 
L 124.819618 192.872545 
L 124.982515 193.008 
L 125.145413 194.980477 
L 125.362609 194.980477 
L 125.471207 195.10367 
L 125.634105 193.274722 
L 125.797002 193.406031 
L 125.905601 193.406031 
L 125.9599 193.536 
L 126.122797 195.346286 
L 126.177096 195.346286 
L 126.231395 195.465746 
L 126.394293 193.66465 
L 126.448592 193.66465 
L 126.611489 193.792 
L 126.720088 193.792 
L 126.882985 193.91807 
L 126.937284 193.91807 
L 127.045882 195.81696 
L 127.20878 194.04288 
L 127.263079 194.04288 
L 127.425976 194.166448 
L 127.534575 194.166448 
L 127.697472 194.288792 
L 127.80607 194.288792 
L 127.914669 192.662069 
L 128.077566 194.409931 
L 128.240463 194.529882 
L 128.349062 194.529882 
L 128.511959 194.648663 
L 128.566258 194.648663 
L 128.620557 192.917854 
L 128.674857 193.043883 
L 128.837754 193.043883 
L 129.000651 194.882783 
L 129.163549 194.882783 
L 129.326446 194.998154 
L 129.380745 194.998154 
L 129.435044 193.292308 
L 129.489344 193.414737 
L 129.70654 193.414737 
L 129.869438 193.536 
L 130.032335 195.337706 
L 130.140933 195.337706 
L 130.249532 193.656114 
L 130.412429 193.775094 
L 130.521027 193.775094 
L 130.683925 193.892958 
L 130.792523 193.892958 
L 130.846822 194.00972 
L 130.901121 195.667738 
L 130.95542 194.00972 
L 131.064019 194.00972 
L 131.226916 194.125395 
L 131.335514 194.125395 
L 131.498412 194.24 
L 131.60701 194.24 
L 131.715608 194.353548 
L 131.769907 192.718452 
L 131.824207 194.353548 
L 131.878506 194.353548 
L 132.041403 194.466055 
L 132.150001 194.466055 
L 132.312899 194.577534 
L 132.475796 194.688 
L 132.638694 193.0752 
L 132.692993 193.0752 
L 132.801591 193.191964 
L 132.964488 194.797466 
L 133.127386 194.905946 
L 133.235984 194.905946 
L 133.398882 193.42235 
L 133.50748 193.42235 
L 133.670377 193.536 
L 133.724676 193.536 
L 133.887574 195.2256 
L 134.050471 195.2256 
L 134.213369 193.760283 
L 134.593463 193.870943 
L 134.702061 193.980632 
L 134.810659 195.536842 
L 134.864958 193.980632 
L 134.919257 194.089362 
L 135.40795 194.197148 
L 135.570847 194.304 
L 135.679445 192.768 
L 135.733744 192.880552 
L 135.896642 194.409931 
L 136.222437 194.514953 
L 136.385334 194.619077 
L 136.493932 193.102769 
L 136.65683 193.21246 
L 136.819727 194.824678 
L 137.145522 194.926177 
L 137.308419 193.429063 
L 137.471317 193.536 
L 137.688513 193.642042 
L 137.851411 195.126628 
L 137.90571 195.2256 
L 138.068607 193.7472 
L 138.394402 193.851485 
L 138.5573 193.954909 
L 138.611599 193.954909 
L 138.720197 195.51763 
L 138.883094 194.057481 
L 139.208889 194.159213 
L 139.371787 194.260114 
L 139.480385 194.260114 
L 139.588983 192.917854 
L 139.751881 194.360195 
L 139.914778 194.459466 
L 140.240573 194.557935 
L 140.294872 193.127226 
L 140.349171 193.230651 
L 140.620667 193.333248 
L 140.783564 194.752512 
L 141.05506 194.848637 
L 141.109359 193.435028 
L 141.163658 193.536 
L 141.543752 193.636174 
L 141.70665 195.132472 
L 141.815248 195.132472 
L 141.923846 193.735559 
L 142.086744 193.834165 
L 142.466838 193.932 
L 142.521137 194.029074 
L 142.575436 195.409681 
L 142.629735 194.029074 
L 143.009829 194.125395 
L 143.172726 194.220973 
L 143.389923 194.315815 
L 143.498521 192.951138 
L 143.661419 194.409931 
L 144.095812 194.503328 
L 144.150111 194.596015 
L 144.313008 193.246905 
L 144.475906 193.344 
L 144.638803 194.688 
L 144.8017 194.779291 
L 144.910299 194.779291 
L 145.073196 193.536 
L 145.398991 193.630921 
L 145.561888 195.049075 
L 145.724786 195.049075 
L 145.887683 193.818647 
L 146.267777 193.911467 
L 146.430675 194.003601 
L 146.484974 195.312886 
L 146.539273 194.003601 
L 146.70217 194.095059 
L 147.082264 194.185846 
L 147.245162 194.275971 
L 147.35376 192.981022 
L 147.408059 193.0752 
L 147.570957 194.36544 
L 147.896751 194.454261 
L 148.059649 194.54244 
L 148.168247 193.261516 
L 148.331144 193.353669 
L 148.494042 194.716903 
L 148.819837 194.8032 
L 148.982734 193.536 
L 149.145632 193.626192 
L 149.362828 193.715745 
L 149.525725 194.973957 
L 149.580025 195.058431 
L 149.742922 193.804664 
L 150.068717 193.892958 
L 150.231614 193.980632 
L 150.285913 193.980632 
L 150.394512 195.308308 
L 150.557409 194.067692 
L 150.883204 194.154146 
L 151.046101 194.24 
L 151.1547 194.24 
L 151.263298 193.097522 
L 151.426195 194.32526 
L 151.589093 194.409931 
L 151.969187 194.494021 
L 152.132084 193.362411 
L 152.294982 193.449502 
L 152.457879 194.660478 
L 152.729375 194.742857 
L 152.783674 193.536 
L 152.837973 193.621912 
L 153.218067 193.707243 
L 153.380964 194.986667 
L 153.489563 194.986667 
L 153.598161 193.792 
L 153.761058 193.876188 
L 154.141152 193.959813 
L 154.195451 194.04288 
L 154.30405 195.2256 
L 154.412648 194.04288 
L 154.575545 194.125395 
L 154.955639 194.207364 
L 155.064238 194.288792 
L 155.172836 193.117782 
L 155.335733 194.369684 
L 155.770126 194.450046 
L 155.824425 194.529882 
L 155.987323 193.370353 
L 156.15022 193.453446 
L 156.313118 194.609199 
L 156.476015 194.688 
L 156.638913 194.766291 
L 156.80181 193.618019 
L 157.073306 193.69951 
L 157.236203 194.921363 
L 157.3991 194.921363 
L 157.561998 193.860923 
L 157.942092 193.940856 
L 158.104989 194.02028 
L 158.159288 195.150268 
L 158.213588 194.02028 
L 158.376485 194.0992 
L 158.756579 194.17762 
L 158.919476 194.255546 
L 158.973775 194.255546 
L 159.028075 193.136252 
L 159.082374 193.217208 
L 159.245271 194.332981 
L 159.571066 194.409931 
L 159.733963 194.4864 
L 159.842562 193.3776 
L 160.005459 193.457047 
L 160.168357 194.637913 
L 160.494151 194.712966 
L 160.657049 193.614464 
L 160.819946 193.692444 
L 161.037143 193.769945 
L 161.20004 194.861686 
L 161.308638 194.935362 
L 161.471536 193.846969 
L 161.634433 193.923523 
L 161.960228 193.99961 
L 162.068826 195.153702 
L 162.231724 194.075234 
L 162.557519 194.1504 
L 162.720416 194.225112 
L 162.829014 194.225112 
L 162.937613 193.230651 
L 163.10051 194.299373 
L 163.263407 194.373189 
L 163.643501 194.446563 
L 163.806399 193.460346 
L 163.969296 193.536 
L 164.132194 194.592 
L 164.403689 194.664071 
L 164.457988 193.611205 
L 164.512288 193.685964 
L 164.892382 193.760283 
L 165.055279 194.877741 
L 165.163877 194.877741 
L 165.272475 193.834165 
L 165.435373 193.907613 
L 165.815467 193.980632 
L 165.869766 194.053224 
L 165.978364 195.087673 
L 166.086963 194.053224 
L 166.24986 194.125395 
L 166.629954 194.197148 
L 166.738552 194.268486 
L 166.84715 193.243006 
L 167.010048 194.339412 
L 167.444441 194.409931 
L 167.49874 194.480046 
L 167.661638 193.463381 
L 167.824535 193.536 
L 167.987432 194.54976 
L 168.15033 194.619077 
L 168.313227 194.688 
L 168.476125 193.68 
L 168.74762 193.751388 
L 168.910518 194.824678 
L 169.073415 194.824678 
L 169.236313 193.892958 
L 169.616407 193.963146 
L 169.779304 194.032941 
L 169.833603 195.026824 
L 169.887902 194.032941 
L 170.0508 194.102346 
L 170.430894 194.171365 
L 170.593791 194.24 
L 170.64809 194.24 
L 170.702389 193.2544 
L 170.756688 193.325385 
L 170.919586 194.308255 
L 171.245381 194.376133 
L 171.408278 194.443636 
L 171.516876 193.466182 
L 171.679774 193.536 
L 171.734073 193.536 
L 171.89697 194.577534 
L 172.168466 194.643934 
L 172.331363 193.674492 
L 172.494261 193.743172 
L 172.711457 193.811478 
L 172.874355 194.775652 
L 172.982953 194.840976 
L 173.14585 193.879415 
L 173.308748 193.946984 
L 173.634543 194.014189 
L 173.743141 195.034839 
L 173.906038 194.081032 
L 174.231833 194.147517 
L 174.394731 194.213647 
L 174.503329 194.213647 
L 174.666226 193.333248 
L 174.829124 194.344851 
L 175.317816 194.409931 
L 175.480713 193.536 
L 175.643611 193.602871 
L 175.806508 194.539061 
L 176.078004 194.603116 
L 176.132303 193.669389 
L 176.186602 193.735559 
L 176.566696 193.801382 
L 176.729594 194.793274 
L 176.892491 194.793274 
L 176.94679 193.866862 
L 177.001089 193.932 
L 177.489782 193.9968 
L 177.59838 194.061264 
L 177.652679 194.980477 
L 177.706978 194.061264 
L 178.032773 194.125395 
L 178.19567 194.189196 
L 178.412867 194.252668 
L 178.521465 193.340545 
L 178.684363 194.315815 
L 179.118756 194.378639 
L 179.227354 194.441143 
L 179.390251 193.536 
L 179.49885 193.600489 
L 179.661747 194.503328 
L 179.824644 194.565198 
L 179.987542 194.626754 
L 180.150439 193.728486 
L 180.476234 193.792 
L 180.530533 193.855194 
L 180.693431 194.748937 
L 180.74773 194.748937 
L 180.910627 193.91807 
L 181.290721 193.980632 
L 181.453619 194.04288 
L 181.562217 194.92992 
L 181.725114 194.104818 
L 182.105208 194.166448 
L 182.268106 194.227772 
L 182.322405 194.227772 
L 182.376704 193.347335 
L 182.431003 193.410535 
L 182.5939 194.288792 
L 182.919695 194.349511 
L 183.082593 194.409931 
L 183.191191 193.536 
L 183.354088 193.59827 
L 183.408388 193.59827 
L 183.571285 194.529882 
L 183.89708 194.589418 
L 184.005678 193.721897 
L 184.168575 193.783259 
L 184.385772 193.844321 
L 184.548669 194.70762 
L 184.657268 194.766291 
L 184.820165 193.905087 
L 184.983063 193.965559 
L 185.308857 194.025739 
L 185.417456 194.940607 
L 185.580353 194.085629 
L 185.906148 194.145231 
L 186.069045 194.204547 
L 186.231943 194.263579 
L 186.340541 193.414737 
L 186.503438 194.322329 
L 186.992131 194.3808 
L 187.155028 193.5962 
L 187.317925 193.656114 
L 187.480823 194.49691 
L 187.752319 194.554553 
L 187.806618 193.715745 
L 187.860917 193.775094 
L 188.241011 193.834165 
L 188.403908 194.725859 
L 188.566806 194.725859 
L 188.621105 193.892958 
L 188.675404 193.951475 
L 189.164096 194.00972 
L 189.272694 194.067692 
L 189.326994 194.894769 
L 189.381293 194.067692 
L 189.707088 194.125395 
L 189.869985 194.182831 
L 190.087181 194.24 
L 190.19578 193.418667 
L 190.358677 194.296905 
L 190.79307 194.353548 
L 190.901669 194.409931 
L 191.064566 193.594262 
L 191.173164 193.652257 
L 191.336062 194.466055 
L 191.498959 194.521922 
L 191.661856 194.577534 
L 191.824754 193.767452 
L 192.150549 193.824656 
L 192.204848 193.8816 
L 192.367745 194.688 
L 192.422044 194.688 
L 192.584942 193.938286 
L 192.965036 193.994715 
L 193.127933 194.050889 
L 193.236531 194.851828 
L 193.399429 194.106811 
L 193.996719 194.217901 
L 194.051019 193.42235 
L 194.105318 193.479302 
L 194.268215 194.273074 
L 194.756907 194.382682 
L 194.865506 193.592445 
L 195.028403 193.64864 
L 195.082702 193.64864 
L 195.2456 194.491317 
L 195.571394 194.545274 
L 195.679993 193.760283 
L 195.84289 193.815735 
L 196.060087 193.870943 
L 196.222984 194.652476 
L 196.331582 194.705723 
L 196.49448 193.925908 
L 196.657377 193.980632 
L 196.983172 194.035116 
L 197.09177 194.86407 
L 197.254668 194.089362 
L 197.851958 194.197148 
L 197.906257 194.25069 
L 198.014856 193.481024 
L 198.177753 194.304 
L 198.666445 194.35708 
L 198.829343 193.645241 
L 198.99224 193.69951 
L 199.155138 194.462555 
L 199.426633 194.514953 
L 199.480932 193.753545 
L 199.535231 193.807349 
L 199.915325 193.860923 
L 200.078223 194.670806 
L 200.24112 194.670806 
L 200.295419 193.914269 
L 200.349719 193.967387 
L 200.947009 194.072949 
L 201.001308 194.824678 
L 201.055607 194.072949 
L 201.652898 194.17762 
L 201.815795 194.229625 
L 201.870094 193.482644 
L 201.924394 194.229625 
L 202.087291 194.281412 
L 202.575983 194.384335 
L 202.738881 193.642042 
L 202.901778 193.694731 
L 203.064675 194.4864 
L 203.336171 194.537114 
L 203.499069 193.799451 
L 203.879163 193.903304 
L 204.04206 194.637913 
L 204.150658 194.688 
L 204.313556 193.954909 
L 204.802248 194.057481 
L 204.910846 194.787556 
L 205.073744 194.108452 
L 205.671034 194.209767 
L 205.725333 193.484172 
L 205.779632 193.536 
L 205.833931 193.536 
L 205.996829 194.260114 
L 206.214025 194.310257 
L 206.485521 194.360195 
L 206.53982 193.639024 
L 206.594119 193.690223 
L 206.757017 193.690223 
L 206.919914 194.459466 
L 207.245709 194.5088 
L 207.354307 193.792 
L 207.571504 193.842581 
L 207.734401 193.892958 
L 207.897299 194.606873 
L 208.005897 194.655614 
L 208.168794 193.943133 
L 208.385991 193.993106 
L 208.766085 194.092455 
L 208.820384 194.800671 
L 208.874683 194.092455 
L 209.526273 194.191014 
L 209.580572 194.24 
L 209.68917 193.536 
L 209.852068 194.288792 
L 210.34076 194.337391 
L 210.503657 193.685964 
L 210.666555 193.735559 
L 210.829452 194.434016 
L 211.155247 194.482043 
L 211.318144 193.834165 
L 211.643939 193.883178 
L 211.806837 194.625 
L 211.915435 194.625 
L 211.969734 193.932 
L 212.024033 193.980632 
L 212.621324 194.077328 
L 212.675623 194.766291 
L 212.729922 194.077328 
L 213.327213 194.173277 
L 213.49011 194.220973 
L 213.544409 193.536 
L 213.598708 194.220973 
L 213.815905 194.268486 
L 214.250298 194.362964 
L 214.413195 193.681935 
L 214.576093 193.730207 
L 214.73899 194.456719 
L 215.010486 194.503328 
L 215.173383 193.826198 
L 215.553477 193.92146 
L 215.716375 194.596015 
L 215.824973 194.642095 
L 215.98787 193.96882 
L 216.476563 194.063002 
L 216.585161 194.733732 
L 216.748058 194.109826 
L 217.345349 194.202947 
L 217.399648 193.536 
L 217.453947 193.58355 
L 217.508246 193.58355 
L 217.671144 194.249246 
L 217.88834 194.295371 
L 218.159836 194.341323 
L 218.214135 193.678116 
L 218.268434 193.725134 
L 218.431331 193.725134 
L 218.594229 194.432715 
L 218.920024 194.478156 
L 219.028622 193.818647 
L 219.245819 193.865143 
L 219.408716 193.911467 
L 219.571613 194.568533 
L 219.680212 194.613471 
L 219.843109 193.957619 
L 220.060306 194.003601 
L 220.4404 194.095059 
L 220.494699 194.747294 
L 220.548998 194.095059 
L 221.200588 194.185846 
L 221.254887 194.230991 
L 221.363485 193.582333 
L 221.526382 194.275971 
L 222.015075 194.320787 
L 222.177972 193.72032 
L 222.340869 193.765982 
L 222.503767 194.409931 
L 222.829562 194.454261 
L 222.992459 193.85681 
L 223.318254 193.901978 
L 223.481151 194.586292 
L 223.58975 194.586292 
L 223.644049 193.946984 
L 223.698348 193.991827 
L 224.295638 194.081032 
L 224.349938 194.716903 
L 224.404237 194.081032 
L 225.001527 194.1696 
L 225.164425 194.213647 
L 225.218724 193.581176 
L 225.273023 194.213647 
L 225.490219 194.257537 
L 225.924613 194.344851 
L 226.08751 193.715745 
L 226.250407 193.760283 
L 226.413305 194.431548 
L 226.7391 194.474667 
L 226.901997 193.848889 
L 227.119194 193.892958 
L 227.227792 193.936872 
L 227.390689 194.56045 
L 227.499288 194.603116 
L 227.662185 193.980632 
L 228.150877 194.067692 
L 228.259475 194.688 
L 228.422373 194.110995 
L 229.073963 194.197148 
L 229.182561 193.624 
L 229.345458 194.24 
L 229.562655 194.282704 
L 229.83415 194.32526 
L 229.88845 193.711391 
L 229.942749 193.75486 
L 230.105646 193.75486 
L 230.268544 194.409931 
L 230.594338 194.452048 
L 230.702937 193.841349 
L 230.920133 193.884371 
L 231.083031 193.927245 
L 231.245928 194.535849 
L 231.408825 194.577534 
L 231.517424 193.969973 
L 231.73462 194.012554 
L 232.114714 194.097281 
L 232.169013 194.701738 
L 232.223313 194.097281 
L 232.874902 194.181433 
L 232.929201 194.223295 
L 233.0378 193.621912 
L 233.200697 194.265015 
L 233.743688 194.348034 
L 233.906586 193.749693 
L 234.069483 193.792 
L 234.232381 194.389333 
L 234.449577 194.430494 
L 234.503876 194.430494 
L 234.666774 193.876188 
L 234.992569 193.91807 
L 235.155466 194.553151 
L 235.264064 194.553151 
L 235.318363 193.959813 
L 235.372663 194.001416 
L 235.969953 194.084206 
L 236.078551 194.674582 
L 236.13285 194.084206 
L 236.18715 194.125395 
L 236.838739 194.207364 
L 236.947337 193.619921 
L 237.001637 193.661673 
L 237.164534 194.248145 
L 237.598927 194.329305 
L 237.761825 193.744764 
L 237.924722 193.786105 
L 238.087619 194.409931 
L 238.413414 194.450046 
L 238.576312 193.86838 
L 238.793508 193.909316 
L 238.902106 193.950118 
L 239.065004 194.529882 
L 239.173602 194.569605 
L 239.3365 193.990786 
L 239.879491 194.071727 
L 239.93379 194.648663 
L 239.988089 194.112 
L 240.748277 194.192155 
L 240.856875 193.65883 
L 241.019773 194.232039 
L 241.236969 194.271794 
L 241.508465 194.31142 
L 241.562764 193.740058 
L 241.617063 193.780476 
L 241.779961 193.780476 
L 241.942858 194.390292 
L 242.268653 194.429538 
L 242.377251 193.860923 
L 242.594448 193.900954 
L 242.811644 193.940856 
L 242.974542 194.546526 
L 243.08314 194.546526 
L 243.191738 193.980632 
L 243.408935 194.02028 
L 243.789029 194.0992 
L 243.843328 194.6624 
L 243.897627 194.0992 
L 244.549217 194.17762 
L 244.603516 194.216645 
L 244.712114 193.656114 
L 244.875012 194.255546 
L 245.418003 194.332981 
L 245.5809 193.775094 
L 245.743798 193.814505 
L 245.906695 194.371516 
L 246.123892 194.409931 
L 246.178191 194.409931 
L 246.341088 193.892958 
L 246.666883 193.932 
L 246.829781 194.524456 
L 246.938379 194.524456 
L 246.992678 193.97092 
L 247.046977 194.00972 
L 247.644268 194.086957 
L 247.752866 194.637913 
L 247.807165 194.086957 
L 247.861464 194.125395 
L 248.513054 194.201917 
L 248.621652 193.653515 
L 248.675951 193.692444 
L 248.838849 194.24 
L 249.273242 194.315815 
L 249.436139 193.769945 
L 249.599037 193.808516 
L 249.761934 194.391166 
L 250.087729 194.428668 
L 250.250626 193.885305 
L 250.467823 193.923523 
L 250.576421 193.961624 
L 250.739319 194.503328 
L 250.847917 194.540488 
L 251.010814 193.99961 
L 251.553806 194.075234 
L 251.608105 194.614468 
L 251.662404 194.112874 
L 252.422592 194.187812 
L 252.53119 193.689136 
L 252.694087 194.225112 
L 252.911284 194.262299 
L 253.18278 194.299373 
L 253.237079 193.765012 
L 253.291378 193.802779 
L 253.454275 193.802779 
L 253.617173 194.373189 
L 253.997267 194.409931 
L 254.051566 193.877973 
L 254.105865 193.915401 
L 254.485959 193.952717 
L 254.648856 194.519499 
L 254.757455 194.519499 
L 254.866053 193.989922 
L 255.08325 194.027016 
L 255.463344 194.100874 
L 255.517643 194.628089 
L 255.571942 194.100874 
L 256.33213 194.21084 
L 256.386429 193.685964 
L 256.440728 194.21084 
L 257.092318 194.319835 
L 257.255215 193.797278 
L 257.418112 193.834165 
L 257.58101 194.355953 
L 257.798206 194.391965 
L 257.852506 194.391965 
L 258.015403 193.907613 
L 258.341198 193.944176 
L 258.504095 194.499368 
L 258.666993 194.499368 
L 258.82989 194.016981 
L 259.318582 194.089362 
L 259.427181 194.605834 
L 259.48148 194.089362 
L 259.535779 194.125395 
L 260.187369 194.197148 
L 260.295967 193.682922 
L 260.350266 193.719386 
L 260.513163 194.232868 
L 261.001856 194.304 
L 261.110454 193.792 
L 261.273351 193.82815 
L 261.436249 194.374722 
L 261.762044 194.409931 
L 261.924941 193.900138 
L 262.142137 193.935977 
L 262.250736 193.971713 
L 262.413633 194.480046 
L 262.522231 194.514953 
L 262.685129 194.007348 
L 263.22812 194.078311 
L 263.336719 194.619077 
L 263.499616 194.113641 
L 264.096906 194.184 
L 264.205505 193.715745 
L 264.368402 194.21903 
L 264.585599 194.25396 
L 264.857094 194.288792 
L 264.911394 193.786931 
L 264.965693 193.822373 
L 265.237188 193.857715 
L 265.400086 194.358161 
L 265.671581 194.392699 
L 265.725881 193.892958 
L 265.78018 193.928101 
L 266.160274 193.963146 
L 266.323171 194.495731 
L 266.431769 194.495731 
L 266.540368 193.998093 
L 266.757564 194.032941 
L 267.137658 194.102346 
L 267.191957 194.597899 
L 267.246256 194.102346 
L 268.006444 194.20573 
L 268.115043 193.712245 
L 268.27794 194.24 
L 268.766632 194.308255 
L 268.92953 193.81682 
L 269.092427 193.851485 
L 269.255325 194.342241 
L 269.472521 194.376133 
L 269.52682 194.376133 
L 269.689718 193.92053 
L 270.015512 193.954909 
L 270.17841 194.477249 
L 270.341307 194.477249 
L 270.504205 194.023385 
L 271.047196 194.091485 
L 271.101495 194.577534 
L 271.155794 194.091485 
L 271.372991 194.125395 
L 271.861683 194.192939 
L 271.970281 193.708879 
L 272.024581 193.743172 
L 272.187478 194.226572 
L 272.67617 194.293565 
L 272.784769 193.811478 
L 272.947666 193.845493 
L 273.110563 194.360195 
L 273.436358 194.393375 
L 273.599256 193.913245 
L 273.816452 193.946984 
L 273.97935 193.980632 
L 274.142247 194.459466 
L 274.196546 194.492377 
L 274.359444 194.014189 
L 274.902435 194.081032 
L 275.011033 194.590583 
L 275.173931 194.114319 
L 275.771221 194.180627 
L 275.879819 193.739294 
L 276.042717 194.213647 
L 276.259913 194.246579 
L 276.531409 194.279424 
L 276.585708 193.806336 
L 276.640007 193.839723 
L 276.911503 193.873021 
L 277.0744 194.344851 
L 277.345896 194.377434 
L 277.400195 193.906231 
L 277.454494 193.939353 
L 277.834588 193.972387 
L 277.997486 194.474667 
L 278.106084 194.474667 
L 278.214682 194.005333 
L 278.431879 194.038193 
L 278.811973 194.103652 
L 278.920571 194.57113 
L 279.029169 194.103652 
L 279.246366 194.136253 
L 279.680759 194.201197 
L 279.789357 193.735559 
L 279.952255 194.233541 
L 280.440947 194.297976 
L 280.603844 193.834165 
L 280.766742 193.866862 
L 280.929639 194.330068 
L 281.255434 194.394 
L 281.418331 193.932 
L 281.689827 193.964442 
L 281.852725 194.4576 
L 282.015622 194.4576 
L 282.178519 194.029074 
L 282.721511 194.093371 
L 282.77581 194.552383 
L 282.830109 194.093371 
L 283.155904 194.157337 
L 283.590297 194.189196 
L 283.644596 193.731959 
L 283.698895 193.764324 
L 283.861793 194.220973 
L 284.350485 194.284282 
L 284.459083 193.828806 
L 284.621981 193.860923 
L 284.784878 194.347268 
L 285.110673 194.378639 
L 285.27357 193.92491 
L 285.599365 193.988571 
L 285.653664 193.988571 
L 285.816562 194.441143 
L 285.92516 194.472275 
L 286.088057 194.02028 
L 286.413852 194.083456 
L 286.57675 194.083456 
L 286.685348 194.565198 
L 286.848245 194.114924 
L 287.445536 194.17762 
L 287.554134 193.760283 
L 287.717031 194.20885 
L 288.042826 194.271072 
L 288.260023 194.271072 
L 288.42292 193.855194 
L 288.585818 193.886672 
L 288.748715 194.332981 
L 289.020211 194.363819 
L 289.07451 193.91807 
L 289.128809 193.94939 
L 289.508903 193.980632 
L 289.6718 194.45587 
L 289.780399 194.45587 
L 289.888997 194.011795 
L 290.214792 194.073888 
L 290.486287 194.104818 
L 290.594886 194.547232 
L 290.703484 194.104818 
L 291.029279 194.166448 
L 291.355074 194.197148 
L 291.463672 193.756383 
L 291.626569 194.227772 
L 292.115262 194.288792 
L 292.278159 193.849663 
L 292.441056 193.880603 
L 292.603954 194.319189 
L 292.929749 194.379758 
L 293.092646 193.942254 
L 293.364142 193.972966 
L 293.527039 194.44003 
L 293.689937 194.44003 
L 293.852834 194.034162 
L 294.395825 194.095059 
L 294.450125 194.529882 
L 294.504424 194.095059 
L 294.830218 194.155658 
L 295.264612 194.185846 
L 295.318911 193.752615 
L 295.37321 193.783259 
L 295.536107 194.215961 
L 296.0248 194.275971 
L 296.133398 193.844321 
L 296.296295 193.874741 
L 296.459193 194.335689 
L 296.784987 194.36544 
L 296.947885 193.93536 
L 297.27368 193.995686 
L 297.327979 193.995686 
L 297.490876 194.424726 
L 297.599475 194.454261 
L 297.762372 194.025739 
L 298.088167 194.085629 
L 298.251064 194.085629 
L 298.359662 194.54244 
L 298.52256 194.115466 
L 299.11985 194.174924 
L 299.282748 193.779108 
L 299.445645 194.234098 
L 299.934337 194.263579 
L 300.097235 193.869075 
L 300.260132 193.898921 
L 300.42303 194.322329 
L 300.694525 194.3516 
L 300.748825 193.928696 
L 300.803124 193.9584 
L 301.183218 193.988033 
L 301.346115 194.438993 
L 301.454713 194.438993 
L 301.563312 194.017596 
L 301.889106 194.076512 
L 302.214901 194.105865 
L 302.2692 194.525766 
L 302.3235 194.105865 
L 303.029388 194.193509 
L 303.137987 193.775094 
L 303.300884 194.222587 
L 303.843875 194.280536 
L 304.006773 193.863596 
L 304.115371 193.892958 
L 304.278268 194.309408 
L 304.604063 194.366951 
L 304.766961 193.951475 
L 305.147055 194.00972 
L 305.309952 194.424224 
L 305.364251 194.424224 
L 305.527149 194.03874 
L 306.07014 194.096577 
L 306.178738 194.509634 
L 306.341636 194.125395 
L 306.938926 194.182831 
L 306.993225 193.771211 
L 307.047525 193.800306 
L 307.210422 194.211448 
L 307.699114 194.268486 
L 307.807712 193.858294 
L 308.024909 193.887187 
L 308.187806 194.32526 
L 308.513601 194.353548 
L 308.6222 193.944774 
L 308.947994 194.002097 
L 309.002293 194.002097 
L 309.165191 194.409931 
L 309.273789 194.438025 
L 309.436687 194.030659 
L 309.762481 194.087588 
L 309.925379 194.087588 
L 310.033977 194.521922 
L 310.196875 194.115954 
L 310.848464 194.200666 
L 310.957062 193.796087 
L 311.11996 194.228774 
L 311.608652 194.256819 
L 311.77155 193.8816 
L 311.934447 193.909975 
L 312.097344 194.312717 
L 312.36884 194.340571 
L 312.423139 193.938286 
L 312.477438 193.966532 
L 312.857532 193.994715 
L 313.02043 194.423756 
L 313.183327 194.423756 
L 313.237626 194.022834 
L 313.291925 194.050889 
L 313.889216 194.106811 
L 313.943515 194.506378 
L 313.997814 194.106811 
L 314.703703 194.190222 
L 314.812301 193.792 
L 314.975199 194.217901 
L 315.51819 194.273074 
L 315.681087 193.876188 
L 315.789686 193.904125 
L 315.952583 194.300568 
L 316.278378 194.355371 
L 316.441275 193.959813 
L 316.821369 194.015253 
L 316.984267 194.409931 
L 317.038566 194.409931 
L 317.201463 194.04288 
L 317.744455 194.097951 
L 317.853053 194.491317 
L 318.01595 194.125395 
L 318.613241 194.180102 
L 318.66754 193.78804 
L 318.721839 193.815735 
L 318.884737 194.207364 
L 319.373429 194.261709 
L 319.482027 193.870943 
L 319.699224 193.898455 
L 319.862121 194.315815 
L 320.187916 194.342779 
L 320.296514 193.9533 
L 320.622309 194.007904 
L 320.676608 194.007904 
L 320.839506 194.39653 
L 320.948104 194.423317 
L 321.111001 194.035116 
L 321.436796 194.089362 
L 321.599693 194.089362 
L 321.708292 194.503328 
L 321.871189 194.116397 
L 322.522779 194.197148 
L 322.631377 193.811478 
L 322.794275 194.223948 
L 323.282967 194.25069 
L 323.445864 193.892958 
L 323.608762 193.92 
L 323.771659 194.304 
L 324.043155 194.330569 
L 324.097454 193.946984 
L 324.151753 193.973909 
L 324.531847 194.000777 
L 324.694744 194.409931 
L 324.857642 194.409931 
L 324.911941 194.027586 
L 324.96624 194.054338 
L 325.563531 194.107669 
L 325.61783 194.488782 
L 325.672129 194.107669 
L 326.378018 194.187238 
L 326.486616 193.807349 
L 326.649513 194.213647 
L 327.192505 194.266297 
L 327.355402 193.887624 
L 327.464 193.914269 
L 327.626898 194.292537 
L 327.952693 194.344851 
L 328.11559 193.967387 
L 328.495684 194.02028 
L 328.658581 194.396943 
L 328.712881 194.396943 
L 328.875778 194.046643 
L 329.418769 194.0992 
L 329.527368 194.474667 
L 329.690265 194.125395 
L 330.287556 194.17762 
L 330.341855 193.803342 
L 330.396154 193.829766 
L 330.450453 193.829766 
L 330.61335 194.20365 
L 330.939145 194.255546 
L 331.102043 194.255546 
L 331.156342 193.882448 
L 331.210641 193.908706 
L 331.373538 193.908706 
L 331.536436 194.307224 
L 331.862231 194.332981 
L 331.970829 193.961057 
L 332.296624 194.013188 
L 332.350923 194.013188 
L 332.51382 194.384335 
L 332.622418 194.409931 
L 332.785316 194.039172 
L 333.111111 194.090978 
L 333.382606 194.1168 
L 333.436906 194.4864 
L 333.491205 194.1168 
L 334.197093 194.193944 
L 334.305692 193.825495 
L 334.468589 194.219552 
L 334.957281 194.245107 
L 335.120179 193.903304 
L 335.283076 193.929133 
L 335.445974 194.296058 
L 335.771768 194.321455 
L 335.934666 193.980632 
L 336.260461 194.006301 
L 336.423358 194.397331 
L 336.531956 194.397331 
L 336.586256 194.031918 
L 336.640555 194.057481 
L 337.237845 194.108452 
L 337.292144 194.472739 
L 337.346443 194.108452 
L 338.106631 194.184516 
L 338.160931 193.821347 
L 338.21523 194.184516 
L 338.541024 194.234966 
L 338.866819 194.260114 
L 339.029717 193.898057 
L 339.192614 193.923523 
L 339.355512 194.310257 
L 339.627007 194.335251 
L 339.789905 193.974299 
L 340.169999 194.024869 
L 340.332896 194.385088 
L 340.441494 194.409931 
L 340.604392 194.050077 
L 341.093084 194.10034 
L 341.201682 194.459466 
L 341.36458 194.125395 
L 341.96187 194.175354 
L 342.016169 193.817316 
L 342.070468 193.842581 
L 342.124768 193.842581 
L 342.287665 194.200258 
L 342.61346 194.249915 
L 342.776357 194.249915 
L 342.830656 193.892958 
L 342.884956 193.91807 
L 343.047853 193.91807 
L 343.21075 194.299373 
L 343.536545 194.324028 
L 343.645143 193.968144 
L 343.970938 194.018018 
L 344.025237 194.018018 
L 344.188135 194.373189 
L 344.296733 194.397696 
L 344.459631 194.04288 
L 344.785425 194.092455 
L 345.056921 194.117168 
L 345.11122 194.470923 
L 345.165519 194.117168 
L 345.871408 194.191014 
L 345.980006 193.838314 
L 346.142904 194.215531 
L 346.631596 194.24 
L 346.794493 193.912769 
L 346.957391 193.937489 
L 347.120288 194.288792 
L 347.446083 194.313116 
L 347.608981 193.986783 
L 347.934775 194.011356 
L 348.097673 194.385799 
L 348.206271 194.385799 
L 348.26057 194.035882 
L 348.369168 194.060359 
L 348.91216 194.109168 
L 348.966459 194.458053 
L 349.020758 194.109168 
L 349.780946 194.182024 
L 349.835245 193.834165 
L 349.889544 194.182024 
L 350.269638 194.230356 
L 350.541134 194.254452 
L 350.704031 193.907613 
L 350.866929 193.932 
L 351.029826 194.302501 
L 351.301322 194.326456 
L 351.464219 193.980632 
L 351.844313 194.029074 
L 352.007211 194.374226 
L 352.115809 194.398041 
L 352.278706 194.053224 
L 352.767399 194.101385 
L 352.875997 194.445532 
L 353.038894 194.125395 
L 353.636185 194.173277 
L 353.690484 193.830128 
L 353.799082 193.85433 
L 353.96198 194.197148 
L 354.342074 194.244752 
L 354.450672 194.244752 
L 354.504971 193.902596 
L 354.613569 193.926659 
L 354.722168 193.926659 
L 354.885065 194.292173 
L 355.21086 194.315815 
L 355.319458 193.974646 
L 355.373757 193.998571 
L 355.699552 194.022449 
L 355.862449 194.362964 
L 356.025347 194.38647 
L 356.133945 194.046282 
L 356.188244 194.070069 
L 356.731236 194.117507 
L 356.785535 194.456719 
L 356.839834 194.117507 
L 357.545723 194.188324 
L 357.654321 193.850082 
L 357.817218 194.21184 
L 358.36021 194.258738 
L 358.523107 193.92146 
L 358.631706 193.945162 
L 358.794603 194.28212 
L 359.120398 194.305457 
L 359.283295 193.992432 
L 359.60909 194.016 
L 359.771987 194.375205 
L 359.880586 194.375205 
L 359.934885 194.039523 
L 360.043483 194.063002 
L 360.586474 194.109826 
L 360.695073 194.444558 
L 360.749372 194.109826 
L 360.85797 194.133172 
L 361.455261 194.179733 
L 361.563859 193.845945 
L 361.618158 193.869474 
L 361.781056 194.202947 
L 362.215449 194.249246 
L 362.378346 193.916398 
L 362.541243 193.939794 
L 362.704141 194.295371 
L 363.029936 194.318369 
L 363.192833 193.986455 
L 363.518628 194.032941 
L 363.681525 194.364235 
L 363.790124 194.387104 
L 363.953021 194.056119 
L 364.496012 194.102346 
L 364.550312 194.432715 
L 364.604611 194.125395 
L 365.364799 194.171365 
L 365.473397 193.865143 
L 365.636294 194.194286 
L 366.016388 194.24 
L 366.124987 194.24 
L 366.179286 193.911467 
L 366.287884 193.934564 
L 366.396482 193.934564 
L 366.55938 194.285545 
L 366.885174 194.308255 
L 366.993773 193.980632 
L 367.048072 194.003601 
L 367.428166 194.026529 
L 367.591063 194.376133 
L 367.699662 194.376133 
L 367.80826 194.049414 
L 367.862559 194.072258 
L 368.40555 194.117818 
L 368.459849 194.443636 
L 368.514149 194.117818 
L 369.220037 194.185846 
L 369.328636 193.860923 
L 369.491533 194.208439 
L 370.034524 194.253501 
L 370.197422 193.929468 
L 370.360319 193.952234 
L 370.523217 194.275971 
L 370.794712 194.298399 
L 370.95761 193.997639 
L 371.283405 194.02028 
L 371.446302 194.36544 
L 371.5549 194.36544 
L 371.609199 194.04288 
L 371.717798 194.065439 
L 372.260789 194.110433 
L 372.369387 194.432116 
L 372.423687 194.110433 
L 372.532285 194.13287 
L 373.129575 194.17762 
L 373.238174 193.85681 
L 373.292473 193.879415 
L 373.45537 194.199935 
L 373.889763 194.244444 
L 374.052661 193.924501 
L 374.215558 193.946984 
L 374.378456 194.288792 
L 374.70425 194.310906 
L 374.867148 193.991827 
L 375.192943 194.03651 
L 375.35584 194.355016 
L 375.464438 194.377012 
L 375.627336 194.058791 
L 376.170327 194.103234 
L 376.224626 194.420885 
L 376.278925 194.125395 
L 377.039113 194.1696 
L 377.147712 193.875126 
L 377.310609 194.191643 
L 377.690703 194.235612 
L 377.799301 194.235612 
L 377.8536 193.919658 
L 377.962199 193.941865 
L 378.070797 193.941865 
L 378.233694 194.279424 
L 378.559489 194.301272 
L 378.668087 193.98616 
L 378.722387 194.008248 
L 379.10248 194.030298 
L 379.265378 194.366583 
L 379.373976 194.366583 
L 379.482574 194.052308 
L 379.536874 194.07428 
L 380.079865 194.118106 
L 380.134164 194.431548 
L 380.188463 194.118106 
L 380.948651 194.183556 
L 381.00295 193.870943 
L 381.057249 194.183556 
L 381.708839 194.248661 
L 381.871737 193.936872 
L 382.034634 193.958771 
L 382.197531 194.270286 
L 382.469027 194.291874 
L 382.631924 194.002454 
L 382.957719 194.024238 
L 383.120617 194.356409 
L 383.283514 194.356409 
L 383.446412 194.067692 
L 383.935104 194.110995 
L 384.043702 194.420607 
L 384.098001 194.110995 
L 384.206599 194.132589 
L 384.80389 194.175666 
L 384.912488 193.866862 
L 384.966787 193.888612 
L 385.129685 194.197148 
L 385.618377 194.24 
L 385.726975 193.932 
L 385.781274 193.953637 
L 385.889873 193.953637 
L 386.05277 194.282704 
L 386.378565 194.304 
L 386.541462 193.9968 
L 386.867257 194.039813 
L 387.030155 194.346482 
L 387.138753 194.367668 
L 387.30165 194.061264 
L 387.844642 194.104055 
L 387.95324 194.431008 
L 388.116137 194.125395 
L 388.713428 194.167966 
L 388.822026 193.884371 
L 388.984924 194.189196 
L 389.365018 194.231547 
L 389.473616 194.231547 
L 389.527915 193.927245 
L 389.636513 193.948627 
L 389.745112 193.948627 
L 389.908009 194.273753 
L 390.288103 194.294802 
L 390.342402 193.991281 
L 390.451 194.012554 
L 390.776795 194.03379 
L 390.939693 194.357734 
L 391.048291 194.357734 
L 391.156889 194.05499 
L 391.211188 194.076153 
L 391.75418 194.118373 
L 391.808479 194.420344 
L 391.862778 194.118373 
L 392.622966 194.181433 
L 392.677265 193.880231 
L 392.731564 194.181433 
L 393.383154 194.244173 
L 393.546051 193.943736 
L 393.708949 193.964832 
L 393.871846 194.265015 
L 394.143342 194.285822 
L 394.306239 194.006919 
L 394.632034 194.027909 
L 394.794931 194.348034 
L 394.957829 194.348034 
L 395.120726 194.069783 
L 395.663718 194.111516 
L 395.718017 194.409931 
L 395.772316 194.111516 
L 396.15241 194.153108 
L 396.478205 194.173852 
L 396.586803 193.876188 
L 396.641102 193.897147 
L 396.803999 194.194562 
L 397.292692 194.235876 
L 397.40129 193.938959 
L 397.455589 193.959813 
L 397.564187 193.959813 
L 397.727085 194.277053 
L 398.05288 194.297589 
L 398.215777 194.001416 
L 398.487273 194.022165 
L 398.487273 194.022165 
" style="fill:none;stroke:#1f77b4;stroke-linecap:square;stroke-width:1.5;"/>
   </g>
   <g id="patch_3">
    <path d="M 57.6 307.584 
L 57.6 41.472 
" style="fill:none;stroke:#000000;stroke-linecap:square;stroke-linejoin:miter;stroke-width:0.8;"/>
   </g>
   <g id="patch_4">
    <path d="M 414.72 307.584 
L 414.72 41.472 
" style="fill:none;stroke:#000000;stroke-linecap:square;stroke-linejoin:miter;stroke-width:0.8;"/>
   </g>
   <g id="patch_5">
    <path d="M 57.6 307.584 
L 414.72 307.584 
" style="fill:none;stroke:#000000;stroke-linecap:square;stroke-linejoin:miter;stroke-width:0.8;"/>
   </g>
   <g id="patch_6">
    <path d="M 57.6 41.472 
L 414.72 41.472 
" style="fill:none;stroke:#000000;stroke-linecap:square;stroke-linejoin:miter;stroke-width:0.8;"/>
   </g>
  </g>
 </g>
 <defs>
  <clipPath id="p6edc1045d1">
   <rect height="266.112" width="357.12" x="57.6" y="41.472"/>
  </clipPath>
 </defs>
</svg>
