<?xml version="1.0" encoding="utf-8" standalone="no"?>
<!DOCTYPE svg PUBLIC "-//W3C//DTD SVG 1.1//EN"
  "http://www.w3.org/Graphics/SVG/1.1/DTD/svg11.dtd">
<!-- Created with matplotlib (https://matplotlib.org/) -->
<svg height="345.6pt" version="1.1" viewBox="0 0 460.8 345.6" width="460.8pt" xmlns="http://www.w3.org/2000/svg" xmlns:xlink="http://www.w3.org/1999/xlink">
 <metadata>
  <rdf:RDF xmlns:cc="http://creativecommons.org/ns#" xmlns:dc="http://purl.org/dc/elements/1.1/" xmlns:rdf="http://www.w3.org/1999/02/22-rdf-syntax-ns#">
   <cc:Work>
    <dc:type rdf:resource="http://purl.org/dc/dcmitype/StillImage"/>
    <dc:date>2022-08-02T10:59:14.278718</dc:date>
    <dc:format>image/svg+xml</dc:format>
    <dc:creator>
     <cc:Agent>
      <dc:title>Matplotlib v3.3.4, https://matplotlib.org/</dc:title>
     </cc:Agent>
    </dc:creator>
   </cc:Work>
  </rdf:RDF>
 </metadata>
 <defs>
  <style type="text/css">*{stroke-linecap:butt;stroke-linejoin:round;}</style>
 </defs>
 <g id="figure_1">
  <g id="patch_1">
   <path d="M 0 345.6 
L 460.8 345.6 
L 460.8 0 
L 0 0 
z
" style="fill:#ffffff;"/>
  </g>
  <g id="axes_1">
   <g id="patch_2">
    <path d="M 57.6 307.584 
L 414.72 307.584 
L 414.72 41.472 
L 57.6 41.472 
z
" style="fill:#ffffff;"/>
   </g>
   <g id="matplotlib.axis_1">
    <g id="xtick_1">
     <g id="line2d_1">
      <path clip-path="url(#p29bac902c8)" d="M 72.692445 307.584 
L 72.692445 41.472 
" style="fill:none;stroke:#b0b0b0;stroke-linecap:square;stroke-width:0.8;"/>
     </g>
     <g id="line2d_2">
      <defs>
       <path d="M 0 0 
L 0 3.5 
" id="mc5115fc394" style="stroke:#000000;stroke-width:0.8;"/>
      </defs>
      <g>
       <use style="stroke:#000000;stroke-width:0.8;" x="72.692445" xlink:href="#mc5115fc394" y="307.584"/>
      </g>
     </g>
     <g id="text_1">
      <!-- 0 -->
      <g transform="translate(69.511195 322.182437)scale(0.1 -0.1)">
       <defs>
        <path d="M 31.78125 3.421875 
Q 39.265625 3.421875 42.96875 11.625 
Q 46.6875 19.828125 46.6875 36.375 
Q 46.6875 52.984375 42.96875 61.1875 
Q 39.265625 69.390625 31.78125 69.390625 
Q 24.3125 69.390625 20.59375 61.1875 
Q 16.890625 52.984375 16.890625 36.375 
Q 16.890625 19.828125 20.59375 11.625 
Q 24.3125 3.421875 31.78125 3.421875 
z
M 31.78125 -1.421875 
Q 19.921875 -1.421875 13.25 8.53125 
Q 6.59375 18.5 6.59375 36.375 
Q 6.59375 54.296875 13.25 64.25 
Q 19.921875 74.21875 31.78125 74.21875 
Q 43.703125 74.21875 50.34375 64.25 
Q 56.984375 54.296875 56.984375 36.375 
Q 56.984375 18.5 50.34375 8.53125 
Q 43.703125 -1.421875 31.78125 -1.421875 
z
" id="DejaVuSerif-48"/>
       </defs>
       <use xlink:href="#DejaVuSerif-48"/>
      </g>
     </g>
    </g>
    <g id="xtick_2">
     <g id="line2d_3">
      <path clip-path="url(#p29bac902c8)" d="M 126.991583 307.584 
L 126.991583 41.472 
" style="fill:none;stroke:#b0b0b0;stroke-linecap:square;stroke-width:0.8;"/>
     </g>
     <g id="line2d_4">
      <g>
       <use style="stroke:#000000;stroke-width:0.8;" x="126.991583" xlink:href="#mc5115fc394" y="307.584"/>
      </g>
     </g>
     <g id="text_2">
      <!-- 100 -->
      <g transform="translate(117.447833 322.182437)scale(0.1 -0.1)">
       <defs>
        <path d="M 14.203125 0 
L 14.203125 5.171875 
L 26.90625 5.171875 
L 26.90625 65.828125 
L 12.203125 56.296875 
L 12.203125 62.703125 
L 29.984375 74.21875 
L 36.71875 74.21875 
L 36.71875 5.171875 
L 49.421875 5.171875 
L 49.421875 0 
z
" id="DejaVuSerif-49"/>
       </defs>
       <use xlink:href="#DejaVuSerif-49"/>
       <use x="63.623047" xlink:href="#DejaVuSerif-48"/>
       <use x="127.246094" xlink:href="#DejaVuSerif-48"/>
      </g>
     </g>
    </g>
    <g id="xtick_3">
     <g id="line2d_5">
      <path clip-path="url(#p29bac902c8)" d="M 181.290721 307.584 
L 181.290721 41.472 
" style="fill:none;stroke:#b0b0b0;stroke-linecap:square;stroke-width:0.8;"/>
     </g>
     <g id="line2d_6">
      <g>
       <use style="stroke:#000000;stroke-width:0.8;" x="181.290721" xlink:href="#mc5115fc394" y="307.584"/>
      </g>
     </g>
     <g id="text_3">
      <!-- 200 -->
      <g transform="translate(171.746971 322.182437)scale(0.1 -0.1)">
       <defs>
        <path d="M 12.796875 55.515625 
L 7.328125 55.515625 
L 7.328125 68.5 
Q 12.546875 71.296875 17.84375 72.75 
Q 23.140625 74.21875 28.21875 74.21875 
Q 39.59375 74.21875 46.1875 68.703125 
Q 52.78125 63.1875 52.78125 53.71875 
Q 52.78125 43.015625 37.84375 28.125 
Q 36.671875 27 36.078125 26.421875 
L 17.671875 8.015625 
L 48.09375 8.015625 
L 48.09375 17 
L 53.8125 17 
L 53.8125 0 
L 6.78125 0 
L 6.78125 5.328125 
L 28.90625 27.390625 
Q 36.234375 34.71875 39.359375 40.84375 
Q 42.484375 46.96875 42.484375 53.71875 
Q 42.484375 61.078125 38.640625 65.234375 
Q 34.8125 69.390625 28.078125 69.390625 
Q 21.09375 69.390625 17.28125 65.921875 
Q 13.484375 62.453125 12.796875 55.515625 
z
" id="DejaVuSerif-50"/>
       </defs>
       <use xlink:href="#DejaVuSerif-50"/>
       <use x="63.623047" xlink:href="#DejaVuSerif-48"/>
       <use x="127.246094" xlink:href="#DejaVuSerif-48"/>
      </g>
     </g>
    </g>
    <g id="xtick_4">
     <g id="line2d_7">
      <path clip-path="url(#p29bac902c8)" d="M 235.589859 307.584 
L 235.589859 41.472 
" style="fill:none;stroke:#b0b0b0;stroke-linecap:square;stroke-width:0.8;"/>
     </g>
     <g id="line2d_8">
      <g>
       <use style="stroke:#000000;stroke-width:0.8;" x="235.589859" xlink:href="#mc5115fc394" y="307.584"/>
      </g>
     </g>
     <g id="text_4">
      <!-- 300 -->
      <g transform="translate(226.046109 322.182437)scale(0.1 -0.1)">
       <defs>
        <path d="M 9.71875 69.828125 
Q 15.4375 71.96875 20.671875 73.09375 
Q 25.921875 74.21875 30.515625 74.21875 
Q 41.21875 74.21875 47.21875 69.59375 
Q 53.21875 64.984375 53.21875 56.78125 
Q 53.21875 50.203125 49.0625 45.78125 
Q 44.921875 41.359375 37.3125 39.796875 
Q 46.296875 38.53125 51.25 33.28125 
Q 56.203125 28.03125 56.203125 19.671875 
Q 56.203125 9.46875 49.34375 4.015625 
Q 42.484375 -1.421875 29.59375 -1.421875 
Q 23.875 -1.421875 18.421875 -0.1875 
Q 12.984375 1.03125 7.625 3.515625 
L 7.625 17.671875 
L 13.09375 17.671875 
Q 13.578125 10.640625 17.828125 7.03125 
Q 22.078125 3.421875 29.78125 3.421875 
Q 37.25 3.421875 41.578125 7.734375 
Q 45.90625 12.0625 45.90625 19.578125 
Q 45.90625 28.171875 41.453125 32.59375 
Q 37.015625 37.015625 28.421875 37.015625 
L 23.78125 37.015625 
L 23.78125 42 
L 26.21875 42 
Q 34.765625 42 39.03125 45.53125 
Q 43.3125 49.078125 43.3125 56.203125 
Q 43.3125 62.59375 39.796875 65.984375 
Q 36.28125 69.390625 29.6875 69.390625 
Q 23.09375 69.390625 19.453125 66.265625 
Q 15.828125 63.140625 15.1875 56.984375 
L 9.71875 56.984375 
z
" id="DejaVuSerif-51"/>
       </defs>
       <use xlink:href="#DejaVuSerif-51"/>
       <use x="63.623047" xlink:href="#DejaVuSerif-48"/>
       <use x="127.246094" xlink:href="#DejaVuSerif-48"/>
      </g>
     </g>
    </g>
    <g id="xtick_5">
     <g id="line2d_9">
      <path clip-path="url(#p29bac902c8)" d="M 289.888997 307.584 
L 289.888997 41.472 
" style="fill:none;stroke:#b0b0b0;stroke-linecap:square;stroke-width:0.8;"/>
     </g>
     <g id="line2d_10">
      <g>
       <use style="stroke:#000000;stroke-width:0.8;" x="289.888997" xlink:href="#mc5115fc394" y="307.584"/>
      </g>
     </g>
     <g id="text_5">
      <!-- 400 -->
      <g transform="translate(280.345247 322.182437)scale(0.1 -0.1)">
       <defs>
        <path d="M 34.90625 24.703125 
L 34.90625 63.484375 
L 10.015625 24.703125 
z
M 56.390625 0 
L 23.1875 0 
L 23.1875 5.171875 
L 34.90625 5.171875 
L 34.90625 19.484375 
L 3.078125 19.484375 
L 3.078125 24.8125 
L 35.015625 74.21875 
L 44.671875 74.21875 
L 44.671875 24.703125 
L 58.59375 24.703125 
L 58.59375 19.484375 
L 44.671875 19.484375 
L 44.671875 5.171875 
L 56.390625 5.171875 
z
" id="DejaVuSerif-52"/>
       </defs>
       <use xlink:href="#DejaVuSerif-52"/>
       <use x="63.623047" xlink:href="#DejaVuSerif-48"/>
       <use x="127.246094" xlink:href="#DejaVuSerif-48"/>
      </g>
     </g>
    </g>
    <g id="xtick_6">
     <g id="line2d_11">
      <path clip-path="url(#p29bac902c8)" d="M 344.188135 307.584 
L 344.188135 41.472 
" style="fill:none;stroke:#b0b0b0;stroke-linecap:square;stroke-width:0.8;"/>
     </g>
     <g id="line2d_12">
      <g>
       <use style="stroke:#000000;stroke-width:0.8;" x="344.188135" xlink:href="#mc5115fc394" y="307.584"/>
      </g>
     </g>
     <g id="text_6">
      <!-- 500 -->
      <g transform="translate(334.644385 322.182437)scale(0.1 -0.1)">
       <defs>
        <path d="M 50.296875 72.90625 
L 50.296875 64.890625 
L 16.890625 64.890625 
L 16.890625 44 
Q 19.4375 45.75 22.828125 46.625 
Q 26.21875 47.515625 30.421875 47.515625 
Q 42.234375 47.515625 49.0625 40.96875 
Q 55.90625 34.421875 55.90625 23.09375 
Q 55.90625 11.53125 49 5.046875 
Q 42.09375 -1.421875 29.59375 -1.421875 
Q 24.5625 -1.421875 19.28125 -0.1875 
Q 14.015625 1.03125 8.5 3.515625 
L 8.5 17.671875 
L 14.015625 17.671875 
Q 14.453125 10.75 18.421875 7.078125 
Q 22.40625 3.421875 29.59375 3.421875 
Q 37.3125 3.421875 41.453125 8.5 
Q 45.609375 13.578125 45.609375 23.09375 
Q 45.609375 32.5625 41.484375 37.609375 
Q 37.359375 42.671875 29.59375 42.671875 
Q 25.203125 42.671875 21.84375 41.109375 
Q 18.5 39.546875 15.921875 36.28125 
L 11.71875 36.28125 
L 11.71875 72.90625 
z
" id="DejaVuSerif-53"/>
       </defs>
       <use xlink:href="#DejaVuSerif-53"/>
       <use x="63.623047" xlink:href="#DejaVuSerif-48"/>
       <use x="127.246094" xlink:href="#DejaVuSerif-48"/>
      </g>
     </g>
    </g>
    <g id="xtick_7">
     <g id="line2d_13">
      <path clip-path="url(#p29bac902c8)" d="M 398.487273 307.584 
L 398.487273 41.472 
" style="fill:none;stroke:#b0b0b0;stroke-linecap:square;stroke-width:0.8;"/>
     </g>
     <g id="line2d_14">
      <g>
       <use style="stroke:#000000;stroke-width:0.8;" x="398.487273" xlink:href="#mc5115fc394" y="307.584"/>
      </g>
     </g>
     <g id="text_7">
      <!-- 600 -->
      <g transform="translate(388.943523 322.182437)scale(0.1 -0.1)">
       <defs>
        <path d="M 32.71875 3.421875 
Q 39.59375 3.421875 43.296875 8.46875 
Q 47.015625 13.53125 47.015625 23 
Q 47.015625 32.46875 43.296875 37.515625 
Q 39.59375 42.578125 32.71875 42.578125 
Q 25.734375 42.578125 22.0625 37.6875 
Q 18.40625 32.8125 18.40625 23.578125 
Q 18.40625 13.875 22.109375 8.640625 
Q 25.828125 3.421875 32.71875 3.421875 
z
M 16.796875 40.140625 
Q 20.125 43.796875 24.3125 45.59375 
Q 28.515625 47.40625 33.796875 47.40625 
Q 44.671875 47.40625 51 40.859375 
Q 57.328125 34.328125 57.328125 23 
Q 57.328125 11.921875 50.515625 5.25 
Q 43.703125 -1.421875 32.328125 -1.421875 
Q 19.96875 -1.421875 13.328125 7.78125 
Q 6.6875 17 6.6875 34.078125 
Q 6.6875 53.21875 14.546875 63.71875 
Q 22.40625 74.21875 36.71875 74.21875 
Q 40.578125 74.21875 44.828125 73.484375 
Q 49.078125 72.75 53.515625 71.296875 
L 53.515625 59.28125 
L 48 59.28125 
Q 47.40625 64.203125 44.234375 66.796875 
Q 41.0625 69.390625 35.6875 69.390625 
Q 26.21875 69.390625 21.578125 62.203125 
Q 16.9375 55.03125 16.796875 40.140625 
z
" id="DejaVuSerif-54"/>
       </defs>
       <use xlink:href="#DejaVuSerif-54"/>
       <use x="63.623047" xlink:href="#DejaVuSerif-48"/>
       <use x="127.246094" xlink:href="#DejaVuSerif-48"/>
      </g>
     </g>
    </g>
    <g id="text_8">
     <!-- Time -->
     <g transform="translate(214.680234 341.179469)scale(0.17 -0.17)">
      <defs>
       <path d="M 19.09375 0 
L 19.09375 5.171875 
L 28.421875 5.171875 
L 28.421875 67.09375 
L 6.984375 67.09375 
L 6.984375 55.71875 
L 0.984375 55.71875 
L 0.984375 72.90625 
L 65.71875 72.90625 
L 65.71875 55.71875 
L 59.71875 55.71875 
L 59.71875 67.09375 
L 38.28125 67.09375 
L 38.28125 5.171875 
L 47.609375 5.171875 
L 47.609375 0 
z
" id="DejaVuSerif-84"/>
       <path d="M 9.71875 68.015625 
Q 9.71875 70.265625 11.34375 71.921875 
Q 12.984375 73.578125 15.28125 73.578125 
Q 17.53125 73.578125 19.15625 71.921875 
Q 20.796875 70.265625 20.796875 68.015625 
Q 20.796875 65.71875 19.1875 64.109375 
Q 17.578125 62.5 15.28125 62.5 
Q 12.984375 62.5 11.34375 64.109375 
Q 9.71875 65.71875 9.71875 68.015625 
z
M 21.1875 5.171875 
L 29.6875 5.171875 
L 29.6875 0 
L 3.609375 0 
L 3.609375 5.171875 
L 12.203125 5.171875 
L 12.203125 46.6875 
L 3.609375 46.6875 
L 3.609375 51.90625 
L 21.1875 51.90625 
z
" id="DejaVuSerif-105"/>
       <path d="M 51.8125 41.796875 
Q 54.390625 47.515625 58.421875 50.421875 
Q 62.453125 53.328125 67.828125 53.328125 
Q 75.984375 53.328125 79.984375 48.265625 
Q 83.984375 43.21875 83.984375 33.015625 
L 83.984375 5.171875 
L 92.09375 5.171875 
L 92.09375 0 
L 67.1875 0 
L 67.1875 5.171875 
L 75 5.171875 
L 75 31.984375 
Q 75 39.9375 72.65625 43.3125 
Q 70.3125 46.6875 64.890625 46.6875 
Q 58.890625 46.6875 55.734375 42.140625 
Q 52.59375 37.59375 52.59375 28.90625 
L 52.59375 5.171875 
L 60.40625 5.171875 
L 60.40625 0 
L 35.796875 0 
L 35.796875 5.171875 
L 43.609375 5.171875 
L 43.609375 32.328125 
Q 43.609375 40.09375 41.265625 43.390625 
Q 38.921875 46.6875 33.5 46.6875 
Q 27.484375 46.6875 24.328125 42.140625 
Q 21.1875 37.59375 21.1875 28.90625 
L 21.1875 5.171875 
L 29 5.171875 
L 29 0 
L 4.109375 0 
L 4.109375 5.171875 
L 12.203125 5.171875 
L 12.203125 46.78125 
L 3.609375 46.78125 
L 3.609375 51.90625 
L 21.1875 51.90625 
L 21.1875 42.671875 
Q 23.6875 47.859375 27.53125 50.59375 
Q 31.390625 53.328125 36.28125 53.328125 
Q 42.328125 53.328125 46.375 50.3125 
Q 50.4375 47.3125 51.8125 41.796875 
z
" id="DejaVuSerif-109"/>
       <path d="M 54.203125 25 
L 15.484375 25 
L 15.484375 24.609375 
Q 15.484375 14.109375 19.4375 8.765625 
Q 23.390625 3.421875 31.109375 3.421875 
Q 37.015625 3.421875 40.796875 6.515625 
Q 44.578125 9.625 46.09375 15.71875 
L 53.328125 15.71875 
Q 51.171875 7.171875 45.375 2.875 
Q 39.59375 -1.421875 30.171875 -1.421875 
Q 18.796875 -1.421875 11.890625 6.078125 
Q 4.984375 13.578125 4.984375 25.984375 
Q 4.984375 38.28125 11.765625 45.796875 
Q 18.5625 53.328125 29.59375 53.328125 
Q 41.359375 53.328125 47.65625 46.0625 
Q 53.953125 38.8125 54.203125 25 
z
M 43.609375 30.171875 
Q 43.3125 39.265625 39.765625 43.875 
Q 36.234375 48.484375 29.59375 48.484375 
Q 23.390625 48.484375 19.828125 43.84375 
Q 16.265625 39.203125 15.484375 30.171875 
z
" id="DejaVuSerif-101"/>
      </defs>
      <use xlink:href="#DejaVuSerif-84"/>
      <use x="66.699219" xlink:href="#DejaVuSerif-105"/>
      <use x="98.681641" xlink:href="#DejaVuSerif-109"/>
      <use x="193.505859" xlink:href="#DejaVuSerif-101"/>
     </g>
    </g>
   </g>
   <g id="matplotlib.axis_2">
    <g id="ytick_1">
     <g id="line2d_15">
      <path clip-path="url(#p29bac902c8)" d="M 57.6 295.488 
L 414.72 295.488 
" style="fill:none;stroke:#b0b0b0;stroke-linecap:square;stroke-width:0.8;"/>
     </g>
     <g id="line2d_16">
      <defs>
       <path d="M 0 0 
L -3.5 0 
" id="mbc2ba68cdb" style="stroke:#000000;stroke-width:0.8;"/>
      </defs>
      <g>
       <use style="stroke:#000000;stroke-width:0.8;" x="57.6" xlink:href="#mbc2ba68cdb" y="295.488"/>
      </g>
     </g>
     <g id="text_9">
      <!-- 0.00 -->
      <g transform="translate(28.334375 299.287219)scale(0.1 -0.1)">
       <defs>
        <path d="M 9.421875 5.078125 
Q 9.421875 7.8125 11.28125 9.71875 
Q 13.140625 11.625 15.921875 11.625 
Q 18.609375 11.625 20.5 9.71875 
Q 22.40625 7.8125 22.40625 5.078125 
Q 22.40625 2.390625 20.5 0.484375 
Q 18.609375 -1.421875 15.921875 -1.421875 
Q 13.140625 -1.421875 11.28125 0.453125 
Q 9.421875 2.34375 9.421875 5.078125 
z
" id="DejaVuSerif-46"/>
       </defs>
       <use xlink:href="#DejaVuSerif-48"/>
       <use x="63.623047" xlink:href="#DejaVuSerif-46"/>
       <use x="95.410156" xlink:href="#DejaVuSerif-48"/>
       <use x="159.033203" xlink:href="#DejaVuSerif-48"/>
      </g>
     </g>
    </g>
    <g id="ytick_2">
     <g id="line2d_17">
      <path clip-path="url(#p29bac902c8)" d="M 57.6 247.104 
L 414.72 247.104 
" style="fill:none;stroke:#b0b0b0;stroke-linecap:square;stroke-width:0.8;"/>
     </g>
     <g id="line2d_18">
      <g>
       <use style="stroke:#000000;stroke-width:0.8;" x="57.6" xlink:href="#mbc2ba68cdb" y="247.104"/>
      </g>
     </g>
     <g id="text_10">
      <!-- 0.05 -->
      <g transform="translate(28.334375 250.903219)scale(0.1 -0.1)">
       <use xlink:href="#DejaVuSerif-48"/>
       <use x="63.623047" xlink:href="#DejaVuSerif-46"/>
       <use x="95.410156" xlink:href="#DejaVuSerif-48"/>
       <use x="159.033203" xlink:href="#DejaVuSerif-53"/>
      </g>
     </g>
    </g>
    <g id="ytick_3">
     <g id="line2d_19">
      <path clip-path="url(#p29bac902c8)" d="M 57.6 198.72 
L 414.72 198.72 
" style="fill:none;stroke:#b0b0b0;stroke-linecap:square;stroke-width:0.8;"/>
     </g>
     <g id="line2d_20">
      <g>
       <use style="stroke:#000000;stroke-width:0.8;" x="57.6" xlink:href="#mbc2ba68cdb" y="198.72"/>
      </g>
     </g>
     <g id="text_11">
      <!-- 0.10 -->
      <g transform="translate(28.334375 202.519219)scale(0.1 -0.1)">
       <use xlink:href="#DejaVuSerif-48"/>
       <use x="63.623047" xlink:href="#DejaVuSerif-46"/>
       <use x="95.410156" xlink:href="#DejaVuSerif-49"/>
       <use x="159.033203" xlink:href="#DejaVuSerif-48"/>
      </g>
     </g>
    </g>
    <g id="ytick_4">
     <g id="line2d_21">
      <path clip-path="url(#p29bac902c8)" d="M 57.6 150.336 
L 414.72 150.336 
" style="fill:none;stroke:#b0b0b0;stroke-linecap:square;stroke-width:0.8;"/>
     </g>
     <g id="line2d_22">
      <g>
       <use style="stroke:#000000;stroke-width:0.8;" x="57.6" xlink:href="#mbc2ba68cdb" y="150.336"/>
      </g>
     </g>
     <g id="text_12">
      <!-- 0.15 -->
      <g transform="translate(28.334375 154.135219)scale(0.1 -0.1)">
       <use xlink:href="#DejaVuSerif-48"/>
       <use x="63.623047" xlink:href="#DejaVuSerif-46"/>
       <use x="95.410156" xlink:href="#DejaVuSerif-49"/>
       <use x="159.033203" xlink:href="#DejaVuSerif-53"/>
      </g>
     </g>
    </g>
    <g id="ytick_5">
     <g id="line2d_23">
      <path clip-path="url(#p29bac902c8)" d="M 57.6 101.952 
L 414.72 101.952 
" style="fill:none;stroke:#b0b0b0;stroke-linecap:square;stroke-width:0.8;"/>
     </g>
     <g id="line2d_24">
      <g>
       <use style="stroke:#000000;stroke-width:0.8;" x="57.6" xlink:href="#mbc2ba68cdb" y="101.952"/>
      </g>
     </g>
     <g id="text_13">
      <!-- 0.20 -->
      <g transform="translate(28.334375 105.751219)scale(0.1 -0.1)">
       <use xlink:href="#DejaVuSerif-48"/>
       <use x="63.623047" xlink:href="#DejaVuSerif-46"/>
       <use x="95.410156" xlink:href="#DejaVuSerif-50"/>
       <use x="159.033203" xlink:href="#DejaVuSerif-48"/>
      </g>
     </g>
    </g>
    <g id="ytick_6">
     <g id="line2d_25">
      <path clip-path="url(#p29bac902c8)" d="M 57.6 53.568 
L 414.72 53.568 
" style="fill:none;stroke:#b0b0b0;stroke-linecap:square;stroke-width:0.8;"/>
     </g>
     <g id="line2d_26">
      <g>
       <use style="stroke:#000000;stroke-width:0.8;" x="57.6" xlink:href="#mbc2ba68cdb" y="53.568"/>
      </g>
     </g>
     <g id="text_14">
      <!-- 0.25 -->
      <g transform="translate(28.334375 57.367219)scale(0.1 -0.1)">
       <use xlink:href="#DejaVuSerif-48"/>
       <use x="63.623047" xlink:href="#DejaVuSerif-46"/>
       <use x="95.410156" xlink:href="#DejaVuSerif-50"/>
       <use x="159.033203" xlink:href="#DejaVuSerif-53"/>
      </g>
     </g>
    </g>
    <g id="text_15">
     <!-- Speed -->
     <g transform="translate(20.798906 201.295031)rotate(-90)scale(0.17 -0.17)">
      <defs>
       <path d="M 9.28125 3.515625 
L 9.28125 20.125 
L 14.890625 20.0625 
Q 15.140625 11.765625 19.703125 7.78125 
Q 24.265625 3.8125 33.59375 3.8125 
Q 42.28125 3.8125 46.84375 7.25 
Q 51.421875 10.6875 51.421875 17.28125 
Q 51.421875 22.5625 48.65625 25.390625 
Q 45.90625 28.21875 37.015625 30.90625 
L 27.390625 33.796875 
Q 16.9375 36.96875 12.671875 41.703125 
Q 8.40625 46.4375 8.40625 54.6875 
Q 8.40625 63.96875 14.984375 69.09375 
Q 21.578125 74.21875 33.5 74.21875 
Q 38.578125 74.21875 44.625 73.109375 
Q 50.6875 72.015625 57.515625 69.921875 
L 57.515625 54.390625 
L 52 54.390625 
Q 51.171875 62.109375 46.84375 65.546875 
Q 42.53125 69 33.6875 69 
Q 25.984375 69 21.953125 65.84375 
Q 17.921875 62.703125 17.921875 56.6875 
Q 17.921875 51.46875 20.9375 48.484375 
Q 23.96875 45.515625 33.796875 42.578125 
L 42.828125 39.890625 
Q 52.734375 36.921875 56.953125 32.296875 
Q 61.1875 27.6875 61.1875 19.921875 
Q 61.1875 9.328125 54.390625 3.953125 
Q 47.609375 -1.421875 34.1875 -1.421875 
Q 28.171875 -1.421875 21.9375 -0.1875 
Q 15.71875 1.03125 9.28125 3.515625 
z
" id="DejaVuSerif-83"/>
       <path d="M 20.515625 28.515625 
L 20.515625 23.390625 
Q 20.515625 14.015625 24.09375 9.109375 
Q 27.6875 4.203125 34.515625 4.203125 
Q 41.40625 4.203125 44.9375 9.71875 
Q 48.484375 15.234375 48.484375 25.984375 
Q 48.484375 36.765625 44.9375 42.234375 
Q 41.40625 47.703125 34.515625 47.703125 
Q 27.6875 47.703125 24.09375 42.765625 
Q 20.515625 37.84375 20.515625 28.515625 
z
M 11.53125 46.6875 
L 2.875 46.6875 
L 2.875 51.90625 
L 20.515625 51.90625 
L 20.515625 43.796875 
Q 23.140625 48.6875 27.21875 51 
Q 31.296875 53.328125 37.3125 53.328125 
Q 46.875 53.328125 52.921875 45.75 
Q 58.984375 38.1875 58.984375 25.984375 
Q 58.984375 13.765625 52.921875 6.171875 
Q 46.875 -1.421875 37.3125 -1.421875 
Q 31.296875 -1.421875 27.21875 0.890625 
Q 23.140625 3.21875 20.515625 8.109375 
L 20.515625 -15.578125 
L 29 -15.578125 
L 29 -20.796875 
L 2.875 -20.796875 
L 2.875 -15.578125 
L 11.53125 -15.578125 
z
" id="DejaVuSerif-112"/>
       <path d="M 52.484375 5.171875 
L 61.078125 5.171875 
L 61.078125 0 
L 43.5 0 
L 43.5 8.109375 
Q 40.875 3.21875 36.796875 0.890625 
Q 32.71875 -1.421875 26.703125 -1.421875 
Q 17.140625 -1.421875 11.0625 6.171875 
Q 4.984375 13.765625 4.984375 25.984375 
Q 4.984375 38.1875 11.03125 45.75 
Q 17.09375 53.328125 26.703125 53.328125 
Q 32.71875 53.328125 36.796875 51 
Q 40.875 48.6875 43.5 43.796875 
L 43.5 70.796875 
L 35.015625 70.796875 
L 35.015625 75.984375 
L 52.484375 75.984375 
z
M 43.5 23.390625 
L 43.5 28.515625 
Q 43.5 37.84375 39.90625 42.765625 
Q 36.328125 47.703125 29.5 47.703125 
Q 22.5625 47.703125 19.015625 42.234375 
Q 15.484375 36.765625 15.484375 25.984375 
Q 15.484375 15.234375 19.015625 9.71875 
Q 22.5625 4.203125 29.5 4.203125 
Q 36.328125 4.203125 39.90625 9.109375 
Q 43.5 14.015625 43.5 23.390625 
z
" id="DejaVuSerif-100"/>
      </defs>
      <use xlink:href="#DejaVuSerif-83"/>
      <use x="68.505859" xlink:href="#DejaVuSerif-112"/>
      <use x="132.519531" xlink:href="#DejaVuSerif-101"/>
      <use x="191.699219" xlink:href="#DejaVuSerif-101"/>
      <use x="250.878906" xlink:href="#DejaVuSerif-100"/>
     </g>
    </g>
   </g>
   <g id="line2d_27">
    <path clip-path="url(#p29bac902c8)" d="M 73.832727 295.488 
L 73.995625 295.488 
L 74.049924 53.568 
L 74.104223 101.952 
L 74.26712 101.952 
L 74.430018 295.488 
L 74.538616 295.488 
L 74.592915 134.208 
L 74.647214 157.248 
L 74.864411 157.248 
L 74.973009 174.528 
L 75.135907 295.488 
L 75.190206 295.488 
L 75.353103 187.968 
L 75.407402 187.968 
L 75.5703 198.72 
L 75.678898 198.72 
L 75.787496 207.517091 
L 75.841795 295.488 
L 75.896095 207.517091 
L 75.950394 207.517091 
L 76.113291 214.848 
L 76.221889 214.848 
L 76.384787 221.051077 
L 76.493385 221.051077 
L 76.547684 226.368 
L 76.601983 157.248 
L 76.656282 226.368 
L 76.764881 226.368 
L 76.927778 230.976 
L 77.036376 230.976 
L 77.199274 235.008 
L 77.307872 235.008 
L 77.47077 181.643294 
L 77.633667 241.728 
L 77.850863 241.728 
L 78.013761 244.557474 
L 78.122359 193.626947 
L 78.285257 198.72 
L 78.393855 198.72 
L 78.448154 203.328 
L 78.611051 249.408 
L 78.665351 249.408 
L 78.773949 251.502545 
L 78.936846 207.517091 
L 79.099744 211.341913 
L 79.208342 211.341913 
L 79.31694 214.848 
L 79.479838 255.168 
L 79.534137 256.7808 
L 79.697034 218.0736 
L 79.751333 218.0736 
L 79.914231 221.051077 
L 80.022829 221.051077 
L 80.185726 223.808 
L 80.240026 223.808 
L 80.348624 260.928 
L 80.511521 226.368 
L 80.56582 226.368 
L 80.728718 228.751448 
L 80.837316 228.751448 
L 81.000213 230.976 
L 81.108812 230.976 
L 81.21741 201.841548 
L 81.380307 233.057032 
L 81.543205 235.008 
L 81.651803 235.008 
L 81.814701 236.840727 
L 81.869 236.840727 
L 81.923299 207.517091 
L 81.977598 210.104471 
L 82.194795 210.104471 
L 82.249094 212.544 
L 82.411991 240.192 
L 82.46629 240.192 
L 82.629188 241.728 
L 82.737786 214.848 
L 82.900683 217.027459 
L 83.009282 217.027459 
L 83.172179 219.092211 
L 83.335076 245.863385 
L 83.443675 245.863385 
L 83.552273 221.051077 
L 83.71517 222.912 
L 83.823769 222.912 
L 83.986666 224.682146 
L 84.095264 224.682146 
L 84.149563 226.368 
L 84.203863 249.408 
L 84.258162 226.368 
L 84.36676 226.368 
L 84.529657 227.975442 
L 84.638256 227.975442 
L 84.801153 229.509818 
L 84.909751 229.509818 
L 84.964051 230.976 
L 85.072649 209.472 
L 85.235546 232.378435 
L 85.452743 232.378435 
L 85.61564 233.721191 
L 85.724238 233.721191 
L 85.887136 214.848 
L 85.995734 214.848 
L 86.104332 216.493714 
L 86.26723 236.242286 
L 86.430127 237.4272 
L 86.538726 237.4272 
L 86.701623 219.591529 
L 86.810221 219.591529 
L 86.973119 221.051077 
L 87.027418 221.051077 
L 87.190315 240.71366 
L 87.298913 240.71366 
L 87.353213 222.455547 
L 87.407512 223.808 
L 87.624708 223.808 
L 87.787606 225.111273 
L 87.896204 225.111273 
L 88.004802 226.368 
L 88.059101 243.648 
L 88.113401 226.368 
L 88.1677 226.368 
L 88.330597 227.580632 
L 88.439195 227.580632 
L 88.602093 228.751448 
L 88.710691 228.751448 
L 88.873588 229.882576 
L 88.927888 213.48122 
L 88.982187 229.882576 
L 89.145084 230.976 
L 89.253682 230.976 
L 89.41658 232.033574 
L 89.525178 232.033574 
L 89.633776 233.057032 
L 89.796674 217.44929 
L 89.959571 218.688 
L 90.122469 235.008 
L 90.339665 235.008 
L 90.393964 235.938462 
L 90.556862 221.051077 
L 90.611161 221.051077 
L 90.774058 222.178909 
L 90.882657 222.178909 
L 90.936956 223.273075 
L 91.099853 237.71606 
L 91.154152 237.71606 
L 91.208451 238.565647 
L 91.371349 224.335059 
L 91.425648 224.335059 
L 91.588545 225.366261 
L 91.697144 225.366261 
L 91.860041 226.368 
L 91.968639 240.192 
L 92.131537 227.341521 
L 92.240135 227.341521 
L 92.403032 228.288 
L 92.511631 228.288 
L 92.674528 229.208548 
L 92.728827 229.208548 
L 92.783126 215.952658 
L 92.837426 217.027459 
L 92.891725 217.027459 
L 93.054622 230.104216 
L 93.21752 230.976 
L 93.326118 230.976 
L 93.489015 231.824842 
L 93.543314 231.824842 
L 93.597613 219.092211 
L 93.651913 220.084364 
L 93.81481 220.084364 
L 93.977707 233.457231 
L 94.140605 233.457231 
L 94.303502 234.24243 
L 94.412101 221.993316 
L 94.574998 222.912 
L 94.683596 222.912 
L 94.792194 223.808 
L 94.955092 235.754667 
L 95.06369 236.483122 
L 95.226588 224.682146 
L 95.389485 225.535229 
L 95.498083 225.535229 
L 95.660981 226.368 
L 95.769579 226.368 
L 95.823878 227.181176 
L 95.878177 238.565647 
L 95.932476 227.181176 
L 96.041075 227.181176 
L 96.203972 227.975442 
L 96.31257 227.975442 
L 96.475468 228.751448 
L 96.584066 228.751448 
L 96.638365 229.509818 
L 96.746963 218.513455 
L 96.909861 230.251146 
L 97.127057 230.251146 
L 97.289955 230.976 
L 97.398553 230.976 
L 97.452852 231.684923 
L 97.61575 221.051077 
L 97.670049 221.051077 
L 97.724348 221.860174 
L 97.887245 232.378435 
L 97.941544 232.378435 
L 98.104442 233.057032 
L 98.21304 233.057032 
L 98.375938 223.426723 
L 98.484536 223.426723 
L 98.647433 224.185263 
L 98.701732 224.185263 
L 98.86463 235.008 
L 98.973228 235.008 
L 99.027527 224.928 
L 99.081826 225.655423 
L 99.299023 225.655423 
L 99.46192 226.368 
L 99.570519 226.368 
L 99.679117 227.066182 
L 99.787715 236.840727 
L 99.842014 227.066182 
L 99.896313 227.7504 
L 100.11351 227.7504 
L 100.276407 228.421069 
L 100.385006 228.421069 
L 100.547903 229.078588 
L 100.602202 219.591529 
L 100.656501 229.078588 
L 100.819399 229.72334 
L 100.927997 229.72334 
L 101.090894 230.355692 
L 101.199493 230.355692 
L 101.308091 230.976 
L 101.470988 221.76 
L 101.633886 222.455547 
L 101.796783 232.181832 
L 102.01398 232.181832 
L 102.122578 232.768 
L 102.285476 223.808 
L 102.448373 224.465615 
L 102.556971 224.465615 
L 102.61127 225.111273 
L 102.774168 233.908364 
L 102.828467 233.908364 
L 102.882766 234.463135 
L 103.045663 225.745297 
L 103.099963 225.745297 
L 103.26286 226.368 
L 103.371458 226.368 
L 103.534356 226.979681 
L 103.588655 226.979681 
L 103.642954 235.543221 
L 103.697253 227.580632 
L 103.91445 227.580632 
L 104.077347 228.17113 
L 104.185945 228.17113 
L 104.348843 228.751448 
L 104.457441 228.751448 
L 104.566039 221.051077 
L 104.728937 229.321846 
L 104.891834 229.882576 
L 105.000432 229.882576 
L 105.16333 230.433882 
L 105.217629 230.433882 
L 105.271928 222.302118 
L 105.326227 222.912 
L 105.489125 222.912 
L 105.652022 231.509157 
L 105.814919 231.509157 
L 105.977817 232.033574 
L 106.086415 224.10177 
L 106.249313 224.682146 
L 106.357911 224.682146 
L 106.520808 225.253161 
L 106.683706 233.55648 
L 106.792304 233.55648 
L 106.900902 225.81504 
L 107.0638 226.368 
L 107.172398 226.368 
L 107.335295 226.912252 
L 107.443894 226.912252 
L 107.498193 227.448 
L 107.552492 235.008 
L 107.606791 227.448 
L 107.715389 227.448 
L 107.878287 227.975442 
L 107.986885 227.975442 
L 108.149782 228.494769 
L 108.258381 228.494769 
L 108.31268 229.006168 
L 108.421278 221.619298 
L 108.584176 229.509818 
L 108.801372 229.509818 
L 108.964269 230.005895 
L 109.072868 230.005895 
L 109.127167 230.494567 
L 109.290064 223.273075 
L 109.344363 223.273075 
L 109.452962 223.808 
L 109.615859 230.976 
L 109.778757 231.450353 
L 109.887355 231.450353 
L 110.050252 224.854423 
L 110.158851 224.854423 
L 110.321748 225.366261 
L 110.376047 225.366261 
L 110.538944 232.83246 
L 110.647543 232.83246 
L 110.701842 225.870734 
L 110.756141 226.368 
L 110.973338 226.368 
L 111.136235 226.858213 
L 111.244833 226.858213 
L 111.353432 227.341521 
L 111.46203 234.156169 
L 111.516329 227.341521 
L 111.570628 227.81807 
L 111.787825 227.81807 
L 111.950722 228.288 
L 112.05932 228.288 
L 112.222218 228.751448 
L 112.330816 222.077793 
L 112.385115 222.580603 
L 112.548013 229.208548 
L 112.602312 229.208548 
L 112.765209 229.659429 
L 112.873807 229.659429 
L 112.982406 230.104216 
L 113.145303 223.565838 
L 113.308201 224.048537 
L 113.471098 230.976 
L 113.688294 230.976 
L 113.796893 231.403232 
L 113.95979 224.994755 
L 114.122688 225.458526 
L 114.231286 225.458526 
L 114.285585 225.916235 
L 114.448482 232.240941 
L 114.502782 232.240941 
L 114.557081 232.651636 
L 114.719978 226.368 
L 114.774277 226.368 
L 114.937175 226.813935 
L 115.045773 226.813935 
L 115.20867 227.254154 
L 115.262969 227.254154 
L 115.317269 233.457231 
L 115.371568 227.688764 
L 115.588764 227.688764 
L 115.751662 228.117873 
L 115.86026 228.117873 
L 116.023157 228.541585 
L 116.131756 228.541585 
L 116.240354 222.912 
L 116.403251 228.96 
L 116.566149 229.373217 
L 116.674747 229.373217 
L 116.837644 229.781333 
L 116.891944 229.781333 
L 116.946243 223.808 
L 117.000542 224.247755 
L 117.163439 224.247755 
L 117.326337 230.582634 
L 117.489234 230.582634 
L 117.652132 230.976 
L 117.76073 225.111273 
L 117.923627 225.535229 
L 118.032226 225.535229 
L 118.195123 225.954108 
L 118.35802 232.128 
L 118.466619 232.128 
L 118.575217 226.368 
L 118.738114 226.776994 
L 118.846713 226.776994 
L 119.00961 227.181176 
L 119.118208 227.181176 
L 119.172507 227.580632 
L 119.226807 233.239579 
L 119.281106 227.580632 
L 119.389704 227.580632 
L 119.552601 227.975442 
L 119.6612 227.975442 
L 119.824097 228.365688 
L 119.932695 228.365688 
L 119.986994 228.751448 
L 120.095593 223.190069 
L 120.25849 229.1328 
L 120.475687 229.1328 
L 120.638584 229.509818 
L 120.747182 229.509818 
L 120.801482 229.882576 
L 120.964379 224.415458 
L 121.018678 224.415458 
L 121.127276 224.814742 
L 121.290174 230.251146 
L 121.453071 230.615598 
L 121.561669 230.615598 
L 121.724567 225.6 
L 121.833165 225.6 
L 121.996063 225.986122 
L 122.050362 225.986122 
L 122.213259 231.684923 
L 122.321857 231.684923 
L 122.376157 226.368 
L 122.430456 226.745705 
L 122.647652 226.745705 
L 122.81055 227.119304 
L 122.919148 227.119304 
L 123.027746 227.488865 
L 123.136344 232.719568 
L 123.190644 227.488865 
L 123.244943 227.854452 
L 123.462139 227.854452 
L 123.625037 228.216128 
L 123.733635 228.216128 
L 123.896532 228.573957 
L 124.005131 223.426723 
L 124.05943 223.808 
L 124.222327 228.928 
L 124.276626 228.928 
L 124.439524 229.278316 
L 124.548122 229.278316 
L 124.711019 229.624963 
L 124.819618 224.558576 
L 124.982515 224.928 
L 125.145413 230.307482 
L 125.362609 230.307482 
L 125.471207 230.643464 
L 125.634105 225.655423 
L 125.797002 226.013538 
L 125.905601 226.013538 
L 125.9599 226.368 
L 126.122797 231.305143 
L 126.177096 231.305143 
L 126.231395 231.630944 
L 126.394293 226.718863 
L 126.448592 226.718863 
L 126.611489 227.066182 
L 126.720088 227.066182 
L 126.882985 227.41001 
L 126.937284 227.41001 
L 127.045882 232.5888 
L 127.20878 227.7504 
L 127.263079 227.7504 
L 127.425976 228.087403 
L 127.534575 228.087403 
L 127.697472 228.421069 
L 127.80607 228.421069 
L 127.914669 223.984552 
L 128.077566 228.751448 
L 128.240463 229.078588 
L 128.349062 229.078588 
L 128.511959 229.402537 
L 128.566258 229.402537 
L 128.620557 224.682146 
L 128.674857 225.025864 
L 128.837754 225.025864 
L 129.000651 230.041043 
L 129.163549 230.041043 
L 129.326446 230.355692 
L 129.380745 230.355692 
L 129.435044 225.703385 
L 129.489344 226.037282 
L 129.70654 226.037282 
L 129.869438 226.368 
L 130.032335 231.281744 
L 130.140933 231.281744 
L 130.249532 226.695583 
L 130.412429 227.020075 
L 130.521027 227.020075 
L 130.683925 227.341521 
L 130.792523 227.341521 
L 130.846822 227.659963 
L 130.901121 232.181832 
L 130.95542 227.659963 
L 131.064019 227.659963 
L 131.226916 227.975442 
L 131.335514 227.975442 
L 131.498412 228.288 
L 131.60701 228.288 
L 131.715608 228.597677 
L 131.769907 224.138323 
L 131.824207 228.597677 
L 131.878506 228.597677 
L 132.041403 228.904514 
L 132.150001 228.904514 
L 132.312899 229.208548 
L 132.421497 229.208548 
L 132.475796 229.509818 
L 132.638694 225.111273 
L 132.692993 225.111273 
L 132.801591 225.429719 
L 132.964488 229.808362 
L 133.127386 230.104216 
L 133.235984 230.104216 
L 133.398882 226.058045 
L 133.50748 226.058045 
L 133.670377 226.368 
L 133.724676 226.368 
L 133.887574 230.976 
L 134.050471 230.976 
L 134.213369 226.979681 
L 134.321967 226.979681 
L 134.484864 227.28148 
L 134.593463 227.28148 
L 134.702061 227.580632 
L 134.810659 231.824842 
L 134.864958 227.580632 
L 134.919257 227.87717 
L 135.136454 227.87717 
L 135.299351 228.17113 
L 135.40795 228.17113 
L 135.570847 228.462545 
L 135.679445 224.273455 
L 135.733744 224.580414 
L 135.896642 228.751448 
L 135.950941 228.751448 
L 136.113838 229.037871 
L 136.222437 229.037871 
L 136.385334 229.321846 
L 136.493932 225.186462 
L 136.65683 225.485617 
L 136.819727 229.882576 
L 137.036924 229.882576 
L 137.145522 230.159392 
L 137.308419 226.076354 
L 137.471317 226.368 
L 137.579915 226.368 
L 137.688513 226.657205 
L 137.851411 230.706075 
L 137.90571 230.976 
L 138.068607 226.944 
L 138.122907 226.944 
L 138.285804 227.228415 
L 138.394402 227.228415 
L 138.5573 227.510479 
L 138.611599 227.510479 
L 138.720197 231.772444 
L 138.883094 227.790222 
L 138.937394 227.790222 
L 139.100291 228.067672 
L 139.208889 228.067672 
L 139.371787 228.342857 
L 139.480385 228.342857 
L 139.588983 224.682146 
L 139.751881 228.615805 
L 139.914778 228.886543 
L 140.023376 228.886543 
L 140.186274 229.155097 
L 140.240573 229.155097 
L 140.294872 225.253161 
L 140.349171 225.535229 
L 140.566368 225.535229 
L 140.620667 225.81504 
L 140.783564 229.68576 
L 140.837863 229.68576 
L 141.000761 229.94792 
L 141.05506 229.94792 
L 141.109359 226.092622 
L 141.163658 226.368 
L 141.380855 226.368 
L 141.543752 226.641202 
L 141.70665 230.722016 
L 141.815248 230.722016 
L 141.923846 226.912252 
L 142.086744 227.181176 
L 142.195342 227.181176 
L 142.358239 227.448 
L 142.466838 227.448 
L 142.521137 227.712747 
L 142.575436 231.478039 
L 142.629735 227.712747 
L 142.738333 227.712747 
L 142.901231 227.975442 
L 143.009829 227.975442 
L 143.172726 228.236108 
L 143.281325 228.236108 
L 143.389923 228.494769 
L 143.498521 224.772923 
L 143.661419 228.751448 
L 143.824316 228.751448 
L 143.987213 229.006168 
L 144.095812 229.006168 
L 144.150111 229.258951 
L 144.313008 225.579559 
L 144.367307 225.579559 
L 144.475906 225.844364 
L 144.638803 229.509818 
L 144.8017 229.758792 
L 144.910299 229.758792 
L 145.073196 226.368 
L 145.181794 226.368 
L 145.344692 226.626876 
L 145.398991 226.626876 
L 145.561888 230.494567 
L 145.724786 230.494567 
L 145.887683 227.138855 
L 145.996282 227.138855 
L 146.159179 227.392 
L 146.267777 227.392 
L 146.430675 227.643277 
L 146.484974 231.214052 
L 146.539273 227.643277 
L 146.70217 227.892706 
L 146.810769 227.892706 
L 146.973666 228.140308 
L 147.082264 228.140308 
L 147.245162 228.386102 
L 147.35376 224.854423 
L 147.408059 225.111273 
L 147.570957 228.630109 
L 147.625256 228.630109 
L 147.788153 228.872348 
L 147.896751 228.872348 
L 148.059649 229.112838 
L 148.168247 225.619408 
L 148.331144 225.870734 
L 148.494042 229.588645 
L 148.711238 229.588645 
L 148.819837 229.824 
L 148.982734 226.368 
L 149.145632 226.613979 
L 149.25423 226.613979 
L 149.362828 226.858213 
L 149.525725 230.289702 
L 149.580025 230.520085 
L 149.742922 227.100721 
L 149.797221 227.100721 
L 149.960119 227.341521 
L 150.068717 227.341521 
L 150.231614 227.580632 
L 150.285913 227.580632 
L 150.394512 231.201566 
L 150.557409 227.81807 
L 150.611708 227.81807 
L 150.774606 228.053854 
L 150.883204 228.053854 
L 151.046101 228.288 
L 151.1547 228.288 
L 151.263298 225.172152 
L 151.426195 228.520526 
L 151.589093 228.751448 
L 151.697691 228.751448 
L 151.860588 228.980784 
L 151.969187 228.980784 
L 152.132084 225.894575 
L 152.240682 225.894575 
L 152.294982 226.132096 
L 152.457879 229.434758 
L 152.512178 229.434758 
L 152.675075 229.659429 
L 152.729375 229.659429 
L 152.783674 226.368 
L 152.837973 226.602305 
L 153.055169 226.602305 
L 153.218067 226.835027 
L 153.380964 230.324364 
L 153.489563 230.324364 
L 153.598161 227.066182 
L 153.761058 227.295785 
L 153.869657 227.295785 
L 154.032554 227.523853 
L 154.141152 227.523853 
L 154.195451 227.7504 
L 154.30405 230.976 
L 154.412648 227.7504 
L 154.575545 227.975442 
L 154.684144 227.975442 
L 154.847041 228.198993 
L 154.955639 228.198993 
L 155.064238 228.421069 
L 155.172836 225.227406 
L 155.335733 228.641684 
L 155.498631 228.641684 
L 155.661528 228.860852 
L 155.770126 228.860852 
L 155.824425 229.078588 
L 155.987323 225.916235 
L 156.041622 225.916235 
L 156.15022 226.142853 
L 156.313118 229.294906 
L 156.476015 229.509818 
L 156.584613 229.509818 
L 156.638913 229.72334 
L 156.80181 226.591689 
L 156.856109 226.591689 
L 157.019007 226.813935 
L 157.073306 226.813935 
L 157.236203 230.146264 
L 157.3991 230.146264 
L 157.561998 227.254154 
L 157.670596 227.254154 
L 157.833494 227.472153 
L 157.942092 227.472153 
L 158.104989 227.688764 
L 158.159288 230.770548 
L 158.213588 227.688764 
L 158.376485 227.904 
L 158.485083 227.904 
L 158.647981 228.117873 
L 158.756579 228.117873 
L 158.919476 228.330397 
L 158.973775 228.330397 
L 159.028075 225.277779 
L 159.082374 225.498566 
L 159.245271 228.541585 
L 159.29957 228.541585 
L 159.462468 228.751448 
L 159.571066 228.751448 
L 159.733963 228.96 
L 159.842562 225.936 
L 160.005459 226.152673 
L 160.168357 229.373217 
L 160.385553 229.373217 
L 160.494151 229.577907 
L 160.657049 226.581994 
L 160.819946 226.794667 
L 160.928544 226.794667 
L 161.037143 227.006031 
L 161.20004 229.983508 
L 161.308638 230.184442 
L 161.471536 227.216098 
L 161.634433 227.424881 
L 161.743032 227.424881 
L 161.905929 227.63239 
L 161.960228 227.63239 
L 162.068826 230.779915 
L 162.231724 227.838638 
L 162.286023 227.838638 
L 162.44892 228.043636 
L 162.557519 228.043636 
L 162.720416 228.247396 
L 162.829014 228.247396 
L 162.937613 225.535229 
L 163.10051 228.449928 
L 163.263407 228.651243 
L 163.372006 228.651243 
L 163.534903 228.851353 
L 163.643501 228.851353 
L 163.806399 226.161672 
L 163.914997 226.161672 
L 163.969296 226.368 
L 164.132194 229.248 
L 164.186493 229.248 
L 164.34939 229.444558 
L 164.403689 229.444558 
L 164.457988 226.573104 
L 164.512288 226.776994 
L 164.729484 226.776994 
L 164.892382 226.979681 
L 165.055279 230.027294 
L 165.163877 230.027294 
L 165.272475 227.181176 
L 165.435373 227.38149 
L 165.543971 227.38149 
L 165.706869 227.580632 
L 165.815467 227.580632 
L 165.869766 227.778612 
L 165.978364 230.599837 
L 166.086963 227.778612 
L 166.24986 227.975442 
L 166.358458 227.975442 
L 166.521356 228.17113 
L 166.629954 228.17113 
L 166.738552 228.365688 
L 166.84715 225.568925 
L 167.010048 228.559124 
L 167.172945 228.559124 
L 167.335843 228.751448 
L 167.444441 228.751448 
L 167.49874 228.94267 
L 167.661638 226.169948 
L 167.715937 226.169948 
L 167.824535 226.368 
L 167.987432 229.1328 
L 168.15033 229.321846 
L 168.258928 229.321846 
L 168.313227 229.509818 
L 168.476125 226.760727 
L 168.530424 226.760727 
L 168.693321 226.955422 
L 168.74762 226.955422 
L 168.910518 229.882576 
L 169.073415 229.882576 
L 169.236313 227.341521 
L 169.344911 227.341521 
L 169.507808 227.532944 
L 169.616407 227.532944 
L 169.779304 227.723294 
L 169.833603 230.433882 
L 169.887902 227.723294 
L 170.0508 227.912581 
L 170.159398 227.912581 
L 170.322295 228.100813 
L 170.430894 228.100813 
L 170.593791 228.288 
L 170.64809 228.288 
L 170.702389 225.6 
L 170.756688 225.793596 
L 170.919586 228.47415 
L 170.973885 228.47415 
L 171.136782 228.659271 
L 171.245381 228.659271 
L 171.408278 228.843372 
L 171.516876 226.177587 
L 171.679774 226.368 
L 171.734073 226.368 
L 171.89697 229.208548 
L 172.059868 229.208548 
L 172.168466 229.389639 
L 172.331363 226.745705 
L 172.494261 226.933014 
L 172.602859 226.933014 
L 172.711457 227.119304 
L 172.874355 229.74887 
L 172.982953 229.927024 
L 173.14585 227.304585 
L 173.308748 227.488865 
L 173.417346 227.488865 
L 173.580244 227.672151 
L 173.634543 227.672151 
L 173.743141 230.455742 
L 173.906038 227.854452 
L 173.960338 227.854452 
L 174.123235 228.035775 
L 174.231833 228.035775 
L 174.394731 228.216128 
L 174.503329 228.216128 
L 174.666226 225.81504 
L 174.829124 228.573957 
L 175.04632 228.573957 
L 175.209218 228.751448 
L 175.317816 228.751448 
L 175.480713 226.368 
L 175.589312 226.368 
L 175.643611 226.550375 
L 175.806508 229.10362 
L 175.860807 229.10362 
L 176.023705 229.278316 
L 176.078004 229.278316 
L 176.132303 226.731789 
L 176.186602 226.912252 
L 176.403799 226.912252 
L 176.566696 227.09177 
L 176.729594 229.79693 
L 176.892491 229.79693 
L 176.94679 227.27035 
L 177.001089 227.448 
L 177.218286 227.448 
L 177.381183 227.624727 
L 177.489782 227.624727 
L 177.59838 227.800539 
L 177.652679 230.307482 
L 177.706978 227.800539 
L 177.761277 227.800539 
L 177.924175 227.975442 
L 178.032773 227.975442 
L 178.19567 228.149443 
L 178.304269 228.149443 
L 178.412867 228.32255 
L 178.521465 225.834941 
L 178.684363 228.494769 
L 178.84726 228.494769 
L 179.010157 228.666107 
L 179.118756 228.666107 
L 179.227354 228.836571 
L 179.390251 226.368 
L 179.49885 226.543878 
L 179.661747 229.006168 
L 179.824644 229.174904 
L 179.933243 229.174904 
L 179.987542 229.342785 
L 180.150439 226.892962 
L 180.204738 226.892962 
L 180.367636 227.066182 
L 180.476234 227.066182 
L 180.530533 227.238529 
L 180.693431 229.67601 
L 180.74773 229.67601 
L 180.910627 227.41001 
L 181.019225 227.41001 
L 181.182123 227.580632 
L 181.290721 227.580632 
L 181.453619 227.7504 
L 181.562217 230.1696 
L 181.725114 227.919322 
L 181.833713 227.919322 
L 181.99661 228.087403 
L 182.105208 228.087403 
L 182.268106 228.25465 
L 182.322405 228.25465 
L 182.376704 225.853459 
L 182.431003 226.025822 
L 182.5939 228.421069 
L 182.6482 228.421069 
L 182.811097 228.586667 
L 182.919695 228.586667 
L 183.082593 228.751448 
L 183.191191 226.368 
L 183.354088 226.537828 
L 183.408388 226.537828 
L 183.571285 229.078588 
L 183.734182 229.078588 
L 183.89708 229.240958 
L 184.005678 226.874993 
L 184.168575 227.042341 
L 184.277174 227.042341 
L 184.385772 227.208876 
L 184.548669 229.563328 
L 184.657268 229.72334 
L 184.820165 227.374602 
L 184.983063 227.539525 
L 185.091661 227.539525 
L 185.254558 227.703652 
L 185.308857 227.703652 
L 185.417456 230.198747 
L 185.580353 227.866988 
L 185.634652 227.866988 
L 185.79755 228.029538 
L 185.906148 228.029538 
L 186.069045 228.191309 
L 186.177644 228.191309 
L 186.231943 228.352306 
L 186.340541 226.037282 
L 186.503438 228.512535 
L 186.720635 228.512535 
L 186.883532 228.672 
L 186.992131 228.672 
L 187.155028 226.532181 
L 187.263626 226.532181 
L 187.317925 226.695583 
L 187.480823 228.988664 
L 187.535122 228.988664 
L 187.698019 229.145872 
L 187.752319 229.145872 
L 187.806618 226.858213 
L 187.860917 227.020075 
L 188.078113 227.020075 
L 188.241011 227.181176 
L 188.403908 229.61307 
L 188.566806 229.61307 
L 188.621105 227.341521 
L 188.675404 227.501115 
L 188.8926 227.501115 
L 189.055498 227.659963 
L 189.164096 227.659963 
L 189.272694 227.81807 
L 189.326994 230.073734 
L 189.381293 227.81807 
L 189.435592 227.81807 
L 189.598489 227.975442 
L 189.707088 227.975442 
L 189.869985 228.132084 
L 189.978583 228.132084 
L 190.087181 228.288 
L 190.19578 226.048 
L 190.358677 228.443196 
L 190.521575 228.443196 
L 190.684472 228.597677 
L 190.79307 228.597677 
L 190.901669 228.751448 
L 191.064566 226.526897 
L 191.173164 226.685064 
L 191.336062 228.904514 
L 191.498959 229.056879 
L 191.607557 229.056879 
L 191.661856 229.208548 
L 191.824754 226.999233 
L 191.879053 226.999233 
L 192.04195 227.155244 
L 192.150549 227.155244 
L 192.204848 227.310545 
L 192.367745 229.509818 
L 192.422044 229.509818 
L 192.584942 227.465143 
L 192.69354 227.465143 
L 192.856438 227.619041 
L 192.965036 227.619041 
L 193.127933 227.772244 
L 193.236531 229.956623 
L 193.399429 227.924757 
L 193.508027 227.924757 
L 193.670925 228.076584 
L 193.779523 228.076584 
L 193.94242 228.227731 
L 193.996719 228.227731 
L 194.051019 226.058045 
L 194.105318 226.213369 
L 194.268215 228.378201 
L 194.322514 228.378201 
L 194.485412 228.528 
L 194.59401 228.528 
L 194.756907 228.677131 
L 194.865506 226.521942 
L 195.028403 226.6752 
L 195.082702 226.6752 
L 195.2456 228.97341 
L 195.408497 228.97341 
L 195.571394 229.120566 
L 195.679993 226.979681 
L 195.84289 227.130914 
L 195.951488 227.130914 
L 196.060087 227.28148 
L 196.222984 229.412934 
L 196.331582 229.558154 
L 196.49448 227.431385 
L 196.657377 227.580632 
L 196.765975 227.580632 
L 196.928873 227.729225 
L 196.983172 227.729225 
L 197.09177 229.990009 
L 197.254668 227.87717 
L 197.308967 227.87717 
L 197.471864 228.024471 
L 197.580463 228.024471 
L 197.74336 228.17113 
L 197.851958 228.17113 
L 197.906257 228.317154 
L 198.014856 226.218065 
L 198.177753 228.462545 
L 198.39495 228.462545 
L 198.557847 228.607309 
L 198.666445 228.607309 
L 198.829343 226.665931 
L 198.937941 226.665931 
L 198.99224 226.813935 
L 199.155138 228.894968 
L 199.209437 228.894968 
L 199.372334 229.037871 
L 199.426633 229.037871 
L 199.480932 226.961305 
L 199.535231 227.108043 
L 199.752428 227.108043 
L 199.915325 227.254154 
L 200.078223 229.462925 
L 200.24112 229.462925 
L 200.295419 227.399642 
L 200.349719 227.544511 
L 200.566915 227.544511 
L 200.729813 227.688764 
L 200.838411 227.688764 
L 200.947009 227.832407 
L 201.001308 229.882576 
L 201.055607 227.832407 
L 201.109906 227.832407 
L 201.272804 227.975442 
L 201.381402 227.975442 
L 201.5443 228.117873 
L 201.652898 228.117873 
L 201.815795 228.259705 
L 201.870094 226.222484 
L 201.924394 228.259705 
L 202.087291 228.400941 
L 202.195889 228.400941 
L 202.358787 228.541585 
L 202.467385 228.541585 
L 202.575983 228.68164 
L 202.738881 226.657205 
L 202.901778 226.800902 
L 203.064675 228.96 
L 203.281872 228.96 
L 203.336171 229.098312 
L 203.499069 227.086503 
L 203.553368 227.086503 
L 203.716265 227.228415 
L 203.824863 227.228415 
L 203.879163 227.369739 
L 204.04206 229.373217 
L 204.096359 229.373217 
L 204.150658 229.509818 
L 204.313556 227.510479 
L 204.367855 227.510479 
L 204.530752 227.650639 
L 204.63935 227.650639 
L 204.802248 227.790222 
L 204.910846 229.781333 
L 205.073744 227.929232 
L 205.182342 227.929232 
L 205.345239 228.067672 
L 205.453838 228.067672 
L 205.616735 228.205546 
L 205.671034 228.205546 
L 205.725333 226.22665 
L 205.779632 226.368 
L 205.833931 226.368 
L 205.996829 228.342857 
L 206.159726 228.479609 
L 206.268325 228.479609 
L 206.431222 228.615805 
L 206.485521 228.615805 
L 206.53982 226.648976 
L 206.594119 226.788609 
L 206.757017 226.788609 
L 206.919914 228.886543 
L 207.082812 228.886543 
L 207.245709 229.021091 
L 207.354307 227.066182 
L 207.517205 227.204129 
L 207.625803 227.204129 
L 207.734401 227.341521 
L 207.897299 229.288563 
L 208.005897 229.421494 
L 208.168794 227.478361 
L 208.331692 227.614653 
L 208.44029 227.614653 
L 208.603188 227.7504 
L 208.711786 227.7504 
L 208.766085 227.885605 
L 208.820384 229.817102 
L 208.874683 227.885605 
L 208.983281 227.885605 
L 209.146179 228.020271 
L 209.254777 228.020271 
L 209.417675 228.154402 
L 209.526273 228.154402 
L 209.580572 228.288 
L 209.68917 226.368 
L 209.852068 228.421069 
L 210.069264 228.421069 
L 210.232162 228.553613 
L 210.34076 228.553613 
L 210.503657 226.776994 
L 210.612256 226.776994 
L 210.666555 226.912252 
L 210.829452 228.817134 
L 210.883751 228.817134 
L 211.046649 228.948118 
L 211.155247 228.948118 
L 211.318144 227.181176 
L 211.426743 227.181176 
L 211.58964 227.314849 
L 211.643939 227.314849 
L 211.806837 229.338 
L 211.915435 229.338 
L 211.969734 227.448 
L 212.024033 227.580632 
L 212.24123 227.580632 
L 212.404127 227.712747 
L 212.512725 227.712747 
L 212.621324 227.84435 
L 212.675623 229.72334 
L 212.729922 227.84435 
L 212.784221 227.84435 
L 212.947119 227.975442 
L 213.055717 227.975442 
L 213.218614 228.106027 
L 213.327213 228.106027 
L 213.49011 228.236108 
L 213.544409 226.368 
L 213.598708 228.236108 
L 213.761606 228.365688 
L 213.870204 228.365688 
L 214.033101 228.494769 
L 214.1417 228.494769 
L 214.250298 228.623355 
L 214.413195 226.766004 
L 214.576093 226.897655 
L 214.73899 228.879052 
L 214.956187 228.879052 
L 215.010486 229.006168 
L 215.173383 227.15945 
L 215.227682 227.15945 
L 215.39058 227.2896 
L 215.499178 227.2896 
L 215.553477 227.419255 
L 215.716375 229.258951 
L 215.770674 229.258951 
L 215.824973 229.384622 
L 215.98787 227.548417 
L 216.042169 227.548417 
L 216.205067 227.677091 
L 216.313665 227.677091 
L 216.476563 227.805278 
L 216.585161 229.634541 
L 216.748058 227.932981 
L 216.856656 227.932981 
L 217.019554 228.060203 
L 217.128152 228.060203 
L 217.29105 228.186947 
L 217.345349 228.186947 
L 217.399648 226.368 
L 217.453947 226.497681 
L 217.508246 226.497681 
L 217.671144 228.313216 
L 217.834041 228.439011 
L 217.942639 228.439011 
L 218.105537 228.564336 
L 218.159836 228.564336 
L 218.214135 226.755589 
L 218.268434 226.883821 
L 218.431331 226.883821 
L 218.594229 228.813587 
L 218.757126 228.813587 
L 218.920024 228.937517 
L 219.028622 227.138855 
L 219.191519 227.265662 
L 219.300118 227.265662 
L 219.408716 227.392 
L 219.571613 229.184 
L 219.680212 229.306558 
L 219.843109 227.517871 
L 220.006006 227.643277 
L 220.114605 227.643277 
L 220.277502 227.768221 
L 220.3861 227.768221 
L 220.4404 227.892706 
L 220.494699 229.671529 
L 220.548998 227.892706 
L 220.657596 227.892706 
L 220.820494 228.016734 
L 220.929092 228.016734 
L 221.091989 228.140308 
L 221.200588 228.140308 
L 221.254887 228.26343 
L 221.363485 226.494362 
L 221.526382 228.386102 
L 221.743579 228.386102 
L 221.906476 228.508328 
L 222.015075 228.508328 
L 222.177972 226.870691 
L 222.28657 226.870691 
L 222.340869 226.995223 
L 222.503767 228.751448 
L 222.558066 228.751448 
L 222.720963 228.872348 
L 222.829562 228.872348 
L 222.992459 227.242937 
L 223.101057 227.242937 
L 223.263955 227.366123 
L 223.318254 227.366123 
L 223.481151 229.232432 
L 223.58975 229.232432 
L 223.644049 227.488865 
L 223.698348 227.611165 
L 223.915544 227.611165 
L 224.078442 227.733027 
L 224.18704 227.733027 
L 224.295638 227.854452 
L 224.349938 229.588645 
L 224.404237 227.854452 
L 224.458536 227.854452 
L 224.621433 227.975442 
L 224.730031 227.975442 
L 224.892929 228.096 
L 225.001527 228.096 
L 225.164425 228.216128 
L 225.218724 226.491209 
L 225.273023 228.216128 
L 225.43592 228.335829 
L 225.544519 228.335829 
L 225.707416 228.455105 
L 225.816014 228.455105 
L 225.924613 228.573957 
L 226.08751 226.858213 
L 226.250407 226.979681 
L 226.413305 228.810403 
L 226.630501 228.810403 
L 226.7391 228.928 
L 226.901997 227.221333 
L 227.064894 227.341521 
L 227.173493 227.341521 
L 227.227792 227.461286 
L 227.390689 229.161954 
L 227.444988 229.161954 
L 227.499288 229.278316 
L 227.662185 227.580632 
L 227.716484 227.580632 
L 227.879381 227.699559 
L 227.98798 227.699559 
L 228.150877 227.81807 
L 228.259475 229.509818 
L 228.422373 227.936168 
L 228.530971 227.936168 
L 228.693869 228.053854 
L 228.802467 228.053854 
L 228.965364 228.17113 
L 229.073963 228.17113 
L 229.182561 226.608 
L 229.345458 228.288 
L 229.508356 228.404464 
L 229.616954 228.404464 
L 229.779851 228.520526 
L 229.83415 228.520526 
L 229.88845 226.846339 
L 229.942749 226.964891 
L 230.105646 226.964891 
L 230.268544 228.751448 
L 230.431441 228.751448 
L 230.594338 228.866313 
L 230.702937 227.200771 
L 230.865834 227.318103 
L 230.974432 227.318103 
L 231.083031 227.435033 
L 231.245928 229.094861 
L 231.408825 229.208548 
L 231.517424 227.551562 
L 231.680321 227.667692 
L 231.788919 227.667692 
L 231.951817 227.783427 
L 232.060415 227.783427 
L 232.114714 227.898767 
L 232.169013 229.547284 
L 232.223313 227.898767 
L 232.331911 227.898767 
L 232.494808 228.013714 
L 232.603406 228.013714 
L 232.766304 228.128272 
L 232.874902 228.128272 
L 232.929201 228.242441 
L 233.0378 226.602305 
L 233.200697 228.356223 
L 233.417894 228.356223 
L 233.580791 228.469622 
L 233.689389 228.469622 
L 233.743688 228.582637 
L 233.906586 226.950799 
L 233.960885 226.950799 
L 234.069483 227.066182 
L 234.232381 228.695273 
L 234.395278 228.807529 
L 234.503876 228.807529 
L 234.666774 227.295785 
L 234.775372 227.295785 
L 234.938269 227.41001 
L 234.992569 227.41001 
L 235.155466 229.142047 
L 235.264064 229.142047 
L 235.318363 227.523853 
L 235.372663 227.637316 
L 235.589859 227.637316 
L 235.752756 227.7504 
L 235.861355 227.7504 
L 235.969953 227.863108 
L 236.078551 229.473225 
L 236.13285 227.863108 
L 236.18715 227.975442 
L 236.404346 227.975442 
L 236.567244 228.087403 
L 236.675842 228.087403 
L 236.838739 228.198993 
L 236.947337 226.596874 
L 237.001637 226.710744 
L 237.164534 228.310215 
L 237.490329 228.421069 
L 237.598927 228.531558 
L 237.761825 226.937357 
L 237.924722 227.050105 
L 238.087619 228.751448 
L 238.413414 228.860852 
L 238.576312 227.274492 
L 238.739209 227.386134 
L 238.847807 227.386134 
L 238.902106 227.497412 
L 239.065004 229.078588 
L 239.173602 229.186923 
L 239.3365 227.608326 
L 239.662294 227.718879 
L 239.825192 227.829073 
L 239.879491 227.829073 
L 239.93379 229.402537 
L 239.988089 227.938909 
L 240.476781 228.048389 
L 240.639679 228.157515 
L 240.748277 228.157515 
L 240.856875 226.702992 
L 241.019773 228.266288 
L 241.18267 228.37471 
L 241.508465 228.482783 
L 241.562764 226.924522 
L 241.617063 227.034752 
L 241.779961 227.034752 
L 241.942858 228.697888 
L 242.268653 228.804923 
L 242.377251 227.254154 
L 242.540149 227.363328 
L 242.811644 227.472153 
L 242.974542 229.123981 
L 243.08314 229.123981 
L 243.191738 227.580632 
L 243.354636 227.688764 
L 243.73473 227.796553 
L 243.789029 227.904 
L 243.843328 229.44 
L 243.897627 227.904 
L 244.277721 228.011106 
L 244.440619 228.117873 
L 244.603516 228.224303 
L 244.712114 226.695583 
L 244.875012 228.330397 
L 245.363704 228.436157 
L 245.418003 228.541585 
L 245.5809 227.020075 
L 245.743798 227.12756 
L 245.906695 228.646681 
L 246.069593 228.751448 
L 246.178191 228.751448 
L 246.341088 227.341521 
L 246.666883 227.448 
L 246.829781 229.063788 
L 246.938379 229.063788 
L 246.992678 227.554147 
L 247.046977 227.659963 
L 247.535669 227.765449 
L 247.644268 227.870609 
L 247.752866 229.373217 
L 247.807165 227.870609 
L 247.861464 227.975442 
L 248.350156 228.07995 
L 248.513054 228.184136 
L 248.621652 226.688495 
L 248.675951 226.794667 
L 248.838849 228.288 
L 249.164644 228.391544 
L 249.273242 228.494769 
L 249.436139 227.006031 
L 249.599037 227.111226 
L 249.761934 228.70027 
L 250.087729 228.802548 
L 250.250626 227.320649 
L 250.413524 227.424881 
L 250.576421 227.528794 
L 250.739319 229.006168 
L 250.847917 229.107512 
L 251.010814 227.63239 
L 251.336609 227.735671 
L 251.499506 227.838638 
L 251.553806 227.838638 
L 251.608105 229.309277 
L 251.662404 227.941293 
L 252.151096 228.043636 
L 252.313994 228.14567 
L 252.422592 228.14567 
L 252.53119 226.785644 
L 252.694087 228.247396 
L 252.856985 228.348814 
L 253.18278 228.449928 
L 253.237079 226.992578 
L 253.291378 227.095579 
L 253.454275 227.095579 
L 253.617173 228.651243 
L 253.997267 228.751448 
L 254.051566 227.300654 
L 254.105865 227.402731 
L 254.485959 227.504502 
L 254.648856 229.050269 
L 254.757455 229.050269 
L 254.866053 227.60597 
L 255.02895 227.707136 
L 255.409044 227.808 
L 255.463344 227.908565 
L 255.517643 229.346425 
L 255.571942 227.908565 
L 255.952036 228.008831 
L 256.114933 228.1088 
L 256.33213 228.208473 
L 256.386429 226.776994 
L 256.440728 228.208473 
L 256.766523 228.307852 
L 256.92942 228.406938 
L 257.092318 228.505732 
L 257.255215 227.080577 
L 257.418112 227.181176 
L 257.58101 228.604235 
L 257.743907 228.702449 
L 257.852506 228.702449 
L 258.015403 227.38149 
L 258.341198 227.481206 
L 258.504095 228.995368 
L 258.666993 228.995368 
L 258.82989 227.679766 
L 259.209984 227.778612 
L 259.318582 227.87717 
L 259.427181 229.285729 
L 259.48148 227.87717 
L 259.535779 227.975442 
L 260.024471 228.073428 
L 260.187369 228.17113 
L 260.295967 226.768696 
L 260.350266 226.868145 
L 260.513163 228.26855 
L 260.838958 228.365688 
L 261.001856 228.462545 
L 261.110454 227.066182 
L 261.273351 227.164772 
L 261.436249 228.655424 
L 261.762044 228.751448 
L 261.924941 227.361103 
L 262.087838 227.458846 
L 262.250736 227.556309 
L 262.413633 228.94267 
L 262.522231 229.037871 
L 262.685129 227.653494 
L 263.010924 227.7504 
L 263.173821 227.84703 
L 263.22812 227.84703 
L 263.336719 229.321846 
L 263.499616 227.943385 
L 263.825411 228.039465 
L 263.988308 228.135273 
L 264.096906 228.135273 
L 264.205505 226.858213 
L 264.368402 228.230809 
L 264.5313 228.326074 
L 264.857094 228.421069 
L 264.911394 227.052356 
L 264.965693 227.149017 
L 265.237188 227.245405 
L 265.400086 228.610257 
L 265.671581 228.704451 
L 265.725881 227.341521 
L 265.78018 227.437367 
L 266.160274 227.532944 
L 266.323171 228.985447 
L 266.431769 228.985447 
L 266.540368 227.628252 
L 266.703265 227.723294 
L 267.083359 227.81807 
L 267.137658 227.912581 
L 267.191957 229.264089 
L 267.246256 227.912581 
L 267.62635 228.006828 
L 267.789248 228.100813 
L 268.006444 228.194537 
L 268.115043 226.848668 
L 268.27794 228.288 
L 268.712333 228.381204 
L 268.766632 228.47415 
L 268.92953 227.133873 
L 269.092427 227.228415 
L 269.255325 228.566838 
L 269.418222 228.659271 
L 269.52682 228.659271 
L 269.689718 227.416717 
L 270.015512 227.510479 
L 270.17841 228.935043 
L 270.341307 228.935043 
L 270.504205 227.697231 
L 270.884299 227.790222 
L 271.047196 227.882959 
L 271.101495 229.208548 
L 271.155794 227.882959 
L 271.318692 227.975442 
L 271.698786 228.067672 
L 271.861683 228.159651 
L 271.970281 226.839487 
L 272.024581 226.933014 
L 272.187478 228.251379 
L 272.513273 228.342857 
L 272.67617 228.434087 
L 272.784769 227.119304 
L 272.947666 227.212071 
L 273.110563 228.615805 
L 273.436358 228.706295 
L 273.599256 227.39685 
L 273.762153 227.488865 
L 273.97935 227.580632 
L 274.142247 228.886543 
L 274.196546 228.976302 
L 274.359444 227.672151 
L 274.685238 227.763424 
L 274.848136 227.854452 
L 274.902435 227.854452 
L 275.011033 229.244134 
L 275.173931 227.945235 
L 275.499725 228.035775 
L 275.662623 228.126072 
L 275.771221 228.126072 
L 275.879819 226.922439 
L 276.042717 228.216128 
L 276.205614 228.305944 
L 276.531409 228.39552 
L 276.585708 227.10528 
L 276.640007 227.196336 
L 276.911503 227.287149 
L 277.0744 228.573957 
L 277.345896 228.662821 
L 277.400195 227.377721 
L 277.454494 227.468053 
L 277.834588 227.558146 
L 277.997486 228.928 
L 278.106084 228.928 
L 278.214682 227.648 
L 278.37758 227.737617 
L 278.757674 227.826997 
L 278.811973 227.916142 
L 278.920571 229.191083 
L 279.029169 227.916142 
L 279.192067 228.005053 
L 279.572161 228.093729 
L 279.680759 228.182173 
L 279.789357 226.912252 
L 279.952255 228.270385 
L 280.386648 228.358366 
L 280.440947 228.446118 
L 280.603844 227.181176 
L 280.766742 227.27035 
L 280.929639 228.53364 
L 281.092537 228.620934 
L 281.255434 228.708 
L 281.418331 227.448 
L 281.689827 227.536479 
L 281.852725 228.881455 
L 282.015622 228.881455 
L 282.178519 227.712747 
L 282.558613 227.800539 
L 282.721511 227.888103 
L 282.77581 229.139953 
L 282.830109 227.888103 
L 282.993006 227.975442 
L 283.3731 228.062555 
L 283.535998 228.149443 
L 283.590297 228.149443 
L 283.644596 226.902433 
L 283.698895 226.990703 
L 283.861793 228.236108 
L 284.187587 228.32255 
L 284.350485 228.40877 
L 284.459083 227.166562 
L 284.621981 227.254154 
L 284.784878 228.580548 
L 285.110673 228.666107 
L 285.27357 227.428665 
L 285.436468 227.515586 
L 285.653664 227.602286 
L 285.816562 228.836571 
L 285.92516 228.921478 
L 286.088057 227.688764 
L 286.250955 227.775023 
L 286.57675 227.861062 
L 286.685348 229.174904 
L 286.848245 227.946883 
L 287.17404 228.032487 
L 287.336937 228.117873 
L 287.445536 228.117873 
L 287.554134 226.979681 
L 287.717031 228.203044 
L 287.879929 228.288 
L 288.260023 228.372741 
L 288.42292 227.238529 
L 288.585818 227.324377 
L 288.748715 228.541585 
L 289.020211 228.625688 
L 289.07451 227.41001 
L 289.128809 227.495428 
L 289.508903 227.580632 
L 289.6718 228.876736 
L 289.780399 228.876736 
L 289.888997 227.665622 
L 290.051894 227.7504 
L 290.431988 227.834966 
L 290.486287 227.919322 
L 290.594886 229.125905 
L 290.703484 227.919322 
L 290.866381 228.003467 
L 291.246475 228.087403 
L 291.355074 228.17113 
L 291.463672 226.969043 
L 291.626569 228.25465 
L 292.060962 228.337963 
L 292.115262 228.421069 
L 292.278159 227.223446 
L 292.441056 227.307827 
L 292.603954 228.50397 
L 292.766851 228.586667 
L 292.929749 228.669159 
L 293.092646 227.475965 
L 293.364142 227.559724 
L 293.527039 228.833535 
L 293.689937 228.833535 
L 293.852834 227.726624 
L 294.232928 227.809767 
L 294.395825 227.892706 
L 294.450125 229.078588 
L 294.504424 227.892706 
L 294.667321 227.975442 
L 295.047415 228.057976 
L 295.210312 228.140308 
L 295.264612 228.140308 
L 295.318911 226.958769 
L 295.37321 227.042341 
L 295.536107 228.222439 
L 295.861902 228.30437 
L 296.0248 228.386102 
L 296.133398 227.208876 
L 296.296295 227.29184 
L 296.459193 228.548971 
L 296.784987 228.630109 
L 296.947885 227.457164 
L 297.110782 227.539525 
L 297.327979 227.621688 
L 297.490876 228.791797 
L 297.599475 228.872348 
L 297.762372 227.703652 
L 297.925269 227.785419 
L 298.251064 227.866988 
L 298.359662 229.112838 
L 298.52256 227.948361 
L 298.848355 228.029538 
L 299.011252 228.110521 
L 299.11985 228.110521 
L 299.282748 227.031022 
L 299.445645 228.271904 
L 299.934337 228.352306 
L 300.097235 227.276387 
L 300.260132 227.357785 
L 300.42303 228.512535 
L 300.694525 228.592362 
L 300.748825 227.438989 
L 300.803124 227.52 
L 301.183218 227.600818 
L 301.346115 228.830708 
L 301.454713 228.830708 
L 301.563312 227.681444 
L 301.726209 227.761879 
L 302.106303 227.842123 
L 302.214901 227.922178 
L 302.2692 229.067361 
L 302.3235 227.922178 
L 302.649294 228.002043 
L 302.812192 228.081719 
L 303.029388 228.161208 
L 303.137987 227.020075 
L 303.300884 228.240509 
L 303.735277 228.319624 
L 303.843875 228.398552 
L 304.006773 227.261443 
L 304.115371 227.341521 
L 304.278268 228.477296 
L 304.441166 228.555855 
L 304.604063 228.63423 
L 304.766961 227.501115 
L 305.092756 227.580632 
L 305.147055 227.659963 
L 305.309952 228.79043 
L 305.364251 228.79043 
L 305.527149 227.739109 
L 305.907243 227.81807 
L 306.07014 227.896847 
L 306.178738 229.023367 
L 306.341636 227.975442 
L 306.72173 228.053854 
L 306.884627 228.132084 
L 306.938926 228.132084 
L 306.993225 227.009485 
L 307.047525 227.088834 
L 307.210422 228.210132 
L 307.536217 228.288 
L 307.699114 228.365688 
L 307.807712 227.246983 
L 307.97061 227.325783 
L 308.024909 227.325783 
L 308.187806 228.520526 
L 308.513601 228.597677 
L 308.6222 227.482839 
L 308.785097 227.561096 
L 309.002293 227.639172 
L 309.165191 228.751448 
L 309.273789 228.828069 
L 309.436687 227.71707 
L 309.599584 227.794789 
L 309.925379 227.87233 
L 310.033977 229.056879 
L 310.196875 227.949693 
L 310.522669 228.02688 
L 310.685567 228.10389 
L 310.848464 228.180725 
L 310.957062 227.077327 
L 311.11996 228.257385 
L 311.608652 228.33387 
L 311.77155 227.310545 
L 311.934447 227.387932 
L 312.097344 228.48632 
L 312.36884 228.562286 
L 312.423139 227.465143 
L 312.477438 227.542179 
L 312.857532 227.619041 
L 313.02043 228.789153 
L 313.183327 228.789153 
L 313.237626 227.695729 
L 313.291925 227.772244 
L 313.780618 227.848586 
L 313.889216 227.924757 
L 313.943515 229.014486 
L 313.997814 227.924757 
L 314.323609 228.000756 
L 314.486506 228.076584 
L 314.703703 228.152242 
L 314.812301 227.066182 
L 314.975199 228.227731 
L 315.409592 228.30305 
L 315.51819 228.378201 
L 315.681087 227.295785 
L 315.789686 227.371978 
L 315.952583 228.453184 
L 316.115481 228.528 
L 316.278378 228.602649 
L 316.441275 227.523853 
L 316.76707 227.599537 
L 316.821369 227.675052 
L 316.984267 228.751448 
L 317.038566 228.751448 
L 317.201463 227.7504 
L 317.581557 227.82558 
L 317.744455 227.900594 
L 317.853053 228.97341 
L 318.01595 227.975442 
L 318.396044 228.050124 
L 318.558942 228.124641 
L 318.613241 228.124641 
L 318.66754 227.055381 
L 318.721839 227.130914 
L 318.884737 228.198993 
L 319.210531 228.273182 
L 319.373429 228.347207 
L 319.482027 227.28148 
L 319.644925 227.356515 
L 319.699224 227.356515 
L 319.862121 228.494769 
L 320.187916 228.568307 
L 320.296514 227.50609 
L 320.459412 227.580632 
L 320.676608 227.65501 
L 320.839506 228.7149 
L 320.948104 228.787956 
L 321.111001 227.729225 
L 321.273899 227.803279 
L 321.599693 227.87717 
L 321.708292 229.006168 
L 321.871189 227.950901 
L 322.196984 228.024471 
L 322.359881 228.09788 
L 322.522779 228.17113 
L 322.631377 227.119304 
L 322.794275 228.244221 
L 323.282967 228.317154 
L 323.445864 227.341521 
L 323.608762 227.415273 
L 323.771659 228.462545 
L 324.043155 228.535005 
L 324.097454 227.488865 
L 324.151753 227.562298 
L 324.531847 227.635573 
L 324.694744 228.751448 
L 324.857642 228.751448 
L 324.911941 227.70869 
L 324.96624 227.781649 
L 325.454932 227.854452 
L 325.563531 227.927098 
L 325.61783 228.966496 
L 325.672129 227.927098 
L 325.997924 227.999588 
L 326.160821 228.071923 
L 326.378018 228.144103 
L 326.486616 227.108043 
L 326.649513 228.216128 
L 327.083906 228.288 
L 327.192505 228.359718 
L 327.355402 227.326975 
L 327.464 227.399642 
L 327.626898 228.431284 
L 327.789795 228.502696 
L 327.952693 228.573957 
L 328.11559 227.544511 
L 328.441385 227.616714 
L 328.495684 227.688764 
L 328.658581 228.716025 
L 328.712881 228.716025 
L 328.875778 227.760662 
L 329.255872 227.832407 
L 329.418769 227.904 
L 329.527368 228.928 
L 329.690265 227.975442 
L 330.070359 228.046733 
L 330.233256 228.117873 
L 330.287556 228.117873 
L 330.341855 227.097114 
L 330.396154 227.16918 
L 330.450453 227.16918 
L 330.61335 228.188864 
L 330.776248 228.259705 
L 331.102043 228.330397 
L 331.156342 227.312858 
L 331.210641 227.384471 
L 331.373538 227.384471 
L 331.536436 228.471337 
L 331.862231 228.541585 
L 331.970829 227.527245 
L 332.133726 227.598408 
L 332.350923 227.669423 
L 332.51382 228.68164 
L 332.622418 228.751448 
L 332.785316 227.740288 
L 332.948213 227.811006 
L 333.328307 227.881577 
L 333.382606 227.952 
L 333.436906 228.96 
L 333.491205 227.952 
L 333.871299 228.022277 
L 334.034196 228.092407 
L 334.197093 228.162393 
L 334.305692 227.157533 
L 334.468589 228.232232 
L 334.957281 228.301927 
L 335.120179 227.369739 
L 335.283076 227.440182 
L 335.445974 228.440885 
L 335.771768 228.510149 
L 335.934666 227.580632 
L 336.260461 227.650639 
L 336.423358 228.717083 
L 336.531956 228.717083 
L 336.586256 227.720503 
L 336.640555 227.790222 
L 337.129247 227.859799 
L 337.237845 227.929232 
L 337.292144 228.922743 
L 337.346443 227.929232 
L 337.672238 227.998523 
L 337.835136 228.067672 
L 338.106631 228.13668 
L 338.160931 227.146219 
L 338.21523 228.13668 
L 338.378127 228.205546 
L 338.758221 228.274272 
L 338.866819 228.342857 
L 339.029717 227.355429 
L 339.192614 227.424881 
L 339.355512 228.479609 
L 339.627007 228.547776 
L 339.789905 227.563361 
L 340.115699 227.63239 
L 340.169999 227.701279 
L 340.332896 228.683695 
L 340.441494 228.751448 
L 340.604392 227.770028 
L 340.930187 227.838638 
L 341.093084 227.907109 
L 341.201682 228.886543 
L 341.36458 227.975442 
L 341.744674 228.043636 
L 341.907571 228.111693 
L 341.96187 228.111693 
L 342.016169 227.135225 
L 342.070468 227.204129 
L 342.124768 227.204129 
L 342.287665 228.179613 
L 342.450562 228.247396 
L 342.776357 228.315042 
L 342.830656 227.341521 
L 342.884956 227.41001 
L 343.047853 227.41001 
L 343.21075 228.449928 
L 343.536545 228.517168 
L 343.645143 227.546576 
L 343.808041 227.614653 
L 344.025237 227.682595 
L 344.188135 228.651243 
L 344.296733 228.71808 
L 344.459631 227.7504 
L 344.622528 227.81807 
L 345.002622 227.885605 
L 345.056921 227.953005 
L 345.11122 228.917791 
L 345.165519 227.953005 
L 345.545613 228.020271 
L 345.708511 228.087403 
L 345.871408 228.154402 
L 345.980006 227.192493 
L 346.142904 228.221267 
L 346.631596 228.288 
L 346.794493 227.395552 
L 346.957391 227.46297 
L 347.120288 228.421069 
L 347.446083 228.487407 
L 347.608981 227.597407 
L 347.934775 227.664426 
L 348.097673 228.685633 
L 348.206271 228.685633 
L 348.26057 227.731314 
L 348.314869 227.798069 
L 348.803562 227.864693 
L 348.91216 227.931186 
L 348.966459 228.88269 
L 349.020758 227.931186 
L 349.346553 227.997548 
L 349.50945 228.06378 
L 349.780946 228.129882 
L 349.835245 227.181176 
L 349.889544 228.129882 
L 350.052442 228.195855 
L 350.432536 228.261699 
L 350.541134 228.327413 
L 350.704031 227.38149 
L 350.866929 227.448 
L 351.029826 228.458459 
L 351.301322 228.523789 
L 351.464219 227.580632 
L 351.790014 227.646754 
L 351.844313 227.712747 
L 352.007211 228.65407 
L 352.115809 228.71902 
L 352.278706 227.778612 
L 352.604501 227.84435 
L 352.767399 227.909959 
L 352.875997 228.848543 
L 353.038894 227.975442 
L 353.418988 228.040798 
L 353.581886 228.106027 
L 353.636185 228.106027 
L 353.690484 227.170166 
L 353.744783 227.236174 
L 353.799082 227.236174 
L 353.96198 228.17113 
L 354.124877 228.236108 
L 354.450672 228.30096 
L 354.504971 227.367807 
L 354.55927 227.433434 
L 354.722168 227.433434 
L 354.885065 228.430291 
L 355.21086 228.494769 
L 355.319458 227.564308 
L 355.482356 227.629556 
L 355.699552 227.694679 
L 355.862449 228.623355 
L 356.025347 228.687463 
L 356.133945 227.759678 
L 356.296843 227.824552 
L 356.676937 227.889301 
L 356.731236 227.953927 
L 356.785535 228.879052 
L 356.839834 227.953927 
L 357.219928 228.01843 
L 357.382825 228.082809 
L 357.545723 228.147066 
L 357.654321 227.224587 
L 357.817218 228.2112 
L 358.305911 228.275212 
L 358.36021 228.339103 
L 358.523107 227.419255 
L 358.631706 227.483897 
L 358.794603 228.402872 
L 359.120398 228.46652 
L 359.283295 227.612815 
L 359.60909 227.677091 
L 359.771987 228.656742 
L 359.880586 228.656742 
L 359.934885 227.741245 
L 359.989184 227.805278 
L 360.477876 227.86919 
L 360.586474 227.932981 
L 360.695073 228.845887 
L 360.749372 227.932981 
L 360.803671 227.996652 
L 361.292363 228.060203 
L 361.455261 228.123635 
L 361.563859 227.213306 
L 361.618158 227.277474 
L 361.781056 228.186947 
L 362.10685 228.250141 
L 362.215449 228.313216 
L 362.378346 227.405448 
L 362.541243 227.469256 
L 362.704141 228.439011 
L 363.029936 228.501732 
L 363.192833 227.596513 
L 363.355731 227.659963 
L 363.518628 227.723294 
L 363.681525 228.626824 
L 363.790124 228.689194 
L 363.953021 227.786507 
L 364.278816 227.849603 
L 364.441713 227.912581 
L 364.496012 227.912581 
L 364.550312 228.813587 
L 364.604611 227.975442 
L 365.093303 228.038186 
L 365.2562 228.100813 
L 365.364799 228.100813 
L 365.473397 227.265662 
L 365.636294 228.163325 
L 365.799192 228.22572 
L 366.124987 228.288 
L 366.179286 227.392 
L 366.233585 227.454994 
L 366.396482 227.454994 
L 366.55938 228.412214 
L 366.885174 228.47415 
L 366.993773 227.580632 
L 367.15667 227.643277 
L 367.428166 227.705806 
L 367.591063 228.659271 
L 367.699662 228.659271 
L 367.80826 227.768221 
L 367.971157 227.830521 
L 368.351251 227.892706 
L 368.40555 227.954777 
L 368.459849 228.843372 
L 368.514149 227.954777 
L 368.894243 228.016734 
L 369.05714 228.078577 
L 369.220037 228.140308 
L 369.328636 227.254154 
L 369.491533 228.201925 
L 369.980225 228.26343 
L 370.034524 228.324822 
L 370.197422 227.441096 
L 370.360319 227.503182 
L 370.523217 228.386102 
L 370.686114 228.447271 
L 370.794712 228.447271 
L 370.95761 227.627016 
L 371.283405 227.688764 
L 371.446302 228.630109 
L 371.5549 228.630109 
L 371.609199 227.7504 
L 371.663499 227.811924 
L 372.152191 227.873336 
L 372.260789 227.934636 
L 372.369387 228.811953 
L 372.423687 227.934636 
L 372.477986 227.995826 
L 372.966678 228.056905 
L 373.129575 228.117873 
L 373.238174 227.242937 
L 373.292473 227.304585 
L 373.45537 228.178732 
L 373.781165 228.23948 
L 373.889763 228.300119 
L 374.052661 227.427549 
L 374.215558 227.488865 
L 374.378456 228.421069 
L 374.70425 228.481381 
L 374.867148 227.611165 
L 375.030045 227.672151 
L 375.192943 227.733027 
L 375.35584 228.60168 
L 375.464438 228.661668 
L 375.627336 227.793794 
L 375.953131 227.854452 
L 376.116028 227.915001 
L 376.170327 227.915001 
L 376.224626 228.781321 
L 376.278925 227.975442 
L 376.767618 228.035775 
L 376.930515 228.096 
L 377.039113 228.096 
L 377.147712 227.292888 
L 377.310609 228.156118 
L 377.473506 228.216128 
L 377.799301 228.276032 
L 377.8536 227.41434 
L 377.907899 227.474904 
L 378.070797 227.474904 
L 378.233694 228.39552 
L 378.559489 228.455105 
L 378.668087 227.595709 
L 378.830985 227.65595 
L 379.10248 227.716085 
L 379.265378 228.633226 
L 379.373976 228.633226 
L 379.482574 227.776113 
L 379.645472 227.836035 
L 380.025566 227.895851 
L 380.079865 227.955562 
L 380.134164 228.810403 
L 380.188463 227.955562 
L 380.568557 228.015167 
L 380.731455 228.074667 
L 380.948651 228.134062 
L 381.00295 227.28148 
L 381.057249 228.134062 
L 381.383044 228.193352 
L 381.545942 228.252538 
L 381.708839 228.31162 
L 381.871737 227.461286 
L 382.034634 227.521011 
L 382.197531 228.370599 
L 382.360429 228.429474 
L 382.469027 228.429474 
L 382.631924 227.640147 
L 382.957719 227.699559 
L 383.120617 228.60548 
L 383.283514 228.60548 
L 383.446412 227.81807 
L 383.826505 227.87717 
L 383.935104 227.936168 
L 384.043702 228.780565 
L 384.098001 227.936168 
L 384.1523 227.995062 
L 384.640993 228.053854 
L 384.80389 228.112543 
L 384.912488 227.27035 
L 384.966787 227.32967 
L 385.129685 228.17113 
L 385.45548 228.229616 
L 385.618377 228.288 
L 385.726975 227.448 
L 385.889873 227.507011 
L 386.05277 228.404464 
L 386.378565 228.462545 
L 386.541462 227.624727 
L 386.70436 227.683433 
L 386.867257 227.742036 
L 387.030155 228.578406 
L 387.138753 228.636187 
L 387.30165 227.800539 
L 387.627445 227.85894 
L 387.790343 227.917241 
L 387.844642 227.917241 
L 387.95324 228.80893 
L 388.116137 227.975442 
L 388.441932 228.033542 
L 388.60483 228.091543 
L 388.713428 228.091543 
L 388.822026 227.318103 
L 388.984924 228.149443 
L 389.147821 228.207245 
L 389.473616 228.264947 
L 389.527915 227.435033 
L 389.582214 227.493347 
L 389.745112 227.493347 
L 389.908009 228.380055 
L 390.288103 228.437461 
L 390.342402 227.609677 
L 390.396701 227.667692 
L 390.776795 227.725609 
L 390.939693 228.609092 
L 391.048291 228.609092 
L 391.156889 227.783427 
L 391.319787 227.841146 
L 391.69988 227.898767 
L 391.75418 227.956289 
L 391.808479 228.779847 
L 391.862778 227.956289 
L 392.242872 228.013714 
L 392.405769 228.071042 
L 392.622966 228.128272 
L 392.677265 227.306812 
L 392.731564 228.128272 
L 393.057359 228.185405 
L 393.220256 228.242441 
L 393.383154 228.29938 
L 393.546051 227.480007 
L 393.708949 227.537543 
L 393.871846 228.356223 
L 394.034743 228.41297 
L 394.143342 228.41297 
L 394.306239 227.652324 
L 394.632034 227.70957 
L 394.794931 228.582637 
L 394.957829 228.582637 
L 395.120726 227.823771 
L 395.50082 227.880727 
L 395.663718 227.937588 
L 395.718017 228.751448 
L 395.772316 227.937588 
L 395.935213 227.994353 
L 396.315307 228.051023 
L 396.478205 228.107597 
L 396.586803 227.295785 
L 396.641102 227.352946 
L 396.803999 228.164077 
L 397.129794 228.220462 
L 397.292692 228.276753 
L 397.40129 227.466979 
L 397.564187 227.523853 
L 397.727085 228.389053 
L 398.05288 228.445062 
L 398.215777 227.637316 
L 398.378674 227.693905 
L 398.487273 227.693905 
L 398.487273 227.693905 
" style="fill:none;stroke:#1f77b4;stroke-linecap:square;stroke-width:1.5;"/>
   </g>
   <g id="patch_3">
    <path d="M 57.6 307.584 
L 57.6 41.472 
" style="fill:none;stroke:#000000;stroke-linecap:square;stroke-linejoin:miter;stroke-width:0.8;"/>
   </g>
   <g id="patch_4">
    <path d="M 414.72 307.584 
L 414.72 41.472 
" style="fill:none;stroke:#000000;stroke-linecap:square;stroke-linejoin:miter;stroke-width:0.8;"/>
   </g>
   <g id="patch_5">
    <path d="M 57.6 307.584 
L 414.72 307.584 
" style="fill:none;stroke:#000000;stroke-linecap:square;stroke-linejoin:miter;stroke-width:0.8;"/>
   </g>
   <g id="patch_6">
    <path d="M 57.6 41.472 
L 414.72 41.472 
" style="fill:none;stroke:#000000;stroke-linecap:square;stroke-linejoin:miter;stroke-width:0.8;"/>
   </g>
  </g>
 </g>
 <defs>
  <clipPath id="p29bac902c8">
   <rect height="266.112" width="357.12" x="57.6" y="41.472"/>
  </clipPath>
 </defs>
</svg>
