<?xml version="1.0" encoding="UTF-8" standalone="no"?>
<!-- Created with matplotlib (https://matplotlib.org/) -->

<svg
   height="345.6pt"
   version="1.1"
   viewBox="0 0 460.8 345.6"
   width="460.8pt"
   id="svg14587"
   sodipodi:docname="n_t_0.svg"
   inkscape:version="1.2.2 (732a01da63, 2022-12-09, custom)"
   xmlns:inkscape="http://www.inkscape.org/namespaces/inkscape"
   xmlns:sodipodi="http://sodipodi.sourceforge.net/DTD/sodipodi-0.dtd"
   xmlns:xlink="http://www.w3.org/1999/xlink"
   xmlns="http://www.w3.org/2000/svg"
   xmlns:svg="http://www.w3.org/2000/svg"
   xmlns:rdf="http://www.w3.org/1999/02/22-rdf-syntax-ns#"
   xmlns:cc="http://creativecommons.org/ns#"
   xmlns:dc="http://purl.org/dc/elements/1.1/">
  <sodipodi:namedview
     id="namedview14589"
     pagecolor="#ffffff"
     bordercolor="#666666"
     borderopacity="1.0"
     inkscape:showpageshadow="2"
     inkscape:pageopacity="0.0"
     inkscape:pagecheckerboard="0"
     inkscape:deskcolor="#d1d1d1"
     inkscape:document-units="pt"
     showgrid="false"
     inkscape:zoom="51.527776"
     inkscape:cx="82.867928"
     inkscape:cy="407.92562"
     inkscape:window-width="1853"
     inkscape:window-height="1018"
     inkscape:window-x="67"
     inkscape:window-y="34"
     inkscape:window-maximized="1"
     inkscape:current-layer="matplotlib.axis_1" />
  <metadata
     id="metadata14132">
    <rdf:RDF>
      <cc:Work>
        <dc:type
           rdf:resource="http://purl.org/dc/dcmitype/StillImage" />
        <dc:date>2022-08-27T15:22:04.447363</dc:date>
        <dc:format>image/svg+xml</dc:format>
        <dc:creator>
          <cc:Agent>
            <dc:title>Matplotlib v3.3.4, https://matplotlib.org/</dc:title>
          </cc:Agent>
        </dc:creator>
      </cc:Work>
    </rdf:RDF>
  </metadata>
  <defs
     id="defs14136">
    <style
       type="text/css"
       id="style14134">*{stroke-linecap:butt;stroke-linejoin:round;}</style>
    <path
       d="m 13.71875,72.90625 h 9.96875 l 12.5,-26.328125 22.609375,26.328125 H 70.3125 L 40.28125,38.09375 58.40625,0 H 48.484375 L 33.796875,30.71875 7.171875,0 H -4.296875 L 29.78125,39.203125 Z"
       id="path28451" />
    <path
       d="M 36.8125,72.90625 H 48 L 61.53125,0 H 51.21875 L 48.1875,18.703125 H 15.375 L 5.078125,0 H -5.328125 Z M 40.375,63.1875 19.921875,26.90625 H 46.6875 Z"
       id="path28453" />
    <path
       d="M 16.890625,72.90625 H 42.09375 q 10.25,0 15.328125,-3.8125 Q 62.5,65.28125 62.5,57.625 62.5,50.59375 58.125,45.484375 53.765625,40.375 46.6875,39.3125 q 6.046875,-1.375 9.078125,-5.234375 3.03125,-3.859375 3.03125,-10.296875 0,-10.984375 -8.140625,-17.390625 Q 42.53125,0 28.421875,0 H 2.6875 Z M 19.28125,34.8125 14.109375,8.109375 h 15.875 q 8.9375,0 13.765625,4.09375 4.828125,4.109375 4.828125,11.578125 0,5.765625 -3.203125,8.390625 Q 42.1875,34.8125 35.109375,34.8125 Z m 5.8125,29.984375 -4.296875,-21.96875 H 35.5 q 7.859375,0 12.28125,3.40625 4.421875,3.421875 4.421875,9.484375 0,4.734375 -2.984375,6.90625 -2.984375,2.171875 -9.515625,2.171875 z"
       id="path28463" />
    <path
       d="m 69.484375,67.28125 -2,-10.390625 q -4.6875,4.734375 -9.9375,7.03125 -5.25,2.296875 -11.359375,2.296875 -8.34375,0 -14.671875,-4.015625 -6.3125,-4 -10.90625,-12.203125 Q 17.671875,44.734375 16.125,38.84375 14.59375,32.953125 14.59375,27 14.59375,17.046875 19.75,11.8125 24.90625,6.59375 34.71875,6.59375 41.5,6.59375 47.75,8.765625 54,10.9375 59.90625,15.28125 L 57.625,3.609375 q -5.8125,-2.484375 -11.75,-3.75 -5.9375,-1.28125 -11.890625,-1.28125 -14.015625,0 -21.90625,7.609375 -7.875,7.625 -7.875,21.203125 0,8.6875 3,17.078125 3,8.40625 8.625,15.34375 5.953125,7.375 13.59375,10.890625 7.640625,3.515625 17.796875,3.515625 6.25,0 11.84375,-1.734375 Q 64.65625,70.75 69.484375,67.28125 Z"
       id="path28473" />
    <path
       d="m 30.078125,3.421875 q 7.234375,0 10.90625,5.703125 3.6875,5.71875 3.6875,16.859375 0,11.125 -3.6875,16.8125 -3.671875,5.6875 -10.90625,5.6875 -7.21875,0 -10.90625,-5.6875 -3.6875,-5.6875 -3.6875,-16.8125 0,-11.140625 3.703125,-16.859375 3.71875,-5.703125 10.890625,-5.703125 z m 0,-4.84375 q -11.328125,0 -18.21875,7.5 -6.875,7.5 -6.875,19.90625 0,12.390625 6.859375,19.859375 6.859375,7.484375 18.234375,7.484375 11.375,0 18.234375,-7.484375 6.859375,-7.46875 6.859375,-19.859375 0,-12.40625 -6.859375,-19.90625 -6.859375,-7.5 -18.234375,-7.5 z"
       id="path28475" />
    <path
       d="M 16.890625,72.90625 H 38.09375 q 16.890625,0 25.5,-7.15625 8.625,-7.15625 8.625,-21.265625 0,-9.328125 -3.28125,-17.953125 Q 65.671875,17.921875 59.90625,12.015625 54.109375,5.953125 45.171875,2.96875 36.234375,0 24.03125,0 H 2.6875 Z m 8.3125,-8.109375 -11,-56.6875 H 27.09375 q 16.5625,0 25.640625,9.515625 9.078125,9.53125 9.078125,26.859375 0,10.5 -5.859375,15.40625 -5.859375,4.90625 -18.359375,4.90625 z"
       id="path28477" />
    <path
       d="M 0,0 H -3.5"
       id="m93fa121516"
       style="stroke:#000000;stroke-width:0.8" />
    <path
       d="m 31.78125,3.421875 q 7.484375,0 11.1875,8.203125 3.71875,8.203125 3.71875,24.75 0,16.609375 -3.71875,24.8125 -3.703125,8.203125 -11.1875,8.203125 -7.46875,0 -11.1875,-8.203125 -3.703125,-8.203125 -3.703125,-24.8125 0,-16.546875 3.703125,-24.75 3.71875,-8.203125 11.1875,-8.203125 z m 0,-4.84375 Q 19.921875,-1.421875 13.25,8.53125 6.59375,18.5 6.59375,36.375 q 0,17.921875 6.65625,27.875 6.671875,9.96875 18.53125,9.96875 11.921875,0 18.5625,-9.96875 6.640625,-9.953125 6.640625,-27.875 0,-17.875 -6.640625,-27.84375 -6.640625,-9.953125 -18.5625,-9.953125 z"
       id="DejaVuSerif-48" />
    <path
       d="m 9.421875,5.078125 q 0,2.734375 1.859375,4.640625 1.859375,1.90625 4.640625,1.90625 2.6875,0 4.578125,-1.90625 1.90625,-1.90625 1.90625,-4.640625 0,-2.6875 -1.90625,-4.59375 -1.890625,-1.90625 -4.578125,-1.90625 -2.78125,0 -4.640625,1.875 -1.859375,1.890625 -1.859375,4.625 z"
       id="DejaVuSerif-46" />
    <path
       d="M 12.796875,55.515625 H 7.328125 V 68.5 q 5.21875,2.796875 10.515625,4.25 5.296875,1.46875 10.375,1.46875 11.375,0 17.96875,-5.515625 6.59375,-5.515625 6.59375,-14.984375 0,-10.703125 -14.9375,-25.59375 Q 36.671875,27 36.078125,26.421875 L 17.671875,8.015625 H 48.09375 V 17 H 53.8125 V 0 H 6.78125 v 5.328125 l 22.125,22.0625 q 7.328125,7.328125 10.453125,13.453125 3.125,6.125 3.125,12.875 0,7.359375 -3.84375,11.515625 -3.828125,4.15625 -10.5625,4.15625 -6.984375,0 -10.796875,-3.46875 -3.796875,-3.46875 -4.484375,-10.40625 z"
       id="DejaVuSerif-50" />
    <path
       d="m 34.90625,24.703125 v 38.78125 L 10.015625,24.703125 Z M 56.390625,0 H 23.1875 v 5.171875 h 11.71875 v 14.3125 H 3.078125 V 24.8125 l 31.9375,49.40625 h 9.65625 V 24.703125 H 58.59375 v -5.21875 H 44.671875 v -14.3125 h 11.71875 z"
       id="DejaVuSerif-52" />
    <path
       d="m 32.71875,3.421875 q 6.875,0 10.578125,5.046875 3.71875,5.0625 3.71875,14.53125 0,9.46875 -3.71875,14.515625 -3.703125,5.0625 -10.578125,5.0625 -6.984375,0 -10.65625,-4.890625 -3.65625,-4.875 -3.65625,-14.109375 0,-9.703125 3.703125,-14.9375 3.71875,-5.21875 10.609375,-5.21875 z m -15.921875,36.71875 q 3.328125,3.65625 7.515625,5.453125 4.203125,1.8125 9.484375,1.8125 10.875,0 17.203125,-6.546875 Q 57.328125,34.328125 57.328125,23 q 0,-11.078125 -6.8125,-17.75 -6.8125,-6.671875 -18.1875,-6.671875 -12.359375,0 -19,9.203125 Q 6.6875,17 6.6875,34.078125 q 0,19.140625 7.859375,29.640625 7.859375,10.5 22.171875,10.5 3.859375,0 8.109375,-0.734375 4.25,-0.734375 8.6875,-2.1875 V 59.28125 H 48 q -0.59375,4.921875 -3.765625,7.515625 -3.171875,2.59375 -8.546875,2.59375 -9.46875,0 -14.109375,-7.1875 -4.640625,-7.171875 -4.78125,-22.0625 z"
       id="DejaVuSerif-54" />
    <path
       d="m 46.578125,19.921875 q 0,7.8125 -3.890625,12.125 Q 38.8125,36.375 31.78125,36.375 24.75,36.375 20.875,32.046875 17,27.734375 17,19.921875 q 0,-7.859375 3.875,-12.1875 3.875,-4.3125 10.90625,-4.3125 7.03125,0 10.90625,4.3125 3.890625,4.328125 3.890625,12.1875 z m -2,35.40625 q 0,6.640625 -3.375,10.34375 -3.359375,3.71875 -9.421875,3.71875 -6,0 -9.390625,-3.71875 Q 19,61.96875 19,55.328125 q 0,-6.6875 3.390625,-10.40625 3.390625,-3.703125 9.390625,-3.703125 6.0625,0 9.421875,3.703125 3.375,3.71875 3.375,10.40625 z M 39.3125,38.8125 q 8.296875,-1.109375 12.9375,-6.125 4.640625,-5 4.640625,-12.765625 0,-10.25 -6.5,-15.796875 -6.5,-5.546875 -18.609375,-5.546875 -12.046875,0 -18.578125,5.546875 Q 6.6875,9.671875 6.6875,19.921875 6.6875,27.6875 11.328125,32.6875 15.96875,37.703125 24.3125,38.8125 16.9375,40.140625 13,44.40625 9.078125,48.6875 9.078125,55.328125 q 0,8.78125 6.046875,13.828125 6.0625,5.0625 16.65625,5.0625 10.609375,0 16.65625,-5.0625 Q 54.5,64.109375 54.5,55.328125 54.5,48.6875 50.5625,44.40625 46.625,40.140625 39.3125,38.8125 Z"
       id="DejaVuSerif-56" />
    <path
       d="M 14.203125,0 V 5.171875 H 26.90625 v 60.65625 l -14.703125,-9.53125 v 6.40625 L 29.984375,74.21875 H 36.71875 V 5.171875 H 49.421875 V 0 Z"
       id="DejaVuSerif-49" />
  </defs>
  <g
     id="figure_1">
    <g
       id="patch_1">
      <path
         d="M 0 345.6  L 460.8 345.6  L 460.8 0  L 0 0  z "
         style="fill:#ffffff;"
         id="path14138" />
    </g>
    <g
       id="axes_1">
      <g
         id="patch_2">
        <path
           d="M 57.6 307.584  L 414.72 307.584  L 414.72 41.472  L 57.6 41.472  z "
           style="fill:#ffffff;"
           id="path14141" />
      </g>
      <g
         id="matplotlib.axis_1">
        <g
           id="text_10">
          <!-- Space -->
          <g
             transform="translate(210.037109 341.179469)scale(0.17 -0.17)"
             id="g14329">
            <defs
               id="defs14317">
              <path
                 d="M 9.28125 3.515625  L 9.28125 20.125  L 14.890625 20.0625  Q 15.140625 11.765625 19.703125 7.78125  Q 24.265625 3.8125 33.59375 3.8125  Q 42.28125 3.8125 46.84375 7.25  Q 51.421875 10.6875 51.421875 17.28125  Q 51.421875 22.5625 48.65625 25.390625  Q 45.90625 28.21875 37.015625 30.90625  L 27.390625 33.796875  Q 16.9375 36.96875 12.671875 41.703125  Q 8.40625 46.4375 8.40625 54.6875  Q 8.40625 63.96875 14.984375 69.09375  Q 21.578125 74.21875 33.5 74.21875  Q 38.578125 74.21875 44.625 73.109375  Q 50.6875 72.015625 57.515625 69.921875  L 57.515625 54.390625  L 52 54.390625  Q 51.171875 62.109375 46.84375 65.546875  Q 42.53125 69 33.6875 69  Q 25.984375 69 21.953125 65.84375  Q 17.921875 62.703125 17.921875 56.6875  Q 17.921875 51.46875 20.9375 48.484375  Q 23.96875 45.515625 33.796875 42.578125  L 42.828125 39.890625  Q 52.734375 36.921875 56.953125 32.296875  Q 61.1875 27.6875 61.1875 19.921875  Q 61.1875 9.328125 54.390625 3.953125  Q 47.609375 -1.421875 34.1875 -1.421875  Q 28.171875 -1.421875 21.9375 -0.1875  Q 15.71875 1.03125 9.28125 3.515625  z "
                 id="DejaVuSerif-83" />
              <path
                 d="M 20.515625 28.515625  L 20.515625 23.390625  Q 20.515625 14.015625 24.09375 9.109375  Q 27.6875 4.203125 34.515625 4.203125  Q 41.40625 4.203125 44.9375 9.71875  Q 48.484375 15.234375 48.484375 25.984375  Q 48.484375 36.765625 44.9375 42.234375  Q 41.40625 47.703125 34.515625 47.703125  Q 27.6875 47.703125 24.09375 42.765625  Q 20.515625 37.84375 20.515625 28.515625  z M 11.53125 46.6875  L 2.875 46.6875  L 2.875 51.90625  L 20.515625 51.90625  L 20.515625 43.796875  Q 23.140625 48.6875 27.21875 51  Q 31.296875 53.328125 37.3125 53.328125  Q 46.875 53.328125 52.921875 45.75  Q 58.984375 38.1875 58.984375 25.984375  Q 58.984375 13.765625 52.921875 6.171875  Q 46.875 -1.421875 37.3125 -1.421875  Q 31.296875 -1.421875 27.21875 0.890625  Q 23.140625 3.21875 20.515625 8.109375  L 20.515625 -15.578125  L 29 -15.578125  L 29 -20.796875  L 2.875 -20.796875  L 2.875 -15.578125  L 11.53125 -15.578125  z "
                 id="DejaVuSerif-112" />
              <path
                 d="M 39.796875 16.3125  L 39.796875 27.296875  L 28.21875 27.296875  Q 21.53125 27.296875 18.25 24.40625  Q 14.984375 21.53125 14.984375 15.578125  Q 14.984375 10.15625 18.296875 6.984375  Q 21.625 3.8125 27.296875 3.8125  Q 32.90625 3.8125 36.34375 7.28125  Q 39.796875 10.75 39.796875 16.3125  z M 48.78125 32.421875  L 48.78125 5.171875  L 56.78125 5.171875  L 56.78125 0  L 39.796875 0  L 39.796875 5.609375  Q 36.8125 2 32.90625 0.28125  Q 29 -1.421875 23.78125 -1.421875  Q 15.140625 -1.421875 10.0625 3.171875  Q 4.984375 7.765625 4.984375 15.578125  Q 4.984375 23.640625 10.796875 28.078125  Q 16.609375 32.515625 27.203125 32.515625  L 39.796875 32.515625  L 39.796875 36.078125  Q 39.796875 42 36.203125 45.234375  Q 32.625 48.484375 26.125 48.484375  Q 20.75 48.484375 17.578125 46.046875  Q 14.40625 43.609375 13.625 38.8125  L 8.984375 38.8125  L 8.984375 49.3125  Q 13.671875 51.3125 18.09375 52.3125  Q 22.515625 53.328125 26.703125 53.328125  Q 37.5 53.328125 43.140625 47.96875  Q 48.78125 42.625 48.78125 32.421875  z "
                 id="DejaVuSerif-97" />
              <path
                 d="M 51.421875 15.578125  Q 49.515625 7.28125 44.09375 2.921875  Q 38.671875 -1.421875 30.078125 -1.421875  Q 18.75 -1.421875 11.859375 6.078125  Q 4.984375 13.578125 4.984375 25.984375  Q 4.984375 38.421875 11.859375 45.875  Q 18.75 53.328125 30.078125 53.328125  Q 35.015625 53.328125 39.890625 52.171875  Q 44.78125 51.03125 49.703125 48.6875  L 49.703125 35.40625  L 44.484375 35.40625  Q 43.453125 42.234375 40.015625 45.359375  Q 36.578125 48.484375 30.171875 48.484375  Q 22.90625 48.484375 19.1875 42.84375  Q 15.484375 37.203125 15.484375 25.984375  Q 15.484375 14.75 19.171875 9.078125  Q 22.859375 3.421875 30.171875 3.421875  Q 35.984375 3.421875 39.453125 6.4375  Q 42.921875 9.46875 44.1875 15.578125  z "
                 id="DejaVuSerif-99" />
              <path
                 d="M 54.203125 25  L 15.484375 25  L 15.484375 24.609375  Q 15.484375 14.109375 19.4375 8.765625  Q 23.390625 3.421875 31.109375 3.421875  Q 37.015625 3.421875 40.796875 6.515625  Q 44.578125 9.625 46.09375 15.71875  L 53.328125 15.71875  Q 51.171875 7.171875 45.375 2.875  Q 39.59375 -1.421875 30.171875 -1.421875  Q 18.796875 -1.421875 11.890625 6.078125  Q 4.984375 13.578125 4.984375 25.984375  Q 4.984375 38.28125 11.765625 45.796875  Q 18.5625 53.328125 29.59375 53.328125  Q 41.359375 53.328125 47.65625 46.0625  Q 53.953125 38.8125 54.203125 25  z M 43.609375 30.171875  Q 43.3125 39.265625 39.765625 43.875  Q 36.234375 48.484375 29.59375 48.484375  Q 23.390625 48.484375 19.828125 43.84375  Q 16.265625 39.203125 15.484375 30.171875  z "
                 id="DejaVuSerif-101" />
            </defs>
            <use
               xlink:href="#DejaVuSerif-83"
               id="use14319" />
            <use
               x="68.505859"
               xlink:href="#DejaVuSerif-112"
               id="use14321" />
            <use
               x="132.519531"
               xlink:href="#DejaVuSerif-97"
               id="use14323" />
            <use
               x="192.138672"
               xlink:href="#DejaVuSerif-99"
               id="use14325" />
            <use
               x="248.144531"
               xlink:href="#DejaVuSerif-101"
               id="use14327" />
          </g>
        </g>
        <g
           id="ytick_1"
           style="stroke-linecap:butt;stroke-linejoin:round"
           transform="translate(-0.01198936,-6.8587165e-4)">
          <g
             id="line2d_304"
             style="stroke-linecap:butt;stroke-linejoin:round">
            <defs
               id="defs5597">
              <path
                 d="M 0,0 H -3.5"
                 id="path25087"
                 style="stroke:#000000;stroke-width:0.8" />
            </defs>
            <g
               id="g5601"
               style="stroke-linecap:butt;stroke-linejoin:round">
              <use
                 style="stroke:#000000;stroke-width:0.8;stroke-linecap:butt;stroke-linejoin:round"
                 x="57.599998"
                 xlink:href="#m93fa121516"
                 y="302.46646"
                 id="use5599" />
            </g>
          </g>
          <g
             id="text_2"
             style="stroke-linecap:butt;stroke-linejoin:round">
            <!-- 0.0 -->
            <g
               transform="matrix(0.1,0,0,-0.1,34.696875,306.26568)"
               id="g5614"
               style="stroke-linecap:butt;stroke-linejoin:round">
              <defs
                 id="defs5606">
                <path
                   d="m 31.78125,3.421875 q 7.484375,0 11.1875,8.203125 3.71875,8.203125 3.71875,24.75 0,16.609375 -3.71875,24.8125 -3.703125,8.203125 -11.1875,8.203125 -7.46875,0 -11.1875,-8.203125 -3.703125,-8.203125 -3.703125,-24.8125 0,-16.546875 3.703125,-24.75 3.71875,-8.203125 11.1875,-8.203125 z m 0,-4.84375 Q 19.921875,-1.421875 13.25,8.53125 6.59375,18.5 6.59375,36.375 q 0,17.921875 6.65625,27.875 6.671875,9.96875 18.53125,9.96875 11.921875,0 18.5625,-9.96875 6.640625,-9.953125 6.640625,-27.875 0,-17.875 -6.640625,-27.84375 -6.640625,-9.953125 -18.5625,-9.953125 z"
                   id="path25093" />
                <path
                   d="m 9.421875,5.078125 q 0,2.734375 1.859375,4.640625 1.859375,1.90625 4.640625,1.90625 2.6875,0 4.578125,-1.90625 1.90625,-1.90625 1.90625,-4.640625 0,-2.6875 -1.90625,-4.59375 -1.890625,-1.90625 -4.578125,-1.90625 -2.78125,0 -4.640625,1.875 -1.859375,1.890625 -1.859375,4.625 z"
                   id="path25095" />
              </defs>
              <use
                 xlink:href="#DejaVuSerif-48"
                 id="use5608"
                 style="stroke-linecap:butt;stroke-linejoin:round" />
              <use
                 x="63.623047"
                 xlink:href="#DejaVuSerif-46"
                 id="use5610"
                 style="stroke-linecap:butt;stroke-linejoin:round" />
              <use
                 x="95.410156"
                 xlink:href="#DejaVuSerif-48"
                 id="use5612"
                 style="stroke-linecap:butt;stroke-linejoin:round" />
            </g>
          </g>
        </g>
        <g
           id="ytick_2"
           style="stroke-linecap:butt;stroke-linejoin:round"
           transform="translate(-0.01198936,-6.8587165e-4)">
          <g
             id="line2d_306"
             style="stroke-linecap:butt;stroke-linejoin:round">
            <g
               id="g5623"
               style="stroke-linecap:butt;stroke-linejoin:round">
              <use
                 style="stroke:#000000;stroke-width:0.8;stroke-linecap:butt;stroke-linejoin:round"
                 x="57.599998"
                 xlink:href="#m93fa121516"
                 y="251.29108"
                 id="use5621" />
            </g>
          </g>
          <g
             id="text_3"
             style="stroke-linecap:butt;stroke-linejoin:round">
            <!-- 0.2 -->
            <g
               transform="matrix(0.1,0,0,-0.1,34.696875,255.0903)"
               id="g5635"
               style="stroke-linecap:butt;stroke-linejoin:round">
              <defs
                 id="defs5627">
                <path
                   d="M 12.796875,55.515625 H 7.328125 V 68.5 q 5.21875,2.796875 10.515625,4.25 5.296875,1.46875 10.375,1.46875 11.375,0 17.96875,-5.515625 6.59375,-5.515625 6.59375,-14.984375 0,-10.703125 -14.9375,-25.59375 Q 36.671875,27 36.078125,26.421875 L 17.671875,8.015625 H 48.09375 V 17 H 53.8125 V 0 H 6.78125 v 5.328125 l 22.125,22.0625 q 7.328125,7.328125 10.453125,13.453125 3.125,6.125 3.125,12.875 0,7.359375 -3.84375,11.515625 -3.828125,4.15625 -10.5625,4.15625 -6.984375,0 -10.796875,-3.46875 -3.796875,-3.46875 -4.484375,-10.40625 z"
                   id="path25107" />
              </defs>
              <use
                 xlink:href="#DejaVuSerif-48"
                 id="use5629"
                 style="stroke-linecap:butt;stroke-linejoin:round" />
              <use
                 x="63.623047"
                 xlink:href="#DejaVuSerif-46"
                 id="use5631"
                 style="stroke-linecap:butt;stroke-linejoin:round" />
              <use
                 x="95.410156"
                 xlink:href="#DejaVuSerif-50"
                 id="use5633"
                 style="stroke-linecap:butt;stroke-linejoin:round" />
            </g>
          </g>
        </g>
        <g
           id="ytick_3"
           style="stroke-linecap:butt;stroke-linejoin:round"
           transform="translate(-0.01198936,-6.8587165e-4)">
          <g
             id="line2d_308"
             style="stroke-linecap:butt;stroke-linejoin:round">
            <g
               id="g5644"
               style="stroke-linecap:butt;stroke-linejoin:round">
              <use
                 style="stroke:#000000;stroke-width:0.8;stroke-linecap:butt;stroke-linejoin:round"
                 x="57.599998"
                 xlink:href="#m93fa121516"
                 y="200.11569"
                 id="use5642" />
            </g>
          </g>
          <g
             id="text_4"
             style="stroke-linecap:butt;stroke-linejoin:round">
            <!-- 0.4 -->
            <g
               transform="matrix(0.1,0,0,-0.1,34.696875,203.91491)"
               id="g5656"
               style="stroke-linecap:butt;stroke-linejoin:round">
              <defs
                 id="defs5648">
                <path
                   d="m 34.90625,24.703125 v 38.78125 L 10.015625,24.703125 Z M 56.390625,0 H 23.1875 v 5.171875 h 11.71875 v 14.3125 H 3.078125 V 24.8125 l 31.9375,49.40625 h 9.65625 V 24.703125 H 58.59375 v -5.21875 H 44.671875 v -14.3125 h 11.71875 z"
                   id="path25119" />
              </defs>
              <use
                 xlink:href="#DejaVuSerif-48"
                 id="use5650"
                 style="stroke-linecap:butt;stroke-linejoin:round" />
              <use
                 x="63.623047"
                 xlink:href="#DejaVuSerif-46"
                 id="use5652"
                 style="stroke-linecap:butt;stroke-linejoin:round" />
              <use
                 x="95.410156"
                 xlink:href="#DejaVuSerif-52"
                 id="use5654"
                 style="stroke-linecap:butt;stroke-linejoin:round" />
            </g>
          </g>
        </g>
        <g
           id="ytick_4"
           style="stroke-linecap:butt;stroke-linejoin:round"
           transform="translate(-0.01198936,-6.8587165e-4)">
          <g
             id="line2d_310"
             style="stroke-linecap:butt;stroke-linejoin:round">
            <g
               id="g5665"
               style="stroke-linecap:butt;stroke-linejoin:round">
              <use
                 style="stroke:#000000;stroke-width:0.8;stroke-linecap:butt;stroke-linejoin:round"
                 x="57.599998"
                 xlink:href="#m93fa121516"
                 y="148.94031"
                 id="use5663" />
            </g>
          </g>
          <g
             id="text_5"
             style="stroke-linecap:butt;stroke-linejoin:round">
            <!-- 0.6 -->
            <g
               transform="matrix(0.1,0,0,-0.1,34.696875,152.73953)"
               id="g5677"
               style="stroke-linecap:butt;stroke-linejoin:round">
              <defs
                 id="defs5669">
                <path
                   d="m 32.71875,3.421875 q 6.875,0 10.578125,5.046875 3.71875,5.0625 3.71875,14.53125 0,9.46875 -3.71875,14.515625 -3.703125,5.0625 -10.578125,5.0625 -6.984375,0 -10.65625,-4.890625 -3.65625,-4.875 -3.65625,-14.109375 0,-9.703125 3.703125,-14.9375 3.71875,-5.21875 10.609375,-5.21875 z m -15.921875,36.71875 q 3.328125,3.65625 7.515625,5.453125 4.203125,1.8125 9.484375,1.8125 10.875,0 17.203125,-6.546875 Q 57.328125,34.328125 57.328125,23 q 0,-11.078125 -6.8125,-17.75 -6.8125,-6.671875 -18.1875,-6.671875 -12.359375,0 -19,9.203125 Q 6.6875,17 6.6875,34.078125 q 0,19.140625 7.859375,29.640625 7.859375,10.5 22.171875,10.5 3.859375,0 8.109375,-0.734375 4.25,-0.734375 8.6875,-2.1875 V 59.28125 H 48 q -0.59375,4.921875 -3.765625,7.515625 -3.171875,2.59375 -8.546875,2.59375 -9.46875,0 -14.109375,-7.1875 -4.640625,-7.171875 -4.78125,-22.0625 z"
                   id="path25131" />
              </defs>
              <use
                 xlink:href="#DejaVuSerif-48"
                 id="use5671"
                 style="stroke-linecap:butt;stroke-linejoin:round" />
              <use
                 x="63.623047"
                 xlink:href="#DejaVuSerif-46"
                 id="use5673"
                 style="stroke-linecap:butt;stroke-linejoin:round" />
              <use
                 x="95.410156"
                 xlink:href="#DejaVuSerif-54"
                 id="use5675"
                 style="stroke-linecap:butt;stroke-linejoin:round" />
            </g>
          </g>
        </g>
        <g
           id="ytick_5"
           style="stroke-linecap:butt;stroke-linejoin:round"
           transform="translate(-0.01198936,-6.8587165e-4)">
          <g
             id="line2d_312"
             style="stroke-linecap:butt;stroke-linejoin:round">
            <g
               id="g5686"
               style="stroke-linecap:butt;stroke-linejoin:round">
              <use
                 style="stroke:#000000;stroke-width:0.8;stroke-linecap:butt;stroke-linejoin:round"
                 x="57.599998"
                 xlink:href="#m93fa121516"
                 y="97.764923"
                 id="use5684" />
            </g>
          </g>
          <g
             id="text_6"
             style="stroke-linecap:butt;stroke-linejoin:round">
            <!-- 0.8 -->
            <g
               transform="matrix(0.1,0,0,-0.1,34.696875,101.56414)"
               id="g5698"
               style="stroke-linecap:butt;stroke-linejoin:round">
              <defs
                 id="defs5690">
                <path
                   d="m 46.578125,19.921875 q 0,7.8125 -3.890625,12.125 Q 38.8125,36.375 31.78125,36.375 24.75,36.375 20.875,32.046875 17,27.734375 17,19.921875 q 0,-7.859375 3.875,-12.1875 3.875,-4.3125 10.90625,-4.3125 7.03125,0 10.90625,4.3125 3.890625,4.328125 3.890625,12.1875 z m -2,35.40625 q 0,6.640625 -3.375,10.34375 -3.359375,3.71875 -9.421875,3.71875 -6,0 -9.390625,-3.71875 Q 19,61.96875 19,55.328125 q 0,-6.6875 3.390625,-10.40625 3.390625,-3.703125 9.390625,-3.703125 6.0625,0 9.421875,3.703125 3.375,3.71875 3.375,10.40625 z M 39.3125,38.8125 q 8.296875,-1.109375 12.9375,-6.125 4.640625,-5 4.640625,-12.765625 0,-10.25 -6.5,-15.796875 -6.5,-5.546875 -18.609375,-5.546875 -12.046875,0 -18.578125,5.546875 Q 6.6875,9.671875 6.6875,19.921875 6.6875,27.6875 11.328125,32.6875 15.96875,37.703125 24.3125,38.8125 16.9375,40.140625 13,44.40625 9.078125,48.6875 9.078125,55.328125 q 0,8.78125 6.046875,13.828125 6.0625,5.0625 16.65625,5.0625 10.609375,0 16.65625,-5.0625 Q 54.5,64.109375 54.5,55.328125 54.5,48.6875 50.5625,44.40625 46.625,40.140625 39.3125,38.8125 Z"
                   id="path25143" />
              </defs>
              <use
                 xlink:href="#DejaVuSerif-48"
                 id="use5692"
                 style="stroke-linecap:butt;stroke-linejoin:round" />
              <use
                 x="63.623047"
                 xlink:href="#DejaVuSerif-46"
                 id="use5694"
                 style="stroke-linecap:butt;stroke-linejoin:round" />
              <use
                 x="95.410156"
                 xlink:href="#DejaVuSerif-56"
                 id="use5696"
                 style="stroke-linecap:butt;stroke-linejoin:round" />
            </g>
          </g>
        </g>
        <g
           id="ytick_6"
           style="stroke-linecap:butt;stroke-linejoin:round"
           transform="translate(-0.01198936,-6.8587165e-4)">
          <g
             id="line2d_314"
             style="stroke-linecap:butt;stroke-linejoin:round">
            <g
               id="g5707"
               style="stroke-linecap:butt;stroke-linejoin:round">
              <use
                 style="stroke:#000000;stroke-width:0.8;stroke-linecap:butt;stroke-linejoin:round"
                 x="57.599998"
                 xlink:href="#m93fa121516"
                 y="46.589539"
                 id="use5705" />
            </g>
          </g>
          <g
             id="text_7"
             style="stroke-linecap:butt;stroke-linejoin:round">
            <!-- 1.0 -->
            <g
               transform="matrix(0.1,0,0,-0.1,34.696875,50.388757)"
               id="g5719"
               style="stroke-linecap:butt;stroke-linejoin:round">
              <defs
                 id="defs5711">
                <path
                   d="M 14.203125,0 V 5.171875 H 26.90625 v 60.65625 l -14.703125,-9.53125 v 6.40625 L 29.984375,74.21875 H 36.71875 V 5.171875 H 49.421875 V 0 Z"
                   id="path25155" />
              </defs>
              <use
                 xlink:href="#DejaVuSerif-49"
                 id="use5713"
                 style="stroke-linecap:butt;stroke-linejoin:round" />
              <use
                 x="63.623047"
                 xlink:href="#DejaVuSerif-46"
                 id="use5715"
                 style="stroke-linecap:butt;stroke-linejoin:round" />
              <use
                 x="95.410156"
                 xlink:href="#DejaVuSerif-48"
                 id="use5717"
                 style="stroke-linecap:butt;stroke-linejoin:round" />
            </g>
          </g>
        </g>
        <g
           id="patch_3-5"
           style="stroke-linecap:butt;stroke-linejoin:round"
           transform="translate(-0.01198936,-6.8587165e-4)">
          <path
             d="M 57.6,307.584 V 41.472"
             style="fill:none;stroke:#000000;stroke-width:0.8;stroke-linecap:square;stroke-linejoin:miter"
             id="path5762" />
        </g>
      </g>
      <g
         id="matplotlib.axis_2">
        <g
           id="text_17">
          <!-- Frequency -->
          <g
             transform="translate(26.919687 220.503703)rotate(-90)scale(0.17 -0.17)"
             id="g14482">
            <defs
               id="defs14462">
              <path
                 d="M 5.515625 0  L 5.515625 5.171875  L 14.796875 5.171875  L 14.796875 67.671875  L 5.515625 67.671875  L 5.515625 72.90625  L 65.1875 72.90625  L 65.1875 56.6875  L 59.1875 56.6875  L 59.1875 66.890625  L 24.703125 66.890625  L 24.703125 42.484375  L 49.609375 42.484375  L 49.609375 51.609375  L 55.609375 51.609375  L 55.609375 27.390625  L 49.609375 27.390625  L 49.609375 36.53125  L 24.703125 36.53125  L 24.703125 5.171875  L 36.375 5.171875  L 36.375 0  z "
                 id="DejaVuSerif-70" />
              <path
                 d="M 47.796875 52  L 47.796875 39.015625  L 42.625 39.015625  Q 42.390625 42.875 40.484375 44.78125  Q 38.578125 46.6875 34.90625 46.6875  Q 28.265625 46.6875 24.71875 42.09375  Q 21.1875 37.5 21.1875 28.90625  L 21.1875 5.171875  L 31.59375 5.171875  L 31.59375 0  L 4.109375 0  L 4.109375 5.171875  L 12.203125 5.171875  L 12.203125 46.78125  L 3.609375 46.78125  L 3.609375 51.90625  L 21.1875 51.90625  L 21.1875 42.671875  Q 23.828125 48.09375 27.96875 50.703125  Q 32.125 53.328125 38.09375 53.328125  Q 40.28125 53.328125 42.703125 52.984375  Q 45.125 52.640625 47.796875 52  z "
                 id="DejaVuSerif-114" />
              <path
                 d="M 52.484375 46.6875  L 52.484375 -15.578125  L 61.078125 -15.578125  L 61.078125 -20.796875  L 35.015625 -20.796875  L 35.015625 -15.578125  L 43.5 -15.578125  L 43.5 8.109375  Q 40.875 3.21875 36.796875 0.890625  Q 32.71875 -1.421875 26.703125 -1.421875  Q 17.140625 -1.421875 11.0625 6.171875  Q 4.984375 13.765625 4.984375 25.984375  Q 4.984375 38.1875 11.03125 45.75  Q 17.09375 53.328125 26.703125 53.328125  Q 32.71875 53.328125 36.796875 51  Q 40.875 48.6875 43.5 43.796875  L 43.5 51.90625  L 61.078125 51.90625  L 61.078125 46.6875  z M 43.5 28.515625  Q 43.5 37.84375 39.90625 42.765625  Q 36.328125 47.703125 29.5 47.703125  Q 22.5625 47.703125 19.015625 42.234375  Q 15.484375 36.765625 15.484375 25.984375  Q 15.484375 15.234375 19.015625 9.71875  Q 22.5625 4.203125 29.5 4.203125  Q 36.328125 4.203125 39.90625 9.109375  Q 43.5 14.015625 43.5 23.390625  z "
                 id="DejaVuSerif-113" />
              <path
                 d="M 35.40625 51.90625  L 52.203125 51.90625  L 52.203125 5.171875  L 60.6875 5.171875  L 60.6875 0  L 43.21875 0  L 43.21875 9.1875  Q 40.71875 4 36.765625 1.28125  Q 32.8125 -1.421875 27.59375 -1.421875  Q 18.953125 -1.421875 14.875 3.484375  Q 10.796875 8.40625 10.796875 18.890625  L 10.796875 46.6875  L 2.6875 46.6875  L 2.6875 51.90625  L 19.828125 51.90625  L 19.828125 21.6875  Q 19.828125 12.203125 22.140625 8.6875  Q 24.46875 5.171875 30.421875 5.171875  Q 36.671875 5.171875 39.9375 9.765625  Q 43.21875 14.359375 43.21875 23.09375  L 43.21875 46.6875  L 35.40625 46.6875  z "
                 id="DejaVuSerif-117" />
              <path
                 d="M 4.109375 0  L 4.109375 5.171875  L 12.203125 5.171875  L 12.203125 46.6875  L 3.609375 46.6875  L 3.609375 51.90625  L 21.1875 51.90625  L 21.1875 42.671875  Q 23.6875 47.953125 27.65625 50.640625  Q 31.640625 53.328125 36.921875 53.328125  Q 45.515625 53.328125 49.5625 48.390625  Q 53.609375 43.453125 53.609375 33.015625  L 53.609375 5.171875  L 61.625 5.171875  L 61.625 0  L 36.8125 0  L 36.8125 5.171875  L 44.578125 5.171875  L 44.578125 30.171875  Q 44.578125 39.703125 42.234375 43.234375  Q 39.890625 46.78125 33.984375 46.78125  Q 27.734375 46.78125 24.453125 42.203125  Q 21.1875 37.640625 21.1875 28.90625  L 21.1875 5.171875  L 29 5.171875  L 29 0  z "
                 id="DejaVuSerif-110" />
              <path
                 d="M 21.578125 -9.515625  L 25 -0.875  L 5.609375 46.6875  L -0.296875 46.6875  L -0.296875 51.90625  L 23.578125 51.90625  L 23.578125 46.6875  L 15.28125 46.6875  L 29.890625 10.984375  L 44.484375 46.6875  L 36.71875 46.6875  L 36.71875 51.90625  L 56.203125 51.90625  L 56.203125 46.6875  L 50.390625 46.6875  L 26.609375 -11.71875  Q 24.171875 -17.78125 21.1875 -20  Q 18.21875 -22.21875 12.796875 -22.21875  Q 10.5 -22.21875 8.078125 -21.828125  Q 5.671875 -21.4375 3.21875 -20.703125  L 3.21875 -10.796875  L 7.8125 -10.796875  Q 8.109375 -14.109375 9.5 -15.546875  Q 10.890625 -17 13.8125 -17  Q 16.5 -17 18.140625 -15.5  Q 19.78125 -14.015625 21.578125 -9.515625  z "
                 id="DejaVuSerif-121" />
            </defs>
            <use
               xlink:href="#DejaVuSerif-70"
               id="use14464" />
            <use
               x="69.384766"
               xlink:href="#DejaVuSerif-114"
               id="use14466" />
            <use
               x="117.1875"
               xlink:href="#DejaVuSerif-101"
               id="use14468" />
            <use
               x="176.367188"
               xlink:href="#DejaVuSerif-113"
               id="use14470" />
            <use
               x="240.380859"
               xlink:href="#DejaVuSerif-117"
               id="use14472" />
            <use
               x="304.785156"
               xlink:href="#DejaVuSerif-101"
               id="use14474" />
            <use
               x="363.964844"
               xlink:href="#DejaVuSerif-110"
               id="use14476" />
            <use
               x="428.369141"
               xlink:href="#DejaVuSerif-99"
               id="use14478" />
            <use
               x="484.375"
               xlink:href="#DejaVuSerif-121"
               id="use14480" />
          </g>
        </g>
      </g>
      <g
         id="line2d_31">
        <path
           clip-path="url(#p01db18798f)"
           d="M 73.832727 302.466462  L 219.927273 302.466462  L 220.0896 46.589538  L 252.392727 46.589538  L 252.555055 302.466462  L 398.487273 302.466462  L 398.487273 302.466462  "
           style="fill:none;stroke:#9acd32;stroke-linecap:square;stroke-width:3;"
           id="path14486" />
      </g>
      <g
         id="line2d_32">
        <path
           clip-path="url(#p01db18798f)"
           d="M 73.832727 302.466462  L 219.927273 302.466462  L 220.0896 46.589538  L 252.392727 46.589538  L 252.555055 302.466462  L 398.487273 302.466462  L 398.487273 302.466462  "
           style="fill:none;stroke:#ffa500;stroke-linecap:square;stroke-width:3;"
           id="path14489" />
      </g>
      <g
         id="line2d_33">
        <path
           clip-path="url(#p01db18798f)"
           d="M 73.832727 302.466462  L 219.927273 302.466462  L 220.0896 46.589538  L 252.392727 46.589538  L 252.555055 302.466462  L 398.487273 302.466462  L 398.487273 302.466462  "
           style="fill:none;stroke:#ff1493;stroke-linecap:square;stroke-width:3;"
           id="path14492" />
      </g>
      <g
         id="patch_3">
        <path
           d="M 57.6 307.584  L 57.6 41.472  "
           style="fill:none;stroke:#000000;stroke-linecap:square;stroke-linejoin:miter;stroke-width:0.8;"
           id="path14495" />
      </g>
      <g
         id="patch_4">
        <path
           d="M 414.72 307.584  L 414.72 41.472  "
           style="fill:none;stroke:#000000;stroke-linecap:square;stroke-linejoin:miter;stroke-width:0.8;"
           id="path14498" />
      </g>
      <g
         id="patch_5">
        <path
           d="M 57.6 307.584  L 414.72 307.584  "
           style="fill:none;stroke:#000000;stroke-linecap:square;stroke-linejoin:miter;stroke-width:0.8;"
           id="path14501" />
      </g>
      <g
         id="patch_6">
        <path
           d="M 57.6 41.472  L 414.72 41.472  "
           style="fill:none;stroke:#000000;stroke-linecap:square;stroke-linejoin:miter;stroke-width:0.8;"
           id="path14504" />
      </g>
      <g
         id="text_18">
        <!-- t = 0 -->
        <g
           transform="translate(377.044219 35.472)scale(0.15 -0.15)"
           id="g14522">
          <defs
             id="defs14510">
            <path
               d="M 10.796875 46.6875  L 2.875 46.6875  L 2.875 51.90625  L 10.796875 51.90625  L 10.796875 68.015625  L 19.828125 68.015625  L 19.828125 51.90625  L 36.71875 51.90625  L 36.71875 46.6875  L 19.828125 46.6875  L 19.828125 13.71875  Q 19.828125 7.125 21.09375 5.265625  Q 22.359375 3.421875 25.78125 3.421875  Q 29.296875 3.421875 30.90625 5.484375  Q 32.515625 7.5625 32.625 12.203125  L 39.40625 12.203125  Q 39.015625 5.125 35.546875 1.84375  Q 32.078125 -1.421875 25 -1.421875  Q 17.234375 -1.421875 14.015625 2.015625  Q 10.796875 5.46875 10.796875 13.71875  z "
               id="DejaVuSerif-116" />
            <path
               id="DejaVuSerif-32" />
            <path
               d="M 10.59375 45.21875  L 73.1875 45.21875  L 73.1875 37.40625  L 10.59375 37.40625  z M 10.59375 25.296875  L 73.1875 25.296875  L 73.1875 17.484375  L 10.59375 17.484375  z "
               id="DejaVuSerif-61" />
          </defs>
          <use
             xlink:href="#DejaVuSerif-116"
             id="use14512" />
          <use
             x="40.185547"
             xlink:href="#DejaVuSerif-32"
             id="use14514" />
          <use
             x="71.972656"
             xlink:href="#DejaVuSerif-61"
             id="use14516" />
          <use
             x="155.761719"
             xlink:href="#DejaVuSerif-32"
             id="use14518" />
          <path
             d="m 219.33008,3.421875 q 7.48437,0 11.1875,8.203125 3.71875,8.203125 3.71875,24.75 0,16.609375 -3.71875,24.8125 -3.70313,8.203125 -11.1875,8.203125 -7.46875,0 -11.1875,-8.203125 -3.70313,-8.203125 -3.70313,-24.8125 0,-16.546875 3.70313,-24.75 3.71875,-8.203125 11.1875,-8.203125 z m 0,-4.84375 q -11.85938,0 -18.53125,9.953125 -6.65625,9.96875 -6.65625,27.84375 0,17.921875 6.65625,27.875 6.67187,9.96875 18.53125,9.96875 11.92187,0 18.5625,-9.96875 6.64062,-9.953125 6.64062,-27.875 0,-17.875 -6.64062,-27.84375 -6.64063,-9.953125 -18.5625,-9.953125 z"
             id="use14520" />
        </g>
      </g>
      <g
         id="legend_1"
         style="stroke-linecap:butt;stroke-linejoin:round"
         transform="translate(-1.9034976,-0.810682)">
        <g
           id="patch_7"
           style="stroke-linecap:butt;stroke-linejoin:round">
          <path
             d="m 317.88,103.91325 h 88.44 q 2.4,0 2.4,-2.4 V 49.872 q 0,-2.4 -2.4,-2.4 h -88.44 q -2.4,0 -2.4,2.4 v 51.64125 q 0,2.4 2.4,2.4 z"
             style="opacity:0.8;fill:#ffffff;stroke:#cccccc;stroke-linecap:butt;stroke-linejoin:miter"
             id="path4547" />
        </g>
        <g
           id="line2d_816"
           style="stroke-linecap:butt;stroke-linejoin:round">
          <path
             d="m 320.28,57.190125 h 24"
             style="fill:none;stroke:#9acd32;stroke-width:3;stroke-linecap:square;stroke-linejoin:round"
             id="path4550" />
        </g>
        <g
           id="line2d_817"
           style="stroke-linecap:butt;stroke-linejoin:round" />
        <g
           id="text_10-3"
           style="stroke-linecap:butt;stroke-linejoin:round">
          <!-- $X_A$ -->
          <g
             transform="matrix(0.12,0,0,-0.12,353.88,61.390125)"
             id="g4562"
             style="stroke-linecap:butt;stroke-linejoin:round">
            <defs
               id="defs4556">
              <path
                 d="m 13.71875,72.90625 h 9.96875 l 12.5,-26.328125 22.609375,26.328125 H 70.3125 L 40.28125,38.09375 58.40625,0 H 48.484375 L 33.796875,30.71875 7.171875,0 H -4.296875 L 29.78125,39.203125 Z"
                 id="path30717" />
              <path
                 d="M 36.8125,72.90625 H 48 L 61.53125,0 H 51.21875 L 48.1875,18.703125 H 15.375 L 5.078125,0 H -5.328125 Z M 40.375,63.1875 19.921875,26.90625 H 46.6875 Z"
                 id="path30719" />
            </defs>
            <path
               d="M 13.71875,73 H 23.6875 L 36.1875,46.671875 58.796875,73 H 70.3125 L 40.28125,38.1875 58.40625,0.09375 H 48.484375 L 33.796875,30.8125 7.171875,0.09375 H -4.296875 L 29.78125,39.296875 Z"
               id="use4558"
               style="stroke-linecap:butt;stroke-linejoin:round" />
            <path
               d="m 94.274609,34.721875 h 7.831251 l 9.47187,-51.034375 h -7.21875 l -2.12187,13.0921875 H 79.268359 L 72.060546,-16.3125 H 64.776172 Z M 96.768359,27.91875 82.451171,2.521875 h 18.735939 z"
               id="use4560"
               style="stroke-width:0.7;stroke-linecap:butt;stroke-linejoin:round" />
          </g>
        </g>
        <g
           id="line2d_818"
           style="stroke-linecap:butt;stroke-linejoin:round">
          <path
             d="m 320.28,74.803875 h 24"
             style="fill:none;stroke:#ffa500;stroke-width:3;stroke-linecap:square;stroke-linejoin:round"
             id="path4565" />
        </g>
        <g
           id="line2d_819"
           style="stroke-linecap:butt;stroke-linejoin:round" />
        <g
           id="text_11-6"
           style="stroke-linecap:butt;stroke-linejoin:round">
          <!-- $X_B$ -->
          <g
             transform="matrix(0.12,0,0,-0.12,353.88,79.003875)"
             id="g4576"
             style="stroke-linecap:butt;stroke-linejoin:round">
            <defs
               id="defs4570">
              <path
                 d="M 16.890625,72.90625 H 42.09375 q 10.25,0 15.328125,-3.8125 Q 62.5,65.28125 62.5,57.625 62.5,50.59375 58.125,45.484375 53.765625,40.375 46.6875,39.3125 q 6.046875,-1.375 9.078125,-5.234375 3.03125,-3.859375 3.03125,-10.296875 0,-10.984375 -8.140625,-17.390625 Q 42.53125,0 28.421875,0 H 2.6875 Z M 19.28125,34.8125 14.109375,8.109375 h 15.875 q 8.9375,0 13.765625,4.09375 4.828125,4.109375 4.828125,11.578125 0,5.765625 -3.203125,8.390625 Q 42.1875,34.8125 35.109375,34.8125 Z m 5.8125,29.984375 -4.296875,-21.96875 H 35.5 q 7.859375,0 12.28125,3.40625 4.421875,3.421875 4.421875,9.484375 0,4.734375 -2.984375,6.90625 -2.984375,2.171875 -9.515625,2.171875 z"
                 id="path30729" />
            </defs>
            <path
               d="M 13.71875,73 H 23.6875 L 36.1875,46.671875 58.796875,73 H 70.3125 L 40.28125,38.1875 58.40625,0.09375 H 48.484375 L 33.796875,30.8125 7.171875,0.09375 H -4.296875 L 29.78125,39.296875 Z"
               id="use4572"
               style="stroke-linecap:butt;stroke-linejoin:round" />
            <path
               d="m 80.329296,34.721875 h 17.642188 q 7.174996,0 10.729686,-2.66875 3.55469,-2.66875 3.55469,-8.028125 0,-4.921875 -3.0625,-8.498438 -3.05156,-3.576562 -8.00625,-4.320312 4.23281,-0.9625 6.35469,-3.6640625 2.12187,-2.7015625 2.12187,-7.2078125 0,-7.6890625 -5.69844,-12.173438 Q 98.277734,-16.3125 88.401172,-16.3125 H 70.387109 Z M 82.002734,8.05625 78.382421,-10.635938 h 11.112501 q 6.256249,0 9.635937,2.8656255 3.379691,2.8765625 3.379691,8.1046875 0,4.0359375 -2.24219,5.8734375 Q 98.037109,8.05625 93.082421,8.05625 Z m 4.06875,20.989062 -3.007813,-15.378125 h 10.292188 q 5.501562,0 8.596871,2.384375 3.09532,2.395313 3.09532,6.639063 0,3.314062 -2.08907,4.834375 -2.08906,1.520312 -6.660934,1.520312 z"
               id="use4574"
               style="stroke-width:0.7;stroke-linecap:butt;stroke-linejoin:round" />
          </g>
        </g>
        <g
           id="line2d_820"
           style="stroke-linecap:butt;stroke-linejoin:round">
          <path
             d="m 320.28,92.417625 h 24"
             style="fill:none;stroke:#ff1493;stroke-width:3;stroke-linecap:square;stroke-linejoin:round"
             id="path4579" />
        </g>
        <g
           id="line2d_821"
           style="stroke-linecap:butt;stroke-linejoin:round" />
        <g
           id="text_12-7"
           style="stroke-linecap:butt;stroke-linejoin:round">
          <!-- $X_C$ or $X_D$ -->
          <g
             transform="matrix(0.12,0,0,-0.12,353.88,96.617625)"
             id="g4604"
             style="stroke-linecap:butt;stroke-linejoin:round">
            <defs
               id="defs4586">
              <path
                 d="m 69.484375,67.28125 -2,-10.390625 q -4.6875,4.734375 -9.9375,7.03125 -5.25,2.296875 -11.359375,2.296875 -8.34375,0 -14.671875,-4.015625 -6.3125,-4 -10.90625,-12.203125 Q 17.671875,44.734375 16.125,38.84375 14.59375,32.953125 14.59375,27 14.59375,17.046875 19.75,11.8125 24.90625,6.59375 34.71875,6.59375 41.5,6.59375 47.75,8.765625 54,10.9375 59.90625,15.28125 L 57.625,3.609375 q -5.8125,-2.484375 -11.75,-3.75 -5.9375,-1.28125 -11.890625,-1.28125 -14.015625,0 -21.90625,7.609375 -7.875,7.625 -7.875,21.203125 0,8.6875 3,17.078125 3,8.40625 8.625,15.34375 5.953125,7.375 13.59375,10.890625 7.640625,3.515625 17.796875,3.515625 6.25,0 11.84375,-1.734375 Q 64.65625,70.75 69.484375,67.28125 Z"
                 id="path30739" />
              <path
                 d="m 30.078125,3.421875 q 7.234375,0 10.90625,5.703125 3.6875,5.71875 3.6875,16.859375 0,11.125 -3.6875,16.8125 -3.671875,5.6875 -10.90625,5.6875 -7.21875,0 -10.90625,-5.6875 -3.6875,-5.6875 -3.6875,-16.8125 0,-11.140625 3.703125,-16.859375 3.71875,-5.703125 10.890625,-5.703125 z m 0,-4.84375 q -11.328125,0 -18.21875,7.5 -6.875,7.5 -6.875,19.90625 0,12.390625 6.859375,19.859375 6.859375,7.484375 18.234375,7.484375 11.375,0 18.234375,-7.484375 6.859375,-7.46875 6.859375,-19.859375 0,-12.40625 -6.859375,-19.90625 -6.859375,-7.5 -18.234375,-7.5 z"
                 id="path30741" />
              <path
                 d="M 16.890625,72.90625 H 38.09375 q 16.890625,0 25.5,-7.15625 8.625,-7.15625 8.625,-21.265625 0,-9.328125 -3.28125,-17.953125 Q 65.671875,17.921875 59.90625,12.015625 54.109375,5.953125 45.171875,2.96875 36.234375,0 24.03125,0 H 2.6875 Z m 8.3125,-8.109375 -11,-56.6875 H 27.09375 q 16.5625,0 25.640625,9.515625 9.078125,9.53125 9.078125,26.859375 0,10.5 -5.859375,15.40625 -5.859375,4.90625 -18.359375,4.90625 z"
                 id="path30743" />
            </defs>
            <path
               d="M 13.71875,73 H 23.6875 L 36.1875,46.671875 58.796875,73 H 70.3125 L 40.28125,38.1875 58.40625,0.09375 H 48.484375 L 33.796875,30.8125 7.171875,0.09375 H -4.296875 L 29.78125,39.296875 Z"
               id="use4588"
               style="stroke-linecap:butt;stroke-linejoin:round" />
            <path
               d="m 117.14492,30.784375 -1.4,-7.273438 q -3.28125,3.314063 -6.95625,4.921875 -3.675,1.607813 -7.95156,1.607813 -5.840626,0 -10.270314,-2.810938 -4.41875,-2.8 -7.634374,-8.542187 -2.056251,-3.685938 -3.139063,-7.809375 -1.071875,-4.1234375 -1.071875,-8.290625 0,-6.9671875 3.609375,-10.63125 3.609375,-3.653125 10.478125,-3.653125 4.746875,0 9.121876,1.520313 4.375,1.520312 8.50937,4.560937 l -1.59687,-8.170312 q -4.06875,-1.739063 -8.225,-2.625 -4.156251,-0.896875 -8.323439,-0.896875 -9.810937,0 -15.334375,5.326562 -5.512499,5.3375 -5.512499,14.8421875 0,6.08125 2.099999,11.9546875 2.100001,5.884375 6.0375,10.740625 4.167188,5.1625 9.515625,7.623437 5.348438,2.460938 12.457809,2.460938 4.375,0 8.29063,-1.214063 3.91562,-1.214062 7.29531,-3.642187 z"
               id="use4590"
               style="stroke-width:0.7;stroke-linecap:butt;stroke-linejoin:round" />
            <use
               transform="translate(120.11719,0.09375)"
               xlink:href="#DejaVuSerif-32"
               id="use4592"
               style="stroke-linecap:butt;stroke-linejoin:round" />
            <path
               d="m 181.98242,3.515625 q 7.23438,0 10.90625,5.703125 3.6875,5.71875 3.6875,16.859375 0,11.125 -3.6875,16.8125 -3.67187,5.6875 -10.90625,5.6875 -7.21875,0 -10.90625,-5.6875 -3.6875,-5.6875 -3.6875,-16.8125 0,-11.140625 3.70313,-16.859375 3.71875,-5.703125 10.89062,-5.703125 z m 0,-4.84375 q -11.32812,0 -18.21875,7.5 -6.875,7.5 -6.875,19.90625 0,12.390625 6.85938,19.859375 6.85937,7.484375 18.23437,7.484375 11.375,0 18.23438,-7.484375 6.85937,-7.46875 6.85937,-19.859375 0,-12.40625 -6.85937,-19.90625 -6.85938,-7.5 -18.23438,-7.5 z"
               id="use4594"
               style="stroke-linecap:butt;stroke-linejoin:round" />
            <use
               transform="translate(212.10937,0.09375)"
               xlink:href="#DejaVuSerif-114"
               id="use4596"
               style="stroke-linecap:butt;stroke-linejoin:round" />
            <use
               transform="translate(259.91211,0.09375)"
               xlink:href="#DejaVuSerif-32"
               id="use4598"
               style="stroke-linecap:butt;stroke-linejoin:round" />
            <path
               d="m 305.41797,73 h 9.96875 l 12.5,-26.328125 L 350.4961,73 h 11.51562 L 331.98047,38.1875 350.10547,0.09375 H 340.1836 L 325.4961,30.8125 298.8711,0.09375 h -11.46875 l 34.07812,39.203125 z"
               id="use4600"
               style="stroke-linecap:butt;stroke-linejoin:round" />
            <path
               d="m 372.02852,34.721875 h 14.84218 q 11.82344,0 17.85,-5.009375 6.0375,-5.009375 6.0375,-14.885938 0,-6.529687 -2.29687,-12.567187 -2.28594,-6.0265625 -6.32188,-10.1609375 -4.05781,-4.2437495 -10.31406,-6.3328125 -6.25625,-2.078125 -14.79844,-2.078125 h -14.94062 z m 5.81875,-5.676563 -7.7,-39.68125 h 9.02343 q 11.59375,0 17.94844,6.660938 6.35469,6.671875 6.35469,18.801562 0,7.35 -4.10156,10.784375 -4.10156,3.434375 -12.85156,3.434375 z"
               id="use4602"
               style="stroke-width:0.7;stroke-linecap:butt;stroke-linejoin:round" />
          </g>
        </g>
      </g>
    </g>
  </g>
  <defs
     id="defs14585">
    <clipPath
       id="p01db18798f">
      <rect
         height="266.112"
         width="357.12"
         x="57.6"
         y="41.472"
         id="rect14582" />
    </clipPath>
  </defs>
</svg>
