<?xml version="1.0" encoding="UTF-8" standalone="no"?>
<!-- Created with matplotlib (https://matplotlib.org/) -->

<svg
   height="345.6pt"
   version="1.1"
   viewBox="0 0 460.8 345.6"
   width="460.8pt"
   id="svg5126"
   sodipodi:docname="sp35_o_t_1200.svg"
   inkscape:version="1.2.2 (732a01da63, 2022-12-09, custom)"
   xmlns:inkscape="http://www.inkscape.org/namespaces/inkscape"
   xmlns:sodipodi="http://sodipodi.sourceforge.net/DTD/sodipodi-0.dtd"
   xmlns:xlink="http://www.w3.org/1999/xlink"
   xmlns="http://www.w3.org/2000/svg"
   xmlns:svg="http://www.w3.org/2000/svg"
   xmlns:rdf="http://www.w3.org/1999/02/22-rdf-syntax-ns#"
   xmlns:cc="http://creativecommons.org/ns#"
   xmlns:dc="http://purl.org/dc/elements/1.1/">
  <sodipodi:namedview
     id="namedview5128"
     pagecolor="#ffffff"
     bordercolor="#666666"
     borderopacity="1.0"
     inkscape:showpageshadow="2"
     inkscape:pageopacity="0.0"
     inkscape:pagecheckerboard="0"
     inkscape:deskcolor="#d1d1d1"
     inkscape:document-units="pt"
     showgrid="false"
     inkscape:zoom="1.6140443"
     inkscape:cx="292.43311"
     inkscape:cy="198.56951"
     inkscape:window-width="1853"
     inkscape:window-height="1018"
     inkscape:window-x="67"
     inkscape:window-y="34"
     inkscape:window-maximized="1"
     inkscape:current-layer="figure_1" />
  <metadata
     id="metadata4667">
    <rdf:RDF>
      <cc:Work>
        <dc:type
           rdf:resource="http://purl.org/dc/dcmitype/StillImage" />
        <dc:date>2022-08-27T15:25:19.848073</dc:date>
        <dc:format>image/svg+xml</dc:format>
        <dc:creator>
          <cc:Agent>
            <dc:title>Matplotlib v3.3.4, https://matplotlib.org/</dc:title>
          </cc:Agent>
        </dc:creator>
      </cc:Work>
    </rdf:RDF>
  </metadata>
  <defs
     id="defs4671">
    <style
       type="text/css"
       id="style4669">*{stroke-linecap:butt;stroke-linejoin:round;}</style>
    <path
       d="M 10.796875,46.6875 H 2.875 v 5.21875 h 7.921875 v 16.109375 h 9.03125 V 51.90625 H 36.71875 V 46.6875 H 19.828125 V 13.71875 q 0,-6.59375 1.265625,-8.453125 1.265625,-1.84375 4.6875,-1.84375 3.515625,0 5.125,2.0625 1.609375,2.078125 1.71875,6.71875 h 6.78125 Q 39.015625,5.125 35.546875,1.84375 32.078125,-1.421875 25,-1.421875 q -7.765625,0 -10.984375,3.4375 -3.21875,3.453125 -3.21875,11.703125 z"
       id="DejaVuSerif-116" />
    <path
       id="DejaVuSerif-32"
       d="" />
    <path
       d="M 10.59375,45.21875 H 73.1875 v -7.8125 H 10.59375 Z m 0,-19.921875 H 73.1875 v -7.8125 H 10.59375 Z"
       id="DejaVuSerif-61" />
    <path
       d="m 69.484375,67.28125 -2,-10.390625 q -4.6875,4.734375 -9.9375,7.03125 -5.25,2.296875 -11.359375,2.296875 -8.34375,0 -14.671875,-4.015625 -6.3125,-4 -10.90625,-12.203125 Q 17.671875,44.734375 16.125,38.84375 14.59375,32.953125 14.59375,27 14.59375,17.046875 19.75,11.8125 24.90625,6.59375 34.71875,6.59375 41.5,6.59375 47.75,8.765625 54,10.9375 59.90625,15.28125 L 57.625,3.609375 q -5.8125,-2.484375 -11.75,-3.75 -5.9375,-1.28125 -11.890625,-1.28125 -14.015625,0 -21.90625,7.609375 -7.875,7.625 -7.875,21.203125 0,8.6875 3,17.078125 3,8.40625 8.625,15.34375 5.953125,7.375 13.59375,10.890625 7.640625,3.515625 17.796875,3.515625 6.25,0 11.84375,-1.734375 Q 64.65625,70.75 69.484375,67.28125 Z"
       id="DejaVuSans-Oblique-67" />
    <path
       d="m 30.078125,3.421875 q 7.234375,0 10.90625,5.703125 3.6875,5.71875 3.6875,16.859375 0,11.125 -3.6875,16.8125 -3.671875,5.6875 -10.90625,5.6875 -7.21875,0 -10.90625,-5.6875 -3.6875,-5.6875 -3.6875,-16.8125 0,-11.140625 3.703125,-16.859375 3.71875,-5.703125 10.890625,-5.703125 z m 0,-4.84375 q -11.328125,0 -18.21875,7.5 -6.875,7.5 -6.875,19.90625 0,12.390625 6.859375,19.859375 6.859375,7.484375 18.234375,7.484375 11.375,0 18.234375,-7.484375 6.859375,-7.46875 6.859375,-19.859375 0,-12.40625 -6.859375,-19.90625 -6.859375,-7.5 -18.234375,-7.5 z"
       id="DejaVuSerif-111" />
    <path
       d="M 16.890625,72.90625 H 38.09375 q 16.890625,0 25.5,-7.15625 8.625,-7.15625 8.625,-21.265625 0,-9.328125 -3.28125,-17.953125 Q 65.671875,17.921875 59.90625,12.015625 54.109375,5.953125 45.171875,2.96875 36.234375,0 24.03125,0 H 2.6875 Z m 8.3125,-8.109375 -11,-56.6875 H 27.09375 q 16.5625,0 25.640625,9.515625 9.078125,9.53125 9.078125,26.859375 0,10.5 -5.859375,15.40625 -5.859375,4.90625 -18.359375,4.90625 z"
       id="DejaVuSans-Oblique-68" />
  </defs>
  <g
     id="figure_1">
    <g
       id="patch_1">
      <path
         d="M 0 345.6  L 460.8 345.6  L 460.8 0  L 0 0  z "
         style="fill:#ffffff;"
         id="path4673" />
    </g>
    <g
       id="axes_1">
      <g
         id="patch_2">
        <path
           d="M 57.6 307.584  L 414.72 307.584  L 414.72 41.472  L 57.6 41.472  z "
           style="fill:#ffffff;"
           id="path4676" />
      </g>
      <g
         id="matplotlib.axis_1">
        <g
           id="xtick_1">
          <g
             id="line2d_1">
            <path
               clip-path="url(#p321cd71643)"
               d="M 73.832727 307.584  L 73.832727 41.472  "
               style="fill:none;stroke:#b0b0b0;stroke-linecap:square;stroke-width:0.8;"
               id="path4679" />
          </g>
          <g
             id="line2d_2">
            <defs
               id="defs4683">
              <path
                 d="M 0 0  L 0 3.5  "
                 id="mb19e58338d"
                 style="stroke:#000000;stroke-width:0.8;" />
            </defs>
            <g
               id="g4687">
              <use
                 style="stroke:#000000;stroke-width:0.8;"
                 x="73.832727"
                 xlink:href="#mb19e58338d"
                 y="307.584"
                 id="use4685" />
            </g>
          </g>
          <g
             id="text_1">
            <!-- 0 -->
            <g
               transform="translate(70.651477 322.182437)scale(0.1 -0.1)"
               id="g4695">
              <defs
                 id="defs4691">
                <path
                   d="M 31.78125 3.421875  Q 39.265625 3.421875 42.96875 11.625  Q 46.6875 19.828125 46.6875 36.375  Q 46.6875 52.984375 42.96875 61.1875  Q 39.265625 69.390625 31.78125 69.390625  Q 24.3125 69.390625 20.59375 61.1875  Q 16.890625 52.984375 16.890625 36.375  Q 16.890625 19.828125 20.59375 11.625  Q 24.3125 3.421875 31.78125 3.421875  z M 31.78125 -1.421875  Q 19.921875 -1.421875 13.25 8.53125  Q 6.59375 18.5 6.59375 36.375  Q 6.59375 54.296875 13.25 64.25  Q 19.921875 74.21875 31.78125 74.21875  Q 43.703125 74.21875 50.34375 64.25  Q 56.984375 54.296875 56.984375 36.375  Q 56.984375 18.5 50.34375 8.53125  Q 43.703125 -1.421875 31.78125 -1.421875  z "
                   id="DejaVuSerif-48" />
              </defs>
              <use
                 xlink:href="#DejaVuSerif-48"
                 id="use4693" />
            </g>
          </g>
        </g>
        <g
           id="xtick_2">
          <g
             id="line2d_3">
            <path
               clip-path="url(#p321cd71643)"
               d="M 114.414545 307.584  L 114.414545 41.472  "
               style="fill:none;stroke:#b0b0b0;stroke-linecap:square;stroke-width:0.8;"
               id="path4699" />
          </g>
          <g
             id="line2d_4">
            <g
               id="g4704">
              <use
                 style="stroke:#000000;stroke-width:0.8;"
                 x="114.414545"
                 xlink:href="#mb19e58338d"
                 y="307.584"
                 id="use4702" />
            </g>
          </g>
          <g
             id="text_2">
            <!-- 25 -->
            <g
               transform="translate(108.052045 322.182437)scale(0.1 -0.1)"
               id="g4715">
              <defs
                 id="defs4709">
                <path
                   d="M 12.796875 55.515625  L 7.328125 55.515625  L 7.328125 68.5  Q 12.546875 71.296875 17.84375 72.75  Q 23.140625 74.21875 28.21875 74.21875  Q 39.59375 74.21875 46.1875 68.703125  Q 52.78125 63.1875 52.78125 53.71875  Q 52.78125 43.015625 37.84375 28.125  Q 36.671875 27 36.078125 26.421875  L 17.671875 8.015625  L 48.09375 8.015625  L 48.09375 17  L 53.8125 17  L 53.8125 0  L 6.78125 0  L 6.78125 5.328125  L 28.90625 27.390625  Q 36.234375 34.71875 39.359375 40.84375  Q 42.484375 46.96875 42.484375 53.71875  Q 42.484375 61.078125 38.640625 65.234375  Q 34.8125 69.390625 28.078125 69.390625  Q 21.09375 69.390625 17.28125 65.921875  Q 13.484375 62.453125 12.796875 55.515625  z "
                   id="DejaVuSerif-50" />
                <path
                   d="M 50.296875 72.90625  L 50.296875 64.890625  L 16.890625 64.890625  L 16.890625 44  Q 19.4375 45.75 22.828125 46.625  Q 26.21875 47.515625 30.421875 47.515625  Q 42.234375 47.515625 49.0625 40.96875  Q 55.90625 34.421875 55.90625 23.09375  Q 55.90625 11.53125 49 5.046875  Q 42.09375 -1.421875 29.59375 -1.421875  Q 24.5625 -1.421875 19.28125 -0.1875  Q 14.015625 1.03125 8.5 3.515625  L 8.5 17.671875  L 14.015625 17.671875  Q 14.453125 10.75 18.421875 7.078125  Q 22.40625 3.421875 29.59375 3.421875  Q 37.3125 3.421875 41.453125 8.5  Q 45.609375 13.578125 45.609375 23.09375  Q 45.609375 32.5625 41.484375 37.609375  Q 37.359375 42.671875 29.59375 42.671875  Q 25.203125 42.671875 21.84375 41.109375  Q 18.5 39.546875 15.921875 36.28125  L 11.71875 36.28125  L 11.71875 72.90625  z "
                   id="DejaVuSerif-53" />
              </defs>
              <use
                 xlink:href="#DejaVuSerif-50"
                 id="use4711" />
              <use
                 x="63.623047"
                 xlink:href="#DejaVuSerif-53"
                 id="use4713" />
            </g>
          </g>
        </g>
        <g
           id="xtick_3">
          <g
             id="line2d_5">
            <path
               clip-path="url(#p321cd71643)"
               d="M 154.996364 307.584  L 154.996364 41.472  "
               style="fill:none;stroke:#b0b0b0;stroke-linecap:square;stroke-width:0.8;"
               id="path4719" />
          </g>
          <g
             id="line2d_6">
            <g
               id="g4724">
              <use
                 style="stroke:#000000;stroke-width:0.8;"
                 x="154.996364"
                 xlink:href="#mb19e58338d"
                 y="307.584"
                 id="use4722" />
            </g>
          </g>
          <g
             id="text_3">
            <!-- 50 -->
            <g
               transform="translate(148.633864 322.182437)scale(0.1 -0.1)"
               id="g4731">
              <use
                 xlink:href="#DejaVuSerif-53"
                 id="use4727" />
              <use
                 x="63.623047"
                 xlink:href="#DejaVuSerif-48"
                 id="use4729" />
            </g>
          </g>
        </g>
        <g
           id="xtick_4">
          <g
             id="line2d_7">
            <path
               clip-path="url(#p321cd71643)"
               d="M 195.578182 307.584  L 195.578182 41.472  "
               style="fill:none;stroke:#b0b0b0;stroke-linecap:square;stroke-width:0.8;"
               id="path4735" />
          </g>
          <g
             id="line2d_8">
            <g
               id="g4740">
              <use
                 style="stroke:#000000;stroke-width:0.8;"
                 x="195.578182"
                 xlink:href="#mb19e58338d"
                 y="307.584"
                 id="use4738" />
            </g>
          </g>
          <g
             id="text_4">
            <!-- 75 -->
            <g
               transform="translate(189.215682 322.182437)scale(0.1 -0.1)"
               id="g4750">
              <defs
                 id="defs4744">
                <path
                   d="M 56.390625 67.921875  L 27.875 0  L 20.609375 0  L 47.796875 64.890625  L 14.109375 64.890625  L 14.109375 55.90625  L 8.40625 55.90625  L 8.40625 72.90625  L 56.390625 72.90625  z "
                   id="DejaVuSerif-55" />
              </defs>
              <use
                 xlink:href="#DejaVuSerif-55"
                 id="use4746" />
              <use
                 x="63.623047"
                 xlink:href="#DejaVuSerif-53"
                 id="use4748" />
            </g>
          </g>
        </g>
        <g
           id="xtick_5">
          <g
             id="line2d_9">
            <path
               clip-path="url(#p321cd71643)"
               d="M 236.16 307.584  L 236.16 41.472  "
               style="fill:none;stroke:#b0b0b0;stroke-linecap:square;stroke-width:0.8;"
               id="path4754" />
          </g>
          <g
             id="line2d_10">
            <g
               id="g4759">
              <use
                 style="stroke:#000000;stroke-width:0.8;"
                 x="236.16"
                 xlink:href="#mb19e58338d"
                 y="307.584"
                 id="use4757" />
            </g>
          </g>
          <g
             id="text_5">
            <!-- 100 -->
            <g
               transform="translate(226.61625 322.182437)scale(0.1 -0.1)"
               id="g4771">
              <defs
                 id="defs4763">
                <path
                   d="M 14.203125 0  L 14.203125 5.171875  L 26.90625 5.171875  L 26.90625 65.828125  L 12.203125 56.296875  L 12.203125 62.703125  L 29.984375 74.21875  L 36.71875 74.21875  L 36.71875 5.171875  L 49.421875 5.171875  L 49.421875 0  z "
                   id="DejaVuSerif-49" />
              </defs>
              <use
                 xlink:href="#DejaVuSerif-49"
                 id="use4765" />
              <use
                 x="63.623047"
                 xlink:href="#DejaVuSerif-48"
                 id="use4767" />
              <use
                 x="127.246094"
                 xlink:href="#DejaVuSerif-48"
                 id="use4769" />
            </g>
          </g>
        </g>
        <g
           id="xtick_6">
          <g
             id="line2d_11">
            <path
               clip-path="url(#p321cd71643)"
               d="M 276.741818 307.584  L 276.741818 41.472  "
               style="fill:none;stroke:#b0b0b0;stroke-linecap:square;stroke-width:0.8;"
               id="path4775" />
          </g>
          <g
             id="line2d_12">
            <g
               id="g4780">
              <use
                 style="stroke:#000000;stroke-width:0.8;"
                 x="276.741818"
                 xlink:href="#mb19e58338d"
                 y="307.584"
                 id="use4778" />
            </g>
          </g>
          <g
             id="text_6">
            <!-- 125 -->
            <g
               transform="translate(267.198068 322.182437)scale(0.1 -0.1)"
               id="g4789">
              <use
                 xlink:href="#DejaVuSerif-49"
                 id="use4783" />
              <use
                 x="63.623047"
                 xlink:href="#DejaVuSerif-50"
                 id="use4785" />
              <use
                 x="127.246094"
                 xlink:href="#DejaVuSerif-53"
                 id="use4787" />
            </g>
          </g>
        </g>
        <g
           id="xtick_7">
          <g
             id="line2d_13">
            <path
               clip-path="url(#p321cd71643)"
               d="M 317.323636 307.584  L 317.323636 41.472  "
               style="fill:none;stroke:#b0b0b0;stroke-linecap:square;stroke-width:0.8;"
               id="path4793" />
          </g>
          <g
             id="line2d_14">
            <g
               id="g4798">
              <use
                 style="stroke:#000000;stroke-width:0.8;"
                 x="317.323636"
                 xlink:href="#mb19e58338d"
                 y="307.584"
                 id="use4796" />
            </g>
          </g>
          <g
             id="text_7">
            <!-- 150 -->
            <g
               transform="translate(307.779886 322.182437)scale(0.1 -0.1)"
               id="g4807">
              <use
                 xlink:href="#DejaVuSerif-49"
                 id="use4801" />
              <use
                 x="63.623047"
                 xlink:href="#DejaVuSerif-53"
                 id="use4803" />
              <use
                 x="127.246094"
                 xlink:href="#DejaVuSerif-48"
                 id="use4805" />
            </g>
          </g>
        </g>
        <g
           id="xtick_8">
          <g
             id="line2d_15">
            <path
               clip-path="url(#p321cd71643)"
               d="M 357.905455 307.584  L 357.905455 41.472  "
               style="fill:none;stroke:#b0b0b0;stroke-linecap:square;stroke-width:0.8;"
               id="path4811" />
          </g>
          <g
             id="line2d_16">
            <g
               id="g4816">
              <use
                 style="stroke:#000000;stroke-width:0.8;"
                 x="357.905455"
                 xlink:href="#mb19e58338d"
                 y="307.584"
                 id="use4814" />
            </g>
          </g>
          <g
             id="text_8">
            <!-- 175 -->
            <g
               transform="translate(348.361705 322.182437)scale(0.1 -0.1)"
               id="g4825">
              <use
                 xlink:href="#DejaVuSerif-49"
                 id="use4819" />
              <use
                 x="63.623047"
                 xlink:href="#DejaVuSerif-55"
                 id="use4821" />
              <use
                 x="127.246094"
                 xlink:href="#DejaVuSerif-53"
                 id="use4823" />
            </g>
          </g>
        </g>
        <g
           id="xtick_9">
          <g
             id="line2d_17">
            <path
               clip-path="url(#p321cd71643)"
               d="M 398.487273 307.584  L 398.487273 41.472  "
               style="fill:none;stroke:#b0b0b0;stroke-linecap:square;stroke-width:0.8;"
               id="path4829" />
          </g>
          <g
             id="line2d_18">
            <g
               id="g4834">
              <use
                 style="stroke:#000000;stroke-width:0.8;"
                 x="398.487273"
                 xlink:href="#mb19e58338d"
                 y="307.584"
                 id="use4832" />
            </g>
          </g>
          <g
             id="text_9">
            <!-- 200 -->
            <g
               transform="translate(388.943523 322.182437)scale(0.1 -0.1)"
               id="g4843">
              <use
                 xlink:href="#DejaVuSerif-50"
                 id="use4837" />
              <use
                 x="63.623047"
                 xlink:href="#DejaVuSerif-48"
                 id="use4839" />
              <use
                 x="127.246094"
                 xlink:href="#DejaVuSerif-48"
                 id="use4841" />
            </g>
          </g>
        </g>
        <g
           id="text_10">
          <!-- Space -->
          <g
             transform="translate(210.037109 341.179469)scale(0.17 -0.17)"
             id="g4864">
            <defs
               id="defs4852">
              <path
                 d="M 9.28125 3.515625  L 9.28125 20.125  L 14.890625 20.0625  Q 15.140625 11.765625 19.703125 7.78125  Q 24.265625 3.8125 33.59375 3.8125  Q 42.28125 3.8125 46.84375 7.25  Q 51.421875 10.6875 51.421875 17.28125  Q 51.421875 22.5625 48.65625 25.390625  Q 45.90625 28.21875 37.015625 30.90625  L 27.390625 33.796875  Q 16.9375 36.96875 12.671875 41.703125  Q 8.40625 46.4375 8.40625 54.6875  Q 8.40625 63.96875 14.984375 69.09375  Q 21.578125 74.21875 33.5 74.21875  Q 38.578125 74.21875 44.625 73.109375  Q 50.6875 72.015625 57.515625 69.921875  L 57.515625 54.390625  L 52 54.390625  Q 51.171875 62.109375 46.84375 65.546875  Q 42.53125 69 33.6875 69  Q 25.984375 69 21.953125 65.84375  Q 17.921875 62.703125 17.921875 56.6875  Q 17.921875 51.46875 20.9375 48.484375  Q 23.96875 45.515625 33.796875 42.578125  L 42.828125 39.890625  Q 52.734375 36.921875 56.953125 32.296875  Q 61.1875 27.6875 61.1875 19.921875  Q 61.1875 9.328125 54.390625 3.953125  Q 47.609375 -1.421875 34.1875 -1.421875  Q 28.171875 -1.421875 21.9375 -0.1875  Q 15.71875 1.03125 9.28125 3.515625  z "
                 id="DejaVuSerif-83" />
              <path
                 d="M 20.515625 28.515625  L 20.515625 23.390625  Q 20.515625 14.015625 24.09375 9.109375  Q 27.6875 4.203125 34.515625 4.203125  Q 41.40625 4.203125 44.9375 9.71875  Q 48.484375 15.234375 48.484375 25.984375  Q 48.484375 36.765625 44.9375 42.234375  Q 41.40625 47.703125 34.515625 47.703125  Q 27.6875 47.703125 24.09375 42.765625  Q 20.515625 37.84375 20.515625 28.515625  z M 11.53125 46.6875  L 2.875 46.6875  L 2.875 51.90625  L 20.515625 51.90625  L 20.515625 43.796875  Q 23.140625 48.6875 27.21875 51  Q 31.296875 53.328125 37.3125 53.328125  Q 46.875 53.328125 52.921875 45.75  Q 58.984375 38.1875 58.984375 25.984375  Q 58.984375 13.765625 52.921875 6.171875  Q 46.875 -1.421875 37.3125 -1.421875  Q 31.296875 -1.421875 27.21875 0.890625  Q 23.140625 3.21875 20.515625 8.109375  L 20.515625 -15.578125  L 29 -15.578125  L 29 -20.796875  L 2.875 -20.796875  L 2.875 -15.578125  L 11.53125 -15.578125  z "
                 id="DejaVuSerif-112" />
              <path
                 d="M 39.796875 16.3125  L 39.796875 27.296875  L 28.21875 27.296875  Q 21.53125 27.296875 18.25 24.40625  Q 14.984375 21.53125 14.984375 15.578125  Q 14.984375 10.15625 18.296875 6.984375  Q 21.625 3.8125 27.296875 3.8125  Q 32.90625 3.8125 36.34375 7.28125  Q 39.796875 10.75 39.796875 16.3125  z M 48.78125 32.421875  L 48.78125 5.171875  L 56.78125 5.171875  L 56.78125 0  L 39.796875 0  L 39.796875 5.609375  Q 36.8125 2 32.90625 0.28125  Q 29 -1.421875 23.78125 -1.421875  Q 15.140625 -1.421875 10.0625 3.171875  Q 4.984375 7.765625 4.984375 15.578125  Q 4.984375 23.640625 10.796875 28.078125  Q 16.609375 32.515625 27.203125 32.515625  L 39.796875 32.515625  L 39.796875 36.078125  Q 39.796875 42 36.203125 45.234375  Q 32.625 48.484375 26.125 48.484375  Q 20.75 48.484375 17.578125 46.046875  Q 14.40625 43.609375 13.625 38.8125  L 8.984375 38.8125  L 8.984375 49.3125  Q 13.671875 51.3125 18.09375 52.3125  Q 22.515625 53.328125 26.703125 53.328125  Q 37.5 53.328125 43.140625 47.96875  Q 48.78125 42.625 48.78125 32.421875  z "
                 id="DejaVuSerif-97" />
              <path
                 d="M 51.421875 15.578125  Q 49.515625 7.28125 44.09375 2.921875  Q 38.671875 -1.421875 30.078125 -1.421875  Q 18.75 -1.421875 11.859375 6.078125  Q 4.984375 13.578125 4.984375 25.984375  Q 4.984375 38.421875 11.859375 45.875  Q 18.75 53.328125 30.078125 53.328125  Q 35.015625 53.328125 39.890625 52.171875  Q 44.78125 51.03125 49.703125 48.6875  L 49.703125 35.40625  L 44.484375 35.40625  Q 43.453125 42.234375 40.015625 45.359375  Q 36.578125 48.484375 30.171875 48.484375  Q 22.90625 48.484375 19.1875 42.84375  Q 15.484375 37.203125 15.484375 25.984375  Q 15.484375 14.75 19.171875 9.078125  Q 22.859375 3.421875 30.171875 3.421875  Q 35.984375 3.421875 39.453125 6.4375  Q 42.921875 9.46875 44.1875 15.578125  z "
                 id="DejaVuSerif-99" />
              <path
                 d="M 54.203125 25  L 15.484375 25  L 15.484375 24.609375  Q 15.484375 14.109375 19.4375 8.765625  Q 23.390625 3.421875 31.109375 3.421875  Q 37.015625 3.421875 40.796875 6.515625  Q 44.578125 9.625 46.09375 15.71875  L 53.328125 15.71875  Q 51.171875 7.171875 45.375 2.875  Q 39.59375 -1.421875 30.171875 -1.421875  Q 18.796875 -1.421875 11.890625 6.078125  Q 4.984375 13.578125 4.984375 25.984375  Q 4.984375 38.28125 11.765625 45.796875  Q 18.5625 53.328125 29.59375 53.328125  Q 41.359375 53.328125 47.65625 46.0625  Q 53.953125 38.8125 54.203125 25  z M 43.609375 30.171875  Q 43.3125 39.265625 39.765625 43.875  Q 36.234375 48.484375 29.59375 48.484375  Q 23.390625 48.484375 19.828125 43.84375  Q 16.265625 39.203125 15.484375 30.171875  z "
                 id="DejaVuSerif-101" />
            </defs>
            <use
               xlink:href="#DejaVuSerif-83"
               id="use4854" />
            <use
               x="68.505859"
               xlink:href="#DejaVuSerif-112"
               id="use4856" />
            <use
               x="132.519531"
               xlink:href="#DejaVuSerif-97"
               id="use4858" />
            <use
               x="192.138672"
               xlink:href="#DejaVuSerif-99"
               id="use4860" />
            <use
               x="248.144531"
               xlink:href="#DejaVuSerif-101"
               id="use4862" />
          </g>
        </g>
      </g>
      <g
         id="matplotlib.axis_2">
        <g
           id="ytick_1">
          <g
             id="line2d_19">
            <path
               clip-path="url(#p321cd71643)"
               d="M 57.6 302.466462  L 414.72 302.466462  "
               style="fill:none;stroke:#b0b0b0;stroke-linecap:square;stroke-width:0.8;"
               id="path4868" />
          </g>
          <g
             id="line2d_20">
            <defs
               id="defs4872">
              <path
                 d="M 0 0  L -3.5 0  "
                 id="m4d802819b1"
                 style="stroke:#000000;stroke-width:0.8;" />
            </defs>
            <g
               id="g4876">
              <use
                 style="stroke:#000000;stroke-width:0.8;"
                 x="57.6"
                 xlink:href="#m4d802819b1"
                 y="302.466462"
                 id="use4874" />
            </g>
          </g>
          <g
             id="text_11">
            <!-- 0.0 -->
            <g
               transform="translate(34.696875 306.26568)scale(0.1 -0.1)"
               id="g4888">
              <defs
                 id="defs4880">
                <path
                   d="M 9.421875 5.078125  Q 9.421875 7.8125 11.28125 9.71875  Q 13.140625 11.625 15.921875 11.625  Q 18.609375 11.625 20.5 9.71875  Q 22.40625 7.8125 22.40625 5.078125  Q 22.40625 2.390625 20.5 0.484375  Q 18.609375 -1.421875 15.921875 -1.421875  Q 13.140625 -1.421875 11.28125 0.453125  Q 9.421875 2.34375 9.421875 5.078125  z "
                   id="DejaVuSerif-46" />
              </defs>
              <use
                 xlink:href="#DejaVuSerif-48"
                 id="use4882" />
              <use
                 x="63.623047"
                 xlink:href="#DejaVuSerif-46"
                 id="use4884" />
              <use
                 x="95.410156"
                 xlink:href="#DejaVuSerif-48"
                 id="use4886" />
            </g>
          </g>
        </g>
        <g
           id="ytick_2">
          <g
             id="line2d_21">
            <path
               clip-path="url(#p321cd71643)"
               d="M 57.6 251.291077  L 414.72 251.291077  "
               style="fill:none;stroke:#b0b0b0;stroke-linecap:square;stroke-width:0.8;"
               id="path4892" />
          </g>
          <g
             id="line2d_22">
            <g
               id="g4897">
              <use
                 style="stroke:#000000;stroke-width:0.8;"
                 x="57.6"
                 xlink:href="#m4d802819b1"
                 y="251.291077"
                 id="use4895" />
            </g>
          </g>
          <g
             id="text_12">
            <!-- 0.2 -->
            <g
               transform="translate(34.696875 255.090296)scale(0.1 -0.1)"
               id="g4906">
              <use
                 xlink:href="#DejaVuSerif-48"
                 id="use4900" />
              <use
                 x="63.623047"
                 xlink:href="#DejaVuSerif-46"
                 id="use4902" />
              <use
                 x="95.410156"
                 xlink:href="#DejaVuSerif-50"
                 id="use4904" />
            </g>
          </g>
        </g>
        <g
           id="ytick_3">
          <g
             id="line2d_23">
            <path
               clip-path="url(#p321cd71643)"
               d="M 57.6 200.115692  L 414.72 200.115692  "
               style="fill:none;stroke:#b0b0b0;stroke-linecap:square;stroke-width:0.8;"
               id="path4910" />
          </g>
          <g
             id="line2d_24">
            <g
               id="g4915">
              <use
                 style="stroke:#000000;stroke-width:0.8;"
                 x="57.6"
                 xlink:href="#m4d802819b1"
                 y="200.115692"
                 id="use4913" />
            </g>
          </g>
          <g
             id="text_13">
            <!-- 0.4 -->
            <g
               transform="translate(34.696875 203.914911)scale(0.1 -0.1)"
               id="g4927">
              <defs
                 id="defs4919">
                <path
                   d="M 34.90625 24.703125  L 34.90625 63.484375  L 10.015625 24.703125  z M 56.390625 0  L 23.1875 0  L 23.1875 5.171875  L 34.90625 5.171875  L 34.90625 19.484375  L 3.078125 19.484375  L 3.078125 24.8125  L 35.015625 74.21875  L 44.671875 74.21875  L 44.671875 24.703125  L 58.59375 24.703125  L 58.59375 19.484375  L 44.671875 19.484375  L 44.671875 5.171875  L 56.390625 5.171875  z "
                   id="DejaVuSerif-52" />
              </defs>
              <use
                 xlink:href="#DejaVuSerif-48"
                 id="use4921" />
              <use
                 x="63.623047"
                 xlink:href="#DejaVuSerif-46"
                 id="use4923" />
              <use
                 x="95.410156"
                 xlink:href="#DejaVuSerif-52"
                 id="use4925" />
            </g>
          </g>
        </g>
        <g
           id="ytick_4">
          <g
             id="line2d_25">
            <path
               clip-path="url(#p321cd71643)"
               d="M 57.6 148.940308  L 414.72 148.940308  "
               style="fill:none;stroke:#b0b0b0;stroke-linecap:square;stroke-width:0.8;"
               id="path4931" />
          </g>
          <g
             id="line2d_26">
            <g
               id="g4936">
              <use
                 style="stroke:#000000;stroke-width:0.8;"
                 x="57.6"
                 xlink:href="#m4d802819b1"
                 y="148.940308"
                 id="use4934" />
            </g>
          </g>
          <g
             id="text_14">
            <!-- 0.6 -->
            <g
               transform="translate(34.696875 152.739526)scale(0.1 -0.1)"
               id="g4948">
              <defs
                 id="defs4940">
                <path
                   d="M 32.71875 3.421875  Q 39.59375 3.421875 43.296875 8.46875  Q 47.015625 13.53125 47.015625 23  Q 47.015625 32.46875 43.296875 37.515625  Q 39.59375 42.578125 32.71875 42.578125  Q 25.734375 42.578125 22.0625 37.6875  Q 18.40625 32.8125 18.40625 23.578125  Q 18.40625 13.875 22.109375 8.640625  Q 25.828125 3.421875 32.71875 3.421875  z M 16.796875 40.140625  Q 20.125 43.796875 24.3125 45.59375  Q 28.515625 47.40625 33.796875 47.40625  Q 44.671875 47.40625 51 40.859375  Q 57.328125 34.328125 57.328125 23  Q 57.328125 11.921875 50.515625 5.25  Q 43.703125 -1.421875 32.328125 -1.421875  Q 19.96875 -1.421875 13.328125 7.78125  Q 6.6875 17 6.6875 34.078125  Q 6.6875 53.21875 14.546875 63.71875  Q 22.40625 74.21875 36.71875 74.21875  Q 40.578125 74.21875 44.828125 73.484375  Q 49.078125 72.75 53.515625 71.296875  L 53.515625 59.28125  L 48 59.28125  Q 47.40625 64.203125 44.234375 66.796875  Q 41.0625 69.390625 35.6875 69.390625  Q 26.21875 69.390625 21.578125 62.203125  Q 16.9375 55.03125 16.796875 40.140625  z "
                   id="DejaVuSerif-54" />
              </defs>
              <use
                 xlink:href="#DejaVuSerif-48"
                 id="use4942" />
              <use
                 x="63.623047"
                 xlink:href="#DejaVuSerif-46"
                 id="use4944" />
              <use
                 x="95.410156"
                 xlink:href="#DejaVuSerif-54"
                 id="use4946" />
            </g>
          </g>
        </g>
        <g
           id="ytick_5">
          <g
             id="line2d_27">
            <path
               clip-path="url(#p321cd71643)"
               d="M 57.6 97.764923  L 414.72 97.764923  "
               style="fill:none;stroke:#b0b0b0;stroke-linecap:square;stroke-width:0.8;"
               id="path4952" />
          </g>
          <g
             id="line2d_28">
            <g
               id="g4957">
              <use
                 style="stroke:#000000;stroke-width:0.8;"
                 x="57.6"
                 xlink:href="#m4d802819b1"
                 y="97.764923"
                 id="use4955" />
            </g>
          </g>
          <g
             id="text_15">
            <!-- 0.8 -->
            <g
               transform="translate(34.696875 101.564142)scale(0.1 -0.1)"
               id="g4969">
              <defs
                 id="defs4961">
                <path
                   d="M 46.578125 19.921875  Q 46.578125 27.734375 42.6875 32.046875  Q 38.8125 36.375 31.78125 36.375  Q 24.75 36.375 20.875 32.046875  Q 17 27.734375 17 19.921875  Q 17 12.0625 20.875 7.734375  Q 24.75 3.421875 31.78125 3.421875  Q 38.8125 3.421875 42.6875 7.734375  Q 46.578125 12.0625 46.578125 19.921875  z M 44.578125 55.328125  Q 44.578125 61.96875 41.203125 65.671875  Q 37.84375 69.390625 31.78125 69.390625  Q 25.78125 69.390625 22.390625 65.671875  Q 19 61.96875 19 55.328125  Q 19 48.640625 22.390625 44.921875  Q 25.78125 41.21875 31.78125 41.21875  Q 37.84375 41.21875 41.203125 44.921875  Q 44.578125 48.640625 44.578125 55.328125  z M 39.3125 38.8125  Q 47.609375 37.703125 52.25 32.6875  Q 56.890625 27.6875 56.890625 19.921875  Q 56.890625 9.671875 50.390625 4.125  Q 43.890625 -1.421875 31.78125 -1.421875  Q 19.734375 -1.421875 13.203125 4.125  Q 6.6875 9.671875 6.6875 19.921875  Q 6.6875 27.6875 11.328125 32.6875  Q 15.96875 37.703125 24.3125 38.8125  Q 16.9375 40.140625 13 44.40625  Q 9.078125 48.6875 9.078125 55.328125  Q 9.078125 64.109375 15.125 69.15625  Q 21.1875 74.21875 31.78125 74.21875  Q 42.390625 74.21875 48.4375 69.15625  Q 54.5 64.109375 54.5 55.328125  Q 54.5 48.6875 50.5625 44.40625  Q 46.625 40.140625 39.3125 38.8125  z "
                   id="DejaVuSerif-56" />
              </defs>
              <use
                 xlink:href="#DejaVuSerif-48"
                 id="use4963" />
              <use
                 x="63.623047"
                 xlink:href="#DejaVuSerif-46"
                 id="use4965" />
              <use
                 x="95.410156"
                 xlink:href="#DejaVuSerif-56"
                 id="use4967" />
            </g>
          </g>
        </g>
        <g
           id="ytick_6">
          <g
             id="line2d_29">
            <path
               clip-path="url(#p321cd71643)"
               d="M 57.6 46.589538  L 414.72 46.589538  "
               style="fill:none;stroke:#b0b0b0;stroke-linecap:square;stroke-width:0.8;"
               id="path4973" />
          </g>
          <g
             id="line2d_30">
            <g
               id="g4978">
              <use
                 style="stroke:#000000;stroke-width:0.8;"
                 x="57.6"
                 xlink:href="#m4d802819b1"
                 y="46.589538"
                 id="use4976" />
            </g>
          </g>
          <g
             id="text_16">
            <!-- 1.0 -->
            <g
               transform="translate(34.696875 50.388757)scale(0.1 -0.1)"
               id="g4987">
              <use
                 xlink:href="#DejaVuSerif-49"
                 id="use4981" />
              <use
                 x="63.623047"
                 xlink:href="#DejaVuSerif-46"
                 id="use4983" />
              <use
                 x="95.410156"
                 xlink:href="#DejaVuSerif-48"
                 id="use4985" />
            </g>
          </g>
        </g>
        <g
           id="text_17">
          <!-- Frequency -->
          <g
             transform="translate(26.919687 220.503703)rotate(-90)scale(0.17 -0.17)"
             id="g5017">
            <defs
               id="defs4997">
              <path
                 d="M 5.515625 0  L 5.515625 5.171875  L 14.796875 5.171875  L 14.796875 67.671875  L 5.515625 67.671875  L 5.515625 72.90625  L 65.1875 72.90625  L 65.1875 56.6875  L 59.1875 56.6875  L 59.1875 66.890625  L 24.703125 66.890625  L 24.703125 42.484375  L 49.609375 42.484375  L 49.609375 51.609375  L 55.609375 51.609375  L 55.609375 27.390625  L 49.609375 27.390625  L 49.609375 36.53125  L 24.703125 36.53125  L 24.703125 5.171875  L 36.375 5.171875  L 36.375 0  z "
                 id="DejaVuSerif-70" />
              <path
                 d="M 47.796875 52  L 47.796875 39.015625  L 42.625 39.015625  Q 42.390625 42.875 40.484375 44.78125  Q 38.578125 46.6875 34.90625 46.6875  Q 28.265625 46.6875 24.71875 42.09375  Q 21.1875 37.5 21.1875 28.90625  L 21.1875 5.171875  L 31.59375 5.171875  L 31.59375 0  L 4.109375 0  L 4.109375 5.171875  L 12.203125 5.171875  L 12.203125 46.78125  L 3.609375 46.78125  L 3.609375 51.90625  L 21.1875 51.90625  L 21.1875 42.671875  Q 23.828125 48.09375 27.96875 50.703125  Q 32.125 53.328125 38.09375 53.328125  Q 40.28125 53.328125 42.703125 52.984375  Q 45.125 52.640625 47.796875 52  z "
                 id="DejaVuSerif-114" />
              <path
                 d="M 52.484375 46.6875  L 52.484375 -15.578125  L 61.078125 -15.578125  L 61.078125 -20.796875  L 35.015625 -20.796875  L 35.015625 -15.578125  L 43.5 -15.578125  L 43.5 8.109375  Q 40.875 3.21875 36.796875 0.890625  Q 32.71875 -1.421875 26.703125 -1.421875  Q 17.140625 -1.421875 11.0625 6.171875  Q 4.984375 13.765625 4.984375 25.984375  Q 4.984375 38.1875 11.03125 45.75  Q 17.09375 53.328125 26.703125 53.328125  Q 32.71875 53.328125 36.796875 51  Q 40.875 48.6875 43.5 43.796875  L 43.5 51.90625  L 61.078125 51.90625  L 61.078125 46.6875  z M 43.5 28.515625  Q 43.5 37.84375 39.90625 42.765625  Q 36.328125 47.703125 29.5 47.703125  Q 22.5625 47.703125 19.015625 42.234375  Q 15.484375 36.765625 15.484375 25.984375  Q 15.484375 15.234375 19.015625 9.71875  Q 22.5625 4.203125 29.5 4.203125  Q 36.328125 4.203125 39.90625 9.109375  Q 43.5 14.015625 43.5 23.390625  z "
                 id="DejaVuSerif-113" />
              <path
                 d="M 35.40625 51.90625  L 52.203125 51.90625  L 52.203125 5.171875  L 60.6875 5.171875  L 60.6875 0  L 43.21875 0  L 43.21875 9.1875  Q 40.71875 4 36.765625 1.28125  Q 32.8125 -1.421875 27.59375 -1.421875  Q 18.953125 -1.421875 14.875 3.484375  Q 10.796875 8.40625 10.796875 18.890625  L 10.796875 46.6875  L 2.6875 46.6875  L 2.6875 51.90625  L 19.828125 51.90625  L 19.828125 21.6875  Q 19.828125 12.203125 22.140625 8.6875  Q 24.46875 5.171875 30.421875 5.171875  Q 36.671875 5.171875 39.9375 9.765625  Q 43.21875 14.359375 43.21875 23.09375  L 43.21875 46.6875  L 35.40625 46.6875  z "
                 id="DejaVuSerif-117" />
              <path
                 d="M 4.109375 0  L 4.109375 5.171875  L 12.203125 5.171875  L 12.203125 46.6875  L 3.609375 46.6875  L 3.609375 51.90625  L 21.1875 51.90625  L 21.1875 42.671875  Q 23.6875 47.953125 27.65625 50.640625  Q 31.640625 53.328125 36.921875 53.328125  Q 45.515625 53.328125 49.5625 48.390625  Q 53.609375 43.453125 53.609375 33.015625  L 53.609375 5.171875  L 61.625 5.171875  L 61.625 0  L 36.8125 0  L 36.8125 5.171875  L 44.578125 5.171875  L 44.578125 30.171875  Q 44.578125 39.703125 42.234375 43.234375  Q 39.890625 46.78125 33.984375 46.78125  Q 27.734375 46.78125 24.453125 42.203125  Q 21.1875 37.640625 21.1875 28.90625  L 21.1875 5.171875  L 29 5.171875  L 29 0  z "
                 id="DejaVuSerif-110" />
              <path
                 d="M 21.578125 -9.515625  L 25 -0.875  L 5.609375 46.6875  L -0.296875 46.6875  L -0.296875 51.90625  L 23.578125 51.90625  L 23.578125 46.6875  L 15.28125 46.6875  L 29.890625 10.984375  L 44.484375 46.6875  L 36.71875 46.6875  L 36.71875 51.90625  L 56.203125 51.90625  L 56.203125 46.6875  L 50.390625 46.6875  L 26.609375 -11.71875  Q 24.171875 -17.78125 21.1875 -20  Q 18.21875 -22.21875 12.796875 -22.21875  Q 10.5 -22.21875 8.078125 -21.828125  Q 5.671875 -21.4375 3.21875 -20.703125  L 3.21875 -10.796875  L 7.8125 -10.796875  Q 8.109375 -14.109375 9.5 -15.546875  Q 10.890625 -17 13.8125 -17  Q 16.5 -17 18.140625 -15.5  Q 19.78125 -14.015625 21.578125 -9.515625  z "
                 id="DejaVuSerif-121" />
            </defs>
            <use
               xlink:href="#DejaVuSerif-70"
               id="use4999" />
            <use
               x="69.384766"
               xlink:href="#DejaVuSerif-114"
               id="use5001" />
            <use
               x="117.1875"
               xlink:href="#DejaVuSerif-101"
               id="use5003" />
            <use
               x="176.367188"
               xlink:href="#DejaVuSerif-113"
               id="use5005" />
            <use
               x="240.380859"
               xlink:href="#DejaVuSerif-117"
               id="use5007" />
            <use
               x="304.785156"
               xlink:href="#DejaVuSerif-101"
               id="use5009" />
            <use
               x="363.964844"
               xlink:href="#DejaVuSerif-110"
               id="use5011" />
            <use
               x="428.369141"
               xlink:href="#DejaVuSerif-99"
               id="use5013" />
            <use
               x="484.375"
               xlink:href="#DejaVuSerif-121"
               id="use5015" />
          </g>
        </g>
      </g>
      <g
         id="line2d_31">
        <path
           clip-path="url(#p321cd71643)"
           d="M 73.832727 302.466462  L 398.487273 302.466462  L 398.487273 302.466462  "
           style="fill:none;stroke:#9acd32;stroke-linecap:square;stroke-width:3;"
           id="path5021" />
      </g>
      <g
         id="line2d_32">
        <path
           clip-path="url(#p321cd71643)"
           d="M 73.832727 302.466462  L 398.487273 302.466462  L 398.487273 302.466462  "
           style="fill:none;stroke:#ffa500;stroke-linecap:square;stroke-width:3;"
           id="path5024" />
      </g>
      <g
         id="line2d_33">
        <path
           clip-path="url(#p321cd71643)"
           d="M 73.832727 302.466462  L 398.487273 302.466462  L 398.487273 302.466462  "
           style="fill:none;stroke:#ff1493;stroke-linecap:square;stroke-width:3;"
           id="path5027" />
      </g>
      <g
         id="patch_3">
        <path
           d="M 57.6 307.584  L 57.6 41.472  "
           style="fill:none;stroke:#000000;stroke-linecap:square;stroke-linejoin:miter;stroke-width:0.8;"
           id="path5030" />
      </g>
      <g
         id="patch_4">
        <path
           d="M 414.72 307.584  L 414.72 41.472  "
           style="fill:none;stroke:#000000;stroke-linecap:square;stroke-linejoin:miter;stroke-width:0.8;"
           id="path5033" />
      </g>
      <g
         id="patch_5">
        <path
           d="M 57.6 307.584  L 414.72 307.584  "
           style="fill:none;stroke:#000000;stroke-linecap:square;stroke-linejoin:miter;stroke-width:0.8;"
           id="path5036" />
      </g>
      <g
         id="patch_6">
        <path
           d="M 57.6 41.472  L 414.72 41.472  "
           style="fill:none;stroke:#000000;stroke-linecap:square;stroke-linejoin:miter;stroke-width:0.8;"
           id="path5039" />
      </g>
      <g
         id="text_18">
        <!-- t = 600 -->
        <g
           id="text_9-3"
           transform="translate(15.375154,-0.20306943)"
           style="stroke-linecap:butt;stroke-linejoin:round">
          <!-- t = 1000.0 -->
          <g
             transform="matrix(0.15,0,0,-0.15,334.10203,35.472)"
             id="g4544"
             style="stroke-linecap:butt;stroke-linejoin:round">
            <defs
               id="defs4522">
              <path
                 d="M 10.796875,46.6875 H 2.875 v 5.21875 h 7.921875 v 16.109375 h 9.03125 V 51.90625 H 36.71875 V 46.6875 H 19.828125 V 13.71875 q 0,-6.59375 1.265625,-8.453125 1.265625,-1.84375 4.6875,-1.84375 3.515625,0 5.125,2.0625 1.609375,2.078125 1.71875,6.71875 h 6.78125 Q 39.015625,5.125 35.546875,1.84375 32.078125,-1.421875 25,-1.421875 q -7.765625,0 -10.984375,3.4375 -3.21875,3.453125 -3.21875,11.703125 z"
                 id="path13232" />
              <path
                 id="path13234"
                 d="" />
              <path
                 d="M 10.59375,45.21875 H 73.1875 v -7.8125 H 10.59375 Z m 0,-19.921875 H 73.1875 v -7.8125 H 10.59375 Z"
                 id="path13236" />
            </defs>
            <use
               xlink:href="#DejaVuSerif-116"
               id="use4524"
               style="stroke-linecap:butt;stroke-linejoin:round" />
            <use
               x="40.185547"
               xlink:href="#DejaVuSerif-32"
               id="use4526"
               style="stroke-linecap:butt;stroke-linejoin:round" />
            <use
               x="71.972656"
               xlink:href="#DejaVuSerif-61"
               id="use4528"
               style="stroke-linecap:butt;stroke-linejoin:round" />
            <use
               x="155.76172"
               xlink:href="#DejaVuSerif-32"
               id="use4530"
               style="stroke-linecap:butt;stroke-linejoin:round" />
            <use
               x="187.54883"
               xlink:href="#DejaVuSerif-49"
               id="use4532"
               style="stroke-linecap:butt;stroke-linejoin:round" />
            <use
               x="314.79492"
               xlink:href="#DejaVuSerif-48"
               id="use4536"
               style="stroke-linecap:butt;stroke-linejoin:round" />
            <use
               x="378.41797"
               xlink:href="#DejaVuSerif-48"
               id="use4538"
               style="stroke-linecap:butt;stroke-linejoin:round" />
          </g>
        </g>
        <use
           x="187.54883"
           xlink:href="#DejaVuSerif-50"
           id="use4516"
           style="stroke-linecap:butt;stroke-linejoin:round"
           transform="matrix(0.15,0,0,-0.15,359.30734,35.286249)" />
      </g>
      <g
         id="legend_1"
         transform="translate(-15)">
        <g
           id="patch_7"
           transform="matrix(1.2004918,0,0,0.99832127,-66.523908,0.12706731)">
          <path
             d="m 334.44,103.91325 h 71.88 q 2.4,0 2.4,-2.4 V 49.872 q 0,-2.4 -2.4,-2.4 h -71.88 q -2.4,0 -2.4,2.4 v 51.64125 q 0,2.4 2.4,2.4 z"
             style="opacity:0.8;fill:#ffffff;stroke:#cccccc;stroke-linejoin:miter"
             id="path5064" />
        </g>
        <g
           id="line2d_34">
          <path
             d="m 336.84,57.190125 h 24"
             style="fill:none;stroke:#9acd32;stroke-width:3;stroke-linecap:square"
             id="path5067" />
        </g>
        <g
           id="line2d_35" />
        <g
           id="text_19">
          <!-- $X_A$ -->
          <g
             transform="matrix(0.12,0,0,-0.12,370.44,61.390125)"
             id="g5079">
            <defs
               id="defs5073">
              <path
                 d="m 13.71875,72.90625 h 9.96875 l 12.5,-26.328125 22.609375,26.328125 H 70.3125 L 40.28125,38.09375 58.40625,0 H 48.484375 L 33.796875,30.71875 7.171875,0 H -4.296875 L 29.78125,39.203125 Z"
                 id="DejaVuSans-Oblique-88" />
              <path
                 d="M 36.8125,72.90625 H 48 L 61.53125,0 H 51.21875 L 48.1875,18.703125 H 15.375 L 5.078125,0 H -5.328125 Z M 40.375,63.1875 19.921875,26.90625 H 46.6875 Z"
                 id="DejaVuSans-Oblique-65" />
            </defs>
            <use
               transform="translate(0,0.09375)"
               xlink:href="#DejaVuSans-Oblique-88"
               id="use5075" />
            <use
               transform="matrix(0.7,0,0,0.7,68.505859,-16.3125)"
               xlink:href="#DejaVuSans-Oblique-65"
               id="use5077" />
          </g>
        </g>
        <g
           id="line2d_36">
          <path
             d="m 336.84,74.803875 h 24"
             style="fill:none;stroke:#ffa500;stroke-width:3;stroke-linecap:square"
             id="path5082" />
        </g>
        <g
           id="line2d_37" />
        <g
           id="text_20">
          <!-- $X_B$ -->
          <g
             transform="matrix(0.12,0,0,-0.12,370.44,79.003875)"
             id="g5093">
            <defs
               id="defs5087">
              <path
                 d="M 16.890625,72.90625 H 42.09375 q 10.25,0 15.328125,-3.8125 Q 62.5,65.28125 62.5,57.625 62.5,50.59375 58.125,45.484375 53.765625,40.375 46.6875,39.3125 q 6.046875,-1.375 9.078125,-5.234375 3.03125,-3.859375 3.03125,-10.296875 0,-10.984375 -8.140625,-17.390625 Q 42.53125,0 28.421875,0 H 2.6875 Z M 19.28125,34.8125 14.109375,8.109375 h 15.875 q 8.9375,0 13.765625,4.09375 4.828125,4.109375 4.828125,11.578125 0,5.765625 -3.203125,8.390625 Q 42.1875,34.8125 35.109375,34.8125 Z m 5.8125,29.984375 -4.296875,-21.96875 H 35.5 q 7.859375,0 12.28125,3.40625 4.421875,3.421875 4.421875,9.484375 0,4.734375 -2.984375,6.90625 -2.984375,2.171875 -9.515625,2.171875 z"
                 id="DejaVuSans-Oblique-66" />
            </defs>
            <use
               transform="translate(0,0.09375)"
               xlink:href="#DejaVuSans-Oblique-88"
               id="use5089" />
            <use
               transform="matrix(0.7,0,0,0.7,68.505859,-16.3125)"
               xlink:href="#DejaVuSans-Oblique-66"
               id="use5091" />
          </g>
        </g>
        <g
           id="line2d_38">
          <path
             d="m 336.84,92.417625 h 24"
             style="fill:none;stroke:#ff1493;stroke-width:3;stroke-linecap:square"
             id="path5096" />
        </g>
        <g
           id="line2d_39" />
        <g
           transform="matrix(0.12,0,0,-0.12,370.39372,96.42522)"
           id="g4604"
           style="stroke-linecap:butt;stroke-linejoin:round">
          <defs
             id="defs4586">
            <path
               d="m 69.484375,67.28125 -2,-10.390625 q -4.6875,4.734375 -9.9375,7.03125 -5.25,2.296875 -11.359375,2.296875 -8.34375,0 -14.671875,-4.015625 -6.3125,-4 -10.90625,-12.203125 Q 17.671875,44.734375 16.125,38.84375 14.59375,32.953125 14.59375,27 14.59375,17.046875 19.75,11.8125 24.90625,6.59375 34.71875,6.59375 41.5,6.59375 47.75,8.765625 54,10.9375 59.90625,15.28125 L 57.625,3.609375 q -5.8125,-2.484375 -11.75,-3.75 -5.9375,-1.28125 -11.890625,-1.28125 -14.015625,0 -21.90625,7.609375 -7.875,7.625 -7.875,21.203125 0,8.6875 3,17.078125 3,8.40625 8.625,15.34375 5.953125,7.375 13.59375,10.890625 7.640625,3.515625 17.796875,3.515625 6.25,0 11.84375,-1.734375 Q 64.65625,70.75 69.484375,67.28125 Z"
               id="path11603" />
            <path
               d="m 30.078125,3.421875 q 7.234375,0 10.90625,5.703125 3.6875,5.71875 3.6875,16.859375 0,11.125 -3.6875,16.8125 -3.671875,5.6875 -10.90625,5.6875 -7.21875,0 -10.90625,-5.6875 -3.6875,-5.6875 -3.6875,-16.8125 0,-11.140625 3.703125,-16.859375 3.71875,-5.703125 10.890625,-5.703125 z m 0,-4.84375 q -11.328125,0 -18.21875,7.5 -6.875,7.5 -6.875,19.90625 0,12.390625 6.859375,19.859375 6.859375,7.484375 18.234375,7.484375 11.375,0 18.234375,-7.484375 6.859375,-7.46875 6.859375,-19.859375 0,-12.40625 -6.859375,-19.90625 -6.859375,-7.5 -18.234375,-7.5 z"
               id="path11605" />
            <path
               d="M 16.890625,72.90625 H 38.09375 q 16.890625,0 25.5,-7.15625 8.625,-7.15625 8.625,-21.265625 0,-9.328125 -3.28125,-17.953125 Q 65.671875,17.921875 59.90625,12.015625 54.109375,5.953125 45.171875,2.96875 36.234375,0 24.03125,0 H 2.6875 Z m 8.3125,-8.109375 -11,-56.6875 H 27.09375 q 16.5625,0 25.640625,9.515625 9.078125,9.53125 9.078125,26.859375 0,10.5 -5.859375,15.40625 -5.859375,4.90625 -18.359375,4.90625 z"
               id="path11607" />
          </defs>
          <use
             transform="translate(0,0.09375)"
             xlink:href="#DejaVuSans-Oblique-88"
             id="use4588"
             style="stroke-linecap:butt;stroke-linejoin:round" />
          <use
             transform="matrix(0.7,0,0,0.7,68.505859,-16.3125)"
             xlink:href="#DejaVuSans-Oblique-67"
             id="use4590"
             style="stroke-linecap:butt;stroke-linejoin:round" />
          <use
             transform="translate(120.11719,0.09375)"
             xlink:href="#DejaVuSerif-32"
             id="use4592"
             style="stroke-linecap:butt;stroke-linejoin:round" />
          <use
             transform="translate(151.9043,0.09375)"
             xlink:href="#DejaVuSerif-111"
             id="use4594"
             style="stroke-linecap:butt;stroke-linejoin:round" />
          <use
             transform="translate(212.10937,0.09375)"
             xlink:href="#DejaVuSerif-114"
             id="use4596"
             style="stroke-linecap:butt;stroke-linejoin:round" />
          <use
             transform="translate(259.91211,0.09375)"
             xlink:href="#DejaVuSerif-32"
             id="use4598"
             style="stroke-linecap:butt;stroke-linejoin:round" />
          <use
             transform="translate(291.69922,0.09375)"
             xlink:href="#DejaVuSans-Oblique-88"
             id="use4600"
             style="stroke-linecap:butt;stroke-linejoin:round" />
          <use
             transform="matrix(0.7,0,0,0.7,360.20508,-16.3125)"
             xlink:href="#DejaVuSans-Oblique-68"
             id="use4602"
             style="stroke-linecap:butt;stroke-linejoin:round" />
        </g>
      </g>
    </g>
  </g>
  <defs
     id="defs5124">
    <clipPath
       id="p321cd71643">
      <rect
         height="266.112"
         width="357.12"
         x="57.6"
         y="41.472"
         id="rect5121" />
    </clipPath>
  </defs>
</svg>
