<?xml version="1.0" encoding="utf-8" standalone="no"?>
<!DOCTYPE svg PUBLIC "-//W3C//DTD SVG 1.1//EN"
  "http://www.w3.org/Graphics/SVG/1.1/DTD/svg11.dtd">
<!-- Created with matplotlib (https://matplotlib.org/) -->
<svg height="345.6pt" version="1.1" viewBox="0 0 460.8 345.6" width="460.8pt" xmlns="http://www.w3.org/2000/svg" xmlns:xlink="http://www.w3.org/1999/xlink">
 <metadata>
  <rdf:RDF xmlns:cc="http://creativecommons.org/ns#" xmlns:dc="http://purl.org/dc/elements/1.1/" xmlns:rdf="http://www.w3.org/1999/02/22-rdf-syntax-ns#">
   <cc:Work>
    <dc:type rdf:resource="http://purl.org/dc/dcmitype/StillImage"/>
    <dc:date>2023-02-17T00:27:08.193753</dc:date>
    <dc:format>image/svg+xml</dc:format>
    <dc:creator>
     <cc:Agent>
      <dc:title>Matplotlib v3.3.4, https://matplotlib.org/</dc:title>
     </cc:Agent>
    </dc:creator>
   </cc:Work>
  </rdf:RDF>
 </metadata>
 <defs>
  <style type="text/css">*{stroke-linecap:butt;stroke-linejoin:round;}</style>
 </defs>
 <g id="figure_1">
  <g id="patch_1">
   <path d="M 0 345.6 
L 460.8 345.6 
L 460.8 0 
L 0 0 
z
" style="fill:#ffffff;"/>
  </g>
  <g id="axes_1">
   <g id="patch_2">
    <path d="M 57.6 307.584 
L 414.72 307.584 
L 414.72 41.472 
L 57.6 41.472 
z
" style="fill:#ffffff;"/>
   </g>
   <g id="matplotlib.axis_1">
    <g id="xtick_1">
     <g id="line2d_1">
      <path clip-path="url(#pca8858fede)" d="M 73.149518 307.584 
L 73.149518 41.472 
" style="fill:none;stroke:#b0b0b0;stroke-linecap:square;stroke-width:0.8;"/>
     </g>
     <g id="line2d_2">
      <defs>
       <path d="M 0 0 
L 0 3.5 
" id="m735bec8141" style="stroke:#000000;stroke-width:0.8;"/>
      </defs>
      <g>
       <use style="stroke:#000000;stroke-width:0.8;" x="73.149518" xlink:href="#m735bec8141" y="307.584"/>
      </g>
     </g>
     <g id="text_1">
      <!-- 0 -->
      <g transform="translate(69.968268 322.182437)scale(0.1 -0.1)">
       <defs>
        <path d="M 31.78125 3.421875 
Q 39.265625 3.421875 42.96875 11.625 
Q 46.6875 19.828125 46.6875 36.375 
Q 46.6875 52.984375 42.96875 61.1875 
Q 39.265625 69.390625 31.78125 69.390625 
Q 24.3125 69.390625 20.59375 61.1875 
Q 16.890625 52.984375 16.890625 36.375 
Q 16.890625 19.828125 20.59375 11.625 
Q 24.3125 3.421875 31.78125 3.421875 
z
M 31.78125 -1.421875 
Q 19.921875 -1.421875 13.25 8.53125 
Q 6.59375 18.5 6.59375 36.375 
Q 6.59375 54.296875 13.25 64.25 
Q 19.921875 74.21875 31.78125 74.21875 
Q 43.703125 74.21875 50.34375 64.25 
Q 56.984375 54.296875 56.984375 36.375 
Q 56.984375 18.5 50.34375 8.53125 
Q 43.703125 -1.421875 31.78125 -1.421875 
z
" id="DejaVuSerif-48"/>
       </defs>
       <use xlink:href="#DejaVuSerif-48"/>
      </g>
     </g>
    </g>
    <g id="xtick_2">
     <g id="line2d_3">
      <path clip-path="url(#pca8858fede)" d="M 138.217069 307.584 
L 138.217069 41.472 
" style="fill:none;stroke:#b0b0b0;stroke-linecap:square;stroke-width:0.8;"/>
     </g>
     <g id="line2d_4">
      <g>
       <use style="stroke:#000000;stroke-width:0.8;" x="138.217069" xlink:href="#m735bec8141" y="307.584"/>
      </g>
     </g>
     <g id="text_2">
      <!-- 200 -->
      <g transform="translate(128.673319 322.182437)scale(0.1 -0.1)">
       <defs>
        <path d="M 12.796875 55.515625 
L 7.328125 55.515625 
L 7.328125 68.5 
Q 12.546875 71.296875 17.84375 72.75 
Q 23.140625 74.21875 28.21875 74.21875 
Q 39.59375 74.21875 46.1875 68.703125 
Q 52.78125 63.1875 52.78125 53.71875 
Q 52.78125 43.015625 37.84375 28.125 
Q 36.671875 27 36.078125 26.421875 
L 17.671875 8.015625 
L 48.09375 8.015625 
L 48.09375 17 
L 53.8125 17 
L 53.8125 0 
L 6.78125 0 
L 6.78125 5.328125 
L 28.90625 27.390625 
Q 36.234375 34.71875 39.359375 40.84375 
Q 42.484375 46.96875 42.484375 53.71875 
Q 42.484375 61.078125 38.640625 65.234375 
Q 34.8125 69.390625 28.078125 69.390625 
Q 21.09375 69.390625 17.28125 65.921875 
Q 13.484375 62.453125 12.796875 55.515625 
z
" id="DejaVuSerif-50"/>
       </defs>
       <use xlink:href="#DejaVuSerif-50"/>
       <use x="63.623047" xlink:href="#DejaVuSerif-48"/>
       <use x="127.246094" xlink:href="#DejaVuSerif-48"/>
      </g>
     </g>
    </g>
    <g id="xtick_3">
     <g id="line2d_5">
      <path clip-path="url(#pca8858fede)" d="M 203.28462 307.584 
L 203.28462 41.472 
" style="fill:none;stroke:#b0b0b0;stroke-linecap:square;stroke-width:0.8;"/>
     </g>
     <g id="line2d_6">
      <g>
       <use style="stroke:#000000;stroke-width:0.8;" x="203.28462" xlink:href="#m735bec8141" y="307.584"/>
      </g>
     </g>
     <g id="text_3">
      <!-- 400 -->
      <g transform="translate(193.74087 322.182437)scale(0.1 -0.1)">
       <defs>
        <path d="M 34.90625 24.703125 
L 34.90625 63.484375 
L 10.015625 24.703125 
z
M 56.390625 0 
L 23.1875 0 
L 23.1875 5.171875 
L 34.90625 5.171875 
L 34.90625 19.484375 
L 3.078125 19.484375 
L 3.078125 24.8125 
L 35.015625 74.21875 
L 44.671875 74.21875 
L 44.671875 24.703125 
L 58.59375 24.703125 
L 58.59375 19.484375 
L 44.671875 19.484375 
L 44.671875 5.171875 
L 56.390625 5.171875 
z
" id="DejaVuSerif-52"/>
       </defs>
       <use xlink:href="#DejaVuSerif-52"/>
       <use x="63.623047" xlink:href="#DejaVuSerif-48"/>
       <use x="127.246094" xlink:href="#DejaVuSerif-48"/>
      </g>
     </g>
    </g>
    <g id="xtick_4">
     <g id="line2d_7">
      <path clip-path="url(#pca8858fede)" d="M 268.352171 307.584 
L 268.352171 41.472 
" style="fill:none;stroke:#b0b0b0;stroke-linecap:square;stroke-width:0.8;"/>
     </g>
     <g id="line2d_8">
      <g>
       <use style="stroke:#000000;stroke-width:0.8;" x="268.352171" xlink:href="#m735bec8141" y="307.584"/>
      </g>
     </g>
     <g id="text_4">
      <!-- 600 -->
      <g transform="translate(258.808421 322.182437)scale(0.1 -0.1)">
       <defs>
        <path d="M 32.71875 3.421875 
Q 39.59375 3.421875 43.296875 8.46875 
Q 47.015625 13.53125 47.015625 23 
Q 47.015625 32.46875 43.296875 37.515625 
Q 39.59375 42.578125 32.71875 42.578125 
Q 25.734375 42.578125 22.0625 37.6875 
Q 18.40625 32.8125 18.40625 23.578125 
Q 18.40625 13.875 22.109375 8.640625 
Q 25.828125 3.421875 32.71875 3.421875 
z
M 16.796875 40.140625 
Q 20.125 43.796875 24.3125 45.59375 
Q 28.515625 47.40625 33.796875 47.40625 
Q 44.671875 47.40625 51 40.859375 
Q 57.328125 34.328125 57.328125 23 
Q 57.328125 11.921875 50.515625 5.25 
Q 43.703125 -1.421875 32.328125 -1.421875 
Q 19.96875 -1.421875 13.328125 7.78125 
Q 6.6875 17 6.6875 34.078125 
Q 6.6875 53.21875 14.546875 63.71875 
Q 22.40625 74.21875 36.71875 74.21875 
Q 40.578125 74.21875 44.828125 73.484375 
Q 49.078125 72.75 53.515625 71.296875 
L 53.515625 59.28125 
L 48 59.28125 
Q 47.40625 64.203125 44.234375 66.796875 
Q 41.0625 69.390625 35.6875 69.390625 
Q 26.21875 69.390625 21.578125 62.203125 
Q 16.9375 55.03125 16.796875 40.140625 
z
" id="DejaVuSerif-54"/>
       </defs>
       <use xlink:href="#DejaVuSerif-54"/>
       <use x="63.623047" xlink:href="#DejaVuSerif-48"/>
       <use x="127.246094" xlink:href="#DejaVuSerif-48"/>
      </g>
     </g>
    </g>
    <g id="xtick_5">
     <g id="line2d_9">
      <path clip-path="url(#pca8858fede)" d="M 333.419722 307.584 
L 333.419722 41.472 
" style="fill:none;stroke:#b0b0b0;stroke-linecap:square;stroke-width:0.8;"/>
     </g>
     <g id="line2d_10">
      <g>
       <use style="stroke:#000000;stroke-width:0.8;" x="333.419722" xlink:href="#m735bec8141" y="307.584"/>
      </g>
     </g>
     <g id="text_5">
      <!-- 800 -->
      <g transform="translate(323.875972 322.182437)scale(0.1 -0.1)">
       <defs>
        <path d="M 46.578125 19.921875 
Q 46.578125 27.734375 42.6875 32.046875 
Q 38.8125 36.375 31.78125 36.375 
Q 24.75 36.375 20.875 32.046875 
Q 17 27.734375 17 19.921875 
Q 17 12.0625 20.875 7.734375 
Q 24.75 3.421875 31.78125 3.421875 
Q 38.8125 3.421875 42.6875 7.734375 
Q 46.578125 12.0625 46.578125 19.921875 
z
M 44.578125 55.328125 
Q 44.578125 61.96875 41.203125 65.671875 
Q 37.84375 69.390625 31.78125 69.390625 
Q 25.78125 69.390625 22.390625 65.671875 
Q 19 61.96875 19 55.328125 
Q 19 48.640625 22.390625 44.921875 
Q 25.78125 41.21875 31.78125 41.21875 
Q 37.84375 41.21875 41.203125 44.921875 
Q 44.578125 48.640625 44.578125 55.328125 
z
M 39.3125 38.8125 
Q 47.609375 37.703125 52.25 32.6875 
Q 56.890625 27.6875 56.890625 19.921875 
Q 56.890625 9.671875 50.390625 4.125 
Q 43.890625 -1.421875 31.78125 -1.421875 
Q 19.734375 -1.421875 13.203125 4.125 
Q 6.6875 9.671875 6.6875 19.921875 
Q 6.6875 27.6875 11.328125 32.6875 
Q 15.96875 37.703125 24.3125 38.8125 
Q 16.9375 40.140625 13 44.40625 
Q 9.078125 48.6875 9.078125 55.328125 
Q 9.078125 64.109375 15.125 69.15625 
Q 21.1875 74.21875 31.78125 74.21875 
Q 42.390625 74.21875 48.4375 69.15625 
Q 54.5 64.109375 54.5 55.328125 
Q 54.5 48.6875 50.5625 44.40625 
Q 46.625 40.140625 39.3125 38.8125 
z
" id="DejaVuSerif-56"/>
       </defs>
       <use xlink:href="#DejaVuSerif-56"/>
       <use x="63.623047" xlink:href="#DejaVuSerif-48"/>
       <use x="127.246094" xlink:href="#DejaVuSerif-48"/>
      </g>
     </g>
    </g>
    <g id="xtick_6">
     <g id="line2d_11">
      <path clip-path="url(#pca8858fede)" d="M 398.487273 307.584 
L 398.487273 41.472 
" style="fill:none;stroke:#b0b0b0;stroke-linecap:square;stroke-width:0.8;"/>
     </g>
     <g id="line2d_12">
      <g>
       <use style="stroke:#000000;stroke-width:0.8;" x="398.487273" xlink:href="#m735bec8141" y="307.584"/>
      </g>
     </g>
     <g id="text_6">
      <!-- 1000 -->
      <g transform="translate(385.762273 322.182437)scale(0.1 -0.1)">
       <defs>
        <path d="M 14.203125 0 
L 14.203125 5.171875 
L 26.90625 5.171875 
L 26.90625 65.828125 
L 12.203125 56.296875 
L 12.203125 62.703125 
L 29.984375 74.21875 
L 36.71875 74.21875 
L 36.71875 5.171875 
L 49.421875 5.171875 
L 49.421875 0 
z
" id="DejaVuSerif-49"/>
       </defs>
       <use xlink:href="#DejaVuSerif-49"/>
       <use x="63.623047" xlink:href="#DejaVuSerif-48"/>
       <use x="127.246094" xlink:href="#DejaVuSerif-48"/>
       <use x="190.869141" xlink:href="#DejaVuSerif-48"/>
      </g>
     </g>
    </g>
    <g id="text_7">
     <!-- Time -->
     <g transform="translate(214.680234 341.179469)scale(0.17 -0.17)">
      <defs>
       <path d="M 19.09375 0 
L 19.09375 5.171875 
L 28.421875 5.171875 
L 28.421875 67.09375 
L 6.984375 67.09375 
L 6.984375 55.71875 
L 0.984375 55.71875 
L 0.984375 72.90625 
L 65.71875 72.90625 
L 65.71875 55.71875 
L 59.71875 55.71875 
L 59.71875 67.09375 
L 38.28125 67.09375 
L 38.28125 5.171875 
L 47.609375 5.171875 
L 47.609375 0 
z
" id="DejaVuSerif-84"/>
       <path d="M 9.71875 68.015625 
Q 9.71875 70.265625 11.34375 71.921875 
Q 12.984375 73.578125 15.28125 73.578125 
Q 17.53125 73.578125 19.15625 71.921875 
Q 20.796875 70.265625 20.796875 68.015625 
Q 20.796875 65.71875 19.1875 64.109375 
Q 17.578125 62.5 15.28125 62.5 
Q 12.984375 62.5 11.34375 64.109375 
Q 9.71875 65.71875 9.71875 68.015625 
z
M 21.1875 5.171875 
L 29.6875 5.171875 
L 29.6875 0 
L 3.609375 0 
L 3.609375 5.171875 
L 12.203125 5.171875 
L 12.203125 46.6875 
L 3.609375 46.6875 
L 3.609375 51.90625 
L 21.1875 51.90625 
z
" id="DejaVuSerif-105"/>
       <path d="M 51.8125 41.796875 
Q 54.390625 47.515625 58.421875 50.421875 
Q 62.453125 53.328125 67.828125 53.328125 
Q 75.984375 53.328125 79.984375 48.265625 
Q 83.984375 43.21875 83.984375 33.015625 
L 83.984375 5.171875 
L 92.09375 5.171875 
L 92.09375 0 
L 67.1875 0 
L 67.1875 5.171875 
L 75 5.171875 
L 75 31.984375 
Q 75 39.9375 72.65625 43.3125 
Q 70.3125 46.6875 64.890625 46.6875 
Q 58.890625 46.6875 55.734375 42.140625 
Q 52.59375 37.59375 52.59375 28.90625 
L 52.59375 5.171875 
L 60.40625 5.171875 
L 60.40625 0 
L 35.796875 0 
L 35.796875 5.171875 
L 43.609375 5.171875 
L 43.609375 32.328125 
Q 43.609375 40.09375 41.265625 43.390625 
Q 38.921875 46.6875 33.5 46.6875 
Q 27.484375 46.6875 24.328125 42.140625 
Q 21.1875 37.59375 21.1875 28.90625 
L 21.1875 5.171875 
L 29 5.171875 
L 29 0 
L 4.109375 0 
L 4.109375 5.171875 
L 12.203125 5.171875 
L 12.203125 46.78125 
L 3.609375 46.78125 
L 3.609375 51.90625 
L 21.1875 51.90625 
L 21.1875 42.671875 
Q 23.6875 47.859375 27.53125 50.59375 
Q 31.390625 53.328125 36.28125 53.328125 
Q 42.328125 53.328125 46.375 50.3125 
Q 50.4375 47.3125 51.8125 41.796875 
z
" id="DejaVuSerif-109"/>
       <path d="M 54.203125 25 
L 15.484375 25 
L 15.484375 24.609375 
Q 15.484375 14.109375 19.4375 8.765625 
Q 23.390625 3.421875 31.109375 3.421875 
Q 37.015625 3.421875 40.796875 6.515625 
Q 44.578125 9.625 46.09375 15.71875 
L 53.328125 15.71875 
Q 51.171875 7.171875 45.375 2.875 
Q 39.59375 -1.421875 30.171875 -1.421875 
Q 18.796875 -1.421875 11.890625 6.078125 
Q 4.984375 13.578125 4.984375 25.984375 
Q 4.984375 38.28125 11.765625 45.796875 
Q 18.5625 53.328125 29.59375 53.328125 
Q 41.359375 53.328125 47.65625 46.0625 
Q 53.953125 38.8125 54.203125 25 
z
M 43.609375 30.171875 
Q 43.3125 39.265625 39.765625 43.875 
Q 36.234375 48.484375 29.59375 48.484375 
Q 23.390625 48.484375 19.828125 43.84375 
Q 16.265625 39.203125 15.484375 30.171875 
z
" id="DejaVuSerif-101"/>
      </defs>
      <use xlink:href="#DejaVuSerif-84"/>
      <use x="66.699219" xlink:href="#DejaVuSerif-105"/>
      <use x="98.681641" xlink:href="#DejaVuSerif-109"/>
      <use x="193.505859" xlink:href="#DejaVuSerif-101"/>
     </g>
    </g>
   </g>
   <g id="matplotlib.axis_2">
    <g id="ytick_1">
     <g id="line2d_13">
      <path clip-path="url(#pca8858fede)" d="M 57.6 307.584 
L 414.72 307.584 
" style="fill:none;stroke:#b0b0b0;stroke-linecap:square;stroke-width:0.8;"/>
     </g>
     <g id="line2d_14">
      <defs>
       <path d="M 0 0 
L -3.5 0 
" id="m8020325789" style="stroke:#000000;stroke-width:0.8;"/>
      </defs>
      <g>
       <use style="stroke:#000000;stroke-width:0.8;" x="57.6" xlink:href="#m8020325789" y="307.584"/>
      </g>
     </g>
     <g id="text_8">
      <!-- −0.4 -->
      <g transform="translate(26.317187 311.383219)scale(0.1 -0.1)">
       <defs>
        <path d="M 10.59375 35.296875 
L 73.1875 35.296875 
L 73.1875 27.390625 
L 10.59375 27.390625 
z
" id="DejaVuSerif-8722"/>
        <path d="M 9.421875 5.078125 
Q 9.421875 7.8125 11.28125 9.71875 
Q 13.140625 11.625 15.921875 11.625 
Q 18.609375 11.625 20.5 9.71875 
Q 22.40625 7.8125 22.40625 5.078125 
Q 22.40625 2.390625 20.5 0.484375 
Q 18.609375 -1.421875 15.921875 -1.421875 
Q 13.140625 -1.421875 11.28125 0.453125 
Q 9.421875 2.34375 9.421875 5.078125 
z
" id="DejaVuSerif-46"/>
       </defs>
       <use xlink:href="#DejaVuSerif-8722"/>
       <use x="83.789062" xlink:href="#DejaVuSerif-48"/>
       <use x="147.412109" xlink:href="#DejaVuSerif-46"/>
       <use x="179.199219" xlink:href="#DejaVuSerif-52"/>
      </g>
     </g>
    </g>
    <g id="ytick_2">
     <g id="line2d_15">
      <path clip-path="url(#pca8858fede)" d="M 57.6 274.32 
L 414.72 274.32 
" style="fill:none;stroke:#b0b0b0;stroke-linecap:square;stroke-width:0.8;"/>
     </g>
     <g id="line2d_16">
      <g>
       <use style="stroke:#000000;stroke-width:0.8;" x="57.6" xlink:href="#m8020325789" y="274.32"/>
      </g>
     </g>
     <g id="text_9">
      <!-- −0.3 -->
      <g transform="translate(26.317187 278.119219)scale(0.1 -0.1)">
       <defs>
        <path d="M 9.71875 69.828125 
Q 15.4375 71.96875 20.671875 73.09375 
Q 25.921875 74.21875 30.515625 74.21875 
Q 41.21875 74.21875 47.21875 69.59375 
Q 53.21875 64.984375 53.21875 56.78125 
Q 53.21875 50.203125 49.0625 45.78125 
Q 44.921875 41.359375 37.3125 39.796875 
Q 46.296875 38.53125 51.25 33.28125 
Q 56.203125 28.03125 56.203125 19.671875 
Q 56.203125 9.46875 49.34375 4.015625 
Q 42.484375 -1.421875 29.59375 -1.421875 
Q 23.875 -1.421875 18.421875 -0.1875 
Q 12.984375 1.03125 7.625 3.515625 
L 7.625 17.671875 
L 13.09375 17.671875 
Q 13.578125 10.640625 17.828125 7.03125 
Q 22.078125 3.421875 29.78125 3.421875 
Q 37.25 3.421875 41.578125 7.734375 
Q 45.90625 12.0625 45.90625 19.578125 
Q 45.90625 28.171875 41.453125 32.59375 
Q 37.015625 37.015625 28.421875 37.015625 
L 23.78125 37.015625 
L 23.78125 42 
L 26.21875 42 
Q 34.765625 42 39.03125 45.53125 
Q 43.3125 49.078125 43.3125 56.203125 
Q 43.3125 62.59375 39.796875 65.984375 
Q 36.28125 69.390625 29.6875 69.390625 
Q 23.09375 69.390625 19.453125 66.265625 
Q 15.828125 63.140625 15.1875 56.984375 
L 9.71875 56.984375 
z
" id="DejaVuSerif-51"/>
       </defs>
       <use xlink:href="#DejaVuSerif-8722"/>
       <use x="83.789062" xlink:href="#DejaVuSerif-48"/>
       <use x="147.412109" xlink:href="#DejaVuSerif-46"/>
       <use x="179.199219" xlink:href="#DejaVuSerif-51"/>
      </g>
     </g>
    </g>
    <g id="ytick_3">
     <g id="line2d_17">
      <path clip-path="url(#pca8858fede)" d="M 57.6 241.056 
L 414.72 241.056 
" style="fill:none;stroke:#b0b0b0;stroke-linecap:square;stroke-width:0.8;"/>
     </g>
     <g id="line2d_18">
      <g>
       <use style="stroke:#000000;stroke-width:0.8;" x="57.6" xlink:href="#m8020325789" y="241.056"/>
      </g>
     </g>
     <g id="text_10">
      <!-- −0.2 -->
      <g transform="translate(26.317187 244.855219)scale(0.1 -0.1)">
       <use xlink:href="#DejaVuSerif-8722"/>
       <use x="83.789062" xlink:href="#DejaVuSerif-48"/>
       <use x="147.412109" xlink:href="#DejaVuSerif-46"/>
       <use x="179.199219" xlink:href="#DejaVuSerif-50"/>
      </g>
     </g>
    </g>
    <g id="ytick_4">
     <g id="line2d_19">
      <path clip-path="url(#pca8858fede)" d="M 57.6 207.792 
L 414.72 207.792 
" style="fill:none;stroke:#b0b0b0;stroke-linecap:square;stroke-width:0.8;"/>
     </g>
     <g id="line2d_20">
      <g>
       <use style="stroke:#000000;stroke-width:0.8;" x="57.6" xlink:href="#m8020325789" y="207.792"/>
      </g>
     </g>
     <g id="text_11">
      <!-- −0.1 -->
      <g transform="translate(26.317187 211.591219)scale(0.1 -0.1)">
       <use xlink:href="#DejaVuSerif-8722"/>
       <use x="83.789062" xlink:href="#DejaVuSerif-48"/>
       <use x="147.412109" xlink:href="#DejaVuSerif-46"/>
       <use x="179.199219" xlink:href="#DejaVuSerif-49"/>
      </g>
     </g>
    </g>
    <g id="ytick_5">
     <g id="line2d_21">
      <path clip-path="url(#pca8858fede)" d="M 57.6 174.528 
L 414.72 174.528 
" style="fill:none;stroke:#b0b0b0;stroke-linecap:square;stroke-width:0.8;"/>
     </g>
     <g id="line2d_22">
      <g>
       <use style="stroke:#000000;stroke-width:0.8;" x="57.6" xlink:href="#m8020325789" y="174.528"/>
      </g>
     </g>
     <g id="text_12">
      <!-- 0.0 -->
      <g transform="translate(34.696875 178.327219)scale(0.1 -0.1)">
       <use xlink:href="#DejaVuSerif-48"/>
       <use x="63.623047" xlink:href="#DejaVuSerif-46"/>
       <use x="95.410156" xlink:href="#DejaVuSerif-48"/>
      </g>
     </g>
    </g>
    <g id="ytick_6">
     <g id="line2d_23">
      <path clip-path="url(#pca8858fede)" d="M 57.6 141.264 
L 414.72 141.264 
" style="fill:none;stroke:#b0b0b0;stroke-linecap:square;stroke-width:0.8;"/>
     </g>
     <g id="line2d_24">
      <g>
       <use style="stroke:#000000;stroke-width:0.8;" x="57.6" xlink:href="#m8020325789" y="141.264"/>
      </g>
     </g>
     <g id="text_13">
      <!-- 0.1 -->
      <g transform="translate(34.696875 145.063219)scale(0.1 -0.1)">
       <use xlink:href="#DejaVuSerif-48"/>
       <use x="63.623047" xlink:href="#DejaVuSerif-46"/>
       <use x="95.410156" xlink:href="#DejaVuSerif-49"/>
      </g>
     </g>
    </g>
    <g id="ytick_7">
     <g id="line2d_25">
      <path clip-path="url(#pca8858fede)" d="M 57.6 108 
L 414.72 108 
" style="fill:none;stroke:#b0b0b0;stroke-linecap:square;stroke-width:0.8;"/>
     </g>
     <g id="line2d_26">
      <g>
       <use style="stroke:#000000;stroke-width:0.8;" x="57.6" xlink:href="#m8020325789" y="108"/>
      </g>
     </g>
     <g id="text_14">
      <!-- 0.2 -->
      <g transform="translate(34.696875 111.799219)scale(0.1 -0.1)">
       <use xlink:href="#DejaVuSerif-48"/>
       <use x="63.623047" xlink:href="#DejaVuSerif-46"/>
       <use x="95.410156" xlink:href="#DejaVuSerif-50"/>
      </g>
     </g>
    </g>
    <g id="ytick_8">
     <g id="line2d_27">
      <path clip-path="url(#pca8858fede)" d="M 57.6 74.736 
L 414.72 74.736 
" style="fill:none;stroke:#b0b0b0;stroke-linecap:square;stroke-width:0.8;"/>
     </g>
     <g id="line2d_28">
      <g>
       <use style="stroke:#000000;stroke-width:0.8;" x="57.6" xlink:href="#m8020325789" y="74.736"/>
      </g>
     </g>
     <g id="text_15">
      <!-- 0.3 -->
      <g transform="translate(34.696875 78.535219)scale(0.1 -0.1)">
       <use xlink:href="#DejaVuSerif-48"/>
       <use x="63.623047" xlink:href="#DejaVuSerif-46"/>
       <use x="95.410156" xlink:href="#DejaVuSerif-51"/>
      </g>
     </g>
    </g>
    <g id="ytick_9">
     <g id="line2d_29">
      <path clip-path="url(#pca8858fede)" d="M 57.6 41.472 
L 414.72 41.472 
" style="fill:none;stroke:#b0b0b0;stroke-linecap:square;stroke-width:0.8;"/>
     </g>
     <g id="line2d_30">
      <g>
       <use style="stroke:#000000;stroke-width:0.8;" x="57.6" xlink:href="#m8020325789" y="41.472"/>
      </g>
     </g>
     <g id="text_16">
      <!-- 0.4 -->
      <g transform="translate(34.696875 45.271219)scale(0.1 -0.1)">
       <use xlink:href="#DejaVuSerif-48"/>
       <use x="63.623047" xlink:href="#DejaVuSerif-46"/>
       <use x="95.410156" xlink:href="#DejaVuSerif-52"/>
      </g>
     </g>
    </g>
    <g id="text_17">
     <!-- Speed -->
     <g transform="translate(18.781719 201.295031)rotate(-90)scale(0.17 -0.17)">
      <defs>
       <path d="M 9.28125 3.515625 
L 9.28125 20.125 
L 14.890625 20.0625 
Q 15.140625 11.765625 19.703125 7.78125 
Q 24.265625 3.8125 33.59375 3.8125 
Q 42.28125 3.8125 46.84375 7.25 
Q 51.421875 10.6875 51.421875 17.28125 
Q 51.421875 22.5625 48.65625 25.390625 
Q 45.90625 28.21875 37.015625 30.90625 
L 27.390625 33.796875 
Q 16.9375 36.96875 12.671875 41.703125 
Q 8.40625 46.4375 8.40625 54.6875 
Q 8.40625 63.96875 14.984375 69.09375 
Q 21.578125 74.21875 33.5 74.21875 
Q 38.578125 74.21875 44.625 73.109375 
Q 50.6875 72.015625 57.515625 69.921875 
L 57.515625 54.390625 
L 52 54.390625 
Q 51.171875 62.109375 46.84375 65.546875 
Q 42.53125 69 33.6875 69 
Q 25.984375 69 21.953125 65.84375 
Q 17.921875 62.703125 17.921875 56.6875 
Q 17.921875 51.46875 20.9375 48.484375 
Q 23.96875 45.515625 33.796875 42.578125 
L 42.828125 39.890625 
Q 52.734375 36.921875 56.953125 32.296875 
Q 61.1875 27.6875 61.1875 19.921875 
Q 61.1875 9.328125 54.390625 3.953125 
Q 47.609375 -1.421875 34.1875 -1.421875 
Q 28.171875 -1.421875 21.9375 -0.1875 
Q 15.71875 1.03125 9.28125 3.515625 
z
" id="DejaVuSerif-83"/>
       <path d="M 20.515625 28.515625 
L 20.515625 23.390625 
Q 20.515625 14.015625 24.09375 9.109375 
Q 27.6875 4.203125 34.515625 4.203125 
Q 41.40625 4.203125 44.9375 9.71875 
Q 48.484375 15.234375 48.484375 25.984375 
Q 48.484375 36.765625 44.9375 42.234375 
Q 41.40625 47.703125 34.515625 47.703125 
Q 27.6875 47.703125 24.09375 42.765625 
Q 20.515625 37.84375 20.515625 28.515625 
z
M 11.53125 46.6875 
L 2.875 46.6875 
L 2.875 51.90625 
L 20.515625 51.90625 
L 20.515625 43.796875 
Q 23.140625 48.6875 27.21875 51 
Q 31.296875 53.328125 37.3125 53.328125 
Q 46.875 53.328125 52.921875 45.75 
Q 58.984375 38.1875 58.984375 25.984375 
Q 58.984375 13.765625 52.921875 6.171875 
Q 46.875 -1.421875 37.3125 -1.421875 
Q 31.296875 -1.421875 27.21875 0.890625 
Q 23.140625 3.21875 20.515625 8.109375 
L 20.515625 -15.578125 
L 29 -15.578125 
L 29 -20.796875 
L 2.875 -20.796875 
L 2.875 -15.578125 
L 11.53125 -15.578125 
z
" id="DejaVuSerif-112"/>
       <path d="M 52.484375 5.171875 
L 61.078125 5.171875 
L 61.078125 0 
L 43.5 0 
L 43.5 8.109375 
Q 40.875 3.21875 36.796875 0.890625 
Q 32.71875 -1.421875 26.703125 -1.421875 
Q 17.140625 -1.421875 11.0625 6.171875 
Q 4.984375 13.765625 4.984375 25.984375 
Q 4.984375 38.1875 11.03125 45.75 
Q 17.09375 53.328125 26.703125 53.328125 
Q 32.71875 53.328125 36.796875 51 
Q 40.875 48.6875 43.5 43.796875 
L 43.5 70.796875 
L 35.015625 70.796875 
L 35.015625 75.984375 
L 52.484375 75.984375 
z
M 43.5 23.390625 
L 43.5 28.515625 
Q 43.5 37.84375 39.90625 42.765625 
Q 36.328125 47.703125 29.5 47.703125 
Q 22.5625 47.703125 19.015625 42.234375 
Q 15.484375 36.765625 15.484375 25.984375 
Q 15.484375 15.234375 19.015625 9.71875 
Q 22.5625 4.203125 29.5 4.203125 
Q 36.328125 4.203125 39.90625 9.109375 
Q 43.5 14.015625 43.5 23.390625 
z
" id="DejaVuSerif-100"/>
      </defs>
      <use xlink:href="#DejaVuSerif-83"/>
      <use x="68.505859" xlink:href="#DejaVuSerif-112"/>
      <use x="132.519531" xlink:href="#DejaVuSerif-101"/>
      <use x="191.699219" xlink:href="#DejaVuSerif-101"/>
      <use x="250.878906" xlink:href="#DejaVuSerif-100"/>
     </g>
    </g>
   </g>
   <g id="LineCollection_1">
    <path clip-path="url(#pca8858fede)" d="M 73.832727 174.528 
L 398.487273 174.528 
" style="fill:none;stroke:#696969;stroke-width:1.5;"/>
   </g>
   <g id="line2d_31">
    <path clip-path="url(#pca8858fede)" d="M 73.832727 91.368 
L 73.897795 174.528 
L 73.930329 91.368 
L 73.962862 91.368 
L 74.092997 174.528 
L 74.125531 108 
L 74.223133 119.088 
L 74.2882 119.088 
L 74.320734 79.488 
L 74.353268 127.008 
L 74.385801 127.008 
L 74.450869 127.008 
L 74.483403 132.948 
L 74.54847 91.368 
L 74.581004 132.948 
L 74.613538 132.948 
L 74.646072 137.568 
L 74.776207 100.608 
L 74.808741 108 
L 74.841274 141.264 
L 74.906342 108 
L 74.938876 108 
L 75.069011 144.288 
L 75.101545 114.048 
L 75.199146 119.088 
L 75.23168 119.088 
L 75.264213 146.808 
L 75.329281 123.352615 
L 75.426882 123.352615 
L 75.459416 127.008 
L 75.524484 103.248 
L 75.557017 127.008 
L 75.589551 127.008 
L 75.654619 130.176 
L 75.75222 108 
L 75.784754 112.158 
L 75.882355 132.948 
L 75.914889 112.158 
L 76.01249 115.826824 
L 76.077558 135.393882 
L 76.110092 119.088 
L 76.240227 119.088 
L 76.27276 122.005895 
L 76.305294 139.513263 
L 76.370362 122.005895 
L 76.402896 122.005895 
L 76.533031 124.632 
L 76.565564 124.632 
L 76.6957 127.008 
L 76.728233 127.008 
L 76.760767 129.168 
L 76.793301 114.048 
L 76.858368 129.168 
L 76.890902 129.168 
L 76.988503 131.140174 
L 77.053571 116.677565 
L 77.086105 119.088 
L 77.21624 132.948 
L 77.346375 121.3056 
L 77.443976 136.146462 
L 77.541578 123.352615 
L 77.574111 125.248 
L 77.639179 125.248 
L 77.704247 137.568 
L 77.73678 127.008 
L 77.866915 127.008 
L 77.997051 128.646621 
L 78.029584 128.646621 
L 78.159719 130.176 
L 78.192253 119.088 
L 78.257321 131.60671 
L 78.354922 131.60671 
L 78.41999 132.948 
L 78.485057 122.553 
L 78.517591 132.948 
L 78.647726 134.208 
L 78.68026 134.208 
L 78.810395 125.610353 
L 78.94053 136.512 
L 79.005598 127.008 
L 79.070665 128.328 
L 79.103199 128.328 
L 79.2008 138.566919 
L 79.330935 129.576649 
L 79.396003 130.759579 
L 79.46107 139.513263 
L 79.493604 130.759579 
L 79.623739 131.881846 
L 79.656273 131.881846 
L 79.786408 132.948 
L 79.818942 132.948 
L 79.949077 133.962146 
L 79.981611 133.962146 
L 80.046678 127.008 
L 80.079212 134.928 
L 80.14428 134.928 
L 80.274415 135.84893 
L 80.306949 128.113116 
L 80.372016 129.168 
L 80.502151 137.568 
L 80.534685 137.568 
L 80.632286 130.176 
L 80.66482 131.140174 
L 80.697354 131.140174 
L 80.827489 139.140766 
L 80.957624 132.063319 
L 81.022692 132.948 
L 81.087759 139.878 
L 81.120293 132.948 
L 81.250428 133.796571 
L 81.282962 133.796571 
L 81.348029 134.6112 
L 81.380563 141.264 
L 81.445631 134.6112 
L 81.575766 135.393882 
L 81.6083 135.393882 
L 81.738435 136.146462 
L 81.770968 136.146462 
L 81.901104 136.870642 
L 81.933637 136.870642 
L 81.966171 137.568 
L 82.031239 131.408 
L 82.063772 137.568 
L 82.096306 137.568 
L 82.226441 138.24 
L 82.258975 138.24 
L 82.356576 132.948 
L 82.486712 139.513263 
L 82.551779 139.513263 
L 82.584313 133.677474 
L 82.681914 134.381793 
L 82.714448 134.381793 
L 82.844583 140.700203 
L 82.877117 140.700203 
L 82.909651 135.062237 
L 83.007252 135.72 
L 83.039786 135.72 
L 83.169921 141.809311 
L 83.234988 136.356197 
L 83.300056 136.971871 
L 83.397657 136.971871 
L 83.430191 137.568 
L 83.495259 142.848 
L 83.527792 137.568 
L 83.560326 137.568 
L 83.690461 138.1455 
L 83.722995 138.1455 
L 83.85313 138.705231 
L 83.885664 138.705231 
L 84.015799 139.248 
L 84.048333 139.248 
L 84.1134 139.774567 
L 84.145934 134.809791 
L 84.211002 139.774567 
L 84.341137 140.285647 
L 84.373671 140.285647 
L 84.438738 140.781913 
L 84.503806 135.961043 
L 84.536339 140.781913 
L 84.666475 141.264 
L 84.699008 141.264 
L 84.764076 141.732507 
L 84.861677 137.047437 
L 84.894211 137.568 
L 85.024346 142.188 
L 85.089414 142.631014 
L 85.187015 138.074301 
L 85.219549 138.566919 
L 85.284616 138.566919 
L 85.414751 143.4816 
L 85.512353 139.0464 
L 85.544886 139.513263 
L 85.642488 139.513263 
L 85.772623 144.288 
L 85.83769 139.968 
L 85.902758 140.411077 
L 86.000359 140.411077 
L 86.065427 140.842937 
L 86.097961 145.05357 
L 86.163028 140.842937 
L 86.293163 141.264 
L 86.325697 141.264 
L 86.423298 141.674667 
L 86.455832 145.781333 
L 86.5209 142.075317 
L 86.651035 142.075317 
L 86.78117 142.466313 
L 86.813704 142.466313 
L 86.846237 138.888 
L 86.878771 142.848 
L 86.911305 142.848 
L 86.976373 142.848 
L 87.106508 143.220706 
L 87.139041 143.220706 
L 87.171575 143.584744 
L 87.236643 139.716837 
L 87.269177 143.584744 
L 87.30171 143.584744 
L 87.431845 143.940414 
L 87.464379 143.940414 
L 87.529447 144.288 
L 87.627048 140.508 
L 87.659582 140.890247 
L 87.789717 144.627775 
L 87.887318 144.96 
L 87.952386 141.264 
L 88.017453 141.629538 
L 88.049987 141.629538 
L 88.180122 145.602783 
L 88.24519 145.602783 
L 88.277724 141.98713 
L 88.375325 142.337032 
L 88.440392 142.337032 
L 88.472926 142.679489 
L 88.603061 146.218213 
L 88.733196 143.014737 
L 88.76573 143.014737 
L 88.895865 143.343 
L 88.993467 147.093773 
L 89.091068 143.664495 
L 89.123602 143.979429 
L 89.253737 143.979429 
L 89.318804 144.288 
L 89.351338 147.648 
L 89.416406 144.288 
L 89.546541 144.5904 
L 89.579075 144.5904 
L 89.70921 144.886812 
L 89.741743 144.886812 
L 89.774277 141.916235 
L 89.806811 145.177412 
L 89.839345 145.177412 
L 89.904412 145.177412 
L 90.034547 145.462369 
L 90.067081 145.462369 
L 90.132149 145.741846 
L 90.197216 142.543385 
L 90.22975 145.741846 
L 90.359885 146.016 
L 90.392419 146.016 
L 90.522554 146.284981 
L 90.555088 143.146868 
L 90.652689 143.44015 
L 90.782824 146.808 
L 90.880426 146.808 
L 90.912959 147.062312 
L 91.043094 144.010569 
L 91.108162 144.288 
L 91.238297 147.557189 
L 91.335898 147.557189 
L 91.368432 144.560432 
L 91.466034 144.828 
L 91.531101 144.828 
L 91.563635 145.090832 
L 91.69377 148.034549 
L 91.726304 148.266947 
L 91.856439 145.349053 
L 91.986574 145.602783 
L 92.116709 148.719724 
L 92.149243 148.719724 
L 92.181777 145.852138 
L 92.279378 146.097231 
L 92.344446 146.097231 
L 92.442047 146.338169 
L 92.539648 149.370353 
L 92.669783 146.575059 
L 92.799918 146.808 
L 92.832452 146.808 
L 92.930053 147.037091 
L 92.962587 149.786182 
L 93.027655 147.262426 
L 93.15779 147.262426 
L 93.287925 147.484098 
L 93.320459 147.484098 
L 93.450594 147.702194 
L 93.483128 147.702194 
L 93.613263 147.9168 
L 93.645797 147.9168 
L 93.775932 148.128 
L 93.808465 148.128 
L 93.840999 148.335874 
L 93.873533 145.716661 
L 93.938601 148.335874 
L 93.971134 148.335874 
L 94.101269 148.5405 
L 94.133803 148.5405 
L 94.263938 148.741953 
L 94.296472 146.163349 
L 94.36154 146.381538 
L 94.491675 149.135634 
L 94.62181 149.135634 
L 94.686877 149.328 
L 94.784479 146.808 
L 94.817012 147.016421 
L 94.849546 147.016421 
L 94.979681 149.704119 
L 95.109816 149.704119 
L 95.14235 149.888 
L 95.272485 147.424 
L 95.337553 147.623294 
L 95.467688 150.247708 
L 95.597823 150.247708 
L 95.727958 148.013217 
L 95.760492 148.013217 
L 95.858093 148.203971 
L 95.988228 150.768 
L 96.053296 150.768 
L 96.08583 148.392 
L 96.183431 148.577362 
L 96.248499 148.577362 
L 96.3461 148.760113 
L 96.476235 151.266462 
L 96.508769 151.266462 
L 96.573836 148.940308 
L 96.638904 149.118 
L 96.736505 149.118 
L 96.86664 149.293241 
L 96.964242 151.744438 
L 97.061843 149.466082 
L 97.094377 149.636571 
L 97.224512 149.636571 
L 97.354647 149.804757 
L 97.452248 152.203168 
L 97.54985 149.970685 
L 97.582383 150.1344 
L 97.712518 150.1344 
L 97.842654 150.295947 
L 97.875187 150.295947 
L 97.907721 150.455368 
L 97.940255 152.643789 
L 98.005322 150.455368 
L 98.037856 150.455368 
L 98.167991 150.612706 
L 98.200525 150.612706 
L 98.33066 150.768 
L 98.363194 150.768 
L 98.493329 150.92129 
L 98.525863 150.92129 
L 98.655998 151.072615 
L 98.688532 151.072615 
L 98.818667 151.222013 
L 98.851201 151.222013 
L 98.916268 151.369519 
L 98.981336 149.264203 
L 99.013869 151.369519 
L 99.144005 151.51517 
L 99.176538 151.51517 
L 99.306673 151.659 
L 99.339207 151.659 
L 99.404275 151.801043 
L 99.501876 149.734957 
L 99.53441 149.888 
L 99.664545 151.941333 
L 99.79468 152.079902 
L 99.827214 152.079902 
L 99.892281 152.21678 
L 99.989883 150.188488 
L 100.022417 150.336 
L 100.05495 150.336 
L 100.185085 152.48559 
L 100.315221 152.48559 
L 100.412822 152.617581 
L 100.477889 150.625725 
L 100.542957 150.768 
L 100.608024 150.768 
L 100.73816 152.876876 
L 100.803227 152.876876 
L 100.933362 153.004235 
L 100.965896 151.047529 
L 101.063497 151.184842 
L 101.128565 151.184842 
L 101.193632 151.320558 
L 101.323768 153.37748 
L 101.453903 153.37748 
L 101.584038 151.58731 
L 101.616572 151.58731 
L 101.746707 151.7184 
L 101.876842 153.738 
L 101.941909 153.738 
L 101.974443 153.855458 
L 102.104578 151.976136 
L 102.234713 152.102831 
L 102.267247 152.102831 
L 102.332315 152.228112 
L 102.46245 154.2 
L 102.527517 154.2 
L 102.592585 152.352 
L 102.657652 152.474519 
L 102.755254 152.474519 
L 102.885389 152.595692 
L 103.015524 154.533246 
L 103.048058 154.533246 
L 103.080591 152.715541 
L 103.178193 152.834087 
L 103.24326 152.834087 
L 103.373395 152.951351 
L 103.405929 152.951351 
L 103.503531 153.067355 
L 103.601132 154.960941 
L 103.731267 153.182118 
L 103.861402 153.29566 
L 103.893936 153.29566 
L 104.024071 153.408 
L 104.056605 153.408 
L 104.121672 153.519158 
L 104.154206 155.269895 
L 104.219274 153.519158 
L 104.349409 153.629152 
L 104.544611 153.738 
L 104.674746 153.84572 
L 104.869949 153.95233 
L 105.000084 154.057846 
L 105.195287 154.162286 
L 105.292888 154.265665 
L 105.325422 152.577137 
L 105.390489 154.368 
L 105.683293 154.469307 
L 105.813429 154.5696 
L 105.878496 154.668896 
L 105.943564 153.01397 
L 105.976097 154.668896 
L 106.1713 154.767208 
L 106.301435 154.864552 
L 106.464104 154.960941 
L 106.496638 153.330353 
L 106.561705 153.433756 
L 106.691841 155.150913 
L 106.984644 155.244522 
L 107.082246 155.337231 
L 107.147313 153.738 
L 107.212381 153.837474 
L 107.342516 155.52 
L 107.63532 155.610085 
L 107.700388 155.699321 
L 107.797989 154.130264 
L 107.830523 154.226028 
L 107.863056 154.226028 
L 107.993192 155.87529 
L 108.285995 155.962047 
L 108.416131 154.508 
L 108.513732 154.600258 
L 108.643867 156.217541 
L 108.936671 156.301151 
L 109.066806 154.872 
L 109.164407 154.960941 
L 109.294543 156.547459 
L 109.554813 156.62809 
L 109.587347 155.13643 
L 109.684948 155.223 
L 109.847617 155.3088 
L 109.977752 156.865699 
L 110.205488 156.943507 
L 110.238022 155.478132 
L 110.335623 155.561684 
L 110.498292 155.644507 
L 110.628427 157.17287 
L 110.856164 157.248 
L 110.888698 155.808 
L 110.986299 155.88869 
L 111.181502 155.968687 
L 111.311637 157.469538 
L 111.539373 157.542128 
L 111.669508 156.20461 
L 111.864711 156.281924 
L 111.897245 156.358588 
L 112.02738 157.756235 
L 112.157515 157.82641 
L 112.190049 157.82641 
L 112.320184 156.51 
L 112.515386 156.584763 
L 112.612988 156.658909 
L 112.743123 158.101333 
L 112.873258 158.168656 
L 113.003393 156.805377 
L 113.133528 156.877714 
L 113.296197 156.949463 
L 113.426332 158.367352 
L 113.589001 158.432516 
L 113.654068 157.091226 
L 113.719136 157.161253 
L 113.979406 157.23072 
L 114.044474 157.299633 
L 114.174609 158.688 
L 114.304744 158.688 
L 114.434879 157.435826 
L 114.630082 157.503118 
L 114.760217 157.569882 
L 114.890352 158.9355 
L 115.020487 158.996171 
L 115.118088 157.701852 
L 115.150622 157.76707 
L 115.443426 157.831784 
L 115.541027 157.896 
L 115.671163 159.234207 
L 115.768764 159.234207 
L 115.898899 158.022962 
L 116.094102 158.085719 
L 116.224237 158.148 
L 116.321838 158.209811 
L 116.451973 159.521684 
L 116.517041 159.521684 
L 116.582108 158.271158 
L 116.647176 158.332045 
L 116.907446 158.392478 
L 117.037581 158.452461 
L 117.167716 159.744 
L 117.265318 159.798554 
L 117.395453 158.5711 
L 117.525588 158.629765 
L 117.72079 158.688 
L 117.850925 158.74581 
L 117.981061 160.0128 
L 118.046128 160.0128 
L 118.176263 158.860174 
L 118.371466 158.916736 
L 118.501601 158.972892 
L 118.631736 159.028645 
L 118.761871 160.272 
L 118.826939 160.272 
L 118.859473 159.084 
L 118.957074 159.138961 
L 119.347479 159.247717 
L 119.44508 159.301521 
L 119.575216 160.522105 
L 119.640283 160.522105 
L 119.672817 159.354947 
L 119.770418 159.408 
L 120.160824 159.513 
L 120.258425 159.564955 
L 120.38856 160.763586 
L 120.486161 160.763586 
L 120.616296 159.667794 
L 120.974168 159.769229 
L 121.104303 159.819429 
L 121.234438 160.996881 
L 121.299506 160.996881 
L 121.429641 159.918811 
L 121.787512 160.016859 
L 121.917647 160.065391 
L 122.047783 161.2224 
L 122.177918 161.266605 
L 122.275519 160.161488 
L 122.308053 160.20906 
L 122.763526 160.303263 
L 122.796059 160.349902 
L 122.926194 161.440525 
L 123.05633 161.483294 
L 123.088863 160.396235 
L 123.186465 160.442267 
L 123.57687 160.533437 
L 123.674471 160.578581 
L 123.804606 161.693016 
L 123.967275 161.734154 
L 124.064877 160.668 
L 124.09741 160.712281 
L 124.552883 160.8 
L 124.585417 160.843443 
L 124.715552 161.896101 
L 124.878221 161.93595 
L 125.008356 160.929509 
L 125.366228 161.0145 
L 125.463829 161.056598 
L 125.593964 162.131478 
L 125.8217 162.169858 
L 125.854234 161.140012 
L 125.951836 161.181333 
L 126.342241 161.263215 
L 126.407308 161.30378 
L 126.537444 162.358244 
L 126.797714 162.395234 
L 126.830248 161.38417 
L 126.927849 161.424 
L 127.318254 161.50294 
L 127.350788 161.542054 
L 127.480923 162.540973 
L 127.676126 162.612537 
L 127.773727 162.612537 
L 127.806261 161.619582 
L 127.903862 161.658 
L 128.261734 161.734154 
L 128.391869 162.753133 
L 128.782274 162.822194 
L 128.912409 161.883789 
L 129.237747 161.957302 
L 129.367882 162.957913 
L 129.855889 163.057655 
L 129.920956 162.101793 
L 129.986024 162.137398 
L 130.21376 162.1728 
L 130.343895 163.155692 
L 130.896969 163.252068 
L 130.929503 163.283831 
L 131.059638 162.346817 
L 131.254841 162.415059 
L 131.384976 163.346824 
L 131.580179 163.409114 
L 132.035652 163.470715 
L 132.165787 162.582365 
L 132.295922 162.615273 
L 132.426057 163.561846 
L 133.011665 163.651488 
L 133.174334 163.681043 
L 133.304469 162.808976 
L 133.434604 163.739676 
L 133.987678 163.826445 
L 134.215415 163.88352 
L 134.378083 163.91183 
L 134.410617 163.027149 
L 134.475685 163.91183 
L 134.703421 163.968 
L 135.451698 164.078576 
L 135.516766 164.105859 
L 135.614367 164.974371 
L 135.744502 164.133 
L 136.427711 164.240165 
L 136.655448 164.292923 
L 136.785583 165.169841 
L 136.883184 165.169841 
L 136.915718 164.3191 
L 137.013319 164.345143 
L 137.729062 164.448 
L 137.79413 164.47339 
L 137.924265 165.334432 
L 138.217069 165.357474 
L 138.347204 164.5488 
L 138.965346 164.647604 
L 139.095481 165.493333 
L 139.616021 165.559765 
L 139.681089 164.744471 
L 139.746156 164.768391 
L 140.201629 164.839456 
L 140.331764 165.646835 
L 140.592035 165.689739 
L 141.080041 165.753324 
L 141.145109 164.955626 
L 141.210176 164.978526 
L 141.405379 165.001317 
L 141.535514 165.816 
L 142.44646 165.918494 
L 142.641662 165.95882 
L 142.674196 165.179803 
L 142.739264 165.95882 
L 143.585142 166.058 
L 143.845412 166.097032 
L 144.008081 166.116414 
L 144.138216 166.898642 
L 144.268351 166.916101 
L 144.398486 166.154911 
L 144.658756 166.193057 
L 145.341966 166.268316 
L 145.472101 167.036108 
L 145.992641 167.086389 
L 146.025175 166.342228 
L 146.122776 166.3605 
L 146.740918 166.432779 
L 146.871053 167.184954 
L 147.847066 167.280941 
L 147.977202 166.556235 
L 148.172404 166.59082 
L 148.302539 167.312382 
L 148.595343 167.343551 
L 149.668958 167.450553 
L 149.799093 168.171822 
L 149.864161 168.171822 
L 149.929228 167.46558 
L 149.994296 167.480542 
L 151.198045 167.583532 
L 151.32818 168.291 
L 152.043924 168.342545 
L 152.174059 167.669443 
L 152.7922 167.725546 
L 152.922335 168.418286 
L 154.451423 168.528481 
L 154.51649 169.20576 
L 154.549024 168.54048 
L 156.110645 168.64635 
L 156.208247 168.657882 
L 156.338382 169.320329 
L 157.346929 169.380766 
L 157.411996 168.737362 
L 157.477064 168.748541 
L 158.030138 168.78182 
L 158.160273 169.430069 
L 159.982165 169.53528 
L 160.1123 170.167551 
L 160.762975 170.19997 
L 160.828043 169.58168 
L 160.89311 169.590857 
L 162.031793 169.654154 
L 162.161928 170.271181 
L 164.179022 170.362562 
L 164.309157 170.964 
L 165.415305 171.008 
L 165.54544 170.421333 
L 166.163582 170.450102 
L 166.48892 170.464335 
L 166.619055 171.050927 
L 169.026554 171.139477 
L 169.156689 171.709017 
L 171.759391 171.783446 
L 171.889527 172.332356 
L 173.12581 172.360964 
L 174.8501 172.399104 
L 174.980235 172.931328 
L 176.737059 172.958943 
L 178.363748 172.983232 
L 178.493883 173.499747 
L 182.658206 173.539471 
L 182.788341 174.033736 
L 185.35851 174.045213 
L 185.488645 174.528 
L 188.449218 174.528 
L 188.579353 174.997168 
L 190.368711 174.99 
L 190.498846 175.450718 
L 194.142629 175.423397 
L 194.272764 175.86929 
L 197.363473 175.83589 
L 197.493608 176.269571 
L 200.193911 176.233846 
L 200.324046 176.657577 
L 202.764079 176.617447 
L 202.894215 177.032191 
L 205.139045 176.988962 
L 205.236646 177.399122 
L 205.26918 177.395586 
L 207.351342 177.353825 
L 207.481477 177.7536 
L 209.466037 177.707355 
L 209.596172 178.100506 
L 211.483131 178.050071 
L 211.580733 178.441412 
L 211.613266 178.436813 
L 215.224515 178.338309 
L 215.322117 178.71934 
L 215.354651 178.714545 
L 217.013873 178.667186 
L 217.111474 179.043475 
L 217.144008 179.038373 
L 218.738163 178.992966 
L 218.868298 179.359642 
L 219.649109 179.3328 
L 219.779244 178.958277 
L 220.397386 178.938696 
L 220.527521 179.306254 
L 221.405933 179.274784 
L 222.024075 179.254033 
L 222.15421 179.617574 
L 223.000088 179.584417 
L 223.61823 179.568 
L 223.748365 179.922162 
L 224.366506 179.898936 
L 224.496641 179.535484 
L 225.147317 179.514039 
L 225.244918 179.870184 
L 225.277452 179.864471 
L 226.676404 179.819198 
L 226.80654 180.165966 
L 228.140424 180.118588 
L 228.270559 180.461767 
L 228.400695 180.455547 
L 228.53083 180.101026 
L 229.604444 180.066231 
L 229.734579 180.406254 
L 231.03593 180.357773 
L 231.100998 180.700701 
L 231.166065 180.694344 
L 231.946876 180.662754 
L 232.077011 180.321934 
L 232.434883 180.30418 
L 232.565018 180.643955 
L 233.313295 180.612878 
L 233.801301 180.594383 
L 233.866369 180.931404 
L 233.931436 180.924923 
L 235.135186 180.87992 
L 235.16772 180.545608 
L 235.232787 180.873542 
L 236.501605 180.82298 
L 236.63174 181.154295 
L 237.347483 181.121459 
L 237.802956 181.101913 
L 237.933091 181.430609 
L 238.128293 181.416994 
L 238.258429 181.088947 
L 238.974172 181.056754 
L 239.104307 181.050353 
L 239.234442 181.376471 
L 239.917651 181.343063 
L 240.373124 181.329792 
L 240.503259 181.646755 
L 240.893664 181.626041 
L 241.023799 181.303403 
L 241.641941 181.277217 
L 241.772076 181.591784 
L 242.910758 181.544376 
L 242.975826 181.863302 
L 243.040894 181.856276 
L 243.5289 181.835278 
L 243.659035 181.510901 
L 244.147042 181.490969 
L 244.277177 181.807467 
L 244.960386 181.773 
L 245.350792 181.759304 
L 245.415859 182.073709 
L 245.480927 182.066584 
L 246.034001 182.045288 
L 246.164136 181.725291 
L 246.554541 181.711775 
L 246.684676 182.017081 
L 247.758291 181.968224 
L 247.855892 182.278233 
L 247.888426 182.271017 
L 248.4415 182.249448 
L 248.571635 181.933714 
L 248.929507 181.92 
L 248.994574 182.228 
L 249.059642 182.220877 
L 250.100723 182.178414 
L 250.230858 182.477118 
L 250.718865 182.455259 
L 250.849 182.143385 
L 251.271939 182.129463 
L 251.402074 182.426301 
L 252.410621 182.383259 
L 252.540756 182.677982 
L 252.963695 182.655855 
L 253.09383 182.347747 
L 253.549303 182.333632 
L 253.679438 182.626539 
L 254.687985 182.58296 
L 254.81812 182.873806 
L 255.110924 182.858877 
L 255.241059 182.554166 
L 255.826667 182.532706 
L 255.956802 182.821785 
L 256.932816 182.777708 
L 257.062951 183.064779 
L 257.193086 183.057231 
L 257.323221 182.755845 
L 258.038964 182.726873 
L 258.104032 183.01969 
L 258.169099 183.012222 
L 259.145112 182.967685 
L 259.21018 183.258709 
L 259.242714 182.967685 
L 259.860855 182.938253 
L 260.218727 182.923614 
L 260.348862 183.205565 
L 261.227274 183.160526 
L 261.324875 182.872775 
L 261.45501 183.153065 
L 262.39849 183.108567 
L 262.496091 183.394586 
L 262.528625 183.386969 
L 263.114233 183.364195 
L 263.244368 183.071836 
L 263.472105 183.064527 
L 263.60224 183.341538 
L 264.513185 183.296571 
L 264.610787 183.579429 
L 264.64332 183.571738 
L 265.033726 183.556397 
L 265.163861 183.266847 
L 265.5868 183.252061 
L 265.716935 183.52587 
L 266.627881 183.480464 
L 266.725482 183.760229 
L 266.758016 183.752471 
L 266.855617 183.752471 
L 266.985752 183.465431 
L 267.668962 183.435515 
L 267.799097 183.706194 
L 269.751123 183.61502 
L 269.816191 183.890384 
L 269.881258 183.88264 
L 270.4994 183.851792 
L 270.629535 183.577563 
L 270.792204 183.570109 
L 270.922339 183.836444 
L 271.800751 183.790703 
L 271.930886 184.063135 
L 272.22369 184.047542 
L 272.353825 183.768 
L 272.841832 183.745408 
L 272.971967 184.008782 
L 273.850379 183.970336 
L 273.882913 184.240117 
L 273.94798 184.232246 
L 274.078115 183.955045 
L 274.858926 183.92461 
L 274.989061 184.18529 
L 275.639737 184.154238 
L 275.769872 183.879325 
L 275.867473 183.87182 
L 275.997608 184.138787 
L 276.583216 184.108032 
L 276.87602 184.092728 
L 276.973621 184.358415 
L 277.006155 184.35057 
L 277.331493 184.334916 
L 277.461628 184.069865 
L 277.884567 184.04711 
L 278.014702 184.303759 
L 278.893114 184.265089 
L 278.925648 184.528253 
L 278.990715 184.257391 
L 279.869127 184.219087 
L 279.999262 184.473177 
L 280.58487 184.441976 
L 280.715006 184.181082 
L 280.877674 184.173517 
L 281.007809 184.426449 
L 281.853688 184.387844 
L 281.983823 184.639426 
L 282.146492 184.631551 
L 282.276627 184.364825 
L 282.829701 184.341913 
L 282.959836 184.59236 
L 283.740647 184.553471 
L 283.838248 184.288865 
L 283.968383 184.54573 
L 284.553991 184.514882 
L 284.814261 184.49953 
L 284.944396 184.75521 
L 285.334802 184.731681 
L 285.464937 184.468966 
L 285.790274 184.453754 
L 285.92041 184.70826 
L 286.506018 184.677199 
L 286.766288 184.66174 
L 286.863889 184.915083 
L 286.994024 184.654027 
L 287.742301 184.615642 
L 287.872436 184.867833 
L 288.392977 184.836571 
L 288.523112 184.585143 
L 288.685781 184.577547 
L 288.815916 184.821011 
L 289.661794 184.782316 
L 289.791929 185.024529 
L 289.88953 185.016649 
L 290.019665 184.759238 
L 290.637807 184.736263 
L 290.767942 184.977424 
L 291.386084 184.946255 
L 291.516219 184.690623 
L 291.581287 184.690623 
L 291.711422 184.93074 
L 292.5573 184.892154 
L 292.687435 185.131054 
L 292.850104 185.1232 
L 292.980239 184.86914 
L 293.500779 184.846227 
L 293.630914 185.084103 
L 294.314124 185.053033 
L 294.444259 184.800706 
L 294.476793 184.800706 
L 294.606928 185.037566 
L 295.420272 184.999098 
L 295.517873 185.242612 
L 295.550407 185.234774 
L 295.778144 185.226947 
L 295.908279 184.976152 
L 296.363752 184.953306 
L 296.493887 185.195755 
L 297.079495 185.164744 
L 297.20963 185.15702 
L 297.339765 184.907913 
L 297.4699 185.149306 
L 298.055508 185.118564 
L 298.283244 185.110907 
L 298.413379 185.343607 
L 298.641116 185.328 
L 298.771251 185.088 
L 299.226724 185.065192 
L 299.356859 185.296921 
L 300.040068 185.26602 
L 300.170203 185.019871 
L 300.300338 185.250636 
L 301.113683 185.212368 
L 301.211284 185.449799 
L 301.243818 185.442009 
L 301.471554 185.43423 
L 301.601689 185.189538 
L 302.057162 185.166806 
L 302.187297 185.403224 
L 302.772905 185.372394 
L 302.870507 185.364714 
L 303.000642 185.129133 
L 303.130777 185.357045 
L 303.944121 185.31886 
L 304.074256 185.545674 
L 304.236925 185.537915 
L 304.36706 185.296079 
L 304.887601 185.273393 
L 305.017736 185.499284 
L 305.635878 185.468574 
L 305.766013 185.235796 
L 305.83108 185.228308 
L 305.928682 185.460923 
L 305.961215 185.453283 
L 306.77456 185.415242 
L 306.904695 185.646886 
L 306.969762 185.639148 
L 307.099897 185.4001 
L 307.718039 185.377466 
L 307.848174 185.600621 
L 308.336181 185.577633 
L 308.466316 185.33995 
L 308.661519 185.332478 
L 308.791654 185.55474 
L 309.604998 185.516796 
L 309.670066 185.745729 
L 309.702599 185.738014 
L 309.832735 185.509238 
L 310.450876 185.479111 
L 310.515944 185.471605 
L 310.646079 185.699597 
L 311.036484 185.676673 
L 311.166619 185.441684 
L 311.459423 185.43423 
L 311.589558 185.653843 
L 312.337835 185.616 
L 312.402903 185.389714 
L 312.435437 185.616 
L 313.053578 185.58591 
L 313.313849 185.570927 
L 313.41145 185.796293 
L 313.443984 185.788664 
L 313.67172 185.781045 
L 313.801855 185.548527 
L 314.257328 185.526219 
L 314.387463 185.750672 
L 315.200808 185.489237 
L 315.330943 185.705419 
L 316.111753 185.667987 
L 316.241888 185.883181 
L 316.274422 185.883181 
L 316.404557 185.653084 
L 317.055233 185.623397 
L 317.152834 185.845305 
L 317.185368 185.83776 
L 317.575773 185.8227 
L 317.705908 185.593868 
L 317.966178 185.586511 
L 318.096314 185.800186 
L 318.877124 185.762861 
L 318.909658 185.54257 
L 318.974725 185.755426 
L 319.853137 185.718396 
L 319.983273 185.930294 
L 320.178475 185.922783 
L 320.30861 185.696295 
L 320.764083 185.674281 
L 320.894218 185.892836 
L 321.707563 185.637784 
L 321.837698 185.848209 
L 322.618508 185.811288 
L 322.748643 186.020777 
L 322.878779 185.796586 
L 323.561988 185.767298 
L 323.659589 185.983439 
L 323.692123 185.976 
L 324.017461 185.961152 
L 324.147596 185.745432 
L 324.472934 185.730902 
L 324.603069 185.938951 
L 325.253744 185.909485 
L 325.383879 185.687535 
L 325.514014 185.894809 
L 326.327359 185.858283 
L 326.42496 186.072062 
L 326.457494 186.064647 
L 326.522561 186.064647 
L 326.652696 185.843738 
L 327.238304 185.821991 
L 327.36844 186.027718 
L 327.791379 186.005674 
L 327.921514 185.785931 
L 328.181784 185.778747 
L 328.311919 185.983714 
L 329.060196 185.947301 
L 329.09273 185.735832 
L 329.157797 185.947301 
L 330.003675 185.911118 
L 330.13381 186.114574 
L 330.296479 186.107241 
L 330.426614 185.889518 
L 330.947155 185.868 
L 331.07729 186.070713 
L 331.532763 186.048907 
L 331.662898 185.832317 
L 331.858101 185.825208 
L 331.955702 186.034415 
L 331.988236 186.027183 
L 333.712526 185.955358 
L 333.842661 186.155865 
L 334.00533 186.148611 
L 334.135465 185.933985 
L 334.623471 185.912692 
L 334.721073 186.119686 
L 334.753607 186.112478 
L 335.241613 186.090905 
L 335.371748 185.884425 
L 335.566951 185.870343 
L 335.697086 186.076568 
L 336.315228 186.048 
L 337.388842 185.998345 
L 337.486444 186.203172 
L 337.518977 186.195988 
L 337.71418 186.188812 
L 337.844315 185.977195 
L 338.332322 185.956123 
L 338.462457 186.160196 
L 338.91793 186.138827 
L 339.048065 185.928147 
L 339.243268 185.921174 
L 339.373403 186.117535 
L 341.065159 186.047125 
L 341.195294 186.242098 
L 341.357963 186.23499 
L 341.488098 186.026169 
L 342.008639 186.005288 
L 342.138774 186.199579 
L 342.561713 186.178435 
L 342.691848 185.977565 
L 342.919584 185.963754 
L 343.017186 186.164381 
L 343.049719 186.157367 
L 343.765462 186.129395 
L 343.83053 185.929371 
L 343.863064 186.122423 
L 344.774009 186.087688 
L 344.904145 186.279952 
L 345.001746 186.272919 
L 345.131881 186.073853 
L 345.684955 186.046281 
L 345.782556 186.244872 
L 345.81509 186.237881 
L 346.172962 186.223924 
L 346.303097 186.01884 
L 346.595901 186.012 
L 346.726036 186.203051 
L 347.376711 186.175335 
L 347.506847 185.971132 
L 347.636982 186.161527 
L 348.450326 186.127149 
L 348.547927 186.323745 
L 348.580461 186.316777 
L 348.710596 186.120298 
L 349.361272 186.092973 
L 349.491407 186.282064 
L 349.784211 186.268235 
L 349.914346 186.065778 
L 350.272217 186.052228 
L 350.402353 186.240676 
L 350.955427 186.220091 
L 351.085562 186.018492 
L 351.183163 186.011768 
L 351.313298 186.206408 
L 351.996508 186.172341 
L 352.126643 186.172341 
L 352.159176 186.35951 
L 352.224244 186.165551 
L 353.037588 186.131721 
L 353.167723 186.318261 
L 353.362926 186.311415 
L 353.493061 186.111517 
L 353.948534 186.091384 
L 354.078669 186.284107 
L 354.85948 186.057983 
L 354.989615 186.243381 
L 355.737892 186.209658 
L 355.770426 186.018155 
L 355.835493 186.209658 
L 356.713905 186.169446 
L 356.84404 186.360289 
L 356.909108 186.353505 
L 357.039243 186.156103 
L 357.624851 186.136146 
L 357.754986 186.319698 
L 358.080324 186.30623 
L 358.210459 186.109644 
L 358.535796 186.096438 
L 358.633398 186.286084 
L 358.665932 186.279385 
L 359.25154 186.259331 
L 359.381675 186.063554 
L 359.446742 186.063554 
L 359.576877 186.246 
L 360.357688 186.212805 
L 360.422755 186.401269 
L 360.455289 186.394546 
L 360.585424 186.206188 
L 361.301167 186.173217 
L 361.398769 186.361043 
L 361.431302 186.354366 
L 361.626505 186.347695 
L 361.75664 186.153524 
L 362.212113 186.140432 
L 362.342248 186.321089 
L 362.797721 186.301213 
L 362.927856 186.107832 
L 363.123059 186.101333 
L 363.253194 186.281404 
L 363.968937 186.255096 
L 364.034005 186.062497 
L 364.066538 186.248537 
L 364.94495 186.215853 
L 365.075085 186.394756 
L 365.172687 186.388145 
L 365.302822 186.20283 
L 365.88843 186.176872 
L 366.018565 186.3552 
L 366.343903 186.342073 
L 366.474038 186.151028 
L 366.799375 186.13815 
L 366.929511 186.322438 
L 367.710321 186.106077 
L 367.840456 186.283362 
L 368.621267 186.250996 
L 368.686334 186.434167 
L 368.718868 186.250996 
L 369.434611 186.218807 
L 369.532213 186.218807 
L 369.662348 186.394959 
L 369.825017 186.38845 
L 369.955152 186.199579 
L 370.475692 186.180414 
L 370.605827 186.356009 
L 371.028766 186.336629 
L 371.158901 186.154958 
L 371.386638 186.142272 
L 371.484239 186.323745 
L 371.516773 186.317313 
L 372.199982 186.291656 
L 372.297583 186.110677 
L 372.427719 186.285259 
L 373.208529 186.25338 
L 373.338664 186.427317 
L 373.468799 186.240676 
L 374.119475 186.215351 
L 374.24961 186.395157 
L 374.50988 186.382341 
L 374.640015 186.19643 
L 375.062954 186.183849 
L 375.193089 186.356793 
L 375.681096 186.337704 
L 375.811231 186.152516 
L 375.9739 186.14627 
L 376.104035 186.318677 
L 376.819778 186.293402 
L 376.884846 186.108932 
L 376.91738 186.2871 
L 377.795792 186.255692 
L 377.925927 186.427028 
L 378.023528 186.420679 
L 378.153663 186.243176 
L 378.706737 186.218224 
L 378.804339 186.395348 
L 378.836872 186.389032 
L 379.16221 186.376421 
L 379.292345 186.199579 
L 379.617683 186.187182 
L 379.747818 186.357554 
L 380.333426 186.332492 
L 380.463561 186.150149 
L 380.561162 186.150149 
L 380.691298 186.32 
L 381.472108 186.288887 
L 381.504642 186.464422 
L 381.569709 186.288887 
L 382.317986 186.257937 
L 382.383054 186.257937 
L 382.513189 186.426748 
L 382.643324 186.420492 
L 382.773459 186.239445 
L 383.294 186.221012 
L 383.424135 186.389311 
L 383.81454 186.376884 
L 383.944675 186.196524 
L 384.204945 186.184318 
L 384.33508 186.358293 
L 385.115891 186.153915 
L 385.246026 186.321285 
L 386.026837 186.290621 
L 386.124438 186.463601 
L 386.156972 186.457397 
L 386.287107 186.284507 
L 386.970316 186.254034 
L 387.100451 186.426476 
L 387.295654 186.414152 
L 387.425789 186.241889 
L 387.881262 186.223719 
L 388.011397 186.389581 
L 388.434336 186.37122 
L 388.564471 186.199579 
L 388.792208 186.187546 
L 388.922343 186.352915 
L 389.605552 186.328596 
L 389.703153 186.157573 
L 389.833288 186.322532 
L 390.614099 186.292305 
L 390.744234 186.456689 
L 390.874369 186.280258 
L 391.525045 186.256237 
L 391.65518 186.426212 
L 391.91545 186.414064 
L 392.045585 186.238286 
L 392.43599 186.226349 
L 392.566126 186.389844 
L 393.054132 186.371744 
L 393.184267 186.196612 
L 393.37947 186.190683 
L 393.509605 186.353698 
L 394.192814 186.329723 
L 394.290416 186.155234 
L 394.420551 186.323745 
L 395.168828 186.293942 
L 395.201361 186.293942 
L 395.331497 186.456 
L 395.36403 186.456 
L 395.494165 186.282064 
L 396.112307 186.258378 
L 396.242442 186.419964 
L 396.502712 186.413979 
L 396.632848 186.240676 
L 397.023253 186.228905 
L 397.153388 186.390099 
L 397.706462 186.366316 
L 397.836597 186.199579 
L 397.934199 186.193731 
L 398.064334 186.35446 
L 398.487273 186.342627 
L 398.487273 186.342627 
" style="fill:none;stroke:#6495ed;stroke-linecap:square;stroke-width:1.5;"/>
   </g>
   <g id="patch_3">
    <path d="M 57.6 307.584 
L 57.6 41.472 
" style="fill:none;stroke:#000000;stroke-linecap:square;stroke-linejoin:miter;stroke-width:0.8;"/>
   </g>
   <g id="patch_4">
    <path d="M 414.72 307.584 
L 414.72 41.472 
" style="fill:none;stroke:#000000;stroke-linecap:square;stroke-linejoin:miter;stroke-width:0.8;"/>
   </g>
   <g id="patch_5">
    <path d="M 57.6 307.584 
L 414.72 307.584 
" style="fill:none;stroke:#000000;stroke-linecap:square;stroke-linejoin:miter;stroke-width:0.8;"/>
   </g>
   <g id="patch_6">
    <path d="M 57.6 41.472 
L 414.72 41.472 
" style="fill:none;stroke:#000000;stroke-linecap:square;stroke-linejoin:miter;stroke-width:0.8;"/>
   </g>
  </g>
 </g>
 <defs>
  <clipPath id="pca8858fede">
   <rect height="266.112" width="357.12" x="57.6" y="41.472"/>
  </clipPath>
 </defs>
</svg>
