<?xml version="1.0" encoding="utf-8" standalone="no"?>
<!DOCTYPE svg PUBLIC "-//W3C//DTD SVG 1.1//EN"
  "http://www.w3.org/Graphics/SVG/1.1/DTD/svg11.dtd">
<!-- Created with matplotlib (https://matplotlib.org/) -->
<svg height="345.6pt" version="1.1" viewBox="0 0 460.8 345.6" width="460.8pt" xmlns="http://www.w3.org/2000/svg" xmlns:xlink="http://www.w3.org/1999/xlink">
 <metadata>
  <rdf:RDF xmlns:cc="http://creativecommons.org/ns#" xmlns:dc="http://purl.org/dc/elements/1.1/" xmlns:rdf="http://www.w3.org/1999/02/22-rdf-syntax-ns#">
   <cc:Work>
    <dc:type rdf:resource="http://purl.org/dc/dcmitype/StillImage"/>
    <dc:date>2022-09-07T11:21:21.970272</dc:date>
    <dc:format>image/svg+xml</dc:format>
    <dc:creator>
     <cc:Agent>
      <dc:title>Matplotlib v3.3.4, https://matplotlib.org/</dc:title>
     </cc:Agent>
    </dc:creator>
   </cc:Work>
  </rdf:RDF>
 </metadata>
 <defs>
  <style type="text/css">*{stroke-linecap:butt;stroke-linejoin:round;}</style>
 </defs>
 <g id="figure_1">
  <g id="patch_1">
   <path d="M 0 345.6 
L 460.8 345.6 
L 460.8 0 
L 0 0 
z
" style="fill:#ffffff;"/>
  </g>
  <g id="axes_1">
   <g id="patch_2">
    <path d="M 57.6 307.584 
L 414.72 307.584 
L 414.72 41.472 
L 57.6 41.472 
z
" style="fill:#ffffff;"/>
   </g>
   <g id="matplotlib.axis_1">
    <g id="xtick_1">
     <g id="line2d_1">
      <path clip-path="url(#p38406517c2)" d="M 62.637743 307.584 
L 62.637743 41.472 
" style="fill:none;stroke:#b0b0b0;stroke-linecap:square;stroke-width:0.8;"/>
     </g>
     <g id="line2d_2">
      <defs>
       <path d="M 0 0 
L 0 3.5 
" id="m3f2347e1d6" style="stroke:#000000;stroke-width:0.8;"/>
      </defs>
      <g>
       <use style="stroke:#000000;stroke-width:0.8;" x="62.637743" xlink:href="#m3f2347e1d6" y="307.584"/>
      </g>
     </g>
     <g id="text_1">
      <!-- 0.0 -->
      <g transform="translate(54.68618 322.182437)scale(0.1 -0.1)">
       <defs>
        <path d="M 31.78125 3.421875 
Q 39.265625 3.421875 42.96875 11.625 
Q 46.6875 19.828125 46.6875 36.375 
Q 46.6875 52.984375 42.96875 61.1875 
Q 39.265625 69.390625 31.78125 69.390625 
Q 24.3125 69.390625 20.59375 61.1875 
Q 16.890625 52.984375 16.890625 36.375 
Q 16.890625 19.828125 20.59375 11.625 
Q 24.3125 3.421875 31.78125 3.421875 
z
M 31.78125 -1.421875 
Q 19.921875 -1.421875 13.25 8.53125 
Q 6.59375 18.5 6.59375 36.375 
Q 6.59375 54.296875 13.25 64.25 
Q 19.921875 74.21875 31.78125 74.21875 
Q 43.703125 74.21875 50.34375 64.25 
Q 56.984375 54.296875 56.984375 36.375 
Q 56.984375 18.5 50.34375 8.53125 
Q 43.703125 -1.421875 31.78125 -1.421875 
z
" id="DejaVuSerif-48"/>
        <path d="M 9.421875 5.078125 
Q 9.421875 7.8125 11.28125 9.71875 
Q 13.140625 11.625 15.921875 11.625 
Q 18.609375 11.625 20.5 9.71875 
Q 22.40625 7.8125 22.40625 5.078125 
Q 22.40625 2.390625 20.5 0.484375 
Q 18.609375 -1.421875 15.921875 -1.421875 
Q 13.140625 -1.421875 11.28125 0.453125 
Q 9.421875 2.34375 9.421875 5.078125 
z
" id="DejaVuSerif-46"/>
       </defs>
       <use xlink:href="#DejaVuSerif-48"/>
       <use x="63.623047" xlink:href="#DejaVuSerif-46"/>
       <use x="95.410156" xlink:href="#DejaVuSerif-48"/>
      </g>
     </g>
    </g>
    <g id="xtick_2">
     <g id="line2d_3">
      <path clip-path="url(#p38406517c2)" d="M 118.612665 307.584 
L 118.612665 41.472 
" style="fill:none;stroke:#b0b0b0;stroke-linecap:square;stroke-width:0.8;"/>
     </g>
     <g id="line2d_4">
      <g>
       <use style="stroke:#000000;stroke-width:0.8;" x="118.612665" xlink:href="#m3f2347e1d6" y="307.584"/>
      </g>
     </g>
     <g id="text_2">
      <!-- 0.5 -->
      <g transform="translate(110.661102 322.182437)scale(0.1 -0.1)">
       <defs>
        <path d="M 50.296875 72.90625 
L 50.296875 64.890625 
L 16.890625 64.890625 
L 16.890625 44 
Q 19.4375 45.75 22.828125 46.625 
Q 26.21875 47.515625 30.421875 47.515625 
Q 42.234375 47.515625 49.0625 40.96875 
Q 55.90625 34.421875 55.90625 23.09375 
Q 55.90625 11.53125 49 5.046875 
Q 42.09375 -1.421875 29.59375 -1.421875 
Q 24.5625 -1.421875 19.28125 -0.1875 
Q 14.015625 1.03125 8.5 3.515625 
L 8.5 17.671875 
L 14.015625 17.671875 
Q 14.453125 10.75 18.421875 7.078125 
Q 22.40625 3.421875 29.59375 3.421875 
Q 37.3125 3.421875 41.453125 8.5 
Q 45.609375 13.578125 45.609375 23.09375 
Q 45.609375 32.5625 41.484375 37.609375 
Q 37.359375 42.671875 29.59375 42.671875 
Q 25.203125 42.671875 21.84375 41.109375 
Q 18.5 39.546875 15.921875 36.28125 
L 11.71875 36.28125 
L 11.71875 72.90625 
z
" id="DejaVuSerif-53"/>
       </defs>
       <use xlink:href="#DejaVuSerif-48"/>
       <use x="63.623047" xlink:href="#DejaVuSerif-46"/>
       <use x="95.410156" xlink:href="#DejaVuSerif-53"/>
      </g>
     </g>
    </g>
    <g id="xtick_3">
     <g id="line2d_5">
      <path clip-path="url(#p38406517c2)" d="M 174.587586 307.584 
L 174.587586 41.472 
" style="fill:none;stroke:#b0b0b0;stroke-linecap:square;stroke-width:0.8;"/>
     </g>
     <g id="line2d_6">
      <g>
       <use style="stroke:#000000;stroke-width:0.8;" x="174.587586" xlink:href="#m3f2347e1d6" y="307.584"/>
      </g>
     </g>
     <g id="text_3">
      <!-- 1.0 -->
      <g transform="translate(166.636024 322.182437)scale(0.1 -0.1)">
       <defs>
        <path d="M 14.203125 0 
L 14.203125 5.171875 
L 26.90625 5.171875 
L 26.90625 65.828125 
L 12.203125 56.296875 
L 12.203125 62.703125 
L 29.984375 74.21875 
L 36.71875 74.21875 
L 36.71875 5.171875 
L 49.421875 5.171875 
L 49.421875 0 
z
" id="DejaVuSerif-49"/>
       </defs>
       <use xlink:href="#DejaVuSerif-49"/>
       <use x="63.623047" xlink:href="#DejaVuSerif-46"/>
       <use x="95.410156" xlink:href="#DejaVuSerif-48"/>
      </g>
     </g>
    </g>
    <g id="xtick_4">
     <g id="line2d_7">
      <path clip-path="url(#p38406517c2)" d="M 230.562508 307.584 
L 230.562508 41.472 
" style="fill:none;stroke:#b0b0b0;stroke-linecap:square;stroke-width:0.8;"/>
     </g>
     <g id="line2d_8">
      <g>
       <use style="stroke:#000000;stroke-width:0.8;" x="230.562508" xlink:href="#m3f2347e1d6" y="307.584"/>
      </g>
     </g>
     <g id="text_4">
      <!-- 1.5 -->
      <g transform="translate(222.610945 322.182437)scale(0.1 -0.1)">
       <use xlink:href="#DejaVuSerif-49"/>
       <use x="63.623047" xlink:href="#DejaVuSerif-46"/>
       <use x="95.410156" xlink:href="#DejaVuSerif-53"/>
      </g>
     </g>
    </g>
    <g id="xtick_5">
     <g id="line2d_9">
      <path clip-path="url(#p38406517c2)" d="M 286.537429 307.584 
L 286.537429 41.472 
" style="fill:none;stroke:#b0b0b0;stroke-linecap:square;stroke-width:0.8;"/>
     </g>
     <g id="line2d_10">
      <g>
       <use style="stroke:#000000;stroke-width:0.8;" x="286.537429" xlink:href="#m3f2347e1d6" y="307.584"/>
      </g>
     </g>
     <g id="text_5">
      <!-- 2.0 -->
      <g transform="translate(278.585867 322.182437)scale(0.1 -0.1)">
       <defs>
        <path d="M 12.796875 55.515625 
L 7.328125 55.515625 
L 7.328125 68.5 
Q 12.546875 71.296875 17.84375 72.75 
Q 23.140625 74.21875 28.21875 74.21875 
Q 39.59375 74.21875 46.1875 68.703125 
Q 52.78125 63.1875 52.78125 53.71875 
Q 52.78125 43.015625 37.84375 28.125 
Q 36.671875 27 36.078125 26.421875 
L 17.671875 8.015625 
L 48.09375 8.015625 
L 48.09375 17 
L 53.8125 17 
L 53.8125 0 
L 6.78125 0 
L 6.78125 5.328125 
L 28.90625 27.390625 
Q 36.234375 34.71875 39.359375 40.84375 
Q 42.484375 46.96875 42.484375 53.71875 
Q 42.484375 61.078125 38.640625 65.234375 
Q 34.8125 69.390625 28.078125 69.390625 
Q 21.09375 69.390625 17.28125 65.921875 
Q 13.484375 62.453125 12.796875 55.515625 
z
" id="DejaVuSerif-50"/>
       </defs>
       <use xlink:href="#DejaVuSerif-50"/>
       <use x="63.623047" xlink:href="#DejaVuSerif-46"/>
       <use x="95.410156" xlink:href="#DejaVuSerif-48"/>
      </g>
     </g>
    </g>
    <g id="xtick_6">
     <g id="line2d_11">
      <path clip-path="url(#p38406517c2)" d="M 342.512351 307.584 
L 342.512351 41.472 
" style="fill:none;stroke:#b0b0b0;stroke-linecap:square;stroke-width:0.8;"/>
     </g>
     <g id="line2d_12">
      <g>
       <use style="stroke:#000000;stroke-width:0.8;" x="342.512351" xlink:href="#m3f2347e1d6" y="307.584"/>
      </g>
     </g>
     <g id="text_6">
      <!-- 2.5 -->
      <g transform="translate(334.560789 322.182437)scale(0.1 -0.1)">
       <use xlink:href="#DejaVuSerif-50"/>
       <use x="63.623047" xlink:href="#DejaVuSerif-46"/>
       <use x="95.410156" xlink:href="#DejaVuSerif-53"/>
      </g>
     </g>
    </g>
    <g id="xtick_7">
     <g id="line2d_13">
      <path clip-path="url(#p38406517c2)" d="M 398.487273 307.584 
L 398.487273 41.472 
" style="fill:none;stroke:#b0b0b0;stroke-linecap:square;stroke-width:0.8;"/>
     </g>
     <g id="line2d_14">
      <g>
       <use style="stroke:#000000;stroke-width:0.8;" x="398.487273" xlink:href="#m3f2347e1d6" y="307.584"/>
      </g>
     </g>
     <g id="text_7">
      <!-- 3.0 -->
      <g transform="translate(390.53571 322.182437)scale(0.1 -0.1)">
       <defs>
        <path d="M 9.71875 69.828125 
Q 15.4375 71.96875 20.671875 73.09375 
Q 25.921875 74.21875 30.515625 74.21875 
Q 41.21875 74.21875 47.21875 69.59375 
Q 53.21875 64.984375 53.21875 56.78125 
Q 53.21875 50.203125 49.0625 45.78125 
Q 44.921875 41.359375 37.3125 39.796875 
Q 46.296875 38.53125 51.25 33.28125 
Q 56.203125 28.03125 56.203125 19.671875 
Q 56.203125 9.46875 49.34375 4.015625 
Q 42.484375 -1.421875 29.59375 -1.421875 
Q 23.875 -1.421875 18.421875 -0.1875 
Q 12.984375 1.03125 7.625 3.515625 
L 7.625 17.671875 
L 13.09375 17.671875 
Q 13.578125 10.640625 17.828125 7.03125 
Q 22.078125 3.421875 29.78125 3.421875 
Q 37.25 3.421875 41.578125 7.734375 
Q 45.90625 12.0625 45.90625 19.578125 
Q 45.90625 28.171875 41.453125 32.59375 
Q 37.015625 37.015625 28.421875 37.015625 
L 23.78125 37.015625 
L 23.78125 42 
L 26.21875 42 
Q 34.765625 42 39.03125 45.53125 
Q 43.3125 49.078125 43.3125 56.203125 
Q 43.3125 62.59375 39.796875 65.984375 
Q 36.28125 69.390625 29.6875 69.390625 
Q 23.09375 69.390625 19.453125 66.265625 
Q 15.828125 63.140625 15.1875 56.984375 
L 9.71875 56.984375 
z
" id="DejaVuSerif-51"/>
       </defs>
       <use xlink:href="#DejaVuSerif-51"/>
       <use x="63.623047" xlink:href="#DejaVuSerif-46"/>
       <use x="95.410156" xlink:href="#DejaVuSerif-48"/>
      </g>
     </g>
    </g>
    <g id="text_8">
     <!-- Spatial step size -->
     <g transform="translate(165.664453 341.179469)scale(0.17 -0.17)">
      <defs>
       <path d="M 9.28125 3.515625 
L 9.28125 20.125 
L 14.890625 20.0625 
Q 15.140625 11.765625 19.703125 7.78125 
Q 24.265625 3.8125 33.59375 3.8125 
Q 42.28125 3.8125 46.84375 7.25 
Q 51.421875 10.6875 51.421875 17.28125 
Q 51.421875 22.5625 48.65625 25.390625 
Q 45.90625 28.21875 37.015625 30.90625 
L 27.390625 33.796875 
Q 16.9375 36.96875 12.671875 41.703125 
Q 8.40625 46.4375 8.40625 54.6875 
Q 8.40625 63.96875 14.984375 69.09375 
Q 21.578125 74.21875 33.5 74.21875 
Q 38.578125 74.21875 44.625 73.109375 
Q 50.6875 72.015625 57.515625 69.921875 
L 57.515625 54.390625 
L 52 54.390625 
Q 51.171875 62.109375 46.84375 65.546875 
Q 42.53125 69 33.6875 69 
Q 25.984375 69 21.953125 65.84375 
Q 17.921875 62.703125 17.921875 56.6875 
Q 17.921875 51.46875 20.9375 48.484375 
Q 23.96875 45.515625 33.796875 42.578125 
L 42.828125 39.890625 
Q 52.734375 36.921875 56.953125 32.296875 
Q 61.1875 27.6875 61.1875 19.921875 
Q 61.1875 9.328125 54.390625 3.953125 
Q 47.609375 -1.421875 34.1875 -1.421875 
Q 28.171875 -1.421875 21.9375 -0.1875 
Q 15.71875 1.03125 9.28125 3.515625 
z
" id="DejaVuSerif-83"/>
       <path d="M 20.515625 28.515625 
L 20.515625 23.390625 
Q 20.515625 14.015625 24.09375 9.109375 
Q 27.6875 4.203125 34.515625 4.203125 
Q 41.40625 4.203125 44.9375 9.71875 
Q 48.484375 15.234375 48.484375 25.984375 
Q 48.484375 36.765625 44.9375 42.234375 
Q 41.40625 47.703125 34.515625 47.703125 
Q 27.6875 47.703125 24.09375 42.765625 
Q 20.515625 37.84375 20.515625 28.515625 
z
M 11.53125 46.6875 
L 2.875 46.6875 
L 2.875 51.90625 
L 20.515625 51.90625 
L 20.515625 43.796875 
Q 23.140625 48.6875 27.21875 51 
Q 31.296875 53.328125 37.3125 53.328125 
Q 46.875 53.328125 52.921875 45.75 
Q 58.984375 38.1875 58.984375 25.984375 
Q 58.984375 13.765625 52.921875 6.171875 
Q 46.875 -1.421875 37.3125 -1.421875 
Q 31.296875 -1.421875 27.21875 0.890625 
Q 23.140625 3.21875 20.515625 8.109375 
L 20.515625 -15.578125 
L 29 -15.578125 
L 29 -20.796875 
L 2.875 -20.796875 
L 2.875 -15.578125 
L 11.53125 -15.578125 
z
" id="DejaVuSerif-112"/>
       <path d="M 39.796875 16.3125 
L 39.796875 27.296875 
L 28.21875 27.296875 
Q 21.53125 27.296875 18.25 24.40625 
Q 14.984375 21.53125 14.984375 15.578125 
Q 14.984375 10.15625 18.296875 6.984375 
Q 21.625 3.8125 27.296875 3.8125 
Q 32.90625 3.8125 36.34375 7.28125 
Q 39.796875 10.75 39.796875 16.3125 
z
M 48.78125 32.421875 
L 48.78125 5.171875 
L 56.78125 5.171875 
L 56.78125 0 
L 39.796875 0 
L 39.796875 5.609375 
Q 36.8125 2 32.90625 0.28125 
Q 29 -1.421875 23.78125 -1.421875 
Q 15.140625 -1.421875 10.0625 3.171875 
Q 4.984375 7.765625 4.984375 15.578125 
Q 4.984375 23.640625 10.796875 28.078125 
Q 16.609375 32.515625 27.203125 32.515625 
L 39.796875 32.515625 
L 39.796875 36.078125 
Q 39.796875 42 36.203125 45.234375 
Q 32.625 48.484375 26.125 48.484375 
Q 20.75 48.484375 17.578125 46.046875 
Q 14.40625 43.609375 13.625 38.8125 
L 8.984375 38.8125 
L 8.984375 49.3125 
Q 13.671875 51.3125 18.09375 52.3125 
Q 22.515625 53.328125 26.703125 53.328125 
Q 37.5 53.328125 43.140625 47.96875 
Q 48.78125 42.625 48.78125 32.421875 
z
" id="DejaVuSerif-97"/>
       <path d="M 10.796875 46.6875 
L 2.875 46.6875 
L 2.875 51.90625 
L 10.796875 51.90625 
L 10.796875 68.015625 
L 19.828125 68.015625 
L 19.828125 51.90625 
L 36.71875 51.90625 
L 36.71875 46.6875 
L 19.828125 46.6875 
L 19.828125 13.71875 
Q 19.828125 7.125 21.09375 5.265625 
Q 22.359375 3.421875 25.78125 3.421875 
Q 29.296875 3.421875 30.90625 5.484375 
Q 32.515625 7.5625 32.625 12.203125 
L 39.40625 12.203125 
Q 39.015625 5.125 35.546875 1.84375 
Q 32.078125 -1.421875 25 -1.421875 
Q 17.234375 -1.421875 14.015625 2.015625 
Q 10.796875 5.46875 10.796875 13.71875 
z
" id="DejaVuSerif-116"/>
       <path d="M 9.71875 68.015625 
Q 9.71875 70.265625 11.34375 71.921875 
Q 12.984375 73.578125 15.28125 73.578125 
Q 17.53125 73.578125 19.15625 71.921875 
Q 20.796875 70.265625 20.796875 68.015625 
Q 20.796875 65.71875 19.1875 64.109375 
Q 17.578125 62.5 15.28125 62.5 
Q 12.984375 62.5 11.34375 64.109375 
Q 9.71875 65.71875 9.71875 68.015625 
z
M 21.1875 5.171875 
L 29.6875 5.171875 
L 29.6875 0 
L 3.609375 0 
L 3.609375 5.171875 
L 12.203125 5.171875 
L 12.203125 46.6875 
L 3.609375 46.6875 
L 3.609375 51.90625 
L 21.1875 51.90625 
z
" id="DejaVuSerif-105"/>
       <path d="M 20.515625 5.171875 
L 29 5.171875 
L 29 0 
L 2.875 0 
L 2.875 5.171875 
L 11.53125 5.171875 
L 11.53125 70.796875 
L 2.875 70.796875 
L 2.875 75.984375 
L 20.515625 75.984375 
z
" id="DejaVuSerif-108"/>
       <path id="DejaVuSerif-32"/>
       <path d="M 5.609375 2.875 
L 5.609375 14.984375 
L 10.796875 14.984375 
Q 10.984375 9.1875 14.421875 6.296875 
Q 17.875 3.421875 24.609375 3.421875 
Q 30.671875 3.421875 33.84375 5.6875 
Q 37.015625 7.953125 37.015625 12.3125 
Q 37.015625 15.71875 34.6875 17.8125 
Q 32.375 19.921875 24.90625 22.3125 
L 18.40625 24.515625 
Q 11.71875 26.65625 8.71875 29.875 
Q 5.71875 33.109375 5.71875 38.09375 
Q 5.71875 45.21875 10.9375 49.265625 
Q 16.15625 53.328125 25.390625 53.328125 
Q 29.5 53.328125 34.03125 52.25 
Q 38.578125 51.171875 43.40625 49.125 
L 43.40625 37.796875 
L 38.234375 37.796875 
Q 38.03125 42.828125 34.703125 45.65625 
Q 31.390625 48.484375 25.6875 48.484375 
Q 20.015625 48.484375 17.109375 46.484375 
Q 14.203125 44.484375 14.203125 40.484375 
Q 14.203125 37.203125 16.40625 35.21875 
Q 18.609375 33.25 25.203125 31.203125 
L 32.328125 29 
Q 39.703125 26.703125 42.9375 23.265625 
Q 46.1875 19.828125 46.1875 14.40625 
Q 46.1875 7.03125 40.546875 2.796875 
Q 34.90625 -1.421875 25 -1.421875 
Q 19.96875 -1.421875 15.1875 -0.34375 
Q 10.40625 0.734375 5.609375 2.875 
z
" id="DejaVuSerif-115"/>
       <path d="M 54.203125 25 
L 15.484375 25 
L 15.484375 24.609375 
Q 15.484375 14.109375 19.4375 8.765625 
Q 23.390625 3.421875 31.109375 3.421875 
Q 37.015625 3.421875 40.796875 6.515625 
Q 44.578125 9.625 46.09375 15.71875 
L 53.328125 15.71875 
Q 51.171875 7.171875 45.375 2.875 
Q 39.59375 -1.421875 30.171875 -1.421875 
Q 18.796875 -1.421875 11.890625 6.078125 
Q 4.984375 13.578125 4.984375 25.984375 
Q 4.984375 38.28125 11.765625 45.796875 
Q 18.5625 53.328125 29.59375 53.328125 
Q 41.359375 53.328125 47.65625 46.0625 
Q 53.953125 38.8125 54.203125 25 
z
M 43.609375 30.171875 
Q 43.3125 39.265625 39.765625 43.875 
Q 36.234375 48.484375 29.59375 48.484375 
Q 23.390625 48.484375 19.828125 43.84375 
Q 16.265625 39.203125 15.484375 30.171875 
z
" id="DejaVuSerif-101"/>
       <path d="M 4 0 
L 4 4.203125 
L 36.53125 46.6875 
L 10.796875 46.6875 
L 10.796875 37.703125 
L 5.609375 37.703125 
L 5.609375 51.90625 
L 48.09375 51.90625 
L 48.09375 47.703125 
L 15.578125 5.171875 
L 43.796875 5.171875 
L 43.796875 14.59375 
L 49.03125 14.59375 
L 49.03125 0 
z
" id="DejaVuSerif-122"/>
      </defs>
      <use xlink:href="#DejaVuSerif-83"/>
      <use x="68.505859" xlink:href="#DejaVuSerif-112"/>
      <use x="132.519531" xlink:href="#DejaVuSerif-97"/>
      <use x="192.138672" xlink:href="#DejaVuSerif-116"/>
      <use x="232.324219" xlink:href="#DejaVuSerif-105"/>
      <use x="264.306641" xlink:href="#DejaVuSerif-97"/>
      <use x="323.925781" xlink:href="#DejaVuSerif-108"/>
      <use x="355.908203" xlink:href="#DejaVuSerif-32"/>
      <use x="387.695312" xlink:href="#DejaVuSerif-115"/>
      <use x="439.013672" xlink:href="#DejaVuSerif-116"/>
      <use x="479.199219" xlink:href="#DejaVuSerif-101"/>
      <use x="538.378906" xlink:href="#DejaVuSerif-112"/>
      <use x="602.392578" xlink:href="#DejaVuSerif-32"/>
      <use x="634.179688" xlink:href="#DejaVuSerif-115"/>
      <use x="685.498047" xlink:href="#DejaVuSerif-105"/>
      <use x="717.480469" xlink:href="#DejaVuSerif-122"/>
      <use x="770.166016" xlink:href="#DejaVuSerif-101"/>
     </g>
    </g>
   </g>
   <g id="matplotlib.axis_2">
    <g id="ytick_1">
     <g id="line2d_15">
      <path clip-path="url(#p38406517c2)" d="M 57.6 276.898128 
L 414.72 276.898128 
" style="fill:none;stroke:#b0b0b0;stroke-linecap:square;stroke-width:0.8;"/>
     </g>
     <g id="line2d_16">
      <defs>
       <path d="M 0 0 
L -3.5 0 
" id="m7db19a574d" style="stroke:#000000;stroke-width:0.8;"/>
      </defs>
      <g>
       <use style="stroke:#000000;stroke-width:0.8;" x="57.6" xlink:href="#m7db19a574d" y="276.898128"/>
      </g>
     </g>
     <g id="text_9">
      <!-- −0.100 -->
      <g transform="translate(13.592188 280.697346)scale(0.1 -0.1)">
       <defs>
        <path d="M 10.59375 35.296875 
L 73.1875 35.296875 
L 73.1875 27.390625 
L 10.59375 27.390625 
z
" id="DejaVuSerif-8722"/>
       </defs>
       <use xlink:href="#DejaVuSerif-8722"/>
       <use x="83.789062" xlink:href="#DejaVuSerif-48"/>
       <use x="147.412109" xlink:href="#DejaVuSerif-46"/>
       <use x="179.199219" xlink:href="#DejaVuSerif-49"/>
       <use x="242.822266" xlink:href="#DejaVuSerif-48"/>
       <use x="306.445312" xlink:href="#DejaVuSerif-48"/>
      </g>
     </g>
    </g>
    <g id="ytick_2">
     <g id="line2d_17">
      <path clip-path="url(#p38406517c2)" d="M 57.6 244.010613 
L 414.72 244.010613 
" style="fill:none;stroke:#b0b0b0;stroke-linecap:square;stroke-width:0.8;"/>
     </g>
     <g id="line2d_18">
      <g>
       <use style="stroke:#000000;stroke-width:0.8;" x="57.6" xlink:href="#m7db19a574d" y="244.010613"/>
      </g>
     </g>
     <g id="text_10">
      <!-- −0.075 -->
      <g transform="translate(13.592188 247.809832)scale(0.1 -0.1)">
       <defs>
        <path d="M 56.390625 67.921875 
L 27.875 0 
L 20.609375 0 
L 47.796875 64.890625 
L 14.109375 64.890625 
L 14.109375 55.90625 
L 8.40625 55.90625 
L 8.40625 72.90625 
L 56.390625 72.90625 
z
" id="DejaVuSerif-55"/>
       </defs>
       <use xlink:href="#DejaVuSerif-8722"/>
       <use x="83.789062" xlink:href="#DejaVuSerif-48"/>
       <use x="147.412109" xlink:href="#DejaVuSerif-46"/>
       <use x="179.199219" xlink:href="#DejaVuSerif-48"/>
       <use x="242.822266" xlink:href="#DejaVuSerif-55"/>
       <use x="306.445312" xlink:href="#DejaVuSerif-53"/>
      </g>
     </g>
    </g>
    <g id="ytick_3">
     <g id="line2d_19">
      <path clip-path="url(#p38406517c2)" d="M 57.6 211.123099 
L 414.72 211.123099 
" style="fill:none;stroke:#b0b0b0;stroke-linecap:square;stroke-width:0.8;"/>
     </g>
     <g id="line2d_20">
      <g>
       <use style="stroke:#000000;stroke-width:0.8;" x="57.6" xlink:href="#m7db19a574d" y="211.123099"/>
      </g>
     </g>
     <g id="text_11">
      <!-- −0.050 -->
      <g transform="translate(13.592188 214.922317)scale(0.1 -0.1)">
       <use xlink:href="#DejaVuSerif-8722"/>
       <use x="83.789062" xlink:href="#DejaVuSerif-48"/>
       <use x="147.412109" xlink:href="#DejaVuSerif-46"/>
       <use x="179.199219" xlink:href="#DejaVuSerif-48"/>
       <use x="242.822266" xlink:href="#DejaVuSerif-53"/>
       <use x="306.445312" xlink:href="#DejaVuSerif-48"/>
      </g>
     </g>
    </g>
    <g id="ytick_4">
     <g id="line2d_21">
      <path clip-path="url(#p38406517c2)" d="M 57.6 178.235584 
L 414.72 178.235584 
" style="fill:none;stroke:#b0b0b0;stroke-linecap:square;stroke-width:0.8;"/>
     </g>
     <g id="line2d_22">
      <g>
       <use style="stroke:#000000;stroke-width:0.8;" x="57.6" xlink:href="#m7db19a574d" y="178.235584"/>
      </g>
     </g>
     <g id="text_12">
      <!-- −0.025 -->
      <g transform="translate(13.592188 182.034803)scale(0.1 -0.1)">
       <use xlink:href="#DejaVuSerif-8722"/>
       <use x="83.789062" xlink:href="#DejaVuSerif-48"/>
       <use x="147.412109" xlink:href="#DejaVuSerif-46"/>
       <use x="179.199219" xlink:href="#DejaVuSerif-48"/>
       <use x="242.822266" xlink:href="#DejaVuSerif-50"/>
       <use x="306.445312" xlink:href="#DejaVuSerif-53"/>
      </g>
     </g>
    </g>
    <g id="ytick_5">
     <g id="line2d_23">
      <path clip-path="url(#p38406517c2)" d="M 57.6 145.34807 
L 414.72 145.34807 
" style="fill:none;stroke:#b0b0b0;stroke-linecap:square;stroke-width:0.8;"/>
     </g>
     <g id="line2d_24">
      <g>
       <use style="stroke:#000000;stroke-width:0.8;" x="57.6" xlink:href="#m7db19a574d" y="145.34807"/>
      </g>
     </g>
     <g id="text_13">
      <!-- 0.000 -->
      <g transform="translate(21.971875 149.147288)scale(0.1 -0.1)">
       <use xlink:href="#DejaVuSerif-48"/>
       <use x="63.623047" xlink:href="#DejaVuSerif-46"/>
       <use x="95.410156" xlink:href="#DejaVuSerif-48"/>
       <use x="159.033203" xlink:href="#DejaVuSerif-48"/>
       <use x="222.65625" xlink:href="#DejaVuSerif-48"/>
      </g>
     </g>
    </g>
    <g id="ytick_6">
     <g id="line2d_25">
      <path clip-path="url(#p38406517c2)" d="M 57.6 112.460555 
L 414.72 112.460555 
" style="fill:none;stroke:#b0b0b0;stroke-linecap:square;stroke-width:0.8;"/>
     </g>
     <g id="line2d_26">
      <g>
       <use style="stroke:#000000;stroke-width:0.8;" x="57.6" xlink:href="#m7db19a574d" y="112.460555"/>
      </g>
     </g>
     <g id="text_14">
      <!-- 0.025 -->
      <g transform="translate(21.971875 116.259774)scale(0.1 -0.1)">
       <use xlink:href="#DejaVuSerif-48"/>
       <use x="63.623047" xlink:href="#DejaVuSerif-46"/>
       <use x="95.410156" xlink:href="#DejaVuSerif-48"/>
       <use x="159.033203" xlink:href="#DejaVuSerif-50"/>
       <use x="222.65625" xlink:href="#DejaVuSerif-53"/>
      </g>
     </g>
    </g>
    <g id="ytick_7">
     <g id="line2d_27">
      <path clip-path="url(#p38406517c2)" d="M 57.6 79.573041 
L 414.72 79.573041 
" style="fill:none;stroke:#b0b0b0;stroke-linecap:square;stroke-width:0.8;"/>
     </g>
     <g id="line2d_28">
      <g>
       <use style="stroke:#000000;stroke-width:0.8;" x="57.6" xlink:href="#m7db19a574d" y="79.573041"/>
      </g>
     </g>
     <g id="text_15">
      <!-- 0.050 -->
      <g transform="translate(21.971875 83.372259)scale(0.1 -0.1)">
       <use xlink:href="#DejaVuSerif-48"/>
       <use x="63.623047" xlink:href="#DejaVuSerif-46"/>
       <use x="95.410156" xlink:href="#DejaVuSerif-48"/>
       <use x="159.033203" xlink:href="#DejaVuSerif-53"/>
       <use x="222.65625" xlink:href="#DejaVuSerif-48"/>
      </g>
     </g>
    </g>
    <g id="ytick_8">
     <g id="line2d_29">
      <path clip-path="url(#p38406517c2)" d="M 57.6 46.685526 
L 414.72 46.685526 
" style="fill:none;stroke:#b0b0b0;stroke-linecap:square;stroke-width:0.8;"/>
     </g>
     <g id="line2d_30">
      <g>
       <use style="stroke:#000000;stroke-width:0.8;" x="57.6" xlink:href="#m7db19a574d" y="46.685526"/>
      </g>
     </g>
     <g id="text_16">
      <!-- 0.075 -->
      <g transform="translate(21.971875 50.484745)scale(0.1 -0.1)">
       <use xlink:href="#DejaVuSerif-48"/>
       <use x="63.623047" xlink:href="#DejaVuSerif-46"/>
       <use x="95.410156" xlink:href="#DejaVuSerif-48"/>
       <use x="159.033203" xlink:href="#DejaVuSerif-55"/>
       <use x="222.65625" xlink:href="#DejaVuSerif-53"/>
      </g>
     </g>
    </g>
    <g id="text_17">
     <!-- Speed -->
     <g transform="translate(6.056719 201.295031)rotate(-90)scale(0.17 -0.17)">
      <defs>
       <path d="M 52.484375 5.171875 
L 61.078125 5.171875 
L 61.078125 0 
L 43.5 0 
L 43.5 8.109375 
Q 40.875 3.21875 36.796875 0.890625 
Q 32.71875 -1.421875 26.703125 -1.421875 
Q 17.140625 -1.421875 11.0625 6.171875 
Q 4.984375 13.765625 4.984375 25.984375 
Q 4.984375 38.1875 11.03125 45.75 
Q 17.09375 53.328125 26.703125 53.328125 
Q 32.71875 53.328125 36.796875 51 
Q 40.875 48.6875 43.5 43.796875 
L 43.5 70.796875 
L 35.015625 70.796875 
L 35.015625 75.984375 
L 52.484375 75.984375 
z
M 43.5 23.390625 
L 43.5 28.515625 
Q 43.5 37.84375 39.90625 42.765625 
Q 36.328125 47.703125 29.5 47.703125 
Q 22.5625 47.703125 19.015625 42.234375 
Q 15.484375 36.765625 15.484375 25.984375 
Q 15.484375 15.234375 19.015625 9.71875 
Q 22.5625 4.203125 29.5 4.203125 
Q 36.328125 4.203125 39.90625 9.109375 
Q 43.5 14.015625 43.5 23.390625 
z
" id="DejaVuSerif-100"/>
      </defs>
      <use xlink:href="#DejaVuSerif-83"/>
      <use x="68.505859" xlink:href="#DejaVuSerif-112"/>
      <use x="132.519531" xlink:href="#DejaVuSerif-101"/>
      <use x="191.699219" xlink:href="#DejaVuSerif-101"/>
      <use x="250.878906" xlink:href="#DejaVuSerif-100"/>
     </g>
    </g>
   </g>
   <g id="line2d_31">
    <path clip-path="url(#p38406517c2)" d="M 73.832727 53.744891 
L 75.464157 53.579397 
L 77.095587 53.587124 
L 78.727017 53.87082 
L 80.358447 53.696755 
L 83.621307 53.794059 
L 85.252736 53.650203 
L 86.884166 53.789468 
L 88.515596 54.088067 
L 90.147026 53.999284 
L 91.778456 53.726749 
L 93.409886 53.568 
L 95.041316 53.92292 
L 96.672746 53.83659 
L 98.304175 54.178927 
L 99.935605 54.385805 
L 101.567035 53.823545 
L 103.198465 54.181063 
L 104.829895 54.206335 
L 106.461325 54.54593 
L 108.092755 53.852582 
L 109.724185 54.040086 
L 111.355614 54.439767 
L 112.987044 54.331872 
L 114.618474 54.428128 
L 116.249904 54.748381 
L 117.881334 55.256263 
L 119.512764 54.237848 
L 121.144194 55.057332 
L 122.775624 54.338332 
L 124.407053 55.457912 
L 127.669913 54.579603 
L 129.301343 55.220606 
L 130.932773 56.031374 
L 132.564203 55.923962 
L 134.195633 54.902671 
L 135.827063 56.059273 
L 137.458492 55.143611 
L 140.721352 55.800187 
L 143.984212 56.839694 
L 145.615642 56.336441 
L 147.247072 57.056749 
L 148.878502 56.623067 
L 150.509931 57.550992 
L 152.141361 57.198512 
L 153.772791 58.262298 
L 155.404221 56.728145 
L 157.035651 57.914634 
L 158.667081 57.825288 
L 160.298511 59.263116 
L 161.929941 59.194643 
L 163.56137 57.834837 
L 165.1928 59.445541 
L 166.82423 58.0455 
L 168.45566 59.814291 
L 171.71852 60.41476 
L 173.34995 60.676557 
L 179.875669 62.580151 
L 183.138529 63.893707 
L 184.769959 62.78246 
L 186.401389 65.279935 
L 188.032819 64.270672 
L 192.927108 66.829487 
L 194.558538 67.727713 
L 196.189968 68.764582 
L 197.821398 67.839102 
L 199.452828 68.9027 
L 201.084258 72.029275 
L 202.715688 71.226096 
L 204.347117 72.371404 
L 205.978547 73.661193 
L 207.609977 72.847889 
L 209.241407 76.329576 
L 210.872837 75.643962 
L 212.504267 77.030455 
L 215.767127 80.015388 
L 217.398556 79.337194 
L 219.029986 80.944886 
L 220.661416 84.91116 
L 222.292846 84.263621 
L 228.818566 91.547641 
L 230.449995 91.042946 
L 232.081425 95.512273 
L 233.712855 95.035831 
L 235.344285 97.090086 
L 236.975715 101.749033 
L 240.238575 106.191372 
L 243.501434 110.79525 
L 245.132864 113.127701 
L 250.027154 128.798824 
L 253.290014 145.34807 
L 398.487273 145.34807 
L 398.487273 145.34807 
" style="fill:none;stroke:#6495ed;stroke-linecap:square;stroke-width:1.5;"/>
   </g>
   <g id="line2d_32">
    <path clip-path="url(#p38406517c2)" d="M 73.832727 105.530521 
L 78.727017 105.554564 
L 80.358447 105.479432 
L 83.621307 105.677784 
L 85.252736 105.40505 
L 86.884166 105.674793 
L 88.515596 105.52902 
L 90.147026 105.776959 
L 91.778456 105.381763 
L 93.409886 105.773976 
L 95.041316 105.547063 
L 98.304175 105.722144 
L 99.935605 106.074486 
L 101.567035 105.765024 
L 103.198465 105.674793 
L 104.829895 105.763532 
L 106.461325 105.52902 
L 108.092755 105.99788 
L 109.724185 106.074486 
L 111.355614 105.667314 
L 112.987044 105.381763 
L 114.618474 105.844641 
L 117.881334 105.784605 
L 121.144194 106.13187 
L 122.775624 105.671802 
L 124.407053 106.074486 
L 126.038483 105.709444 
L 127.669913 106.294688 
L 130.932773 105.896468 
L 132.564203 105.765024 
L 134.195633 106.652039 
L 137.458492 106.711848 
L 139.089922 106.80523 
L 140.721352 105.899442 
L 142.352782 107.165419 
L 143.984212 106.291007 
L 147.247072 106.891961 
L 148.878502 106.056716 
L 152.141361 106.907338 
L 153.772791 106.131131 
L 157.035651 107.2319 
L 158.667081 107.834199 
L 160.298511 107.133732 
L 161.929941 107.837028 
L 163.56137 107.151343 
L 165.1928 107.92215 
L 166.82423 107.29769 
L 168.45566 108.140348 
L 170.08709 107.498097 
L 173.34995 109.409476 
L 174.98138 108.845903 
L 176.61281 111.489043 
L 179.875669 110.463012 
L 181.507099 113.299819 
L 183.138529 112.841391 
L 184.769959 114.105364 
L 186.401389 113.645298 
L 191.295678 117.823696 
L 192.927108 119.295297 
L 194.558538 118.959373 
L 196.189968 122.433729 
L 199.452828 125.740543 
L 204.347117 137.214128 
L 205.978547 145.34807 
L 398.487273 145.34807 
L 398.487273 145.34807 
" style="fill:none;stroke:#4b0082;stroke-linecap:square;stroke-width:1.5;"/>
   </g>
   <g id="line2d_33">
    <path clip-path="url(#p38406517c2)" d="M 73.832727 161.958341 
L 78.727017 161.744109 
L 81.989877 161.913208 
L 85.252736 161.712063 
L 86.884166 161.824557 
L 88.515596 161.793883 
L 90.147026 161.63007 
L 93.409886 161.760614 
L 95.041316 161.688835 
L 96.672746 162.014467 
L 99.935605 161.445113 
L 101.567035 161.583936 
L 103.198465 161.094061 
L 104.829895 161.725643 
L 108.092755 161.671457 
L 109.724185 160.906062 
L 111.355614 161.435415 
L 112.987044 161.251713 
L 114.618474 161.765898 
L 116.249904 160.735965 
L 119.512764 161.661337 
L 122.775624 160.867054 
L 124.407053 161.295525 
L 126.038483 160.805088 
L 127.669913 161.199456 
L 129.301343 160.63539 
L 130.932773 161.010749 
L 132.564203 160.378516 
L 135.827063 161.07315 
L 137.458492 160.359733 
L 139.089922 160.684715 
L 140.721352 159.891986 
L 142.352782 161.337054 
L 145.615642 159.610021 
L 147.247072 159.885805 
L 148.878502 158.937098 
L 150.509931 160.441741 
L 152.141361 159.439905 
L 153.772791 159.705525 
L 155.404221 158.624205 
L 157.035651 158.855924 
L 158.667081 157.721095 
L 160.298511 157.931476 
L 161.929941 156.714506 
L 163.56137 156.901659 
L 166.82423 154.298172 
L 168.45566 152.918064 
L 171.71852 146.908764 
L 173.34995 145.34807 
L 398.487273 145.34807 
L 398.487273 145.34807 
" style="fill:none;stroke:#c71585;stroke-linecap:square;stroke-width:1.5;"/>
   </g>
   <g id="line2d_34">
    <path clip-path="url(#p38406517c2)" d="M 73.832727 105.530521 
L 78.727017 105.554564 
L 80.358447 105.479432 
L 83.621307 105.677784 
L 85.252736 105.40505 
L 86.884166 105.674793 
L 88.515596 105.52902 
L 90.147026 105.776959 
L 91.778456 105.381763 
L 93.409886 105.773976 
L 95.041316 105.547063 
L 98.304175 105.722144 
L 99.935605 106.074486 
L 101.567035 105.765024 
L 103.198465 105.674793 
L 104.829895 105.763532 
L 106.461325 105.52902 
L 108.092755 105.99788 
L 109.724185 106.074486 
L 111.355614 105.667314 
L 112.987044 105.381763 
L 114.618474 105.844641 
L 117.881334 105.784605 
L 121.144194 106.13187 
L 122.775624 105.671802 
L 124.407053 106.074486 
L 126.038483 105.709444 
L 127.669913 106.294688 
L 130.932773 105.896468 
L 132.564203 105.765024 
L 134.195633 106.652039 
L 137.458492 106.711848 
L 139.089922 106.80523 
L 140.721352 105.899442 
L 142.352782 107.165419 
L 143.984212 106.291007 
L 147.247072 106.891961 
L 148.878502 106.056716 
L 152.141361 106.907338 
L 153.772791 106.131131 
L 157.035651 107.2319 
L 158.667081 107.834199 
L 160.298511 107.133732 
L 161.929941 107.837028 
L 163.56137 107.151343 
L 165.1928 107.92215 
L 166.82423 107.29769 
L 168.45566 108.140348 
L 170.08709 107.498097 
L 173.34995 109.409476 
L 174.98138 108.845903 
L 176.61281 111.489043 
L 179.875669 110.463012 
L 181.507099 113.299819 
L 183.138529 112.841391 
L 184.769959 114.105364 
L 186.401389 113.645298 
L 191.295678 117.823696 
L 192.927108 119.295297 
L 194.558538 118.959373 
L 196.189968 122.433729 
L 199.452828 125.740543 
L 204.347117 137.214128 
L 205.978547 145.34807 
L 398.487273 145.34807 
L 398.487273 145.34807 
" style="fill:none;stroke:#4b0082;stroke-linecap:square;stroke-width:1.5;"/>
   </g>
   <g id="line2d_35">
    <path clip-path="url(#p38406517c2)" d="M 73.832727 223.959056 
L 80.358447 223.720359 
L 81.989877 223.542988 
L 85.252736 223.75639 
L 88.515596 223.679572 
L 90.147026 223.358316 
L 91.778456 223.697143 
L 96.672746 223.357855 
L 98.304175 223.418197 
L 99.935605 223.159163 
L 101.567035 223.143915 
L 103.198465 223.406095 
L 104.829895 223.469556 
L 106.461325 223.270473 
L 108.092755 222.150851 
L 109.724185 222.82151 
L 111.355614 221.940104 
L 112.987044 222.304855 
L 114.618474 222.515415 
L 116.249904 221.766937 
L 117.881334 221.642032 
L 119.512764 222.24844 
L 121.144194 221.880219 
L 122.775624 222.220372 
L 124.407053 221.618507 
L 127.669913 221.784673 
L 129.301343 220.780838 
L 130.932773 220.614948 
L 132.564203 221.409955 
L 134.195633 220.018108 
L 135.827063 220.651874 
L 137.458492 220.151767 
L 139.089922 219.501693 
L 140.721352 219.971305 
L 142.352782 219.156527 
L 143.984212 219.503735 
L 145.615642 218.508313 
L 147.247072 218.716914 
L 148.878502 217.595572 
L 150.509931 218.942679 
L 152.141361 217.709647 
L 155.404221 217.607393 
L 157.035651 216.127518 
L 158.667081 215.930958 
L 160.298511 217.085531 
L 161.929941 215.438993 
L 166.82423 214.271151 
L 168.45566 213.775093 
L 170.08709 211.684122 
L 176.61281 209.036314 
L 178.244239 209.941444 
L 179.875669 207.424009 
L 184.769959 204.57992 
L 186.401389 203.579441 
L 188.032819 200.628113 
L 189.664249 201.333816 
L 191.295678 198.277123 
L 194.558538 195.801301 
L 196.189968 194.440049 
L 197.821398 191.058486 
L 199.452828 191.617635 
L 201.084258 188.117367 
L 204.347117 184.963974 
L 205.978547 181.191508 
L 207.609977 179.465802 
L 210.872837 171.48711 
L 214.135697 163.15741 
L 215.767127 152.106623 
L 217.398556 145.34807 
L 398.487273 145.34807 
L 398.487273 145.34807 
" style="fill:none;stroke:#dc143c;stroke-linecap:square;stroke-width:1.5;"/>
   </g>
   <g id="line2d_36">
    <path clip-path="url(#p38406517c2)" d="M 73.832727 53.744891 
L 75.464157 53.579397 
L 77.095587 53.587124 
L 78.727017 53.87082 
L 80.358447 53.696755 
L 83.621307 53.794059 
L 85.252736 53.650203 
L 86.884166 53.789468 
L 88.515596 54.088067 
L 90.147026 53.999284 
L 91.778456 53.726749 
L 93.409886 53.568 
L 95.041316 53.92292 
L 96.672746 53.83659 
L 98.304175 54.178927 
L 99.935605 54.385805 
L 101.567035 53.823545 
L 103.198465 54.181063 
L 104.829895 54.206335 
L 106.461325 54.54593 
L 108.092755 53.852582 
L 109.724185 54.040086 
L 111.355614 54.439767 
L 112.987044 54.331872 
L 114.618474 54.428128 
L 116.249904 54.748381 
L 117.881334 55.256263 
L 119.512764 54.237848 
L 121.144194 55.057332 
L 122.775624 54.338332 
L 124.407053 55.457912 
L 127.669913 54.579603 
L 129.301343 55.220606 
L 130.932773 56.031374 
L 132.564203 55.923962 
L 134.195633 54.902671 
L 135.827063 56.059273 
L 137.458492 55.143611 
L 140.721352 55.800187 
L 143.984212 56.839694 
L 145.615642 56.336441 
L 147.247072 57.056749 
L 148.878502 56.623067 
L 150.509931 57.550992 
L 152.141361 57.198512 
L 153.772791 58.262298 
L 155.404221 56.728145 
L 157.035651 57.914634 
L 158.667081 57.825288 
L 160.298511 59.263116 
L 161.929941 59.194643 
L 163.56137 57.834837 
L 165.1928 59.445541 
L 166.82423 58.0455 
L 168.45566 59.814291 
L 171.71852 60.41476 
L 173.34995 60.676557 
L 179.875669 62.580151 
L 183.138529 63.893707 
L 184.769959 62.78246 
L 186.401389 65.279935 
L 188.032819 64.270672 
L 192.927108 66.829487 
L 194.558538 67.727713 
L 196.189968 68.764582 
L 197.821398 67.839102 
L 199.452828 68.9027 
L 201.084258 72.029275 
L 202.715688 71.226096 
L 204.347117 72.371404 
L 205.978547 73.661193 
L 207.609977 72.847889 
L 209.241407 76.329576 
L 210.872837 75.643962 
L 212.504267 77.030455 
L 215.767127 80.015388 
L 217.398556 79.337194 
L 219.029986 80.944886 
L 220.661416 84.91116 
L 222.292846 84.263621 
L 228.818566 91.547641 
L 230.449995 91.042946 
L 232.081425 95.512273 
L 233.712855 95.035831 
L 235.344285 97.090086 
L 236.975715 101.749033 
L 240.238575 106.191372 
L 243.501434 110.79525 
L 245.132864 113.127701 
L 250.027154 128.798824 
L 253.290014 145.34807 
L 398.487273 145.34807 
L 398.487273 145.34807 
" style="fill:none;stroke:#6495ed;stroke-linecap:square;stroke-width:1.5;"/>
   </g>
   <g id="line2d_37">
    <path clip-path="url(#p38406517c2)" d="M 73.832727 295.263911 
L 75.464157 295.488 
L 77.095587 295.248389 
L 78.727017 295.339239 
L 80.358447 295.308409 
L 81.989877 295.016929 
L 83.621307 295.237881 
L 85.252736 295.12148 
L 86.884166 294.869181 
L 88.515596 295.229771 
L 91.778456 294.868306 
L 93.409886 294.890155 
L 95.041316 294.62063 
L 96.672746 294.767017 
L 98.304175 294.331535 
L 99.935605 294.593434 
L 101.567035 294.155676 
L 103.198465 293.901405 
L 104.829895 293.83315 
L 106.461325 293.539254 
L 108.092755 293.676861 
L 111.355614 292.970914 
L 112.987044 293.392081 
L 114.618474 292.711953 
L 116.249904 293.020268 
L 117.881334 292.897216 
L 119.512764 292.434736 
L 121.144194 292.2824 
L 122.775624 291.937536 
L 124.407053 291.941536 
L 126.038483 291.751577 
L 127.669913 291.376833 
L 129.301343 290.609254 
L 130.932773 290.556853 
L 132.564203 290.334187 
L 134.195633 289.866204 
L 135.827063 290.235141 
L 137.458492 289.316308 
L 140.721352 289.188391 
L 145.615642 287.492885 
L 147.247072 287.85005 
L 148.878502 286.734998 
L 150.509931 286.831268 
L 152.141361 285.37142 
L 153.772791 285.181634 
L 158.667081 283.719893 
L 160.298511 282.888285 
L 161.929941 283.466065 
L 163.56137 282.616872 
L 166.82423 280.199392 
L 168.45566 280.45593 
L 170.08709 278.856222 
L 171.71852 279.038148 
L 173.34995 277.366502 
L 174.98138 276.947556 
L 176.61281 277.073278 
L 178.244239 275.947173 
L 183.138529 271.854323 
L 184.769959 271.953028 
L 186.401389 270.318891 
L 188.032819 270.397893 
L 189.664249 268.524308 
L 191.295678 268.578404 
L 194.558538 264.446461 
L 197.821398 263.738828 
L 199.452828 261.436161 
L 201.084258 261.032477 
L 202.715688 258.459543 
L 207.609977 256.531031 
L 209.241407 253.770545 
L 210.872837 250.769948 
L 212.504267 249.833624 
L 214.135697 246.885437 
L 215.767127 247.895759 
L 217.398556 244.685195 
L 219.029986 243.632045 
L 220.661416 242.386829 
L 222.292846 238.997838 
L 223.924276 237.675441 
L 225.555706 233.992168 
L 227.187136 234.94533 
L 228.818566 231.152311 
L 230.449995 229.53139 
L 232.081425 225.601205 
L 236.975715 220.528929 
L 238.607145 216.191572 
L 241.870005 212.421189 
L 243.501434 207.874725 
L 245.132864 205.868661 
L 248.395724 196.259751 
L 251.658584 191.751193 
L 253.290014 186.634629 
L 254.921444 178.726464 
L 256.552873 176.205885 
L 258.184303 167.983167 
L 261.447163 145.34807 
L 398.487273 145.34807 
L 398.487273 145.34807 
" style="fill:none;stroke:#ffa500;stroke-linecap:square;stroke-width:1.5;"/>
   </g>
   <g id="patch_3">
    <path d="M 57.6 307.584 
L 57.6 41.472 
" style="fill:none;stroke:#000000;stroke-linecap:square;stroke-linejoin:miter;stroke-width:0.8;"/>
   </g>
   <g id="patch_4">
    <path d="M 414.72 307.584 
L 414.72 41.472 
" style="fill:none;stroke:#000000;stroke-linecap:square;stroke-linejoin:miter;stroke-width:0.8;"/>
   </g>
   <g id="patch_5">
    <path d="M 57.6 307.584 
L 414.72 307.584 
" style="fill:none;stroke:#000000;stroke-linecap:square;stroke-linejoin:miter;stroke-width:0.8;"/>
   </g>
   <g id="patch_6">
    <path d="M 57.6 41.472 
L 414.72 41.472 
" style="fill:none;stroke:#000000;stroke-linecap:square;stroke-linejoin:miter;stroke-width:0.8;"/>
   </g>
   <g id="legend_1">
    <g id="patch_7">
     <path d="M 333.548125 122.862625 
L 407.72 122.862625 
Q 409.72 122.862625 409.72 120.862625 
L 409.72 48.472 
Q 409.72 46.472 407.72 46.472 
L 333.548125 46.472 
Q 331.548125 46.472 331.548125 48.472 
L 331.548125 120.862625 
Q 331.548125 122.862625 333.548125 122.862625 
z
" style="fill:#ffffff;opacity:0.8;stroke:#cccccc;stroke-linejoin:miter;"/>
    </g>
    <g id="line2d_38">
     <path d="M 335.548125 54.570438 
L 355.548125 54.570438 
" style="fill:none;stroke:#6495ed;stroke-linecap:square;stroke-width:1.5;"/>
    </g>
    <g id="line2d_39"/>
    <g id="text_18">
     <!-- sp = 0.1 -->
     <g transform="translate(363.548125 58.070438)scale(0.1 -0.1)">
      <defs>
       <path d="M 10.59375 45.21875 
L 73.1875 45.21875 
L 73.1875 37.40625 
L 10.59375 37.40625 
z
M 10.59375 25.296875 
L 73.1875 25.296875 
L 73.1875 17.484375 
L 10.59375 17.484375 
z
" id="DejaVuSerif-61"/>
      </defs>
      <use xlink:href="#DejaVuSerif-115"/>
      <use x="51.318359" xlink:href="#DejaVuSerif-112"/>
      <use x="115.332031" xlink:href="#DejaVuSerif-32"/>
      <use x="147.119141" xlink:href="#DejaVuSerif-61"/>
      <use x="230.908203" xlink:href="#DejaVuSerif-32"/>
      <use x="262.695312" xlink:href="#DejaVuSerif-48"/>
      <use x="326.318359" xlink:href="#DejaVuSerif-46"/>
      <use x="358.105469" xlink:href="#DejaVuSerif-49"/>
     </g>
    </g>
    <g id="line2d_40">
     <path d="M 335.548125 69.248563 
L 355.548125 69.248563 
" style="fill:none;stroke:#4b0082;stroke-linecap:square;stroke-width:1.5;"/>
    </g>
    <g id="line2d_41"/>
    <g id="text_19">
     <!-- sp = 0.2 -->
     <g transform="translate(363.548125 72.748563)scale(0.1 -0.1)">
      <use xlink:href="#DejaVuSerif-115"/>
      <use x="51.318359" xlink:href="#DejaVuSerif-112"/>
      <use x="115.332031" xlink:href="#DejaVuSerif-32"/>
      <use x="147.119141" xlink:href="#DejaVuSerif-61"/>
      <use x="230.908203" xlink:href="#DejaVuSerif-32"/>
      <use x="262.695312" xlink:href="#DejaVuSerif-48"/>
      <use x="326.318359" xlink:href="#DejaVuSerif-46"/>
      <use x="358.105469" xlink:href="#DejaVuSerif-50"/>
     </g>
    </g>
    <g id="line2d_42">
     <path d="M 335.548125 83.926688 
L 355.548125 83.926688 
" style="fill:none;stroke:#c71585;stroke-linecap:square;stroke-width:1.5;"/>
    </g>
    <g id="line2d_43"/>
    <g id="text_20">
     <!-- sp = 0.3 -->
     <g transform="translate(363.548125 87.426688)scale(0.1 -0.1)">
      <use xlink:href="#DejaVuSerif-115"/>
      <use x="51.318359" xlink:href="#DejaVuSerif-112"/>
      <use x="115.332031" xlink:href="#DejaVuSerif-32"/>
      <use x="147.119141" xlink:href="#DejaVuSerif-61"/>
      <use x="230.908203" xlink:href="#DejaVuSerif-32"/>
      <use x="262.695312" xlink:href="#DejaVuSerif-48"/>
      <use x="326.318359" xlink:href="#DejaVuSerif-46"/>
      <use x="358.105469" xlink:href="#DejaVuSerif-51"/>
     </g>
    </g>
    <g id="line2d_44">
     <path d="M 335.548125 98.604813 
L 355.548125 98.604813 
" style="fill:none;stroke:#dc143c;stroke-linecap:square;stroke-width:1.5;"/>
    </g>
    <g id="line2d_45"/>
    <g id="text_21">
     <!-- sp = 0.4 -->
     <g transform="translate(363.548125 102.104813)scale(0.1 -0.1)">
      <defs>
       <path d="M 34.90625 24.703125 
L 34.90625 63.484375 
L 10.015625 24.703125 
z
M 56.390625 0 
L 23.1875 0 
L 23.1875 5.171875 
L 34.90625 5.171875 
L 34.90625 19.484375 
L 3.078125 19.484375 
L 3.078125 24.8125 
L 35.015625 74.21875 
L 44.671875 74.21875 
L 44.671875 24.703125 
L 58.59375 24.703125 
L 58.59375 19.484375 
L 44.671875 19.484375 
L 44.671875 5.171875 
L 56.390625 5.171875 
z
" id="DejaVuSerif-52"/>
      </defs>
      <use xlink:href="#DejaVuSerif-115"/>
      <use x="51.318359" xlink:href="#DejaVuSerif-112"/>
      <use x="115.332031" xlink:href="#DejaVuSerif-32"/>
      <use x="147.119141" xlink:href="#DejaVuSerif-61"/>
      <use x="230.908203" xlink:href="#DejaVuSerif-32"/>
      <use x="262.695312" xlink:href="#DejaVuSerif-48"/>
      <use x="326.318359" xlink:href="#DejaVuSerif-46"/>
      <use x="358.105469" xlink:href="#DejaVuSerif-52"/>
     </g>
    </g>
    <g id="line2d_46">
     <path d="M 335.548125 113.282938 
L 355.548125 113.282938 
" style="fill:none;stroke:#ffa500;stroke-linecap:square;stroke-width:1.5;"/>
    </g>
    <g id="line2d_47"/>
    <g id="text_22">
     <!-- sp = 0.5 -->
     <g transform="translate(363.548125 116.782938)scale(0.1 -0.1)">
      <use xlink:href="#DejaVuSerif-115"/>
      <use x="51.318359" xlink:href="#DejaVuSerif-112"/>
      <use x="115.332031" xlink:href="#DejaVuSerif-32"/>
      <use x="147.119141" xlink:href="#DejaVuSerif-61"/>
      <use x="230.908203" xlink:href="#DejaVuSerif-32"/>
      <use x="262.695312" xlink:href="#DejaVuSerif-48"/>
      <use x="326.318359" xlink:href="#DejaVuSerif-46"/>
      <use x="358.105469" xlink:href="#DejaVuSerif-53"/>
     </g>
    </g>
   </g>
  </g>
 </g>
 <defs>
  <clipPath id="p38406517c2">
   <rect height="266.112" width="357.12" x="57.6" y="41.472"/>
  </clipPath>
 </defs>
</svg>
