<?xml version="1.0" encoding="utf-8" standalone="no"?>
<!DOCTYPE svg PUBLIC "-//W3C//DTD SVG 1.1//EN"
  "http://www.w3.org/Graphics/SVG/1.1/DTD/svg11.dtd">
<!-- Created with matplotlib (https://matplotlib.org/) -->
<svg height="345.6pt" version="1.1" viewBox="0 0 460.8 345.6" width="460.8pt" xmlns="http://www.w3.org/2000/svg" xmlns:xlink="http://www.w3.org/1999/xlink">
 <metadata>
  <rdf:RDF xmlns:cc="http://creativecommons.org/ns#" xmlns:dc="http://purl.org/dc/elements/1.1/" xmlns:rdf="http://www.w3.org/1999/02/22-rdf-syntax-ns#">
   <cc:Work>
    <dc:type rdf:resource="http://purl.org/dc/dcmitype/StillImage"/>
    <dc:date>2022-08-02T11:03:27.120615</dc:date>
    <dc:format>image/svg+xml</dc:format>
    <dc:creator>
     <cc:Agent>
      <dc:title>Matplotlib v3.3.4, https://matplotlib.org/</dc:title>
     </cc:Agent>
    </dc:creator>
   </cc:Work>
  </rdf:RDF>
 </metadata>
 <defs>
  <style type="text/css">*{stroke-linecap:butt;stroke-linejoin:round;}</style>
 </defs>
 <g id="figure_1">
  <g id="patch_1">
   <path d="M 0 345.6 
L 460.8 345.6 
L 460.8 0 
L 0 0 
z
" style="fill:#ffffff;"/>
  </g>
  <g id="axes_1">
   <g id="patch_2">
    <path d="M 57.6 307.584 
L 414.72 307.584 
L 414.72 41.472 
L 57.6 41.472 
z
" style="fill:#ffffff;"/>
   </g>
   <g id="matplotlib.axis_1">
    <g id="xtick_1">
     <g id="line2d_1">
      <path clip-path="url(#p9e1aed1d77)" d="M 72.692445 307.584 
L 72.692445 41.472 
" style="fill:none;stroke:#b0b0b0;stroke-linecap:square;stroke-width:0.8;"/>
     </g>
     <g id="line2d_2">
      <defs>
       <path d="M 0 0 
L 0 3.5 
" id="m9debc21939" style="stroke:#000000;stroke-width:0.8;"/>
      </defs>
      <g>
       <use style="stroke:#000000;stroke-width:0.8;" x="72.692445" xlink:href="#m9debc21939" y="307.584"/>
      </g>
     </g>
     <g id="text_1">
      <!-- 0 -->
      <g transform="translate(69.511195 322.182437)scale(0.1 -0.1)">
       <defs>
        <path d="M 31.78125 3.421875 
Q 39.265625 3.421875 42.96875 11.625 
Q 46.6875 19.828125 46.6875 36.375 
Q 46.6875 52.984375 42.96875 61.1875 
Q 39.265625 69.390625 31.78125 69.390625 
Q 24.3125 69.390625 20.59375 61.1875 
Q 16.890625 52.984375 16.890625 36.375 
Q 16.890625 19.828125 20.59375 11.625 
Q 24.3125 3.421875 31.78125 3.421875 
z
M 31.78125 -1.421875 
Q 19.921875 -1.421875 13.25 8.53125 
Q 6.59375 18.5 6.59375 36.375 
Q 6.59375 54.296875 13.25 64.25 
Q 19.921875 74.21875 31.78125 74.21875 
Q 43.703125 74.21875 50.34375 64.25 
Q 56.984375 54.296875 56.984375 36.375 
Q 56.984375 18.5 50.34375 8.53125 
Q 43.703125 -1.421875 31.78125 -1.421875 
z
" id="DejaVuSerif-48"/>
       </defs>
       <use xlink:href="#DejaVuSerif-48"/>
      </g>
     </g>
    </g>
    <g id="xtick_2">
     <g id="line2d_3">
      <path clip-path="url(#p9e1aed1d77)" d="M 126.991583 307.584 
L 126.991583 41.472 
" style="fill:none;stroke:#b0b0b0;stroke-linecap:square;stroke-width:0.8;"/>
     </g>
     <g id="line2d_4">
      <g>
       <use style="stroke:#000000;stroke-width:0.8;" x="126.991583" xlink:href="#m9debc21939" y="307.584"/>
      </g>
     </g>
     <g id="text_2">
      <!-- 100 -->
      <g transform="translate(117.447833 322.182437)scale(0.1 -0.1)">
       <defs>
        <path d="M 14.203125 0 
L 14.203125 5.171875 
L 26.90625 5.171875 
L 26.90625 65.828125 
L 12.203125 56.296875 
L 12.203125 62.703125 
L 29.984375 74.21875 
L 36.71875 74.21875 
L 36.71875 5.171875 
L 49.421875 5.171875 
L 49.421875 0 
z
" id="DejaVuSerif-49"/>
       </defs>
       <use xlink:href="#DejaVuSerif-49"/>
       <use x="63.623047" xlink:href="#DejaVuSerif-48"/>
       <use x="127.246094" xlink:href="#DejaVuSerif-48"/>
      </g>
     </g>
    </g>
    <g id="xtick_3">
     <g id="line2d_5">
      <path clip-path="url(#p9e1aed1d77)" d="M 181.290721 307.584 
L 181.290721 41.472 
" style="fill:none;stroke:#b0b0b0;stroke-linecap:square;stroke-width:0.8;"/>
     </g>
     <g id="line2d_6">
      <g>
       <use style="stroke:#000000;stroke-width:0.8;" x="181.290721" xlink:href="#m9debc21939" y="307.584"/>
      </g>
     </g>
     <g id="text_3">
      <!-- 200 -->
      <g transform="translate(171.746971 322.182437)scale(0.1 -0.1)">
       <defs>
        <path d="M 12.796875 55.515625 
L 7.328125 55.515625 
L 7.328125 68.5 
Q 12.546875 71.296875 17.84375 72.75 
Q 23.140625 74.21875 28.21875 74.21875 
Q 39.59375 74.21875 46.1875 68.703125 
Q 52.78125 63.1875 52.78125 53.71875 
Q 52.78125 43.015625 37.84375 28.125 
Q 36.671875 27 36.078125 26.421875 
L 17.671875 8.015625 
L 48.09375 8.015625 
L 48.09375 17 
L 53.8125 17 
L 53.8125 0 
L 6.78125 0 
L 6.78125 5.328125 
L 28.90625 27.390625 
Q 36.234375 34.71875 39.359375 40.84375 
Q 42.484375 46.96875 42.484375 53.71875 
Q 42.484375 61.078125 38.640625 65.234375 
Q 34.8125 69.390625 28.078125 69.390625 
Q 21.09375 69.390625 17.28125 65.921875 
Q 13.484375 62.453125 12.796875 55.515625 
z
" id="DejaVuSerif-50"/>
       </defs>
       <use xlink:href="#DejaVuSerif-50"/>
       <use x="63.623047" xlink:href="#DejaVuSerif-48"/>
       <use x="127.246094" xlink:href="#DejaVuSerif-48"/>
      </g>
     </g>
    </g>
    <g id="xtick_4">
     <g id="line2d_7">
      <path clip-path="url(#p9e1aed1d77)" d="M 235.589859 307.584 
L 235.589859 41.472 
" style="fill:none;stroke:#b0b0b0;stroke-linecap:square;stroke-width:0.8;"/>
     </g>
     <g id="line2d_8">
      <g>
       <use style="stroke:#000000;stroke-width:0.8;" x="235.589859" xlink:href="#m9debc21939" y="307.584"/>
      </g>
     </g>
     <g id="text_4">
      <!-- 300 -->
      <g transform="translate(226.046109 322.182437)scale(0.1 -0.1)">
       <defs>
        <path d="M 9.71875 69.828125 
Q 15.4375 71.96875 20.671875 73.09375 
Q 25.921875 74.21875 30.515625 74.21875 
Q 41.21875 74.21875 47.21875 69.59375 
Q 53.21875 64.984375 53.21875 56.78125 
Q 53.21875 50.203125 49.0625 45.78125 
Q 44.921875 41.359375 37.3125 39.796875 
Q 46.296875 38.53125 51.25 33.28125 
Q 56.203125 28.03125 56.203125 19.671875 
Q 56.203125 9.46875 49.34375 4.015625 
Q 42.484375 -1.421875 29.59375 -1.421875 
Q 23.875 -1.421875 18.421875 -0.1875 
Q 12.984375 1.03125 7.625 3.515625 
L 7.625 17.671875 
L 13.09375 17.671875 
Q 13.578125 10.640625 17.828125 7.03125 
Q 22.078125 3.421875 29.78125 3.421875 
Q 37.25 3.421875 41.578125 7.734375 
Q 45.90625 12.0625 45.90625 19.578125 
Q 45.90625 28.171875 41.453125 32.59375 
Q 37.015625 37.015625 28.421875 37.015625 
L 23.78125 37.015625 
L 23.78125 42 
L 26.21875 42 
Q 34.765625 42 39.03125 45.53125 
Q 43.3125 49.078125 43.3125 56.203125 
Q 43.3125 62.59375 39.796875 65.984375 
Q 36.28125 69.390625 29.6875 69.390625 
Q 23.09375 69.390625 19.453125 66.265625 
Q 15.828125 63.140625 15.1875 56.984375 
L 9.71875 56.984375 
z
" id="DejaVuSerif-51"/>
       </defs>
       <use xlink:href="#DejaVuSerif-51"/>
       <use x="63.623047" xlink:href="#DejaVuSerif-48"/>
       <use x="127.246094" xlink:href="#DejaVuSerif-48"/>
      </g>
     </g>
    </g>
    <g id="xtick_5">
     <g id="line2d_9">
      <path clip-path="url(#p9e1aed1d77)" d="M 289.888997 307.584 
L 289.888997 41.472 
" style="fill:none;stroke:#b0b0b0;stroke-linecap:square;stroke-width:0.8;"/>
     </g>
     <g id="line2d_10">
      <g>
       <use style="stroke:#000000;stroke-width:0.8;" x="289.888997" xlink:href="#m9debc21939" y="307.584"/>
      </g>
     </g>
     <g id="text_5">
      <!-- 400 -->
      <g transform="translate(280.345247 322.182437)scale(0.1 -0.1)">
       <defs>
        <path d="M 34.90625 24.703125 
L 34.90625 63.484375 
L 10.015625 24.703125 
z
M 56.390625 0 
L 23.1875 0 
L 23.1875 5.171875 
L 34.90625 5.171875 
L 34.90625 19.484375 
L 3.078125 19.484375 
L 3.078125 24.8125 
L 35.015625 74.21875 
L 44.671875 74.21875 
L 44.671875 24.703125 
L 58.59375 24.703125 
L 58.59375 19.484375 
L 44.671875 19.484375 
L 44.671875 5.171875 
L 56.390625 5.171875 
z
" id="DejaVuSerif-52"/>
       </defs>
       <use xlink:href="#DejaVuSerif-52"/>
       <use x="63.623047" xlink:href="#DejaVuSerif-48"/>
       <use x="127.246094" xlink:href="#DejaVuSerif-48"/>
      </g>
     </g>
    </g>
    <g id="xtick_6">
     <g id="line2d_11">
      <path clip-path="url(#p9e1aed1d77)" d="M 344.188135 307.584 
L 344.188135 41.472 
" style="fill:none;stroke:#b0b0b0;stroke-linecap:square;stroke-width:0.8;"/>
     </g>
     <g id="line2d_12">
      <g>
       <use style="stroke:#000000;stroke-width:0.8;" x="344.188135" xlink:href="#m9debc21939" y="307.584"/>
      </g>
     </g>
     <g id="text_6">
      <!-- 500 -->
      <g transform="translate(334.644385 322.182437)scale(0.1 -0.1)">
       <defs>
        <path d="M 50.296875 72.90625 
L 50.296875 64.890625 
L 16.890625 64.890625 
L 16.890625 44 
Q 19.4375 45.75 22.828125 46.625 
Q 26.21875 47.515625 30.421875 47.515625 
Q 42.234375 47.515625 49.0625 40.96875 
Q 55.90625 34.421875 55.90625 23.09375 
Q 55.90625 11.53125 49 5.046875 
Q 42.09375 -1.421875 29.59375 -1.421875 
Q 24.5625 -1.421875 19.28125 -0.1875 
Q 14.015625 1.03125 8.5 3.515625 
L 8.5 17.671875 
L 14.015625 17.671875 
Q 14.453125 10.75 18.421875 7.078125 
Q 22.40625 3.421875 29.59375 3.421875 
Q 37.3125 3.421875 41.453125 8.5 
Q 45.609375 13.578125 45.609375 23.09375 
Q 45.609375 32.5625 41.484375 37.609375 
Q 37.359375 42.671875 29.59375 42.671875 
Q 25.203125 42.671875 21.84375 41.109375 
Q 18.5 39.546875 15.921875 36.28125 
L 11.71875 36.28125 
L 11.71875 72.90625 
z
" id="DejaVuSerif-53"/>
       </defs>
       <use xlink:href="#DejaVuSerif-53"/>
       <use x="63.623047" xlink:href="#DejaVuSerif-48"/>
       <use x="127.246094" xlink:href="#DejaVuSerif-48"/>
      </g>
     </g>
    </g>
    <g id="xtick_7">
     <g id="line2d_13">
      <path clip-path="url(#p9e1aed1d77)" d="M 398.487273 307.584 
L 398.487273 41.472 
" style="fill:none;stroke:#b0b0b0;stroke-linecap:square;stroke-width:0.8;"/>
     </g>
     <g id="line2d_14">
      <g>
       <use style="stroke:#000000;stroke-width:0.8;" x="398.487273" xlink:href="#m9debc21939" y="307.584"/>
      </g>
     </g>
     <g id="text_7">
      <!-- 600 -->
      <g transform="translate(388.943523 322.182437)scale(0.1 -0.1)">
       <defs>
        <path d="M 32.71875 3.421875 
Q 39.59375 3.421875 43.296875 8.46875 
Q 47.015625 13.53125 47.015625 23 
Q 47.015625 32.46875 43.296875 37.515625 
Q 39.59375 42.578125 32.71875 42.578125 
Q 25.734375 42.578125 22.0625 37.6875 
Q 18.40625 32.8125 18.40625 23.578125 
Q 18.40625 13.875 22.109375 8.640625 
Q 25.828125 3.421875 32.71875 3.421875 
z
M 16.796875 40.140625 
Q 20.125 43.796875 24.3125 45.59375 
Q 28.515625 47.40625 33.796875 47.40625 
Q 44.671875 47.40625 51 40.859375 
Q 57.328125 34.328125 57.328125 23 
Q 57.328125 11.921875 50.515625 5.25 
Q 43.703125 -1.421875 32.328125 -1.421875 
Q 19.96875 -1.421875 13.328125 7.78125 
Q 6.6875 17 6.6875 34.078125 
Q 6.6875 53.21875 14.546875 63.71875 
Q 22.40625 74.21875 36.71875 74.21875 
Q 40.578125 74.21875 44.828125 73.484375 
Q 49.078125 72.75 53.515625 71.296875 
L 53.515625 59.28125 
L 48 59.28125 
Q 47.40625 64.203125 44.234375 66.796875 
Q 41.0625 69.390625 35.6875 69.390625 
Q 26.21875 69.390625 21.578125 62.203125 
Q 16.9375 55.03125 16.796875 40.140625 
z
" id="DejaVuSerif-54"/>
       </defs>
       <use xlink:href="#DejaVuSerif-54"/>
       <use x="63.623047" xlink:href="#DejaVuSerif-48"/>
       <use x="127.246094" xlink:href="#DejaVuSerif-48"/>
      </g>
     </g>
    </g>
    <g id="text_8">
     <!-- Time -->
     <g transform="translate(214.680234 341.179469)scale(0.17 -0.17)">
      <defs>
       <path d="M 19.09375 0 
L 19.09375 5.171875 
L 28.421875 5.171875 
L 28.421875 67.09375 
L 6.984375 67.09375 
L 6.984375 55.71875 
L 0.984375 55.71875 
L 0.984375 72.90625 
L 65.71875 72.90625 
L 65.71875 55.71875 
L 59.71875 55.71875 
L 59.71875 67.09375 
L 38.28125 67.09375 
L 38.28125 5.171875 
L 47.609375 5.171875 
L 47.609375 0 
z
" id="DejaVuSerif-84"/>
       <path d="M 9.71875 68.015625 
Q 9.71875 70.265625 11.34375 71.921875 
Q 12.984375 73.578125 15.28125 73.578125 
Q 17.53125 73.578125 19.15625 71.921875 
Q 20.796875 70.265625 20.796875 68.015625 
Q 20.796875 65.71875 19.1875 64.109375 
Q 17.578125 62.5 15.28125 62.5 
Q 12.984375 62.5 11.34375 64.109375 
Q 9.71875 65.71875 9.71875 68.015625 
z
M 21.1875 5.171875 
L 29.6875 5.171875 
L 29.6875 0 
L 3.609375 0 
L 3.609375 5.171875 
L 12.203125 5.171875 
L 12.203125 46.6875 
L 3.609375 46.6875 
L 3.609375 51.90625 
L 21.1875 51.90625 
z
" id="DejaVuSerif-105"/>
       <path d="M 51.8125 41.796875 
Q 54.390625 47.515625 58.421875 50.421875 
Q 62.453125 53.328125 67.828125 53.328125 
Q 75.984375 53.328125 79.984375 48.265625 
Q 83.984375 43.21875 83.984375 33.015625 
L 83.984375 5.171875 
L 92.09375 5.171875 
L 92.09375 0 
L 67.1875 0 
L 67.1875 5.171875 
L 75 5.171875 
L 75 31.984375 
Q 75 39.9375 72.65625 43.3125 
Q 70.3125 46.6875 64.890625 46.6875 
Q 58.890625 46.6875 55.734375 42.140625 
Q 52.59375 37.59375 52.59375 28.90625 
L 52.59375 5.171875 
L 60.40625 5.171875 
L 60.40625 0 
L 35.796875 0 
L 35.796875 5.171875 
L 43.609375 5.171875 
L 43.609375 32.328125 
Q 43.609375 40.09375 41.265625 43.390625 
Q 38.921875 46.6875 33.5 46.6875 
Q 27.484375 46.6875 24.328125 42.140625 
Q 21.1875 37.59375 21.1875 28.90625 
L 21.1875 5.171875 
L 29 5.171875 
L 29 0 
L 4.109375 0 
L 4.109375 5.171875 
L 12.203125 5.171875 
L 12.203125 46.78125 
L 3.609375 46.78125 
L 3.609375 51.90625 
L 21.1875 51.90625 
L 21.1875 42.671875 
Q 23.6875 47.859375 27.53125 50.59375 
Q 31.390625 53.328125 36.28125 53.328125 
Q 42.328125 53.328125 46.375 50.3125 
Q 50.4375 47.3125 51.8125 41.796875 
z
" id="DejaVuSerif-109"/>
       <path d="M 54.203125 25 
L 15.484375 25 
L 15.484375 24.609375 
Q 15.484375 14.109375 19.4375 8.765625 
Q 23.390625 3.421875 31.109375 3.421875 
Q 37.015625 3.421875 40.796875 6.515625 
Q 44.578125 9.625 46.09375 15.71875 
L 53.328125 15.71875 
Q 51.171875 7.171875 45.375 2.875 
Q 39.59375 -1.421875 30.171875 -1.421875 
Q 18.796875 -1.421875 11.890625 6.078125 
Q 4.984375 13.578125 4.984375 25.984375 
Q 4.984375 38.28125 11.765625 45.796875 
Q 18.5625 53.328125 29.59375 53.328125 
Q 41.359375 53.328125 47.65625 46.0625 
Q 53.953125 38.8125 54.203125 25 
z
M 43.609375 30.171875 
Q 43.3125 39.265625 39.765625 43.875 
Q 36.234375 48.484375 29.59375 48.484375 
Q 23.390625 48.484375 19.828125 43.84375 
Q 16.265625 39.203125 15.484375 30.171875 
z
" id="DejaVuSerif-101"/>
      </defs>
      <use xlink:href="#DejaVuSerif-84"/>
      <use x="66.699219" xlink:href="#DejaVuSerif-105"/>
      <use x="98.681641" xlink:href="#DejaVuSerif-109"/>
      <use x="193.505859" xlink:href="#DejaVuSerif-101"/>
     </g>
    </g>
   </g>
   <g id="matplotlib.axis_2">
    <g id="ytick_1">
     <g id="line2d_15">
      <path clip-path="url(#p9e1aed1d77)" d="M 57.6 281.077775 
L 414.72 281.077775 
" style="fill:none;stroke:#b0b0b0;stroke-linecap:square;stroke-width:0.8;"/>
     </g>
     <g id="line2d_16">
      <defs>
       <path d="M 0 0 
L -3.5 0 
" id="m8be3756acb" style="stroke:#000000;stroke-width:0.8;"/>
      </defs>
      <g>
       <use style="stroke:#000000;stroke-width:0.8;" x="57.6" xlink:href="#m8be3756acb" y="281.077775"/>
      </g>
     </g>
     <g id="text_9">
      <!-- 0.1 -->
      <g transform="translate(34.696875 284.876994)scale(0.1 -0.1)">
       <defs>
        <path d="M 9.421875 5.078125 
Q 9.421875 7.8125 11.28125 9.71875 
Q 13.140625 11.625 15.921875 11.625 
Q 18.609375 11.625 20.5 9.71875 
Q 22.40625 7.8125 22.40625 5.078125 
Q 22.40625 2.390625 20.5 0.484375 
Q 18.609375 -1.421875 15.921875 -1.421875 
Q 13.140625 -1.421875 11.28125 0.453125 
Q 9.421875 2.34375 9.421875 5.078125 
z
" id="DejaVuSerif-46"/>
       </defs>
       <use xlink:href="#DejaVuSerif-48"/>
       <use x="63.623047" xlink:href="#DejaVuSerif-46"/>
       <use x="95.410156" xlink:href="#DejaVuSerif-49"/>
      </g>
     </g>
    </g>
    <g id="ytick_2">
     <g id="line2d_17">
      <path clip-path="url(#p9e1aed1d77)" d="M 57.6 224.200331 
L 414.72 224.200331 
" style="fill:none;stroke:#b0b0b0;stroke-linecap:square;stroke-width:0.8;"/>
     </g>
     <g id="line2d_18">
      <g>
       <use style="stroke:#000000;stroke-width:0.8;" x="57.6" xlink:href="#m8be3756acb" y="224.200331"/>
      </g>
     </g>
     <g id="text_10">
      <!-- 0.2 -->
      <g transform="translate(34.696875 227.99955)scale(0.1 -0.1)">
       <use xlink:href="#DejaVuSerif-48"/>
       <use x="63.623047" xlink:href="#DejaVuSerif-46"/>
       <use x="95.410156" xlink:href="#DejaVuSerif-50"/>
      </g>
     </g>
    </g>
    <g id="ytick_3">
     <g id="line2d_19">
      <path clip-path="url(#p9e1aed1d77)" d="M 57.6 167.322888 
L 414.72 167.322888 
" style="fill:none;stroke:#b0b0b0;stroke-linecap:square;stroke-width:0.8;"/>
     </g>
     <g id="line2d_20">
      <g>
       <use style="stroke:#000000;stroke-width:0.8;" x="57.6" xlink:href="#m8be3756acb" y="167.322888"/>
      </g>
     </g>
     <g id="text_11">
      <!-- 0.3 -->
      <g transform="translate(34.696875 171.122106)scale(0.1 -0.1)">
       <use xlink:href="#DejaVuSerif-48"/>
       <use x="63.623047" xlink:href="#DejaVuSerif-46"/>
       <use x="95.410156" xlink:href="#DejaVuSerif-51"/>
      </g>
     </g>
    </g>
    <g id="ytick_4">
     <g id="line2d_21">
      <path clip-path="url(#p9e1aed1d77)" d="M 57.6 110.445444 
L 414.72 110.445444 
" style="fill:none;stroke:#b0b0b0;stroke-linecap:square;stroke-width:0.8;"/>
     </g>
     <g id="line2d_22">
      <g>
       <use style="stroke:#000000;stroke-width:0.8;" x="57.6" xlink:href="#m8be3756acb" y="110.445444"/>
      </g>
     </g>
     <g id="text_12">
      <!-- 0.4 -->
      <g transform="translate(34.696875 114.244663)scale(0.1 -0.1)">
       <use xlink:href="#DejaVuSerif-48"/>
       <use x="63.623047" xlink:href="#DejaVuSerif-46"/>
       <use x="95.410156" xlink:href="#DejaVuSerif-52"/>
      </g>
     </g>
    </g>
    <g id="ytick_5">
     <g id="line2d_23">
      <path clip-path="url(#p9e1aed1d77)" d="M 57.6 53.568 
L 414.72 53.568 
" style="fill:none;stroke:#b0b0b0;stroke-linecap:square;stroke-width:0.8;"/>
     </g>
     <g id="line2d_24">
      <g>
       <use style="stroke:#000000;stroke-width:0.8;" x="57.6" xlink:href="#m8be3756acb" y="53.568"/>
      </g>
     </g>
     <g id="text_13">
      <!-- 0.5 -->
      <g transform="translate(34.696875 57.367219)scale(0.1 -0.1)">
       <use xlink:href="#DejaVuSerif-48"/>
       <use x="63.623047" xlink:href="#DejaVuSerif-46"/>
       <use x="95.410156" xlink:href="#DejaVuSerif-53"/>
      </g>
     </g>
    </g>
    <g id="text_14">
     <!-- Speed -->
     <g transform="translate(27.161406 201.295031)rotate(-90)scale(0.17 -0.17)">
      <defs>
       <path d="M 9.28125 3.515625 
L 9.28125 20.125 
L 14.890625 20.0625 
Q 15.140625 11.765625 19.703125 7.78125 
Q 24.265625 3.8125 33.59375 3.8125 
Q 42.28125 3.8125 46.84375 7.25 
Q 51.421875 10.6875 51.421875 17.28125 
Q 51.421875 22.5625 48.65625 25.390625 
Q 45.90625 28.21875 37.015625 30.90625 
L 27.390625 33.796875 
Q 16.9375 36.96875 12.671875 41.703125 
Q 8.40625 46.4375 8.40625 54.6875 
Q 8.40625 63.96875 14.984375 69.09375 
Q 21.578125 74.21875 33.5 74.21875 
Q 38.578125 74.21875 44.625 73.109375 
Q 50.6875 72.015625 57.515625 69.921875 
L 57.515625 54.390625 
L 52 54.390625 
Q 51.171875 62.109375 46.84375 65.546875 
Q 42.53125 69 33.6875 69 
Q 25.984375 69 21.953125 65.84375 
Q 17.921875 62.703125 17.921875 56.6875 
Q 17.921875 51.46875 20.9375 48.484375 
Q 23.96875 45.515625 33.796875 42.578125 
L 42.828125 39.890625 
Q 52.734375 36.921875 56.953125 32.296875 
Q 61.1875 27.6875 61.1875 19.921875 
Q 61.1875 9.328125 54.390625 3.953125 
Q 47.609375 -1.421875 34.1875 -1.421875 
Q 28.171875 -1.421875 21.9375 -0.1875 
Q 15.71875 1.03125 9.28125 3.515625 
z
" id="DejaVuSerif-83"/>
       <path d="M 20.515625 28.515625 
L 20.515625 23.390625 
Q 20.515625 14.015625 24.09375 9.109375 
Q 27.6875 4.203125 34.515625 4.203125 
Q 41.40625 4.203125 44.9375 9.71875 
Q 48.484375 15.234375 48.484375 25.984375 
Q 48.484375 36.765625 44.9375 42.234375 
Q 41.40625 47.703125 34.515625 47.703125 
Q 27.6875 47.703125 24.09375 42.765625 
Q 20.515625 37.84375 20.515625 28.515625 
z
M 11.53125 46.6875 
L 2.875 46.6875 
L 2.875 51.90625 
L 20.515625 51.90625 
L 20.515625 43.796875 
Q 23.140625 48.6875 27.21875 51 
Q 31.296875 53.328125 37.3125 53.328125 
Q 46.875 53.328125 52.921875 45.75 
Q 58.984375 38.1875 58.984375 25.984375 
Q 58.984375 13.765625 52.921875 6.171875 
Q 46.875 -1.421875 37.3125 -1.421875 
Q 31.296875 -1.421875 27.21875 0.890625 
Q 23.140625 3.21875 20.515625 8.109375 
L 20.515625 -15.578125 
L 29 -15.578125 
L 29 -20.796875 
L 2.875 -20.796875 
L 2.875 -15.578125 
L 11.53125 -15.578125 
z
" id="DejaVuSerif-112"/>
       <path d="M 52.484375 5.171875 
L 61.078125 5.171875 
L 61.078125 0 
L 43.5 0 
L 43.5 8.109375 
Q 40.875 3.21875 36.796875 0.890625 
Q 32.71875 -1.421875 26.703125 -1.421875 
Q 17.140625 -1.421875 11.0625 6.171875 
Q 4.984375 13.765625 4.984375 25.984375 
Q 4.984375 38.1875 11.03125 45.75 
Q 17.09375 53.328125 26.703125 53.328125 
Q 32.71875 53.328125 36.796875 51 
Q 40.875 48.6875 43.5 43.796875 
L 43.5 70.796875 
L 35.015625 70.796875 
L 35.015625 75.984375 
L 52.484375 75.984375 
z
M 43.5 23.390625 
L 43.5 28.515625 
Q 43.5 37.84375 39.90625 42.765625 
Q 36.328125 47.703125 29.5 47.703125 
Q 22.5625 47.703125 19.015625 42.234375 
Q 15.484375 36.765625 15.484375 25.984375 
Q 15.484375 15.234375 19.015625 9.71875 
Q 22.5625 4.203125 29.5 4.203125 
Q 36.328125 4.203125 39.90625 9.109375 
Q 43.5 14.015625 43.5 23.390625 
z
" id="DejaVuSerif-100"/>
      </defs>
      <use xlink:href="#DejaVuSerif-83"/>
      <use x="68.505859" xlink:href="#DejaVuSerif-112"/>
      <use x="132.519531" xlink:href="#DejaVuSerif-101"/>
      <use x="191.699219" xlink:href="#DejaVuSerif-101"/>
      <use x="250.878906" xlink:href="#DejaVuSerif-100"/>
     </g>
    </g>
   </g>
   <g id="line2d_25">
    <path clip-path="url(#p9e1aed1d77)" d="M 73.832727 195.761609 
L 73.941326 195.761609 
L 73.995625 53.568 
L 74.049924 195.761609 
L 74.104223 224.200331 
L 74.212821 110.445444 
L 74.32142 224.200331 
L 74.430018 148.36374 
L 74.484317 243.159479 
L 74.538616 148.36374 
L 74.592915 148.36374 
L 74.755813 175.448237 
L 74.864411 175.448237 
L 74.91871 124.664805 
L 75.081607 195.761609 
L 75.135907 124.664805 
L 75.190206 148.36374 
L 75.244505 211.560899 
L 75.298804 148.36374 
L 75.353103 148.36374 
L 75.461701 224.200331 
L 75.624599 167.322888 
L 75.678898 167.322888 
L 75.841795 182.834918 
L 75.950394 182.834918 
L 76.058992 195.761609 
L 76.113291 148.36374 
L 76.16759 195.761609 
L 76.221889 195.761609 
L 76.330488 162.9477 
L 76.439086 206.699579 
L 76.493385 162.9477 
L 76.547684 175.448237 
L 76.601983 175.448237 
L 76.656282 216.074982 
L 76.710582 175.448237 
L 76.764881 175.448237 
L 76.81918 186.282036 
L 76.873479 148.36374 
L 76.927778 186.282036 
L 77.036376 186.282036 
L 77.090676 160.213207 
L 77.253573 195.761609 
L 77.307872 160.213207 
L 77.362171 170.66862 
L 77.47077 204.125939 
L 77.579368 170.66862 
L 77.633667 179.96232 
L 77.687966 211.560899 
L 77.742265 179.96232 
L 77.796564 179.96232 
L 77.905163 218.213232 
L 78.06806 188.277735 
L 78.122359 218.213232 
L 78.176658 195.761609 
L 78.393855 195.761609 
L 78.556752 202.532734 
L 78.611051 175.448237 
L 78.665351 202.532734 
L 78.773949 208.688301 
L 78.882547 182.834918 
L 78.991145 214.308602 
L 79.154043 189.579279 
L 79.208342 214.308602 
L 79.262641 195.761609 
L 79.479838 195.761609 
L 79.642735 201.449354 
L 79.697034 178.698376 
L 79.751333 201.449354 
L 79.914231 206.699579 
L 79.96853 184.82364 
L 80.022829 206.699579 
L 80.131427 211.560899 
L 80.240026 190.495179 
L 80.348624 216.074982 
L 80.511521 195.761609 
L 80.62012 220.277749 
L 80.783017 200.664837 
L 80.837316 220.277749 
L 80.891615 205.241183 
L 81.108812 205.241183 
L 81.271709 209.522281 
L 81.380307 209.522281 
L 81.543205 213.535811 
L 81.651803 195.761609 
L 81.706102 200.070507 
L 81.814701 217.306096 
L 81.923299 200.070507 
L 81.977598 204.125939 
L 82.031897 220.854599 
L 82.086196 204.125939 
L 82.194795 204.125939 
L 82.249094 207.949633 
L 82.303393 224.200331 
L 82.357692 207.949633 
L 82.46629 207.949633 
L 82.629188 211.560899 
L 82.737786 211.560899 
L 82.792085 214.976962 
L 82.846384 199.60468 
L 82.900683 214.976962 
L 83.009282 214.976962 
L 83.063581 218.213232 
L 83.11788 203.245484 
L 83.172179 218.213232 
L 83.280777 218.213232 
L 83.335076 221.283539 
L 83.443675 206.699579 
L 83.606572 224.200331 
L 83.71517 209.98097 
L 83.823769 224.200331 
L 83.986666 213.102294 
L 84.040965 213.102294 
L 84.095264 226.974841 
L 84.149563 216.074982 
L 84.312461 216.074982 
L 84.36676 229.617231 
L 84.421059 218.909406 
L 84.638256 218.909406 
L 84.692555 208.688301 
L 84.855452 221.614993 
L 84.909751 221.614993 
L 85.01835 211.560899 
L 85.181247 224.200331 
L 85.289845 214.308602 
L 85.452743 226.673264 
L 85.61564 216.939381 
L 85.724238 229.040965 
L 85.887136 219.460544 
L 85.941435 219.460544 
L 85.995734 231.310012 
L 86.050033 221.878803 
L 86.26723 221.878803 
L 86.321529 212.824843 
L 86.484426 224.200331 
L 86.538726 224.200331 
L 86.593025 215.278379 
L 86.755922 226.430819 
L 86.810221 226.430819 
L 86.91882 217.637549 
L 87.081717 228.575519 
L 87.244614 219.907694 
L 87.407512 232.626619 
L 87.570409 222.093759 
L 87.679007 234.541685 
L 87.841905 224.200331 
L 87.896204 224.200331 
L 88.059101 226.231669 
L 88.1677 226.231669 
L 88.221999 228.191731 
L 88.276298 218.213232 
L 88.330597 228.191731 
L 88.439195 228.191731 
L 88.547794 230.084205 
L 88.602093 220.277749 
L 88.656392 230.084205 
L 88.710691 230.084205 
L 88.819289 231.912527 
L 88.927888 222.272282 
L 89.090785 233.679905 
L 89.145084 233.679905 
L 89.253682 224.200331 
L 89.307982 226.065166 
L 89.41658 235.389337 
L 89.525178 226.065166 
L 89.633776 227.869844 
L 89.688076 237.043625 
L 89.742375 227.869844 
L 89.796674 227.869844 
L 89.959571 229.617231 
L 90.01387 238.645396 
L 90.06817 229.617231 
L 90.231067 231.310012 
L 90.285366 231.310012 
L 90.339665 240.197112 
L 90.393964 232.950707 
L 90.611161 232.950707 
L 90.66546 225.92389 
L 90.828357 234.541685 
L 90.882657 234.541685 
L 90.936956 236.08517 
L 91.045554 227.596 
L 91.208451 237.583259 
L 91.371349 229.218929 
L 91.534246 239.037925 
L 91.697144 230.794818 
L 91.751443 232.32568 
L 91.860041 240.45103 
L 91.968639 232.32568 
L 92.077238 233.81342 
L 92.131537 241.824328 
L 92.185836 233.81342 
L 92.240135 233.81342 
L 92.403032 235.259834 
L 92.511631 235.259834 
L 92.674528 236.66662 
L 92.783126 236.66662 
L 92.837426 230.349244 
L 93.000323 238.035385 
L 93.054622 238.035385 
L 93.108921 239.36765 
L 93.21752 231.783991 
L 93.380417 240.664855 
L 93.434716 240.664855 
L 93.543314 233.18098 
L 93.706212 241.928366 
L 93.869109 234.541685 
L 93.923408 235.867499 
L 94.032007 243.159479 
L 94.140605 235.867499 
L 94.303502 237.159749 
L 94.357801 244.359425 
L 94.412101 237.159749 
L 94.574998 238.419692 
L 94.683596 238.419692 
L 94.737895 232.626619 
L 94.900793 239.648526 
L 94.955092 239.648526 
L 95.009391 240.847388 
L 95.06369 233.911114 
L 95.117989 240.847388 
L 95.226588 240.847388 
L 95.335186 242.017362 
L 95.443784 235.164658 
L 95.606682 243.159479 
L 95.660981 243.159479 
L 95.769579 236.388355 
L 95.823878 237.583259 
L 95.986776 244.274723 
L 96.041075 237.583259 
L 96.095374 238.750375 
L 96.203972 238.750375 
L 96.366869 246.428298 
L 96.529767 239.890661 
L 96.584066 239.890661 
L 96.638365 241.005031 
L 96.692664 247.468377 
L 96.746963 241.005031 
L 96.855562 241.005031 
L 96.96416 242.094359 
L 97.018459 248.485083 
L 97.072758 242.094359 
L 97.127057 242.094359 
L 97.289955 243.159479 
L 97.398553 243.159479 
L 97.561451 244.201191 
L 97.670049 244.201191 
L 97.778647 239.037925 
L 97.941544 245.220256 
L 98.050143 246.217406 
L 98.158741 240.101552 
L 98.321638 247.193341 
L 98.375938 247.193341 
L 98.484536 241.142549 
L 98.593134 242.161629 
L 98.701732 248.148729 
L 98.756032 242.161629 
L 98.810331 243.159479 
L 98.918929 243.159479 
L 99.081826 250.000409 
L 99.244724 244.136755 
L 99.299023 244.136755 
L 99.353322 245.094086 
L 99.407621 250.897907 
L 99.46192 245.094086 
L 99.570519 245.094086 
L 99.733416 246.032077 
L 99.842014 246.032077 
L 100.004912 246.951309 
L 100.11351 246.951309 
L 100.167809 242.220908 
L 100.330707 247.852338 
L 100.385006 247.852338 
L 100.439305 248.735699 
L 100.547903 243.159479 
L 100.710801 249.601908 
L 100.819399 249.601908 
L 100.927997 244.079826 
L 100.982296 244.982474 
L 101.145194 250.451459 
L 101.199493 244.982474 
L 101.253792 245.867929 
L 101.36239 245.867929 
L 101.525288 252.102474 
L 101.688185 246.736677 
L 101.742484 246.736677 
L 101.796783 247.589187 
L 101.905382 252.904836 
L 102.01398 247.589187 
L 102.176877 248.425909 
L 102.285476 248.425909 
L 102.448373 249.247279 
L 102.556971 249.247279 
L 102.61127 250.053715 
L 102.665569 244.883038 
L 102.719869 250.053715 
L 102.828467 250.053715 
L 102.991364 250.84562 
L 103.045663 245.721526 
L 103.099963 250.84562 
L 103.26286 251.623385 
L 103.317159 251.623385 
L 103.371458 246.545041 
L 103.425757 247.353981 
L 103.480057 247.353981 
L 103.642954 252.387383 
L 103.697253 253.137978 
L 103.860151 248.148729 
L 104.023048 253.875519 
L 104.077347 253.875519 
L 104.185945 248.929655 
L 104.348843 249.697117 
L 104.457441 254.600344 
L 104.620338 250.451459 
L 104.728937 250.451459 
L 104.783236 251.193017 
L 104.837535 256.013139 
L 104.891834 251.193017 
L 105.000432 251.193017 
L 105.16333 251.922111 
L 105.217629 256.701728 
L 105.271928 251.922111 
L 105.434826 252.639053 
L 105.543424 252.639053 
L 105.652022 248.64353 
L 105.814919 253.344146 
L 105.923518 254.037679 
L 106.032116 249.375593 
L 106.195013 254.719935 
L 106.303612 254.719935 
L 106.357911 250.095753 
L 106.41221 250.804297 
L 106.466509 250.804297 
L 106.629407 255.391188 
L 106.683706 256.0517 
L 106.846603 251.501504 
L 106.900902 251.501504 
L 106.955201 252.187645 
L 107.0638 256.701728 
L 107.172398 252.187645 
L 107.335295 252.86298 
L 107.443894 257.341519 
L 107.606791 253.527763 
L 107.715389 253.527763 
L 107.823988 254.18224 
L 107.878287 258.591344 
L 107.932586 254.18224 
L 107.986885 254.18224 
L 108.149782 254.826647 
L 108.204082 254.826647 
L 108.258381 259.201835 
L 108.31268 255.461216 
L 108.529876 255.461216 
L 108.638475 256.086171 
L 108.692774 251.777274 
L 108.747073 256.086171 
L 108.801372 256.086171 
L 108.964269 256.701728 
L 109.018569 256.701728 
L 109.072868 252.425228 
L 109.127167 253.063512 
L 109.181466 253.063512 
L 109.344363 257.308097 
L 109.398663 257.905483 
L 109.56156 253.692339 
L 109.724457 258.494084 
L 109.833056 258.494084 
L 109.887355 254.311919 
L 109.941654 254.922454 
L 110.050252 254.922454 
L 110.21315 259.645695 
L 110.376047 255.524141 
L 110.430346 255.524141 
L 110.538944 256.11717 
L 110.593244 260.209073 
L 110.647543 256.11717 
L 110.701842 256.11717 
L 110.864739 256.701728 
L 110.919038 256.701728 
L 110.973338 260.764402 
L 111.027637 257.277994 
L 111.244833 257.277994 
L 111.407731 257.846143 
L 111.516329 257.846143 
L 111.679226 258.406347 
L 111.787825 258.406347 
L 111.896423 255.008947 
L 112.05932 258.958769 
L 112.222218 259.503572 
L 112.330816 255.58099 
L 112.385115 256.145197 
L 112.548013 260.040912 
L 112.602312 260.040912 
L 112.765209 256.701728 
L 112.819508 256.701728 
L 112.982406 261.093808 
L 113.036705 261.093808 
L 113.145303 257.250738 
L 113.308201 257.792379 
L 113.416799 261.609657 
L 113.579696 258.326798 
L 113.688294 258.326798 
L 113.742594 258.854138 
L 113.851192 262.620856 
L 113.95979 258.854138 
L 114.122688 259.37454 
L 114.176987 259.37454 
L 114.231286 263.116477 
L 114.285585 259.888139 
L 114.502782 259.888139 
L 114.665679 260.395068 
L 114.774277 260.395068 
L 114.937175 260.895456 
L 115.045773 260.895456 
L 115.154371 257.743439 
L 115.317269 261.389429 
L 115.480166 261.877109 
L 115.588764 258.254342 
L 115.643063 258.758778 
L 115.805961 262.358616 
L 115.86026 262.358616 
L 115.914559 262.834067 
L 116.077457 259.256869 
L 116.240354 263.303574 
L 116.348952 263.303574 
L 116.403251 259.748734 
L 116.457551 260.234488 
L 116.620448 260.234488 
L 116.729046 264.225199 
L 116.891944 260.714246 
L 116.946243 260.714246 
L 117.10914 261.188117 
L 117.163439 264.677531 
L 117.217738 261.188117 
L 117.380636 261.656209 
L 117.489234 261.656209 
L 117.652132 262.118627 
L 117.76073 262.118627 
L 117.923627 262.575474 
L 118.032226 262.575474 
L 118.086525 259.621015 
L 118.249422 263.02685 
L 118.303721 263.02685 
L 118.466619 263.472852 
L 118.520918 260.08729 
L 118.575217 263.472852 
L 118.738114 263.913576 
L 118.846713 263.913576 
L 118.901012 264.349115 
L 119.063909 261.003383 
L 119.226807 264.77956 
L 119.281106 264.77956 
L 119.389704 261.453394 
L 119.552601 261.898172 
L 119.715499 265.625522 
L 119.878396 262.337808 
L 119.932695 262.337808 
L 120.041294 262.772391 
L 120.149892 266.04121 
L 120.204191 262.772391 
L 120.25849 263.202007 
L 120.475687 263.202007 
L 120.529986 263.626741 
L 120.584285 266.858414 
L 120.638584 263.626741 
L 120.747182 263.626741 
L 120.91008 264.046676 
L 121.018678 264.046676 
L 121.181576 264.461893 
L 121.290174 264.461893 
L 121.453071 264.87247 
L 121.561669 264.87247 
L 121.724567 265.278485 
L 121.833165 265.278485 
L 121.941763 265.680014 
L 122.050362 262.537614 
L 122.213259 266.077131 
L 122.376157 266.077131 
L 122.539054 263.36185 
L 122.701951 266.858414 
L 122.81055 266.858414 
L 122.919148 263.767249 
L 123.082045 264.168265 
L 123.244943 267.622896 
L 123.40784 264.564969 
L 123.462139 264.564969 
L 123.570738 264.95743 
L 123.679336 267.999005 
L 123.733635 264.95743 
L 123.787934 265.345716 
L 124.005131 265.345716 
L 124.113729 265.729893 
L 124.168028 268.739282 
L 124.222327 265.729893 
L 124.276626 265.729893 
L 124.439524 266.110027 
L 124.548122 266.110027 
L 124.711019 266.48618 
L 124.819618 266.48618 
L 124.982515 266.858414 
L 125.036814 266.858414 
L 125.091113 263.896047 
L 125.145413 264.279774 
L 125.30831 267.226791 
L 125.362609 267.226791 
L 125.525507 267.591371 
L 125.579806 264.659544 
L 125.634105 267.591371 
L 125.797002 267.952211 
L 125.905601 267.952211 
L 125.9599 268.309369 
L 126.122797 265.407459 
L 126.285694 268.662902 
L 126.394293 268.662902 
L 126.448592 265.775722 
L 126.502891 266.140265 
L 126.665788 266.140265 
L 126.828686 269.359307 
L 126.882985 269.359307 
L 126.991583 266.501144 
L 127.154481 266.858414 
L 127.20878 266.858414 
L 127.317378 270.041853 
L 127.480276 267.21213 
L 127.534575 267.21213 
L 127.697472 267.562343 
L 127.80607 270.378058 
L 127.968968 267.909106 
L 128.077566 267.909106 
L 128.240463 268.252469 
L 128.349062 268.252469 
L 128.511959 268.592483 
L 128.620557 268.592483 
L 128.729156 268.929195 
L 128.783455 266.168154 
L 128.837754 268.929195 
L 128.892053 268.929195 
L 129.054951 269.262654 
L 129.163549 269.262654 
L 129.217848 269.592907 
L 129.326446 266.858414 
L 129.489344 269.919999 
L 129.652241 269.919999 
L 129.70654 267.19859 
L 129.760839 267.535527 
L 129.869438 267.535527 
L 130.032335 270.564883 
L 130.140933 270.564883 
L 130.249532 267.869269 
L 130.412429 268.199863 
L 130.575326 271.197656 
L 130.738224 268.527353 
L 130.792523 268.527353 
L 130.901121 268.851783 
L 131.064019 271.509607 
L 131.226916 269.173194 
L 131.335514 269.173194 
L 131.444113 269.491629 
L 131.552711 272.124844 
L 131.60701 269.491629 
L 131.661309 269.80713 
L 131.878506 269.80713 
L 131.987104 270.119736 
L 132.041403 272.728793 
L 132.095702 270.119736 
L 132.150001 270.119736 
L 132.312899 270.429487 
L 132.421497 270.429487 
L 132.475796 270.736422 
L 132.530095 268.151083 
L 132.584394 270.736422 
L 132.692993 270.736422 
L 132.85589 271.040579 
L 132.964488 271.040579 
L 133.127386 268.779949 
L 133.290283 271.64071 
L 133.453181 271.64071 
L 133.50748 269.090152 
L 133.561779 269.397586 
L 133.670377 269.397586 
L 133.833275 272.230173 
L 133.941873 272.230173 
L 134.050471 269.702286 
L 134.213369 270.004291 
L 134.376266 272.809248 
L 134.430565 272.809248 
L 134.593463 270.303634 
L 134.75636 270.600351 
L 134.919257 273.378209 
L 135.082155 270.894477 
L 135.136454 270.894477 
L 135.299351 271.186046 
L 135.40795 273.658978 
L 135.570847 271.47509 
L 135.679445 271.47509 
L 135.842343 271.761642 
L 135.896642 274.213256 
L 135.950941 271.761642 
L 136.113838 272.045735 
L 136.222437 272.045735 
L 136.385334 272.327399 
L 136.493932 272.327399 
L 136.65683 272.606666 
L 136.765428 272.606666 
L 136.874026 272.883567 
L 136.982625 270.473506 
L 137.145522 273.158131 
L 137.308419 273.158131 
L 137.362719 273.430388 
L 137.525616 271.040579 
L 137.688513 273.700366 
L 137.851411 273.700366 
L 138.014308 271.598201 
L 138.068607 271.598201 
L 138.231505 274.233601 
L 138.340103 274.233601 
L 138.394402 271.873542 
L 138.448701 272.146606 
L 138.665898 272.146606 
L 138.720197 272.417424 
L 138.828795 274.758059 
L 138.937394 272.417424 
L 139.100291 272.686021 
L 139.208889 272.686021 
L 139.263188 272.952426 
L 139.317488 275.273954 
L 139.371787 272.952426 
L 139.480385 272.952426 
L 139.643282 273.216665 
L 139.751881 273.216665 
L 139.80618 273.478764 
L 139.860479 275.781495 
L 139.914778 273.478764 
L 140.023376 273.478764 
L 140.186274 273.73875 
L 140.294872 273.73875 
L 140.349171 273.996648 
L 140.40347 271.712413 
L 140.457769 273.996648 
L 140.566368 273.996648 
L 140.729265 274.252482 
L 140.837863 274.252482 
L 140.946462 272.240244 
L 141.109359 274.506278 
L 141.272257 274.758059 
L 141.326556 274.758059 
L 141.380855 272.501018 
L 141.435154 272.75973 
L 141.543752 272.75973 
L 141.70665 275.255675 
L 141.869547 275.255675 
L 141.923846 273.016405 
L 141.978145 273.271067 
L 142.086744 273.271067 
L 142.249641 275.745515 
L 142.358239 275.745515 
L 142.466838 273.52374 
L 142.629735 273.774446 
L 142.684034 273.774446 
L 142.846932 276.227761 
L 143.009829 274.023208 
L 143.172726 274.27005 
L 143.281325 274.27005 
L 143.335624 274.514993 
L 143.389923 276.702587 
L 143.444222 274.514993 
L 143.55282 274.514993 
L 143.715718 274.758059 
L 143.824316 274.758059 
L 143.987213 274.99927 
L 144.095812 274.99927 
L 144.258709 275.238646 
L 144.367307 275.238646 
L 144.421607 275.476209 
L 144.475906 273.32176 
L 144.530205 275.476209 
L 144.638803 275.476209 
L 144.8017 275.711979 
L 144.910299 275.711979 
L 145.018897 273.807726 
L 145.181794 275.945976 
L 145.344692 276.17822 
L 145.45329 276.17822 
L 145.616188 274.286439 
L 145.779085 276.637529 
L 145.941982 276.637529 
L 145.996282 274.523125 
L 146.050581 274.758059 
L 146.213478 274.758059 
L 146.376375 277.090058 
L 146.484974 277.090058 
L 146.539273 274.991259 
L 146.593572 275.222744 
L 146.810769 275.222744 
L 146.865068 275.452533 
L 146.973666 277.535956 
L 147.082264 275.452533 
L 147.245162 275.680645 
L 147.35376 275.680645 
L 147.408059 275.907098 
L 147.516657 277.975369 
L 147.625256 275.907098 
L 147.788153 276.13191 
L 147.896751 276.13191 
L 148.059649 276.355099 
L 148.168247 276.355099 
L 148.331144 276.576682 
L 148.439743 276.576682 
L 148.548341 276.796677 
L 148.60264 274.758059 
L 148.656939 276.796677 
L 148.711238 276.796677 
L 148.874136 277.015101 
L 148.982734 277.015101 
L 149.091332 277.231969 
L 149.199931 275.207861 
L 149.362828 277.4473 
L 149.525725 277.4473 
L 149.634324 277.661109 
L 149.797221 275.651305 
L 149.85152 275.870685 
L 150.014418 277.873412 
L 150.068717 277.873412 
L 150.123016 278.084225 
L 150.285913 276.088526 
L 150.340213 276.088526 
L 150.448811 276.304843 
L 150.611708 278.293565 
L 150.666007 278.501445 
L 150.828905 276.519652 
L 150.883204 276.519652 
L 151.046101 276.73297 
L 151.208999 278.91289 
L 151.371896 276.944812 
L 151.426195 276.944812 
L 151.589093 277.155193 
L 151.643392 277.155193 
L 151.75199 279.318679 
L 151.914888 277.364128 
L 151.969187 277.364128 
L 152.132084 277.571631 
L 152.240682 277.571631 
L 152.294982 275.836509 
L 152.457879 277.777719 
L 152.512178 277.777719 
L 152.675075 277.982404 
L 152.783674 277.982404 
L 152.892272 276.257653 
L 153.055169 278.185702 
L 153.218067 278.387626 
L 153.326665 278.387626 
L 153.489563 276.673125 
L 153.65246 278.787408 
L 153.869657 278.787408 
L 154.032554 277.083038 
L 154.086853 277.083038 
L 154.24975 279.18186 
L 154.412648 279.18186 
L 154.575545 277.487505 
L 154.684144 277.487505 
L 154.738443 277.687729 
L 154.90134 279.571088 
L 154.955639 279.571088 
L 155.118537 277.886631 
L 155.227135 277.886631 
L 155.335733 278.084225 
L 155.498631 279.955194 
L 155.661528 278.280524 
L 155.770126 278.280524 
L 155.933024 278.475539 
L 156.041622 280.334279 
L 156.204519 278.669284 
L 156.313118 278.669284 
L 156.476015 278.861771 
L 156.584613 278.861771 
L 156.638913 277.212318 
L 156.80181 279.053012 
L 156.856109 279.053012 
L 157.019007 279.243019 
L 157.127605 279.243019 
L 157.236203 277.602947 
L 157.3991 279.431804 
L 157.561998 279.619379 
L 157.670596 279.619379 
L 157.833494 277.988585 
L 157.996391 279.990945 
L 158.213588 279.990945 
L 158.376485 278.369325 
L 158.430784 278.369325 
L 158.593682 280.357808 
L 158.756579 280.357808 
L 158.810878 280.539503 
L 158.973775 278.745262 
L 159.028075 278.745262 
L 159.136673 278.931457 
L 159.29957 280.720055 
L 159.353869 280.899476 
L 159.516767 279.116484 
L 159.571066 279.116484 
L 159.733963 279.300355 
L 159.896861 281.254963 
L 160.059758 279.48308 
L 160.114057 279.48308 
L 160.276955 279.664671 
L 160.331254 279.664671 
L 160.439852 281.606049 
L 160.60275 279.845137 
L 160.657049 279.845137 
L 160.819946 280.024489 
L 160.928544 280.024489 
L 160.982844 280.202738 
L 161.037143 278.452662 
L 161.091442 280.202738 
L 161.20004 280.202738 
L 161.362938 280.379892 
L 161.471536 280.379892 
L 161.580134 280.555964 
L 161.634433 278.816592 
L 161.688732 280.555964 
L 161.743032 280.555964 
L 161.905929 280.730961 
L 162.014527 280.730961 
L 162.123125 280.904895 
L 162.286023 279.176098 
L 162.340322 279.354216 
L 162.503219 281.077775 
L 162.557519 281.077775 
L 162.666117 281.24961 
L 162.829014 279.531259 
L 162.937613 279.707234 
L 163.10051 281.42041 
L 163.263407 281.590185 
L 163.372006 279.882153 
L 163.534903 280.056025 
L 163.589202 280.056025 
L 163.7521 281.926692 
L 163.806399 281.926692 
L 163.914997 280.228858 
L 164.077894 280.400663 
L 164.186493 280.400663 
L 164.240792 280.571448 
L 164.34939 282.259206 
L 164.457988 280.571448 
L 164.620886 280.741222 
L 164.729484 280.741222 
L 164.892382 280.909995 
L 164.946681 282.587796 
L 165.00098 280.909995 
L 165.163877 281.077775 
L 165.272475 281.077775 
L 165.435373 281.244571 
L 165.543971 281.244571 
L 165.706869 281.410392 
L 165.815467 281.410392 
L 165.978364 281.575246 
L 166.086963 281.575246 
L 166.195561 280.085727 
L 166.358458 281.739141 
L 166.521356 281.902086 
L 166.629954 281.902086 
L 166.792851 280.420232 
L 166.955749 282.225159 
L 167.172945 282.225159 
L 167.227244 282.385303 
L 167.390142 280.750893 
L 167.444441 280.750893 
L 167.49874 280.914803 
L 167.661638 282.544529 
L 167.715937 282.544529 
L 167.770236 282.702845 
L 167.933133 281.077775 
L 167.987432 281.077775 
L 168.15033 281.239819 
L 168.313227 283.016779 
L 168.367526 283.016779 
L 168.530424 281.400942 
L 168.693321 281.561153 
L 168.801919 281.561153 
L 168.856219 281.720458 
L 168.910518 283.327166 
L 168.964817 281.720458 
L 169.073415 281.720458 
L 169.236313 281.878866 
L 169.344911 281.878866 
L 169.453509 282.036384 
L 169.507808 283.634065 
L 169.562107 282.036384 
L 169.616407 282.036384 
L 169.779304 282.193019 
L 169.887902 282.193019 
L 170.0508 282.348779 
L 170.105099 280.760024 
L 170.159398 282.348779 
L 170.322295 282.503672 
L 170.430894 282.503672 
L 170.593791 282.657704 
L 170.64809 282.657704 
L 170.702389 281.077775 
L 170.756688 281.23533 
L 170.810988 281.23533 
L 170.973885 282.810883 
L 171.136782 282.963215 
L 171.245381 282.963215 
L 171.408278 281.547837 
L 171.462577 281.547837 
L 171.625475 283.265369 
L 171.788372 283.265369 
L 171.951269 281.856918 
L 172.059868 281.856918 
L 172.114167 282.010192 
L 172.277064 283.564221 
L 172.331363 283.564221 
L 172.385663 283.712425 
L 172.54856 282.162631 
L 172.602859 282.162631 
L 172.765757 282.314241 
L 172.928654 284.006424 
L 172.982953 284.006424 
L 173.14585 282.46503 
L 173.308748 282.615003 
L 173.417346 282.615003 
L 173.471645 282.764168 
L 173.580244 284.297253 
L 173.688842 282.764168 
L 173.851739 282.912531 
L 173.960338 282.912531 
L 174.123235 283.060099 
L 174.231833 283.060099 
L 174.394731 283.206877 
L 174.503329 283.206877 
L 174.666226 283.352873 
L 174.720525 283.352873 
L 174.774825 281.836141 
L 174.829124 281.985394 
L 174.992021 283.498092 
L 175.04632 283.498092 
L 175.209218 283.642541 
L 175.317816 283.642541 
L 175.480713 282.281531 
L 175.643611 283.929151 
L 175.860807 283.929151 
L 175.915107 284.071325 
L 176.078004 282.57455 
L 176.132303 282.57455 
L 176.186602 282.719906 
L 176.3495 284.212752 
L 176.403799 284.212752 
L 176.512397 284.353439 
L 176.675294 282.864501 
L 176.838192 283.008341 
L 177.001089 284.632615 
L 177.055388 284.632615 
L 177.218286 283.151432 
L 177.381183 283.293779 
L 177.489782 283.293779 
L 177.544081 283.435389 
L 177.652679 284.908898 
L 177.761277 283.435389 
L 177.924175 283.576268 
L 178.032773 283.576268 
L 178.19567 283.716419 
L 178.249969 285.182333 
L 178.304269 283.716419 
L 178.467166 283.855851 
L 178.575764 283.855851 
L 178.738662 283.994567 
L 178.84726 283.994567 
L 178.901559 282.677908 
L 179.064457 284.132574 
L 179.118756 284.132574 
L 179.281653 284.269877 
L 179.390251 284.269877 
L 179.44455 284.406481 
L 179.553149 282.959217 
L 179.716046 284.542391 
L 179.933243 284.542391 
L 180.041841 284.677613 
L 180.204738 283.237678 
L 180.313337 283.375854 
L 180.476234 284.812153 
L 180.639132 284.946014 
L 180.74773 283.513333 
L 180.910627 283.650122 
L 180.964926 283.650122 
L 181.127824 285.211725 
L 181.236422 285.211725 
L 181.290721 283.786225 
L 181.34502 283.921647 
L 181.562217 283.921647 
L 181.670815 284.056394 
L 181.833713 285.474785 
L 181.99661 284.190471 
L 182.105208 284.190471 
L 182.268106 284.323882 
L 182.322405 284.323882 
L 182.431003 285.864491 
L 182.5939 284.456633 
L 182.6482 284.456633 
L 182.811097 284.588728 
L 182.919695 284.588728 
L 183.082593 284.720173 
L 183.191191 284.720173 
L 183.354088 284.850972 
L 183.462687 284.850972 
L 183.625584 284.981129 
L 183.734182 283.587074 
L 183.788482 283.720004 
L 183.951379 285.11065 
L 184.005678 285.11065 
L 184.168575 285.239539 
L 184.222875 285.239539 
L 184.277174 283.852285 
L 184.331473 283.983922 
L 184.440071 283.983922 
L 184.602969 285.495441 
L 184.820165 285.495441 
L 184.874464 285.622462 
L 185.037362 284.245284 
L 185.091661 284.245284 
L 185.14596 284.375018 
L 185.308857 285.74887 
L 185.363157 285.74887 
L 185.471755 285.874668 
L 185.634652 284.504127 
L 185.79755 284.632615 
L 185.851849 284.632615 
L 186.014746 286.124455 
L 186.069045 286.124455 
L 186.177644 284.760487 
L 186.340541 284.887747 
L 186.449139 284.887747 
L 186.557738 285.0144 
L 186.666336 286.371857 
L 186.720635 285.0144 
L 186.774934 285.14045 
L 186.992131 285.14045 
L 187.155028 285.2659 
L 187.209327 285.2659 
L 187.263626 286.616909 
L 187.317925 285.390757 
L 187.535122 285.390757 
L 187.698019 285.515023 
L 187.806618 285.515023 
L 187.860917 285.638702 
L 187.969515 284.297253 
L 188.132413 285.7618 
L 188.349609 285.7618 
L 188.512507 285.88432 
L 188.621105 284.549168 
L 188.675404 284.674241 
L 188.838301 286.006266 
L 188.8926 286.006266 
L 189.055498 286.127642 
L 189.109797 286.127642 
L 189.164096 284.798729 
L 189.218395 284.922637 
L 189.381293 284.922637 
L 189.54419 286.3687 
L 189.707088 286.3687 
L 189.869985 285.168728 
L 189.978583 285.168728 
L 190.087181 285.290919 
L 190.250079 286.607527 
L 190.304378 286.726113 
L 190.467275 285.412546 
L 190.521575 285.412546 
L 190.684472 285.533612 
L 190.79307 285.533612 
L 190.847369 285.654121 
L 190.955968 286.961649 
L 191.064566 285.654121 
L 191.227463 285.774078 
L 191.336062 285.774078 
L 191.498959 285.893485 
L 191.553258 287.195029 
L 191.607557 285.893485 
L 191.770455 286.012348 
L 191.879053 286.012348 
L 192.04195 286.130669 
L 192.150549 286.130669 
L 192.259147 284.955783 
L 192.422044 286.248452 
L 192.584942 286.365701 
L 192.69354 286.365701 
L 192.802138 286.482419 
L 192.910737 285.195599 
L 193.073634 286.598611 
L 193.236531 286.598611 
L 193.399429 286.714279 
L 193.508027 285.433255 
L 193.670925 285.551282 
L 193.833822 286.944059 
L 194.051019 286.944059 
L 194.213916 285.785751 
L 194.322514 285.785751 
L 194.376813 285.902201 
L 194.539711 287.171787 
L 194.59401 287.171787 
L 194.648309 287.28489 
L 194.811206 286.018132 
L 194.865506 286.018132 
L 195.028403 286.133548 
L 195.082702 286.133548 
L 195.2456 287.509593 
L 195.408497 286.248452 
L 195.571394 286.362847 
L 195.679993 286.362847 
L 195.84289 286.476738 
L 195.897189 287.732311 
L 195.951488 286.476738 
L 196.114386 286.590127 
L 196.222984 286.590127 
L 196.385881 286.703017 
L 196.49448 286.703017 
L 196.548779 285.5681 
L 196.711676 286.815412 
L 196.765975 286.815412 
L 196.928873 286.927315 
L 197.037471 286.927315 
L 197.146069 287.03873 
L 197.254668 285.796864 
L 197.417565 287.149659 
L 197.74336 287.260106 
L 197.851958 286.02364 
L 198.014856 286.13629 
L 198.177753 287.479565 
L 198.39495 287.479565 
L 198.557847 286.36013 
L 198.666445 286.36013 
L 198.775044 286.471326 
L 198.937941 287.697133 
L 198.99224 287.805215 
L 199.155138 286.582044 
L 199.426633 286.692287 
L 199.589531 288.01999 
L 199.64383 288.01999 
L 199.752428 286.802057 
L 199.915325 286.911359 
L 200.186821 287.020195 
L 200.24112 288.232933 
L 200.295419 287.020195 
L 200.458317 287.128567 
L 200.838411 287.236479 
L 200.89271 287.343934 
L 200.947009 286.138904 
L 201.001308 287.343934 
L 201.381402 287.450935 
L 201.5443 287.557484 
L 201.652898 286.357538 
L 201.707197 286.466165 
L 201.870094 287.663584 
L 202.14159 287.769239 
L 202.195889 286.574335 
L 202.250188 286.682052 
L 202.413086 286.682052 
L 202.575983 287.979222 
L 202.79318 288.083556 
L 202.956077 286.896136 
L 203.118975 287.002509 
L 203.281872 288.187456 
L 203.39047 288.290923 
L 203.553368 287.10844 
L 203.716265 287.213931 
L 203.879163 287.318985 
L 204.04206 288.496572 
L 204.096359 287.318985 
L 204.150658 287.423606 
L 204.585051 287.527795 
L 204.69365 288.801872 
L 204.856547 287.631555 
L 205.182342 287.734889 
L 205.29094 287.837799 
L 205.345239 286.672278 
L 205.399538 287.837799 
L 205.725333 287.940289 
L 205.888231 288.04236 
L 205.94253 288.04236 
L 205.996829 286.881596 
L 206.051128 286.985616 
L 206.105427 286.985616 
L 206.268325 288.144016 
L 206.431222 288.245258 
L 206.594119 288.346089 
L 206.757017 287.192389 
L 206.865615 287.295148 
L 207.028513 288.446513 
L 207.19141 288.54653 
L 207.354307 287.397491 
L 207.517205 287.499422 
L 207.571504 287.499422 
L 207.734401 288.745358 
L 207.843 288.745358 
L 207.897299 287.600943 
L 207.951598 287.702056 
L 208.331692 287.802763 
L 208.494589 289.040617 
L 208.657487 287.903068 
L 208.983281 288.002973 
L 209.09188 288.102479 
L 209.146179 289.235496 
L 209.200478 288.102479 
L 209.526273 288.20159 
L 209.68917 288.300308 
L 209.797769 288.300308 
L 209.852068 287.272348 
L 210.014965 288.398634 
L 210.34076 288.496572 
L 210.395059 288.594124 
L 210.557956 287.472281 
L 210.720854 288.691291 
L 211.046649 288.788077 
L 211.155247 287.670642 
L 211.318144 287.769239 
L 211.481042 288.980512 
L 211.698238 288.980512 
L 211.861136 287.965278 
L 212.078332 288.062724 
L 212.24123 289.171446 
L 212.349828 289.266357 
L 212.512725 288.159791 
L 212.675623 288.256482 
L 212.892819 288.352797 
L 213.001418 289.455073 
L 213.055717 288.352797 
L 213.110016 288.44874 
L 213.598708 288.544312 
L 213.761606 288.639516 
L 214.1417 288.734354 
L 214.250298 288.828828 
L 214.358896 287.73713 
L 214.521794 288.92294 
L 214.901888 289.016692 
L 214.956187 287.929169 
L 215.010486 288.024639 
L 215.119084 288.024639 
L 215.281981 289.203124 
L 215.553477 289.295809 
L 215.716375 288.214489 
L 215.879272 288.308873 
L 216.042169 289.388142 
L 216.205067 289.480125 
L 216.313665 288.4029 
L 216.476563 288.496572 
L 216.63946 288.58989 
L 216.802357 289.66305 
L 216.856656 289.66305 
L 217.019554 288.682857 
L 217.399648 288.775474 
L 217.453947 288.867744 
L 217.508246 289.934863 
L 217.562545 288.867744 
L 217.942639 288.959668 
L 218.105537 289.051249 
L 218.485631 289.142487 
L 218.648528 289.233386 
L 218.811425 289.323947 
L 218.920024 288.266746 
L 219.082921 289.414172 
L 219.463015 289.504063 
L 219.571613 288.450777 
L 219.680212 288.542283 
L 219.843109 289.593622 
L 220.006006 289.68285 
L 220.114605 289.68285 
L 220.277502 288.724282 
L 220.494699 288.81478 
L 220.657596 289.860322 
L 220.766194 289.948569 
L 220.929092 288.904946 
L 221.091989 288.994782 
L 221.254887 289.084289 
L 221.417784 290.124096 
L 221.472083 289.084289 
L 221.526382 289.17347 
L 221.960775 289.262325 
L 222.069374 290.384993 
L 222.232271 289.350858 
L 222.558066 289.439069 
L 222.720963 289.526961 
L 222.775263 288.496572 
L 222.829562 289.526961 
L 222.992459 289.614534 
L 223.372553 289.701792 
L 223.53545 288.763916 
L 223.698348 289.875365 
L 224.024143 289.961685 
L 224.18704 288.940546 
L 224.349938 289.028386 
L 224.512835 290.133397 
L 224.675732 290.133397 
L 224.730031 289.115911 
L 224.784331 289.203124 
L 225.110125 289.290026 
L 225.273023 290.303885 
L 225.327322 290.388673 
L 225.490219 289.376619 
L 225.816014 289.462905 
L 225.870313 289.548884 
L 225.978912 290.557349 
L 226.08751 289.548884 
L 226.250407 289.634559 
L 226.630501 289.719931 
L 226.6848 288.801872 
L 226.847698 289.805002 
L 227.173493 289.889773 
L 227.33639 289.974247 
L 227.390689 288.974643 
L 227.444988 289.974247 
L 227.607886 290.058424 
L 227.98798 290.142306 
L 228.150877 289.231535 
L 228.205176 289.231535 
L 228.368074 290.309193 
L 228.639569 290.3922 
L 228.802467 289.401304 
L 228.965364 289.485745 
L 229.128262 290.557349 
L 229.291159 290.557349 
L 229.345458 289.569893 
L 229.399757 289.65375 
L 229.779851 289.737317 
L 229.942749 290.802934 
L 230.105646 289.820595 
L 230.431441 289.903585 
L 230.540039 289.98629 
L 230.594338 290.965248 
L 230.648638 289.98629 
L 230.974432 290.068711 
L 231.13733 290.150849 
L 231.300227 290.232706 
L 231.354526 289.258777 
L 231.408825 290.232706 
L 231.788919 290.314283 
L 231.951817 290.395582 
L 232.060415 289.424977 
L 232.114714 289.507652 
L 232.277612 290.476603 
L 232.603406 290.557349 
L 232.766304 289.67216 
L 232.929201 289.753995 
L 233.092099 290.71802 
L 233.254996 290.797947 
L 233.417894 289.835554 
L 233.580791 289.916837 
L 233.743688 289.997846 
L 233.906586 290.956994 
L 233.960885 289.997846 
L 234.015184 290.078583 
L 234.449577 290.159048 
L 234.612475 291.193562 
L 234.775372 290.239243 
L 234.938269 290.319169 
L 235.318363 290.398828 
L 235.481261 290.478221 
L 235.861355 290.557349 
L 235.915654 290.636214 
L 236.024252 289.689834 
L 236.18715 290.714817 
L 236.567244 290.793159 
L 236.675842 289.849918 
L 236.838739 289.929563 
L 237.001637 290.949067 
L 237.273132 291.026635 
L 237.43603 290.088063 
L 237.653226 290.166922 
L 237.816124 291.181005 
L 237.924722 291.181005 
L 238.03332 290.245521 
L 238.196218 290.323862 
L 238.413414 290.401946 
L 238.576312 291.334363 
L 238.739209 290.479775 
L 239.119303 290.557349 
L 239.227901 290.63467 
L 239.2822 291.562524 
L 239.3365 290.63467 
L 239.662294 290.71174 
L 239.825192 290.788558 
L 239.93379 290.788558 
L 240.042388 289.941792 
L 240.205286 290.865127 
L 240.368183 290.941449 
L 240.58538 291.017523 
L 240.748277 290.097176 
L 240.802576 290.174491 
L 240.965474 291.093351 
L 241.291269 291.168935 
L 241.454166 290.328374 
L 241.617063 290.404944 
L 241.779961 291.319373 
L 241.942858 291.39423 
L 242.105756 290.481269 
L 242.268653 290.557349 
L 242.43155 290.633186 
L 242.594448 291.543225 
L 242.648747 290.633186 
L 242.703046 290.70878 
L 243.191738 290.784133 
L 243.246037 290.859246 
L 243.300337 291.764938 
L 243.354636 290.859246 
L 243.73473 290.934121 
L 243.897627 291.008757 
L 243.951926 291.008757 
L 244.006225 290.105941 
L 244.060525 290.181772 
L 244.223422 291.083157 
L 244.549217 291.157322 
L 244.603516 291.231252 
L 244.766413 290.332715 
L 244.929311 291.30495 
L 245.309405 291.378415 
L 245.363704 290.482707 
L 245.418003 290.557349 
L 245.5809 290.557349 
L 245.743798 291.524653 
L 245.960994 291.597428 
L 246.123892 290.705932 
L 246.395387 290.779874 
L 246.558285 291.742296 
L 246.666883 291.742296 
L 246.721182 290.853586 
L 246.775481 290.927067 
L 247.209875 291.00032 
L 247.318473 291.957908 
L 247.48137 291.073345 
L 247.807165 291.146143 
L 247.970062 291.218715 
L 248.350156 291.291062 
L 248.513054 291.363186 
L 248.675951 291.435087 
L 248.838849 290.557349 
L 249.001746 291.506767 
L 249.327541 291.578226 
L 249.436139 290.703189 
L 249.599037 290.775772 
L 249.761934 291.720487 
L 250.03343 291.791291 
L 250.196327 290.920273 
L 250.413524 290.992192 
L 250.576421 291.932249 
L 250.685019 291.932249 
L 250.793618 291.063891 
L 250.956515 291.135372 
L 251.228011 291.206635 
L 251.390908 292.14208 
L 251.553806 291.277681 
L 251.8796 291.348512 
L 252.042498 291.419129 
L 252.422592 291.489531 
L 252.585489 291.559721 
L 252.748387 291.629699 
L 252.856985 290.771819 
L 253.019882 291.699466 
L 253.399976 291.769024 
L 253.508575 290.913724 
L 253.671472 290.984357 
L 253.834369 291.907513 
L 254.105865 291.976447 
L 254.268762 291.124988 
L 254.485959 291.194989 
L 254.648856 292.113697 
L 254.757455 292.113697 
L 254.866053 291.26478 
L 255.02895 291.334363 
L 255.300446 291.40374 
L 255.463344 292.318043 
L 255.626241 291.47291 
L 255.952036 291.541875 
L 256.114933 291.610635 
L 256.495027 291.679192 
L 256.657925 291.747547 
L 256.820822 291.8157 
L 256.92942 290.976799 
L 257.092318 291.883652 
L 257.472412 291.951404 
L 257.58101 291.114971 
L 257.743907 291.183753 
L 257.906805 292.086313 
L 258.1783 292.153471 
L 258.341198 291.320712 
L 258.558394 291.388891 
L 258.721292 292.287198 
L 258.884189 292.287198 
L 258.938488 291.456871 
L 258.992787 291.524653 
L 259.372881 291.592237 
L 259.535779 292.486332 
L 259.698676 291.659625 
L 260.024471 291.726818 
L 260.187369 291.793815 
L 260.241668 292.618126 
L 260.295967 291.793815 
L 260.458864 291.860619 
L 260.838958 291.92723 
L 260.893257 291.993648 
L 261.001856 291.172906 
L 261.164753 292.059875 
L 261.599146 292.125912 
L 261.653445 291.307531 
L 261.707744 291.374554 
L 261.816343 291.374554 
L 261.97924 292.257416 
L 262.305035 292.322886 
L 262.467932 291.508023 
L 262.63083 291.574471 
L 262.793727 292.453264 
L 262.956625 292.453264 
L 263.010924 291.640729 
L 263.065223 291.706798 
L 263.445317 291.772679 
L 263.608214 292.64744 
L 263.662513 292.64744 
L 263.825411 291.838373 
L 263.988308 291.90388 
L 264.259804 291.969201 
L 264.314103 292.775973 
L 264.368402 291.969201 
L 264.5313 292.034337 
L 264.911394 292.099288 
L 265.019992 292.164057 
L 265.074291 291.360703 
L 265.12859 292.164057 
L 265.454385 292.228642 
L 265.617282 292.293046 
L 265.725881 292.293046 
L 265.888778 291.557304 
L 265.943077 291.557304 
L 266.105975 292.42131 
L 266.37747 292.485173 
L 266.540368 291.687453 
L 266.703265 291.752253 
L 266.757564 291.752253 
L 266.920462 292.612362 
L 267.083359 292.612362 
L 267.246256 291.881312 
L 267.572051 291.945571 
L 267.734949 292.801816 
L 267.789248 292.801816 
L 267.897846 292.009652 
L 268.060744 292.073554 
L 268.386538 292.137278 
L 268.440837 292.927243 
L 268.495137 292.200826 
L 268.983829 292.264198 
L 269.146726 292.327394 
L 269.201025 291.540707 
L 269.255325 292.327394 
L 269.418222 292.390416 
L 269.798316 292.453264 
L 269.852615 292.515939 
L 270.015512 291.732503 
L 270.17841 292.578441 
L 270.504205 292.640772 
L 270.612803 291.859488 
L 270.7757 291.92272 
L 270.938598 291.985778 
L 271.101495 292.764921 
L 271.210094 292.826741 
L 271.372991 292.048664 
L 271.698786 292.111378 
L 271.753085 292.17392 
L 271.915982 292.949875 
L 271.970281 292.17392 
L 272.024581 292.236293 
L 272.513273 292.298495 
L 272.67617 292.360529 
L 273.056264 292.422394 
L 273.219162 292.484092 
L 273.273461 292.484092 
L 273.32776 291.713395 
L 273.382059 291.775968 
L 273.544956 292.545622 
L 273.870751 292.606987 
L 273.97935 292.668185 
L 274.142247 291.900609 
L 274.196546 291.962677 
L 274.359444 292.729219 
L 274.685238 292.790089 
L 274.848136 292.086313 
L 275.065332 292.147882 
L 275.22823 292.911337 
L 275.336828 292.971718 
L 275.499725 292.209286 
L 275.662623 292.270525 
L 275.879819 292.331601 
L 276.042717 293.091995 
L 276.205614 292.392514 
L 276.585708 292.453264 
L 276.694306 292.513852 
L 276.748606 293.271209 
L 276.802905 292.513852 
L 277.1287 292.57428 
L 277.291597 292.634547 
L 277.454494 292.694654 
L 277.508794 291.940311 
L 277.563093 292.694654 
L 277.943187 292.754601 
L 278.106084 292.814391 
L 278.214682 292.062043 
L 278.37758 292.122668 
L 278.540477 292.933496 
L 278.811973 292.992813 
L 278.97487 292.243439 
L 279.192067 292.303586 
L 279.354964 293.110979 
L 279.517862 293.110979 
L 279.572161 292.363575 
L 279.62646 292.423407 
L 280.006554 292.483082 
L 280.169451 293.287069 
L 280.22375 293.287069 
L 280.386648 292.5426 
L 280.549545 292.601963 
L 280.929639 292.661171 
L 281.092537 292.720225 
L 281.472631 292.779124 
L 281.581229 292.837871 
L 281.689827 292.098242 
L 281.852725 292.896465 
L 282.287118 292.954907 
L 282.450015 292.276443 
L 282.504314 292.276443 
L 282.667212 293.071337 
L 282.993006 293.129327 
L 283.101605 292.394476 
L 283.264502 292.453264 
L 283.4274 292.5119 
L 283.590297 293.244857 
L 283.698895 293.302399 
L 283.861793 292.570386 
L 284.187587 292.628721 
L 284.241887 292.686907 
L 284.350485 293.417041 
L 284.459083 292.686907 
L 284.621981 292.744943 
L 285.002075 292.802831 
L 285.164972 292.86057 
L 285.545066 292.918163 
L 285.707963 292.975608 
L 285.762262 292.975608 
L 285.816562 292.25013 
L 285.870861 292.308353 
L 285.92516 292.308353 
L 286.088057 293.032907 
L 286.250955 293.09006 
L 286.468151 293.147068 
L 286.631049 292.424355 
L 286.739647 292.482136 
L 286.902544 293.203931 
L 287.065442 293.26065 
L 287.17404 293.26065 
L 287.336937 292.597257 
L 287.554134 292.6546 
L 287.717031 293.373657 
L 287.879929 293.429947 
L 287.988527 292.711798 
L 288.151425 292.768851 
L 288.42292 292.825761 
L 288.531518 293.542102 
L 288.694416 292.882528 
L 289.07451 292.939152 
L 289.237407 292.995634 
L 289.617501 293.051974 
L 289.780399 293.108173 
L 289.943296 293.164232 
L 290.106193 292.453264 
L 290.269091 293.220151 
L 290.649185 293.27593 
L 290.703484 292.566735 
L 290.757783 292.623259 
L 290.920681 292.623259 
L 291.083578 293.387073 
L 291.355074 293.442437 
L 291.517971 292.735885 
L 291.680868 292.791988 
L 291.843766 292.847952 
L 292.006663 293.552754 
L 292.060962 293.552754 
L 292.22386 292.903778 
L 292.603954 292.959466 
L 292.658253 293.015016 
L 292.766851 293.717207 
L 292.87545 293.015016 
L 293.038347 293.07043 
L 293.418441 293.125707 
L 293.47274 292.481248 
L 293.635637 293.180847 
L 294.12433 293.290723 
L 294.232928 292.59284 
L 294.341526 292.648432 
L 294.504424 293.345459 
L 294.667321 293.400061 
L 294.830218 293.454529 
L 294.993116 292.759206 
L 295.156013 292.814391 
L 295.318911 293.508865 
L 295.481808 293.563068 
L 295.536107 293.563068 
L 295.590406 292.86944 
L 295.644706 292.924356 
L 296.0248 292.979138 
L 296.187697 293.724886 
L 296.241996 293.724886 
L 296.404893 293.033787 
L 296.567791 293.088303 
L 296.839287 293.142687 
L 296.947885 293.832111 
L 297.110782 293.19694 
L 297.653774 293.305052 
L 297.708073 292.618126 
L 297.762372 293.305052 
L 297.925269 293.358912 
L 298.359662 293.466244 
L 298.52256 292.781798 
L 298.685457 293.519716 
L 299.065551 293.57306 
L 299.11985 292.890257 
L 299.17415 292.944292 
L 299.445645 292.998197 
L 299.608543 293.679364 
L 299.77144 293.732326 
L 299.934337 293.051974 
L 300.097235 293.105622 
L 300.260132 293.159141 
L 300.42303 293.83787 
L 300.477329 293.83787 
L 300.640226 293.212534 
L 301.291816 293.318937 
L 301.454713 293.371949 
L 301.834807 293.424836 
L 301.943406 292.803694 
L 302.106303 293.477597 
L 302.2692 293.530233 
L 302.540696 293.582745 
L 302.649294 292.910435 
L 302.812192 292.963616 
L 302.975089 293.687397 
L 303.246585 293.739538 
L 303.409482 293.069604 
L 303.626679 293.12241 
L 303.789576 293.843453 
L 303.952474 293.843453 
L 304.006773 293.175093 
L 304.061072 293.227652 
L 304.495465 293.280087 
L 304.658362 293.998412 
L 304.82126 293.3324 
L 304.984157 293.38459 
L 305.364251 293.436659 
L 305.41855 292.824925 
L 305.581448 293.488606 
L 306.07014 293.592137 
L 306.178738 292.930002 
L 306.233037 292.982356 
L 306.395935 293.643722 
L 306.776029 293.746533 
L 306.938926 293.086702 
L 307.101824 293.138693 
L 307.264721 293.79776 
L 307.427618 293.848868 
L 307.481918 293.848868 
L 307.536217 293.190564 
L 307.590516 293.242315 
L 307.916311 293.293947 
L 308.079208 293.95073 
L 308.187806 294.001485 
L 308.350704 293.345459 
L 308.513601 293.396853 
L 308.785097 293.448128 
L 308.893695 294.102644 
L 309.056593 293.499286 
L 309.599584 293.601249 
L 309.653883 292.948985 
L 309.708182 293.601249 
L 309.87108 293.652055 
L 310.305473 293.75332 
L 310.46837 293.103292 
L 310.631268 293.803779 
L 311.011362 293.854122 
L 311.065661 293.205577 
L 311.11996 293.256544 
L 311.391456 293.307396 
L 311.554353 293.954466 
L 311.71725 294.004467 
L 311.880148 293.358132 
L 312.097344 293.408753 
L 312.205943 293.45926 
L 312.36884 294.104128 
L 312.423139 294.104128 
L 312.586037 293.509651 
L 313.074729 293.610093 
L 313.129028 294.252776 
L 313.183327 293.610093 
L 313.780618 293.710082 
L 313.834917 293.759908 
L 313.943515 293.119396 
L 314.106412 293.809621 
L 314.540806 293.859223 
L 314.595105 293.220151 
L 314.649404 293.270358 
L 314.758002 293.270358 
L 314.9209 293.958093 
L 315.246694 294.007362 
L 315.409592 293.370437 
L 315.626788 293.420308 
L 315.789686 294.10557 
L 315.952583 294.10557 
L 316.115481 293.519716 
L 316.549874 293.618681 
L 316.658472 294.252061 
L 316.76707 293.618681 
L 316.984267 293.667999 
L 317.581557 293.766306 
L 317.798754 293.815296 
L 318.07025 293.864177 
L 318.124549 293.234305 
L 318.178848 293.283775 
L 318.233147 293.283775 
L 318.396044 293.912951 
L 318.613241 293.961616 
L 318.776138 294.010174 
L 318.939036 293.382388 
L 319.101933 293.431531 
L 319.264831 294.106969 
L 319.482027 294.106969 
L 319.644925 293.529493 
L 319.91642 293.578312 
L 320.079318 294.251365 
L 320.242215 294.251365 
L 320.296514 293.627025 
L 320.350813 293.67563 
L 320.785206 293.724129 
L 320.948104 294.394813 
L 321.111001 293.772522 
L 321.328198 293.820809 
L 321.653993 293.868991 
L 321.708292 293.296812 
L 321.871189 293.917067 
L 322.359881 294.012907 
L 322.46848 293.394001 
L 322.522779 293.442437 
L 322.685676 294.06067 
L 323.06577 294.155886 
L 323.228668 293.538994 
L 323.391565 293.587115 
L 323.554462 294.203339 
L 323.771659 294.25069 
L 323.825958 293.635133 
L 323.880257 293.683046 
L 324.260351 293.730857 
L 324.423249 294.392128 
L 324.477548 294.392128 
L 324.640445 293.778564 
L 324.857642 293.826168 
L 325.129137 293.873669 
L 325.183437 294.485913 
L 325.237736 293.921069 
L 325.889325 294.015563 
L 325.943625 293.40529 
L 325.997924 294.015563 
L 326.21512 294.062658 
L 326.595214 294.156546 
L 326.758112 293.548231 
L 326.86671 293.595674 
L 327.029607 294.203339 
L 327.301103 294.250033 
L 327.355402 293.643016 
L 327.409701 293.690257 
L 327.735496 293.737398 
L 327.898393 294.343121 
L 328.006992 294.389517 
L 328.169889 293.784438 
L 328.387086 293.831378 
L 328.604282 293.878219 
L 328.76718 294.528114 
L 328.930077 293.92496 
L 329.418769 294.018146 
L 329.473068 294.620024 
L 329.527368 294.018146 
L 329.744564 294.064591 
L 330.178957 294.157187 
L 330.287556 293.557214 
L 330.450453 294.203339 
L 330.884846 294.249394 
L 331.047743 293.697271 
L 331.210641 293.743761 
L 331.373538 294.341213 
L 331.590735 294.386978 
L 331.699333 293.790152 
L 331.91653 293.836447 
L 332.079427 293.882645 
L 332.242324 294.47822 
L 332.296624 294.523698 
L 332.459521 293.928746 
L 332.893914 294.020659 
L 333.002512 294.614369 
L 333.056812 294.020659 
L 333.111111 294.066472 
L 333.708401 294.157812 
L 333.7627 293.565955 
L 333.816999 294.157812 
L 334.41429 294.248772 
L 334.577187 293.704096 
L 334.631487 293.704096 
L 334.794384 294.339355 
L 335.174478 294.384506 
L 335.228777 293.795713 
L 335.283076 293.841379 
L 335.554572 293.886952 
L 335.717469 294.474528 
L 335.880367 294.5194 
L 336.043264 293.93243 
L 336.260461 293.977814 
L 336.423358 294.023105 
L 336.586256 294.608866 
L 336.749153 294.068302 
L 337.237845 294.158419 
L 337.292144 294.742377 
L 337.346443 294.158419 
L 337.943734 294.248167 
L 337.998033 294.292903 
L 338.106631 293.710739 
L 338.269529 294.337547 
L 338.703922 294.382101 
L 338.758221 293.801126 
L 338.81252 293.846181 
L 338.975418 293.846181 
L 339.138315 294.470935 
L 339.46411 294.515216 
L 339.572708 293.936016 
L 339.789905 293.980796 
L 339.898503 294.025486 
L 340.0614 294.603509 
L 340.169999 294.647521 
L 340.332896 294.070085 
L 340.767289 294.159011 
L 340.875887 294.735277 
L 340.930187 294.159011 
L 340.984486 294.203339 
L 341.581776 294.291727 
L 341.636075 293.717207 
L 341.690374 294.291727 
L 342.287665 294.379758 
L 342.450562 293.850857 
L 342.61346 294.467435 
L 342.993554 294.511141 
L 343.102152 293.939509 
L 343.319349 293.983701 
L 343.482246 294.598291 
L 343.753742 294.641735 
L 343.916639 294.07182 
L 344.133836 294.115748 
L 344.242434 294.159587 
L 344.405331 294.728362 
L 344.459631 294.728362 
L 344.622528 294.203339 
L 345.11122 294.290581 
L 345.165519 294.857654 
L 345.219818 294.290581 
L 345.817109 294.377476 
L 345.871408 294.420794 
L 345.980006 293.855412 
L 346.142904 294.464026 
L 346.577297 294.507172 
L 346.631596 293.942911 
L 346.685895 293.986531 
L 346.848793 293.986531 
L 347.01169 294.593207 
L 347.283186 294.636098 
L 347.446083 294.073512 
L 347.66328 294.116873 
L 347.771878 294.160149 
L 347.934775 294.721624 
L 348.043374 294.764261 
L 348.206271 294.203339 
L 348.586365 294.289465 
L 348.749262 294.849282 
L 348.803562 294.289465 
L 348.857861 294.332401 
L 349.618049 294.41802 
L 349.835245 294.460703 
L 350.16104 294.503303 
L 350.323937 293.989289 
L 350.486835 294.588253 
L 350.866929 294.630604 
L 350.975527 294.07516 
L 351.192724 294.11797 
L 351.355621 294.715057 
L 351.627117 294.75716 
L 351.790014 294.203339 
L 352.007211 294.245899 
L 352.115809 294.288377 
L 352.278706 294.841122 
L 352.333006 294.841122 
L 352.495903 294.330772 
L 352.984595 294.415315 
L 353.038894 294.966453 
L 353.093193 294.415315 
L 353.690484 294.499532 
L 353.744783 294.541518 
L 353.853381 293.991977 
L 354.016279 294.583423 
L 354.504971 294.625247 
L 354.667868 294.119039 
L 354.722168 294.119039 
L 354.885065 294.708654 
L 355.21086 294.750238 
L 355.319458 294.203339 
L 355.536655 294.245368 
L 355.645253 294.287316 
L 355.80815 294.833165 
L 355.916749 294.874509 
L 356.079646 294.329183 
L 356.514039 294.412678 
L 356.622637 294.95696 
L 356.676937 294.412678 
L 356.731236 294.454306 
L 357.328526 294.537323 
L 357.382825 293.994599 
L 357.437124 294.537323 
L 358.034415 294.620024 
L 358.088714 294.661256 
L 358.197312 294.120081 
L 358.36021 294.70241 
L 358.794603 294.743486 
L 358.848902 294.203339 
L 358.903201 294.244849 
L 359.066099 294.244849 
L 359.228996 294.825404 
L 359.500492 294.866246 
L 359.663389 294.327634 
L 359.880586 294.368909 
L 359.989184 294.410106 
L 360.152081 294.9477 
L 360.206381 294.9477 
L 360.369278 294.451225 
L 360.85797 294.533231 
L 360.966568 295.069305 
L 361.020868 294.533231 
L 361.075167 294.574118 
L 361.672457 294.655661 
L 361.726756 294.121099 
L 361.781056 294.655661 
L 362.378346 294.736899 
L 362.541243 294.244344 
L 362.595543 294.244344 
L 362.75844 294.817832 
L 363.084235 294.858185 
L 363.192833 294.326123 
L 363.41003 294.366898 
L 363.518628 294.407596 
L 363.681525 294.938665 
L 363.844423 294.978792 
L 364.00732 294.448219 
L 364.224517 294.488766 
L 364.387414 294.529238 
L 364.550312 295.058823 
L 364.713209 294.569634 
L 365.364799 294.650201 
L 365.581995 294.690373 
L 366.016388 294.770493 
L 366.124987 294.24385 
L 366.287884 294.810442 
L 366.722277 294.850317 
L 366.885174 294.364934 
L 367.048072 294.405147 
L 367.210969 294.929846 
L 367.428166 294.969501 
L 367.536764 294.445285 
L 367.753961 294.485349 
L 367.916858 294.52534 
L 368.079756 295.048592 
L 368.134055 295.088028 
L 368.296952 294.565257 
L 368.785644 294.644872 
L 368.894243 295.166683 
L 369.05714 294.68457 
L 369.600131 294.763747 
L 369.654431 294.243368 
L 369.70873 294.763747 
L 369.925926 294.803228 
L 370.30602 294.881972 
L 370.468918 294.363017 
L 370.577516 294.402755 
L 370.740413 294.921237 
L 371.011909 294.96043 
L 371.066208 294.44242 
L 371.120507 294.482013 
L 371.446302 294.521535 
L 371.609199 295.038602 
L 371.772097 295.077582 
L 371.880695 294.560984 
L 372.097892 294.600362 
L 372.315088 294.639668 
L 372.477986 295.194097 
L 372.640883 294.678903 
L 373.238174 294.75716 
L 373.45537 294.796183 
L 373.944062 294.874017 
L 374.052661 294.361146 
L 374.10696 294.40042 
L 374.269857 294.912829 
L 374.649951 294.990243 
L 374.812849 294.478756 
L 374.975746 294.517818 
L 375.138643 295.028846 
L 375.35584 295.06738 
L 375.410139 294.55681 
L 375.464438 294.595733 
L 375.844532 294.634585 
L 376.00743 295.182566 
L 376.116028 295.182566 
L 376.224626 294.673368 
L 376.441823 294.712082 
L 376.713318 294.750726 
L 376.821917 295.297136 
L 376.984814 294.789302 
L 377.527806 294.866246 
L 377.582105 294.359317 
L 377.636404 294.398138 
L 377.799301 294.904616 
L 378.287993 294.98115 
L 378.396592 294.475573 
L 378.50519 294.514187 
L 378.668087 295.019316 
L 378.885284 295.057413 
L 378.993882 295.095443 
L 379.15678 294.59121 
L 379.373976 294.62962 
L 379.536874 295.171301 
L 379.699771 295.171301 
L 379.75407 294.667961 
L 379.808369 294.706234 
L 380.242762 294.74444 
L 380.40566 295.284586 
L 380.568557 294.782578 
L 380.785754 294.82065 
L 381.383044 294.896591 
L 381.600241 294.934461 
L 381.871737 294.972265 
L 381.926036 294.472463 
L 381.980335 294.510639 
L 382.088933 294.510639 
L 382.25183 295.047674 
L 382.577625 295.085279 
L 382.740523 294.586791 
L 382.957719 294.624767 
L 383.120617 295.160292 
L 383.337813 295.1977 
L 383.500711 294.70052 
L 383.880805 294.776008 
L 384.043702 295.27232 
L 384.098001 294.776008 
L 384.1523 294.813653 
L 384.912488 294.888747 
L 385.129685 294.926196 
L 385.509779 295.000899 
L 385.618377 294.507172 
L 385.781274 295.038154 
L 386.215668 295.075344 
L 386.269967 294.582472 
L 386.324266 294.620024 
L 386.487163 294.620024 
L 386.650061 295.14953 
L 386.921556 295.186527 
L 387.084454 294.694933 
L 387.30165 294.732291 
L 387.410249 294.769584 
L 387.573146 295.26033 
L 387.681744 295.297136 
L 387.844642 294.806813 
L 388.279035 294.881079 
L 388.387633 295.370558 
L 388.441932 294.881079 
L 388.496231 294.918116 
L 389.093522 294.992 
L 389.147821 294.503781 
L 389.20212 294.992 
L 389.85371 295.10235 
L 390.016607 294.615386 
L 390.179505 295.139008 
L 390.559599 295.175603 
L 390.613898 294.689471 
L 390.668197 294.726419 
L 390.939693 294.763303 
L 391.10259 295.248606 
L 391.319787 295.285014 
L 391.428385 294.800125 
L 391.645581 294.836884 
L 391.808479 294.873581 
L 391.971376 295.357644 
L 392.025675 295.393866 
L 392.188573 294.910215 
L 393.057359 295.019744 
L 393.274555 295.05613 
L 393.491752 295.092454 
L 393.60035 294.61085 
L 393.654649 294.647521 
L 393.817547 295.128717 
L 394.197641 295.201059 
L 394.360538 294.720676 
L 394.523436 294.75716 
L 394.686333 295.237139 
L 394.90353 295.273157 
L 394.957829 294.793584 
L 395.012128 294.829946 
L 395.392222 294.866246 
L 395.555119 295.38085 
L 395.663718 295.38085 
L 395.772316 294.902486 
L 395.989512 294.938665 
L 396.261008 294.974783 
L 396.369606 295.488 
L 396.532504 295.01084 
L 397.075495 295.082774 
L 397.129794 294.606413 
L 397.184093 294.642689 
L 397.346991 295.11865 
L 397.835683 295.190224 
L 397.944281 294.715057 
L 398.05288 294.751151 
L 398.215777 295.225921 
L 398.432974 295.261558 
L 398.487273 295.261558 
L 398.487273 295.261558 
" style="fill:none;stroke:#1f77b4;stroke-linecap:square;stroke-width:1.5;"/>
   </g>
   <g id="patch_3">
    <path d="M 57.6 307.584 
L 57.6 41.472 
" style="fill:none;stroke:#000000;stroke-linecap:square;stroke-linejoin:miter;stroke-width:0.8;"/>
   </g>
   <g id="patch_4">
    <path d="M 414.72 307.584 
L 414.72 41.472 
" style="fill:none;stroke:#000000;stroke-linecap:square;stroke-linejoin:miter;stroke-width:0.8;"/>
   </g>
   <g id="patch_5">
    <path d="M 57.6 307.584 
L 414.72 307.584 
" style="fill:none;stroke:#000000;stroke-linecap:square;stroke-linejoin:miter;stroke-width:0.8;"/>
   </g>
   <g id="patch_6">
    <path d="M 57.6 41.472 
L 414.72 41.472 
" style="fill:none;stroke:#000000;stroke-linecap:square;stroke-linejoin:miter;stroke-width:0.8;"/>
   </g>
  </g>
 </g>
 <defs>
  <clipPath id="p9e1aed1d77">
   <rect height="266.112" width="357.12" x="57.6" y="41.472"/>
  </clipPath>
 </defs>
</svg>
