<?xml version="1.0" encoding="utf-8" standalone="no"?>
<!DOCTYPE svg PUBLIC "-//W3C//DTD SVG 1.1//EN"
  "http://www.w3.org/Graphics/SVG/1.1/DTD/svg11.dtd">
<!-- Created with matplotlib (https://matplotlib.org/) -->
<svg height="345.6pt" version="1.1" viewBox="0 0 460.8 345.6" width="460.8pt" xmlns="http://www.w3.org/2000/svg" xmlns:xlink="http://www.w3.org/1999/xlink">
 <metadata>
  <rdf:RDF xmlns:cc="http://creativecommons.org/ns#" xmlns:dc="http://purl.org/dc/elements/1.1/" xmlns:rdf="http://www.w3.org/1999/02/22-rdf-syntax-ns#">
   <cc:Work>
    <dc:type rdf:resource="http://purl.org/dc/dcmitype/StillImage"/>
    <dc:date>2022-08-03T12:08:03.639098</dc:date>
    <dc:format>image/svg+xml</dc:format>
    <dc:creator>
     <cc:Agent>
      <dc:title>Matplotlib v3.3.4, https://matplotlib.org/</dc:title>
     </cc:Agent>
    </dc:creator>
   </cc:Work>
  </rdf:RDF>
 </metadata>
 <defs>
  <style type="text/css">*{stroke-linecap:butt;stroke-linejoin:round;}</style>
 </defs>
 <g id="figure_1">
  <g id="patch_1">
   <path d="M 0 345.6 
L 460.8 345.6 
L 460.8 0 
L 0 0 
z
" style="fill:#ffffff;"/>
  </g>
  <g id="axes_1">
   <g id="patch_2">
    <path d="M 57.6 307.584 
L 414.72 307.584 
L 414.72 41.472 
L 57.6 41.472 
z
" style="fill:#ffffff;"/>
   </g>
   <g id="matplotlib.axis_1">
    <g id="xtick_1">
     <g id="line2d_1">
      <path clip-path="url(#pb2f5a90abd)" d="M 72.692445 307.584 
L 72.692445 41.472 
" style="fill:none;stroke:#b0b0b0;stroke-linecap:square;stroke-width:0.8;"/>
     </g>
     <g id="line2d_2">
      <defs>
       <path d="M 0 0 
L 0 3.5 
" id="mfc9e637861" style="stroke:#000000;stroke-width:0.8;"/>
      </defs>
      <g>
       <use style="stroke:#000000;stroke-width:0.8;" x="72.692445" xlink:href="#mfc9e637861" y="307.584"/>
      </g>
     </g>
     <g id="text_1">
      <!-- 0 -->
      <g transform="translate(69.511195 322.182437)scale(0.1 -0.1)">
       <defs>
        <path d="M 31.78125 3.421875 
Q 39.265625 3.421875 42.96875 11.625 
Q 46.6875 19.828125 46.6875 36.375 
Q 46.6875 52.984375 42.96875 61.1875 
Q 39.265625 69.390625 31.78125 69.390625 
Q 24.3125 69.390625 20.59375 61.1875 
Q 16.890625 52.984375 16.890625 36.375 
Q 16.890625 19.828125 20.59375 11.625 
Q 24.3125 3.421875 31.78125 3.421875 
z
M 31.78125 -1.421875 
Q 19.921875 -1.421875 13.25 8.53125 
Q 6.59375 18.5 6.59375 36.375 
Q 6.59375 54.296875 13.25 64.25 
Q 19.921875 74.21875 31.78125 74.21875 
Q 43.703125 74.21875 50.34375 64.25 
Q 56.984375 54.296875 56.984375 36.375 
Q 56.984375 18.5 50.34375 8.53125 
Q 43.703125 -1.421875 31.78125 -1.421875 
z
" id="DejaVuSerif-48"/>
       </defs>
       <use xlink:href="#DejaVuSerif-48"/>
      </g>
     </g>
    </g>
    <g id="xtick_2">
     <g id="line2d_3">
      <path clip-path="url(#pb2f5a90abd)" d="M 126.991583 307.584 
L 126.991583 41.472 
" style="fill:none;stroke:#b0b0b0;stroke-linecap:square;stroke-width:0.8;"/>
     </g>
     <g id="line2d_4">
      <g>
       <use style="stroke:#000000;stroke-width:0.8;" x="126.991583" xlink:href="#mfc9e637861" y="307.584"/>
      </g>
     </g>
     <g id="text_2">
      <!-- 100 -->
      <g transform="translate(117.447833 322.182437)scale(0.1 -0.1)">
       <defs>
        <path d="M 14.203125 0 
L 14.203125 5.171875 
L 26.90625 5.171875 
L 26.90625 65.828125 
L 12.203125 56.296875 
L 12.203125 62.703125 
L 29.984375 74.21875 
L 36.71875 74.21875 
L 36.71875 5.171875 
L 49.421875 5.171875 
L 49.421875 0 
z
" id="DejaVuSerif-49"/>
       </defs>
       <use xlink:href="#DejaVuSerif-49"/>
       <use x="63.623047" xlink:href="#DejaVuSerif-48"/>
       <use x="127.246094" xlink:href="#DejaVuSerif-48"/>
      </g>
     </g>
    </g>
    <g id="xtick_3">
     <g id="line2d_5">
      <path clip-path="url(#pb2f5a90abd)" d="M 181.290721 307.584 
L 181.290721 41.472 
" style="fill:none;stroke:#b0b0b0;stroke-linecap:square;stroke-width:0.8;"/>
     </g>
     <g id="line2d_6">
      <g>
       <use style="stroke:#000000;stroke-width:0.8;" x="181.290721" xlink:href="#mfc9e637861" y="307.584"/>
      </g>
     </g>
     <g id="text_3">
      <!-- 200 -->
      <g transform="translate(171.746971 322.182437)scale(0.1 -0.1)">
       <defs>
        <path d="M 12.796875 55.515625 
L 7.328125 55.515625 
L 7.328125 68.5 
Q 12.546875 71.296875 17.84375 72.75 
Q 23.140625 74.21875 28.21875 74.21875 
Q 39.59375 74.21875 46.1875 68.703125 
Q 52.78125 63.1875 52.78125 53.71875 
Q 52.78125 43.015625 37.84375 28.125 
Q 36.671875 27 36.078125 26.421875 
L 17.671875 8.015625 
L 48.09375 8.015625 
L 48.09375 17 
L 53.8125 17 
L 53.8125 0 
L 6.78125 0 
L 6.78125 5.328125 
L 28.90625 27.390625 
Q 36.234375 34.71875 39.359375 40.84375 
Q 42.484375 46.96875 42.484375 53.71875 
Q 42.484375 61.078125 38.640625 65.234375 
Q 34.8125 69.390625 28.078125 69.390625 
Q 21.09375 69.390625 17.28125 65.921875 
Q 13.484375 62.453125 12.796875 55.515625 
z
" id="DejaVuSerif-50"/>
       </defs>
       <use xlink:href="#DejaVuSerif-50"/>
       <use x="63.623047" xlink:href="#DejaVuSerif-48"/>
       <use x="127.246094" xlink:href="#DejaVuSerif-48"/>
      </g>
     </g>
    </g>
    <g id="xtick_4">
     <g id="line2d_7">
      <path clip-path="url(#pb2f5a90abd)" d="M 235.589859 307.584 
L 235.589859 41.472 
" style="fill:none;stroke:#b0b0b0;stroke-linecap:square;stroke-width:0.8;"/>
     </g>
     <g id="line2d_8">
      <g>
       <use style="stroke:#000000;stroke-width:0.8;" x="235.589859" xlink:href="#mfc9e637861" y="307.584"/>
      </g>
     </g>
     <g id="text_4">
      <!-- 300 -->
      <g transform="translate(226.046109 322.182437)scale(0.1 -0.1)">
       <defs>
        <path d="M 9.71875 69.828125 
Q 15.4375 71.96875 20.671875 73.09375 
Q 25.921875 74.21875 30.515625 74.21875 
Q 41.21875 74.21875 47.21875 69.59375 
Q 53.21875 64.984375 53.21875 56.78125 
Q 53.21875 50.203125 49.0625 45.78125 
Q 44.921875 41.359375 37.3125 39.796875 
Q 46.296875 38.53125 51.25 33.28125 
Q 56.203125 28.03125 56.203125 19.671875 
Q 56.203125 9.46875 49.34375 4.015625 
Q 42.484375 -1.421875 29.59375 -1.421875 
Q 23.875 -1.421875 18.421875 -0.1875 
Q 12.984375 1.03125 7.625 3.515625 
L 7.625 17.671875 
L 13.09375 17.671875 
Q 13.578125 10.640625 17.828125 7.03125 
Q 22.078125 3.421875 29.78125 3.421875 
Q 37.25 3.421875 41.578125 7.734375 
Q 45.90625 12.0625 45.90625 19.578125 
Q 45.90625 28.171875 41.453125 32.59375 
Q 37.015625 37.015625 28.421875 37.015625 
L 23.78125 37.015625 
L 23.78125 42 
L 26.21875 42 
Q 34.765625 42 39.03125 45.53125 
Q 43.3125 49.078125 43.3125 56.203125 
Q 43.3125 62.59375 39.796875 65.984375 
Q 36.28125 69.390625 29.6875 69.390625 
Q 23.09375 69.390625 19.453125 66.265625 
Q 15.828125 63.140625 15.1875 56.984375 
L 9.71875 56.984375 
z
" id="DejaVuSerif-51"/>
       </defs>
       <use xlink:href="#DejaVuSerif-51"/>
       <use x="63.623047" xlink:href="#DejaVuSerif-48"/>
       <use x="127.246094" xlink:href="#DejaVuSerif-48"/>
      </g>
     </g>
    </g>
    <g id="xtick_5">
     <g id="line2d_9">
      <path clip-path="url(#pb2f5a90abd)" d="M 289.888997 307.584 
L 289.888997 41.472 
" style="fill:none;stroke:#b0b0b0;stroke-linecap:square;stroke-width:0.8;"/>
     </g>
     <g id="line2d_10">
      <g>
       <use style="stroke:#000000;stroke-width:0.8;" x="289.888997" xlink:href="#mfc9e637861" y="307.584"/>
      </g>
     </g>
     <g id="text_5">
      <!-- 400 -->
      <g transform="translate(280.345247 322.182437)scale(0.1 -0.1)">
       <defs>
        <path d="M 34.90625 24.703125 
L 34.90625 63.484375 
L 10.015625 24.703125 
z
M 56.390625 0 
L 23.1875 0 
L 23.1875 5.171875 
L 34.90625 5.171875 
L 34.90625 19.484375 
L 3.078125 19.484375 
L 3.078125 24.8125 
L 35.015625 74.21875 
L 44.671875 74.21875 
L 44.671875 24.703125 
L 58.59375 24.703125 
L 58.59375 19.484375 
L 44.671875 19.484375 
L 44.671875 5.171875 
L 56.390625 5.171875 
z
" id="DejaVuSerif-52"/>
       </defs>
       <use xlink:href="#DejaVuSerif-52"/>
       <use x="63.623047" xlink:href="#DejaVuSerif-48"/>
       <use x="127.246094" xlink:href="#DejaVuSerif-48"/>
      </g>
     </g>
    </g>
    <g id="xtick_6">
     <g id="line2d_11">
      <path clip-path="url(#pb2f5a90abd)" d="M 344.188135 307.584 
L 344.188135 41.472 
" style="fill:none;stroke:#b0b0b0;stroke-linecap:square;stroke-width:0.8;"/>
     </g>
     <g id="line2d_12">
      <g>
       <use style="stroke:#000000;stroke-width:0.8;" x="344.188135" xlink:href="#mfc9e637861" y="307.584"/>
      </g>
     </g>
     <g id="text_6">
      <!-- 500 -->
      <g transform="translate(334.644385 322.182437)scale(0.1 -0.1)">
       <defs>
        <path d="M 50.296875 72.90625 
L 50.296875 64.890625 
L 16.890625 64.890625 
L 16.890625 44 
Q 19.4375 45.75 22.828125 46.625 
Q 26.21875 47.515625 30.421875 47.515625 
Q 42.234375 47.515625 49.0625 40.96875 
Q 55.90625 34.421875 55.90625 23.09375 
Q 55.90625 11.53125 49 5.046875 
Q 42.09375 -1.421875 29.59375 -1.421875 
Q 24.5625 -1.421875 19.28125 -0.1875 
Q 14.015625 1.03125 8.5 3.515625 
L 8.5 17.671875 
L 14.015625 17.671875 
Q 14.453125 10.75 18.421875 7.078125 
Q 22.40625 3.421875 29.59375 3.421875 
Q 37.3125 3.421875 41.453125 8.5 
Q 45.609375 13.578125 45.609375 23.09375 
Q 45.609375 32.5625 41.484375 37.609375 
Q 37.359375 42.671875 29.59375 42.671875 
Q 25.203125 42.671875 21.84375 41.109375 
Q 18.5 39.546875 15.921875 36.28125 
L 11.71875 36.28125 
L 11.71875 72.90625 
z
" id="DejaVuSerif-53"/>
       </defs>
       <use xlink:href="#DejaVuSerif-53"/>
       <use x="63.623047" xlink:href="#DejaVuSerif-48"/>
       <use x="127.246094" xlink:href="#DejaVuSerif-48"/>
      </g>
     </g>
    </g>
    <g id="xtick_7">
     <g id="line2d_13">
      <path clip-path="url(#pb2f5a90abd)" d="M 398.487273 307.584 
L 398.487273 41.472 
" style="fill:none;stroke:#b0b0b0;stroke-linecap:square;stroke-width:0.8;"/>
     </g>
     <g id="line2d_14">
      <g>
       <use style="stroke:#000000;stroke-width:0.8;" x="398.487273" xlink:href="#mfc9e637861" y="307.584"/>
      </g>
     </g>
     <g id="text_7">
      <!-- 600 -->
      <g transform="translate(388.943523 322.182437)scale(0.1 -0.1)">
       <defs>
        <path d="M 32.71875 3.421875 
Q 39.59375 3.421875 43.296875 8.46875 
Q 47.015625 13.53125 47.015625 23 
Q 47.015625 32.46875 43.296875 37.515625 
Q 39.59375 42.578125 32.71875 42.578125 
Q 25.734375 42.578125 22.0625 37.6875 
Q 18.40625 32.8125 18.40625 23.578125 
Q 18.40625 13.875 22.109375 8.640625 
Q 25.828125 3.421875 32.71875 3.421875 
z
M 16.796875 40.140625 
Q 20.125 43.796875 24.3125 45.59375 
Q 28.515625 47.40625 33.796875 47.40625 
Q 44.671875 47.40625 51 40.859375 
Q 57.328125 34.328125 57.328125 23 
Q 57.328125 11.921875 50.515625 5.25 
Q 43.703125 -1.421875 32.328125 -1.421875 
Q 19.96875 -1.421875 13.328125 7.78125 
Q 6.6875 17 6.6875 34.078125 
Q 6.6875 53.21875 14.546875 63.71875 
Q 22.40625 74.21875 36.71875 74.21875 
Q 40.578125 74.21875 44.828125 73.484375 
Q 49.078125 72.75 53.515625 71.296875 
L 53.515625 59.28125 
L 48 59.28125 
Q 47.40625 64.203125 44.234375 66.796875 
Q 41.0625 69.390625 35.6875 69.390625 
Q 26.21875 69.390625 21.578125 62.203125 
Q 16.9375 55.03125 16.796875 40.140625 
z
" id="DejaVuSerif-54"/>
       </defs>
       <use xlink:href="#DejaVuSerif-54"/>
       <use x="63.623047" xlink:href="#DejaVuSerif-48"/>
       <use x="127.246094" xlink:href="#DejaVuSerif-48"/>
      </g>
     </g>
    </g>
    <g id="text_8">
     <!-- Time -->
     <g transform="translate(214.680234 341.179469)scale(0.17 -0.17)">
      <defs>
       <path d="M 19.09375 0 
L 19.09375 5.171875 
L 28.421875 5.171875 
L 28.421875 67.09375 
L 6.984375 67.09375 
L 6.984375 55.71875 
L 0.984375 55.71875 
L 0.984375 72.90625 
L 65.71875 72.90625 
L 65.71875 55.71875 
L 59.71875 55.71875 
L 59.71875 67.09375 
L 38.28125 67.09375 
L 38.28125 5.171875 
L 47.609375 5.171875 
L 47.609375 0 
z
" id="DejaVuSerif-84"/>
       <path d="M 9.71875 68.015625 
Q 9.71875 70.265625 11.34375 71.921875 
Q 12.984375 73.578125 15.28125 73.578125 
Q 17.53125 73.578125 19.15625 71.921875 
Q 20.796875 70.265625 20.796875 68.015625 
Q 20.796875 65.71875 19.1875 64.109375 
Q 17.578125 62.5 15.28125 62.5 
Q 12.984375 62.5 11.34375 64.109375 
Q 9.71875 65.71875 9.71875 68.015625 
z
M 21.1875 5.171875 
L 29.6875 5.171875 
L 29.6875 0 
L 3.609375 0 
L 3.609375 5.171875 
L 12.203125 5.171875 
L 12.203125 46.6875 
L 3.609375 46.6875 
L 3.609375 51.90625 
L 21.1875 51.90625 
z
" id="DejaVuSerif-105"/>
       <path d="M 51.8125 41.796875 
Q 54.390625 47.515625 58.421875 50.421875 
Q 62.453125 53.328125 67.828125 53.328125 
Q 75.984375 53.328125 79.984375 48.265625 
Q 83.984375 43.21875 83.984375 33.015625 
L 83.984375 5.171875 
L 92.09375 5.171875 
L 92.09375 0 
L 67.1875 0 
L 67.1875 5.171875 
L 75 5.171875 
L 75 31.984375 
Q 75 39.9375 72.65625 43.3125 
Q 70.3125 46.6875 64.890625 46.6875 
Q 58.890625 46.6875 55.734375 42.140625 
Q 52.59375 37.59375 52.59375 28.90625 
L 52.59375 5.171875 
L 60.40625 5.171875 
L 60.40625 0 
L 35.796875 0 
L 35.796875 5.171875 
L 43.609375 5.171875 
L 43.609375 32.328125 
Q 43.609375 40.09375 41.265625 43.390625 
Q 38.921875 46.6875 33.5 46.6875 
Q 27.484375 46.6875 24.328125 42.140625 
Q 21.1875 37.59375 21.1875 28.90625 
L 21.1875 5.171875 
L 29 5.171875 
L 29 0 
L 4.109375 0 
L 4.109375 5.171875 
L 12.203125 5.171875 
L 12.203125 46.78125 
L 3.609375 46.78125 
L 3.609375 51.90625 
L 21.1875 51.90625 
L 21.1875 42.671875 
Q 23.6875 47.859375 27.53125 50.59375 
Q 31.390625 53.328125 36.28125 53.328125 
Q 42.328125 53.328125 46.375 50.3125 
Q 50.4375 47.3125 51.8125 41.796875 
z
" id="DejaVuSerif-109"/>
       <path d="M 54.203125 25 
L 15.484375 25 
L 15.484375 24.609375 
Q 15.484375 14.109375 19.4375 8.765625 
Q 23.390625 3.421875 31.109375 3.421875 
Q 37.015625 3.421875 40.796875 6.515625 
Q 44.578125 9.625 46.09375 15.71875 
L 53.328125 15.71875 
Q 51.171875 7.171875 45.375 2.875 
Q 39.59375 -1.421875 30.171875 -1.421875 
Q 18.796875 -1.421875 11.890625 6.078125 
Q 4.984375 13.578125 4.984375 25.984375 
Q 4.984375 38.28125 11.765625 45.796875 
Q 18.5625 53.328125 29.59375 53.328125 
Q 41.359375 53.328125 47.65625 46.0625 
Q 53.953125 38.8125 54.203125 25 
z
M 43.609375 30.171875 
Q 43.3125 39.265625 39.765625 43.875 
Q 36.234375 48.484375 29.59375 48.484375 
Q 23.390625 48.484375 19.828125 43.84375 
Q 16.265625 39.203125 15.484375 30.171875 
z
" id="DejaVuSerif-101"/>
      </defs>
      <use xlink:href="#DejaVuSerif-84"/>
      <use x="66.699219" xlink:href="#DejaVuSerif-105"/>
      <use x="98.681641" xlink:href="#DejaVuSerif-109"/>
      <use x="193.505859" xlink:href="#DejaVuSerif-101"/>
     </g>
    </g>
   </g>
   <g id="matplotlib.axis_2">
    <g id="ytick_1">
     <g id="line2d_15">
      <path clip-path="url(#pb2f5a90abd)" d="M 57.6 289.8432 
L 414.72 289.8432 
" style="fill:none;stroke:#b0b0b0;stroke-linecap:square;stroke-width:0.8;"/>
     </g>
     <g id="line2d_16">
      <defs>
       <path d="M 0 0 
L -3.5 0 
" id="m5804445dd7" style="stroke:#000000;stroke-width:0.8;"/>
      </defs>
      <g>
       <use style="stroke:#000000;stroke-width:0.8;" x="57.6" xlink:href="#m5804445dd7" y="289.8432"/>
      </g>
     </g>
     <g id="text_9">
      <!-- −0.2 -->
      <g transform="translate(26.317187 293.642419)scale(0.1 -0.1)">
       <defs>
        <path d="M 10.59375 35.296875 
L 73.1875 35.296875 
L 73.1875 27.390625 
L 10.59375 27.390625 
z
" id="DejaVuSerif-8722"/>
        <path d="M 9.421875 5.078125 
Q 9.421875 7.8125 11.28125 9.71875 
Q 13.140625 11.625 15.921875 11.625 
Q 18.609375 11.625 20.5 9.71875 
Q 22.40625 7.8125 22.40625 5.078125 
Q 22.40625 2.390625 20.5 0.484375 
Q 18.609375 -1.421875 15.921875 -1.421875 
Q 13.140625 -1.421875 11.28125 0.453125 
Q 9.421875 2.34375 9.421875 5.078125 
z
" id="DejaVuSerif-46"/>
       </defs>
       <use xlink:href="#DejaVuSerif-8722"/>
       <use x="83.789062" xlink:href="#DejaVuSerif-48"/>
       <use x="147.412109" xlink:href="#DejaVuSerif-46"/>
       <use x="179.199219" xlink:href="#DejaVuSerif-50"/>
      </g>
     </g>
    </g>
    <g id="ytick_2">
     <g id="line2d_17">
      <path clip-path="url(#pb2f5a90abd)" d="M 57.6 254.3616 
L 414.72 254.3616 
" style="fill:none;stroke:#b0b0b0;stroke-linecap:square;stroke-width:0.8;"/>
     </g>
     <g id="line2d_18">
      <g>
       <use style="stroke:#000000;stroke-width:0.8;" x="57.6" xlink:href="#m5804445dd7" y="254.3616"/>
      </g>
     </g>
     <g id="text_10">
      <!-- −0.1 -->
      <g transform="translate(26.317187 258.160819)scale(0.1 -0.1)">
       <use xlink:href="#DejaVuSerif-8722"/>
       <use x="83.789062" xlink:href="#DejaVuSerif-48"/>
       <use x="147.412109" xlink:href="#DejaVuSerif-46"/>
       <use x="179.199219" xlink:href="#DejaVuSerif-49"/>
      </g>
     </g>
    </g>
    <g id="ytick_3">
     <g id="line2d_19">
      <path clip-path="url(#pb2f5a90abd)" d="M 57.6 218.88 
L 414.72 218.88 
" style="fill:none;stroke:#b0b0b0;stroke-linecap:square;stroke-width:0.8;"/>
     </g>
     <g id="line2d_20">
      <g>
       <use style="stroke:#000000;stroke-width:0.8;" x="57.6" xlink:href="#m5804445dd7" y="218.88"/>
      </g>
     </g>
     <g id="text_11">
      <!-- 0.0 -->
      <g transform="translate(34.696875 222.679219)scale(0.1 -0.1)">
       <use xlink:href="#DejaVuSerif-48"/>
       <use x="63.623047" xlink:href="#DejaVuSerif-46"/>
       <use x="95.410156" xlink:href="#DejaVuSerif-48"/>
      </g>
     </g>
    </g>
    <g id="ytick_4">
     <g id="line2d_21">
      <path clip-path="url(#pb2f5a90abd)" d="M 57.6 183.3984 
L 414.72 183.3984 
" style="fill:none;stroke:#b0b0b0;stroke-linecap:square;stroke-width:0.8;"/>
     </g>
     <g id="line2d_22">
      <g>
       <use style="stroke:#000000;stroke-width:0.8;" x="57.6" xlink:href="#m5804445dd7" y="183.3984"/>
      </g>
     </g>
     <g id="text_12">
      <!-- 0.1 -->
      <g transform="translate(34.696875 187.197619)scale(0.1 -0.1)">
       <use xlink:href="#DejaVuSerif-48"/>
       <use x="63.623047" xlink:href="#DejaVuSerif-46"/>
       <use x="95.410156" xlink:href="#DejaVuSerif-49"/>
      </g>
     </g>
    </g>
    <g id="ytick_5">
     <g id="line2d_23">
      <path clip-path="url(#pb2f5a90abd)" d="M 57.6 147.9168 
L 414.72 147.9168 
" style="fill:none;stroke:#b0b0b0;stroke-linecap:square;stroke-width:0.8;"/>
     </g>
     <g id="line2d_24">
      <g>
       <use style="stroke:#000000;stroke-width:0.8;" x="57.6" xlink:href="#m5804445dd7" y="147.9168"/>
      </g>
     </g>
     <g id="text_13">
      <!-- 0.2 -->
      <g transform="translate(34.696875 151.716019)scale(0.1 -0.1)">
       <use xlink:href="#DejaVuSerif-48"/>
       <use x="63.623047" xlink:href="#DejaVuSerif-46"/>
       <use x="95.410156" xlink:href="#DejaVuSerif-50"/>
      </g>
     </g>
    </g>
    <g id="ytick_6">
     <g id="line2d_25">
      <path clip-path="url(#pb2f5a90abd)" d="M 57.6 112.4352 
L 414.72 112.4352 
" style="fill:none;stroke:#b0b0b0;stroke-linecap:square;stroke-width:0.8;"/>
     </g>
     <g id="line2d_26">
      <g>
       <use style="stroke:#000000;stroke-width:0.8;" x="57.6" xlink:href="#m5804445dd7" y="112.4352"/>
      </g>
     </g>
     <g id="text_14">
      <!-- 0.3 -->
      <g transform="translate(34.696875 116.234419)scale(0.1 -0.1)">
       <use xlink:href="#DejaVuSerif-48"/>
       <use x="63.623047" xlink:href="#DejaVuSerif-46"/>
       <use x="95.410156" xlink:href="#DejaVuSerif-51"/>
      </g>
     </g>
    </g>
    <g id="ytick_7">
     <g id="line2d_27">
      <path clip-path="url(#pb2f5a90abd)" d="M 57.6 76.9536 
L 414.72 76.9536 
" style="fill:none;stroke:#b0b0b0;stroke-linecap:square;stroke-width:0.8;"/>
     </g>
     <g id="line2d_28">
      <g>
       <use style="stroke:#000000;stroke-width:0.8;" x="57.6" xlink:href="#m5804445dd7" y="76.9536"/>
      </g>
     </g>
     <g id="text_15">
      <!-- 0.4 -->
      <g transform="translate(34.696875 80.752819)scale(0.1 -0.1)">
       <use xlink:href="#DejaVuSerif-48"/>
       <use x="63.623047" xlink:href="#DejaVuSerif-46"/>
       <use x="95.410156" xlink:href="#DejaVuSerif-52"/>
      </g>
     </g>
    </g>
    <g id="ytick_8">
     <g id="line2d_29">
      <path clip-path="url(#pb2f5a90abd)" d="M 57.6 41.472 
L 414.72 41.472 
" style="fill:none;stroke:#b0b0b0;stroke-linecap:square;stroke-width:0.8;"/>
     </g>
     <g id="line2d_30">
      <g>
       <use style="stroke:#000000;stroke-width:0.8;" x="57.6" xlink:href="#m5804445dd7" y="41.472"/>
      </g>
     </g>
     <g id="text_16">
      <!-- 0.5 -->
      <g transform="translate(34.696875 45.271219)scale(0.1 -0.1)">
       <use xlink:href="#DejaVuSerif-48"/>
       <use x="63.623047" xlink:href="#DejaVuSerif-46"/>
       <use x="95.410156" xlink:href="#DejaVuSerif-53"/>
      </g>
     </g>
    </g>
    <g id="text_17">
     <!-- Speed -->
     <g transform="translate(18.781719 201.295031)rotate(-90)scale(0.17 -0.17)">
      <defs>
       <path d="M 9.28125 3.515625 
L 9.28125 20.125 
L 14.890625 20.0625 
Q 15.140625 11.765625 19.703125 7.78125 
Q 24.265625 3.8125 33.59375 3.8125 
Q 42.28125 3.8125 46.84375 7.25 
Q 51.421875 10.6875 51.421875 17.28125 
Q 51.421875 22.5625 48.65625 25.390625 
Q 45.90625 28.21875 37.015625 30.90625 
L 27.390625 33.796875 
Q 16.9375 36.96875 12.671875 41.703125 
Q 8.40625 46.4375 8.40625 54.6875 
Q 8.40625 63.96875 14.984375 69.09375 
Q 21.578125 74.21875 33.5 74.21875 
Q 38.578125 74.21875 44.625 73.109375 
Q 50.6875 72.015625 57.515625 69.921875 
L 57.515625 54.390625 
L 52 54.390625 
Q 51.171875 62.109375 46.84375 65.546875 
Q 42.53125 69 33.6875 69 
Q 25.984375 69 21.953125 65.84375 
Q 17.921875 62.703125 17.921875 56.6875 
Q 17.921875 51.46875 20.9375 48.484375 
Q 23.96875 45.515625 33.796875 42.578125 
L 42.828125 39.890625 
Q 52.734375 36.921875 56.953125 32.296875 
Q 61.1875 27.6875 61.1875 19.921875 
Q 61.1875 9.328125 54.390625 3.953125 
Q 47.609375 -1.421875 34.1875 -1.421875 
Q 28.171875 -1.421875 21.9375 -0.1875 
Q 15.71875 1.03125 9.28125 3.515625 
z
" id="DejaVuSerif-83"/>
       <path d="M 20.515625 28.515625 
L 20.515625 23.390625 
Q 20.515625 14.015625 24.09375 9.109375 
Q 27.6875 4.203125 34.515625 4.203125 
Q 41.40625 4.203125 44.9375 9.71875 
Q 48.484375 15.234375 48.484375 25.984375 
Q 48.484375 36.765625 44.9375 42.234375 
Q 41.40625 47.703125 34.515625 47.703125 
Q 27.6875 47.703125 24.09375 42.765625 
Q 20.515625 37.84375 20.515625 28.515625 
z
M 11.53125 46.6875 
L 2.875 46.6875 
L 2.875 51.90625 
L 20.515625 51.90625 
L 20.515625 43.796875 
Q 23.140625 48.6875 27.21875 51 
Q 31.296875 53.328125 37.3125 53.328125 
Q 46.875 53.328125 52.921875 45.75 
Q 58.984375 38.1875 58.984375 25.984375 
Q 58.984375 13.765625 52.921875 6.171875 
Q 46.875 -1.421875 37.3125 -1.421875 
Q 31.296875 -1.421875 27.21875 0.890625 
Q 23.140625 3.21875 20.515625 8.109375 
L 20.515625 -15.578125 
L 29 -15.578125 
L 29 -20.796875 
L 2.875 -20.796875 
L 2.875 -15.578125 
L 11.53125 -15.578125 
z
" id="DejaVuSerif-112"/>
       <path d="M 52.484375 5.171875 
L 61.078125 5.171875 
L 61.078125 0 
L 43.5 0 
L 43.5 8.109375 
Q 40.875 3.21875 36.796875 0.890625 
Q 32.71875 -1.421875 26.703125 -1.421875 
Q 17.140625 -1.421875 11.0625 6.171875 
Q 4.984375 13.765625 4.984375 25.984375 
Q 4.984375 38.1875 11.03125 45.75 
Q 17.09375 53.328125 26.703125 53.328125 
Q 32.71875 53.328125 36.796875 51 
Q 40.875 48.6875 43.5 43.796875 
L 43.5 70.796875 
L 35.015625 70.796875 
L 35.015625 75.984375 
L 52.484375 75.984375 
z
M 43.5 23.390625 
L 43.5 28.515625 
Q 43.5 37.84375 39.90625 42.765625 
Q 36.328125 47.703125 29.5 47.703125 
Q 22.5625 47.703125 19.015625 42.234375 
Q 15.484375 36.765625 15.484375 25.984375 
Q 15.484375 15.234375 19.015625 9.71875 
Q 22.5625 4.203125 29.5 4.203125 
Q 36.328125 4.203125 39.90625 9.109375 
Q 43.5 14.015625 43.5 23.390625 
z
" id="DejaVuSerif-100"/>
      </defs>
      <use xlink:href="#DejaVuSerif-83"/>
      <use x="68.505859" xlink:href="#DejaVuSerif-112"/>
      <use x="132.519531" xlink:href="#DejaVuSerif-101"/>
      <use x="191.699219" xlink:href="#DejaVuSerif-101"/>
      <use x="250.878906" xlink:href="#DejaVuSerif-100"/>
     </g>
    </g>
   </g>
   <g id="LineCollection_1">
    <path clip-path="url(#pb2f5a90abd)" d="M 73.832727 218.88 
L 398.487273 218.88 
" style="fill:none;stroke:#696969;stroke-width:1.5;"/>
   </g>
   <g id="line2d_31">
    <path clip-path="url(#pb2f5a90abd)" d="M 73.832727 130.176 
L 73.941326 130.176 
L 73.995625 41.472 
L 74.049924 130.176 
L 74.104223 147.9168 
L 74.212821 76.9536 
L 74.32142 147.9168 
L 74.430018 100.608 
L 74.484317 159.744 
L 74.538616 100.608 
L 74.592915 100.608 
L 74.755813 117.504 
L 74.864411 117.504 
L 74.91871 85.824 
L 75.081607 130.176 
L 75.135907 85.824 
L 75.190206 100.608 
L 75.244505 140.032 
L 75.298804 100.608 
L 75.353103 100.608 
L 75.461701 147.9168 
L 75.624599 112.4352 
L 75.678898 112.4352 
L 75.841795 122.112 
L 75.950394 122.112 
L 76.058992 130.176 
L 76.113291 100.608 
L 76.16759 130.176 
L 76.221889 130.176 
L 76.330488 109.705846 
L 76.439086 136.999385 
L 76.493385 109.705846 
L 76.547684 117.504 
L 76.601983 117.504 
L 76.656282 142.848 
L 76.710582 117.504 
L 76.764881 117.504 
L 76.81918 124.2624 
L 76.873479 100.608 
L 76.927778 124.2624 
L 77.036376 124.2624 
L 77.090676 108 
L 77.253573 130.176 
L 77.307872 108 
L 77.362171 114.522353 
L 77.47077 135.393882 
L 77.579368 114.522353 
L 77.633667 120.32 
L 77.687966 140.032 
L 77.742265 120.32 
L 77.796564 120.32 
L 77.905163 144.181895 
L 78.06806 125.507368 
L 78.122359 144.181895 
L 78.176658 130.176 
L 78.393855 130.176 
L 78.556752 134.4 
L 78.611051 117.504 
L 78.665351 134.4 
L 78.773949 138.24 
L 78.882547 122.112 
L 78.991145 141.746087 
L 79.154043 126.319304 
L 79.208342 141.746087 
L 79.262641 130.176 
L 79.479838 130.176 
L 79.642735 133.72416 
L 79.697034 119.53152 
L 79.751333 133.72416 
L 79.914231 136.999385 
L 79.96853 123.352615 
L 80.022829 136.999385 
L 80.131427 140.032 
L 80.240026 126.890667 
L 80.348624 142.848 
L 80.511521 130.176 
L 80.62012 145.469793 
L 80.783017 133.234759 
L 80.837316 145.469793 
L 80.891615 136.0896 
L 81.108812 136.0896 
L 81.271709 138.760258 
L 81.380307 138.760258 
L 81.543205 141.264 
L 81.651803 130.176 
L 81.706102 132.864 
L 81.814701 143.616 
L 81.923299 132.864 
L 81.977598 135.393882 
L 82.031897 145.829647 
L 82.086196 135.393882 
L 82.194795 135.393882 
L 82.249094 137.7792 
L 82.303393 147.9168 
L 82.357692 137.7792 
L 82.46629 137.7792 
L 82.629188 140.032 
L 82.737786 140.032 
L 82.792085 142.163027 
L 82.846384 132.573405 
L 82.900683 142.163027 
L 83.009282 142.163027 
L 83.063581 144.181895 
L 83.11788 134.844632 
L 83.172179 144.181895 
L 83.280777 144.181895 
L 83.335076 146.097231 
L 83.443675 136.999385 
L 83.606572 147.9168 
L 83.71517 139.0464 
L 83.823769 147.9168 
L 83.986666 140.993561 
L 84.040965 140.993561 
L 84.095264 149.64761 
L 84.149563 142.848 
L 84.312461 142.848 
L 84.36676 151.296 
L 84.421059 144.616186 
L 84.638256 144.616186 
L 84.692555 138.24 
L 84.855452 146.304 
L 84.909751 146.304 
L 85.01835 140.032 
L 85.181247 147.9168 
L 85.289845 141.746087 
L 85.452743 149.459478 
L 85.61564 143.387234 
L 85.724238 150.936511 
L 85.887136 144.96 
L 85.941435 144.96 
L 85.995734 152.352 
L 86.050033 146.468571 
L 86.26723 146.468571 
L 86.321529 140.82048 
L 86.484426 147.9168 
L 86.538726 147.9168 
L 86.593025 142.351059 
L 86.755922 149.308235 
L 86.810221 149.308235 
L 86.91882 143.822769 
L 87.081717 150.646154 
L 87.244614 145.238943 
L 87.407512 153.173333 
L 87.570409 146.602667 
L 87.679007 154.368 
L 87.841905 147.9168 
L 87.896204 147.9168 
L 88.059101 149.184 
L 88.1677 149.184 
L 88.221999 150.406737 
L 88.276298 144.181895 
L 88.330597 150.406737 
L 88.439195 150.406737 
L 88.547794 151.58731 
L 88.602093 145.469793 
L 88.656392 151.58731 
L 88.710691 151.58731 
L 88.819289 152.727864 
L 88.927888 146.714034 
L 89.090785 153.8304 
L 89.145084 153.8304 
L 89.253682 147.9168 
L 89.307982 149.080131 
L 89.41658 154.896787 
L 89.525178 149.080131 
L 89.633776 150.205935 
L 89.688076 155.928774 
L 89.742375 150.205935 
L 89.796674 150.205935 
L 89.959571 151.296 
L 90.01387 156.928 
L 90.06817 151.296 
L 90.231067 152.352 
L 90.285366 152.352 
L 90.339665 157.896 
L 90.393964 153.375508 
L 90.611161 153.375508 
L 90.66546 148.992 
L 90.828357 154.368 
L 90.882657 154.368 
L 90.936956 155.330866 
L 91.045554 150.035104 
L 91.208451 156.265412 
L 91.371349 151.047529 
L 91.534246 157.17287 
L 91.697144 152.030609 
L 91.751443 152.9856 
L 91.860041 158.0544 
L 91.968639 152.9856 
L 92.077238 153.91369 
L 92.131537 158.911099 
L 92.185836 153.91369 
L 92.240135 153.91369 
L 92.403032 154.816 
L 92.511631 154.816 
L 92.674528 155.693589 
L 92.783126 155.693589 
L 92.837426 151.752649 
L 93.000323 156.547459 
L 93.054622 156.547459 
L 93.108921 157.37856 
L 93.21752 152.64768 
L 93.380417 158.187789 
L 93.434716 158.187789 
L 93.543314 153.519158 
L 93.706212 158.976 
L 93.869109 154.368 
L 93.923408 155.195077 
L 94.032007 159.744 
L 94.140605 155.195077 
L 94.303502 156.001215 
L 94.357801 160.492557 
L 94.412101 156.001215 
L 94.574998 156.7872 
L 94.683596 156.7872 
L 94.737895 153.173333 
L 94.900793 157.553778 
L 94.955092 157.553778 
L 95.009391 158.301659 
L 95.06369 153.974634 
L 95.117989 158.301659 
L 95.226588 158.301659 
L 95.335186 159.031518 
L 95.443784 154.756627 
L 95.606682 159.744 
L 95.660981 159.744 
L 95.769579 155.52 
L 95.823878 156.265412 
L 95.986776 160.439718 
L 96.041075 156.265412 
L 96.095374 156.993488 
L 96.203972 156.993488 
L 96.366869 161.783172 
L 96.529767 157.704828 
L 96.584066 157.704828 
L 96.638365 158.4 
L 96.692664 162.432 
L 96.746963 158.4 
L 96.855562 158.4 
L 96.96416 159.079551 
L 97.018459 163.066247 
L 97.072758 159.079551 
L 97.127057 159.079551 
L 97.289955 159.744 
L 97.398553 159.744 
L 97.561451 160.393846 
L 97.670049 160.393846 
L 97.778647 157.17287 
L 97.941544 161.029565 
L 98.050143 161.651613 
L 98.158741 157.836387 
L 98.321638 162.260426 
L 98.375938 162.260426 
L 98.484536 158.485787 
L 98.593134 159.121516 
L 98.701732 162.856421 
L 98.756032 159.121516 
L 98.810331 159.744 
L 98.918929 159.744 
L 99.081826 164.011546 
L 99.244724 160.353649 
L 99.299023 160.353649 
L 99.353322 160.950857 
L 99.407621 164.571429 
L 99.46192 160.950857 
L 99.570519 160.950857 
L 99.733416 161.536 
L 99.842014 161.536 
L 100.004912 162.10944 
L 100.11351 162.10944 
L 100.167809 159.158495 
L 100.330707 162.671525 
L 100.385006 162.671525 
L 100.439305 163.222588 
L 100.547903 159.744 
L 100.710801 163.762951 
L 100.819399 163.762951 
L 100.927997 160.318136 
L 100.982296 160.881231 
L 101.145194 164.292923 
L 101.199493 160.881231 
L 101.253792 161.4336 
L 101.36239 161.4336 
L 101.525288 165.322868 
L 101.688185 161.975547 
L 101.742484 161.975547 
L 101.796783 162.507364 
L 101.905382 165.823402 
L 102.01398 162.507364 
L 102.176877 163.029333 
L 102.285476 163.029333 
L 102.448373 163.541725 
L 102.556971 163.541725 
L 102.61127 164.0448 
L 102.665569 160.8192 
L 102.719869 164.0448 
L 102.828467 164.0448 
L 102.991364 164.538811 
L 103.045663 161.34227 
L 103.099963 164.538811 
L 103.26286 165.024 
L 103.317159 165.024 
L 103.371458 161.856 
L 103.425757 162.360637 
L 103.480057 162.360637 
L 103.642954 165.500602 
L 103.697253 165.968842 
L 103.860151 162.856421 
L 104.023048 166.428939 
L 104.077347 166.428939 
L 104.185945 163.343583 
L 104.348843 163.822345 
L 104.457441 166.881103 
L 104.620338 164.292923 
L 104.728937 164.292923 
L 104.783236 164.755525 
L 104.837535 167.762441 
L 104.891834 164.755525 
L 105.000432 164.755525 
L 105.16333 165.210353 
L 105.217629 168.192 
L 105.271928 165.210353 
L 105.434826 165.6576 
L 105.543424 165.6576 
L 105.652022 163.165091 
L 105.814919 166.097455 
L 105.923518 166.530098 
L 106.032116 163.62177 
L 106.195013 166.955707 
L 106.303612 166.955707 
L 106.357911 164.071024 
L 106.41221 164.513032 
L 106.466509 164.513032 
L 106.629407 167.374452 
L 106.683706 167.786496 
L 106.846603 164.947968 
L 106.900902 164.947968 
L 106.955201 165.376 
L 107.0638 168.192 
L 107.172398 165.376 
L 107.335295 165.797291 
L 107.443894 168.591118 
L 107.606791 166.212 
L 107.715389 166.212 
L 107.823988 166.620279 
L 107.878287 169.370791 
L 107.932586 166.620279 
L 107.986885 166.620279 
L 108.149782 167.022277 
L 108.204082 167.022277 
L 108.258381 169.751631 
L 108.31268 167.418137 
L 108.529876 167.418137 
L 108.638475 167.808 
L 108.692774 165.12 
L 108.747073 167.808 
L 108.801372 167.808 
L 108.964269 168.192 
L 109.018569 168.192 
L 109.072868 165.524211 
L 109.127167 165.922388 
L 109.181466 165.922388 
L 109.344363 168.570269 
L 109.398663 168.942933 
L 109.56156 166.314667 
L 109.724457 169.310118 
L 109.833056 169.310118 
L 109.887355 166.701176 
L 109.941654 167.082044 
L 110.050252 167.082044 
L 110.21315 170.028522 
L 110.376047 167.457391 
L 110.430346 167.457391 
L 110.538944 167.827338 
L 110.593244 170.379971 
L 110.647543 167.827338 
L 110.701842 167.827338 
L 110.864739 168.192 
L 110.919038 168.192 
L 110.973338 170.7264 
L 111.027637 168.551489 
L 111.244833 168.551489 
L 111.407731 168.905915 
L 111.516329 168.905915 
L 111.679226 169.255385 
L 111.787825 169.255385 
L 111.896423 167.136 
L 112.05932 169.6 
L 112.222218 169.939862 
L 112.330816 167.492855 
L 112.385115 167.844822 
L 112.548013 170.275068 
L 112.602312 170.275068 
L 112.765209 168.192 
L 112.819508 168.192 
L 112.982406 170.931892 
L 113.036705 170.931892 
L 113.145303 168.534486 
L 113.308201 168.872376 
L 113.416799 171.253691 
L 113.579696 169.20576 
L 113.688294 169.20576 
L 113.742594 169.534728 
L 113.851192 171.884503 
L 113.95979 169.534728 
L 114.122688 169.859368 
L 114.176987 169.859368 
L 114.231286 172.193684 
L 114.285585 170.179765 
L 114.502782 170.179765 
L 114.665679 170.496 
L 114.774277 170.496 
L 114.937175 170.808155 
L 115.045773 170.808155 
L 115.154371 168.841846 
L 115.317269 171.116308 
L 115.480166 171.420535 
L 115.588764 169.160561 
L 115.643063 169.475241 
L 115.805961 171.720911 
L 115.86026 171.720911 
L 115.914559 172.017509 
L 116.077457 169.785962 
L 116.240354 172.3104 
L 116.348952 172.3104 
L 116.403251 170.0928 
L 116.457551 170.395826 
L 116.620448 170.395826 
L 116.729046 172.885333 
L 116.891944 170.695111 
L 116.946243 170.695111 
L 117.10914 170.990724 
L 117.163439 173.167509 
L 117.217738 170.990724 
L 117.380636 171.282732 
L 117.489234 171.282732 
L 117.652132 171.5712 
L 117.76073 171.5712 
L 117.923627 171.856193 
L 118.032226 171.856193 
L 118.086525 170.013126 
L 118.249422 172.137772 
L 118.303721 172.137772 
L 118.466619 172.416 
L 118.520918 170.304 
L 118.575217 172.416 
L 118.738114 172.690935 
L 118.846713 172.690935 
L 118.901012 172.962635 
L 119.063909 170.875482 
L 119.226807 173.231158 
L 119.281106 173.231158 
L 119.389704 171.156211 
L 119.552601 171.433674 
L 119.715499 173.75889 
L 119.878396 171.707931 
L 119.932695 171.707931 
L 120.041294 171.979034 
L 120.149892 174.018207 
L 120.204191 171.979034 
L 120.25849 172.24704 
L 120.475687 172.24704 
L 120.529986 172.512 
L 120.584285 174.528 
L 120.638584 172.512 
L 120.747182 172.512 
L 120.91008 172.773966 
L 121.018678 172.773966 
L 121.181576 173.032989 
L 121.290174 173.032989 
L 121.453071 173.289117 
L 121.561669 173.289117 
L 121.724567 173.5424 
L 121.833165 173.5424 
L 121.941763 173.792884 
L 122.050362 171.832575 
L 122.213259 174.040615 
L 122.376157 174.040615 
L 122.539054 172.346754 
L 122.701951 174.528 
L 122.81055 174.528 
L 122.919148 172.599652 
L 123.082045 172.849816 
L 123.244943 175.004903 
L 123.40784 173.09729 
L 123.462139 173.09729 
L 123.570738 173.342118 
L 123.679336 175.239529 
L 123.733635 173.342118 
L 123.787934 173.58434 
L 124.005131 173.58434 
L 124.113729 173.824 
L 124.168028 175.701333 
L 124.222327 173.824 
L 124.276626 173.824 
L 124.439524 174.061137 
L 124.548122 174.061137 
L 124.711019 174.295791 
L 124.819618 174.295791 
L 124.982515 174.528 
L 125.036814 174.528 
L 125.091113 172.68 
L 125.145413 172.919378 
L 125.30831 174.757803 
L 125.362609 174.757803 
L 125.525507 174.985237 
L 125.579806 173.156289 
L 125.634105 174.985237 
L 125.797002 175.210338 
L 125.905601 175.210338 
L 125.9599 175.433143 
L 126.122797 173.622857 
L 126.285694 175.653685 
L 126.394293 175.653685 
L 126.448592 173.852589 
L 126.502891 174.08 
L 126.665788 174.08 
L 126.828686 176.088121 
L 126.882985 176.088121 
L 126.991583 174.305126 
L 127.154481 174.528 
L 127.20878 174.528 
L 127.317378 176.51391 
L 127.480276 174.748657 
L 127.534575 174.748657 
L 127.697472 174.967129 
L 127.80607 176.723644 
L 127.968968 175.183448 
L 128.077566 175.183448 
L 128.240463 175.397647 
L 128.349062 175.397647 
L 128.511959 175.609756 
L 128.620557 175.609756 
L 128.729156 175.819806 
L 128.783455 174.097398 
L 128.837754 175.819806 
L 128.892053 175.819806 
L 129.054951 176.027826 
L 129.163549 176.027826 
L 129.217848 176.233846 
L 129.326446 174.528 
L 129.489344 176.437895 
L 129.652241 176.437895 
L 129.70654 174.740211 
L 129.760839 174.9504 
L 129.869438 174.9504 
L 130.032335 176.84019 
L 130.140933 176.84019 
L 130.249532 175.158597 
L 130.412429 175.36483 
L 130.575326 177.23493 
L 130.738224 175.569127 
L 130.792523 175.569127 
L 130.901121 175.771514 
L 131.064019 177.429533 
L 131.226916 175.972019 
L 131.335514 175.972019 
L 131.444113 176.170667 
L 131.552711 177.813333 
L 131.60701 176.170667 
L 131.661309 176.367484 
L 131.878506 176.367484 
L 131.987104 176.562495 
L 132.041403 178.190092 
L 132.095702 176.562495 
L 132.150001 176.562495 
L 132.312899 176.755726 
L 132.421497 176.755726 
L 132.475796 176.9472 
L 132.530095 175.3344 
L 132.584394 176.9472 
L 132.692993 176.9472 
L 132.85589 177.136941 
L 132.964488 177.136941 
L 133.127386 175.726703 
L 133.290283 177.511318 
L 133.453181 177.511318 
L 133.50748 175.920215 
L 133.561779 176.112 
L 133.670377 176.112 
L 133.833275 177.87904 
L 133.941873 177.87904 
L 134.050471 176.30208 
L 134.213369 176.490478 
L 134.376266 178.240282 
L 134.430565 178.240282 
L 134.593463 176.677216 
L 134.75636 176.862316 
L 134.919257 178.595214 
L 135.082155 177.045799 
L 135.136454 177.045799 
L 135.299351 177.227687 
L 135.40795 178.770365 
L 135.570847 177.408 
L 135.679445 177.408 
L 135.842343 177.586759 
L 135.896642 179.116138 
L 135.950941 177.586759 
L 136.113838 177.763983 
L 136.222437 177.763983 
L 136.385334 177.939692 
L 136.493932 177.939692 
L 136.65683 178.113906 
L 136.765428 178.113906 
L 136.874026 178.286644 
L 136.982625 176.783186 
L 137.145522 178.457924 
L 137.308419 178.457924 
L 137.362719 178.627765 
L 137.525616 177.136941 
L 137.688513 178.796184 
L 137.851411 178.796184 
L 138.014308 177.4848 
L 138.068607 177.4848 
L 138.231505 179.12883 
L 138.340103 179.12883 
L 138.394402 177.656564 
L 138.448701 177.826909 
L 138.665898 177.826909 
L 138.720197 177.995852 
L 138.828795 179.456 
L 138.937394 177.995852 
L 139.100291 178.16341 
L 139.208889 178.16341 
L 139.263188 178.3296 
L 139.317488 179.777829 
L 139.371787 178.3296 
L 139.480385 178.3296 
L 139.643282 178.494439 
L 139.751881 178.494439 
L 139.80618 178.657943 
L 139.860479 180.094445 
L 139.914778 178.657943 
L 140.023376 178.657943 
L 140.186274 178.820129 
L 140.294872 178.820129 
L 140.349171 178.981012 
L 140.40347 177.556048 
L 140.457769 178.981012 
L 140.566368 178.981012 
L 140.729265 179.140608 
L 140.837863 179.140608 
L 140.946462 177.885323 
L 141.109359 179.298932 
L 141.272257 179.456 
L 141.326556 179.456 
L 141.380855 178.048 
L 141.435154 178.209391 
L 141.543752 178.209391 
L 141.70665 179.766425 
L 141.869547 179.766425 
L 141.923846 178.369512 
L 141.978145 178.528376 
L 142.086744 178.528376 
L 142.249641 180.072 
L 142.358239 180.072 
L 142.466838 178.686 
L 142.629735 178.842397 
L 142.684034 178.842397 
L 142.846932 180.372837 
L 143.009829 178.997581 
L 143.172726 179.151568 
L 143.281325 179.151568 
L 143.335624 179.304369 
L 143.389923 180.669046 
L 143.444222 179.304369 
L 143.55282 179.304369 
L 143.715718 179.456 
L 143.824316 179.456 
L 143.987213 179.606473 
L 144.095812 179.606473 
L 144.258709 179.755802 
L 144.367307 179.755802 
L 144.421607 179.904 
L 144.475906 178.56 
L 144.530205 179.904 
L 144.638803 179.904 
L 144.8017 180.051079 
L 144.910299 180.051079 
L 145.018897 178.863158 
L 145.181794 180.197053 
L 145.344692 180.341933 
L 145.45329 180.341933 
L 145.616188 179.161791 
L 145.779085 180.628461 
L 145.941982 180.628461 
L 145.996282 179.309442 
L 146.050581 179.456 
L 146.213478 179.456 
L 146.376375 180.91076 
L 146.484974 180.91076 
L 146.539273 179.601476 
L 146.593572 179.745882 
L 146.810769 179.745882 
L 146.865068 179.889231 
L 146.973666 181.188923 
L 147.082264 179.889231 
L 147.245162 180.031533 
L 147.35376 180.031533 
L 147.408059 180.1728 
L 147.516657 181.46304 
L 147.625256 180.1728 
L 147.788153 180.313043 
L 147.896751 180.313043 
L 148.059649 180.452274 
L 148.168247 180.452274 
L 148.331144 180.590504 
L 148.439743 180.590504 
L 148.548341 180.727742 
L 148.60264 179.456 
L 148.656939 180.727742 
L 148.711238 180.727742 
L 148.874136 180.864 
L 148.982734 180.864 
L 149.091332 180.999288 
L 149.199931 179.736598 
L 149.362828 181.133617 
L 149.525725 181.133617 
L 149.634324 181.266996 
L 149.797221 180.01323 
L 149.85152 180.150085 
L 150.014418 181.399437 
L 150.068717 181.399437 
L 150.123016 181.530947 
L 150.285913 180.285979 
L 150.340213 180.285979 
L 150.448811 180.420923 
L 150.611708 181.661538 
L 150.666007 181.79122 
L 150.828905 180.554927 
L 150.883204 180.554927 
L 151.046101 180.688 
L 151.208999 182.047889 
L 151.371896 180.820152 
L 151.426195 180.820152 
L 151.589093 180.951393 
L 151.643392 180.951393 
L 151.75199 182.301031 
L 151.914888 181.081732 
L 151.969187 181.081732 
L 152.132084 181.211178 
L 152.240682 181.211178 
L 152.294982 180.128765 
L 152.457879 181.339741 
L 152.512178 181.339741 
L 152.675075 181.467429 
L 152.783674 181.467429 
L 152.892272 180.391485 
L 153.055169 181.594251 
L 153.218067 181.720216 
L 153.326665 181.720216 
L 153.489563 180.650667 
L 153.65246 181.969611 
L 153.869657 181.969611 
L 154.032554 180.906381 
L 154.086853 180.906381 
L 154.24975 182.21568 
L 154.412648 182.21568 
L 154.575545 181.158698 
L 154.684144 181.158698 
L 154.738443 181.283603 
L 154.90134 182.45849 
L 154.955639 182.45849 
L 155.118537 181.407683 
L 155.227135 181.407683 
L 155.335733 181.530947 
L 155.498631 182.698105 
L 155.661528 181.653403 
L 155.770126 181.653403 
L 155.933024 181.775059 
L 156.041622 182.934588 
L 156.204519 181.895922 
L 156.313118 181.895922 
L 156.476015 182.016 
L 156.584613 182.016 
L 156.638913 180.987029 
L 156.80181 182.135301 
L 156.856109 182.135301 
L 157.019007 182.253832 
L 157.127605 182.253832 
L 157.236203 181.230714 
L 157.3991 182.371601 
L 157.561998 182.488615 
L 157.670596 182.488615 
L 157.833494 181.471284 
L 157.996391 182.720408 
L 158.213588 182.720408 
L 158.376485 181.7088 
L 158.430784 181.7088 
L 158.593682 182.949266 
L 158.756579 182.949266 
L 158.810878 183.062612 
L 158.973775 181.943319 
L 159.028075 181.943319 
L 159.136673 182.059472 
L 159.29957 183.175245 
L 159.353869 183.287172 
L 159.516767 182.174897 
L 159.571066 182.174897 
L 159.733963 182.2896 
L 159.896861 183.508935 
L 160.059758 182.403589 
L 160.114057 182.403589 
L 160.276955 182.51687 
L 160.331254 182.51687 
L 160.439852 183.72795 
L 160.60275 182.629449 
L 160.657049 182.629449 
L 160.819946 182.741333 
L 160.928544 182.741333 
L 160.982844 182.852529 
L 161.037143 181.760788 
L 161.091442 182.852529 
L 161.471536 182.963043 
L 161.580134 183.072881 
L 161.634433 181.987817 
L 161.688732 183.072881 
L 162.014527 183.182049 
L 162.123125 183.290553 
L 162.286023 182.212085 
L 162.340322 182.3232 
L 162.503219 183.3984 
L 162.666117 183.505595 
L 162.829014 182.433644 
L 162.937613 182.543422 
L 163.10051 183.612145 
L 163.263407 183.718054 
L 163.372006 182.652541 
L 163.534903 182.761006 
L 163.589202 182.761006 
L 163.7521 183.927976 
L 163.806399 183.927976 
L 163.914997 182.868824 
L 164.077894 182.976 
L 164.240792 183.08254 
L 164.34939 184.135407 
L 164.457988 183.08254 
L 164.620886 183.18845 
L 164.892382 183.293735 
L 164.946681 184.340389 
L 165.00098 183.293735 
L 165.163877 183.3984 
L 165.543971 183.502452 
L 165.706869 183.605895 
L 166.086963 183.708735 
L 166.195561 182.779535 
L 166.358458 183.810977 
L 166.521356 183.912626 
L 166.629954 183.912626 
L 166.792851 182.988208 
L 166.955749 184.114167 
L 167.227244 184.214069 
L 167.390142 183.194483 
L 167.49874 183.296734 
L 167.661638 184.313398 
L 167.770236 184.41216 
L 167.933133 183.3984 
L 168.15033 183.499487 
L 168.313227 184.608 
L 168.367526 184.608 
L 168.530424 183.6 
L 168.693321 183.699943 
L 168.856219 183.799322 
L 168.910518 184.801627 
L 168.964817 183.799322 
L 169.344911 183.898141 
L 169.453509 183.996404 
L 169.507808 184.993079 
L 169.562107 183.996404 
L 169.887902 184.094118 
L 170.0508 184.191285 
L 170.105099 183.200179 
L 170.159398 184.191285 
L 170.322295 184.287911 
L 170.64809 184.384 
L 170.702389 183.3984 
L 170.756688 183.496687 
L 170.810988 183.496687 
L 170.973885 184.479557 
L 171.136782 184.574586 
L 171.245381 184.574586 
L 171.408278 183.691636 
L 171.462577 183.691636 
L 171.625475 184.763077 
L 171.788372 184.763077 
L 171.951269 183.884449 
L 172.114167 183.980066 
L 172.277064 184.949508 
L 172.385663 185.041962 
L 172.54856 184.075161 
L 172.765757 184.169739 
L 172.928654 185.225366 
L 172.982953 185.225366 
L 173.14585 184.263805 
L 173.308748 184.357362 
L 173.471645 184.450415 
L 173.580244 185.406792 
L 173.688842 184.450415 
L 173.851739 184.542968 
L 174.231833 184.635024 
L 174.394731 184.726588 
L 174.720525 184.817664 
L 174.774825 183.871488 
L 174.829124 183.964596 
L 174.992021 184.908255 
L 175.317816 184.998366 
L 175.480713 184.149333 
L 175.643611 185.177161 
L 175.915107 185.265853 
L 176.078004 184.332126 
L 176.186602 184.422803 
L 176.3495 185.354079 
L 176.512397 185.441843 
L 176.675294 184.513005 
L 176.838192 184.602736 
L 177.001089 185.616 
L 177.055388 185.616 
L 177.218286 184.692 
L 177.381183 184.7808 
L 177.544081 184.86914 
L 177.652679 185.788352 
L 177.761277 184.86914 
L 177.924175 184.957023 
L 178.19567 185.044454 
L 178.249969 185.958928 
L 178.304269 185.044454 
L 178.467166 185.131434 
L 178.84726 185.217969 
L 178.901559 184.396604 
L 179.064457 185.304061 
L 179.390251 185.389714 
L 179.44455 185.474931 
L 179.553149 184.572092 
L 179.716046 185.559716 
L 180.041841 185.644071 
L 180.204738 184.745803 
L 180.313337 184.832 
L 180.476234 185.728 
L 180.639132 185.811506 
L 180.74773 184.917763 
L 180.910627 185.003095 
L 180.964926 185.003095 
L 181.127824 185.977263 
L 181.236422 185.977263 
L 181.290721 185.088 
L 181.34502 185.17248 
L 181.670815 185.256539 
L 181.833713 186.141367 
L 181.99661 185.340179 
L 182.322405 185.423404 
L 182.431003 186.384475 
L 182.5939 185.506218 
L 182.919695 185.588622 
L 183.082593 185.670621 
L 183.462687 185.752216 
L 183.625584 185.833412 
L 183.734182 184.963765 
L 183.788482 185.046689 
L 183.951379 185.91421 
L 184.222875 185.994615 
L 184.277174 185.12921 
L 184.331473 185.211328 
L 184.440071 185.211328 
L 184.602969 186.154252 
L 184.874464 186.233492 
L 185.037362 185.374373 
L 185.14596 185.455304 
L 185.308857 186.312348 
L 185.471755 186.390824 
L 185.634652 185.535846 
L 185.79755 185.616 
L 185.851849 185.616 
L 186.014746 186.546647 
L 186.069045 186.546647 
L 186.177644 185.69577 
L 186.340541 185.775158 
L 186.557738 185.854167 
L 186.666336 186.700983 
L 186.720635 185.854167 
L 186.774934 185.9328 
L 187.209327 186.011059 
L 187.263626 186.853853 
L 187.317925 186.088948 
L 187.806618 186.166468 
L 187.860917 186.243623 
L 187.969515 185.406792 
L 188.132413 186.320414 
L 188.512507 186.396845 
L 188.621105 185.563944 
L 188.675404 185.641967 
L 188.838301 186.472918 
L 189.109797 186.548636 
L 189.164096 185.719626 
L 189.218395 185.796923 
L 189.381293 185.796923 
L 189.54419 186.699014 
L 189.707088 186.699014 
L 189.869985 185.950441 
L 190.087181 186.026667 
L 190.250079 186.848 
L 190.304378 186.921977 
L 190.467275 186.10254 
L 190.79307 186.178065 
L 190.847369 186.253241 
L 190.955968 187.06891 
L 191.064566 186.253241 
L 191.227463 186.328073 
L 191.498959 186.402563 
L 191.553258 187.214499 
L 191.607557 186.402563 
L 191.770455 186.476712 
L 192.150549 186.550524 
L 192.259147 185.8176 
L 192.422044 186.624 
L 192.584942 186.697143 
L 192.802138 186.769955 
L 192.910737 185.967204 
L 193.073634 186.842438 
L 193.399429 186.914595 
L 193.508027 186.115459 
L 193.670925 186.189088 
L 193.833822 187.057937 
L 194.051019 187.057937 
L 194.213916 186.335356 
L 194.376813 186.408 
L 194.539711 187.2 
L 194.648309 187.270557 
L 194.811206 186.480321 
L 195.082702 186.55232 
L 195.2456 187.410732 
L 195.408497 186.624 
L 195.571394 186.695363 
L 195.84289 186.766411 
L 195.897189 187.549669 
L 195.951488 186.766411 
L 196.114386 186.837145 
L 196.49448 186.907569 
L 196.548779 186.199579 
L 196.711676 186.977684 
L 197.037471 187.047492 
L 197.146069 187.116996 
L 197.254668 186.342288 
L 197.417565 187.186196 
L 197.74336 187.255096 
L 197.851958 186.483757 
L 198.014856 186.55403 
L 198.177753 187.392 
L 198.39495 187.392 
L 198.557847 186.693667 
L 198.775044 186.763034 
L 198.937941 187.527724 
L 198.99224 187.595148 
L 199.155138 186.832103 
L 199.426633 186.900876 
L 199.589531 187.729131 
L 199.64383 187.729131 
L 199.752428 186.969353 
L 199.915325 187.037538 
L 200.186821 187.105433 
L 200.24112 187.86197 
L 200.295419 187.105433 
L 200.458317 187.173038 
L 200.838411 187.240357 
L 200.89271 187.30739 
L 200.947009 186.555661 
L 201.001308 187.30739 
L 201.381402 187.37414 
L 201.5443 187.440608 
L 201.652898 186.692051 
L 201.707197 186.759815 
L 201.870094 187.506796 
L 202.14159 187.572706 
L 202.195889 186.827294 
L 202.250188 186.894491 
L 202.413086 186.894491 
L 202.575983 187.703699 
L 202.79318 187.768785 
L 202.956077 187.028042 
L 203.118975 187.0944 
L 203.281872 187.8336 
L 203.39047 187.898146 
L 203.553368 187.160482 
L 203.716265 187.22629 
L 203.879163 187.291826 
L 204.04206 188.026435 
L 204.096359 187.291826 
L 204.150658 187.357091 
L 204.585051 187.422087 
L 204.69365 188.216889 
L 204.856547 187.486815 
L 205.182342 187.551277 
L 205.29094 187.615475 
L 205.345239 186.888393 
L 205.399538 187.615475 
L 205.725333 187.679411 
L 205.888231 187.743086 
L 205.94253 187.743086 
L 205.996829 187.018971 
L 206.051128 187.083862 
L 206.105427 187.083862 
L 206.268325 187.806501 
L 206.431222 187.869659 
L 206.594119 187.93256 
L 206.757017 187.212852 
L 206.865615 187.276955 
L 207.028513 187.995206 
L 207.19141 188.0576 
L 207.354307 187.3408 
L 207.517205 187.404387 
L 207.571504 187.404387 
L 207.734401 188.181634 
L 207.843 188.181634 
L 207.897299 187.467718 
L 207.951598 187.530795 
L 208.331692 187.593619 
L 208.494589 188.365824 
L 208.657487 187.656192 
L 208.983281 187.718515 
L 209.09188 187.78059 
L 209.146179 188.487394 
L 209.200478 187.78059 
L 209.526273 187.842417 
L 209.68917 187.904 
L 209.797769 187.904 
L 209.852068 187.262733 
L 210.014965 187.965339 
L 210.34076 188.026435 
L 210.395059 188.08729 
L 210.557956 187.387456 
L 210.720854 188.147906 
L 211.046649 188.208283 
L 211.155247 187.511198 
L 211.318144 187.572706 
L 211.481042 188.328329 
L 211.698238 188.328329 
L 211.861136 187.695 
L 212.078332 187.755789 
L 212.24123 188.447439 
L 212.349828 188.506646 
L 212.512725 187.816342 
L 212.675623 187.87666 
L 212.892819 187.936744 
L 213.001418 188.624372 
L 213.055717 187.936744 
L 213.110016 187.996596 
L 213.598708 188.056216 
L 213.761606 188.115607 
L 214.1417 188.174769 
L 214.250298 188.233704 
L 214.358896 187.552676 
L 214.521794 188.292414 
L 214.901888 188.350899 
L 214.956187 187.672474 
L 215.010486 187.732031 
L 215.119084 187.732031 
L 215.281981 188.4672 
L 215.553477 188.525019 
L 215.716375 187.850464 
L 215.879272 187.909343 
L 216.042169 188.582619 
L 216.205067 188.64 
L 216.313665 187.968 
L 216.476563 188.026435 
L 216.63946 188.084649 
L 216.802357 188.754113 
L 216.856656 188.754113 
L 217.019554 188.142644 
L 217.399648 188.200421 
L 217.453947 188.257981 
L 217.508246 188.923677 
L 217.562545 188.257981 
L 217.942639 188.315326 
L 218.105537 188.372456 
L 218.485631 188.429373 
L 218.648528 188.486078 
L 218.811425 188.542572 
L 218.920024 187.883063 
L 219.082921 188.598857 
L 219.463015 188.654933 
L 219.571613 187.997867 
L 219.680212 188.05495 
L 219.843109 188.710802 
L 220.006006 188.766465 
L 220.114605 188.766465 
L 220.277502 188.168486 
L 220.494699 188.224941 
L 220.657596 188.877176 
L 220.766194 188.932228 
L 220.929092 188.281189 
L 221.091989 188.337231 
L 221.254887 188.393068 
L 221.417784 189.041726 
L 221.472083 188.393068 
L 221.526382 188.448701 
L 221.960775 188.504131 
L 222.069374 189.20448 
L 222.232271 188.55936 
L 222.720963 188.669217 
L 222.775263 188.026435 
L 222.829562 188.669217 
L 222.992459 188.723848 
L 223.372553 188.778282 
L 223.53545 188.193211 
L 223.698348 188.886561 
L 224.024143 188.940409 
L 224.18704 188.303397 
L 224.349938 188.358194 
L 224.512835 189.047528 
L 224.675732 189.047528 
L 224.730031 188.412794 
L 224.784331 188.4672 
L 225.110125 188.521412 
L 225.273023 189.153882 
L 225.327322 189.206776 
L 225.490219 188.575431 
L 225.870313 188.682894 
L 225.978912 189.312 
L 226.08751 188.682894 
L 226.250407 188.73634 
L 226.630501 188.789597 
L 226.6848 188.216889 
L 226.847698 188.842667 
L 227.33639 188.948246 
L 227.390689 188.324668 
L 227.444988 188.948246 
L 227.607886 189.000758 
L 227.98798 189.053086 
L 228.150877 188.484923 
L 228.205176 188.484923 
L 228.368074 189.157194 
L 228.639569 189.208976 
L 228.802467 188.590829 
L 228.965364 188.643506 
L 229.128262 189.312 
L 229.291159 189.312 
L 229.345458 188.696 
L 229.399757 188.748312 
L 229.779851 188.800443 
L 229.942749 189.465202 
L 230.105646 188.852394 
L 230.540039 188.955759 
L 230.594338 189.566458 
L 230.648638 188.955759 
L 231.245928 189.058415 
L 231.300227 189.109479 
L 231.354526 188.501918 
L 231.408825 189.109479 
L 231.951817 189.211085 
L 232.060415 188.605597 
L 232.114714 188.657172 
L 232.277612 189.261629 
L 232.603406 189.312 
L 232.766304 188.759796 
L 232.929201 188.810847 
L 233.092099 189.412231 
L 233.254996 189.462091 
L 233.417894 188.861726 
L 233.580791 188.912432 
L 233.743688 188.962968 
L 233.906586 189.561309 
L 233.960885 188.962968 
L 234.015184 189.013333 
L 234.449577 189.063529 
L 234.612475 189.708886 
L 234.775372 189.113557 
L 234.992569 189.163417 
L 235.589859 189.262638 
L 235.807056 189.312 
L 235.915654 189.361198 
L 236.024252 188.770822 
L 236.18715 189.410233 
L 236.567244 189.459104 
L 236.675842 188.870687 
L 236.838739 188.920371 
L 237.001637 189.556364 
L 237.273132 189.604752 
L 237.43603 189.019248 
L 237.653226 189.068442 
L 237.816124 189.701053 
L 237.924722 189.701053 
L 238.03332 189.117474 
L 238.250517 189.166345 
L 238.413414 189.215056 
L 238.576312 189.796721 
L 238.739209 189.263607 
L 239.227901 189.360235 
L 239.2822 189.939054 
L 239.3365 189.360235 
L 239.93379 189.456234 
L 240.042388 188.928 
L 240.205286 189.504 
L 240.422482 189.551611 
L 240.58538 189.599068 
L 240.748277 189.024932 
L 240.802576 189.073163 
L 240.965474 189.646372 
L 241.291269 189.693523 
L 241.454166 189.169159 
L 241.617063 189.216926 
L 241.779961 189.78737 
L 241.942858 189.834067 
L 242.105756 189.264539 
L 242.322952 189.312 
L 242.43155 189.359309 
L 242.594448 189.927014 
L 242.648747 189.359309 
L 242.703046 189.406466 
L 243.246037 189.500331 
L 243.300337 190.065325 
L 243.354636 189.500331 
L 243.951926 189.5936 
L 244.006225 189.0304 
L 244.060525 189.077705 
L 244.223422 189.640013 
L 244.603516 189.732398 
L 244.766413 189.171867 
L 244.929311 189.778372 
L 245.309405 189.824202 
L 245.363704 189.265436 
L 245.418003 189.312 
L 245.5809 189.312 
L 245.743798 189.915429 
L 245.960994 189.960828 
L 246.123892 189.40469 
L 246.395387 189.450817 
L 246.558285 190.0512 
L 246.666883 190.0512 
L 246.721182 189.4968 
L 246.775481 189.54264 
L 247.209875 189.588336 
L 247.318473 190.185705 
L 247.48137 189.633891 
L 248.078661 189.724577 
L 248.295857 189.769709 
L 248.675951 189.859556 
L 248.838849 189.312 
L 249.001746 189.904271 
L 249.327541 189.948849 
L 249.436139 189.402978 
L 249.599037 189.448258 
L 249.761934 190.037595 
L 250.03343 190.081764 
L 250.196327 189.538401 
L 250.413524 189.583266 
L 250.576421 190.169698 
L 250.685019 190.169698 
L 250.793618 189.627994 
L 251.010814 189.672585 
L 251.228011 189.717041 
L 251.390908 190.300596 
L 251.553806 189.761362 
L 252.151096 189.8496 
L 252.368293 189.893519 
L 252.748387 189.980959 
L 252.856985 189.445792 
L 253.019882 190.024482 
L 253.399976 190.067874 
L 253.508575 189.534316 
L 253.671472 189.578378 
L 253.834369 190.154267 
L 254.105865 190.197269 
L 254.268762 189.666108 
L 254.485959 189.709776 
L 254.648856 190.28289 
L 254.757455 190.28289 
L 254.866053 189.753313 
L 255.08325 189.796721 
L 255.300446 189.84 
L 255.463344 190.410366 
L 255.626241 189.88315 
L 256.223531 189.969067 
L 256.440728 190.011834 
L 256.820822 190.096991 
L 256.92942 189.573664 
L 257.092318 190.139381 
L 257.472412 190.181647 
L 257.58101 189.659859 
L 257.743907 189.702767 
L 257.906805 190.265806 
L 258.1783 190.307701 
L 258.341198 189.788205 
L 258.558394 189.830737 
L 258.721292 190.391124 
L 258.884189 190.391124 
L 258.938488 189.873145 
L 258.992787 189.915429 
L 259.372881 189.95759 
L 259.535779 190.515349 
L 259.698676 189.999628 
L 260.187369 190.083339 
L 260.241668 190.597565 
L 260.295967 190.083339 
L 260.513163 190.125013 
L 260.893257 190.208 
L 261.001856 189.696 
L 261.164753 190.249314 
L 261.599146 190.290509 
L 261.653445 189.779983 
L 261.707744 189.821793 
L 261.816343 189.821793 
L 261.97924 190.372545 
L 262.305035 190.413387 
L 262.467932 189.905054 
L 262.63083 189.946506 
L 262.793727 190.49472 
L 262.956625 190.49472 
L 263.010924 189.98784 
L 263.065223 190.029056 
L 263.445317 190.070154 
L 263.608214 190.615852 
L 263.662513 190.615852 
L 263.825411 190.111135 
L 264.042607 190.152 
L 264.259804 190.192749 
L 264.314103 190.696034 
L 264.368402 190.192749 
L 264.585599 190.233382 
L 265.019992 190.314305 
L 265.074291 189.813153 
L 265.12859 190.314305 
L 265.725881 190.394772 
L 265.888778 189.935797 
L 265.943077 189.935797 
L 266.105975 190.474787 
L 266.37747 190.514626 
L 266.540368 190.016987 
L 266.757564 190.057412 
L 266.920462 190.593969 
L 267.083359 190.593969 
L 267.246256 190.137922 
L 267.572051 190.178008 
L 267.734949 190.712156 
L 267.789248 190.712156 
L 267.897846 190.217983 
L 268.115043 190.257847 
L 268.386538 190.2976 
L 268.440837 190.7904 
L 268.495137 190.337243 
L 269.146726 190.416199 
L 269.201025 189.925444 
L 269.255325 190.416199 
L 269.472521 190.455514 
L 269.852615 190.533818 
L 270.015512 190.045091 
L 270.17841 190.572809 
L 270.504205 190.611692 
L 270.612803 190.124308 
L 270.83 190.163753 
L 270.938598 190.20309 
L 271.101495 190.68914 
L 271.210094 190.727705 
L 271.372991 190.24232 
L 271.753085 190.320458 
L 271.915982 190.804518 
L 271.970281 190.320458 
L 272.024581 190.359368 
L 272.784769 190.43687 
L 273.001965 190.475463 
L 273.273461 190.513951 
L 273.32776 190.033171 
L 273.382059 190.072206 
L 273.544956 190.552336 
L 273.97935 190.628794 
L 274.142247 190.14996 
L 274.196546 190.188679 
L 274.359444 190.666868 
L 274.685238 190.70484 
L 274.848136 190.265806 
L 275.065332 190.304215 
L 275.22823 190.780478 
L 275.336828 190.818145 
L 275.499725 190.34252 
L 275.716922 190.380723 
L 275.879819 190.418824 
L 276.042717 190.893176 
L 276.205614 190.456822 
L 276.694306 190.532517 
L 276.748606 191.004975 
L 276.802905 190.532517 
L 277.400195 190.607809 
L 277.454494 190.645305 
L 277.508794 190.174727 
L 277.563093 190.645305 
L 278.106084 190.72 
L 278.214682 190.250667 
L 278.37758 190.288486 
L 278.540477 190.794301 
L 278.811973 190.831304 
L 278.97487 190.363826 
L 279.192067 190.401347 
L 279.354964 190.90502 
L 279.517862 190.90502 
L 279.572161 190.43877 
L 279.62646 190.476094 
L 280.006554 190.513321 
L 280.169451 191.014869 
L 280.22375 191.014869 
L 280.386648 190.55045 
L 280.603844 190.587482 
L 281.472631 190.698 
L 281.581229 190.734648 
L 281.689827 190.273248 
L 281.852725 190.7712 
L 282.287118 190.807658 
L 282.450015 190.384415 
L 282.504314 190.384415 
L 282.667212 190.88029 
L 282.993006 190.916465 
L 283.101605 190.458047 
L 283.318801 190.49472 
L 283.4274 190.531299 
L 283.590297 190.988536 
L 283.698895 191.024432 
L 283.861793 190.567784 
L 284.241887 190.640472 
L 284.350485 191.095949 
L 284.459083 190.640472 
L 284.67628 190.676677 
L 285.545066 190.784736 
L 285.762262 190.820571 
L 285.816562 190.368 
L 285.870861 190.404321 
L 285.92516 190.404321 
L 286.088057 190.856316 
L 286.305254 190.891969 
L 286.468151 190.927532 
L 286.631049 190.476686 
L 286.739647 190.512731 
L 286.902544 190.963005 
L 287.119741 190.998388 
L 287.17404 190.998388 
L 287.336937 190.584547 
L 287.554134 190.620319 
L 287.717031 191.068885 
L 287.879929 191.104 
L 287.988527 190.656 
L 288.205724 190.691591 
L 288.42292 190.727093 
L 288.531518 191.173965 
L 288.694416 190.762506 
L 289.617501 190.868211 
L 289.834698 190.903269 
L 289.943296 190.93824 
L 290.106193 190.49472 
L 290.269091 190.973124 
L 290.649185 191.00792 
L 290.703484 190.565506 
L 290.757783 190.600767 
L 290.920681 190.600767 
L 291.083578 191.077254 
L 291.355074 191.111791 
L 291.517971 190.671026 
L 291.735168 190.706025 
L 291.843766 190.740937 
L 292.006663 191.18061 
L 292.060962 191.18061 
L 292.22386 190.775762 
L 292.658253 190.845156 
L 292.766851 191.2832 
L 292.87545 190.845156 
L 293.092646 190.879724 
L 293.418441 190.914207 
L 293.47274 190.512177 
L 293.635637 190.948605 
L 294.12433 191.017148 
L 294.232928 190.581791 
L 294.341526 190.616471 
L 294.504424 191.051294 
L 294.72162 191.085356 
L 294.830218 191.119335 
L 294.993116 190.685575 
L 295.156013 190.72 
L 295.318911 191.153231 
L 295.536107 191.187044 
L 295.590406 190.754341 
L 295.644706 190.788599 
L 296.0248 190.822774 
L 296.187697 191.28799 
L 296.241996 191.28799 
L 296.404893 190.856865 
L 296.62209 190.890874 
L 296.839287 190.9248 
L 296.947885 191.35488 
L 297.110782 190.958644 
L 297.653774 191.026087 
L 297.708073 190.597565 
L 297.762372 191.026087 
L 297.979568 191.059686 
L 298.359662 191.126643 
L 298.52256 190.699668 
L 298.685457 191.16 
L 299.065551 191.193277 
L 299.11985 190.767328 
L 299.17415 190.801036 
L 299.445645 190.834663 
L 299.608543 191.259593 
L 299.77144 191.292632 
L 299.934337 190.868211 
L 300.151534 190.901677 
L 300.260132 190.935064 
L 300.42303 191.358473 
L 300.477329 191.358473 
L 300.640226 190.968372 
L 301.563312 191.067819 
L 301.780508 191.100811 
L 301.834807 191.100811 
L 301.943406 190.713327 
L 302.106303 191.133725 
L 302.3235 191.166561 
L 302.540696 191.199319 
L 302.649294 190.779915 
L 302.812192 190.813091 
L 302.975089 191.264604 
L 303.246585 191.297131 
L 303.409482 190.879208 
L 303.626679 190.912151 
L 303.789576 191.361955 
L 303.952474 191.361955 
L 304.006773 190.945015 
L 304.061072 190.977803 
L 304.495465 191.010513 
L 304.658362 191.458623 
L 304.82126 191.043148 
L 305.038456 191.075705 
L 305.364251 191.108187 
L 305.41855 190.726572 
L 305.581448 191.140593 
L 306.07014 191.205178 
L 306.178738 190.792121 
L 306.233037 190.824781 
L 306.395935 191.237358 
L 306.776029 191.301494 
L 306.938926 190.889875 
L 307.101824 190.922308 
L 307.264721 191.333451 
L 307.481918 191.365333 
L 307.536217 190.954667 
L 307.590516 190.98695 
L 307.916311 191.019159 
L 308.079208 191.428878 
L 308.187806 191.46054 
L 308.350704 191.051294 
L 308.676499 191.115342 
L 308.785097 191.115342 
L 308.893695 191.523646 
L 309.056593 191.147255 
L 309.599584 191.210862 
L 309.653883 190.803963 
L 309.708182 191.210862 
L 310.033977 191.274178 
L 310.305473 191.305728 
L 310.46837 190.900224 
L 310.631268 191.337205 
L 311.011362 191.368611 
L 311.065661 190.964032 
L 311.11996 190.995827 
L 311.391456 191.027549 
L 311.554353 191.431208 
L 311.71725 191.4624 
L 311.880148 191.0592 
L 312.205943 191.122286 
L 312.36884 191.524571 
L 312.423139 191.524571 
L 312.586037 191.153721 
L 313.074729 191.21638 
L 313.129028 191.617302 
L 313.183327 191.21638 
L 313.834917 191.309838 
L 313.943515 190.91027 
L 314.106412 191.34085 
L 314.540806 191.371793 
L 314.595105 190.973124 
L 314.649404 191.004444 
L 314.758002 191.004444 
L 314.9209 191.433471 
L 315.246694 191.464206 
L 315.409592 191.066876 
L 315.626788 191.097987 
L 315.789686 191.52547 
L 315.952583 191.52547 
L 316.115481 191.16 
L 316.549874 191.221737 
L 316.658472 191.616855 
L 316.76707 191.221737 
L 317.092865 191.2832 
L 318.07025 191.374884 
L 318.124549 190.981953 
L 318.178848 191.012814 
L 318.233147 191.012814 
L 318.396044 191.40531 
L 318.721839 191.46596 
L 318.776138 191.46596 
L 318.939036 191.074331 
L 319.101933 191.104988 
L 319.264831 191.526344 
L 319.482027 191.526344 
L 319.644925 191.166099 
L 319.91642 191.196554 
L 320.079318 191.616422 
L 320.242215 191.616422 
L 320.296514 191.226942 
L 320.350813 191.257263 
L 320.785206 191.287518 
L 320.948104 191.705908 
L 321.111001 191.317707 
L 321.436796 191.377886 
L 321.653993 191.377886 
L 321.708292 191.020947 
L 321.871189 191.407878 
L 322.359881 191.467665 
L 322.46848 191.081576 
L 322.522779 191.111791 
L 322.685676 191.497461 
L 323.06577 191.556859 
L 323.228668 191.172026 
L 323.391565 191.202046 
L 323.554462 191.586462 
L 323.771659 191.616 
L 323.825958 191.232 
L 323.880257 191.26189 
L 324.260351 191.291715 
L 324.423249 191.704233 
L 324.477548 191.704233 
L 324.640445 191.321476 
L 324.96624 191.380805 
L 325.129137 191.380805 
L 325.183437 191.762738 
L 325.237736 191.410374 
L 325.889325 191.469322 
L 325.943625 191.088618 
L 325.997924 191.469322 
L 326.323718 191.528017 
L 326.595214 191.557271 
L 326.758112 191.177788 
L 326.86671 191.207385 
L 327.029607 191.586462 
L 327.301103 191.61559 
L 327.355402 191.236918 
L 327.409701 191.266388 
L 327.735496 191.295796 
L 327.898393 191.673661 
L 328.006992 191.702604 
L 328.169889 191.32514 
L 328.495684 191.383643 
L 328.604282 191.383643 
L 328.76718 191.789065 
L 328.930077 191.412802 
L 329.418769 191.470933 
L 329.473068 191.8464 
L 329.527368 191.470933 
L 329.853162 191.528819 
L 330.178957 191.557671 
L 330.287556 191.183392 
L 330.450453 191.586462 
L 330.884846 191.615192 
L 331.047743 191.270763 
L 331.210641 191.299765 
L 331.373538 191.672471 
L 331.590735 191.70102 
L 331.699333 191.328705 
L 332.025128 191.386404 
L 332.079427 191.386404 
L 332.242324 191.757939 
L 332.296624 191.78631 
L 332.459521 191.415163 
L 332.893914 191.472501 
L 333.002512 191.842873 
L 333.056812 191.472501 
L 333.111111 191.50108 
L 333.708401 191.55806 
L 333.7627 191.188845 
L 333.816999 191.55806 
L 334.41429 191.614804 
L 334.577187 191.275021 
L 334.631487 191.275021 
L 334.794384 191.671312 
L 335.174478 191.699478 
L 335.228777 191.332174 
L 335.283076 191.360662 
L 335.554572 191.389091 
L 335.717469 191.755636 
L 335.880367 191.783628 
L 336.043264 191.417461 
L 336.369059 191.474027 
L 336.423358 191.474027 
L 336.586256 191.83944 
L 336.749153 191.502222 
L 337.237845 191.558439 
L 337.292144 191.922727 
L 337.346443 191.558439 
L 337.998033 191.642334 
L 338.106631 191.279165 
L 338.269529 191.670184 
L 338.703922 191.697978 
L 338.758221 191.335551 
L 338.81252 191.363657 
L 338.975418 191.363657 
L 339.138315 191.753394 
L 339.46411 191.781018 
L 339.572708 191.419699 
L 339.898503 191.475512 
L 340.0614 191.836098 
L 340.169999 191.863553 
L 340.332896 191.503334 
L 340.767289 191.558809 
L 340.875887 191.918298 
L 340.930187 191.558809 
L 340.984486 191.586462 
L 341.581776 191.6416 
L 341.636075 191.2832 
L 341.690374 191.6416 
L 342.287665 191.696516 
L 342.450562 191.366574 
L 342.61346 191.751211 
L 342.993554 191.778476 
L 343.102152 191.421877 
L 343.319349 191.449446 
L 343.482246 191.832843 
L 343.753742 191.859944 
L 343.916639 191.504417 
L 344.242434 191.559168 
L 344.405331 191.913984 
L 344.459631 191.913984 
L 344.622528 191.586462 
L 345.11122 191.640885 
L 345.165519 191.99464 
L 345.219818 191.640885 
L 345.871408 191.722115 
L 345.980006 191.369416 
L 346.142904 191.749084 
L 346.577297 191.776 
L 346.631596 191.424 
L 346.685895 191.451211 
L 346.848793 191.451211 
L 347.01169 191.829671 
L 347.283186 191.856427 
L 347.446083 191.505472 
L 347.771878 191.559518 
L 347.934775 191.909781 
L 348.043374 191.936379 
L 348.206271 191.586462 
L 348.586365 191.640189 
L 348.749262 191.989417 
L 348.803562 191.640189 
L 348.857861 191.666973 
L 350.16104 191.773587 
L 350.323937 191.452932 
L 350.486835 191.826581 
L 350.866929 191.853 
L 350.975527 191.5065 
L 351.192724 191.533206 
L 351.355621 191.905684 
L 351.627117 191.931949 
L 351.790014 191.586462 
L 352.115809 191.63951 
L 352.278706 191.984327 
L 352.333006 191.984327 
L 352.495903 191.665957 
L 352.984595 191.718698 
L 353.038894 192.062512 
L 353.093193 191.718698 
L 353.744783 191.797426 
L 353.853381 191.454609 
L 354.016279 191.823568 
L 354.504971 191.849659 
L 354.667868 191.533873 
L 354.722168 191.533873 
L 354.885065 191.90169 
L 355.21086 191.927631 
L 355.319458 191.586462 
L 355.645253 191.638848 
L 355.80815 191.979363 
L 355.916749 192.005154 
L 356.079646 191.664966 
L 356.514039 191.717053 
L 356.622637 192.056589 
L 356.676937 191.717053 
L 356.731236 191.743021 
L 357.328526 191.794809 
L 357.382825 191.456244 
L 357.437124 191.794809 
L 358.088714 191.872122 
L 358.197312 191.534523 
L 358.36021 191.897795 
L 358.794603 191.923419 
L 358.848902 191.586462 
L 358.903201 191.612357 
L 359.066099 191.612357 
L 359.228996 191.974521 
L 359.500492 192 
L 359.663389 191.664 
L 359.989184 191.715448 
L 360.152081 192.050813 
L 360.206381 192.050813 
L 360.369278 191.741099 
L 360.85797 191.792256 
L 360.966568 192.126673 
L 361.020868 191.792256 
L 361.075167 191.817763 
L 361.672457 191.868632 
L 361.726756 191.535158 
L 361.781056 191.868632 
L 362.378346 191.91931 
L 362.541243 191.612041 
L 362.595543 191.612041 
L 362.75844 191.969798 
L 363.084235 191.994971 
L 363.192833 191.663057 
L 363.518628 191.713882 
L 363.681525 192.045176 
L 363.844423 192.070209 
L 364.00732 191.739224 
L 364.333115 191.789765 
L 364.387414 191.789765 
L 364.550312 192.120134 
L 364.713209 191.814966 
L 365.90779 191.915299 
L 366.016388 191.940267 
L 366.124987 191.611733 
L 366.287884 191.965188 
L 366.722277 191.990063 
L 366.885174 191.687269 
L 367.048072 191.712354 
L 367.210969 192.039675 
L 367.428166 192.064413 
L 367.536764 191.737394 
L 367.862559 191.787334 
L 367.916858 191.787334 
L 368.079756 192.113752 
L 368.134055 192.138353 
L 368.296952 191.812235 
L 368.785644 191.861901 
L 368.894243 192.18742 
L 369.05714 191.886665 
L 369.600131 191.936059 
L 369.654431 191.611433 
L 369.70873 191.936059 
L 370.034524 191.985271 
L 370.30602 192.00981 
L 370.468918 191.686073 
L 370.577516 191.710862 
L 370.740413 192.034304 
L 371.011909 192.058754 
L 371.066208 191.735607 
L 371.120507 191.760306 
L 371.446302 191.78496 
L 371.609199 192.10752 
L 371.772097 192.131837 
L 371.880695 191.809569 
L 372.20649 191.858655 
L 372.315088 191.858655 
L 372.477986 192.204522 
L 372.640883 191.88313 
L 373.781165 191.980592 
L 373.944062 192.004848 
L 374.052661 191.684905 
L 374.10696 191.709405 
L 374.269857 192.029059 
L 374.649951 192.077353 
L 374.812849 191.758273 
L 374.975746 191.782642 
L 375.138643 192.101434 
L 375.35584 192.125472 
L 375.410139 191.806966 
L 375.464438 191.831247 
L 375.844532 191.855484 
L 376.00743 192.197329 
L 376.116028 192.197329 
L 376.224626 191.879678 
L 376.60472 191.927936 
L 376.713318 191.927936 
L 376.821917 192.2688 
L 376.984814 191.952 
L 377.527806 192 
L 377.582105 191.683765 
L 377.636404 191.707982 
L 377.799301 192.023936 
L 378.287993 192.07168 
L 378.396592 191.756288 
L 378.450891 191.780377 
L 378.50519 191.780377 
L 378.668087 192.095488 
L 378.993882 192.142979 
L 379.15678 191.828426 
L 379.373976 191.852386 
L 379.536874 192.190301 
L 379.699771 192.190301 
L 379.75407 191.876304 
L 379.862668 191.90018 
L 380.242762 191.924014 
L 380.40566 192.260971 
L 380.568557 191.947806 
L 380.948651 191.995263 
L 381.871737 192.066137 
L 381.926036 191.754348 
L 382.034634 191.778163 
L 382.088933 191.778163 
L 382.25183 192.113179 
L 382.577625 192.136638 
L 382.740523 191.825669 
L 382.957719 191.849359 
L 383.120617 192.183433 
L 383.337813 192.206769 
L 383.500711 191.896615 
L 383.880805 191.943707 
L 384.043702 192.253319 
L 384.098001 191.943707 
L 384.206599 191.967191 
L 385.45548 192.060719 
L 385.509779 192.084 
L 385.618377 191.776 
L 385.781274 192.10724 
L 386.215668 192.13044 
L 386.269967 191.822974 
L 386.378565 191.8464 
L 386.487163 191.8464 
L 386.650061 192.17672 
L 386.921556 192.199799 
L 387.084454 191.893131 
L 387.410249 191.9397 
L 387.573146 192.24584 
L 387.681744 192.2688 
L 387.844642 191.962924 
L 388.279035 192.009253 
L 388.387633 192.314602 
L 388.441932 192.009253 
L 388.55053 192.032358 
L 389.093522 192.078448 
L 389.147821 191.773885 
L 389.20212 192.078448 
L 389.85371 192.147288 
L 390.016607 191.843507 
L 390.179505 192.170156 
L 390.559599 192.192985 
L 390.613898 191.889723 
L 390.722496 191.912772 
L 390.939693 191.935782 
L 391.10259 192.238526 
L 391.319787 192.261238 
L 391.428385 191.958752 
L 391.482684 191.981683 
L 391.808479 192.004575 
L 391.971376 192.306546 
L 392.025675 192.329143 
L 392.188573 192.027429 
L 393.328855 192.118454 
L 393.491752 192.141114 
L 393.60035 191.840677 
L 393.654649 191.863553 
L 393.817547 192.163736 
L 394.197641 192.208865 
L 394.360538 191.909189 
L 394.523436 191.931949 
L 394.686333 192.231372 
L 394.90353 192.253841 
L 394.957829 191.954671 
L 395.066427 191.977355 
L 395.392222 192 
L 395.555119 192.321023 
L 395.663718 192.321023 
L 395.772316 192.022607 
L 395.826615 192.045176 
L 396.261008 192.067708 
L 396.369606 192.387866 
L 396.532504 192.090201 
L 397.075495 192.135075 
L 397.129794 191.83791 
L 397.184093 191.860539 
L 397.346991 192.157456 
L 397.835683 192.202105 
L 397.944281 191.905684 
L 397.99858 191.9282 
L 398.05288 191.9282 
L 398.215777 192.224374 
L 398.487273 192.246606 
L 398.487273 192.246606 
" style="fill:none;stroke:#1f77b4;stroke-linecap:square;stroke-width:1.5;"/>
   </g>
   <g id="patch_3">
    <path d="M 57.6 307.584 
L 57.6 41.472 
" style="fill:none;stroke:#000000;stroke-linecap:square;stroke-linejoin:miter;stroke-width:0.8;"/>
   </g>
   <g id="patch_4">
    <path d="M 414.72 307.584 
L 414.72 41.472 
" style="fill:none;stroke:#000000;stroke-linecap:square;stroke-linejoin:miter;stroke-width:0.8;"/>
   </g>
   <g id="patch_5">
    <path d="M 57.6 307.584 
L 414.72 307.584 
" style="fill:none;stroke:#000000;stroke-linecap:square;stroke-linejoin:miter;stroke-width:0.8;"/>
   </g>
   <g id="patch_6">
    <path d="M 57.6 41.472 
L 414.72 41.472 
" style="fill:none;stroke:#000000;stroke-linecap:square;stroke-linejoin:miter;stroke-width:0.8;"/>
   </g>
  </g>
 </g>
 <defs>
  <clipPath id="pb2f5a90abd">
   <rect height="266.112" width="357.12" x="57.6" y="41.472"/>
  </clipPath>
 </defs>
</svg>
