<?xml version="1.0" encoding="utf-8" standalone="no"?>
<!DOCTYPE svg PUBLIC "-//W3C//DTD SVG 1.1//EN"
  "http://www.w3.org/Graphics/SVG/1.1/DTD/svg11.dtd">
<!-- Created with matplotlib (https://matplotlib.org/) -->
<svg height="345.6pt" version="1.1" viewBox="0 0 460.8 345.6" width="460.8pt" xmlns="http://www.w3.org/2000/svg" xmlns:xlink="http://www.w3.org/1999/xlink">
 <metadata>
  <rdf:RDF xmlns:cc="http://creativecommons.org/ns#" xmlns:dc="http://purl.org/dc/elements/1.1/" xmlns:rdf="http://www.w3.org/1999/02/22-rdf-syntax-ns#">
   <cc:Work>
    <dc:type rdf:resource="http://purl.org/dc/dcmitype/StillImage"/>
    <dc:date>2022-08-28T23:01:54.712765</dc:date>
    <dc:format>image/svg+xml</dc:format>
    <dc:creator>
     <cc:Agent>
      <dc:title>Matplotlib v3.3.4, https://matplotlib.org/</dc:title>
     </cc:Agent>
    </dc:creator>
   </cc:Work>
  </rdf:RDF>
 </metadata>
 <defs>
  <style type="text/css">*{stroke-linecap:butt;stroke-linejoin:round;}</style>
 </defs>
 <g id="figure_1">
  <g id="patch_1">
   <path d="M 0 345.6 
L 460.8 345.6 
L 460.8 0 
L 0 0 
z
" style="fill:#ffffff;"/>
  </g>
  <g id="axes_1">
   <g id="patch_2">
    <path d="M 57.6 307.584 
L 414.72 307.584 
L 414.72 41.472 
L 57.6 41.472 
z
" style="fill:#ffffff;"/>
   </g>
   <g id="matplotlib.axis_1">
    <g id="xtick_1">
     <g id="line2d_1">
      <path clip-path="url(#p778ddcd6f8)" d="M 70.459242 307.584 
L 70.459242 41.472 
" style="fill:none;stroke:#b0b0b0;stroke-linecap:square;stroke-width:0.8;"/>
     </g>
     <g id="line2d_2">
      <defs>
       <path d="M 0 0 
L 0 3.5 
" id="m56795f6a60" style="stroke:#000000;stroke-width:0.8;"/>
      </defs>
      <g>
       <use style="stroke:#000000;stroke-width:0.8;" x="70.459242" xlink:href="#m56795f6a60" y="307.584"/>
      </g>
     </g>
     <g id="text_1">
      <!-- 0 -->
      <g transform="translate(67.277992 322.182437)scale(0.1 -0.1)">
       <defs>
        <path d="M 31.78125 3.421875 
Q 39.265625 3.421875 42.96875 11.625 
Q 46.6875 19.828125 46.6875 36.375 
Q 46.6875 52.984375 42.96875 61.1875 
Q 39.265625 69.390625 31.78125 69.390625 
Q 24.3125 69.390625 20.59375 61.1875 
Q 16.890625 52.984375 16.890625 36.375 
Q 16.890625 19.828125 20.59375 11.625 
Q 24.3125 3.421875 31.78125 3.421875 
z
M 31.78125 -1.421875 
Q 19.921875 -1.421875 13.25 8.53125 
Q 6.59375 18.5 6.59375 36.375 
Q 6.59375 54.296875 13.25 64.25 
Q 19.921875 74.21875 31.78125 74.21875 
Q 43.703125 74.21875 50.34375 64.25 
Q 56.984375 54.296875 56.984375 36.375 
Q 56.984375 18.5 50.34375 8.53125 
Q 43.703125 -1.421875 31.78125 -1.421875 
z
" id="DejaVuSerif-48"/>
       </defs>
       <use xlink:href="#DejaVuSerif-48"/>
      </g>
     </g>
    </g>
    <g id="xtick_2">
     <g id="line2d_3">
      <path clip-path="url(#p778ddcd6f8)" d="M 118.651883 307.584 
L 118.651883 41.472 
" style="fill:none;stroke:#b0b0b0;stroke-linecap:square;stroke-width:0.8;"/>
     </g>
     <g id="line2d_4">
      <g>
       <use style="stroke:#000000;stroke-width:0.8;" x="118.651883" xlink:href="#m56795f6a60" y="307.584"/>
      </g>
     </g>
     <g id="text_2">
      <!-- 50 -->
      <g transform="translate(112.289383 322.182437)scale(0.1 -0.1)">
       <defs>
        <path d="M 50.296875 72.90625 
L 50.296875 64.890625 
L 16.890625 64.890625 
L 16.890625 44 
Q 19.4375 45.75 22.828125 46.625 
Q 26.21875 47.515625 30.421875 47.515625 
Q 42.234375 47.515625 49.0625 40.96875 
Q 55.90625 34.421875 55.90625 23.09375 
Q 55.90625 11.53125 49 5.046875 
Q 42.09375 -1.421875 29.59375 -1.421875 
Q 24.5625 -1.421875 19.28125 -0.1875 
Q 14.015625 1.03125 8.5 3.515625 
L 8.5 17.671875 
L 14.015625 17.671875 
Q 14.453125 10.75 18.421875 7.078125 
Q 22.40625 3.421875 29.59375 3.421875 
Q 37.3125 3.421875 41.453125 8.5 
Q 45.609375 13.578125 45.609375 23.09375 
Q 45.609375 32.5625 41.484375 37.609375 
Q 37.359375 42.671875 29.59375 42.671875 
Q 25.203125 42.671875 21.84375 41.109375 
Q 18.5 39.546875 15.921875 36.28125 
L 11.71875 36.28125 
L 11.71875 72.90625 
z
" id="DejaVuSerif-53"/>
       </defs>
       <use xlink:href="#DejaVuSerif-53"/>
       <use x="63.623047" xlink:href="#DejaVuSerif-48"/>
      </g>
     </g>
    </g>
    <g id="xtick_3">
     <g id="line2d_5">
      <path clip-path="url(#p778ddcd6f8)" d="M 166.844524 307.584 
L 166.844524 41.472 
" style="fill:none;stroke:#b0b0b0;stroke-linecap:square;stroke-width:0.8;"/>
     </g>
     <g id="line2d_6">
      <g>
       <use style="stroke:#000000;stroke-width:0.8;" x="166.844524" xlink:href="#m56795f6a60" y="307.584"/>
      </g>
     </g>
     <g id="text_3">
      <!-- 100 -->
      <g transform="translate(157.300774 322.182437)scale(0.1 -0.1)">
       <defs>
        <path d="M 14.203125 0 
L 14.203125 5.171875 
L 26.90625 5.171875 
L 26.90625 65.828125 
L 12.203125 56.296875 
L 12.203125 62.703125 
L 29.984375 74.21875 
L 36.71875 74.21875 
L 36.71875 5.171875 
L 49.421875 5.171875 
L 49.421875 0 
z
" id="DejaVuSerif-49"/>
       </defs>
       <use xlink:href="#DejaVuSerif-49"/>
       <use x="63.623047" xlink:href="#DejaVuSerif-48"/>
       <use x="127.246094" xlink:href="#DejaVuSerif-48"/>
      </g>
     </g>
    </g>
    <g id="xtick_4">
     <g id="line2d_7">
      <path clip-path="url(#p778ddcd6f8)" d="M 215.037165 307.584 
L 215.037165 41.472 
" style="fill:none;stroke:#b0b0b0;stroke-linecap:square;stroke-width:0.8;"/>
     </g>
     <g id="line2d_8">
      <g>
       <use style="stroke:#000000;stroke-width:0.8;" x="215.037165" xlink:href="#m56795f6a60" y="307.584"/>
      </g>
     </g>
     <g id="text_4">
      <!-- 150 -->
      <g transform="translate(205.493415 322.182437)scale(0.1 -0.1)">
       <use xlink:href="#DejaVuSerif-49"/>
       <use x="63.623047" xlink:href="#DejaVuSerif-53"/>
       <use x="127.246094" xlink:href="#DejaVuSerif-48"/>
      </g>
     </g>
    </g>
    <g id="xtick_5">
     <g id="line2d_9">
      <path clip-path="url(#p778ddcd6f8)" d="M 263.229806 307.584 
L 263.229806 41.472 
" style="fill:none;stroke:#b0b0b0;stroke-linecap:square;stroke-width:0.8;"/>
     </g>
     <g id="line2d_10">
      <g>
       <use style="stroke:#000000;stroke-width:0.8;" x="263.229806" xlink:href="#m56795f6a60" y="307.584"/>
      </g>
     </g>
     <g id="text_5">
      <!-- 200 -->
      <g transform="translate(253.686056 322.182437)scale(0.1 -0.1)">
       <defs>
        <path d="M 12.796875 55.515625 
L 7.328125 55.515625 
L 7.328125 68.5 
Q 12.546875 71.296875 17.84375 72.75 
Q 23.140625 74.21875 28.21875 74.21875 
Q 39.59375 74.21875 46.1875 68.703125 
Q 52.78125 63.1875 52.78125 53.71875 
Q 52.78125 43.015625 37.84375 28.125 
Q 36.671875 27 36.078125 26.421875 
L 17.671875 8.015625 
L 48.09375 8.015625 
L 48.09375 17 
L 53.8125 17 
L 53.8125 0 
L 6.78125 0 
L 6.78125 5.328125 
L 28.90625 27.390625 
Q 36.234375 34.71875 39.359375 40.84375 
Q 42.484375 46.96875 42.484375 53.71875 
Q 42.484375 61.078125 38.640625 65.234375 
Q 34.8125 69.390625 28.078125 69.390625 
Q 21.09375 69.390625 17.28125 65.921875 
Q 13.484375 62.453125 12.796875 55.515625 
z
" id="DejaVuSerif-50"/>
       </defs>
       <use xlink:href="#DejaVuSerif-50"/>
       <use x="63.623047" xlink:href="#DejaVuSerif-48"/>
       <use x="127.246094" xlink:href="#DejaVuSerif-48"/>
      </g>
     </g>
    </g>
    <g id="xtick_6">
     <g id="line2d_11">
      <path clip-path="url(#p778ddcd6f8)" d="M 311.422447 307.584 
L 311.422447 41.472 
" style="fill:none;stroke:#b0b0b0;stroke-linecap:square;stroke-width:0.8;"/>
     </g>
     <g id="line2d_12">
      <g>
       <use style="stroke:#000000;stroke-width:0.8;" x="311.422447" xlink:href="#m56795f6a60" y="307.584"/>
      </g>
     </g>
     <g id="text_6">
      <!-- 250 -->
      <g transform="translate(301.878697 322.182437)scale(0.1 -0.1)">
       <use xlink:href="#DejaVuSerif-50"/>
       <use x="63.623047" xlink:href="#DejaVuSerif-53"/>
       <use x="127.246094" xlink:href="#DejaVuSerif-48"/>
      </g>
     </g>
    </g>
    <g id="xtick_7">
     <g id="line2d_13">
      <path clip-path="url(#p778ddcd6f8)" d="M 359.615088 307.584 
L 359.615088 41.472 
" style="fill:none;stroke:#b0b0b0;stroke-linecap:square;stroke-width:0.8;"/>
     </g>
     <g id="line2d_14">
      <g>
       <use style="stroke:#000000;stroke-width:0.8;" x="359.615088" xlink:href="#m56795f6a60" y="307.584"/>
      </g>
     </g>
     <g id="text_7">
      <!-- 300 -->
      <g transform="translate(350.071338 322.182437)scale(0.1 -0.1)">
       <defs>
        <path d="M 9.71875 69.828125 
Q 15.4375 71.96875 20.671875 73.09375 
Q 25.921875 74.21875 30.515625 74.21875 
Q 41.21875 74.21875 47.21875 69.59375 
Q 53.21875 64.984375 53.21875 56.78125 
Q 53.21875 50.203125 49.0625 45.78125 
Q 44.921875 41.359375 37.3125 39.796875 
Q 46.296875 38.53125 51.25 33.28125 
Q 56.203125 28.03125 56.203125 19.671875 
Q 56.203125 9.46875 49.34375 4.015625 
Q 42.484375 -1.421875 29.59375 -1.421875 
Q 23.875 -1.421875 18.421875 -0.1875 
Q 12.984375 1.03125 7.625 3.515625 
L 7.625 17.671875 
L 13.09375 17.671875 
Q 13.578125 10.640625 17.828125 7.03125 
Q 22.078125 3.421875 29.78125 3.421875 
Q 37.25 3.421875 41.578125 7.734375 
Q 45.90625 12.0625 45.90625 19.578125 
Q 45.90625 28.171875 41.453125 32.59375 
Q 37.015625 37.015625 28.421875 37.015625 
L 23.78125 37.015625 
L 23.78125 42 
L 26.21875 42 
Q 34.765625 42 39.03125 45.53125 
Q 43.3125 49.078125 43.3125 56.203125 
Q 43.3125 62.59375 39.796875 65.984375 
Q 36.28125 69.390625 29.6875 69.390625 
Q 23.09375 69.390625 19.453125 66.265625 
Q 15.828125 63.140625 15.1875 56.984375 
L 9.71875 56.984375 
z
" id="DejaVuSerif-51"/>
       </defs>
       <use xlink:href="#DejaVuSerif-51"/>
       <use x="63.623047" xlink:href="#DejaVuSerif-48"/>
       <use x="127.246094" xlink:href="#DejaVuSerif-48"/>
      </g>
     </g>
    </g>
    <g id="xtick_8">
     <g id="line2d_15">
      <path clip-path="url(#p778ddcd6f8)" d="M 407.807729 307.584 
L 407.807729 41.472 
" style="fill:none;stroke:#b0b0b0;stroke-linecap:square;stroke-width:0.8;"/>
     </g>
     <g id="line2d_16">
      <g>
       <use style="stroke:#000000;stroke-width:0.8;" x="407.807729" xlink:href="#m56795f6a60" y="307.584"/>
      </g>
     </g>
     <g id="text_8">
      <!-- 350 -->
      <g transform="translate(398.263979 322.182437)scale(0.1 -0.1)">
       <use xlink:href="#DejaVuSerif-51"/>
       <use x="63.623047" xlink:href="#DejaVuSerif-53"/>
       <use x="127.246094" xlink:href="#DejaVuSerif-48"/>
      </g>
     </g>
    </g>
    <g id="text_9">
     <!-- Time -->
     <g transform="translate(214.680234 341.179469)scale(0.17 -0.17)">
      <defs>
       <path d="M 19.09375 0 
L 19.09375 5.171875 
L 28.421875 5.171875 
L 28.421875 67.09375 
L 6.984375 67.09375 
L 6.984375 55.71875 
L 0.984375 55.71875 
L 0.984375 72.90625 
L 65.71875 72.90625 
L 65.71875 55.71875 
L 59.71875 55.71875 
L 59.71875 67.09375 
L 38.28125 67.09375 
L 38.28125 5.171875 
L 47.609375 5.171875 
L 47.609375 0 
z
" id="DejaVuSerif-84"/>
       <path d="M 9.71875 68.015625 
Q 9.71875 70.265625 11.34375 71.921875 
Q 12.984375 73.578125 15.28125 73.578125 
Q 17.53125 73.578125 19.15625 71.921875 
Q 20.796875 70.265625 20.796875 68.015625 
Q 20.796875 65.71875 19.1875 64.109375 
Q 17.578125 62.5 15.28125 62.5 
Q 12.984375 62.5 11.34375 64.109375 
Q 9.71875 65.71875 9.71875 68.015625 
z
M 21.1875 5.171875 
L 29.6875 5.171875 
L 29.6875 0 
L 3.609375 0 
L 3.609375 5.171875 
L 12.203125 5.171875 
L 12.203125 46.6875 
L 3.609375 46.6875 
L 3.609375 51.90625 
L 21.1875 51.90625 
z
" id="DejaVuSerif-105"/>
       <path d="M 51.8125 41.796875 
Q 54.390625 47.515625 58.421875 50.421875 
Q 62.453125 53.328125 67.828125 53.328125 
Q 75.984375 53.328125 79.984375 48.265625 
Q 83.984375 43.21875 83.984375 33.015625 
L 83.984375 5.171875 
L 92.09375 5.171875 
L 92.09375 0 
L 67.1875 0 
L 67.1875 5.171875 
L 75 5.171875 
L 75 31.984375 
Q 75 39.9375 72.65625 43.3125 
Q 70.3125 46.6875 64.890625 46.6875 
Q 58.890625 46.6875 55.734375 42.140625 
Q 52.59375 37.59375 52.59375 28.90625 
L 52.59375 5.171875 
L 60.40625 5.171875 
L 60.40625 0 
L 35.796875 0 
L 35.796875 5.171875 
L 43.609375 5.171875 
L 43.609375 32.328125 
Q 43.609375 40.09375 41.265625 43.390625 
Q 38.921875 46.6875 33.5 46.6875 
Q 27.484375 46.6875 24.328125 42.140625 
Q 21.1875 37.59375 21.1875 28.90625 
L 21.1875 5.171875 
L 29 5.171875 
L 29 0 
L 4.109375 0 
L 4.109375 5.171875 
L 12.203125 5.171875 
L 12.203125 46.78125 
L 3.609375 46.78125 
L 3.609375 51.90625 
L 21.1875 51.90625 
L 21.1875 42.671875 
Q 23.6875 47.859375 27.53125 50.59375 
Q 31.390625 53.328125 36.28125 53.328125 
Q 42.328125 53.328125 46.375 50.3125 
Q 50.4375 47.3125 51.8125 41.796875 
z
" id="DejaVuSerif-109"/>
       <path d="M 54.203125 25 
L 15.484375 25 
L 15.484375 24.609375 
Q 15.484375 14.109375 19.4375 8.765625 
Q 23.390625 3.421875 31.109375 3.421875 
Q 37.015625 3.421875 40.796875 6.515625 
Q 44.578125 9.625 46.09375 15.71875 
L 53.328125 15.71875 
Q 51.171875 7.171875 45.375 2.875 
Q 39.59375 -1.421875 30.171875 -1.421875 
Q 18.796875 -1.421875 11.890625 6.078125 
Q 4.984375 13.578125 4.984375 25.984375 
Q 4.984375 38.28125 11.765625 45.796875 
Q 18.5625 53.328125 29.59375 53.328125 
Q 41.359375 53.328125 47.65625 46.0625 
Q 53.953125 38.8125 54.203125 25 
z
M 43.609375 30.171875 
Q 43.3125 39.265625 39.765625 43.875 
Q 36.234375 48.484375 29.59375 48.484375 
Q 23.390625 48.484375 19.828125 43.84375 
Q 16.265625 39.203125 15.484375 30.171875 
z
" id="DejaVuSerif-101"/>
      </defs>
      <use xlink:href="#DejaVuSerif-84"/>
      <use x="66.699219" xlink:href="#DejaVuSerif-105"/>
      <use x="98.681641" xlink:href="#DejaVuSerif-109"/>
      <use x="193.505859" xlink:href="#DejaVuSerif-101"/>
     </g>
    </g>
   </g>
   <g id="matplotlib.axis_2">
    <g id="ytick_1">
     <g id="line2d_17">
      <path clip-path="url(#p778ddcd6f8)" d="M 57.6 289.8432 
L 414.72 289.8432 
" style="fill:none;stroke:#b0b0b0;stroke-linecap:square;stroke-width:0.8;"/>
     </g>
     <g id="line2d_18">
      <defs>
       <path d="M 0 0 
L -3.5 0 
" id="mde2b60ffc3" style="stroke:#000000;stroke-width:0.8;"/>
      </defs>
      <g>
       <use style="stroke:#000000;stroke-width:0.8;" x="57.6" xlink:href="#mde2b60ffc3" y="289.8432"/>
      </g>
     </g>
     <g id="text_10">
      <!-- −0.2 -->
      <g transform="translate(26.317187 293.642419)scale(0.1 -0.1)">
       <defs>
        <path d="M 10.59375 35.296875 
L 73.1875 35.296875 
L 73.1875 27.390625 
L 10.59375 27.390625 
z
" id="DejaVuSerif-8722"/>
        <path d="M 9.421875 5.078125 
Q 9.421875 7.8125 11.28125 9.71875 
Q 13.140625 11.625 15.921875 11.625 
Q 18.609375 11.625 20.5 9.71875 
Q 22.40625 7.8125 22.40625 5.078125 
Q 22.40625 2.390625 20.5 0.484375 
Q 18.609375 -1.421875 15.921875 -1.421875 
Q 13.140625 -1.421875 11.28125 0.453125 
Q 9.421875 2.34375 9.421875 5.078125 
z
" id="DejaVuSerif-46"/>
       </defs>
       <use xlink:href="#DejaVuSerif-8722"/>
       <use x="83.789062" xlink:href="#DejaVuSerif-48"/>
       <use x="147.412109" xlink:href="#DejaVuSerif-46"/>
       <use x="179.199219" xlink:href="#DejaVuSerif-50"/>
      </g>
     </g>
    </g>
    <g id="ytick_2">
     <g id="line2d_19">
      <path clip-path="url(#p778ddcd6f8)" d="M 57.6 254.3616 
L 414.72 254.3616 
" style="fill:none;stroke:#b0b0b0;stroke-linecap:square;stroke-width:0.8;"/>
     </g>
     <g id="line2d_20">
      <g>
       <use style="stroke:#000000;stroke-width:0.8;" x="57.6" xlink:href="#mde2b60ffc3" y="254.3616"/>
      </g>
     </g>
     <g id="text_11">
      <!-- −0.1 -->
      <g transform="translate(26.317187 258.160819)scale(0.1 -0.1)">
       <use xlink:href="#DejaVuSerif-8722"/>
       <use x="83.789062" xlink:href="#DejaVuSerif-48"/>
       <use x="147.412109" xlink:href="#DejaVuSerif-46"/>
       <use x="179.199219" xlink:href="#DejaVuSerif-49"/>
      </g>
     </g>
    </g>
    <g id="ytick_3">
     <g id="line2d_21">
      <path clip-path="url(#p778ddcd6f8)" d="M 57.6 218.88 
L 414.72 218.88 
" style="fill:none;stroke:#b0b0b0;stroke-linecap:square;stroke-width:0.8;"/>
     </g>
     <g id="line2d_22">
      <g>
       <use style="stroke:#000000;stroke-width:0.8;" x="57.6" xlink:href="#mde2b60ffc3" y="218.88"/>
      </g>
     </g>
     <g id="text_12">
      <!-- 0.0 -->
      <g transform="translate(34.696875 222.679219)scale(0.1 -0.1)">
       <use xlink:href="#DejaVuSerif-48"/>
       <use x="63.623047" xlink:href="#DejaVuSerif-46"/>
       <use x="95.410156" xlink:href="#DejaVuSerif-48"/>
      </g>
     </g>
    </g>
    <g id="ytick_4">
     <g id="line2d_23">
      <path clip-path="url(#p778ddcd6f8)" d="M 57.6 183.3984 
L 414.72 183.3984 
" style="fill:none;stroke:#b0b0b0;stroke-linecap:square;stroke-width:0.8;"/>
     </g>
     <g id="line2d_24">
      <g>
       <use style="stroke:#000000;stroke-width:0.8;" x="57.6" xlink:href="#mde2b60ffc3" y="183.3984"/>
      </g>
     </g>
     <g id="text_13">
      <!-- 0.1 -->
      <g transform="translate(34.696875 187.197619)scale(0.1 -0.1)">
       <use xlink:href="#DejaVuSerif-48"/>
       <use x="63.623047" xlink:href="#DejaVuSerif-46"/>
       <use x="95.410156" xlink:href="#DejaVuSerif-49"/>
      </g>
     </g>
    </g>
    <g id="ytick_5">
     <g id="line2d_25">
      <path clip-path="url(#p778ddcd6f8)" d="M 57.6 147.9168 
L 414.72 147.9168 
" style="fill:none;stroke:#b0b0b0;stroke-linecap:square;stroke-width:0.8;"/>
     </g>
     <g id="line2d_26">
      <g>
       <use style="stroke:#000000;stroke-width:0.8;" x="57.6" xlink:href="#mde2b60ffc3" y="147.9168"/>
      </g>
     </g>
     <g id="text_14">
      <!-- 0.2 -->
      <g transform="translate(34.696875 151.716019)scale(0.1 -0.1)">
       <use xlink:href="#DejaVuSerif-48"/>
       <use x="63.623047" xlink:href="#DejaVuSerif-46"/>
       <use x="95.410156" xlink:href="#DejaVuSerif-50"/>
      </g>
     </g>
    </g>
    <g id="ytick_6">
     <g id="line2d_27">
      <path clip-path="url(#p778ddcd6f8)" d="M 57.6 112.4352 
L 414.72 112.4352 
" style="fill:none;stroke:#b0b0b0;stroke-linecap:square;stroke-width:0.8;"/>
     </g>
     <g id="line2d_28">
      <g>
       <use style="stroke:#000000;stroke-width:0.8;" x="57.6" xlink:href="#mde2b60ffc3" y="112.4352"/>
      </g>
     </g>
     <g id="text_15">
      <!-- 0.3 -->
      <g transform="translate(34.696875 116.234419)scale(0.1 -0.1)">
       <use xlink:href="#DejaVuSerif-48"/>
       <use x="63.623047" xlink:href="#DejaVuSerif-46"/>
       <use x="95.410156" xlink:href="#DejaVuSerif-51"/>
      </g>
     </g>
    </g>
    <g id="ytick_7">
     <g id="line2d_29">
      <path clip-path="url(#p778ddcd6f8)" d="M 57.6 76.9536 
L 414.72 76.9536 
" style="fill:none;stroke:#b0b0b0;stroke-linecap:square;stroke-width:0.8;"/>
     </g>
     <g id="line2d_30">
      <g>
       <use style="stroke:#000000;stroke-width:0.8;" x="57.6" xlink:href="#mde2b60ffc3" y="76.9536"/>
      </g>
     </g>
     <g id="text_16">
      <!-- 0.4 -->
      <g transform="translate(34.696875 80.752819)scale(0.1 -0.1)">
       <defs>
        <path d="M 34.90625 24.703125 
L 34.90625 63.484375 
L 10.015625 24.703125 
z
M 56.390625 0 
L 23.1875 0 
L 23.1875 5.171875 
L 34.90625 5.171875 
L 34.90625 19.484375 
L 3.078125 19.484375 
L 3.078125 24.8125 
L 35.015625 74.21875 
L 44.671875 74.21875 
L 44.671875 24.703125 
L 58.59375 24.703125 
L 58.59375 19.484375 
L 44.671875 19.484375 
L 44.671875 5.171875 
L 56.390625 5.171875 
z
" id="DejaVuSerif-52"/>
       </defs>
       <use xlink:href="#DejaVuSerif-48"/>
       <use x="63.623047" xlink:href="#DejaVuSerif-46"/>
       <use x="95.410156" xlink:href="#DejaVuSerif-52"/>
      </g>
     </g>
    </g>
    <g id="ytick_8">
     <g id="line2d_31">
      <path clip-path="url(#p778ddcd6f8)" d="M 57.6 41.472 
L 414.72 41.472 
" style="fill:none;stroke:#b0b0b0;stroke-linecap:square;stroke-width:0.8;"/>
     </g>
     <g id="line2d_32">
      <g>
       <use style="stroke:#000000;stroke-width:0.8;" x="57.6" xlink:href="#mde2b60ffc3" y="41.472"/>
      </g>
     </g>
     <g id="text_17">
      <!-- 0.5 -->
      <g transform="translate(34.696875 45.271219)scale(0.1 -0.1)">
       <use xlink:href="#DejaVuSerif-48"/>
       <use x="63.623047" xlink:href="#DejaVuSerif-46"/>
       <use x="95.410156" xlink:href="#DejaVuSerif-53"/>
      </g>
     </g>
    </g>
    <g id="text_18">
     <!-- Speed -->
     <g transform="translate(18.781719 201.295031)rotate(-90)scale(0.17 -0.17)">
      <defs>
       <path d="M 9.28125 3.515625 
L 9.28125 20.125 
L 14.890625 20.0625 
Q 15.140625 11.765625 19.703125 7.78125 
Q 24.265625 3.8125 33.59375 3.8125 
Q 42.28125 3.8125 46.84375 7.25 
Q 51.421875 10.6875 51.421875 17.28125 
Q 51.421875 22.5625 48.65625 25.390625 
Q 45.90625 28.21875 37.015625 30.90625 
L 27.390625 33.796875 
Q 16.9375 36.96875 12.671875 41.703125 
Q 8.40625 46.4375 8.40625 54.6875 
Q 8.40625 63.96875 14.984375 69.09375 
Q 21.578125 74.21875 33.5 74.21875 
Q 38.578125 74.21875 44.625 73.109375 
Q 50.6875 72.015625 57.515625 69.921875 
L 57.515625 54.390625 
L 52 54.390625 
Q 51.171875 62.109375 46.84375 65.546875 
Q 42.53125 69 33.6875 69 
Q 25.984375 69 21.953125 65.84375 
Q 17.921875 62.703125 17.921875 56.6875 
Q 17.921875 51.46875 20.9375 48.484375 
Q 23.96875 45.515625 33.796875 42.578125 
L 42.828125 39.890625 
Q 52.734375 36.921875 56.953125 32.296875 
Q 61.1875 27.6875 61.1875 19.921875 
Q 61.1875 9.328125 54.390625 3.953125 
Q 47.609375 -1.421875 34.1875 -1.421875 
Q 28.171875 -1.421875 21.9375 -0.1875 
Q 15.71875 1.03125 9.28125 3.515625 
z
" id="DejaVuSerif-83"/>
       <path d="M 20.515625 28.515625 
L 20.515625 23.390625 
Q 20.515625 14.015625 24.09375 9.109375 
Q 27.6875 4.203125 34.515625 4.203125 
Q 41.40625 4.203125 44.9375 9.71875 
Q 48.484375 15.234375 48.484375 25.984375 
Q 48.484375 36.765625 44.9375 42.234375 
Q 41.40625 47.703125 34.515625 47.703125 
Q 27.6875 47.703125 24.09375 42.765625 
Q 20.515625 37.84375 20.515625 28.515625 
z
M 11.53125 46.6875 
L 2.875 46.6875 
L 2.875 51.90625 
L 20.515625 51.90625 
L 20.515625 43.796875 
Q 23.140625 48.6875 27.21875 51 
Q 31.296875 53.328125 37.3125 53.328125 
Q 46.875 53.328125 52.921875 45.75 
Q 58.984375 38.1875 58.984375 25.984375 
Q 58.984375 13.765625 52.921875 6.171875 
Q 46.875 -1.421875 37.3125 -1.421875 
Q 31.296875 -1.421875 27.21875 0.890625 
Q 23.140625 3.21875 20.515625 8.109375 
L 20.515625 -15.578125 
L 29 -15.578125 
L 29 -20.796875 
L 2.875 -20.796875 
L 2.875 -15.578125 
L 11.53125 -15.578125 
z
" id="DejaVuSerif-112"/>
       <path d="M 52.484375 5.171875 
L 61.078125 5.171875 
L 61.078125 0 
L 43.5 0 
L 43.5 8.109375 
Q 40.875 3.21875 36.796875 0.890625 
Q 32.71875 -1.421875 26.703125 -1.421875 
Q 17.140625 -1.421875 11.0625 6.171875 
Q 4.984375 13.765625 4.984375 25.984375 
Q 4.984375 38.1875 11.03125 45.75 
Q 17.09375 53.328125 26.703125 53.328125 
Q 32.71875 53.328125 36.796875 51 
Q 40.875 48.6875 43.5 43.796875 
L 43.5 70.796875 
L 35.015625 70.796875 
L 35.015625 75.984375 
L 52.484375 75.984375 
z
M 43.5 23.390625 
L 43.5 28.515625 
Q 43.5 37.84375 39.90625 42.765625 
Q 36.328125 47.703125 29.5 47.703125 
Q 22.5625 47.703125 19.015625 42.234375 
Q 15.484375 36.765625 15.484375 25.984375 
Q 15.484375 15.234375 19.015625 9.71875 
Q 22.5625 4.203125 29.5 4.203125 
Q 36.328125 4.203125 39.90625 9.109375 
Q 43.5 14.015625 43.5 23.390625 
z
" id="DejaVuSerif-100"/>
      </defs>
      <use xlink:href="#DejaVuSerif-83"/>
      <use x="68.505859" xlink:href="#DejaVuSerif-112"/>
      <use x="132.519531" xlink:href="#DejaVuSerif-101"/>
      <use x="191.699219" xlink:href="#DejaVuSerif-101"/>
      <use x="250.878906" xlink:href="#DejaVuSerif-100"/>
     </g>
    </g>
   </g>
   <g id="LineCollection_1">
    <path clip-path="url(#p778ddcd6f8)" d="M 73.832727 218.88 
L 398.487273 218.88 
" style="fill:none;stroke:#696969;stroke-width:1.5;"/>
   </g>
   <g id="line2d_33">
    <path clip-path="url(#p778ddcd6f8)" d="M 74.236012 346.6 
L 74.314654 218.88 
L 75.114652 218.88 
L 75.212954 346.6 
M 76.268591 346.6 
L 76.406214 218.88 
L 77.042357 218.88 
L 77.199641 346.6 
M 77.747279 346.6 
L 77.851994 337.152 
L 78.488136 337.152 
L 78.651991 325.3248 
L 78.815846 218.88 
L 78.970063 325.3248 
L 79.297773 325.3248 
L 79.451989 315.648 
L 80.097771 315.648 
L 80.261626 307.584 
L 80.743552 307.584 
L 80.897768 218.88 
L 81.061623 300.760615 
L 81.707405 300.760615 
L 81.861621 294.912 
L 82.507403 294.912 
L 82.671258 289.8432 
L 82.989329 289.8432 
L 83.120381 346.6 
M 83.484398 346.6 
L 83.63511 285.408 
L 84.117037 285.408 
L 84.271253 281.494588 
L 84.917035 281.494588 
L 85.08089 278.016 
L 85.235106 278.016 
L 85.398961 337.152 
L 85.717033 337.152 
L 85.880888 330.927158 
L 86.044743 330.927158 
L 86.198959 274.903579 
L 86.526669 274.903579 
L 86.680885 272.1024 
L 87.326667 272.1024 
L 87.490522 269.568 
L 87.644738 269.568 
L 87.808593 320.256 
L 88.126665 320.256 
L 88.29052 315.648 
L 88.772446 315.648 
L 88.936301 267.264 
L 89.090517 265.160348 
L 89.736299 265.160348 
L 89.900154 263.232 
L 90.218225 263.232 
L 90.38208 307.584 
L 90.536297 307.584 
L 90.700152 304.03584 
L 91.345933 304.03584 
L 91.500149 300.760615 
L 91.827859 300.760615 
L 91.982076 259.820308 
L 92.145931 259.820308 
L 92.309786 258.304 
L 92.791712 258.304 
L 92.945929 297.728 
L 93.109784 294.912 
L 93.755565 294.912 
L 93.909782 292.290207 
L 94.555563 292.290207 
L 94.719418 289.8432 
L 95.037489 289.8432 
L 95.201344 254.3616 
L 95.355561 254.3616 
L 95.519416 253.217032 
L 95.683271 287.554065 
L 96.165197 287.554065 
L 96.319414 285.408 
L 96.965195 285.408 
L 97.12905 283.392 
L 97.765193 283.392 
L 97.929048 281.494588 
L 98.574829 281.494588 
L 98.729046 279.7056 
L 99.374827 279.7056 
L 99.538682 278.016 
L 100.174825 278.016 
L 100.33868 276.41773 
L 100.984461 276.41773 
L 101.138678 274.903579 
L 101.302533 274.903579 
L 101.466388 302.915368 
L 101.620604 302.915368 
L 101.784459 274.903579 
L 101.948314 273.467077 
L 102.584457 273.467077 
L 102.748312 272.1024 
L 103.394093 272.1024 
L 103.54831 270.804293 
L 104.194091 270.804293 
L 104.357946 294.912 
L 104.994089 294.912 
L 105.157944 293.143814 
L 105.321799 268.389209 
L 105.803725 268.389209 
L 105.957942 267.264 
L 106.603723 267.264 
L 106.767578 266.1888 
L 107.403721 266.1888 
L 107.567576 288.300522 
L 108.213357 288.300522 
L 108.367574 286.823489 
L 108.8495 286.823489 
L 109.013355 264.17566 
L 109.17721 263.232 
L 109.813353 263.232 
L 109.977208 262.326857 
L 110.622989 262.326857 
L 110.777206 282.74688 
L 111.422987 282.74688 
L 111.586842 281.494588 
L 112.222985 281.494588 
L 112.38684 280.290462 
L 112.550695 280.290462 
L 112.704912 259.820308 
L 113.032621 259.820308 
L 113.186838 259.047849 
L 113.832619 259.047849 
L 113.996474 258.304 
L 114.150691 278.016 
L 114.632617 278.016 
L 114.796472 276.9408 
L 115.442254 276.9408 
L 115.59647 275.904 
L 116.242251 275.904 
L 116.406106 274.903579 
L 116.560323 274.903579 
L 116.724178 256.229053 
L 117.042249 256.229053 
L 117.206104 255.585103 
L 117.369959 255.585103 
L 117.524176 273.937655 
L 117.851886 273.937655 
L 118.006102 273.004475 
L 118.651883 273.004475 
L 118.815738 272.1024 
L 119.451881 272.1024 
L 119.615736 271.229902 
L 120.261518 271.229902 
L 120.415734 270.385548 
L 120.579589 270.385548 
L 120.743444 253.217032 
L 120.89766 253.217032 
L 121.061515 270.385548 
L 121.22537 269.568 
L 121.861513 269.568 
L 122.025368 268.776 
L 122.67115 268.776 
L 122.825366 268.008369 
L 123.471148 268.008369 
L 123.635002 267.264 
L 124.271145 267.264 
L 124.435 266.541851 
L 124.598855 266.541851 
L 124.753072 282.429134 
L 124.916927 266.541851 
L 125.080782 266.541851 
L 125.234998 265.840941 
L 125.88078 265.840941 
L 126.044635 265.160348 
L 126.680777 265.160348 
L 126.844632 264.4992 
L 127.490414 264.4992 
L 127.64463 263.856676 
L 128.290412 263.856676 
L 128.454267 278.016 
L 128.936193 278.016 
L 129.090409 263.232 
L 129.254264 262.624438 
L 129.900046 262.624438 
L 130.054262 262.033297 
L 130.700044 262.033297 
L 130.863899 261.45792 
L 131.500042 261.45792 
L 131.663896 260.897684 
L 131.981968 260.897684 
L 132.145823 274.903579 
L 132.309678 274.903579 
L 132.463894 274.176 
L 133.109676 274.176 
L 133.273531 273.467077 
L 133.427747 273.467077 
L 133.591602 259.820308 
L 133.909674 259.820308 
L 134.073529 259.302076 
L 134.71931 259.302076 
L 134.873526 258.7968 
L 135.519308 258.7968 
L 135.683163 258.304 
L 136.001234 258.304 
L 136.165089 271.445333 
L 136.319306 271.445333 
L 136.483161 270.804293 
L 137.128942 270.804293 
L 137.283158 270.178699 
L 137.92894 270.178699 
L 138.092795 269.568 
L 138.247011 256.896 
L 138.728938 256.896 
L 138.892793 256.448753 
L 139.538574 256.448753 
L 139.69279 256.011907 
L 140.0205 256.011907 
L 140.174717 268.389209 
L 140.338572 268.389209 
L 140.502427 267.820138 
L 141.13857 267.820138 
L 141.302425 267.264 
L 141.948206 267.264 
L 142.102423 266.72036 
L 142.584349 266.72036 
L 142.748204 254.76027 
L 142.912059 254.3616 
L 143.548202 254.3616 
L 143.712057 253.971692 
L 144.030128 253.971692 
L 144.193983 265.668923 
L 144.357838 265.668923 
L 144.512055 265.160348 
L 145.157836 265.160348 
L 145.321691 264.66271 
L 145.957834 264.66271 
L 146.121689 264.17566 
L 146.76747 264.17566 
L 146.921687 263.698863 
L 147.249397 263.698863 
L 147.403613 252.494147 
L 147.567468 252.494147 
L 147.731323 252.144 
L 148.367466 252.144 
L 148.531321 262.774763 
L 149.177102 262.774763 
L 149.331319 262.326857 
L 149.9771 262.326857 
L 150.140955 261.888 
L 150.777098 261.888 
L 150.940953 261.45792 
L 151.586734 261.45792 
L 151.740951 261.036356 
L 152.222877 261.036356 
L 152.386732 250.497267 
L 152.550587 250.187294 
L 152.704804 260.623059 
L 153.18673 260.623059 
L 153.350585 260.217786 
L 153.996366 260.217786 
L 154.150583 259.820308 
L 154.796364 259.820308 
L 154.960219 259.4304 
L 155.596362 259.4304 
L 155.760217 259.047849 
L 156.405998 259.047849 
L 156.560215 258.672449 
L 157.042141 258.672449 
L 157.205996 268.620561 
L 157.369851 268.16 
L 157.524068 258.304 
L 158.005994 258.304 
L 158.169849 257.942312 
L 158.81563 257.942312 
L 158.969847 257.5872 
L 159.615628 257.5872 
L 159.779483 257.238486 
L 160.415626 257.238486 
L 160.579481 256.896 
L 161.225262 256.896 
L 161.379479 256.559575 
L 161.543334 256.559575 
L 161.707189 265.979469 
L 162.02526 265.979469 
L 162.189115 265.566316 
L 162.343332 265.566316 
L 162.507187 256.229053 
L 162.825258 256.229053 
L 162.989113 255.904278 
L 163.634895 255.904278 
L 163.789111 255.585103 
L 164.434892 255.585103 
L 164.598747 255.271385 
L 165.23489 255.271385 
L 165.398745 254.962983 
L 166.044527 254.962983 
L 166.198743 263.604706 
L 166.844524 263.604706 
L 167.008379 263.232 
L 167.644522 263.232 
L 167.808377 262.865455 
L 167.972232 254.068364 
L 168.454159 254.068364 
L 168.608375 253.779934 
L 169.254156 253.779934 
L 169.418011 253.496195 
L 170.054154 253.496195 
L 170.218009 253.217032 
L 170.699936 253.217032 
L 170.863791 261.80129 
L 171.018007 261.45792 
L 171.663789 261.45792 
L 171.827644 261.12 
L 172.463786 261.12 
L 172.627641 260.787402 
L 172.945713 260.787402 
L 173.109568 252.405921 
L 173.273423 252.405921 
L 173.427639 252.144 
L 174.073421 252.144 
L 174.237276 251.88614 
L 174.873418 251.88614 
L 175.037273 251.632246 
L 175.5192 251.632246 
L 175.683055 259.820308 
L 175.837271 259.507786 
L 176.483053 259.507786 
L 176.646908 259.2 
L 177.28305 259.2 
L 177.446905 258.896842 
L 178.092687 258.896842 
L 178.246903 258.598209 
L 178.574613 258.598209 
L 178.72883 250.654567 
L 178.892685 250.654567 
L 179.05654 250.4192 
L 179.692683 250.4192 
L 179.856538 250.187294 
L 180.338464 250.187294 
L 180.502319 258.014118 
L 180.656535 257.728467 
L 181.302317 257.728467 
L 181.466172 257.446957 
L 182.102315 257.446957 
L 182.26617 257.169496 
L 182.911951 257.169496 
L 183.066167 256.896 
L 183.711949 256.896 
L 183.875804 256.626383 
L 184.193875 256.626383 
L 184.35773 249.077106 
L 184.511947 249.077106 
L 184.675802 248.864451 
L 185.321583 248.864451 
L 185.475799 256.098462 
L 186.121581 256.098462 
L 186.285436 255.84 
L 186.921579 255.84 
L 187.085434 255.585103 
L 187.731215 255.585103 
L 187.885431 255.333699 
L 188.531213 255.333699 
L 188.695068 255.085714 
L 189.331211 255.085714 
L 189.495066 254.841081 
L 189.813137 254.841081 
L 189.976992 247.648865 
L 190.140847 247.648865 
L 190.295064 247.455785 
L 190.458919 254.599732 
L 190.940845 254.599732 
L 191.1047 254.3616 
L 191.740843 254.3616 
L 191.904698 254.126623 
L 192.550479 254.126623 
L 192.704696 253.894737 
L 193.350477 253.894737 
L 193.514332 253.665882 
L 194.150475 253.665882 
L 194.31433 253.44 
L 194.960111 253.44 
L 195.114328 253.217032 
L 195.442038 253.217032 
L 195.596254 260.084439 
L 195.760109 253.217032 
L 195.923964 252.996923 
L 196.560107 252.996923 
L 196.723962 252.779618 
L 197.369743 252.779618 
L 197.52396 252.565063 
L 198.169741 252.565063 
L 198.333596 252.353208 
L 198.969739 252.353208 
L 199.133594 252.144 
L 199.779375 252.144 
L 199.933592 251.937391 
L 200.579373 251.937391 
L 200.743228 258.304 
L 201.379371 258.304 
L 201.543226 258.062135 
L 201.707081 258.062135 
L 201.861297 251.531779 
L 202.189007 251.531779 
L 202.343224 251.332683 
L 202.989005 251.332683 
L 203.15286 251.136 
L 203.789003 251.136 
L 203.952858 250.941687 
L 204.598639 250.941687 
L 204.752856 250.749701 
L 205.398637 250.749701 
L 205.562492 250.56 
L 205.880564 250.56 
L 206.044419 256.896 
L 206.198635 256.896 
L 206.36249 256.671053 
L 207.008271 256.671053 
L 207.162488 256.448753 
L 207.644414 256.448753 
L 207.808269 250.187294 
L 207.972124 250.004211 
L 208.608267 250.004211 
L 208.772122 249.823256 
L 209.417904 249.823256 
L 209.57212 249.644393 
L 210.217901 249.644393 
L 210.381756 249.467586 
L 211.017899 249.467586 
L 211.181754 249.2928 
L 211.345609 255.37536 
L 211.827536 255.37536 
L 211.981752 255.168 
L 212.627533 255.168 
L 212.791388 254.962983 
L 213.427531 254.962983 
L 213.591386 254.76027 
L 213.909458 254.76027 
L 214.073313 248.780225 
L 214.237168 248.780225 
L 214.391384 248.613184 
L 215.037165 248.613184 
L 215.355237 248.448 
L 215.837163 248.448 
L 216.001018 248.284641 
L 216.6468 248.284641 
L 216.801016 253.971692 
L 217.446797 253.971692 
L 217.610652 253.779934 
L 218.246795 253.779934 
L 218.41065 253.590261 
L 219.056432 253.590261 
L 219.210648 253.402638 
L 219.85643 253.402638 
L 220.020285 253.217032 
L 220.174501 253.217032 
L 220.338356 247.494194 
L 220.656427 247.494194 
L 220.820282 247.341176 
L 221.466064 247.341176 
L 221.62028 247.189787 
L 222.102207 247.189787 
L 222.266062 252.851745 
L 222.429917 252.672 
L 223.066059 252.672 
L 223.229914 252.494147 
L 223.875696 252.494147 
L 224.029912 252.318157 
L 224.675694 252.318157 
L 224.839549 252.144 
L 225.475691 252.144 
L 225.639546 251.971648 
L 226.285328 251.971648 
L 226.439544 251.801072 
L 226.603399 251.801072 
L 226.767254 246.314227 
L 227.085326 246.314227 
L 227.403397 246.173538 
L 227.567252 246.173538 
L 227.731107 251.632246 
L 227.885324 251.632246 
L 228.049179 251.465143 
L 228.69496 251.465143 
L 228.849176 251.299736 
L 229.494958 251.299736 
L 229.813029 251.136 
L 230.294956 251.136 
L 230.458811 250.97391 
L 231.104592 250.97391 
L 231.258808 250.81344 
L 231.90459 250.81344 
L 232.222661 250.654567 
L 232.704588 250.654567 
L 232.868443 250.497267 
L 233.032298 250.497267 
L 233.186514 245.227723 
L 233.350369 245.227723 
L 233.514224 250.497267 
L 233.66844 250.341517 
L 234.314222 250.341517 
L 234.632293 250.187294 
L 235.11422 250.187294 
L 235.278075 250.034576 
L 235.923856 250.034576 
L 236.078073 249.88334 
L 236.723854 249.88334 
L 237.041925 249.733565 
L 237.523852 249.733565 
L 237.851562 249.585231 
L 238.333488 249.585231 
L 238.487705 249.438316 
L 238.969631 249.438316 
L 239.133486 254.531368 
L 239.451557 254.3616 
L 239.615412 254.3616 
L 239.779267 249.2928 
L 239.933484 249.2928 
L 240.261194 249.148664 
L 240.74312 249.148664 
L 240.897337 249.005887 
L 241.543118 249.005887 
L 241.861189 248.864451 
L 242.343116 248.864451 
L 242.670826 248.724336 
L 243.152752 248.724336 
L 243.470824 248.585526 
L 243.95275 248.585526 
L 244.270821 248.448 
L 244.752748 248.448 
L 244.916603 253.217032 
L 245.562384 253.217032 
L 245.716601 253.059523 
L 246.198527 253.059523 
L 246.362382 248.176734 
L 246.680454 248.042959 
L 247.16238 248.042959 
L 247.49009 247.9104 
L 247.972016 247.9104 
L 248.290088 247.779041 
L 248.772014 247.779041 
L 249.090086 247.648865 
L 249.572012 247.648865 
L 249.899722 247.519857 
L 250.381648 247.519857 
L 250.535865 247.392 
L 250.69972 252.144 
L 251.181646 252.144 
L 251.499718 251.99616 
L 251.981644 251.99616 
L 252.309354 251.849628 
L 252.79128 251.849628 
L 252.945497 251.704388 
L 253.109352 251.704388 
L 253.273207 247.015189 
L 253.591278 247.015189 
L 253.90935 246.891789 
L 254.391276 246.891789 
L 254.718986 246.769467 
L 255.200912 246.769467 
L 255.518984 246.648209 
L 256.00091 246.648209 
L 256.318982 246.528 
L 256.482837 246.528 
L 256.646692 251.136 
L 256.800908 251.136 
L 257.128618 250.996966 
L 257.610545 250.996966 
L 257.928616 250.859124 
L 258.410542 250.859124 
L 258.728614 250.722462 
L 259.21054 250.722462 
L 259.53825 250.586962 
L 259.856322 250.586962 
L 260.020177 246.057396 
L 260.338248 245.942237 
L 260.820174 245.942237 
L 261.138246 245.828051 
L 261.620172 245.828051 
L 261.947882 245.714824 
L 262.429809 245.714824 
L 262.584025 250.056301 
L 263.229806 250.056301 
L 263.547878 249.9264 
L 264.029804 249.9264 
L 264.357514 249.797577 
L 264.839441 249.797577 
L 265.157512 249.669818 
L 265.639439 249.669818 
L 265.95751 249.543111 
L 266.439436 249.543111 
L 266.767146 249.417443 
L 266.921363 245.054951 
L 268.049071 244.948114 
L 268.367142 244.842146 
L 268.530997 249.169171 
L 268.849068 249.169171 
L 269.176778 249.046543 
L 269.658705 249.046543 
L 269.976776 248.924903 
L 270.458703 248.924903 
L 270.776774 248.804241 
L 271.2587 248.804241 
L 271.58641 248.684544 
L 272.068337 248.684544 
L 272.386408 248.565801 
L 272.868335 248.565801 
L 273.186406 248.448 
L 273.668333 248.448 
L 273.996042 248.33113 
L 274.150259 244.123826 
L 274.314114 244.123826 
L 274.477969 248.33113 
L 274.79604 248.215181 
L 275.277967 248.215181 
L 275.596038 248.100141 
L 276.077965 248.100141 
L 276.405675 247.986 
L 276.887601 247.986 
L 277.205672 247.872747 
L 277.687599 247.872747 
L 278.00567 247.760372 
L 278.487597 247.760372 
L 278.815307 247.648865 
L 280.097231 247.538215 
L 280.415302 247.428414 
L 280.579157 251.506759 
L 280.897229 251.506759 
L 281.061084 251.382229 
L 281.224939 247.31945 
L 282.506863 247.211316 
L 282.824934 247.104 
L 284.116497 246.997494 
L 284.434569 246.891789 
L 285.716493 246.786876 
L 286.044203 246.682746 
L 286.526129 246.682746 
L 286.680346 250.536446 
L 287.326127 250.536446 
L 287.644198 250.4192 
L 288.126125 250.4192 
L 288.28998 250.302819 
L 288.453835 246.374967 
L 289.735759 246.273882 
L 290.05383 246.173538 
L 291.345393 246.073927 
L 291.663465 245.97504 
L 292.791172 245.87687 
L 292.945389 249.733565 
L 293.273099 249.622181 
L 294.555023 249.511597 
L 294.873095 249.401806 
L 295.518876 249.2928 
L 295.682731 245.4912 
L 296.964655 245.396498 
L 297.282727 245.302468 
L 298.574289 245.209102 
L 298.892361 245.116394 
L 299.056216 245.116394 
L 299.210432 248.864451 
L 300.174285 248.759242 
L 300.501995 248.654769 
L 301.783919 248.551024 
L 302.101991 248.448 
L 302.911627 248.345689 
L 303.065844 244.662478 
L 304.193551 244.573572 
L 304.511623 244.485278 
L 305.157404 244.397589 
L 305.321259 248.042959 
L 306.603183 247.943427 
L 306.921255 247.844571 
L 308.212818 247.746386 
L 308.530889 247.648865 
L 309.812813 247.552 
L 310.140523 247.455785 
L 310.29474 247.455785 
L 310.458595 243.883812 
L 311.422447 243.800187 
L 311.586302 243.71712 
L 311.740519 247.26528 
L 313.032082 247.170977 
L 313.350153 247.077298 
L 314.632077 246.984238 
L 314.959787 246.891789 
L 316.241712 246.799948 
L 316.559783 246.708706 
L 317.687491 246.618059 
L 317.851346 243.150801 
L 318.005562 246.528 
L 319.451341 246.438524 
L 319.779051 246.349626 
L 321.060976 246.261299 
L 321.379047 246.173538 
L 322.67061 246.086339 
L 322.988681 245.999694 
L 324.116389 245.9136 
L 324.270606 249.2928 
L 324.598316 249.196557 
L 325.234458 249.100921 
L 325.398313 245.743041 
L 326.680238 245.658566 
L 327.007948 245.574621 
L 328.289872 245.4912 
L 328.607943 245.408299 
L 329.899506 245.325913 
L 330.217577 245.244037 
L 330.535649 245.244037 
L 330.699504 248.539542 
L 331.017575 248.448 
L 332.309138 248.357022 
L 332.62721 248.266601 
L 332.791064 248.266601 
L 332.945281 245.001423 
L 333.909134 244.921541 
L 334.236844 244.842146 
L 335.518768 244.763234 
L 335.836839 244.6848 
L 336.964547 244.60684 
L 337.128402 247.822695 
L 337.446474 247.735518 
L 338.728398 247.648865 
L 339.056108 247.562731 
L 340.338032 247.47711 
L 340.501887 247.392 
L 340.656104 244.224 
L 341.947666 244.148795 
L 342.265738 244.074036 
L 343.393446 243.999717 
L 343.547662 247.139681 
L 343.875372 247.056565 
L 345.157296 246.973935 
L 345.475368 246.891789 
L 346.76693 246.810122 
L 347.085002 246.72893 
L 348.21271 246.648209 
L 348.366926 243.562852 
L 348.694636 243.491514 
L 349.812705 243.420588 
L 349.97656 246.488161 
L 350.294632 246.408828 
L 351.586194 246.329948 
L 351.904266 246.25152 
L 353.18619 246.173538 
L 353.5139 246.096 
L 354.795824 246.018901 
L 355.113896 245.942237 
L 356.077749 245.866006 
L 356.241604 242.867561 
L 356.405459 242.867561 
L 356.559675 245.790202 
L 358.005454 245.714824 
L 358.333164 245.639866 
L 359.615088 245.565326 
L 359.93316 245.4912 
L 361.224723 245.417485 
L 361.542794 245.344177 
L 362.824718 245.271273 
L 362.988573 248.123077 
L 363.788571 248.042959 
L 363.952426 245.126663 
L 365.23435 245.054951 
L 365.56206 244.983629 
L 366.843985 244.912696 
L 367.162056 244.842146 
L 368.453619 244.771978 
L 368.77169 244.702189 
L 369.417472 244.632774 
L 369.571688 247.494194 
L 370.863251 247.41748 
L 371.181322 247.341176 
L 371.827104 247.26528 
L 371.98132 244.426752 
L 373.272883 244.358809 
L 373.590954 244.291225 
L 374.872879 244.224 
L 375.200589 244.157129 
L 376.000586 244.090611 
L 376.164441 246.891789 
L 377.282511 246.818268 
L 377.610221 246.745131 
L 378.892145 246.672376 
L 379.210216 246.6 
L 379.537926 246.6 
L 379.692143 243.828 
L 380.019853 243.7632 
L 381.301777 243.698736 
L 381.619848 243.634605 
L 382.429485 243.570804 
L 382.583701 246.314227 
L 383.711409 246.243702 
L 384.02948 246.173538 
L 385.321043 246.103734 
L 385.639115 246.034286 
L 386.921039 245.965191 
L 387.248749 245.896447 
L 387.402965 245.896447 
L 387.56682 243.194802 
L 388.530673 243.133246 
L 388.848745 243.072 
L 389.0126 245.76 
L 390.140307 245.692292 
L 390.458379 245.624925 
L 391.740303 245.557895 
L 392.068013 245.4912 
L 393.349937 245.424838 
L 393.668009 245.358806 
L 394.149935 245.358806 
L 394.31379 247.934412 
L 395.441498 247.862495 
L 395.595714 245.227723 
L 396.559567 245.162667 
L 396.887277 245.097931 
L 397.205348 245.097931 
L 397.369203 247.719724 
L 397.687275 247.648865 
L 398.487273 247.578353 
L 398.487273 247.578353 
" style="fill:none;stroke:#1f77b4;stroke-linecap:square;stroke-width:1.5;"/>
   </g>
   <g id="patch_3">
    <path d="M 57.6 307.584 
L 57.6 41.472 
" style="fill:none;stroke:#000000;stroke-linecap:square;stroke-linejoin:miter;stroke-width:0.8;"/>
   </g>
   <g id="patch_4">
    <path d="M 414.72 307.584 
L 414.72 41.472 
" style="fill:none;stroke:#000000;stroke-linecap:square;stroke-linejoin:miter;stroke-width:0.8;"/>
   </g>
   <g id="patch_5">
    <path d="M 57.6 307.584 
L 414.72 307.584 
" style="fill:none;stroke:#000000;stroke-linecap:square;stroke-linejoin:miter;stroke-width:0.8;"/>
   </g>
   <g id="patch_6">
    <path d="M 57.6 41.472 
L 414.72 41.472 
" style="fill:none;stroke:#000000;stroke-linecap:square;stroke-linejoin:miter;stroke-width:0.8;"/>
   </g>
  </g>
 </g>
 <defs>
  <clipPath id="p778ddcd6f8">
   <rect height="266.112" width="357.12" x="57.6" y="41.472"/>
  </clipPath>
 </defs>
</svg>
