<?xml version="1.0" encoding="UTF-8" standalone="no"?>
<!-- Created with matplotlib (https://matplotlib.org/) -->

<svg
   height="345.6pt"
   version="1.1"
   viewBox="0 0 460.8 345.6"
   width="460.8pt"
   id="svg1508"
   sodipodi:docname="a.svg"
   inkscape:version="1.2.1 (2ed6d7ae0b, 2022-08-22, custom)"
   xmlns:inkscape="http://www.inkscape.org/namespaces/inkscape"
   xmlns:sodipodi="http://sodipodi.sourceforge.net/DTD/sodipodi-0.dtd"
   xmlns="http://www.w3.org/2000/svg"
   xmlns:svg="http://www.w3.org/2000/svg"
   xmlns:rdf="http://www.w3.org/1999/02/22-rdf-syntax-ns#"
   xmlns:cc="http://creativecommons.org/ns#"
   xmlns:dc="http://purl.org/dc/elements/1.1/">
  <sodipodi:namedview
     id="namedview1510"
     pagecolor="#ffffff"
     bordercolor="#666666"
     borderopacity="1.0"
     inkscape:showpageshadow="2"
     inkscape:pageopacity="0.0"
     inkscape:pagecheckerboard="0"
     inkscape:deskcolor="#d1d1d1"
     inkscape:document-units="pt"
     showgrid="false"
     inkscape:zoom="0.76584516"
     inkscape:cx="532.74477"
     inkscape:cy="298.36318"
     inkscape:window-width="1853"
     inkscape:window-height="1018"
     inkscape:window-x="67"
     inkscape:window-y="34"
     inkscape:window-maximized="1"
     inkscape:current-layer="svg1508" />
  <metadata
     id="metadata1247">
    <rdf:RDF>
      <cc:Work>
        <dc:type
           rdf:resource="http://purl.org/dc/dcmitype/StillImage" />
        <dc:date>2022-08-29T00:38:53.768403</dc:date>
        <dc:format>image/svg+xml</dc:format>
        <dc:creator>
          <cc:Agent>
            <dc:title>Matplotlib v3.3.4, https://matplotlib.org/</dc:title>
          </cc:Agent>
        </dc:creator>
      </cc:Work>
    </rdf:RDF>
  </metadata>
  <defs
     id="defs1251">
    <style
       type="text/css"
       id="style1249">*{stroke-linecap:butt;stroke-linejoin:round;}</style>
  </defs>
  <g
     id="patch_1">
    <path
       d="M 0,345.6 H 460.8 V 0 H 0 Z"
       style="fill:#ffffff"
       id="path1253" />
  </g>
  <g
     id="patch_2">
    <path
       d="M 103.104,307.584 H 369.216 V 41.472 H 103.104 Z"
       style="fill:#ffffff"
       id="path1256" />
  </g>
  <g
     id="LineCollection_1">
    <path
       clip-path="url(#pd8c706cd0f)"
       d="M 232.42077,184.46391 H 250.944 l 0.2131,-0.2131 V 159.744 l -0.2131,-0.2131 h -24.50681 l -0.2131,0.2131 v 19.69337 0"
       style="fill:none;stroke:#4b0082;stroke-width:3"
       id="path1437" />
  </g>
  <g
     id="LineCollection_2">
    <path
       clip-path="url(#pd8c706cd0f)"
       d="m 249.14467,228.66603 6.86052,-0.0478 0.53276,-0.0896 4.39054,-0.059 v -4.52843 l 0.67064,-0.0244 9.05687,-0.0745 0.23356,-0.16749 0.0328,-4.81142 h 4.79481 l 0.26638,-0.15705 4.62726,-0.0927 v -4.52843 l 0.16755,-0.16755 4.88752,-0.0988 V 209.024 l 0.15706,-0.26638 0.0166,-4.56125 h 4.52843 l 0.16749,-0.23356 0.0989,-9.72751 h 4.79481 l 0.059,-0.12849 0.0896,-9.58962 0.0478,-0.79914 -0.0478,-29.03524 -0.0896,-0.53276 -0.059,-4.39054 h -4.79481 l -0.0244,-0.67065 -0.0745,-9.05686 -0.16749,-0.23356 -4.54504,-0.0328 v -4.79481 l -0.15706,-0.26638 -0.0927,-4.62727 h -4.79481 l -0.16755,-0.16754 -0.0988,-4.88753 h -4.52843 l -0.26638,-0.15705 -4.82763,-0.0166 V 120.32 l -0.23356,-0.16749 -9.72751,-0.0989 v -4.79481 l -0.12849,-0.059 -9.58962,-0.0896 -0.79914,-0.0478 -28.76886,0.0478 -0.53276,0.0896 -4.65692,0.059 v 4.79481 l -0.67065,0.0244 -9.05686,0.0745 -0.23357,0.16749 -0.0328,4.54504 h -4.52843 l -0.26638,0.15705 -4.89365,0.0927 v 4.79481 l -0.16754,0.16754 -4.62115,0.0988 v 4.52843 l -0.15706,0.26638 -0.0166,4.82763 h -4.79481 l -0.1675,0.23356 -0.0989,9.72751 h -4.52843 l -0.059,0.12849 -0.0896,9.58962 -0.0478,0.79914 0.0478,28.76886 0.0896,0.53276 0.059,4.65692 h 4.52843 l 0.0244,0.67065 0.0745,9.05686 0.1675,0.23356 4.81141,0.0328 v 4.52843 l 0.15706,0.26638 0.0927,4.89364 h 4.52843 l 0.16754,0.16755 0.0988,4.62115 h 4.79481 l 0.26638,0.15705 4.56124,0.0166 v 4.79481 l 0.23357,0.16749 9.72751,0.0989 v 4.52843 l 0.12849,0.059 9.58962,0.0896 0.79914,0.0478 h 3.3976 v 0"
       style="fill:none;stroke:#800080;stroke-width:3"
       id="path1440" />
  </g>
  <g
     id="LineCollection_3">
    <path
       clip-path="url(#pd8c706cd0f)"
       d="m 157.38485,181.93192 0.0603,7.24153 H 162.24 l 0.009,1.73682 0.0554,13.05254 0.0874,0.53276 v 4.26205 l 0.11476,0.23191 4.53687,0.0345 0.0466,9.58962 0.14613,0.26638 0.0652,4.88029 h 4.79481 l 0.077,0.44728 v 4.26205 l 0.18939,0.21965 4.56609,0.0467 v 4.79481 l 0.22872,0.22872 4.84154,0.0377 v 4.52843 l 0.21965,0.18939 4.70933,0.077 0.0855,4.85999 h 4.79481 l 0.26638,0.14613 9.62409,0.0551 v 4.52843 l 0.23191,0.11475 9.58962,0.0874 1.06551,0.0348 8.92904,0.0294 v 4.79481 l 0.66058,0.0249 33.95789,-0.0249 V 248.448 l 1.73682,-0.009 12.78616,-0.0554 0.53276,-0.0874 h 4.52843 l 0.2319,-0.11475 0.0345,-4.53687 9.58962,-0.0466 0.26638,-0.14613 4.61391,-0.0652 V 238.592 l 0.44728,-0.077 h 4.52843 l 0.21965,-0.18939 0.0467,-4.56609 h 4.52843 l 0.22872,-0.22872 0.0377,-4.84154 h 4.79481 l 0.18939,-0.21965 0.077,-4.70933 4.59361,-0.0855 V 218.88 l 0.14613,-0.26638 0.0551,-9.62409 h 4.79481 l 0.11475,-0.23191 0.0874,-9.58962 0.0348,-1.06551 0.0294,-8.92904 h 4.52843 l 0.0249,-0.66059 -0.0249,-33.95788 h -4.52843 l -0.009,-1.73682 -0.0554,-12.78616 -0.0874,-0.53276 v -4.52843 l -0.11475,-0.23191 -4.80325,-0.0345 -0.0466,-9.58962 -0.14613,-0.26638 -0.0652,-4.61391 h -4.52843 l -0.077,-0.44728 v -4.52843 l -0.18939,-0.21965 -4.83247,-0.0467 V 110.464 l -0.22872,-0.22872 -4.57516,-0.0377 v -4.79481 l -0.21965,-0.18939 -4.97571,-0.077 -0.0855,-4.59361 h -4.52843 l -0.26638,-0.14613 -9.6241,-0.0551 v -4.794809 l -0.2319,-0.114754 -9.58962,-0.08738 -1.06552,-0.03479 -8.92903,-0.02945 V 90.752 L 255.47248,90.72709 221.5146,90.752 v 4.528432 l -1.73682,0.0089 -13.05254,0.05537 -0.53276,0.08738 h -4.26205 l -0.23191,0.114754 -0.0345,4.803244 -9.58962,0.0466 -0.26638,0.14613 -4.88029,0.0652 v 4.52843 l -0.44728,0.077 h -4.26205 l -0.21965,0.18939 -0.0467,4.83247 h -4.79481 l -0.22872,0.22872 -0.0377,4.57516 h -4.52843 l -0.18939,0.21965 -0.077,4.97571 -4.85999,0.0855 v 4.52843 l -0.14613,0.26638 -0.0551,9.62409 h -4.52843 l -0.11476,0.23191 -0.0874,9.58962 -0.0348,1.06552 -0.0294,8.92903 h -4.79481 l -0.0249,0.66059 v 1.52366 0"
       style="fill:none;stroke:#8b008b;stroke-width:3"
       id="path1443" />
  </g>
  <g
     id="LineCollection_4">
    <path
       clip-path="url(#pd8c706cd0f)"
       d="m 245.94859,268.10393 19.9126,-0.1099 0.79913,-0.0492 4.24108,-0.0512 0.021,-4.53004 14.65081,-0.0462 0.53276,-0.0695 h 4.26205 l 0.26638,-0.13926 4.81523,-0.01 V 258.304 l 0.77871,-0.0411 h 3.99568 l 0.53276,-0.11128 h 4.52843 l 0.15198,-0.11399 v -4.52843 l 0.38078,-0.0513 H 310.08 l 0.2544,-0.2151 0.012,-4.80518 h 4.79481 l 0.25601,-0.25601 0.0104,-4.54041 h 4.52843 l 0.2151,-0.2544 0.0513,-4.90921 h 4.79481 l 0.11398,-0.15198 v -4.52843 l 0.11128,-0.53276 0.0411,-4.77439 4.53828,-0.0204 v -4.52843 l 0.13926,-0.26638 0.0961,-14.65081 0.0195,-1.59827 0.002,-3.21752 h 4.79481 l 0.0512,-0.77816 0.0939,-14.11805 0.0343,-1.06551 -0.079,-43.41968 -0.0492,-0.79913 -0.0512,-4.24108 -4.79643,-0.021 -0.0462,-14.65081 -0.0695,-0.53276 V 120.32 l -0.13926,-0.26638 -0.01,-4.81523 h -4.52843 l -0.0411,-0.77871 V 110.464 l -0.11128,-0.53276 v -4.52843 l -0.11398,-0.15198 h -4.79481 l -0.0513,-0.38078 V 100.608 l -0.2151,-0.2544 -4.5388,-0.012 v -4.794809 l -0.25601,-0.25601 -4.80679,-0.01037 V 90.752 l -0.2544,-0.2151 -4.64283,-0.05128 v -4.794811 l -0.15198,-0.113986 h -4.79481 l -0.53276,-0.111279 -4.50801,-0.04111 -0.0204,-4.538285 h -4.79481 l -0.26638,-0.139259 -14.38443,-0.09614 -1.59827,-0.01951 -3.4839,-0.0016 v -4.794811 l -0.77816,-0.0512 -13.85167,-0.09391 -1.06552,-0.03429 -43.41967,0.079 -0.79914,0.04921 -4.50745,0.0512 -0.021,4.796424 -14.38443,0.04619 -0.53276,0.06946 h -4.52843 l -0.26638,0.139259 -4.54885,0.0099 v 4.528432 l -0.77872,0.04111 h -4.26205 l -0.53276,0.111279 h -4.26205 l -0.15198,0.113986 v 4.794811 l -0.38078,0.05128 h -4.52843 l -0.2544,0.2151 -0.012,4.538801 h -4.52843 l -0.25601,0.25601 -0.0104,4.806789 h -4.79481 l -0.2151,0.2544 -0.0513,4.64283 h -4.52843 l -0.11399,0.15198 v 4.79481 l -0.11128,0.53276 -0.0411,4.50801 -4.80466,0.0204 v 4.79481 l -0.13926,0.26638 -0.0961,14.38443 -0.0195,1.59827 -0.002,3.4839 h -4.52843 l -0.0512,0.77816 -0.0939,13.85167 -0.0343,1.06552 0.079,43.41967 0.0492,0.79914 0.0512,4.50745 4.53004,0.021 0.0462,14.38443 0.0695,0.53276 v 4.52843 l 0.13926,0.26638 0.01,4.54885 h 4.79481 l 0.0411,0.77872 v 4.26205 l 0.11128,0.53276 v 4.26205 l 0.11399,0.15198 h 4.52843 l 0.0513,0.38078 v 4.52843 l 0.2151,0.2544 4.80518,0.012 v 4.52843 l 0.25601,0.25601 4.54041,0.0104 v 4.79481 l 0.2544,0.2151 4.90921,0.0513 v 4.52843 l 0.15198,0.11399 h 4.52843 l 0.53276,0.11128 4.77439,0.0411 0.0204,4.80466 h 4.52843 l 0.26638,0.13926 14.65081,0.0961 1.59827,0.0195 3.21752,0.002 v 4.52843 l 0.77816,0.0512 14.11805,0.0939 1.06551,0.0343 4.72914,0.0207 v 0"
       style="fill:none;stroke:#bf00bf;stroke-width:3"
       id="path1446" />
  </g>
  <g
     id="patch_3">
    <path
       d="M 103.104,307.584 V 41.472"
       style="fill:none;stroke:#000000;stroke-width:0.8;stroke-linecap:square;stroke-linejoin:miter"
       id="path1449" />
  </g>
  <g
     id="patch_4">
    <path
       d="M 369.216,307.584 V 41.472"
       style="fill:none;stroke:#000000;stroke-width:0.8;stroke-linecap:square;stroke-linejoin:miter"
       id="path1452" />
  </g>
  <g
     id="patch_5">
    <path
       d="M 103.104,307.584 H 369.216"
       style="fill:none;stroke:#000000;stroke-width:0.8;stroke-linecap:square;stroke-linejoin:miter"
       id="path1455" />
  </g>
  <g
     id="patch_6">
    <path
       d="M 103.104,41.472 H 369.216"
       style="fill:none;stroke:#000000;stroke-width:0.8;stroke-linecap:square;stroke-linejoin:miter"
       id="path1458" />
  </g>
  <g
     id="text_13">
    <g
       clip-path="url(#pd8c706cd0f)"
       id="g1465">
      <!-- 0 -->
      <g
         style="fill:#4b0082"
         transform="matrix(0.09571659,0.028954,0.028954,-0.09571659,223.65877,186.18399)"
         id="g1463">
        <path
           d="m 31.78125,3.421875 q 7.484375,0 11.1875,8.203125 3.71875,8.203125 3.71875,24.75 0,16.609375 -3.71875,24.8125 -3.703125,8.203125 -11.1875,8.203125 -7.46875,0 -11.1875,-8.203125 -3.703125,-8.203125 -3.703125,-24.8125 0,-16.546875 3.703125,-24.75 3.71875,-8.203125 11.1875,-8.203125 z m 0,-4.84375 Q 19.921875,-1.421875 13.25,8.53125 6.59375,18.5 6.59375,36.375 q 0,17.921875 6.65625,27.875 6.671875,9.96875 18.53125,9.96875 11.921875,0 18.5625,-9.96875 6.640625,-9.953125 6.640625,-27.875 0,-17.875 -6.640625,-27.84375 -6.640625,-9.953125 -18.5625,-9.953125 z"
           id="use1461" />
      </g>
    </g>
  </g>
  <g
     id="text_14">
    <g
       clip-path="url(#pd8c706cd0f)"
       id="g1476">
      <!-- 100 -->
      <g
         style="fill:#800080"
         transform="matrix(0.09999994,-1.1364185e-4,-1.1364185e-4,-0.09999994,230.2155,231.46242)"
         id="g1474">
        <path
           d="M 14.203125,0 V 5.171875 H 26.90625 v 60.65625 l -14.703125,-9.53125 v 6.40625 L 29.984375,74.21875 H 36.71875 V 5.171875 H 49.421875 V 0 Z"
           id="use1468" />
        <path
           d="m 95.404297,3.421875 q 7.484373,0 11.187503,8.203125 3.71875,8.203125 3.71875,24.75 0,16.609375 -3.71875,24.8125 -3.70313,8.203125 -11.187503,8.203125 -7.46875,0 -11.1875,-8.203125 -3.703125,-8.203125 -3.703125,-24.8125 0,-16.546875 3.703125,-24.75 3.71875,-8.203125 11.1875,-8.203125 z m 0,-4.84375 q -11.859375,0 -18.53125,9.953125 -6.65625,9.96875 -6.65625,27.84375 0,17.921875 6.65625,27.875 6.671875,9.96875 18.53125,9.96875 11.921873,0 18.562503,-9.96875 6.64062,-9.953125 6.64062,-27.875 0,-17.875 -6.64062,-27.84375 -6.64063,-9.953125 -18.562503,-9.953125 z"
           id="use1470" />
        <path
           d="m 159.02734,3.421875 q 7.48438,0 11.1875,8.203125 3.71875,8.203125 3.71875,24.75 0,16.609375 -3.71875,24.8125 -3.70312,8.203125 -11.1875,8.203125 -7.46875,0 -11.1875,-8.203125 -3.70312,-8.203125 -3.70312,-24.8125 0,-16.546875 3.70312,-24.75 3.71875,-8.203125 11.1875,-8.203125 z m 0,-4.84375 q -11.85937,0 -18.53125,9.953125 -6.65625,9.96875 -6.65625,27.84375 0,17.921875 6.65625,27.875 6.67188,9.96875 18.53125,9.96875 11.92188,0 18.5625,-9.96875 6.64063,-9.953125 6.64063,-27.875 0,-17.875 -6.64063,-27.84375 -6.64062,-9.953125 -18.5625,-9.953125 z"
           id="use1472" />
      </g>
    </g>
  </g>
  <g
     id="text_15">
    <g
       clip-path="url(#pd8c706cd0f)"
       id="g1487">
      <!-- 200 -->
      <g
         style="fill:#8b008b"
         transform="matrix(1.5188198e-4,-0.09999988,-0.09999988,-1.5188198e-4,160.10936,178.88155)"
         id="g1485">
        <path
           d="M 12.796875,55.515625 H 7.328125 V 68.5 q 5.21875,2.796875 10.515625,4.25 5.296875,1.46875 10.375,1.46875 11.375,0 17.96875,-5.515625 6.59375,-5.515625 6.59375,-14.984375 0,-10.703125 -14.9375,-25.59375 Q 36.671875,27 36.078125,26.421875 L 17.671875,8.015625 H 48.09375 V 17 H 53.8125 V 0 H 6.78125 v 5.328125 l 22.125,22.0625 q 7.328125,7.328125 10.453125,13.453125 3.125,6.125 3.125,12.875 0,7.359375 -3.84375,11.515625 -3.828125,4.15625 -10.5625,4.15625 -6.984375,0 -10.796875,-3.46875 -3.796875,-3.46875 -4.484375,-10.40625 z"
           id="use1479" />
        <path
           d="m 95.404297,3.421875 q 7.484373,0 11.187503,8.203125 3.71875,8.203125 3.71875,24.75 0,16.609375 -3.71875,24.8125 -3.70313,8.203125 -11.187503,8.203125 -7.46875,0 -11.1875,-8.203125 -3.703125,-8.203125 -3.703125,-24.8125 0,-16.546875 3.703125,-24.75 3.71875,-8.203125 11.1875,-8.203125 z m 0,-4.84375 q -11.859375,0 -18.53125,9.953125 -6.65625,9.96875 -6.65625,27.84375 0,17.921875 6.65625,27.875 6.671875,9.96875 18.53125,9.96875 11.921873,0 18.562503,-9.96875 6.64062,-9.953125 6.64062,-27.875 0,-17.875 -6.64062,-27.84375 -6.64063,-9.953125 -18.562503,-9.953125 z"
           id="use1481" />
        <path
           d="m 159.02734,3.421875 q 7.48438,0 11.1875,8.203125 3.71875,8.203125 3.71875,24.75 0,16.609375 -3.71875,24.8125 -3.70312,8.203125 -11.1875,8.203125 -7.46875,0 -11.1875,-8.203125 -3.70312,-8.203125 -3.70312,-24.8125 0,-16.546875 3.70312,-24.75 3.71875,-8.203125 11.1875,-8.203125 z m 0,-4.84375 q -11.85937,0 -18.53125,9.953125 -6.65625,9.96875 -6.65625,27.84375 0,17.921875 6.65625,27.875 6.67188,9.96875 18.53125,9.96875 11.92188,0 18.5625,-9.96875 6.64063,-9.953125 6.64063,-27.875 0,-17.875 -6.64063,-27.84375 -6.64062,-9.953125 -18.5625,-9.953125 z"
           id="use1483" />
      </g>
    </g>
  </g>
  <g
     id="text_16">
    <g
       clip-path="url(#pd8c706cd0f)"
       id="g1498">
      <!-- 300 -->
      <g
         style="fill:#bf00bf"
         transform="matrix(0.09999998,5.6939618e-5,5.6939618e-5,-0.09999998,227.01425,270.86095)"
         id="g1496">
        <path
           d="m 9.71875,69.828125 q 5.71875,2.140625 10.953125,3.265625 5.25,1.125 9.84375,1.125 10.703125,0 16.703125,-4.625 6,-4.609375 6,-12.8125 0,-6.578125 -4.15625,-11 -4.140625,-4.421875 -11.75,-5.984375 8.984375,-1.265625 13.9375,-6.515625 4.953125,-5.25 4.953125,-13.609375 0,-10.203125 -6.859375,-15.65625 -6.859375,-5.4375 -19.75,-5.4375 -5.71875,0 -11.171875,1.234375 Q 12.984375,1.03125 7.625,3.515625 v 14.15625 h 5.46875 q 0.484375,-7.03125 4.734375,-10.640625 4.25,-3.609375 11.953125,-3.609375 7.46875,0 11.796875,4.3125 4.328125,4.328125 4.328125,11.84375 0,8.59375 -4.453125,13.015625 -4.4375,4.421875 -13.03125,4.421875 H 23.78125 V 42 h 2.4375 q 8.546875,0 12.8125,3.53125 4.28125,3.546875 4.28125,10.671875 0,6.390625 -3.515625,9.78125 -3.515625,3.40625 -10.109375,3.40625 -6.59375,0 -10.234375,-3.125 -3.625,-3.125 -4.265625,-9.28125 H 9.71875 Z"
           id="use1490" />
        <path
           d="m 95.404297,3.421875 q 7.484373,0 11.187503,8.203125 3.71875,8.203125 3.71875,24.75 0,16.609375 -3.71875,24.8125 -3.70313,8.203125 -11.187503,8.203125 -7.46875,0 -11.1875,-8.203125 -3.703125,-8.203125 -3.703125,-24.8125 0,-16.546875 3.703125,-24.75 3.71875,-8.203125 11.1875,-8.203125 z m 0,-4.84375 q -11.859375,0 -18.53125,9.953125 -6.65625,9.96875 -6.65625,27.84375 0,17.921875 6.65625,27.875 6.671875,9.96875 18.53125,9.96875 11.921873,0 18.562503,-9.96875 6.64062,-9.953125 6.64062,-27.875 0,-17.875 -6.64062,-27.84375 -6.64063,-9.953125 -18.562503,-9.953125 z"
           id="use1492" />
        <path
           d="m 159.02734,3.421875 q 7.48438,0 11.1875,8.203125 3.71875,8.203125 3.71875,24.75 0,16.609375 -3.71875,24.8125 -3.70312,8.203125 -11.1875,8.203125 -7.46875,0 -11.1875,-8.203125 -3.70312,-8.203125 -3.70312,-24.8125 0,-16.546875 3.70312,-24.75 3.71875,-8.203125 11.1875,-8.203125 z m 0,-4.84375 q -11.85937,0 -18.53125,9.953125 -6.65625,9.96875 -6.65625,27.84375 0,17.921875 6.65625,27.875 6.67188,9.96875 18.53125,9.96875 11.92188,0 18.5625,-9.96875 6.64063,-9.953125 6.64063,-27.875 0,-17.875 -6.64063,-27.84375 -6.64062,-9.953125 -18.5625,-9.953125 z"
           id="use1494" />
      </g>
    </g>
  </g>
  <defs
     id="defs1506">
    <clipPath
       id="pd8c706cd0f">
      <rect
         height="266.112"
         width="266.112"
         x="103.104"
         y="41.472"
         id="rect1503" />
    </clipPath>
  </defs>
</svg>
