<?xml version="1.0" encoding="utf-8" standalone="no"?>
<!DOCTYPE svg PUBLIC "-//W3C//DTD SVG 1.1//EN"
  "http://www.w3.org/Graphics/SVG/1.1/DTD/svg11.dtd">
<!-- Created with matplotlib (https://matplotlib.org/) -->
<svg height="345.6pt" version="1.1" viewBox="0 0 460.8 345.6" width="460.8pt" xmlns="http://www.w3.org/2000/svg" xmlns:xlink="http://www.w3.org/1999/xlink">
 <metadata>
  <rdf:RDF xmlns:cc="http://creativecommons.org/ns#" xmlns:dc="http://purl.org/dc/elements/1.1/" xmlns:rdf="http://www.w3.org/1999/02/22-rdf-syntax-ns#">
   <cc:Work>
    <dc:type rdf:resource="http://purl.org/dc/dcmitype/StillImage"/>
    <dc:date>2022-08-29T00:41:33.746379</dc:date>
    <dc:format>image/svg+xml</dc:format>
    <dc:creator>
     <cc:Agent>
      <dc:title>Matplotlib v3.3.4, https://matplotlib.org/</dc:title>
     </cc:Agent>
    </dc:creator>
   </cc:Work>
  </rdf:RDF>
 </metadata>
 <defs>
  <style type="text/css">*{stroke-linecap:butt;stroke-linejoin:round;}</style>
 </defs>
 <g id="figure_1">
  <g id="patch_1">
   <path d="M 0 345.6 
L 460.8 345.6 
L 460.8 0 
L 0 0 
z
" style="fill:#ffffff;"/>
  </g>
  <g id="axes_1">
   <g id="patch_2">
    <path d="M 57.6 307.584 
L 414.72 307.584 
L 414.72 41.472 
L 57.6 41.472 
z
" style="fill:#ffffff;"/>
   </g>
   <g id="matplotlib.axis_1">
    <g id="xtick_1">
     <g id="line2d_1">
      <path clip-path="url(#ped460b2a15)" d="M 70.966924 307.584 
L 70.966924 41.472 
" style="fill:none;stroke:#b0b0b0;stroke-linecap:square;stroke-width:0.8;"/>
     </g>
     <g id="line2d_2">
      <defs>
       <path d="M 0 0 
L 0 3.5 
" id="me305216fe8" style="stroke:#000000;stroke-width:0.8;"/>
      </defs>
      <g>
       <use style="stroke:#000000;stroke-width:0.8;" x="70.966924" xlink:href="#me305216fe8" y="307.584"/>
      </g>
     </g>
     <g id="text_1">
      <!-- 0 -->
      <g transform="translate(67.785674 322.182437)scale(0.1 -0.1)">
       <defs>
        <path d="M 31.78125 3.421875 
Q 39.265625 3.421875 42.96875 11.625 
Q 46.6875 19.828125 46.6875 36.375 
Q 46.6875 52.984375 42.96875 61.1875 
Q 39.265625 69.390625 31.78125 69.390625 
Q 24.3125 69.390625 20.59375 61.1875 
Q 16.890625 52.984375 16.890625 36.375 
Q 16.890625 19.828125 20.59375 11.625 
Q 24.3125 3.421875 31.78125 3.421875 
z
M 31.78125 -1.421875 
Q 19.921875 -1.421875 13.25 8.53125 
Q 6.59375 18.5 6.59375 36.375 
Q 6.59375 54.296875 13.25 64.25 
Q 19.921875 74.21875 31.78125 74.21875 
Q 43.703125 74.21875 50.34375 64.25 
Q 56.984375 54.296875 56.984375 36.375 
Q 56.984375 18.5 50.34375 8.53125 
Q 43.703125 -1.421875 31.78125 -1.421875 
z
" id="DejaVuSerif-48"/>
       </defs>
       <use xlink:href="#DejaVuSerif-48"/>
      </g>
     </g>
    </g>
    <g id="xtick_2">
     <g id="line2d_3">
      <path clip-path="url(#ped460b2a15)" d="M 111.906968 307.584 
L 111.906968 41.472 
" style="fill:none;stroke:#b0b0b0;stroke-linecap:square;stroke-width:0.8;"/>
     </g>
     <g id="line2d_4">
      <g>
       <use style="stroke:#000000;stroke-width:0.8;" x="111.906968" xlink:href="#me305216fe8" y="307.584"/>
      </g>
     </g>
     <g id="text_2">
      <!-- 50 -->
      <g transform="translate(105.544468 322.182437)scale(0.1 -0.1)">
       <defs>
        <path d="M 50.296875 72.90625 
L 50.296875 64.890625 
L 16.890625 64.890625 
L 16.890625 44 
Q 19.4375 45.75 22.828125 46.625 
Q 26.21875 47.515625 30.421875 47.515625 
Q 42.234375 47.515625 49.0625 40.96875 
Q 55.90625 34.421875 55.90625 23.09375 
Q 55.90625 11.53125 49 5.046875 
Q 42.09375 -1.421875 29.59375 -1.421875 
Q 24.5625 -1.421875 19.28125 -0.1875 
Q 14.015625 1.03125 8.5 3.515625 
L 8.5 17.671875 
L 14.015625 17.671875 
Q 14.453125 10.75 18.421875 7.078125 
Q 22.40625 3.421875 29.59375 3.421875 
Q 37.3125 3.421875 41.453125 8.5 
Q 45.609375 13.578125 45.609375 23.09375 
Q 45.609375 32.5625 41.484375 37.609375 
Q 37.359375 42.671875 29.59375 42.671875 
Q 25.203125 42.671875 21.84375 41.109375 
Q 18.5 39.546875 15.921875 36.28125 
L 11.71875 36.28125 
L 11.71875 72.90625 
z
" id="DejaVuSerif-53"/>
       </defs>
       <use xlink:href="#DejaVuSerif-53"/>
       <use x="63.623047" xlink:href="#DejaVuSerif-48"/>
      </g>
     </g>
    </g>
    <g id="xtick_3">
     <g id="line2d_5">
      <path clip-path="url(#ped460b2a15)" d="M 152.847011 307.584 
L 152.847011 41.472 
" style="fill:none;stroke:#b0b0b0;stroke-linecap:square;stroke-width:0.8;"/>
     </g>
     <g id="line2d_6">
      <g>
       <use style="stroke:#000000;stroke-width:0.8;" x="152.847011" xlink:href="#me305216fe8" y="307.584"/>
      </g>
     </g>
     <g id="text_3">
      <!-- 100 -->
      <g transform="translate(143.303261 322.182437)scale(0.1 -0.1)">
       <defs>
        <path d="M 14.203125 0 
L 14.203125 5.171875 
L 26.90625 5.171875 
L 26.90625 65.828125 
L 12.203125 56.296875 
L 12.203125 62.703125 
L 29.984375 74.21875 
L 36.71875 74.21875 
L 36.71875 5.171875 
L 49.421875 5.171875 
L 49.421875 0 
z
" id="DejaVuSerif-49"/>
       </defs>
       <use xlink:href="#DejaVuSerif-49"/>
       <use x="63.623047" xlink:href="#DejaVuSerif-48"/>
       <use x="127.246094" xlink:href="#DejaVuSerif-48"/>
      </g>
     </g>
    </g>
    <g id="xtick_4">
     <g id="line2d_7">
      <path clip-path="url(#ped460b2a15)" d="M 193.787055 307.584 
L 193.787055 41.472 
" style="fill:none;stroke:#b0b0b0;stroke-linecap:square;stroke-width:0.8;"/>
     </g>
     <g id="line2d_8">
      <g>
       <use style="stroke:#000000;stroke-width:0.8;" x="193.787055" xlink:href="#me305216fe8" y="307.584"/>
      </g>
     </g>
     <g id="text_4">
      <!-- 150 -->
      <g transform="translate(184.243305 322.182437)scale(0.1 -0.1)">
       <use xlink:href="#DejaVuSerif-49"/>
       <use x="63.623047" xlink:href="#DejaVuSerif-53"/>
       <use x="127.246094" xlink:href="#DejaVuSerif-48"/>
      </g>
     </g>
    </g>
    <g id="xtick_5">
     <g id="line2d_9">
      <path clip-path="url(#ped460b2a15)" d="M 234.727098 307.584 
L 234.727098 41.472 
" style="fill:none;stroke:#b0b0b0;stroke-linecap:square;stroke-width:0.8;"/>
     </g>
     <g id="line2d_10">
      <g>
       <use style="stroke:#000000;stroke-width:0.8;" x="234.727098" xlink:href="#me305216fe8" y="307.584"/>
      </g>
     </g>
     <g id="text_5">
      <!-- 200 -->
      <g transform="translate(225.183348 322.182437)scale(0.1 -0.1)">
       <defs>
        <path d="M 12.796875 55.515625 
L 7.328125 55.515625 
L 7.328125 68.5 
Q 12.546875 71.296875 17.84375 72.75 
Q 23.140625 74.21875 28.21875 74.21875 
Q 39.59375 74.21875 46.1875 68.703125 
Q 52.78125 63.1875 52.78125 53.71875 
Q 52.78125 43.015625 37.84375 28.125 
Q 36.671875 27 36.078125 26.421875 
L 17.671875 8.015625 
L 48.09375 8.015625 
L 48.09375 17 
L 53.8125 17 
L 53.8125 0 
L 6.78125 0 
L 6.78125 5.328125 
L 28.90625 27.390625 
Q 36.234375 34.71875 39.359375 40.84375 
Q 42.484375 46.96875 42.484375 53.71875 
Q 42.484375 61.078125 38.640625 65.234375 
Q 34.8125 69.390625 28.078125 69.390625 
Q 21.09375 69.390625 17.28125 65.921875 
Q 13.484375 62.453125 12.796875 55.515625 
z
" id="DejaVuSerif-50"/>
       </defs>
       <use xlink:href="#DejaVuSerif-50"/>
       <use x="63.623047" xlink:href="#DejaVuSerif-48"/>
       <use x="127.246094" xlink:href="#DejaVuSerif-48"/>
      </g>
     </g>
    </g>
    <g id="xtick_6">
     <g id="line2d_11">
      <path clip-path="url(#ped460b2a15)" d="M 275.667142 307.584 
L 275.667142 41.472 
" style="fill:none;stroke:#b0b0b0;stroke-linecap:square;stroke-width:0.8;"/>
     </g>
     <g id="line2d_12">
      <g>
       <use style="stroke:#000000;stroke-width:0.8;" x="275.667142" xlink:href="#me305216fe8" y="307.584"/>
      </g>
     </g>
     <g id="text_6">
      <!-- 250 -->
      <g transform="translate(266.123392 322.182437)scale(0.1 -0.1)">
       <use xlink:href="#DejaVuSerif-50"/>
       <use x="63.623047" xlink:href="#DejaVuSerif-53"/>
       <use x="127.246094" xlink:href="#DejaVuSerif-48"/>
      </g>
     </g>
    </g>
    <g id="xtick_7">
     <g id="line2d_13">
      <path clip-path="url(#ped460b2a15)" d="M 316.607186 307.584 
L 316.607186 41.472 
" style="fill:none;stroke:#b0b0b0;stroke-linecap:square;stroke-width:0.8;"/>
     </g>
     <g id="line2d_14">
      <g>
       <use style="stroke:#000000;stroke-width:0.8;" x="316.607186" xlink:href="#me305216fe8" y="307.584"/>
      </g>
     </g>
     <g id="text_7">
      <!-- 300 -->
      <g transform="translate(307.063436 322.182437)scale(0.1 -0.1)">
       <defs>
        <path d="M 9.71875 69.828125 
Q 15.4375 71.96875 20.671875 73.09375 
Q 25.921875 74.21875 30.515625 74.21875 
Q 41.21875 74.21875 47.21875 69.59375 
Q 53.21875 64.984375 53.21875 56.78125 
Q 53.21875 50.203125 49.0625 45.78125 
Q 44.921875 41.359375 37.3125 39.796875 
Q 46.296875 38.53125 51.25 33.28125 
Q 56.203125 28.03125 56.203125 19.671875 
Q 56.203125 9.46875 49.34375 4.015625 
Q 42.484375 -1.421875 29.59375 -1.421875 
Q 23.875 -1.421875 18.421875 -0.1875 
Q 12.984375 1.03125 7.625 3.515625 
L 7.625 17.671875 
L 13.09375 17.671875 
Q 13.578125 10.640625 17.828125 7.03125 
Q 22.078125 3.421875 29.78125 3.421875 
Q 37.25 3.421875 41.578125 7.734375 
Q 45.90625 12.0625 45.90625 19.578125 
Q 45.90625 28.171875 41.453125 32.59375 
Q 37.015625 37.015625 28.421875 37.015625 
L 23.78125 37.015625 
L 23.78125 42 
L 26.21875 42 
Q 34.765625 42 39.03125 45.53125 
Q 43.3125 49.078125 43.3125 56.203125 
Q 43.3125 62.59375 39.796875 65.984375 
Q 36.28125 69.390625 29.6875 69.390625 
Q 23.09375 69.390625 19.453125 66.265625 
Q 15.828125 63.140625 15.1875 56.984375 
L 9.71875 56.984375 
z
" id="DejaVuSerif-51"/>
       </defs>
       <use xlink:href="#DejaVuSerif-51"/>
       <use x="63.623047" xlink:href="#DejaVuSerif-48"/>
       <use x="127.246094" xlink:href="#DejaVuSerif-48"/>
      </g>
     </g>
    </g>
    <g id="xtick_8">
     <g id="line2d_15">
      <path clip-path="url(#ped460b2a15)" d="M 357.547229 307.584 
L 357.547229 41.472 
" style="fill:none;stroke:#b0b0b0;stroke-linecap:square;stroke-width:0.8;"/>
     </g>
     <g id="line2d_16">
      <g>
       <use style="stroke:#000000;stroke-width:0.8;" x="357.547229" xlink:href="#me305216fe8" y="307.584"/>
      </g>
     </g>
     <g id="text_8">
      <!-- 350 -->
      <g transform="translate(348.003479 322.182437)scale(0.1 -0.1)">
       <use xlink:href="#DejaVuSerif-51"/>
       <use x="63.623047" xlink:href="#DejaVuSerif-53"/>
       <use x="127.246094" xlink:href="#DejaVuSerif-48"/>
      </g>
     </g>
    </g>
    <g id="xtick_9">
     <g id="line2d_17">
      <path clip-path="url(#ped460b2a15)" d="M 398.487273 307.584 
L 398.487273 41.472 
" style="fill:none;stroke:#b0b0b0;stroke-linecap:square;stroke-width:0.8;"/>
     </g>
     <g id="line2d_18">
      <g>
       <use style="stroke:#000000;stroke-width:0.8;" x="398.487273" xlink:href="#me305216fe8" y="307.584"/>
      </g>
     </g>
     <g id="text_9">
      <!-- 400 -->
      <g transform="translate(388.943523 322.182437)scale(0.1 -0.1)">
       <defs>
        <path d="M 34.90625 24.703125 
L 34.90625 63.484375 
L 10.015625 24.703125 
z
M 56.390625 0 
L 23.1875 0 
L 23.1875 5.171875 
L 34.90625 5.171875 
L 34.90625 19.484375 
L 3.078125 19.484375 
L 3.078125 24.8125 
L 35.015625 74.21875 
L 44.671875 74.21875 
L 44.671875 24.703125 
L 58.59375 24.703125 
L 58.59375 19.484375 
L 44.671875 19.484375 
L 44.671875 5.171875 
L 56.390625 5.171875 
z
" id="DejaVuSerif-52"/>
       </defs>
       <use xlink:href="#DejaVuSerif-52"/>
       <use x="63.623047" xlink:href="#DejaVuSerif-48"/>
       <use x="127.246094" xlink:href="#DejaVuSerif-48"/>
      </g>
     </g>
    </g>
    <g id="text_10">
     <!-- Time -->
     <g transform="translate(214.680234 341.179469)scale(0.17 -0.17)">
      <defs>
       <path d="M 19.09375 0 
L 19.09375 5.171875 
L 28.421875 5.171875 
L 28.421875 67.09375 
L 6.984375 67.09375 
L 6.984375 55.71875 
L 0.984375 55.71875 
L 0.984375 72.90625 
L 65.71875 72.90625 
L 65.71875 55.71875 
L 59.71875 55.71875 
L 59.71875 67.09375 
L 38.28125 67.09375 
L 38.28125 5.171875 
L 47.609375 5.171875 
L 47.609375 0 
z
" id="DejaVuSerif-84"/>
       <path d="M 9.71875 68.015625 
Q 9.71875 70.265625 11.34375 71.921875 
Q 12.984375 73.578125 15.28125 73.578125 
Q 17.53125 73.578125 19.15625 71.921875 
Q 20.796875 70.265625 20.796875 68.015625 
Q 20.796875 65.71875 19.1875 64.109375 
Q 17.578125 62.5 15.28125 62.5 
Q 12.984375 62.5 11.34375 64.109375 
Q 9.71875 65.71875 9.71875 68.015625 
z
M 21.1875 5.171875 
L 29.6875 5.171875 
L 29.6875 0 
L 3.609375 0 
L 3.609375 5.171875 
L 12.203125 5.171875 
L 12.203125 46.6875 
L 3.609375 46.6875 
L 3.609375 51.90625 
L 21.1875 51.90625 
z
" id="DejaVuSerif-105"/>
       <path d="M 51.8125 41.796875 
Q 54.390625 47.515625 58.421875 50.421875 
Q 62.453125 53.328125 67.828125 53.328125 
Q 75.984375 53.328125 79.984375 48.265625 
Q 83.984375 43.21875 83.984375 33.015625 
L 83.984375 5.171875 
L 92.09375 5.171875 
L 92.09375 0 
L 67.1875 0 
L 67.1875 5.171875 
L 75 5.171875 
L 75 31.984375 
Q 75 39.9375 72.65625 43.3125 
Q 70.3125 46.6875 64.890625 46.6875 
Q 58.890625 46.6875 55.734375 42.140625 
Q 52.59375 37.59375 52.59375 28.90625 
L 52.59375 5.171875 
L 60.40625 5.171875 
L 60.40625 0 
L 35.796875 0 
L 35.796875 5.171875 
L 43.609375 5.171875 
L 43.609375 32.328125 
Q 43.609375 40.09375 41.265625 43.390625 
Q 38.921875 46.6875 33.5 46.6875 
Q 27.484375 46.6875 24.328125 42.140625 
Q 21.1875 37.59375 21.1875 28.90625 
L 21.1875 5.171875 
L 29 5.171875 
L 29 0 
L 4.109375 0 
L 4.109375 5.171875 
L 12.203125 5.171875 
L 12.203125 46.78125 
L 3.609375 46.78125 
L 3.609375 51.90625 
L 21.1875 51.90625 
L 21.1875 42.671875 
Q 23.6875 47.859375 27.53125 50.59375 
Q 31.390625 53.328125 36.28125 53.328125 
Q 42.328125 53.328125 46.375 50.3125 
Q 50.4375 47.3125 51.8125 41.796875 
z
" id="DejaVuSerif-109"/>
       <path d="M 54.203125 25 
L 15.484375 25 
L 15.484375 24.609375 
Q 15.484375 14.109375 19.4375 8.765625 
Q 23.390625 3.421875 31.109375 3.421875 
Q 37.015625 3.421875 40.796875 6.515625 
Q 44.578125 9.625 46.09375 15.71875 
L 53.328125 15.71875 
Q 51.171875 7.171875 45.375 2.875 
Q 39.59375 -1.421875 30.171875 -1.421875 
Q 18.796875 -1.421875 11.890625 6.078125 
Q 4.984375 13.578125 4.984375 25.984375 
Q 4.984375 38.28125 11.765625 45.796875 
Q 18.5625 53.328125 29.59375 53.328125 
Q 41.359375 53.328125 47.65625 46.0625 
Q 53.953125 38.8125 54.203125 25 
z
M 43.609375 30.171875 
Q 43.3125 39.265625 39.765625 43.875 
Q 36.234375 48.484375 29.59375 48.484375 
Q 23.390625 48.484375 19.828125 43.84375 
Q 16.265625 39.203125 15.484375 30.171875 
z
" id="DejaVuSerif-101"/>
      </defs>
      <use xlink:href="#DejaVuSerif-84"/>
      <use x="66.699219" xlink:href="#DejaVuSerif-105"/>
      <use x="98.681641" xlink:href="#DejaVuSerif-109"/>
      <use x="193.505859" xlink:href="#DejaVuSerif-101"/>
     </g>
    </g>
   </g>
   <g id="matplotlib.axis_2">
    <g id="ytick_1">
     <g id="line2d_19">
      <path clip-path="url(#ped460b2a15)" d="M 57.6 289.8432 
L 414.72 289.8432 
" style="fill:none;stroke:#b0b0b0;stroke-linecap:square;stroke-width:0.8;"/>
     </g>
     <g id="line2d_20">
      <defs>
       <path d="M 0 0 
L -3.5 0 
" id="mecf8e73485" style="stroke:#000000;stroke-width:0.8;"/>
      </defs>
      <g>
       <use style="stroke:#000000;stroke-width:0.8;" x="57.6" xlink:href="#mecf8e73485" y="289.8432"/>
      </g>
     </g>
     <g id="text_11">
      <!-- −0.2 -->
      <g transform="translate(26.317187 293.642419)scale(0.1 -0.1)">
       <defs>
        <path d="M 10.59375 35.296875 
L 73.1875 35.296875 
L 73.1875 27.390625 
L 10.59375 27.390625 
z
" id="DejaVuSerif-8722"/>
        <path d="M 9.421875 5.078125 
Q 9.421875 7.8125 11.28125 9.71875 
Q 13.140625 11.625 15.921875 11.625 
Q 18.609375 11.625 20.5 9.71875 
Q 22.40625 7.8125 22.40625 5.078125 
Q 22.40625 2.390625 20.5 0.484375 
Q 18.609375 -1.421875 15.921875 -1.421875 
Q 13.140625 -1.421875 11.28125 0.453125 
Q 9.421875 2.34375 9.421875 5.078125 
z
" id="DejaVuSerif-46"/>
       </defs>
       <use xlink:href="#DejaVuSerif-8722"/>
       <use x="83.789062" xlink:href="#DejaVuSerif-48"/>
       <use x="147.412109" xlink:href="#DejaVuSerif-46"/>
       <use x="179.199219" xlink:href="#DejaVuSerif-50"/>
      </g>
     </g>
    </g>
    <g id="ytick_2">
     <g id="line2d_21">
      <path clip-path="url(#ped460b2a15)" d="M 57.6 254.3616 
L 414.72 254.3616 
" style="fill:none;stroke:#b0b0b0;stroke-linecap:square;stroke-width:0.8;"/>
     </g>
     <g id="line2d_22">
      <g>
       <use style="stroke:#000000;stroke-width:0.8;" x="57.6" xlink:href="#mecf8e73485" y="254.3616"/>
      </g>
     </g>
     <g id="text_12">
      <!-- −0.1 -->
      <g transform="translate(26.317187 258.160819)scale(0.1 -0.1)">
       <use xlink:href="#DejaVuSerif-8722"/>
       <use x="83.789062" xlink:href="#DejaVuSerif-48"/>
       <use x="147.412109" xlink:href="#DejaVuSerif-46"/>
       <use x="179.199219" xlink:href="#DejaVuSerif-49"/>
      </g>
     </g>
    </g>
    <g id="ytick_3">
     <g id="line2d_23">
      <path clip-path="url(#ped460b2a15)" d="M 57.6 218.88 
L 414.72 218.88 
" style="fill:none;stroke:#b0b0b0;stroke-linecap:square;stroke-width:0.8;"/>
     </g>
     <g id="line2d_24">
      <g>
       <use style="stroke:#000000;stroke-width:0.8;" x="57.6" xlink:href="#mecf8e73485" y="218.88"/>
      </g>
     </g>
     <g id="text_13">
      <!-- 0.0 -->
      <g transform="translate(34.696875 222.679219)scale(0.1 -0.1)">
       <use xlink:href="#DejaVuSerif-48"/>
       <use x="63.623047" xlink:href="#DejaVuSerif-46"/>
       <use x="95.410156" xlink:href="#DejaVuSerif-48"/>
      </g>
     </g>
    </g>
    <g id="ytick_4">
     <g id="line2d_25">
      <path clip-path="url(#ped460b2a15)" d="M 57.6 183.3984 
L 414.72 183.3984 
" style="fill:none;stroke:#b0b0b0;stroke-linecap:square;stroke-width:0.8;"/>
     </g>
     <g id="line2d_26">
      <g>
       <use style="stroke:#000000;stroke-width:0.8;" x="57.6" xlink:href="#mecf8e73485" y="183.3984"/>
      </g>
     </g>
     <g id="text_14">
      <!-- 0.1 -->
      <g transform="translate(34.696875 187.197619)scale(0.1 -0.1)">
       <use xlink:href="#DejaVuSerif-48"/>
       <use x="63.623047" xlink:href="#DejaVuSerif-46"/>
       <use x="95.410156" xlink:href="#DejaVuSerif-49"/>
      </g>
     </g>
    </g>
    <g id="ytick_5">
     <g id="line2d_27">
      <path clip-path="url(#ped460b2a15)" d="M 57.6 147.9168 
L 414.72 147.9168 
" style="fill:none;stroke:#b0b0b0;stroke-linecap:square;stroke-width:0.8;"/>
     </g>
     <g id="line2d_28">
      <g>
       <use style="stroke:#000000;stroke-width:0.8;" x="57.6" xlink:href="#mecf8e73485" y="147.9168"/>
      </g>
     </g>
     <g id="text_15">
      <!-- 0.2 -->
      <g transform="translate(34.696875 151.716019)scale(0.1 -0.1)">
       <use xlink:href="#DejaVuSerif-48"/>
       <use x="63.623047" xlink:href="#DejaVuSerif-46"/>
       <use x="95.410156" xlink:href="#DejaVuSerif-50"/>
      </g>
     </g>
    </g>
    <g id="ytick_6">
     <g id="line2d_29">
      <path clip-path="url(#ped460b2a15)" d="M 57.6 112.4352 
L 414.72 112.4352 
" style="fill:none;stroke:#b0b0b0;stroke-linecap:square;stroke-width:0.8;"/>
     </g>
     <g id="line2d_30">
      <g>
       <use style="stroke:#000000;stroke-width:0.8;" x="57.6" xlink:href="#mecf8e73485" y="112.4352"/>
      </g>
     </g>
     <g id="text_16">
      <!-- 0.3 -->
      <g transform="translate(34.696875 116.234419)scale(0.1 -0.1)">
       <use xlink:href="#DejaVuSerif-48"/>
       <use x="63.623047" xlink:href="#DejaVuSerif-46"/>
       <use x="95.410156" xlink:href="#DejaVuSerif-51"/>
      </g>
     </g>
    </g>
    <g id="ytick_7">
     <g id="line2d_31">
      <path clip-path="url(#ped460b2a15)" d="M 57.6 76.9536 
L 414.72 76.9536 
" style="fill:none;stroke:#b0b0b0;stroke-linecap:square;stroke-width:0.8;"/>
     </g>
     <g id="line2d_32">
      <g>
       <use style="stroke:#000000;stroke-width:0.8;" x="57.6" xlink:href="#mecf8e73485" y="76.9536"/>
      </g>
     </g>
     <g id="text_17">
      <!-- 0.4 -->
      <g transform="translate(34.696875 80.752819)scale(0.1 -0.1)">
       <use xlink:href="#DejaVuSerif-48"/>
       <use x="63.623047" xlink:href="#DejaVuSerif-46"/>
       <use x="95.410156" xlink:href="#DejaVuSerif-52"/>
      </g>
     </g>
    </g>
    <g id="ytick_8">
     <g id="line2d_33">
      <path clip-path="url(#ped460b2a15)" d="M 57.6 41.472 
L 414.72 41.472 
" style="fill:none;stroke:#b0b0b0;stroke-linecap:square;stroke-width:0.8;"/>
     </g>
     <g id="line2d_34">
      <g>
       <use style="stroke:#000000;stroke-width:0.8;" x="57.6" xlink:href="#mecf8e73485" y="41.472"/>
      </g>
     </g>
     <g id="text_18">
      <!-- 0.5 -->
      <g transform="translate(34.696875 45.271219)scale(0.1 -0.1)">
       <use xlink:href="#DejaVuSerif-48"/>
       <use x="63.623047" xlink:href="#DejaVuSerif-46"/>
       <use x="95.410156" xlink:href="#DejaVuSerif-53"/>
      </g>
     </g>
    </g>
    <g id="text_19">
     <!-- Speed -->
     <g transform="translate(18.781719 201.295031)rotate(-90)scale(0.17 -0.17)">
      <defs>
       <path d="M 9.28125 3.515625 
L 9.28125 20.125 
L 14.890625 20.0625 
Q 15.140625 11.765625 19.703125 7.78125 
Q 24.265625 3.8125 33.59375 3.8125 
Q 42.28125 3.8125 46.84375 7.25 
Q 51.421875 10.6875 51.421875 17.28125 
Q 51.421875 22.5625 48.65625 25.390625 
Q 45.90625 28.21875 37.015625 30.90625 
L 27.390625 33.796875 
Q 16.9375 36.96875 12.671875 41.703125 
Q 8.40625 46.4375 8.40625 54.6875 
Q 8.40625 63.96875 14.984375 69.09375 
Q 21.578125 74.21875 33.5 74.21875 
Q 38.578125 74.21875 44.625 73.109375 
Q 50.6875 72.015625 57.515625 69.921875 
L 57.515625 54.390625 
L 52 54.390625 
Q 51.171875 62.109375 46.84375 65.546875 
Q 42.53125 69 33.6875 69 
Q 25.984375 69 21.953125 65.84375 
Q 17.921875 62.703125 17.921875 56.6875 
Q 17.921875 51.46875 20.9375 48.484375 
Q 23.96875 45.515625 33.796875 42.578125 
L 42.828125 39.890625 
Q 52.734375 36.921875 56.953125 32.296875 
Q 61.1875 27.6875 61.1875 19.921875 
Q 61.1875 9.328125 54.390625 3.953125 
Q 47.609375 -1.421875 34.1875 -1.421875 
Q 28.171875 -1.421875 21.9375 -0.1875 
Q 15.71875 1.03125 9.28125 3.515625 
z
" id="DejaVuSerif-83"/>
       <path d="M 20.515625 28.515625 
L 20.515625 23.390625 
Q 20.515625 14.015625 24.09375 9.109375 
Q 27.6875 4.203125 34.515625 4.203125 
Q 41.40625 4.203125 44.9375 9.71875 
Q 48.484375 15.234375 48.484375 25.984375 
Q 48.484375 36.765625 44.9375 42.234375 
Q 41.40625 47.703125 34.515625 47.703125 
Q 27.6875 47.703125 24.09375 42.765625 
Q 20.515625 37.84375 20.515625 28.515625 
z
M 11.53125 46.6875 
L 2.875 46.6875 
L 2.875 51.90625 
L 20.515625 51.90625 
L 20.515625 43.796875 
Q 23.140625 48.6875 27.21875 51 
Q 31.296875 53.328125 37.3125 53.328125 
Q 46.875 53.328125 52.921875 45.75 
Q 58.984375 38.1875 58.984375 25.984375 
Q 58.984375 13.765625 52.921875 6.171875 
Q 46.875 -1.421875 37.3125 -1.421875 
Q 31.296875 -1.421875 27.21875 0.890625 
Q 23.140625 3.21875 20.515625 8.109375 
L 20.515625 -15.578125 
L 29 -15.578125 
L 29 -20.796875 
L 2.875 -20.796875 
L 2.875 -15.578125 
L 11.53125 -15.578125 
z
" id="DejaVuSerif-112"/>
       <path d="M 52.484375 5.171875 
L 61.078125 5.171875 
L 61.078125 0 
L 43.5 0 
L 43.5 8.109375 
Q 40.875 3.21875 36.796875 0.890625 
Q 32.71875 -1.421875 26.703125 -1.421875 
Q 17.140625 -1.421875 11.0625 6.171875 
Q 4.984375 13.765625 4.984375 25.984375 
Q 4.984375 38.1875 11.03125 45.75 
Q 17.09375 53.328125 26.703125 53.328125 
Q 32.71875 53.328125 36.796875 51 
Q 40.875 48.6875 43.5 43.796875 
L 43.5 70.796875 
L 35.015625 70.796875 
L 35.015625 75.984375 
L 52.484375 75.984375 
z
M 43.5 23.390625 
L 43.5 28.515625 
Q 43.5 37.84375 39.90625 42.765625 
Q 36.328125 47.703125 29.5 47.703125 
Q 22.5625 47.703125 19.015625 42.234375 
Q 15.484375 36.765625 15.484375 25.984375 
Q 15.484375 15.234375 19.015625 9.71875 
Q 22.5625 4.203125 29.5 4.203125 
Q 36.328125 4.203125 39.90625 9.109375 
Q 43.5 14.015625 43.5 23.390625 
z
" id="DejaVuSerif-100"/>
      </defs>
      <use xlink:href="#DejaVuSerif-83"/>
      <use x="68.505859" xlink:href="#DejaVuSerif-112"/>
      <use x="132.519531" xlink:href="#DejaVuSerif-101"/>
      <use x="191.699219" xlink:href="#DejaVuSerif-101"/>
      <use x="250.878906" xlink:href="#DejaVuSerif-100"/>
     </g>
    </g>
   </g>
   <g id="LineCollection_1">
    <path clip-path="url(#ped460b2a15)" d="M 73.832727 218.88 
L 398.487273 218.88 
" style="fill:none;stroke:#696969;stroke-width:1.5;"/>
   </g>
   <g id="line2d_35">
    <path clip-path="url(#ped460b2a15)" d="M 73.832727 218.88 
L 74.651528 218.88 
L 74.67919 346.6 
M 75.57633 346.6 
L 75.609525 218.88 
L 79.834538 218.88 
L 79.90646 346.6 
M 82.071413 346.6 
L 82.159932 218.88 
L 86.253936 218.88 
L 86.368491 346.6 
M 88.731993 346.6 
L 88.841347 342.473382 
L 89.389944 342.473382 
L 89.52914 337.895849 
L 89.93854 337.895849 
L 90.069549 218.88 
L 93.893349 218.88 
L 94.032545 316.256604 
L 94.163553 316.256604 
L 94.302749 313.392586 
L 94.851346 313.392586 
L 94.982354 310.692226 
L 95.53095 310.692226 
L 95.670147 308.141887 
L 96.210555 308.141887 
L 96.349751 305.729403 
L 96.898348 305.729403 
L 97.029356 303.443893 
L 97.577953 303.443893 
L 97.717149 301.275588 
L 98.257557 301.275588 
L 98.396753 299.215698 
L 98.94535 299.215698 
L 99.076358 297.256291 
L 99.485759 297.256291 
L 99.624955 218.88 
L 102.490758 218.88 
L 102.629954 288.737129 
L 103.039354 288.737129 
L 103.170362 287.250807 
L 103.718959 287.250807 
L 103.858155 285.826415 
L 104.398564 285.826415 
L 104.53776 284.460162 
L 105.086357 284.460162 
L 105.217365 283.148558 
L 105.765961 283.148558 
L 105.905157 281.888391 
L 106.445566 281.888391 
L 106.584762 280.676691 
L 107.133359 280.676691 
L 107.264367 279.510716 
L 107.812963 279.510716 
L 107.95216 278.387925 
L 108.492568 278.387925 
L 108.631764 277.305962 
L 109.180361 277.305962 
L 109.311369 276.262642 
L 109.859966 276.262642 
L 109.999162 275.255929 
L 110.269366 275.255929 
L 110.408562 218.88 
L 112.316368 218.88 
L 112.455564 272.437132 
L 112.586573 272.437132 
L 112.725769 271.559146 
L 113.274365 271.559146 
L 113.405373 270.709483 
L 113.95397 270.709483 
L 114.093166 269.886792 
L 114.633575 269.886792 
L 114.772771 269.089811 
L 115.321367 269.089811 
L 115.452376 268.317353 
L 116.000972 268.317353 
L 116.140168 267.568302 
L 116.680577 267.568302 
L 116.819773 266.841611 
L 117.36837 266.841611 
L 117.499378 266.136293 
L 118.047974 266.136293 
L 118.18717 265.451419 
L 118.727579 265.451419 
L 118.866775 264.786113 
L 119.415372 264.786113 
L 119.54638 264.139548 
L 120.094976 264.139548 
L 120.234173 263.510943 
L 120.774581 263.510943 
L 120.913777 262.899561 
L 121.462374 262.899561 
L 121.593382 262.304702 
L 122.141979 262.304702 
L 122.281175 261.725706 
L 122.551379 261.725706 
L 122.690575 218.88 
L 123.37018 218.88 
L 123.509376 261.161946 
L 123.640384 260.61283 
L 124.188981 260.61283 
L 124.328177 260.077794 
L 124.868586 260.077794 
L 125.007782 259.556303 
L 125.556378 259.556303 
L 125.687386 259.047849 
L 126.235983 259.047849 
L 126.375179 258.55195 
L 126.915588 258.55195 
L 127.054784 258.068145 
L 127.60338 258.068145 
L 127.734389 257.595999 
L 128.282985 257.595999 
L 128.422181 257.135094 
L 128.96259 257.135094 
L 129.101786 256.685034 
L 129.650383 256.685034 
L 129.781391 256.245441 
L 130.329987 256.245441 
L 130.469184 255.815953 
L 131.009592 255.815953 
L 131.148788 255.396226 
L 131.697385 255.396226 
L 131.828393 254.985932 
L 132.37699 254.985932 
L 132.516186 254.584755 
L 133.056594 254.584755 
L 133.19579 254.192395 
L 133.744387 254.192395 
L 133.875395 253.808564 
L 134.423992 253.808564 
L 134.563188 253.432988 
L 135.103596 253.432988 
L 135.242793 253.065403 
L 135.512997 253.065403 
L 135.652193 287.250807 
L 135.791389 287.250807 
L 135.922397 286.531114 
L 136.331798 286.531114 
L 136.470994 252.705557 
L 136.61019 252.353208 
L 137.150599 252.353208 
L 137.289795 252.008123 
L 137.838391 252.008123 
L 137.9694 251.670081 
L 138.517996 251.670081 
L 138.657192 251.338868 
L 139.197601 251.338868 
L 139.336797 251.014279 
L 139.885394 251.014279 
L 140.016402 250.696118 
L 140.564998 250.696118 
L 140.704194 250.384195 
L 141.244603 250.384195 
L 141.383799 250.078329 
L 141.932396 250.078329 
L 142.063404 249.778345 
L 142.612 249.778345 
L 142.751197 249.484075 
L 143.291605 249.484075 
L 143.430801 249.195358 
L 143.979398 249.195358 
L 144.110406 248.912037 
L 144.659003 248.912037 
L 144.798199 248.633962 
L 145.338607 248.633962 
L 145.477804 248.36099 
L 146.0264 248.36099 
L 146.157408 248.092981 
L 146.706005 248.092981 
L 146.845201 247.829801 
L 147.38561 247.829801 
L 147.524806 247.571321 
L 148.073402 247.571321 
L 148.20441 247.317415 
L 148.753007 247.317415 
L 148.892203 247.067964 
L 149.023211 275.255929 
L 149.432612 275.255929 
L 149.571808 274.765703 
L 150.120404 274.765703 
L 150.251413 274.28393 
L 150.800009 274.28393 
L 150.939205 273.810392 
L 151.479614 273.810392 
L 151.61881 273.34488 
L 151.758006 246.11244 
L 152.167407 246.11244 
L 152.298415 245.883596 
L 152.847011 245.883596 
L 152.986207 245.658566 
L 153.526616 245.658566 
L 153.665812 245.437256 
L 154.214409 245.437256 
L 154.345417 245.219573 
L 154.894014 245.219573 
L 155.164218 245.00543 
L 155.573618 245.00543 
L 155.712814 244.794741 
L 156.261411 244.794741 
L 156.392419 244.587423 
L 156.941016 244.587423 
L 157.21122 244.383396 
L 157.62062 244.383396 
L 157.759817 244.182582 
L 158.308413 244.182582 
L 158.439421 243.984906 
L 158.988018 243.984906 
L 159.258222 243.790294 
L 159.667623 243.790294 
L 159.806819 243.598676 
L 160.355415 243.598676 
L 160.486423 243.409984 
L 161.03502 243.409984 
L 161.305224 243.224151 
L 161.714625 243.224151 
L 161.993017 243.041112 
L 162.402418 243.041112 
L 162.533426 242.860805 
L 163.082022 242.860805 
L 163.352227 242.68317 
L 163.761627 242.68317 
L 163.900823 266.136293 
L 164.44942 266.136293 
L 164.580428 265.791357 
L 165.129024 265.791357 
L 165.268221 265.451419 
L 165.808629 265.451419 
L 165.947825 265.116373 
L 166.496422 265.116373 
L 166.62743 264.786113 
L 167.176027 264.786113 
L 167.315223 264.460538 
L 167.855631 264.460538 
L 167.994827 264.139548 
L 168.265032 264.139548 
L 168.404228 241.509774 
L 168.543424 241.509774 
L 168.813628 241.351524 
L 169.223029 241.351524 
L 169.493233 241.195472 
L 169.902633 241.195472 
L 170.181026 241.041572 
L 170.590426 241.041572 
L 170.860631 240.88978 
L 171.270031 240.88978 
L 171.540235 240.740054 
L 171.949636 240.740054 
L 172.228028 240.592351 
L 172.637428 240.592351 
L 172.907633 240.44663 
L 173.317033 240.44663 
L 173.587237 240.302853 
L 173.996638 240.302853 
L 174.27503 240.16098 
L 174.684431 240.16098 
L 174.954635 240.020973 
L 175.364035 240.020973 
L 175.63424 239.882797 
L 176.04364 239.882797 
L 176.322032 239.746415 
L 176.731433 239.746415 
L 177.001637 239.611793 
L 177.411037 239.611793 
L 177.681242 239.478897 
L 178.090642 239.478897 
L 178.369035 239.347694 
L 178.778435 239.347694 
L 179.048639 239.218151 
L 179.45804 239.218151 
L 179.728244 239.090239 
L 180.006636 239.090239 
L 180.137644 259.300477 
L 180.276841 259.047849 
L 180.825437 259.047849 
L 180.956445 258.798359 
L 181.505042 258.798359 
L 181.644238 258.55195 
L 182.184647 258.55195 
L 182.323843 258.308563 
L 182.872439 258.308563 
L 183.003447 258.068145 
L 183.552044 258.068145 
L 183.69124 257.830642 
L 184.231649 257.830642 
L 184.370845 257.595999 
L 184.919441 257.595999 
L 185.05045 257.364167 
L 185.599046 257.364167 
L 185.738242 257.135094 
L 186.278651 257.135094 
L 186.417847 256.908733 
L 186.827248 256.908733 
L 186.966444 237.894366 
L 187.236648 237.782517 
L 188.325653 237.671976 
L 188.604045 237.56272 
L 189.693051 237.454728 
L 189.963255 237.347977 
L 191.060448 237.242445 
L 191.330652 237.138113 
L 192.419657 237.03496 
L 192.69805 236.932966 
L 193.787055 236.832111 
L 194.057259 236.732377 
L 195.154452 236.633745 
L 195.424657 236.536197 
L 196.513662 236.439715 
L 196.792054 236.344282 
L 197.881059 236.249881 
L 198.020255 253.432988 
L 198.560664 253.432988 
L 198.69986 253.248213 
L 199.248457 253.248213 
L 199.379465 253.065403 
L 199.928061 253.065403 
L 200.198266 252.884528 
L 200.607666 252.884528 
L 200.886058 252.705557 
L 201.295459 252.705557 
L 201.426467 252.52846 
L 201.975064 252.52846 
L 202.245268 252.353208 
L 202.654668 252.353208 
L 202.933061 252.179771 
L 203.342461 252.179771 
L 203.612665 252.008123 
L 204.022066 252.008123 
L 204.29227 251.838235 
L 204.701671 251.838235 
L 204.980063 251.670081 
L 205.389463 251.670081 
L 205.659668 251.503634 
L 206.069068 251.503634 
L 206.339272 251.338868 
L 206.748673 251.338868 
L 207.027065 251.175758 
L 207.158073 251.175758 
L 207.297269 235.027879 
L 208.11607 234.94714 
L 208.386274 234.867204 
L 209.483468 234.788059 
L 209.753672 234.709694 
L 210.842677 234.632098 
L 211.121069 234.555258 
L 212.210075 234.479165 
L 212.480279 234.403806 
L 213.577472 234.329173 
L 213.847676 234.255253 
L 214.936681 234.182038 
L 215.215074 234.109516 
L 216.304079 234.037679 
L 216.574283 233.966516 
L 217.393084 233.896018 
L 217.53228 248.912037 
L 217.671476 248.912037 
L 217.941681 248.772353 
L 218.351081 248.772353 
L 218.621285 248.633962 
L 219.030686 248.633962 
L 219.309078 248.496847 
L 219.718479 248.496847 
L 219.988683 248.36099 
L 220.398083 248.36099 
L 220.668288 248.226374 
L 221.077688 248.226374 
L 221.35608 248.092981 
L 221.765481 248.092981 
L 222.035685 247.960796 
L 222.445085 247.960796 
L 222.71529 247.829801 
L 223.12469 247.829801 
L 223.403082 247.699981 
L 223.812483 247.699981 
L 224.082687 247.571321 
L 224.492088 247.571321 
L 224.762292 247.443804 
L 225.171692 247.443804 
L 225.450085 247.317415 
L 225.859485 247.317415 
L 226.129689 247.19214 
L 226.53909 247.19214 
L 226.809294 247.067964 
L 227.218694 247.067964 
L 227.497087 246.944873 
L 227.906487 246.944873 
L 228.176692 246.822852 
L 228.586092 246.822852 
L 228.856296 246.701887 
L 229.265697 246.701887 
L 229.544089 246.581965 
L 229.675097 232.730982 
L 230.633094 232.671536 
L 231.042495 232.612598 
L 232.000492 232.554161 
L 232.270696 232.49622 
L 233.359701 232.438768 
L 233.769101 232.381798 
L 234.727098 232.325305 
L 235.136499 232.269283 
L 236.774101 232.158628 
L 237.183501 232.103983 
L 238.550899 231.996032 
L 238.681907 245.112065 
L 239.500708 245.00543 
L 239.7791 244.899659 
L 240.868105 244.794741 
L 241.138309 244.690666 
L 242.235502 244.587423 
L 242.505707 244.485003 
L 243.594712 244.383396 
L 243.873104 244.282592 
L 244.962109 244.182582 
L 245.232314 244.083356 
L 246.329507 243.984906 
L 246.599711 243.887221 
L 247.688716 243.790294 
L 247.967109 243.694115 
L 249.056114 243.598676 
L 249.326318 243.503969 
L 250.423511 243.409984 
L 250.693715 243.316714 
L 251.782721 243.224151 
L 252.061113 243.132286 
L 253.150118 243.041112 
L 253.420322 242.950621 
L 253.968919 242.860805 
L 254.108115 230.870403 
L 255.876725 230.781585 
L 256.286125 230.737668 
L 257.923727 230.650798 
L 258.333128 230.607839 
L 259.970729 230.522855 
L 260.38013 230.480823 
L 261.338127 230.439093 
L 261.477323 241.915326 
L 262.705524 241.833057 
L 262.975729 241.751373 
L 264.064734 241.670269 
L 264.343126 241.589738 
L 265.432131 241.509774 
L 265.702335 241.430371 
L 266.799529 241.351524 
L 267.069733 241.273226 
L 268.158738 241.195472 
L 268.43713 241.118256 
L 269.526136 241.041572 
L 269.79634 240.965415 
L 270.893533 240.88978 
L 271.163737 240.814662 
L 272.252742 240.740054 
L 272.531135 240.665952 
L 273.62014 240.592351 
L 273.890344 240.519245 
L 274.987537 240.44663 
L 275.257742 240.374501 
L 276.346747 240.302853 
L 276.625139 240.231681 
L 277.714144 240.16098 
L 277.984349 240.090745 
L 279.081542 240.020973 
L 279.351746 239.951659 
L 280.309743 239.882797 
L 280.440751 229.381398 
L 280.989348 229.347192 
L 283.175546 229.245897 
L 283.715955 229.212566 
L 285.762957 229.113847 
L 285.902153 239.347694 
L 286.172357 239.282717 
L 287.26955 239.218151 
L 287.539755 239.153993 
L 288.62876 239.090239 
L 288.907152 239.026884 
L 289.996157 238.963925 
L 290.405558 238.901358 
L 291.363555 238.83918 
L 291.633759 238.777387 
L 292.722764 238.715975 
L 293.132165 238.654941 
L 294.090162 238.594282 
L 294.499562 238.533993 
L 295.457559 238.474073 
L 295.727763 238.414516 
L 296.816769 238.355321 
L 297.226169 238.296483 
L 298.184166 238.238 
L 298.593566 238.179867 
L 299.551563 238.122083 
L 299.821768 238.064644 
L 300.910773 238.007547 
L 301.320173 237.950789 
L 302.27817 237.894366 
L 302.687571 237.838277 
L 303.645568 237.782517 
L 304.054968 237.727085 
L 305.69257 237.617189 
L 306.10197 237.56272 
L 307.739572 237.454728 
L 308.148973 237.401198 
L 308.828577 237.347977 
L 308.967773 228.113988 
L 311.555184 228.009057 
L 311.69438 237.138113 
L 313.192786 237.03496 
L 313.602186 236.983819 
L 315.239788 236.882397 
L 315.649189 236.832111 
L 317.28679 236.732377 
L 317.696191 236.682925 
L 319.333793 236.584837 
L 319.743193 236.536197 
L 321.380795 236.439715 
L 321.790195 236.391869 
L 323.427797 236.296954 
L 323.837197 236.249881 
L 325.474799 236.156494 
L 325.884199 236.110177 
L 327.521801 236.018282 
L 327.931202 235.972702 
L 329.568803 235.882264 
L 329.978204 235.837403 
L 331.615806 235.748388 
L 332.025206 235.70423 
L 333.662808 235.616604 
L 334.072208 235.573132 
L 335.70981 235.486863 
L 336.11921 235.444061 
L 337.756812 235.359118 
L 338.166213 235.316971 
L 338.444605 235.316971 
L 338.575613 243.472561 
L 339.394414 243.409984 
L 339.53361 235.233323 
L 341.171212 235.150521 
L 341.580612 235.109434 
L 343.218214 235.027879 
L 343.627614 234.987408 
L 345.265216 234.907072 
L 345.674617 234.867204 
L 347.312218 234.788059 
L 347.721619 234.74878 
L 349.35922 234.670801 
L 349.907817 234.632098 
L 351.406223 234.555258 
L 351.954819 234.517119 
L 353.453225 234.441394 
L 354.001821 234.403806 
L 355.500227 234.329173 
L 356.048824 234.292124 
L 358.226834 234.182038 
L 358.77543 234.145691 
L 360.961629 234.037679 
L 361.502037 234.002014 
L 363.688236 233.896018 
L 364.236832 233.861016 
L 366.414843 233.756981 
L 366.554039 233.722623 
L 366.693235 241.143935 
L 368.461845 241.041572 
L 368.871245 240.990743 
L 370.508847 240.88978 
L 370.918247 240.839644 
L 371.60604 240.789736 
L 371.737048 233.486491 
L 373.923247 233.387575 
L 374.471843 233.354901 
L 376.649853 233.257754 
L 377.19845 233.22566 
L 379.384648 233.130235 
L 379.925057 233.098708 
L 382.111255 233.004958 
L 382.659852 232.973982 
L 384.837862 232.881865 
L 385.386459 232.851426 
L 387.572657 232.760898 
L 388.113066 232.730982 
L 390.299264 232.642004 
L 390.847861 232.612598 
L 393.025871 232.525129 
L 393.574467 232.49622 
L 395.482274 232.410223 
L 395.62147 239.175334 
L 397.119875 239.090239 
L 397.529276 239.047958 
L 398.487273 239.005853 
L 398.487273 239.005853 
" style="fill:none;stroke:#1f77b4;stroke-linecap:square;stroke-width:1.5;"/>
   </g>
   <g id="patch_3">
    <path d="M 57.6 307.584 
L 57.6 41.472 
" style="fill:none;stroke:#000000;stroke-linecap:square;stroke-linejoin:miter;stroke-width:0.8;"/>
   </g>
   <g id="patch_4">
    <path d="M 414.72 307.584 
L 414.72 41.472 
" style="fill:none;stroke:#000000;stroke-linecap:square;stroke-linejoin:miter;stroke-width:0.8;"/>
   </g>
   <g id="patch_5">
    <path d="M 57.6 307.584 
L 414.72 307.584 
" style="fill:none;stroke:#000000;stroke-linecap:square;stroke-linejoin:miter;stroke-width:0.8;"/>
   </g>
   <g id="patch_6">
    <path d="M 57.6 41.472 
L 414.72 41.472 
" style="fill:none;stroke:#000000;stroke-linecap:square;stroke-linejoin:miter;stroke-width:0.8;"/>
   </g>
  </g>
 </g>
 <defs>
  <clipPath id="ped460b2a15">
   <rect height="266.112" width="357.12" x="57.6" y="41.472"/>
  </clipPath>
 </defs>
</svg>
