<?xml version="1.0" encoding="utf-8" standalone="no"?>
<!DOCTYPE svg PUBLIC "-//W3C//DTD SVG 1.1//EN"
  "http://www.w3.org/Graphics/SVG/1.1/DTD/svg11.dtd">
<!-- Created with matplotlib (https://matplotlib.org/) -->
<svg height="345.6pt" version="1.1" viewBox="0 0 460.8 345.6" width="460.8pt" xmlns="http://www.w3.org/2000/svg" xmlns:xlink="http://www.w3.org/1999/xlink">
 <metadata>
  <rdf:RDF xmlns:cc="http://creativecommons.org/ns#" xmlns:dc="http://purl.org/dc/elements/1.1/" xmlns:rdf="http://www.w3.org/1999/02/22-rdf-syntax-ns#">
   <cc:Work>
    <dc:type rdf:resource="http://purl.org/dc/dcmitype/StillImage"/>
    <dc:date>2022-08-02T01:30:01.240685</dc:date>
    <dc:format>image/svg+xml</dc:format>
    <dc:creator>
     <cc:Agent>
      <dc:title>Matplotlib v3.3.4, https://matplotlib.org/</dc:title>
     </cc:Agent>
    </dc:creator>
   </cc:Work>
  </rdf:RDF>
 </metadata>
 <defs>
  <style type="text/css">*{stroke-linecap:butt;stroke-linejoin:round;}</style>
 </defs>
 <g id="figure_1">
  <g id="patch_1">
   <path d="M 0 345.6 
L 460.8 345.6 
L 460.8 0 
L 0 0 
z
" style="fill:#ffffff;"/>
  </g>
  <g id="axes_1">
   <g id="patch_2">
    <path d="M 57.6 307.584 
L 414.72 307.584 
L 414.72 41.472 
L 57.6 41.472 
z
" style="fill:#ffffff;"/>
   </g>
   <g id="matplotlib.axis_1">
    <g id="xtick_1">
     <g id="line2d_1">
      <path clip-path="url(#p2237d512ae)" d="M 72.692445 307.584 
L 72.692445 41.472 
" style="fill:none;stroke:#b0b0b0;stroke-linecap:square;stroke-width:0.8;"/>
     </g>
     <g id="line2d_2">
      <defs>
       <path d="M 0 0 
L 0 3.5 
" id="mf9b4f6e848" style="stroke:#000000;stroke-width:0.8;"/>
      </defs>
      <g>
       <use style="stroke:#000000;stroke-width:0.8;" x="72.692445" xlink:href="#mf9b4f6e848" y="307.584"/>
      </g>
     </g>
     <g id="text_1">
      <!-- 0 -->
      <g transform="translate(69.511195 322.182437)scale(0.1 -0.1)">
       <defs>
        <path d="M 31.78125 3.421875 
Q 39.265625 3.421875 42.96875 11.625 
Q 46.6875 19.828125 46.6875 36.375 
Q 46.6875 52.984375 42.96875 61.1875 
Q 39.265625 69.390625 31.78125 69.390625 
Q 24.3125 69.390625 20.59375 61.1875 
Q 16.890625 52.984375 16.890625 36.375 
Q 16.890625 19.828125 20.59375 11.625 
Q 24.3125 3.421875 31.78125 3.421875 
z
M 31.78125 -1.421875 
Q 19.921875 -1.421875 13.25 8.53125 
Q 6.59375 18.5 6.59375 36.375 
Q 6.59375 54.296875 13.25 64.25 
Q 19.921875 74.21875 31.78125 74.21875 
Q 43.703125 74.21875 50.34375 64.25 
Q 56.984375 54.296875 56.984375 36.375 
Q 56.984375 18.5 50.34375 8.53125 
Q 43.703125 -1.421875 31.78125 -1.421875 
z
" id="DejaVuSerif-48"/>
       </defs>
       <use xlink:href="#DejaVuSerif-48"/>
      </g>
     </g>
    </g>
    <g id="xtick_2">
     <g id="line2d_3">
      <path clip-path="url(#p2237d512ae)" d="M 126.991583 307.584 
L 126.991583 41.472 
" style="fill:none;stroke:#b0b0b0;stroke-linecap:square;stroke-width:0.8;"/>
     </g>
     <g id="line2d_4">
      <g>
       <use style="stroke:#000000;stroke-width:0.8;" x="126.991583" xlink:href="#mf9b4f6e848" y="307.584"/>
      </g>
     </g>
     <g id="text_2">
      <!-- 100 -->
      <g transform="translate(117.447833 322.182437)scale(0.1 -0.1)">
       <defs>
        <path d="M 14.203125 0 
L 14.203125 5.171875 
L 26.90625 5.171875 
L 26.90625 65.828125 
L 12.203125 56.296875 
L 12.203125 62.703125 
L 29.984375 74.21875 
L 36.71875 74.21875 
L 36.71875 5.171875 
L 49.421875 5.171875 
L 49.421875 0 
z
" id="DejaVuSerif-49"/>
       </defs>
       <use xlink:href="#DejaVuSerif-49"/>
       <use x="63.623047" xlink:href="#DejaVuSerif-48"/>
       <use x="127.246094" xlink:href="#DejaVuSerif-48"/>
      </g>
     </g>
    </g>
    <g id="xtick_3">
     <g id="line2d_5">
      <path clip-path="url(#p2237d512ae)" d="M 181.290721 307.584 
L 181.290721 41.472 
" style="fill:none;stroke:#b0b0b0;stroke-linecap:square;stroke-width:0.8;"/>
     </g>
     <g id="line2d_6">
      <g>
       <use style="stroke:#000000;stroke-width:0.8;" x="181.290721" xlink:href="#mf9b4f6e848" y="307.584"/>
      </g>
     </g>
     <g id="text_3">
      <!-- 200 -->
      <g transform="translate(171.746971 322.182437)scale(0.1 -0.1)">
       <defs>
        <path d="M 12.796875 55.515625 
L 7.328125 55.515625 
L 7.328125 68.5 
Q 12.546875 71.296875 17.84375 72.75 
Q 23.140625 74.21875 28.21875 74.21875 
Q 39.59375 74.21875 46.1875 68.703125 
Q 52.78125 63.1875 52.78125 53.71875 
Q 52.78125 43.015625 37.84375 28.125 
Q 36.671875 27 36.078125 26.421875 
L 17.671875 8.015625 
L 48.09375 8.015625 
L 48.09375 17 
L 53.8125 17 
L 53.8125 0 
L 6.78125 0 
L 6.78125 5.328125 
L 28.90625 27.390625 
Q 36.234375 34.71875 39.359375 40.84375 
Q 42.484375 46.96875 42.484375 53.71875 
Q 42.484375 61.078125 38.640625 65.234375 
Q 34.8125 69.390625 28.078125 69.390625 
Q 21.09375 69.390625 17.28125 65.921875 
Q 13.484375 62.453125 12.796875 55.515625 
z
" id="DejaVuSerif-50"/>
       </defs>
       <use xlink:href="#DejaVuSerif-50"/>
       <use x="63.623047" xlink:href="#DejaVuSerif-48"/>
       <use x="127.246094" xlink:href="#DejaVuSerif-48"/>
      </g>
     </g>
    </g>
    <g id="xtick_4">
     <g id="line2d_7">
      <path clip-path="url(#p2237d512ae)" d="M 235.589859 307.584 
L 235.589859 41.472 
" style="fill:none;stroke:#b0b0b0;stroke-linecap:square;stroke-width:0.8;"/>
     </g>
     <g id="line2d_8">
      <g>
       <use style="stroke:#000000;stroke-width:0.8;" x="235.589859" xlink:href="#mf9b4f6e848" y="307.584"/>
      </g>
     </g>
     <g id="text_4">
      <!-- 300 -->
      <g transform="translate(226.046109 322.182437)scale(0.1 -0.1)">
       <defs>
        <path d="M 9.71875 69.828125 
Q 15.4375 71.96875 20.671875 73.09375 
Q 25.921875 74.21875 30.515625 74.21875 
Q 41.21875 74.21875 47.21875 69.59375 
Q 53.21875 64.984375 53.21875 56.78125 
Q 53.21875 50.203125 49.0625 45.78125 
Q 44.921875 41.359375 37.3125 39.796875 
Q 46.296875 38.53125 51.25 33.28125 
Q 56.203125 28.03125 56.203125 19.671875 
Q 56.203125 9.46875 49.34375 4.015625 
Q 42.484375 -1.421875 29.59375 -1.421875 
Q 23.875 -1.421875 18.421875 -0.1875 
Q 12.984375 1.03125 7.625 3.515625 
L 7.625 17.671875 
L 13.09375 17.671875 
Q 13.578125 10.640625 17.828125 7.03125 
Q 22.078125 3.421875 29.78125 3.421875 
Q 37.25 3.421875 41.578125 7.734375 
Q 45.90625 12.0625 45.90625 19.578125 
Q 45.90625 28.171875 41.453125 32.59375 
Q 37.015625 37.015625 28.421875 37.015625 
L 23.78125 37.015625 
L 23.78125 42 
L 26.21875 42 
Q 34.765625 42 39.03125 45.53125 
Q 43.3125 49.078125 43.3125 56.203125 
Q 43.3125 62.59375 39.796875 65.984375 
Q 36.28125 69.390625 29.6875 69.390625 
Q 23.09375 69.390625 19.453125 66.265625 
Q 15.828125 63.140625 15.1875 56.984375 
L 9.71875 56.984375 
z
" id="DejaVuSerif-51"/>
       </defs>
       <use xlink:href="#DejaVuSerif-51"/>
       <use x="63.623047" xlink:href="#DejaVuSerif-48"/>
       <use x="127.246094" xlink:href="#DejaVuSerif-48"/>
      </g>
     </g>
    </g>
    <g id="xtick_5">
     <g id="line2d_9">
      <path clip-path="url(#p2237d512ae)" d="M 289.888997 307.584 
L 289.888997 41.472 
" style="fill:none;stroke:#b0b0b0;stroke-linecap:square;stroke-width:0.8;"/>
     </g>
     <g id="line2d_10">
      <g>
       <use style="stroke:#000000;stroke-width:0.8;" x="289.888997" xlink:href="#mf9b4f6e848" y="307.584"/>
      </g>
     </g>
     <g id="text_5">
      <!-- 400 -->
      <g transform="translate(280.345247 322.182437)scale(0.1 -0.1)">
       <defs>
        <path d="M 34.90625 24.703125 
L 34.90625 63.484375 
L 10.015625 24.703125 
z
M 56.390625 0 
L 23.1875 0 
L 23.1875 5.171875 
L 34.90625 5.171875 
L 34.90625 19.484375 
L 3.078125 19.484375 
L 3.078125 24.8125 
L 35.015625 74.21875 
L 44.671875 74.21875 
L 44.671875 24.703125 
L 58.59375 24.703125 
L 58.59375 19.484375 
L 44.671875 19.484375 
L 44.671875 5.171875 
L 56.390625 5.171875 
z
" id="DejaVuSerif-52"/>
       </defs>
       <use xlink:href="#DejaVuSerif-52"/>
       <use x="63.623047" xlink:href="#DejaVuSerif-48"/>
       <use x="127.246094" xlink:href="#DejaVuSerif-48"/>
      </g>
     </g>
    </g>
    <g id="xtick_6">
     <g id="line2d_11">
      <path clip-path="url(#p2237d512ae)" d="M 344.188135 307.584 
L 344.188135 41.472 
" style="fill:none;stroke:#b0b0b0;stroke-linecap:square;stroke-width:0.8;"/>
     </g>
     <g id="line2d_12">
      <g>
       <use style="stroke:#000000;stroke-width:0.8;" x="344.188135" xlink:href="#mf9b4f6e848" y="307.584"/>
      </g>
     </g>
     <g id="text_6">
      <!-- 500 -->
      <g transform="translate(334.644385 322.182437)scale(0.1 -0.1)">
       <defs>
        <path d="M 50.296875 72.90625 
L 50.296875 64.890625 
L 16.890625 64.890625 
L 16.890625 44 
Q 19.4375 45.75 22.828125 46.625 
Q 26.21875 47.515625 30.421875 47.515625 
Q 42.234375 47.515625 49.0625 40.96875 
Q 55.90625 34.421875 55.90625 23.09375 
Q 55.90625 11.53125 49 5.046875 
Q 42.09375 -1.421875 29.59375 -1.421875 
Q 24.5625 -1.421875 19.28125 -0.1875 
Q 14.015625 1.03125 8.5 3.515625 
L 8.5 17.671875 
L 14.015625 17.671875 
Q 14.453125 10.75 18.421875 7.078125 
Q 22.40625 3.421875 29.59375 3.421875 
Q 37.3125 3.421875 41.453125 8.5 
Q 45.609375 13.578125 45.609375 23.09375 
Q 45.609375 32.5625 41.484375 37.609375 
Q 37.359375 42.671875 29.59375 42.671875 
Q 25.203125 42.671875 21.84375 41.109375 
Q 18.5 39.546875 15.921875 36.28125 
L 11.71875 36.28125 
L 11.71875 72.90625 
z
" id="DejaVuSerif-53"/>
       </defs>
       <use xlink:href="#DejaVuSerif-53"/>
       <use x="63.623047" xlink:href="#DejaVuSerif-48"/>
       <use x="127.246094" xlink:href="#DejaVuSerif-48"/>
      </g>
     </g>
    </g>
    <g id="xtick_7">
     <g id="line2d_13">
      <path clip-path="url(#p2237d512ae)" d="M 398.487273 307.584 
L 398.487273 41.472 
" style="fill:none;stroke:#b0b0b0;stroke-linecap:square;stroke-width:0.8;"/>
     </g>
     <g id="line2d_14">
      <g>
       <use style="stroke:#000000;stroke-width:0.8;" x="398.487273" xlink:href="#mf9b4f6e848" y="307.584"/>
      </g>
     </g>
     <g id="text_7">
      <!-- 600 -->
      <g transform="translate(388.943523 322.182437)scale(0.1 -0.1)">
       <defs>
        <path d="M 32.71875 3.421875 
Q 39.59375 3.421875 43.296875 8.46875 
Q 47.015625 13.53125 47.015625 23 
Q 47.015625 32.46875 43.296875 37.515625 
Q 39.59375 42.578125 32.71875 42.578125 
Q 25.734375 42.578125 22.0625 37.6875 
Q 18.40625 32.8125 18.40625 23.578125 
Q 18.40625 13.875 22.109375 8.640625 
Q 25.828125 3.421875 32.71875 3.421875 
z
M 16.796875 40.140625 
Q 20.125 43.796875 24.3125 45.59375 
Q 28.515625 47.40625 33.796875 47.40625 
Q 44.671875 47.40625 51 40.859375 
Q 57.328125 34.328125 57.328125 23 
Q 57.328125 11.921875 50.515625 5.25 
Q 43.703125 -1.421875 32.328125 -1.421875 
Q 19.96875 -1.421875 13.328125 7.78125 
Q 6.6875 17 6.6875 34.078125 
Q 6.6875 53.21875 14.546875 63.71875 
Q 22.40625 74.21875 36.71875 74.21875 
Q 40.578125 74.21875 44.828125 73.484375 
Q 49.078125 72.75 53.515625 71.296875 
L 53.515625 59.28125 
L 48 59.28125 
Q 47.40625 64.203125 44.234375 66.796875 
Q 41.0625 69.390625 35.6875 69.390625 
Q 26.21875 69.390625 21.578125 62.203125 
Q 16.9375 55.03125 16.796875 40.140625 
z
" id="DejaVuSerif-54"/>
       </defs>
       <use xlink:href="#DejaVuSerif-54"/>
       <use x="63.623047" xlink:href="#DejaVuSerif-48"/>
       <use x="127.246094" xlink:href="#DejaVuSerif-48"/>
      </g>
     </g>
    </g>
   </g>
   <g id="matplotlib.axis_2">
    <g id="ytick_1">
     <g id="line2d_15">
      <path clip-path="url(#p2237d512ae)" d="M 57.6 295.488 
L 414.72 295.488 
" style="fill:none;stroke:#b0b0b0;stroke-linecap:square;stroke-width:0.8;"/>
     </g>
     <g id="line2d_16">
      <defs>
       <path d="M 0 0 
L -3.5 0 
" id="mefd5325c78" style="stroke:#000000;stroke-width:0.8;"/>
      </defs>
      <g>
       <use style="stroke:#000000;stroke-width:0.8;" x="57.6" xlink:href="#mefd5325c78" y="295.488"/>
      </g>
     </g>
     <g id="text_8">
      <!-- 0.0 -->
      <g transform="translate(34.696875 299.287219)scale(0.1 -0.1)">
       <defs>
        <path d="M 9.421875 5.078125 
Q 9.421875 7.8125 11.28125 9.71875 
Q 13.140625 11.625 15.921875 11.625 
Q 18.609375 11.625 20.5 9.71875 
Q 22.40625 7.8125 22.40625 5.078125 
Q 22.40625 2.390625 20.5 0.484375 
Q 18.609375 -1.421875 15.921875 -1.421875 
Q 13.140625 -1.421875 11.28125 0.453125 
Q 9.421875 2.34375 9.421875 5.078125 
z
" id="DejaVuSerif-46"/>
       </defs>
       <use xlink:href="#DejaVuSerif-48"/>
       <use x="63.623047" xlink:href="#DejaVuSerif-46"/>
       <use x="95.410156" xlink:href="#DejaVuSerif-48"/>
      </g>
     </g>
    </g>
    <g id="ytick_2">
     <g id="line2d_17">
      <path clip-path="url(#p2237d512ae)" d="M 57.6 239.983262 
L 414.72 239.983262 
" style="fill:none;stroke:#b0b0b0;stroke-linecap:square;stroke-width:0.8;"/>
     </g>
     <g id="line2d_18">
      <g>
       <use style="stroke:#000000;stroke-width:0.8;" x="57.6" xlink:href="#mefd5325c78" y="239.983262"/>
      </g>
     </g>
     <g id="text_9">
      <!-- 0.2 -->
      <g transform="translate(34.696875 243.782481)scale(0.1 -0.1)">
       <use xlink:href="#DejaVuSerif-48"/>
       <use x="63.623047" xlink:href="#DejaVuSerif-46"/>
       <use x="95.410156" xlink:href="#DejaVuSerif-50"/>
      </g>
     </g>
    </g>
    <g id="ytick_3">
     <g id="line2d_19">
      <path clip-path="url(#p2237d512ae)" d="M 57.6 184.478524 
L 414.72 184.478524 
" style="fill:none;stroke:#b0b0b0;stroke-linecap:square;stroke-width:0.8;"/>
     </g>
     <g id="line2d_20">
      <g>
       <use style="stroke:#000000;stroke-width:0.8;" x="57.6" xlink:href="#mefd5325c78" y="184.478524"/>
      </g>
     </g>
     <g id="text_10">
      <!-- 0.4 -->
      <g transform="translate(34.696875 188.277743)scale(0.1 -0.1)">
       <use xlink:href="#DejaVuSerif-48"/>
       <use x="63.623047" xlink:href="#DejaVuSerif-46"/>
       <use x="95.410156" xlink:href="#DejaVuSerif-52"/>
      </g>
     </g>
    </g>
    <g id="ytick_4">
     <g id="line2d_21">
      <path clip-path="url(#p2237d512ae)" d="M 57.6 128.973787 
L 414.72 128.973787 
" style="fill:none;stroke:#b0b0b0;stroke-linecap:square;stroke-width:0.8;"/>
     </g>
     <g id="line2d_22">
      <g>
       <use style="stroke:#000000;stroke-width:0.8;" x="57.6" xlink:href="#mefd5325c78" y="128.973787"/>
      </g>
     </g>
     <g id="text_11">
      <!-- 0.6 -->
      <g transform="translate(34.696875 132.773005)scale(0.1 -0.1)">
       <use xlink:href="#DejaVuSerif-48"/>
       <use x="63.623047" xlink:href="#DejaVuSerif-46"/>
       <use x="95.410156" xlink:href="#DejaVuSerif-54"/>
      </g>
     </g>
    </g>
    <g id="ytick_5">
     <g id="line2d_23">
      <path clip-path="url(#p2237d512ae)" d="M 57.6 73.469049 
L 414.72 73.469049 
" style="fill:none;stroke:#b0b0b0;stroke-linecap:square;stroke-width:0.8;"/>
     </g>
     <g id="line2d_24">
      <g>
       <use style="stroke:#000000;stroke-width:0.8;" x="57.6" xlink:href="#mefd5325c78" y="73.469049"/>
      </g>
     </g>
     <g id="text_12">
      <!-- 0.8 -->
      <g transform="translate(34.696875 77.268268)scale(0.1 -0.1)">
       <defs>
        <path d="M 46.578125 19.921875 
Q 46.578125 27.734375 42.6875 32.046875 
Q 38.8125 36.375 31.78125 36.375 
Q 24.75 36.375 20.875 32.046875 
Q 17 27.734375 17 19.921875 
Q 17 12.0625 20.875 7.734375 
Q 24.75 3.421875 31.78125 3.421875 
Q 38.8125 3.421875 42.6875 7.734375 
Q 46.578125 12.0625 46.578125 19.921875 
z
M 44.578125 55.328125 
Q 44.578125 61.96875 41.203125 65.671875 
Q 37.84375 69.390625 31.78125 69.390625 
Q 25.78125 69.390625 22.390625 65.671875 
Q 19 61.96875 19 55.328125 
Q 19 48.640625 22.390625 44.921875 
Q 25.78125 41.21875 31.78125 41.21875 
Q 37.84375 41.21875 41.203125 44.921875 
Q 44.578125 48.640625 44.578125 55.328125 
z
M 39.3125 38.8125 
Q 47.609375 37.703125 52.25 32.6875 
Q 56.890625 27.6875 56.890625 19.921875 
Q 56.890625 9.671875 50.390625 4.125 
Q 43.890625 -1.421875 31.78125 -1.421875 
Q 19.734375 -1.421875 13.203125 4.125 
Q 6.6875 9.671875 6.6875 19.921875 
Q 6.6875 27.6875 11.328125 32.6875 
Q 15.96875 37.703125 24.3125 38.8125 
Q 16.9375 40.140625 13 44.40625 
Q 9.078125 48.6875 9.078125 55.328125 
Q 9.078125 64.109375 15.125 69.15625 
Q 21.1875 74.21875 31.78125 74.21875 
Q 42.390625 74.21875 48.4375 69.15625 
Q 54.5 64.109375 54.5 55.328125 
Q 54.5 48.6875 50.5625 44.40625 
Q 46.625 40.140625 39.3125 38.8125 
z
" id="DejaVuSerif-56"/>
       </defs>
       <use xlink:href="#DejaVuSerif-48"/>
       <use x="63.623047" xlink:href="#DejaVuSerif-46"/>
       <use x="95.410156" xlink:href="#DejaVuSerif-56"/>
      </g>
     </g>
    </g>
   </g>
   <g id="line2d_25">
    <path clip-path="url(#p2237d512ae)" d="M 73.832727 295.488 
L 77.199274 295.488 
L 77.307872 53.568 
L 77.47077 67.798588 
L 77.579368 67.798588 
L 77.742265 80.448 
L 77.850863 80.448 
L 78.013761 91.765895 
L 78.122359 91.765895 
L 78.285257 101.952 
L 78.448154 295.488 
L 97.507151 295.488 
L 97.670049 289.236237 
L 97.832946 289.304191 
L 98.21304 289.370684 
L 98.375938 289.435762 
L 98.756032 289.49947 
L 98.918929 289.56185 
L 99.299023 289.622944 
L 99.407621 289.682792 
L 99.570519 269.177951 
L 99.733416 269.443709 
L 99.842014 269.443709 
L 100.004912 269.704152 
L 100.11351 269.704152 
L 100.276407 269.959438 
L 100.385006 269.959438 
L 100.547903 270.209718 
L 100.656501 270.209718 
L 100.819399 270.455138 
L 100.927997 270.455138 
L 101.090894 270.695838 
L 101.199493 270.695838 
L 101.36239 270.931954 
L 101.470988 270.931954 
L 101.633886 271.163615 
L 101.742484 271.163615 
L 101.905382 271.390946 
L 102.01398 271.390946 
L 102.176877 271.614067 
L 102.285476 271.614067 
L 102.448373 271.833094 
L 102.556971 271.833094 
L 102.719869 272.048138 
L 102.828467 272.048138 
L 102.991364 272.259308 
L 103.099963 272.259308 
L 103.26286 272.466707 
L 103.371458 272.466707 
L 103.534356 272.670435 
L 103.642954 272.670435 
L 103.697253 272.870589 
L 103.860151 277.861032 
L 103.91445 277.861032 
L 104.077347 278.014309 
L 104.185945 278.014309 
L 104.348843 278.164945 
L 104.457441 278.164945 
L 104.620338 278.313005 
L 104.728937 278.313005 
L 104.891834 278.458556 
L 105.000432 278.458556 
L 105.16333 278.60166 
L 105.271928 278.60166 
L 105.434826 278.74238 
L 105.543424 278.74238 
L 105.706321 260.713265 
L 105.814919 260.713265 
L 105.977817 260.998304 
L 106.032116 260.998304 
L 106.195013 277.615898 
L 106.357911 277.615898 
L 106.520808 277.760028 
L 106.629407 277.760028 
L 106.792304 277.901852 
L 106.900902 277.901852 
L 107.0638 278.041424 
L 107.172398 278.041424 
L 107.335295 278.178799 
L 107.443894 278.178799 
L 107.606791 278.314027 
L 107.715389 278.314027 
L 107.878287 278.447159 
L 107.986885 278.447159 
L 108.149782 278.578242 
L 108.258381 278.578242 
L 108.421278 278.707324 
L 108.529876 278.707324 
L 108.692774 278.834451 
L 108.801372 278.834451 
L 108.964269 278.959665 
L 109.072868 278.959665 
L 109.235765 279.083011 
L 109.344363 279.083011 
L 109.507261 279.204529 
L 109.615859 279.204529 
L 109.778757 279.324261 
L 109.887355 279.324261 
L 110.050252 279.442244 
L 110.158851 279.442244 
L 110.321748 279.558518 
L 110.430346 279.558518 
L 110.593244 279.673118 
L 110.701842 279.673118 
L 110.864739 279.786082 
L 110.973338 279.786082 
L 111.136235 279.897443 
L 111.516329 280.007236 
L 111.679226 280.115493 
L 111.787825 253.509497 
L 111.842124 253.801015 
L 112.05932 253.801015 
L 112.222218 254.088511 
L 112.330816 254.088511 
L 112.493713 254.372069 
L 112.602312 254.372069 
L 112.765209 254.65177 
L 112.873807 254.65177 
L 113.036705 254.92769 
L 113.145303 254.92769 
L 113.308201 255.199907 
L 113.416799 255.199907 
L 113.579696 255.468494 
L 113.688294 255.468494 
L 113.742594 255.733524 
L 113.905491 270.291594 
L 113.95979 270.291594 
L 114.122688 270.45736 
L 114.231286 270.45736 
L 114.394183 270.620959 
L 114.502782 270.620959 
L 114.665679 270.782433 
L 114.774277 270.782433 
L 114.937175 270.941824 
L 115.045773 270.941824 
L 115.20867 271.099171 
L 115.317269 271.099171 
L 115.480166 271.254514 
L 115.588764 271.254514 
L 115.751662 271.40789 
L 115.86026 271.40789 
L 116.023157 271.559338 
L 116.131756 271.559338 
L 116.294653 271.708892 
L 116.403251 271.708892 
L 116.566149 271.856588 
L 116.674747 271.856588 
L 116.837644 272.002461 
L 116.946243 272.002461 
L 117.10914 272.146544 
L 117.217738 272.146544 
L 117.380636 272.28887 
L 117.489234 272.28887 
L 117.652132 272.429471 
L 117.76073 272.429471 
L 117.923627 272.568378 
L 118.032226 272.568378 
L 118.195123 272.705621 
L 118.303721 272.705621 
L 118.466619 272.84123 
L 118.575217 272.84123 
L 118.738114 272.975235 
L 118.846713 272.975235 
L 119.00961 273.107663 
L 119.118208 273.107663 
L 119.281106 273.238542 
L 119.389704 273.238542 
L 119.552601 273.367899 
L 119.6612 273.367899 
L 119.824097 273.495761 
L 119.932695 273.495761 
L 120.095593 273.622153 
L 120.204191 273.622153 
L 120.367088 273.747101 
L 120.475687 273.747101 
L 120.638584 273.870629 
L 120.747182 273.870629 
L 120.91008 273.992761 
L 121.018678 273.992761 
L 121.181576 274.113521 
L 121.290174 274.113521 
L 121.398772 274.232931 
L 121.561669 295.488 
L 131.661309 295.488 
L 131.824207 291.558189 
L 133.50748 291.663924 
L 133.941873 291.697916 
L 135.136454 291.764118 
L 135.299351 286.239142 
L 135.950941 286.318873 
L 136.168138 286.358226 
L 136.765428 286.435926 
L 136.982625 286.474282 
L 137.579915 286.550028 
L 137.797112 286.587425 
L 138.665898 286.697763 
L 138.883094 286.733937 
L 139.588983 286.840694 
L 139.751881 284.605248 
L 139.969077 284.649307 
L 140.566368 284.736365 
L 140.783564 284.779372 
L 141.05506 284.822035 
L 141.109359 284.387917 
L 141.163658 284.431965 
L 141.272257 284.431965 
L 141.380855 282.990253 
L 141.435154 283.039651 
L 142.032444 283.137286 
L 142.195342 281.619138 
L 142.358239 281.673313 
L 142.629735 281.727067 
L 142.738333 267.552692 
L 142.792632 267.660968 
L 143.281325 267.768408 
L 143.444222 267.875022 
L 143.824316 267.980819 
L 143.987213 268.085808 
L 144.367307 268.189999 
L 144.530205 268.293401 
L 144.910299 268.396022 
L 145.073196 268.497871 
L 145.45329 268.598958 
L 145.616188 268.69929 
L 145.996282 268.798876 
L 146.159179 268.897725 
L 146.376375 268.995844 
L 146.539273 272.142593 
L 146.70217 272.228422 
L 147.082264 272.313622 
L 147.245162 272.3982 
L 147.625256 272.482162 
L 147.788153 272.565517 
L 148.168247 272.64827 
L 148.331144 272.730427 
L 148.711238 272.811995 
L 148.874136 272.892981 
L 149.25423 272.97339 
L 149.417127 273.053229 
L 149.797221 273.132504 
L 149.960119 273.211221 
L 150.340213 273.289385 
L 150.50311 273.367002 
L 150.720307 273.444079 
L 150.883204 277.884736 
L 151.046101 277.945858 
L 151.426195 278.006558 
L 151.589093 278.066838 
L 151.969187 278.126705 
L 152.132084 278.186161 
L 152.512178 278.245212 
L 152.675075 278.303861 
L 153.055169 278.362112 
L 153.218067 278.41997 
L 153.598161 278.477438 
L 153.761058 278.534521 
L 154.141152 278.591221 
L 154.30405 278.647544 
L 154.684144 278.703492 
L 154.847041 278.75907 
L 155.498631 278.869129 
L 155.661528 278.923617 
L 156.258819 279.031528 
L 156.421716 280.870412 
L 157.127605 280.964719 
L 157.344801 281.011418 
L 157.942092 281.10392 
L 158.104989 276.183029 
L 158.267887 276.590231 
L 158.376485 276.590231 
L 158.539382 277.799754 
L 159.028075 277.855553 
L 159.190972 277.911001 
L 159.353869 277.966101 
L 159.516767 279.179668 
L 160.059758 279.281277 
L 160.222656 290.644697 
L 162.286023 290.747746 
L 162.774715 290.776388 
L 163.426305 290.818708 
L 163.589202 288.002067 
L 165.00098 288.112479 
L 165.381074 288.155737 
L 166.195561 288.219682 
L 166.358458 287.883649 
L 166.521356 287.905691 
L 166.629954 285.96278 
L 166.684253 285.990309 
L 167.987432 286.098854 
L 168.313227 286.152202 
L 168.476125 286.152202 
L 168.530424 285.086061 
L 168.639022 285.115528 
L 169.562107 285.202937 
L 169.616407 284.87533 
L 169.670706 284.905058 
L 169.887902 284.905058 
L 170.0508 284.345986 
L 170.539492 284.407886 
L 170.702389 282.229226 
L 170.919586 282.265954 
L 171.788372 282.374927 
L 172.005569 282.410853 
L 172.820056 282.51746 
L 172.874355 282.240995 
L 172.928654 282.276894 
L 173.14585 282.276894 
L 173.308748 278.368599 
L 173.960338 278.460639 
L 174.177534 278.506288 
L 174.774825 278.596858 
L 174.992021 278.641781 
L 175.589312 278.730914 
L 175.806508 278.775128 
L 176.403799 278.86286 
L 176.620995 278.906381 
L 177.163987 278.992744 
L 177.218286 278.219937 
L 177.272585 278.264789 
L 177.652679 278.309408 
L 177.761277 269.491739 
L 177.815576 269.558913 
L 178.304269 269.625741 
L 178.467166 269.692225 
L 178.84726 269.758368 
L 179.010157 269.824172 
L 179.227354 269.889641 
L 179.390251 273.868069 
L 179.553149 273.923081 
L 180.204738 274.032271 
L 180.367636 274.086452 
L 181.019225 274.193998 
L 181.182123 274.247366 
L 181.833713 274.353304 
L 181.99661 274.405878 
L 182.6482 274.510245 
L 182.811097 274.562042 
L 183.462687 274.664872 
L 183.625584 274.715909 
L 184.277174 274.817237 
L 184.49437 274.86753 
L 185.091661 274.967387 
L 185.308857 275.016954 
L 185.906148 275.115373 
L 186.069045 275.164228 
L 186.231943 277.463466 
L 186.992131 277.549297 
L 187.209327 277.591907 
L 187.806618 277.676522 
L 188.023814 277.71853 
L 188.621105 277.801955 
L 188.838301 277.843375 
L 189.435592 277.925634 
L 189.54419 277.966477 
L 189.707088 269.412667 
L 189.869985 269.473166 
L 189.924284 269.473166 
L 190.087181 271.085016 
L 190.521575 271.141374 
L 190.684472 271.197472 
L 191.064566 271.253313 
L 191.227463 271.308897 
L 191.879053 271.419304 
L 192.04195 271.47413 
L 192.367745 271.528707 
L 192.530643 272.434015 
L 193.236531 272.538096 
L 193.399429 272.589785 
L 193.725224 272.641242 
L 193.888121 272.953965 
L 194.159617 273.004377 
L 194.322514 273.47581 
L 194.539711 273.524944 
L 194.974104 273.622557 
L 195.137001 275.365486 
L 195.354198 275.410103 
L 195.951488 275.498748 
L 196.168685 275.542777 
L 196.765975 275.630256 
L 196.983172 275.673708 
L 197.580463 275.760045 
L 198.177753 276.108363 
L 198.232052 276.108363 
L 198.39495 279.266979 
L 198.612146 279.302014 
L 199.480932 279.406215 
L 199.698129 279.440652 
L 200.566915 279.543082 
L 200.784112 279.576935 
L 201.652898 279.677638 
L 201.870094 279.710923 
L 202.738881 279.809942 
L 202.956077 279.842673 
L 203.227573 279.875267 
L 203.39047 280.524687 
L 203.879163 280.586647 
L 204.04206 287.63348 
L 204.476453 287.665869 
L 204.63935 283.066606 
L 204.965145 283.117618 
L 206.268325 283.218395 
L 206.594119 283.26817 
L 207.897299 283.366519 
L 208.223094 283.415102 
L 209.526273 283.511109 
L 209.906367 283.558543 
L 211.155247 283.652291 
L 211.535341 283.698614 
L 211.752538 283.721641 
L 211.915435 281.862137 
L 213.055717 281.967764 
L 213.381512 282.019966 
L 214.521794 282.123169 
L 214.684691 279.987753 
L 215.010486 280.046914 
L 216.042169 280.134814 
L 216.367964 280.19286 
L 217.399648 280.279111 
L 217.725443 280.336073 
L 217.779742 280.336073 
L 217.942639 279.971242 
L 218.268434 280.02914 
L 218.322733 280.02914 
L 218.485631 278.92278 
L 218.702827 278.953628 
L 218.865725 286.03591 
L 220.223203 286.024273 
L 220.3861 284.564831 
L 220.766194 284.604916 
L 222.28657 284.703853 
L 222.720963 284.742926 
L 222.829562 283.623302 
L 222.883861 283.644757 
L 224.458536 283.75088 
L 224.621433 283.771876 
L 224.730031 283.362519 
L 224.784331 283.384172 
L 225.327322 283.427246 
L 225.490219 282.535933 
L 226.630501 282.627467 
L 226.793399 282.650148 
L 226.901997 279.358508 
L 226.956296 279.386905 
L 227.98798 279.471499 
L 228.313775 279.527403 
L 229.616954 279.638048 
L 229.942749 279.692798 
L 231.245928 279.80117 
L 231.571723 279.8548 
L 232.169013 279.908065 
L 232.331911 271.905094 
L 232.549107 271.945201 
L 233.146398 272.025007 
L 233.363594 272.064708 
L 233.960885 272.143707 
L 234.178081 272.183007 
L 234.775372 272.261212 
L 234.992569 272.300118 
L 235.589859 272.37754 
L 235.807056 272.416057 
L 236.404346 272.492708 
L 236.621543 272.530843 
L 237.218833 272.606734 
L 237.381731 272.644492 
L 237.544628 276.35699 
L 238.576312 276.451077 
L 238.902106 276.513289 
L 239.93379 276.605849 
L 240.259585 276.667055 
L 241.291269 276.758124 
L 241.617063 276.818349 
L 242.648747 276.907963 
L 242.974542 276.967229 
L 244.006225 277.055424 
L 244.33202 277.113755 
L 245.363704 277.200562 
L 245.689499 277.257979 
L 246.503986 277.343433 
L 246.666883 278.831035 
L 247.807165 278.934495 
L 248.13296 278.985744 
L 249.436139 279.087296 
L 249.761934 279.137605 
L 249.924831 279.137605 
L 250.087729 280.869669 
L 251.608105 280.980751 
L 251.988199 281.024712 
L 253.508575 281.133459 
L 253.888669 281.176501 
L 253.997267 281.176501 
L 254.160164 281.489572 
L 254.703156 281.531358 
L 254.866053 282.416446 
L 255.300446 282.455349 
L 256.766523 282.551602 
L 257.092318 282.668616 
L 257.255215 283.835739 
L 258.938488 283.937803 
L 259.372881 283.971428 
L 260.187369 284.0215 
L 260.350266 284.932497 
L 262.467932 285.038355 
L 262.576531 285.053304 
L 262.739428 285.380672 
L 263.22812 285.409509 
L 263.445317 285.423866 
L 263.608214 286.150726 
L 265.291487 286.229743 
L 265.454385 288.862127 
L 266.323171 288.899299 
L 269.798316 289.008354 
L 270.667102 289.043907 
L 272.024581 289.087804 
L 272.187478 295.488 
L 398.487273 295.488 
L 398.487273 295.488 
" style="fill:none;stroke:#1f77b4;stroke-linecap:square;stroke-width:1.5;"/>
   </g>
   <g id="patch_3">
    <path d="M 57.6 307.584 
L 57.6 41.472 
" style="fill:none;stroke:#000000;stroke-linecap:square;stroke-linejoin:miter;stroke-width:0.8;"/>
   </g>
   <g id="patch_4">
    <path d="M 414.72 307.584 
L 414.72 41.472 
" style="fill:none;stroke:#000000;stroke-linecap:square;stroke-linejoin:miter;stroke-width:0.8;"/>
   </g>
   <g id="patch_5">
    <path d="M 57.6 307.584 
L 414.72 307.584 
" style="fill:none;stroke:#000000;stroke-linecap:square;stroke-linejoin:miter;stroke-width:0.8;"/>
   </g>
   <g id="patch_6">
    <path d="M 57.6 41.472 
L 414.72 41.472 
" style="fill:none;stroke:#000000;stroke-linecap:square;stroke-linejoin:miter;stroke-width:0.8;"/>
   </g>
  </g>
 </g>
 <defs>
  <clipPath id="p2237d512ae">
   <rect height="266.112" width="357.12" x="57.6" y="41.472"/>
  </clipPath>
 </defs>
</svg>
