<?xml version="1.0" encoding="utf-8" standalone="no"?>
<!DOCTYPE svg PUBLIC "-//W3C//DTD SVG 1.1//EN"
  "http://www.w3.org/Graphics/SVG/1.1/DTD/svg11.dtd">
<!-- Created with matplotlib (https://matplotlib.org/) -->
<svg height="345.6pt" version="1.1" viewBox="0 0 460.8 345.6" width="460.8pt" xmlns="http://www.w3.org/2000/svg" xmlns:xlink="http://www.w3.org/1999/xlink">
 <metadata>
  <rdf:RDF xmlns:cc="http://creativecommons.org/ns#" xmlns:dc="http://purl.org/dc/elements/1.1/" xmlns:rdf="http://www.w3.org/1999/02/22-rdf-syntax-ns#">
   <cc:Work>
    <dc:type rdf:resource="http://purl.org/dc/dcmitype/StillImage"/>
    <dc:date>2022-08-12T16:11:45.858241</dc:date>
    <dc:format>image/svg+xml</dc:format>
    <dc:creator>
     <cc:Agent>
      <dc:title>Matplotlib v3.3.4, https://matplotlib.org/</dc:title>
     </cc:Agent>
    </dc:creator>
   </cc:Work>
  </rdf:RDF>
 </metadata>
 <defs>
  <style type="text/css">*{stroke-linecap:butt;stroke-linejoin:round;}</style>
 </defs>
 <g id="figure_1">
  <g id="patch_1">
   <path d="M 0 345.6 
L 460.8 345.6 
L 460.8 0 
L 0 0 
z
" style="fill:#ffffff;"/>
  </g>
  <g id="axes_1">
   <g id="patch_2">
    <path d="M 57.6 307.584 
L 414.72 307.584 
L 414.72 41.472 
L 57.6 41.472 
z
" style="fill:#ffffff;"/>
   </g>
   <g id="matplotlib.axis_1">
    <g id="xtick_1">
     <g id="line2d_1">
      <path clip-path="url(#p4f762bfeca)" d="M 71.927797 307.584 
L 71.927797 41.472 
" style="fill:none;stroke:#b0b0b0;stroke-linecap:square;stroke-width:0.8;"/>
     </g>
     <g id="line2d_2">
      <defs>
       <path d="M 0 0 
L 0 3.5 
" id="m2e0f9a1e7d" style="stroke:#000000;stroke-width:0.8;"/>
      </defs>
      <g>
       <use style="stroke:#000000;stroke-width:0.8;" x="71.927797" xlink:href="#m2e0f9a1e7d" y="307.584"/>
      </g>
     </g>
     <g id="text_1">
      <!-- 0 -->
      <g transform="translate(68.746547 322.182437)scale(0.1 -0.1)">
       <defs>
        <path d="M 31.78125 3.421875 
Q 39.265625 3.421875 42.96875 11.625 
Q 46.6875 19.828125 46.6875 36.375 
Q 46.6875 52.984375 42.96875 61.1875 
Q 39.265625 69.390625 31.78125 69.390625 
Q 24.3125 69.390625 20.59375 61.1875 
Q 16.890625 52.984375 16.890625 36.375 
Q 16.890625 19.828125 20.59375 11.625 
Q 24.3125 3.421875 31.78125 3.421875 
z
M 31.78125 -1.421875 
Q 19.921875 -1.421875 13.25 8.53125 
Q 6.59375 18.5 6.59375 36.375 
Q 6.59375 54.296875 13.25 64.25 
Q 19.921875 74.21875 31.78125 74.21875 
Q 43.703125 74.21875 50.34375 64.25 
Q 56.984375 54.296875 56.984375 36.375 
Q 56.984375 18.5 50.34375 8.53125 
Q 43.703125 -1.421875 31.78125 -1.421875 
z
" id="DejaVuSerif-48"/>
       </defs>
       <use xlink:href="#DejaVuSerif-48"/>
      </g>
     </g>
    </g>
    <g id="xtick_2">
     <g id="line2d_3">
      <path clip-path="url(#p4f762bfeca)" d="M 126.354376 307.584 
L 126.354376 41.472 
" style="fill:none;stroke:#b0b0b0;stroke-linecap:square;stroke-width:0.8;"/>
     </g>
     <g id="line2d_4">
      <g>
       <use style="stroke:#000000;stroke-width:0.8;" x="126.354376" xlink:href="#m2e0f9a1e7d" y="307.584"/>
      </g>
     </g>
     <g id="text_2">
      <!-- 100 -->
      <g transform="translate(116.810626 322.182437)scale(0.1 -0.1)">
       <defs>
        <path d="M 14.203125 0 
L 14.203125 5.171875 
L 26.90625 5.171875 
L 26.90625 65.828125 
L 12.203125 56.296875 
L 12.203125 62.703125 
L 29.984375 74.21875 
L 36.71875 74.21875 
L 36.71875 5.171875 
L 49.421875 5.171875 
L 49.421875 0 
z
" id="DejaVuSerif-49"/>
       </defs>
       <use xlink:href="#DejaVuSerif-49"/>
       <use x="63.623047" xlink:href="#DejaVuSerif-48"/>
       <use x="127.246094" xlink:href="#DejaVuSerif-48"/>
      </g>
     </g>
    </g>
    <g id="xtick_3">
     <g id="line2d_5">
      <path clip-path="url(#p4f762bfeca)" d="M 180.780956 307.584 
L 180.780956 41.472 
" style="fill:none;stroke:#b0b0b0;stroke-linecap:square;stroke-width:0.8;"/>
     </g>
     <g id="line2d_6">
      <g>
       <use style="stroke:#000000;stroke-width:0.8;" x="180.780956" xlink:href="#m2e0f9a1e7d" y="307.584"/>
      </g>
     </g>
     <g id="text_3">
      <!-- 200 -->
      <g transform="translate(171.237206 322.182437)scale(0.1 -0.1)">
       <defs>
        <path d="M 12.796875 55.515625 
L 7.328125 55.515625 
L 7.328125 68.5 
Q 12.546875 71.296875 17.84375 72.75 
Q 23.140625 74.21875 28.21875 74.21875 
Q 39.59375 74.21875 46.1875 68.703125 
Q 52.78125 63.1875 52.78125 53.71875 
Q 52.78125 43.015625 37.84375 28.125 
Q 36.671875 27 36.078125 26.421875 
L 17.671875 8.015625 
L 48.09375 8.015625 
L 48.09375 17 
L 53.8125 17 
L 53.8125 0 
L 6.78125 0 
L 6.78125 5.328125 
L 28.90625 27.390625 
Q 36.234375 34.71875 39.359375 40.84375 
Q 42.484375 46.96875 42.484375 53.71875 
Q 42.484375 61.078125 38.640625 65.234375 
Q 34.8125 69.390625 28.078125 69.390625 
Q 21.09375 69.390625 17.28125 65.921875 
Q 13.484375 62.453125 12.796875 55.515625 
z
" id="DejaVuSerif-50"/>
       </defs>
       <use xlink:href="#DejaVuSerif-50"/>
       <use x="63.623047" xlink:href="#DejaVuSerif-48"/>
       <use x="127.246094" xlink:href="#DejaVuSerif-48"/>
      </g>
     </g>
    </g>
    <g id="xtick_4">
     <g id="line2d_7">
      <path clip-path="url(#p4f762bfeca)" d="M 235.207535 307.584 
L 235.207535 41.472 
" style="fill:none;stroke:#b0b0b0;stroke-linecap:square;stroke-width:0.8;"/>
     </g>
     <g id="line2d_8">
      <g>
       <use style="stroke:#000000;stroke-width:0.8;" x="235.207535" xlink:href="#m2e0f9a1e7d" y="307.584"/>
      </g>
     </g>
     <g id="text_4">
      <!-- 300 -->
      <g transform="translate(225.663785 322.182437)scale(0.1 -0.1)">
       <defs>
        <path d="M 9.71875 69.828125 
Q 15.4375 71.96875 20.671875 73.09375 
Q 25.921875 74.21875 30.515625 74.21875 
Q 41.21875 74.21875 47.21875 69.59375 
Q 53.21875 64.984375 53.21875 56.78125 
Q 53.21875 50.203125 49.0625 45.78125 
Q 44.921875 41.359375 37.3125 39.796875 
Q 46.296875 38.53125 51.25 33.28125 
Q 56.203125 28.03125 56.203125 19.671875 
Q 56.203125 9.46875 49.34375 4.015625 
Q 42.484375 -1.421875 29.59375 -1.421875 
Q 23.875 -1.421875 18.421875 -0.1875 
Q 12.984375 1.03125 7.625 3.515625 
L 7.625 17.671875 
L 13.09375 17.671875 
Q 13.578125 10.640625 17.828125 7.03125 
Q 22.078125 3.421875 29.78125 3.421875 
Q 37.25 3.421875 41.578125 7.734375 
Q 45.90625 12.0625 45.90625 19.578125 
Q 45.90625 28.171875 41.453125 32.59375 
Q 37.015625 37.015625 28.421875 37.015625 
L 23.78125 37.015625 
L 23.78125 42 
L 26.21875 42 
Q 34.765625 42 39.03125 45.53125 
Q 43.3125 49.078125 43.3125 56.203125 
Q 43.3125 62.59375 39.796875 65.984375 
Q 36.28125 69.390625 29.6875 69.390625 
Q 23.09375 69.390625 19.453125 66.265625 
Q 15.828125 63.140625 15.1875 56.984375 
L 9.71875 56.984375 
z
" id="DejaVuSerif-51"/>
       </defs>
       <use xlink:href="#DejaVuSerif-51"/>
       <use x="63.623047" xlink:href="#DejaVuSerif-48"/>
       <use x="127.246094" xlink:href="#DejaVuSerif-48"/>
      </g>
     </g>
    </g>
    <g id="xtick_5">
     <g id="line2d_9">
      <path clip-path="url(#p4f762bfeca)" d="M 289.634114 307.584 
L 289.634114 41.472 
" style="fill:none;stroke:#b0b0b0;stroke-linecap:square;stroke-width:0.8;"/>
     </g>
     <g id="line2d_10">
      <g>
       <use style="stroke:#000000;stroke-width:0.8;" x="289.634114" xlink:href="#m2e0f9a1e7d" y="307.584"/>
      </g>
     </g>
     <g id="text_5">
      <!-- 400 -->
      <g transform="translate(280.090364 322.182437)scale(0.1 -0.1)">
       <defs>
        <path d="M 34.90625 24.703125 
L 34.90625 63.484375 
L 10.015625 24.703125 
z
M 56.390625 0 
L 23.1875 0 
L 23.1875 5.171875 
L 34.90625 5.171875 
L 34.90625 19.484375 
L 3.078125 19.484375 
L 3.078125 24.8125 
L 35.015625 74.21875 
L 44.671875 74.21875 
L 44.671875 24.703125 
L 58.59375 24.703125 
L 58.59375 19.484375 
L 44.671875 19.484375 
L 44.671875 5.171875 
L 56.390625 5.171875 
z
" id="DejaVuSerif-52"/>
       </defs>
       <use xlink:href="#DejaVuSerif-52"/>
       <use x="63.623047" xlink:href="#DejaVuSerif-48"/>
       <use x="127.246094" xlink:href="#DejaVuSerif-48"/>
      </g>
     </g>
    </g>
    <g id="xtick_6">
     <g id="line2d_11">
      <path clip-path="url(#p4f762bfeca)" d="M 344.060693 307.584 
L 344.060693 41.472 
" style="fill:none;stroke:#b0b0b0;stroke-linecap:square;stroke-width:0.8;"/>
     </g>
     <g id="line2d_12">
      <g>
       <use style="stroke:#000000;stroke-width:0.8;" x="344.060693" xlink:href="#m2e0f9a1e7d" y="307.584"/>
      </g>
     </g>
     <g id="text_6">
      <!-- 500 -->
      <g transform="translate(334.516943 322.182437)scale(0.1 -0.1)">
       <defs>
        <path d="M 50.296875 72.90625 
L 50.296875 64.890625 
L 16.890625 64.890625 
L 16.890625 44 
Q 19.4375 45.75 22.828125 46.625 
Q 26.21875 47.515625 30.421875 47.515625 
Q 42.234375 47.515625 49.0625 40.96875 
Q 55.90625 34.421875 55.90625 23.09375 
Q 55.90625 11.53125 49 5.046875 
Q 42.09375 -1.421875 29.59375 -1.421875 
Q 24.5625 -1.421875 19.28125 -0.1875 
Q 14.015625 1.03125 8.5 3.515625 
L 8.5 17.671875 
L 14.015625 17.671875 
Q 14.453125 10.75 18.421875 7.078125 
Q 22.40625 3.421875 29.59375 3.421875 
Q 37.3125 3.421875 41.453125 8.5 
Q 45.609375 13.578125 45.609375 23.09375 
Q 45.609375 32.5625 41.484375 37.609375 
Q 37.359375 42.671875 29.59375 42.671875 
Q 25.203125 42.671875 21.84375 41.109375 
Q 18.5 39.546875 15.921875 36.28125 
L 11.71875 36.28125 
L 11.71875 72.90625 
z
" id="DejaVuSerif-53"/>
       </defs>
       <use xlink:href="#DejaVuSerif-53"/>
       <use x="63.623047" xlink:href="#DejaVuSerif-48"/>
       <use x="127.246094" xlink:href="#DejaVuSerif-48"/>
      </g>
     </g>
    </g>
    <g id="xtick_7">
     <g id="line2d_13">
      <path clip-path="url(#p4f762bfeca)" d="M 398.487273 307.584 
L 398.487273 41.472 
" style="fill:none;stroke:#b0b0b0;stroke-linecap:square;stroke-width:0.8;"/>
     </g>
     <g id="line2d_14">
      <g>
       <use style="stroke:#000000;stroke-width:0.8;" x="398.487273" xlink:href="#m2e0f9a1e7d" y="307.584"/>
      </g>
     </g>
     <g id="text_7">
      <!-- 600 -->
      <g transform="translate(388.943523 322.182437)scale(0.1 -0.1)">
       <defs>
        <path d="M 32.71875 3.421875 
Q 39.59375 3.421875 43.296875 8.46875 
Q 47.015625 13.53125 47.015625 23 
Q 47.015625 32.46875 43.296875 37.515625 
Q 39.59375 42.578125 32.71875 42.578125 
Q 25.734375 42.578125 22.0625 37.6875 
Q 18.40625 32.8125 18.40625 23.578125 
Q 18.40625 13.875 22.109375 8.640625 
Q 25.828125 3.421875 32.71875 3.421875 
z
M 16.796875 40.140625 
Q 20.125 43.796875 24.3125 45.59375 
Q 28.515625 47.40625 33.796875 47.40625 
Q 44.671875 47.40625 51 40.859375 
Q 57.328125 34.328125 57.328125 23 
Q 57.328125 11.921875 50.515625 5.25 
Q 43.703125 -1.421875 32.328125 -1.421875 
Q 19.96875 -1.421875 13.328125 7.78125 
Q 6.6875 17 6.6875 34.078125 
Q 6.6875 53.21875 14.546875 63.71875 
Q 22.40625 74.21875 36.71875 74.21875 
Q 40.578125 74.21875 44.828125 73.484375 
Q 49.078125 72.75 53.515625 71.296875 
L 53.515625 59.28125 
L 48 59.28125 
Q 47.40625 64.203125 44.234375 66.796875 
Q 41.0625 69.390625 35.6875 69.390625 
Q 26.21875 69.390625 21.578125 62.203125 
Q 16.9375 55.03125 16.796875 40.140625 
z
" id="DejaVuSerif-54"/>
       </defs>
       <use xlink:href="#DejaVuSerif-54"/>
       <use x="63.623047" xlink:href="#DejaVuSerif-48"/>
       <use x="127.246094" xlink:href="#DejaVuSerif-48"/>
      </g>
     </g>
    </g>
    <g id="text_8">
     <!-- Time -->
     <g transform="translate(214.680234 341.179469)scale(0.17 -0.17)">
      <defs>
       <path d="M 19.09375 0 
L 19.09375 5.171875 
L 28.421875 5.171875 
L 28.421875 67.09375 
L 6.984375 67.09375 
L 6.984375 55.71875 
L 0.984375 55.71875 
L 0.984375 72.90625 
L 65.71875 72.90625 
L 65.71875 55.71875 
L 59.71875 55.71875 
L 59.71875 67.09375 
L 38.28125 67.09375 
L 38.28125 5.171875 
L 47.609375 5.171875 
L 47.609375 0 
z
" id="DejaVuSerif-84"/>
       <path d="M 9.71875 68.015625 
Q 9.71875 70.265625 11.34375 71.921875 
Q 12.984375 73.578125 15.28125 73.578125 
Q 17.53125 73.578125 19.15625 71.921875 
Q 20.796875 70.265625 20.796875 68.015625 
Q 20.796875 65.71875 19.1875 64.109375 
Q 17.578125 62.5 15.28125 62.5 
Q 12.984375 62.5 11.34375 64.109375 
Q 9.71875 65.71875 9.71875 68.015625 
z
M 21.1875 5.171875 
L 29.6875 5.171875 
L 29.6875 0 
L 3.609375 0 
L 3.609375 5.171875 
L 12.203125 5.171875 
L 12.203125 46.6875 
L 3.609375 46.6875 
L 3.609375 51.90625 
L 21.1875 51.90625 
z
" id="DejaVuSerif-105"/>
       <path d="M 51.8125 41.796875 
Q 54.390625 47.515625 58.421875 50.421875 
Q 62.453125 53.328125 67.828125 53.328125 
Q 75.984375 53.328125 79.984375 48.265625 
Q 83.984375 43.21875 83.984375 33.015625 
L 83.984375 5.171875 
L 92.09375 5.171875 
L 92.09375 0 
L 67.1875 0 
L 67.1875 5.171875 
L 75 5.171875 
L 75 31.984375 
Q 75 39.9375 72.65625 43.3125 
Q 70.3125 46.6875 64.890625 46.6875 
Q 58.890625 46.6875 55.734375 42.140625 
Q 52.59375 37.59375 52.59375 28.90625 
L 52.59375 5.171875 
L 60.40625 5.171875 
L 60.40625 0 
L 35.796875 0 
L 35.796875 5.171875 
L 43.609375 5.171875 
L 43.609375 32.328125 
Q 43.609375 40.09375 41.265625 43.390625 
Q 38.921875 46.6875 33.5 46.6875 
Q 27.484375 46.6875 24.328125 42.140625 
Q 21.1875 37.59375 21.1875 28.90625 
L 21.1875 5.171875 
L 29 5.171875 
L 29 0 
L 4.109375 0 
L 4.109375 5.171875 
L 12.203125 5.171875 
L 12.203125 46.78125 
L 3.609375 46.78125 
L 3.609375 51.90625 
L 21.1875 51.90625 
L 21.1875 42.671875 
Q 23.6875 47.859375 27.53125 50.59375 
Q 31.390625 53.328125 36.28125 53.328125 
Q 42.328125 53.328125 46.375 50.3125 
Q 50.4375 47.3125 51.8125 41.796875 
z
" id="DejaVuSerif-109"/>
       <path d="M 54.203125 25 
L 15.484375 25 
L 15.484375 24.609375 
Q 15.484375 14.109375 19.4375 8.765625 
Q 23.390625 3.421875 31.109375 3.421875 
Q 37.015625 3.421875 40.796875 6.515625 
Q 44.578125 9.625 46.09375 15.71875 
L 53.328125 15.71875 
Q 51.171875 7.171875 45.375 2.875 
Q 39.59375 -1.421875 30.171875 -1.421875 
Q 18.796875 -1.421875 11.890625 6.078125 
Q 4.984375 13.578125 4.984375 25.984375 
Q 4.984375 38.28125 11.765625 45.796875 
Q 18.5625 53.328125 29.59375 53.328125 
Q 41.359375 53.328125 47.65625 46.0625 
Q 53.953125 38.8125 54.203125 25 
z
M 43.609375 30.171875 
Q 43.3125 39.265625 39.765625 43.875 
Q 36.234375 48.484375 29.59375 48.484375 
Q 23.390625 48.484375 19.828125 43.84375 
Q 16.265625 39.203125 15.484375 30.171875 
z
" id="DejaVuSerif-101"/>
      </defs>
      <use xlink:href="#DejaVuSerif-84"/>
      <use x="66.699219" xlink:href="#DejaVuSerif-105"/>
      <use x="98.681641" xlink:href="#DejaVuSerif-109"/>
      <use x="193.505859" xlink:href="#DejaVuSerif-101"/>
     </g>
    </g>
   </g>
   <g id="matplotlib.axis_2">
    <g id="ytick_1">
     <g id="line2d_15">
      <path clip-path="url(#p4f762bfeca)" d="M 57.6 289.8432 
L 414.72 289.8432 
" style="fill:none;stroke:#b0b0b0;stroke-linecap:square;stroke-width:0.8;"/>
     </g>
     <g id="line2d_16">
      <defs>
       <path d="M 0 0 
L -3.5 0 
" id="m39afdeec55" style="stroke:#000000;stroke-width:0.8;"/>
      </defs>
      <g>
       <use style="stroke:#000000;stroke-width:0.8;" x="57.6" xlink:href="#m39afdeec55" y="289.8432"/>
      </g>
     </g>
     <g id="text_9">
      <!-- −0.2 -->
      <g transform="translate(26.317187 293.642419)scale(0.1 -0.1)">
       <defs>
        <path d="M 10.59375 35.296875 
L 73.1875 35.296875 
L 73.1875 27.390625 
L 10.59375 27.390625 
z
" id="DejaVuSerif-8722"/>
        <path d="M 9.421875 5.078125 
Q 9.421875 7.8125 11.28125 9.71875 
Q 13.140625 11.625 15.921875 11.625 
Q 18.609375 11.625 20.5 9.71875 
Q 22.40625 7.8125 22.40625 5.078125 
Q 22.40625 2.390625 20.5 0.484375 
Q 18.609375 -1.421875 15.921875 -1.421875 
Q 13.140625 -1.421875 11.28125 0.453125 
Q 9.421875 2.34375 9.421875 5.078125 
z
" id="DejaVuSerif-46"/>
       </defs>
       <use xlink:href="#DejaVuSerif-8722"/>
       <use x="83.789062" xlink:href="#DejaVuSerif-48"/>
       <use x="147.412109" xlink:href="#DejaVuSerif-46"/>
       <use x="179.199219" xlink:href="#DejaVuSerif-50"/>
      </g>
     </g>
    </g>
    <g id="ytick_2">
     <g id="line2d_17">
      <path clip-path="url(#p4f762bfeca)" d="M 57.6 254.3616 
L 414.72 254.3616 
" style="fill:none;stroke:#b0b0b0;stroke-linecap:square;stroke-width:0.8;"/>
     </g>
     <g id="line2d_18">
      <g>
       <use style="stroke:#000000;stroke-width:0.8;" x="57.6" xlink:href="#m39afdeec55" y="254.3616"/>
      </g>
     </g>
     <g id="text_10">
      <!-- −0.1 -->
      <g transform="translate(26.317187 258.160819)scale(0.1 -0.1)">
       <use xlink:href="#DejaVuSerif-8722"/>
       <use x="83.789062" xlink:href="#DejaVuSerif-48"/>
       <use x="147.412109" xlink:href="#DejaVuSerif-46"/>
       <use x="179.199219" xlink:href="#DejaVuSerif-49"/>
      </g>
     </g>
    </g>
    <g id="ytick_3">
     <g id="line2d_19">
      <path clip-path="url(#p4f762bfeca)" d="M 57.6 218.88 
L 414.72 218.88 
" style="fill:none;stroke:#b0b0b0;stroke-linecap:square;stroke-width:0.8;"/>
     </g>
     <g id="line2d_20">
      <g>
       <use style="stroke:#000000;stroke-width:0.8;" x="57.6" xlink:href="#m39afdeec55" y="218.88"/>
      </g>
     </g>
     <g id="text_11">
      <!-- 0.0 -->
      <g transform="translate(34.696875 222.679219)scale(0.1 -0.1)">
       <use xlink:href="#DejaVuSerif-48"/>
       <use x="63.623047" xlink:href="#DejaVuSerif-46"/>
       <use x="95.410156" xlink:href="#DejaVuSerif-48"/>
      </g>
     </g>
    </g>
    <g id="ytick_4">
     <g id="line2d_21">
      <path clip-path="url(#p4f762bfeca)" d="M 57.6 183.3984 
L 414.72 183.3984 
" style="fill:none;stroke:#b0b0b0;stroke-linecap:square;stroke-width:0.8;"/>
     </g>
     <g id="line2d_22">
      <g>
       <use style="stroke:#000000;stroke-width:0.8;" x="57.6" xlink:href="#m39afdeec55" y="183.3984"/>
      </g>
     </g>
     <g id="text_12">
      <!-- 0.1 -->
      <g transform="translate(34.696875 187.197619)scale(0.1 -0.1)">
       <use xlink:href="#DejaVuSerif-48"/>
       <use x="63.623047" xlink:href="#DejaVuSerif-46"/>
       <use x="95.410156" xlink:href="#DejaVuSerif-49"/>
      </g>
     </g>
    </g>
    <g id="ytick_5">
     <g id="line2d_23">
      <path clip-path="url(#p4f762bfeca)" d="M 57.6 147.9168 
L 414.72 147.9168 
" style="fill:none;stroke:#b0b0b0;stroke-linecap:square;stroke-width:0.8;"/>
     </g>
     <g id="line2d_24">
      <g>
       <use style="stroke:#000000;stroke-width:0.8;" x="57.6" xlink:href="#m39afdeec55" y="147.9168"/>
      </g>
     </g>
     <g id="text_13">
      <!-- 0.2 -->
      <g transform="translate(34.696875 151.716019)scale(0.1 -0.1)">
       <use xlink:href="#DejaVuSerif-48"/>
       <use x="63.623047" xlink:href="#DejaVuSerif-46"/>
       <use x="95.410156" xlink:href="#DejaVuSerif-50"/>
      </g>
     </g>
    </g>
    <g id="ytick_6">
     <g id="line2d_25">
      <path clip-path="url(#p4f762bfeca)" d="M 57.6 112.4352 
L 414.72 112.4352 
" style="fill:none;stroke:#b0b0b0;stroke-linecap:square;stroke-width:0.8;"/>
     </g>
     <g id="line2d_26">
      <g>
       <use style="stroke:#000000;stroke-width:0.8;" x="57.6" xlink:href="#m39afdeec55" y="112.4352"/>
      </g>
     </g>
     <g id="text_14">
      <!-- 0.3 -->
      <g transform="translate(34.696875 116.234419)scale(0.1 -0.1)">
       <use xlink:href="#DejaVuSerif-48"/>
       <use x="63.623047" xlink:href="#DejaVuSerif-46"/>
       <use x="95.410156" xlink:href="#DejaVuSerif-51"/>
      </g>
     </g>
    </g>
    <g id="ytick_7">
     <g id="line2d_27">
      <path clip-path="url(#p4f762bfeca)" d="M 57.6 76.9536 
L 414.72 76.9536 
" style="fill:none;stroke:#b0b0b0;stroke-linecap:square;stroke-width:0.8;"/>
     </g>
     <g id="line2d_28">
      <g>
       <use style="stroke:#000000;stroke-width:0.8;" x="57.6" xlink:href="#m39afdeec55" y="76.9536"/>
      </g>
     </g>
     <g id="text_15">
      <!-- 0.4 -->
      <g transform="translate(34.696875 80.752819)scale(0.1 -0.1)">
       <use xlink:href="#DejaVuSerif-48"/>
       <use x="63.623047" xlink:href="#DejaVuSerif-46"/>
       <use x="95.410156" xlink:href="#DejaVuSerif-52"/>
      </g>
     </g>
    </g>
    <g id="ytick_8">
     <g id="line2d_29">
      <path clip-path="url(#p4f762bfeca)" d="M 57.6 41.472 
L 414.72 41.472 
" style="fill:none;stroke:#b0b0b0;stroke-linecap:square;stroke-width:0.8;"/>
     </g>
     <g id="line2d_30">
      <g>
       <use style="stroke:#000000;stroke-width:0.8;" x="57.6" xlink:href="#m39afdeec55" y="41.472"/>
      </g>
     </g>
     <g id="text_16">
      <!-- 0.5 -->
      <g transform="translate(34.696875 45.271219)scale(0.1 -0.1)">
       <use xlink:href="#DejaVuSerif-48"/>
       <use x="63.623047" xlink:href="#DejaVuSerif-46"/>
       <use x="95.410156" xlink:href="#DejaVuSerif-53"/>
      </g>
     </g>
    </g>
    <g id="text_17">
     <!-- Speed -->
     <g transform="translate(18.781719 201.295031)rotate(-90)scale(0.17 -0.17)">
      <defs>
       <path d="M 9.28125 3.515625 
L 9.28125 20.125 
L 14.890625 20.0625 
Q 15.140625 11.765625 19.703125 7.78125 
Q 24.265625 3.8125 33.59375 3.8125 
Q 42.28125 3.8125 46.84375 7.25 
Q 51.421875 10.6875 51.421875 17.28125 
Q 51.421875 22.5625 48.65625 25.390625 
Q 45.90625 28.21875 37.015625 30.90625 
L 27.390625 33.796875 
Q 16.9375 36.96875 12.671875 41.703125 
Q 8.40625 46.4375 8.40625 54.6875 
Q 8.40625 63.96875 14.984375 69.09375 
Q 21.578125 74.21875 33.5 74.21875 
Q 38.578125 74.21875 44.625 73.109375 
Q 50.6875 72.015625 57.515625 69.921875 
L 57.515625 54.390625 
L 52 54.390625 
Q 51.171875 62.109375 46.84375 65.546875 
Q 42.53125 69 33.6875 69 
Q 25.984375 69 21.953125 65.84375 
Q 17.921875 62.703125 17.921875 56.6875 
Q 17.921875 51.46875 20.9375 48.484375 
Q 23.96875 45.515625 33.796875 42.578125 
L 42.828125 39.890625 
Q 52.734375 36.921875 56.953125 32.296875 
Q 61.1875 27.6875 61.1875 19.921875 
Q 61.1875 9.328125 54.390625 3.953125 
Q 47.609375 -1.421875 34.1875 -1.421875 
Q 28.171875 -1.421875 21.9375 -0.1875 
Q 15.71875 1.03125 9.28125 3.515625 
z
" id="DejaVuSerif-83"/>
       <path d="M 20.515625 28.515625 
L 20.515625 23.390625 
Q 20.515625 14.015625 24.09375 9.109375 
Q 27.6875 4.203125 34.515625 4.203125 
Q 41.40625 4.203125 44.9375 9.71875 
Q 48.484375 15.234375 48.484375 25.984375 
Q 48.484375 36.765625 44.9375 42.234375 
Q 41.40625 47.703125 34.515625 47.703125 
Q 27.6875 47.703125 24.09375 42.765625 
Q 20.515625 37.84375 20.515625 28.515625 
z
M 11.53125 46.6875 
L 2.875 46.6875 
L 2.875 51.90625 
L 20.515625 51.90625 
L 20.515625 43.796875 
Q 23.140625 48.6875 27.21875 51 
Q 31.296875 53.328125 37.3125 53.328125 
Q 46.875 53.328125 52.921875 45.75 
Q 58.984375 38.1875 58.984375 25.984375 
Q 58.984375 13.765625 52.921875 6.171875 
Q 46.875 -1.421875 37.3125 -1.421875 
Q 31.296875 -1.421875 27.21875 0.890625 
Q 23.140625 3.21875 20.515625 8.109375 
L 20.515625 -15.578125 
L 29 -15.578125 
L 29 -20.796875 
L 2.875 -20.796875 
L 2.875 -15.578125 
L 11.53125 -15.578125 
z
" id="DejaVuSerif-112"/>
       <path d="M 52.484375 5.171875 
L 61.078125 5.171875 
L 61.078125 0 
L 43.5 0 
L 43.5 8.109375 
Q 40.875 3.21875 36.796875 0.890625 
Q 32.71875 -1.421875 26.703125 -1.421875 
Q 17.140625 -1.421875 11.0625 6.171875 
Q 4.984375 13.765625 4.984375 25.984375 
Q 4.984375 38.1875 11.03125 45.75 
Q 17.09375 53.328125 26.703125 53.328125 
Q 32.71875 53.328125 36.796875 51 
Q 40.875 48.6875 43.5 43.796875 
L 43.5 70.796875 
L 35.015625 70.796875 
L 35.015625 75.984375 
L 52.484375 75.984375 
z
M 43.5 23.390625 
L 43.5 28.515625 
Q 43.5 37.84375 39.90625 42.765625 
Q 36.328125 47.703125 29.5 47.703125 
Q 22.5625 47.703125 19.015625 42.234375 
Q 15.484375 36.765625 15.484375 25.984375 
Q 15.484375 15.234375 19.015625 9.71875 
Q 22.5625 4.203125 29.5 4.203125 
Q 36.328125 4.203125 39.90625 9.109375 
Q 43.5 14.015625 43.5 23.390625 
z
" id="DejaVuSerif-100"/>
      </defs>
      <use xlink:href="#DejaVuSerif-83"/>
      <use x="68.505859" xlink:href="#DejaVuSerif-112"/>
      <use x="132.519531" xlink:href="#DejaVuSerif-101"/>
      <use x="191.699219" xlink:href="#DejaVuSerif-101"/>
      <use x="250.878906" xlink:href="#DejaVuSerif-100"/>
     </g>
    </g>
   </g>
   <g id="LineCollection_1">
    <path clip-path="url(#p4f762bfeca)" d="M 73.832727 218.88 
L 398.487273 218.88 
" style="fill:none;stroke:#696969;stroke-width:1.5;"/>
   </g>
   <g id="line2d_31">
    <path clip-path="url(#p4f762bfeca)" d="M 73.832727 218.88 
L 75.645132 218.88 
L 75.721583 -1 
M 76.526713 -1 
L 76.554056 5.9904 
L 76.733664 218.88 
L 83.357379 218.88 
L 83.536986 133.72416 
L 83.722037 133.72416 
L 83.901644 136.999385 
L 84.173777 136.999385 
L 84.353385 140.032 
L 84.625518 140.032 
L 84.810568 142.848 
L 85.082701 142.848 
L 85.262309 145.469793 
L 85.534442 145.469793 
L 85.71405 147.9168 
L 85.986182 147.9168 
L 86.171233 150.205935 
L 86.350841 218.88 
L 91.156707 218.88 
L 91.341758 168.192 
L 91.42884 168.192 
L 91.613891 169.370791 
L 91.886024 169.370791 
L 92.065631 170.496 
L 92.337764 170.496 
L 92.517372 171.5712 
L 92.789505 171.5712 
L 92.974555 172.599652 
L 93.246688 172.599652 
L 93.426296 173.58434 
L 93.698429 173.58434 
L 93.878036 174.528 
L 94.150169 174.528 
L 94.33522 175.433143 
L 94.607353 175.433143 
L 94.78696 176.30208 
L 95.059093 176.30208 
L 95.238701 177.136941 
L 95.510834 177.136941 
L 95.695884 177.939692 
L 95.875492 177.939692 
L 96.0551 218.88 
L 98.961479 218.88 
L 99.141087 182.797017 
L 99.320694 183.3984 
L 99.592827 183.3984 
L 99.777878 183.980066 
L 100.050011 183.980066 
L 100.229618 184.542968 
L 100.501751 184.542968 
L 100.681359 185.088 
L 100.953492 185.088 
L 101.138542 185.616 
L 101.410675 185.616 
L 101.590283 186.127754 
L 101.862416 186.127754 
L 102.042023 186.624 
L 102.314156 186.624 
L 102.499207 187.105433 
L 102.771339 187.105433 
L 102.950947 187.572706 
L 103.22308 187.572706 
L 103.402688 188.026435 
L 103.674821 188.026435 
L 103.859871 188.4672 
L 104.132004 188.4672 
L 104.311612 188.895549 
L 104.583745 188.895549 
L 104.763352 189.312 
L 105.035485 189.312 
L 105.220536 189.717041 
L 105.492668 189.717041 
L 105.672276 190.111135 
L 105.851884 218.88 
L 106.760808 218.88 
L 106.853333 190.868211 
L 106.940415 191.232 
L 107.305074 191.232 
L 107.484681 191.586462 
L 107.756814 191.586462 
L 107.941865 191.931949 
L 108.213997 191.931949 
L 108.393605 192.2688 
L 108.665738 192.2688 
L 108.845346 192.597333 
L 109.117479 192.597333 
L 109.302529 192.917854 
L 109.574662 192.917854 
L 109.75427 193.230651 
L 110.026402 193.230651 
L 110.20601 193.536 
L 110.478143 193.536 
L 110.663193 193.834165 
L 110.935326 193.834165 
L 111.114934 194.125395 
L 111.387067 194.125395 
L 111.566675 194.409931 
L 111.838808 194.409931 
L 112.023858 194.688 
L 112.295991 194.688 
L 112.475599 194.95982 
L 112.747731 194.95982 
L 112.927339 195.2256 
L 113.199472 195.2256 
L 113.384522 195.485538 
L 113.656655 195.485538 
L 113.836263 195.739826 
L 114.108396 195.739826 
L 114.288004 195.988645 
L 114.560137 195.988645 
L 114.745187 173.58434 
L 115.01732 173.58434 
L 115.196928 174.061137 
L 115.376535 174.061137 
L 115.561586 196.704 
L 115.920801 196.704 
L 116.105851 196.932619 
L 116.377984 196.932619 
L 116.557592 197.156571 
L 116.829725 197.156571 
L 117.009333 197.376 
L 117.281466 197.376 
L 117.466516 197.59104 
L 117.738649 197.59104 
L 117.918256 197.801822 
L 118.190389 197.801822 
L 118.369997 198.008471 
L 118.64213 198.008471 
L 118.82718 198.211107 
L 119.099313 198.211107 
L 119.278921 198.409846 
L 119.551054 198.409846 
L 119.730662 198.6048 
L 120.002794 198.6048 
L 120.187845 198.796075 
L 120.459978 198.796075 
L 120.639585 198.983776 
L 120.911718 198.983776 
L 121.091326 199.168 
L 121.363459 199.168 
L 121.548509 199.348844 
L 121.820642 199.348844 
L 122.00025 199.5264 
L 122.272383 199.5264 
L 122.364908 199.700757 
L 122.544516 180.521514 
L 122.724123 180.521514 
L 122.909174 180.864 
L 123.181307 180.864 
L 123.360914 181.200425 
L 123.633047 181.200425 
L 123.812655 181.530947 
L 124.084788 181.530947 
L 124.269838 181.855722 
L 124.541971 181.855722 
L 124.721579 182.174897 
L 124.993712 182.174897 
L 125.17332 182.488615 
L 125.35837 200.684308 
L 125.445452 200.684308 
L 125.630503 200.838508 
L 125.902636 200.838508 
L 126.082243 200.990118 
L 126.354376 200.990118 
L 126.533984 201.1392 
L 126.806117 201.1392 
L 126.991167 201.285818 
L 127.2633 201.285818 
L 127.442908 201.430033 
L 127.715041 201.430033 
L 127.894648 201.571902 
L 128.166781 201.571902 
L 128.351832 201.711484 
L 128.623965 201.711484 
L 128.803572 201.848832 
L 129.075705 201.848832 
L 129.255313 201.984 
L 129.527446 201.984 
L 129.712496 202.117039 
L 129.984629 202.117039 
L 130.164237 202.248 
L 130.343845 185.616 
L 130.43637 185.616 
L 130.615977 185.87386 
L 130.88811 185.87386 
L 131.073161 186.127754 
L 131.345294 186.127754 
L 131.524901 186.377771 
L 131.797034 186.377771 
L 131.976642 186.624 
L 132.248775 186.624 
L 132.433825 186.866526 
L 132.705958 186.866526 
L 132.885566 187.105433 
L 133.157699 187.105433 
L 133.337306 187.3408 
L 133.609439 187.3408 
L 133.79449 187.572706 
L 134.066623 187.572706 
L 134.24623 187.801226 
L 134.518363 187.801226 
L 134.697971 188.026435 
L 134.883021 188.026435 
L 135.062629 203.564201 
L 135.879028 203.6736 
L 136.058635 203.781447 
L 136.787952 203.887775 
L 136.967559 203.992615 
L 137.691433 204.096 
L 137.876483 204.197959 
L 137.963566 204.197959 
L 138.148616 189.515917 
L 138.328224 189.717041 
L 138.600357 189.717041 
L 138.779964 189.915429 
L 139.052097 189.915429 
L 139.237148 190.111135 
L 139.50928 190.111135 
L 139.688888 190.304215 
L 139.961021 190.304215 
L 140.140629 190.49472 
L 140.412762 190.49472 
L 140.597812 190.682702 
L 140.869945 190.682702 
L 141.049553 190.868211 
L 141.321686 190.868211 
L 141.501293 191.051294 
L 141.773426 191.051294 
L 141.958477 191.232 
L 142.230609 191.232 
L 142.410217 191.410374 
L 142.68235 191.410374 
L 142.861958 191.586462 
L 143.134091 191.586462 
L 143.319141 191.760306 
L 143.591274 191.760306 
L 143.770882 191.931949 
L 144.043015 191.931949 
L 144.222622 192.101434 
L 144.494755 192.101434 
L 144.679806 192.2688 
L 144.859413 205.5744 
L 145.403679 205.657043 
L 145.583287 205.738667 
L 145.768337 205.738667 
L 145.85542 192.597333 
L 145.947945 192.758577 
L 146.312603 192.758577 
L 146.492211 192.917854 
L 146.764344 192.917854 
L 146.943951 193.0752 
L 147.216084 193.0752 
L 147.401134 193.230651 
L 147.673267 193.230651 
L 147.852875 193.38424 
L 148.125008 193.38424 
L 148.304616 193.536 
L 148.576749 193.536 
L 148.761799 193.685964 
L 149.033932 193.685964 
L 149.21354 193.834165 
L 149.485672 193.834165 
L 149.66528 193.980632 
L 149.937413 193.980632 
L 150.122463 194.125395 
L 150.394596 194.125395 
L 150.574204 194.268486 
L 150.846337 194.268486 
L 151.025945 194.409931 
L 151.298078 194.409931 
L 151.483128 194.54976 
L 151.755261 194.54976 
L 151.934869 194.688 
L 152.207001 194.688 
L 152.386609 194.824678 
L 152.658742 194.824678 
L 152.843792 194.95982 
L 153.115925 194.95982 
L 153.295533 195.093453 
L 153.567666 195.093453 
L 153.747274 183.3984 
L 154.019407 183.3984 
L 154.204457 183.594431 
L 154.384065 183.594431 
L 154.563672 195.485538 
L 154.92833 195.485538 
L 155.107938 195.613377 
L 155.380071 195.613377 
L 155.565121 195.739826 
L 155.837254 195.739826 
L 156.016862 195.864908 
L 156.288995 195.864908 
L 156.468603 195.988645 
L 156.740736 195.988645 
L 156.925786 196.111059 
L 157.197919 196.111059 
L 157.377526 196.23217 
L 157.649659 196.23217 
L 157.829267 196.352 
L 158.1014 196.352 
L 158.28645 196.470568 
L 158.558583 196.470568 
L 158.738191 196.587895 
L 159.010324 196.587895 
L 159.189932 196.704 
L 159.462064 196.704 
L 159.647115 196.818902 
L 159.919248 196.818902 
L 160.098855 196.932619 
L 160.370988 196.932619 
L 160.550596 197.045169 
L 160.822729 197.045169 
L 161.007779 197.156571 
L 161.366995 197.266843 
L 161.552045 186.460264 
L 161.731653 186.460264 
L 161.911261 186.624 
L 162.183393 186.624 
L 162.368444 186.78609 
L 162.640577 186.78609 
L 162.820184 186.94656 
L 163.092317 186.94656 
L 163.271925 187.105433 
L 163.544058 187.105433 
L 163.729108 187.262733 
L 164.001241 187.262733 
L 164.180849 187.418483 
L 164.360457 197.905655 
L 164.904722 198.008471 
L 165.089773 198.110283 
L 165.813646 198.211107 
L 165.993254 198.310957 
L 166.72257 198.409846 
L 166.902178 198.507789 
L 167.626051 198.6048 
L 167.811102 198.700891 
L 168.534975 198.796075 
L 168.714583 198.890366 
L 169.171766 198.983776 
L 169.351374 189.035664 
L 169.443899 189.035664 
L 169.623507 189.174474 
L 169.89564 189.174474 
L 170.075247 189.312 
L 170.34738 189.312 
L 170.532431 189.448258 
L 170.804564 189.448258 
L 170.984171 189.583266 
L 171.256304 189.583266 
L 171.435912 189.717041 
L 171.708045 189.717041 
L 171.893095 189.8496 
L 172.165228 189.8496 
L 172.344836 189.980959 
L 172.616969 189.980959 
L 172.796576 190.111135 
L 173.068709 190.111135 
L 173.25376 190.240143 
L 173.525893 190.240143 
L 173.7055 190.368 
L 173.885108 190.368 
L 174.070158 199.95648 
L 174.886557 200.040212 
L 175.066165 200.123207 
L 175.790038 200.205474 
L 175.975089 200.287022 
L 176.698962 200.367861 
L 176.87857 200.448 
L 176.971095 200.448 
L 177.150703 191.232 
L 177.335753 191.351172 
L 177.607886 191.351172 
L 177.787494 191.469322 
L 178.059627 191.469322 
L 178.239234 191.586462 
L 178.511367 191.586462 
L 178.696418 191.702604 
L 178.96855 191.702604 
L 179.148158 191.817763 
L 179.420291 191.817763 
L 179.599899 191.931949 
L 179.872032 191.931949 
L 180.057082 192.045176 
L 180.329215 192.045176 
L 180.508823 192.157456 
L 180.780956 192.157456 
L 180.960563 192.2688 
L 181.689879 192.37922 
L 181.869487 192.488727 
L 182.593361 192.597333 
L 182.778411 192.705049 
L 183.502285 192.811886 
L 183.681892 192.917854 
L 183.866943 201.571902 
L 184.411208 201.641976 
L 184.590816 201.711484 
L 184.770424 201.711484 
L 184.862949 193.127226 
L 184.955474 193.230651 
L 185.771873 193.333248 
L 185.951481 193.435028 
L 186.675354 193.536 
L 186.860404 193.636174 
L 187.584278 193.735559 
L 187.763886 193.834165 
L 188.493202 193.932 
L 188.67281 194.029074 
L 189.396683 194.125395 
L 189.581733 194.220973 
L 190.305607 194.315815 
L 190.485215 194.409931 
L 191.214531 194.503328 
L 191.394139 194.596015 
L 192.118012 194.688 
L 192.303062 194.779291 
L 192.575195 194.779291 
L 192.754803 186.866526 
L 193.026936 186.866526 
L 193.206544 186.986427 
L 193.391594 186.986427 
L 193.571202 195.049075 
L 194.3876 195.137665 
L 194.567208 195.2256 
L 195.296524 195.312886 
L 195.476132 195.399529 
L 196.200005 195.485538 
L 196.385056 195.57092 
L 197.108929 195.65568 
L 197.288537 195.739826 
L 198.017853 195.823365 
L 198.197461 195.906302 
L 198.921334 195.988645 
L 199.106385 196.0704 
L 199.830258 196.151573 
L 200.009866 196.23217 
L 200.374524 196.312198 
L 200.554132 188.789597 
L 201.190923 188.895549 
L 201.370531 189.000758 
L 202.099847 189.105231 
L 202.279454 189.208976 
L 203.003328 189.312 
L 203.188378 189.414311 
L 203.367986 196.780734 
L 203.912252 196.856938 
L 204.091859 196.932619 
L 204.821176 197.007781 
L 205.000783 197.08243 
L 205.724657 197.156571 
L 205.909707 197.23021 
L 206.633581 197.303351 
L 206.905714 197.376 
L 207.542505 197.448161 
L 207.722112 197.519839 
L 208.173853 197.59104 
L 208.358903 190.49472 
L 208.903169 190.589023 
L 209.082777 190.682702 
L 209.80665 190.775762 
L 209.991701 190.868211 
L 210.715574 190.960052 
L 210.895182 191.051294 
L 211.624498 191.141941 
L 211.804106 191.232 
L 212.527979 191.321476 
L 212.71303 191.410374 
L 212.892637 191.410374 
L 213.072245 198.344026 
L 213.888644 198.409846 
L 214.160777 198.475246 
L 214.797568 198.540229 
L 215.069701 198.6048 
L 215.706492 198.668962 
L 215.978624 198.732719 
L 216.158232 192.016959 
L 216.33784 192.101434 
L 217.067156 192.185379 
L 217.246764 192.2688 
L 217.970637 192.351701 
L 218.155688 192.434087 
L 218.879561 192.515963 
L 219.059169 192.597333 
L 219.788485 192.678203 
L 219.968093 192.758577 
L 220.691966 192.838459 
L 220.877017 192.917854 
L 221.60089 192.996766 
L 221.780498 193.0752 
L 222.509814 193.15316 
L 222.689422 193.230651 
L 222.869029 199.642988 
L 223.413295 199.700757 
L 223.685428 199.75818 
L 223.777953 199.75818 
L 223.870478 193.38424 
L 223.957561 193.460346 
L 224.77396 193.536 
L 224.95901 193.611205 
L 225.682883 193.685964 
L 225.862491 193.760283 
L 226.591807 193.834165 
L 226.771415 193.907613 
L 227.495289 193.980632 
L 227.767421 194.053224 
L 228.404212 194.125395 
L 228.676345 194.197148 
L 229.313136 194.268486 
L 229.492744 194.339412 
L 230.216618 194.409931 
L 230.48875 194.480046 
L 231.125541 194.54976 
L 231.397674 194.619077 
L 231.577282 194.619077 
L 231.762332 188.64 
L 232.393681 188.725666 
L 232.578731 194.824678 
L 233.39513 194.892439 
L 233.574737 194.95982 
L 234.298611 195.026824 
L 234.570744 195.093453 
L 235.207535 195.15971 
L 235.479668 195.2256 
L 236.116459 195.291125 
L 236.388592 195.356287 
L 237.01994 195.421091 
L 237.292073 195.485538 
L 237.928864 195.549633 
L 238.200997 195.613377 
L 238.837788 195.676774 
L 239.109921 195.739826 
L 239.382053 195.802537 
L 239.561661 190.033171 
L 240.198452 190.111135 
L 240.37806 190.188679 
L 241.101933 190.265806 
L 241.286984 190.34252 
L 242.010857 190.418824 
L 242.190465 190.49472 
L 242.375515 196.171776 
L 242.919781 196.23217 
L 243.191914 196.292244 
L 243.823262 196.352 
L 244.095395 196.411441 
L 244.732186 196.470568 
L 245.004319 196.529386 
L 245.64111 196.587895 
L 245.913243 196.646099 
L 246.544591 196.704 
L 246.816724 196.7616 
L 247.181382 196.818902 
L 247.36099 191.303627 
L 247.905256 191.374884 
L 248.177389 191.445773 
L 248.81418 191.516298 
L 249.086313 191.586462 
L 249.723104 191.656266 
L 249.902711 191.725714 
L 250.626585 191.794809 
L 250.898718 191.863553 
L 251.535509 191.931949 
L 251.807642 192 
L 251.900167 192 
L 252.079774 197.430166 
L 253.347914 197.537684 
L 253.620047 197.59104 
L 254.708578 197.696955 
L 254.980711 197.749519 
L 255.165761 192.466898 
L 255.437894 192.532277 
L 256.069243 192.597333 
L 256.341376 192.662069 
L 256.978167 192.726486 
L 257.250299 192.790588 
L 257.88709 192.854377 
L 258.159223 192.917854 
L 258.790572 192.981022 
L 259.062705 193.043883 
L 259.699496 193.106441 
L 259.971628 193.168696 
L 260.608419 193.230651 
L 260.880552 193.292308 
L 261.511901 193.353669 
L 261.696951 193.414737 
L 261.876559 198.507789 
L 262.785483 198.6048 
L 262.872565 193.536 
L 262.96509 193.5962 
L 263.781489 193.656114 
L 264.053622 193.715745 
L 264.690413 193.775094 
L 264.962546 193.834165 
L 265.593894 193.892958 
L 265.866027 193.951475 
L 266.502818 194.00972 
L 266.774951 194.067692 
L 267.411742 194.125395 
L 267.683875 194.182831 
L 268.315223 194.24 
L 268.587356 194.296905 
L 269.224147 194.353548 
L 269.49628 194.409931 
L 270.133071 194.466055 
L 270.405204 194.521922 
L 270.584811 194.521922 
L 270.764419 189.717041 
L 271.40121 189.783472 
L 271.580818 194.688 
L 272.8544 194.797466 
L 273.126533 194.851828 
L 274.215064 194.95982 
L 274.487197 195.013453 
L 275.575729 195.12 
L 275.847862 195.172918 
L 276.936393 195.278049 
L 277.208526 195.330265 
L 278.297058 195.434009 
L 278.38414 195.485538 
L 278.569191 190.806646 
L 279.200539 190.868211 
L 279.472672 190.929505 
L 280.109463 190.990533 
L 280.381596 191.051294 
L 281.018387 191.111791 
L 281.197994 191.172026 
L 281.377602 195.790022 
L 282.379051 195.889762 
L 282.651184 195.93931 
L 283.739716 196.037768 
L 284.011849 196.086681 
L 285.10038 196.183881 
L 285.372513 196.23217 
L 286.188912 196.328136 
L 286.368519 191.817763 
L 286.912785 191.874977 
L 287.184918 191.931949 
L 287.821709 191.988682 
L 288.093842 192.045176 
L 288.72519 192.101434 
L 288.997323 192.157456 
L 289.634114 192.213244 
L 289.906247 192.2688 
L 290.902253 192.37922 
L 291.087304 196.841739 
L 292.355443 196.932619 
L 292.627576 196.977778 
L 293.716108 197.067541 
L 293.98824 197.112147 
L 294.167848 192.758577 
L 294.439981 192.811886 
L 295.528513 192.917854 
L 295.800646 192.970515 
L 296.889177 193.0752 
L 297.16131 193.127226 
L 298.249842 193.230651 
L 298.521975 193.282052 
L 299.610506 193.38424 
L 299.882639 193.435028 
L 300.699038 193.536 
L 300.884088 197.76 
L 301.787569 197.843478 
L 301.880094 193.636174 
L 301.97262 193.685964 
L 303.240759 193.784959 
L 303.512892 193.834165 
L 304.601423 193.932 
L 304.873556 193.980632 
L 305.962088 194.077328 
L 306.234221 194.125395 
L 307.322752 194.220973 
L 307.594885 194.268486 
L 308.683417 194.362964 
L 308.95555 194.409931 
L 309.592341 194.456719 
L 309.771948 190.44055 
L 310.408739 190.49472 
L 310.588347 194.596015 
L 311.856486 194.688 
L 312.128619 194.733732 
L 313.217151 194.824678 
L 313.489284 194.869895 
L 314.577815 194.95982 
L 314.849948 195.004531 
L 315.93848 195.093453 
L 316.210613 195.137665 
L 317.299144 195.2256 
L 317.39167 195.269323 
L 317.571277 191.334211 
L 318.659809 191.435669 
L 318.931942 191.486118 
L 320.020473 191.586462 
L 320.205524 191.636358 
L 320.385131 195.528307 
L 321.381138 195.613377 
L 321.653271 195.65568 
L 322.741802 195.739826 
L 323.013935 195.781671 
L 324.102467 195.864908 
L 324.3746 195.906302 
L 325.190998 195.988645 
L 325.376049 192.173419 
L 326.372055 192.2688 
L 326.644188 192.316235 
L 327.73272 192.4106 
L 328.004853 192.457532 
L 329.093384 192.550898 
L 329.365517 192.597333 
L 329.909783 192.643606 
L 330.089391 196.431185 
L 331.362972 196.509814 
L 331.635105 196.548923 
L 332.723637 196.626732 
L 332.99577 196.665433 
L 333.175378 192.963005 
L 333.44751 193.008 
L 334.536042 193.097522 
L 334.808175 193.142052 
L 335.896707 193.230651 
L 336.168839 193.274722 
L 337.257371 193.362411 
L 337.529504 193.406031 
L 338.618036 193.492825 
L 338.890168 193.536 
L 339.706567 193.621912 
L 339.886175 197.23021 
L 340.795099 197.303351 
L 340.887624 193.707243 
L 340.974706 193.749693 
L 342.248288 193.834165 
L 342.520421 193.876188 
L 343.608953 193.959813 
L 343.881086 194.001416 
L 344.969617 194.084206 
L 345.24175 194.125395 
L 346.330282 194.207364 
L 346.602415 194.248145 
L 347.690946 194.329305 
L 347.963079 194.369684 
L 348.594427 194.409931 
L 348.779478 190.960052 
L 349.410826 191.005748 
L 349.595877 194.529882 
L 350.864016 194.609199 
L 351.228674 194.648663 
L 352.22468 194.727209 
L 352.589338 194.766291 
L 353.585345 194.844077 
L 353.950003 194.882783 
L 354.946009 194.95982 
L 355.310667 194.998154 
L 356.306674 195.074454 
L 356.399199 195.112421 
L 356.578807 191.717053 
L 357.667338 191.803421 
L 357.939471 191.8464 
L 359.028003 191.931949 
L 359.20761 191.974521 
L 359.392661 195.337706 
L 360.840408 195.448755 
L 361.205066 195.485538 
L 362.658256 195.5952 
L 363.017471 195.631526 
L 364.198528 195.739826 
L 364.378135 192.434087 
L 365.379585 192.515963 
L 365.651717 192.556711 
L 366.740249 192.637831 
L 367.012382 192.678203 
L 368.100914 192.758577 
L 368.373046 192.798579 
L 368.917312 192.838459 
L 369.09692 196.12844 
L 370.822242 196.23217 
L 371.181458 196.266537 
L 371.997857 196.334959 
L 372.182907 193.114239 
L 372.542122 193.15316 
L 373.543571 193.230651 
L 373.902787 193.269221 
L 374.904236 193.346015 
L 375.263451 193.38424 
L 376.2649 193.460346 
L 376.624116 193.49823 
L 377.625565 193.573658 
L 377.98478 193.611205 
L 378.714096 193.685964 
L 378.893704 196.835219 
L 379.802628 196.900248 
L 379.889711 193.760283 
L 379.982236 193.797278 
L 381.707558 193.907613 
L 382.066774 193.944176 
L 383.519963 194.053224 
L 383.884622 194.089362 
L 385.332369 194.197148 
L 385.697027 194.232868 
L 387.150216 194.339412 
L 387.509432 194.374722 
L 387.601957 194.374722 
L 387.781565 191.351172 
L 388.418356 191.390669 
L 388.597963 194.480046 
L 390.323286 194.584468 
L 390.687944 194.619077 
L 392.135691 194.722315 
L 392.500349 194.756533 
L 393.953539 194.858606 
L 394.312754 194.892439 
L 395.401286 194.993369 
L 395.586336 192.00754 
L 396.674868 192.082708 
L 397.034083 192.120134 
L 398.035532 192.194674 
L 398.21514 192.231789 
L 398.394748 195.192701 
L 398.487273 195.192701 
L 398.487273 195.192701 
" style="fill:none;stroke:#1f77b4;stroke-linecap:square;stroke-width:1.5;"/>
   </g>
   <g id="patch_3">
    <path d="M 57.6 307.584 
L 57.6 41.472 
" style="fill:none;stroke:#000000;stroke-linecap:square;stroke-linejoin:miter;stroke-width:0.8;"/>
   </g>
   <g id="patch_4">
    <path d="M 414.72 307.584 
L 414.72 41.472 
" style="fill:none;stroke:#000000;stroke-linecap:square;stroke-linejoin:miter;stroke-width:0.8;"/>
   </g>
   <g id="patch_5">
    <path d="M 57.6 307.584 
L 414.72 307.584 
" style="fill:none;stroke:#000000;stroke-linecap:square;stroke-linejoin:miter;stroke-width:0.8;"/>
   </g>
   <g id="patch_6">
    <path d="M 57.6 41.472 
L 414.72 41.472 
" style="fill:none;stroke:#000000;stroke-linecap:square;stroke-linejoin:miter;stroke-width:0.8;"/>
   </g>
  </g>
 </g>
 <defs>
  <clipPath id="p4f762bfeca">
   <rect height="266.112" width="357.12" x="57.6" y="41.472"/>
  </clipPath>
 </defs>
</svg>
