<?xml version="1.0" encoding="UTF-8" standalone="no"?>
<!-- Created with matplotlib (https://matplotlib.org/) -->

<svg
   height="345.6pt"
   version="1.1"
   viewBox="0 0 460.8 345.6"
   width="460.8pt"
   id="svg15168"
   sodipodi:docname="t_300.0.svg"
   inkscape:version="1.2.2 (732a01da63, 2022-12-09, custom)"
   xmlns:inkscape="http://www.inkscape.org/namespaces/inkscape"
   xmlns:sodipodi="http://sodipodi.sourceforge.net/DTD/sodipodi-0.dtd"
   xmlns:xlink="http://www.w3.org/1999/xlink"
   xmlns="http://www.w3.org/2000/svg"
   xmlns:svg="http://www.w3.org/2000/svg"
   xmlns:rdf="http://www.w3.org/1999/02/22-rdf-syntax-ns#"
   xmlns:cc="http://creativecommons.org/ns#"
   xmlns:dc="http://purl.org/dc/elements/1.1/">
  <sodipodi:namedview
     id="namedview15170"
     pagecolor="#ffffff"
     bordercolor="#666666"
     borderopacity="1.0"
     inkscape:showpageshadow="2"
     inkscape:pageopacity="0.0"
     inkscape:pagecheckerboard="0"
     inkscape:deskcolor="#d1d1d1"
     inkscape:document-units="pt"
     showgrid="false"
     inkscape:zoom="1.610243"
     inkscape:cx="307.40701"
     inkscape:cy="230.71052"
     inkscape:window-width="1853"
     inkscape:window-height="1018"
     inkscape:window-x="67"
     inkscape:window-y="34"
     inkscape:window-maximized="1"
     inkscape:current-layer="figure_1" />
  <metadata
     id="metadata14708">
    <rdf:RDF>
      <cc:Work>
        <dc:type
           rdf:resource="http://purl.org/dc/dcmitype/StillImage" />
        <dc:date>2022-08-27T15:23:36.800246</dc:date>
        <dc:format>image/svg+xml</dc:format>
        <dc:creator>
          <cc:Agent>
            <dc:title>Matplotlib v3.3.4, https://matplotlib.org/</dc:title>
          </cc:Agent>
        </dc:creator>
      </cc:Work>
    </rdf:RDF>
  </metadata>
  <defs
     id="defs14712">
    <style
       type="text/css"
       id="style14710">*{stroke-linecap:butt;stroke-linejoin:round;}</style>
    <path
       d="m 13.71875,72.90625 h 9.96875 l 12.5,-26.328125 22.609375,26.328125 H 70.3125 L 40.28125,38.09375 58.40625,0 H 48.484375 L 33.796875,30.71875 7.171875,0 H -4.296875 L 29.78125,39.203125 Z"
       id="DejaVuSans-Oblique-88" />
    <path
       d="M 36.8125,72.90625 H 48 L 61.53125,0 H 51.21875 L 48.1875,18.703125 H 15.375 L 5.078125,0 H -5.328125 Z M 40.375,63.1875 19.921875,26.90625 H 46.6875 Z"
       id="DejaVuSans-Oblique-65" />
    <path
       d="M 16.890625,72.90625 H 42.09375 q 10.25,0 15.328125,-3.8125 Q 62.5,65.28125 62.5,57.625 62.5,50.59375 58.125,45.484375 53.765625,40.375 46.6875,39.3125 q 6.046875,-1.375 9.078125,-5.234375 3.03125,-3.859375 3.03125,-10.296875 0,-10.984375 -8.140625,-17.390625 Q 42.53125,0 28.421875,0 H 2.6875 Z M 19.28125,34.8125 14.109375,8.109375 h 15.875 q 8.9375,0 13.765625,4.09375 4.828125,4.109375 4.828125,11.578125 0,5.765625 -3.203125,8.390625 Q 42.1875,34.8125 35.109375,34.8125 Z m 5.8125,29.984375 -4.296875,-21.96875 H 35.5 q 7.859375,0 12.28125,3.40625 4.421875,3.421875 4.421875,9.484375 0,4.734375 -2.984375,6.90625 -2.984375,2.171875 -9.515625,2.171875 z"
       id="DejaVuSans-Oblique-66" />
    <path
       d="m 69.484375,67.28125 -2,-10.390625 q -4.6875,4.734375 -9.9375,7.03125 -5.25,2.296875 -11.359375,2.296875 -8.34375,0 -14.671875,-4.015625 -6.3125,-4 -10.90625,-12.203125 Q 17.671875,44.734375 16.125,38.84375 14.59375,32.953125 14.59375,27 14.59375,17.046875 19.75,11.8125 24.90625,6.59375 34.71875,6.59375 41.5,6.59375 47.75,8.765625 54,10.9375 59.90625,15.28125 L 57.625,3.609375 q -5.8125,-2.484375 -11.75,-3.75 -5.9375,-1.28125 -11.890625,-1.28125 -14.015625,0 -21.90625,7.609375 -7.875,7.625 -7.875,21.203125 0,8.6875 3,17.078125 3,8.40625 8.625,15.34375 5.953125,7.375 13.59375,10.890625 7.640625,3.515625 17.796875,3.515625 6.25,0 11.84375,-1.734375 Q 64.65625,70.75 69.484375,67.28125 Z"
       id="DejaVuSans-Oblique-67" />
    <path
       d="m 30.078125,3.421875 q 7.234375,0 10.90625,5.703125 3.6875,5.71875 3.6875,16.859375 0,11.125 -3.6875,16.8125 -3.671875,5.6875 -10.90625,5.6875 -7.21875,0 -10.90625,-5.6875 -3.6875,-5.6875 -3.6875,-16.8125 0,-11.140625 3.703125,-16.859375 3.71875,-5.703125 10.890625,-5.703125 z m 0,-4.84375 q -11.328125,0 -18.21875,7.5 -6.875,7.5 -6.875,19.90625 0,12.390625 6.859375,19.859375 6.859375,7.484375 18.234375,7.484375 11.375,0 18.234375,-7.484375 6.859375,-7.46875 6.859375,-19.859375 0,-12.40625 -6.859375,-19.90625 -6.859375,-7.5 -18.234375,-7.5 z"
       id="DejaVuSerif-111" />
    <path
       d="M 16.890625,72.90625 H 38.09375 q 16.890625,0 25.5,-7.15625 8.625,-7.15625 8.625,-21.265625 0,-9.328125 -3.28125,-17.953125 Q 65.671875,17.921875 59.90625,12.015625 54.109375,5.953125 45.171875,2.96875 36.234375,0 24.03125,0 H 2.6875 Z m 8.3125,-8.109375 -11,-56.6875 H 27.09375 q 16.5625,0 25.640625,9.515625 9.078125,9.53125 9.078125,26.859375 0,10.5 -5.859375,15.40625 -5.859375,4.90625 -18.359375,4.90625 z"
       id="DejaVuSans-Oblique-68" />
  </defs>
  <g
     id="figure_1">
    <g
       id="patch_1">
      <path
         d="M 0 345.6  L 460.8 345.6  L 460.8 0  L 0 0  z "
         style="fill:#ffffff;"
         id="path14714" />
    </g>
    <g
       id="axes_1">
      <g
         id="patch_2">
        <path
           d="M 57.6 307.584  L 414.72 307.584  L 414.72 41.472  L 57.6 41.472  z "
           style="fill:#ffffff;"
           id="path14717" />
      </g>
      <g
         id="matplotlib.axis_1">
        <g
           id="xtick_1">
          <g
             id="line2d_1">
            <path
               clip-path="url(#p973a7f0fef)"
               d="M 73.832727 307.584  L 73.832727 41.472  "
               style="fill:none;stroke:#b0b0b0;stroke-linecap:square;stroke-width:0.8;"
               id="path14720" />
          </g>
          <g
             id="line2d_2">
            <defs
               id="defs14724">
              <path
                 d="M 0 0  L 0 3.5  "
                 id="m51aa69ca48"
                 style="stroke:#000000;stroke-width:0.8;" />
            </defs>
            <g
               id="g14728">
              <use
                 style="stroke:#000000;stroke-width:0.8;"
                 x="73.832727"
                 xlink:href="#m51aa69ca48"
                 y="307.584"
                 id="use14726" />
            </g>
          </g>
          <g
             id="text_1">
            <!-- 0 -->
            <g
               transform="translate(70.651477 322.182437)scale(0.1 -0.1)"
               id="g14736">
              <defs
                 id="defs14732">
                <path
                   d="M 31.78125 3.421875  Q 39.265625 3.421875 42.96875 11.625  Q 46.6875 19.828125 46.6875 36.375  Q 46.6875 52.984375 42.96875 61.1875  Q 39.265625 69.390625 31.78125 69.390625  Q 24.3125 69.390625 20.59375 61.1875  Q 16.890625 52.984375 16.890625 36.375  Q 16.890625 19.828125 20.59375 11.625  Q 24.3125 3.421875 31.78125 3.421875  z M 31.78125 -1.421875  Q 19.921875 -1.421875 13.25 8.53125  Q 6.59375 18.5 6.59375 36.375  Q 6.59375 54.296875 13.25 64.25  Q 19.921875 74.21875 31.78125 74.21875  Q 43.703125 74.21875 50.34375 64.25  Q 56.984375 54.296875 56.984375 36.375  Q 56.984375 18.5 50.34375 8.53125  Q 43.703125 -1.421875 31.78125 -1.421875  z "
                   id="DejaVuSerif-48" />
              </defs>
              <use
                 xlink:href="#DejaVuSerif-48"
                 id="use14734" />
            </g>
          </g>
        </g>
        <g
           id="xtick_2">
          <g
             id="line2d_3">
            <path
               clip-path="url(#p973a7f0fef)"
               d="M 114.414545 307.584  L 114.414545 41.472  "
               style="fill:none;stroke:#b0b0b0;stroke-linecap:square;stroke-width:0.8;"
               id="path14740" />
          </g>
          <g
             id="line2d_4">
            <g
               id="g14745">
              <use
                 style="stroke:#000000;stroke-width:0.8;"
                 x="114.414545"
                 xlink:href="#m51aa69ca48"
                 y="307.584"
                 id="use14743" />
            </g>
          </g>
          <g
             id="text_2">
            <!-- 25 -->
            <g
               transform="translate(108.052045 322.182437)scale(0.1 -0.1)"
               id="g14756">
              <defs
                 id="defs14750">
                <path
                   d="M 12.796875 55.515625  L 7.328125 55.515625  L 7.328125 68.5  Q 12.546875 71.296875 17.84375 72.75  Q 23.140625 74.21875 28.21875 74.21875  Q 39.59375 74.21875 46.1875 68.703125  Q 52.78125 63.1875 52.78125 53.71875  Q 52.78125 43.015625 37.84375 28.125  Q 36.671875 27 36.078125 26.421875  L 17.671875 8.015625  L 48.09375 8.015625  L 48.09375 17  L 53.8125 17  L 53.8125 0  L 6.78125 0  L 6.78125 5.328125  L 28.90625 27.390625  Q 36.234375 34.71875 39.359375 40.84375  Q 42.484375 46.96875 42.484375 53.71875  Q 42.484375 61.078125 38.640625 65.234375  Q 34.8125 69.390625 28.078125 69.390625  Q 21.09375 69.390625 17.28125 65.921875  Q 13.484375 62.453125 12.796875 55.515625  z "
                   id="DejaVuSerif-50" />
                <path
                   d="M 50.296875 72.90625  L 50.296875 64.890625  L 16.890625 64.890625  L 16.890625 44  Q 19.4375 45.75 22.828125 46.625  Q 26.21875 47.515625 30.421875 47.515625  Q 42.234375 47.515625 49.0625 40.96875  Q 55.90625 34.421875 55.90625 23.09375  Q 55.90625 11.53125 49 5.046875  Q 42.09375 -1.421875 29.59375 -1.421875  Q 24.5625 -1.421875 19.28125 -0.1875  Q 14.015625 1.03125 8.5 3.515625  L 8.5 17.671875  L 14.015625 17.671875  Q 14.453125 10.75 18.421875 7.078125  Q 22.40625 3.421875 29.59375 3.421875  Q 37.3125 3.421875 41.453125 8.5  Q 45.609375 13.578125 45.609375 23.09375  Q 45.609375 32.5625 41.484375 37.609375  Q 37.359375 42.671875 29.59375 42.671875  Q 25.203125 42.671875 21.84375 41.109375  Q 18.5 39.546875 15.921875 36.28125  L 11.71875 36.28125  L 11.71875 72.90625  z "
                   id="DejaVuSerif-53" />
              </defs>
              <use
                 xlink:href="#DejaVuSerif-50"
                 id="use14752" />
              <use
                 x="63.623047"
                 xlink:href="#DejaVuSerif-53"
                 id="use14754" />
            </g>
          </g>
        </g>
        <g
           id="xtick_3">
          <g
             id="line2d_5">
            <path
               clip-path="url(#p973a7f0fef)"
               d="M 154.996364 307.584  L 154.996364 41.472  "
               style="fill:none;stroke:#b0b0b0;stroke-linecap:square;stroke-width:0.8;"
               id="path14760" />
          </g>
          <g
             id="line2d_6">
            <g
               id="g14765">
              <use
                 style="stroke:#000000;stroke-width:0.8;"
                 x="154.996364"
                 xlink:href="#m51aa69ca48"
                 y="307.584"
                 id="use14763" />
            </g>
          </g>
          <g
             id="text_3">
            <!-- 50 -->
            <g
               transform="translate(148.633864 322.182437)scale(0.1 -0.1)"
               id="g14772">
              <use
                 xlink:href="#DejaVuSerif-53"
                 id="use14768" />
              <use
                 x="63.623047"
                 xlink:href="#DejaVuSerif-48"
                 id="use14770" />
            </g>
          </g>
        </g>
        <g
           id="xtick_4">
          <g
             id="line2d_7">
            <path
               clip-path="url(#p973a7f0fef)"
               d="M 195.578182 307.584  L 195.578182 41.472  "
               style="fill:none;stroke:#b0b0b0;stroke-linecap:square;stroke-width:0.8;"
               id="path14776" />
          </g>
          <g
             id="line2d_8">
            <g
               id="g14781">
              <use
                 style="stroke:#000000;stroke-width:0.8;"
                 x="195.578182"
                 xlink:href="#m51aa69ca48"
                 y="307.584"
                 id="use14779" />
            </g>
          </g>
          <g
             id="text_4">
            <!-- 75 -->
            <g
               transform="translate(189.215682 322.182437)scale(0.1 -0.1)"
               id="g14791">
              <defs
                 id="defs14785">
                <path
                   d="M 56.390625 67.921875  L 27.875 0  L 20.609375 0  L 47.796875 64.890625  L 14.109375 64.890625  L 14.109375 55.90625  L 8.40625 55.90625  L 8.40625 72.90625  L 56.390625 72.90625  z "
                   id="DejaVuSerif-55" />
              </defs>
              <use
                 xlink:href="#DejaVuSerif-55"
                 id="use14787" />
              <use
                 x="63.623047"
                 xlink:href="#DejaVuSerif-53"
                 id="use14789" />
            </g>
          </g>
        </g>
        <g
           id="xtick_5">
          <g
             id="line2d_9">
            <path
               clip-path="url(#p973a7f0fef)"
               d="M 236.16 307.584  L 236.16 41.472  "
               style="fill:none;stroke:#b0b0b0;stroke-linecap:square;stroke-width:0.8;"
               id="path14795" />
          </g>
          <g
             id="line2d_10">
            <g
               id="g14800">
              <use
                 style="stroke:#000000;stroke-width:0.8;"
                 x="236.16"
                 xlink:href="#m51aa69ca48"
                 y="307.584"
                 id="use14798" />
            </g>
          </g>
          <g
             id="text_5">
            <!-- 100 -->
            <g
               transform="translate(226.61625 322.182437)scale(0.1 -0.1)"
               id="g14812">
              <defs
                 id="defs14804">
                <path
                   d="M 14.203125 0  L 14.203125 5.171875  L 26.90625 5.171875  L 26.90625 65.828125  L 12.203125 56.296875  L 12.203125 62.703125  L 29.984375 74.21875  L 36.71875 74.21875  L 36.71875 5.171875  L 49.421875 5.171875  L 49.421875 0  z "
                   id="DejaVuSerif-49" />
              </defs>
              <use
                 xlink:href="#DejaVuSerif-49"
                 id="use14806" />
              <use
                 x="63.623047"
                 xlink:href="#DejaVuSerif-48"
                 id="use14808" />
              <use
                 x="127.246094"
                 xlink:href="#DejaVuSerif-48"
                 id="use14810" />
            </g>
          </g>
        </g>
        <g
           id="xtick_6">
          <g
             id="line2d_11">
            <path
               clip-path="url(#p973a7f0fef)"
               d="M 276.741818 307.584  L 276.741818 41.472  "
               style="fill:none;stroke:#b0b0b0;stroke-linecap:square;stroke-width:0.8;"
               id="path14816" />
          </g>
          <g
             id="line2d_12">
            <g
               id="g14821">
              <use
                 style="stroke:#000000;stroke-width:0.8;"
                 x="276.741818"
                 xlink:href="#m51aa69ca48"
                 y="307.584"
                 id="use14819" />
            </g>
          </g>
          <g
             id="text_6">
            <!-- 125 -->
            <g
               transform="translate(267.198068 322.182437)scale(0.1 -0.1)"
               id="g14830">
              <use
                 xlink:href="#DejaVuSerif-49"
                 id="use14824" />
              <use
                 x="63.623047"
                 xlink:href="#DejaVuSerif-50"
                 id="use14826" />
              <use
                 x="127.246094"
                 xlink:href="#DejaVuSerif-53"
                 id="use14828" />
            </g>
          </g>
        </g>
        <g
           id="xtick_7">
          <g
             id="line2d_13">
            <path
               clip-path="url(#p973a7f0fef)"
               d="M 317.323636 307.584  L 317.323636 41.472  "
               style="fill:none;stroke:#b0b0b0;stroke-linecap:square;stroke-width:0.8;"
               id="path14834" />
          </g>
          <g
             id="line2d_14">
            <g
               id="g14839">
              <use
                 style="stroke:#000000;stroke-width:0.8;"
                 x="317.323636"
                 xlink:href="#m51aa69ca48"
                 y="307.584"
                 id="use14837" />
            </g>
          </g>
          <g
             id="text_7">
            <!-- 150 -->
            <g
               transform="translate(307.779886 322.182437)scale(0.1 -0.1)"
               id="g14848">
              <use
                 xlink:href="#DejaVuSerif-49"
                 id="use14842" />
              <use
                 x="63.623047"
                 xlink:href="#DejaVuSerif-53"
                 id="use14844" />
              <use
                 x="127.246094"
                 xlink:href="#DejaVuSerif-48"
                 id="use14846" />
            </g>
          </g>
        </g>
        <g
           id="xtick_8">
          <g
             id="line2d_15">
            <path
               clip-path="url(#p973a7f0fef)"
               d="M 357.905455 307.584  L 357.905455 41.472  "
               style="fill:none;stroke:#b0b0b0;stroke-linecap:square;stroke-width:0.8;"
               id="path14852" />
          </g>
          <g
             id="line2d_16">
            <g
               id="g14857">
              <use
                 style="stroke:#000000;stroke-width:0.8;"
                 x="357.905455"
                 xlink:href="#m51aa69ca48"
                 y="307.584"
                 id="use14855" />
            </g>
          </g>
          <g
             id="text_8">
            <!-- 175 -->
            <g
               transform="translate(348.361705 322.182437)scale(0.1 -0.1)"
               id="g14866">
              <use
                 xlink:href="#DejaVuSerif-49"
                 id="use14860" />
              <use
                 x="63.623047"
                 xlink:href="#DejaVuSerif-55"
                 id="use14862" />
              <use
                 x="127.246094"
                 xlink:href="#DejaVuSerif-53"
                 id="use14864" />
            </g>
          </g>
        </g>
        <g
           id="xtick_9">
          <g
             id="line2d_17">
            <path
               clip-path="url(#p973a7f0fef)"
               d="M 398.487273 307.584  L 398.487273 41.472  "
               style="fill:none;stroke:#b0b0b0;stroke-linecap:square;stroke-width:0.8;"
               id="path14870" />
          </g>
          <g
             id="line2d_18">
            <g
               id="g14875">
              <use
                 style="stroke:#000000;stroke-width:0.8;"
                 x="398.487273"
                 xlink:href="#m51aa69ca48"
                 y="307.584"
                 id="use14873" />
            </g>
          </g>
          <g
             id="text_9">
            <!-- 200 -->
            <g
               transform="translate(388.943523 322.182437)scale(0.1 -0.1)"
               id="g14884">
              <use
                 xlink:href="#DejaVuSerif-50"
                 id="use14878" />
              <use
                 x="63.623047"
                 xlink:href="#DejaVuSerif-48"
                 id="use14880" />
              <use
                 x="127.246094"
                 xlink:href="#DejaVuSerif-48"
                 id="use14882" />
            </g>
          </g>
        </g>
        <g
           id="text_10">
          <!-- Space -->
          <g
             transform="translate(210.037109 341.179469)scale(0.17 -0.17)"
             id="g14905">
            <defs
               id="defs14893">
              <path
                 d="M 9.28125 3.515625  L 9.28125 20.125  L 14.890625 20.0625  Q 15.140625 11.765625 19.703125 7.78125  Q 24.265625 3.8125 33.59375 3.8125  Q 42.28125 3.8125 46.84375 7.25  Q 51.421875 10.6875 51.421875 17.28125  Q 51.421875 22.5625 48.65625 25.390625  Q 45.90625 28.21875 37.015625 30.90625  L 27.390625 33.796875  Q 16.9375 36.96875 12.671875 41.703125  Q 8.40625 46.4375 8.40625 54.6875  Q 8.40625 63.96875 14.984375 69.09375  Q 21.578125 74.21875 33.5 74.21875  Q 38.578125 74.21875 44.625 73.109375  Q 50.6875 72.015625 57.515625 69.921875  L 57.515625 54.390625  L 52 54.390625  Q 51.171875 62.109375 46.84375 65.546875  Q 42.53125 69 33.6875 69  Q 25.984375 69 21.953125 65.84375  Q 17.921875 62.703125 17.921875 56.6875  Q 17.921875 51.46875 20.9375 48.484375  Q 23.96875 45.515625 33.796875 42.578125  L 42.828125 39.890625  Q 52.734375 36.921875 56.953125 32.296875  Q 61.1875 27.6875 61.1875 19.921875  Q 61.1875 9.328125 54.390625 3.953125  Q 47.609375 -1.421875 34.1875 -1.421875  Q 28.171875 -1.421875 21.9375 -0.1875  Q 15.71875 1.03125 9.28125 3.515625  z "
                 id="DejaVuSerif-83" />
              <path
                 d="M 20.515625 28.515625  L 20.515625 23.390625  Q 20.515625 14.015625 24.09375 9.109375  Q 27.6875 4.203125 34.515625 4.203125  Q 41.40625 4.203125 44.9375 9.71875  Q 48.484375 15.234375 48.484375 25.984375  Q 48.484375 36.765625 44.9375 42.234375  Q 41.40625 47.703125 34.515625 47.703125  Q 27.6875 47.703125 24.09375 42.765625  Q 20.515625 37.84375 20.515625 28.515625  z M 11.53125 46.6875  L 2.875 46.6875  L 2.875 51.90625  L 20.515625 51.90625  L 20.515625 43.796875  Q 23.140625 48.6875 27.21875 51  Q 31.296875 53.328125 37.3125 53.328125  Q 46.875 53.328125 52.921875 45.75  Q 58.984375 38.1875 58.984375 25.984375  Q 58.984375 13.765625 52.921875 6.171875  Q 46.875 -1.421875 37.3125 -1.421875  Q 31.296875 -1.421875 27.21875 0.890625  Q 23.140625 3.21875 20.515625 8.109375  L 20.515625 -15.578125  L 29 -15.578125  L 29 -20.796875  L 2.875 -20.796875  L 2.875 -15.578125  L 11.53125 -15.578125  z "
                 id="DejaVuSerif-112" />
              <path
                 d="M 39.796875 16.3125  L 39.796875 27.296875  L 28.21875 27.296875  Q 21.53125 27.296875 18.25 24.40625  Q 14.984375 21.53125 14.984375 15.578125  Q 14.984375 10.15625 18.296875 6.984375  Q 21.625 3.8125 27.296875 3.8125  Q 32.90625 3.8125 36.34375 7.28125  Q 39.796875 10.75 39.796875 16.3125  z M 48.78125 32.421875  L 48.78125 5.171875  L 56.78125 5.171875  L 56.78125 0  L 39.796875 0  L 39.796875 5.609375  Q 36.8125 2 32.90625 0.28125  Q 29 -1.421875 23.78125 -1.421875  Q 15.140625 -1.421875 10.0625 3.171875  Q 4.984375 7.765625 4.984375 15.578125  Q 4.984375 23.640625 10.796875 28.078125  Q 16.609375 32.515625 27.203125 32.515625  L 39.796875 32.515625  L 39.796875 36.078125  Q 39.796875 42 36.203125 45.234375  Q 32.625 48.484375 26.125 48.484375  Q 20.75 48.484375 17.578125 46.046875  Q 14.40625 43.609375 13.625 38.8125  L 8.984375 38.8125  L 8.984375 49.3125  Q 13.671875 51.3125 18.09375 52.3125  Q 22.515625 53.328125 26.703125 53.328125  Q 37.5 53.328125 43.140625 47.96875  Q 48.78125 42.625 48.78125 32.421875  z "
                 id="DejaVuSerif-97" />
              <path
                 d="M 51.421875 15.578125  Q 49.515625 7.28125 44.09375 2.921875  Q 38.671875 -1.421875 30.078125 -1.421875  Q 18.75 -1.421875 11.859375 6.078125  Q 4.984375 13.578125 4.984375 25.984375  Q 4.984375 38.421875 11.859375 45.875  Q 18.75 53.328125 30.078125 53.328125  Q 35.015625 53.328125 39.890625 52.171875  Q 44.78125 51.03125 49.703125 48.6875  L 49.703125 35.40625  L 44.484375 35.40625  Q 43.453125 42.234375 40.015625 45.359375  Q 36.578125 48.484375 30.171875 48.484375  Q 22.90625 48.484375 19.1875 42.84375  Q 15.484375 37.203125 15.484375 25.984375  Q 15.484375 14.75 19.171875 9.078125  Q 22.859375 3.421875 30.171875 3.421875  Q 35.984375 3.421875 39.453125 6.4375  Q 42.921875 9.46875 44.1875 15.578125  z "
                 id="DejaVuSerif-99" />
              <path
                 d="M 54.203125 25  L 15.484375 25  L 15.484375 24.609375  Q 15.484375 14.109375 19.4375 8.765625  Q 23.390625 3.421875 31.109375 3.421875  Q 37.015625 3.421875 40.796875 6.515625  Q 44.578125 9.625 46.09375 15.71875  L 53.328125 15.71875  Q 51.171875 7.171875 45.375 2.875  Q 39.59375 -1.421875 30.171875 -1.421875  Q 18.796875 -1.421875 11.890625 6.078125  Q 4.984375 13.578125 4.984375 25.984375  Q 4.984375 38.28125 11.765625 45.796875  Q 18.5625 53.328125 29.59375 53.328125  Q 41.359375 53.328125 47.65625 46.0625  Q 53.953125 38.8125 54.203125 25  z M 43.609375 30.171875  Q 43.3125 39.265625 39.765625 43.875  Q 36.234375 48.484375 29.59375 48.484375  Q 23.390625 48.484375 19.828125 43.84375  Q 16.265625 39.203125 15.484375 30.171875  z "
                 id="DejaVuSerif-101" />
            </defs>
            <use
               xlink:href="#DejaVuSerif-83"
               id="use14895" />
            <use
               x="68.505859"
               xlink:href="#DejaVuSerif-112"
               id="use14897" />
            <use
               x="132.519531"
               xlink:href="#DejaVuSerif-97"
               id="use14899" />
            <use
               x="192.138672"
               xlink:href="#DejaVuSerif-99"
               id="use14901" />
            <use
               x="248.144531"
               xlink:href="#DejaVuSerif-101"
               id="use14903" />
          </g>
        </g>
      </g>
      <g
         id="matplotlib.axis_2">
        <g
           id="ytick_1">
          <g
             id="line2d_19">
            <path
               clip-path="url(#p973a7f0fef)"
               d="M 57.6 302.466462  L 414.72 302.466462  "
               style="fill:none;stroke:#b0b0b0;stroke-linecap:square;stroke-width:0.8;"
               id="path14909" />
          </g>
          <g
             id="line2d_20">
            <defs
               id="defs14913">
              <path
                 d="M 0 0  L -3.5 0  "
                 id="m30a84c7557"
                 style="stroke:#000000;stroke-width:0.8;" />
            </defs>
            <g
               id="g14917">
              <use
                 style="stroke:#000000;stroke-width:0.8;"
                 x="57.6"
                 xlink:href="#m30a84c7557"
                 y="302.466462"
                 id="use14915" />
            </g>
          </g>
          <g
             id="text_11">
            <!-- 0.0 -->
            <g
               transform="translate(34.696875 306.26568)scale(0.1 -0.1)"
               id="g14929">
              <defs
                 id="defs14921">
                <path
                   d="M 9.421875 5.078125  Q 9.421875 7.8125 11.28125 9.71875  Q 13.140625 11.625 15.921875 11.625  Q 18.609375 11.625 20.5 9.71875  Q 22.40625 7.8125 22.40625 5.078125  Q 22.40625 2.390625 20.5 0.484375  Q 18.609375 -1.421875 15.921875 -1.421875  Q 13.140625 -1.421875 11.28125 0.453125  Q 9.421875 2.34375 9.421875 5.078125  z "
                   id="DejaVuSerif-46" />
              </defs>
              <use
                 xlink:href="#DejaVuSerif-48"
                 id="use14923" />
              <use
                 x="63.623047"
                 xlink:href="#DejaVuSerif-46"
                 id="use14925" />
              <use
                 x="95.410156"
                 xlink:href="#DejaVuSerif-48"
                 id="use14927" />
            </g>
          </g>
        </g>
        <g
           id="ytick_2">
          <g
             id="line2d_21">
            <path
               clip-path="url(#p973a7f0fef)"
               d="M 57.6 251.291077  L 414.72 251.291077  "
               style="fill:none;stroke:#b0b0b0;stroke-linecap:square;stroke-width:0.8;"
               id="path14933" />
          </g>
          <g
             id="line2d_22">
            <g
               id="g14938">
              <use
                 style="stroke:#000000;stroke-width:0.8;"
                 x="57.6"
                 xlink:href="#m30a84c7557"
                 y="251.291077"
                 id="use14936" />
            </g>
          </g>
          <g
             id="text_12">
            <!-- 0.2 -->
            <g
               transform="translate(34.696875 255.090296)scale(0.1 -0.1)"
               id="g14947">
              <use
                 xlink:href="#DejaVuSerif-48"
                 id="use14941" />
              <use
                 x="63.623047"
                 xlink:href="#DejaVuSerif-46"
                 id="use14943" />
              <use
                 x="95.410156"
                 xlink:href="#DejaVuSerif-50"
                 id="use14945" />
            </g>
          </g>
        </g>
        <g
           id="ytick_3">
          <g
             id="line2d_23">
            <path
               clip-path="url(#p973a7f0fef)"
               d="M 57.6 200.115692  L 414.72 200.115692  "
               style="fill:none;stroke:#b0b0b0;stroke-linecap:square;stroke-width:0.8;"
               id="path14951" />
          </g>
          <g
             id="line2d_24">
            <g
               id="g14956">
              <use
                 style="stroke:#000000;stroke-width:0.8;"
                 x="57.6"
                 xlink:href="#m30a84c7557"
                 y="200.115692"
                 id="use14954" />
            </g>
          </g>
          <g
             id="text_13">
            <!-- 0.4 -->
            <g
               transform="translate(34.696875 203.914911)scale(0.1 -0.1)"
               id="g14968">
              <defs
                 id="defs14960">
                <path
                   d="M 34.90625 24.703125  L 34.90625 63.484375  L 10.015625 24.703125  z M 56.390625 0  L 23.1875 0  L 23.1875 5.171875  L 34.90625 5.171875  L 34.90625 19.484375  L 3.078125 19.484375  L 3.078125 24.8125  L 35.015625 74.21875  L 44.671875 74.21875  L 44.671875 24.703125  L 58.59375 24.703125  L 58.59375 19.484375  L 44.671875 19.484375  L 44.671875 5.171875  L 56.390625 5.171875  z "
                   id="DejaVuSerif-52" />
              </defs>
              <use
                 xlink:href="#DejaVuSerif-48"
                 id="use14962" />
              <use
                 x="63.623047"
                 xlink:href="#DejaVuSerif-46"
                 id="use14964" />
              <use
                 x="95.410156"
                 xlink:href="#DejaVuSerif-52"
                 id="use14966" />
            </g>
          </g>
        </g>
        <g
           id="ytick_4">
          <g
             id="line2d_25">
            <path
               clip-path="url(#p973a7f0fef)"
               d="M 57.6 148.940308  L 414.72 148.940308  "
               style="fill:none;stroke:#b0b0b0;stroke-linecap:square;stroke-width:0.8;"
               id="path14972" />
          </g>
          <g
             id="line2d_26">
            <g
               id="g14977">
              <use
                 style="stroke:#000000;stroke-width:0.8;"
                 x="57.6"
                 xlink:href="#m30a84c7557"
                 y="148.940308"
                 id="use14975" />
            </g>
          </g>
          <g
             id="text_14">
            <!-- 0.6 -->
            <g
               transform="translate(34.696875 152.739526)scale(0.1 -0.1)"
               id="g14989">
              <defs
                 id="defs14981">
                <path
                   d="M 32.71875 3.421875  Q 39.59375 3.421875 43.296875 8.46875  Q 47.015625 13.53125 47.015625 23  Q 47.015625 32.46875 43.296875 37.515625  Q 39.59375 42.578125 32.71875 42.578125  Q 25.734375 42.578125 22.0625 37.6875  Q 18.40625 32.8125 18.40625 23.578125  Q 18.40625 13.875 22.109375 8.640625  Q 25.828125 3.421875 32.71875 3.421875  z M 16.796875 40.140625  Q 20.125 43.796875 24.3125 45.59375  Q 28.515625 47.40625 33.796875 47.40625  Q 44.671875 47.40625 51 40.859375  Q 57.328125 34.328125 57.328125 23  Q 57.328125 11.921875 50.515625 5.25  Q 43.703125 -1.421875 32.328125 -1.421875  Q 19.96875 -1.421875 13.328125 7.78125  Q 6.6875 17 6.6875 34.078125  Q 6.6875 53.21875 14.546875 63.71875  Q 22.40625 74.21875 36.71875 74.21875  Q 40.578125 74.21875 44.828125 73.484375  Q 49.078125 72.75 53.515625 71.296875  L 53.515625 59.28125  L 48 59.28125  Q 47.40625 64.203125 44.234375 66.796875  Q 41.0625 69.390625 35.6875 69.390625  Q 26.21875 69.390625 21.578125 62.203125  Q 16.9375 55.03125 16.796875 40.140625  z "
                   id="DejaVuSerif-54" />
              </defs>
              <use
                 xlink:href="#DejaVuSerif-48"
                 id="use14983" />
              <use
                 x="63.623047"
                 xlink:href="#DejaVuSerif-46"
                 id="use14985" />
              <use
                 x="95.410156"
                 xlink:href="#DejaVuSerif-54"
                 id="use14987" />
            </g>
          </g>
        </g>
        <g
           id="ytick_5">
          <g
             id="line2d_27">
            <path
               clip-path="url(#p973a7f0fef)"
               d="M 57.6 97.764923  L 414.72 97.764923  "
               style="fill:none;stroke:#b0b0b0;stroke-linecap:square;stroke-width:0.8;"
               id="path14993" />
          </g>
          <g
             id="line2d_28">
            <g
               id="g14998">
              <use
                 style="stroke:#000000;stroke-width:0.8;"
                 x="57.6"
                 xlink:href="#m30a84c7557"
                 y="97.764923"
                 id="use14996" />
            </g>
          </g>
          <g
             id="text_15">
            <!-- 0.8 -->
            <g
               transform="translate(34.696875 101.564142)scale(0.1 -0.1)"
               id="g15010">
              <defs
                 id="defs15002">
                <path
                   d="M 46.578125 19.921875  Q 46.578125 27.734375 42.6875 32.046875  Q 38.8125 36.375 31.78125 36.375  Q 24.75 36.375 20.875 32.046875  Q 17 27.734375 17 19.921875  Q 17 12.0625 20.875 7.734375  Q 24.75 3.421875 31.78125 3.421875  Q 38.8125 3.421875 42.6875 7.734375  Q 46.578125 12.0625 46.578125 19.921875  z M 44.578125 55.328125  Q 44.578125 61.96875 41.203125 65.671875  Q 37.84375 69.390625 31.78125 69.390625  Q 25.78125 69.390625 22.390625 65.671875  Q 19 61.96875 19 55.328125  Q 19 48.640625 22.390625 44.921875  Q 25.78125 41.21875 31.78125 41.21875  Q 37.84375 41.21875 41.203125 44.921875  Q 44.578125 48.640625 44.578125 55.328125  z M 39.3125 38.8125  Q 47.609375 37.703125 52.25 32.6875  Q 56.890625 27.6875 56.890625 19.921875  Q 56.890625 9.671875 50.390625 4.125  Q 43.890625 -1.421875 31.78125 -1.421875  Q 19.734375 -1.421875 13.203125 4.125  Q 6.6875 9.671875 6.6875 19.921875  Q 6.6875 27.6875 11.328125 32.6875  Q 15.96875 37.703125 24.3125 38.8125  Q 16.9375 40.140625 13 44.40625  Q 9.078125 48.6875 9.078125 55.328125  Q 9.078125 64.109375 15.125 69.15625  Q 21.1875 74.21875 31.78125 74.21875  Q 42.390625 74.21875 48.4375 69.15625  Q 54.5 64.109375 54.5 55.328125  Q 54.5 48.6875 50.5625 44.40625  Q 46.625 40.140625 39.3125 38.8125  z "
                   id="DejaVuSerif-56" />
              </defs>
              <use
                 xlink:href="#DejaVuSerif-48"
                 id="use15004" />
              <use
                 x="63.623047"
                 xlink:href="#DejaVuSerif-46"
                 id="use15006" />
              <use
                 x="95.410156"
                 xlink:href="#DejaVuSerif-56"
                 id="use15008" />
            </g>
          </g>
        </g>
        <g
           id="ytick_6">
          <g
             id="line2d_29">
            <path
               clip-path="url(#p973a7f0fef)"
               d="M 57.6 46.589538  L 414.72 46.589538  "
               style="fill:none;stroke:#b0b0b0;stroke-linecap:square;stroke-width:0.8;"
               id="path15014" />
          </g>
          <g
             id="line2d_30">
            <g
               id="g15019">
              <use
                 style="stroke:#000000;stroke-width:0.8;"
                 x="57.6"
                 xlink:href="#m30a84c7557"
                 y="46.589538"
                 id="use15017" />
            </g>
          </g>
          <g
             id="text_16">
            <!-- 1.0 -->
            <g
               transform="translate(34.696875 50.388757)scale(0.1 -0.1)"
               id="g15028">
              <use
                 xlink:href="#DejaVuSerif-49"
                 id="use15022" />
              <use
                 x="63.623047"
                 xlink:href="#DejaVuSerif-46"
                 id="use15024" />
              <use
                 x="95.410156"
                 xlink:href="#DejaVuSerif-48"
                 id="use15026" />
            </g>
          </g>
        </g>
        <g
           id="text_17">
          <!-- Frequency -->
          <g
             transform="translate(26.919687 220.503703)rotate(-90)scale(0.17 -0.17)"
             id="g15058">
            <defs
               id="defs15038">
              <path
                 d="M 5.515625 0  L 5.515625 5.171875  L 14.796875 5.171875  L 14.796875 67.671875  L 5.515625 67.671875  L 5.515625 72.90625  L 65.1875 72.90625  L 65.1875 56.6875  L 59.1875 56.6875  L 59.1875 66.890625  L 24.703125 66.890625  L 24.703125 42.484375  L 49.609375 42.484375  L 49.609375 51.609375  L 55.609375 51.609375  L 55.609375 27.390625  L 49.609375 27.390625  L 49.609375 36.53125  L 24.703125 36.53125  L 24.703125 5.171875  L 36.375 5.171875  L 36.375 0  z "
                 id="DejaVuSerif-70" />
              <path
                 d="M 47.796875 52  L 47.796875 39.015625  L 42.625 39.015625  Q 42.390625 42.875 40.484375 44.78125  Q 38.578125 46.6875 34.90625 46.6875  Q 28.265625 46.6875 24.71875 42.09375  Q 21.1875 37.5 21.1875 28.90625  L 21.1875 5.171875  L 31.59375 5.171875  L 31.59375 0  L 4.109375 0  L 4.109375 5.171875  L 12.203125 5.171875  L 12.203125 46.78125  L 3.609375 46.78125  L 3.609375 51.90625  L 21.1875 51.90625  L 21.1875 42.671875  Q 23.828125 48.09375 27.96875 50.703125  Q 32.125 53.328125 38.09375 53.328125  Q 40.28125 53.328125 42.703125 52.984375  Q 45.125 52.640625 47.796875 52  z "
                 id="DejaVuSerif-114" />
              <path
                 d="M 52.484375 46.6875  L 52.484375 -15.578125  L 61.078125 -15.578125  L 61.078125 -20.796875  L 35.015625 -20.796875  L 35.015625 -15.578125  L 43.5 -15.578125  L 43.5 8.109375  Q 40.875 3.21875 36.796875 0.890625  Q 32.71875 -1.421875 26.703125 -1.421875  Q 17.140625 -1.421875 11.0625 6.171875  Q 4.984375 13.765625 4.984375 25.984375  Q 4.984375 38.1875 11.03125 45.75  Q 17.09375 53.328125 26.703125 53.328125  Q 32.71875 53.328125 36.796875 51  Q 40.875 48.6875 43.5 43.796875  L 43.5 51.90625  L 61.078125 51.90625  L 61.078125 46.6875  z M 43.5 28.515625  Q 43.5 37.84375 39.90625 42.765625  Q 36.328125 47.703125 29.5 47.703125  Q 22.5625 47.703125 19.015625 42.234375  Q 15.484375 36.765625 15.484375 25.984375  Q 15.484375 15.234375 19.015625 9.71875  Q 22.5625 4.203125 29.5 4.203125  Q 36.328125 4.203125 39.90625 9.109375  Q 43.5 14.015625 43.5 23.390625  z "
                 id="DejaVuSerif-113" />
              <path
                 d="M 35.40625 51.90625  L 52.203125 51.90625  L 52.203125 5.171875  L 60.6875 5.171875  L 60.6875 0  L 43.21875 0  L 43.21875 9.1875  Q 40.71875 4 36.765625 1.28125  Q 32.8125 -1.421875 27.59375 -1.421875  Q 18.953125 -1.421875 14.875 3.484375  Q 10.796875 8.40625 10.796875 18.890625  L 10.796875 46.6875  L 2.6875 46.6875  L 2.6875 51.90625  L 19.828125 51.90625  L 19.828125 21.6875  Q 19.828125 12.203125 22.140625 8.6875  Q 24.46875 5.171875 30.421875 5.171875  Q 36.671875 5.171875 39.9375 9.765625  Q 43.21875 14.359375 43.21875 23.09375  L 43.21875 46.6875  L 35.40625 46.6875  z "
                 id="DejaVuSerif-117" />
              <path
                 d="M 4.109375 0  L 4.109375 5.171875  L 12.203125 5.171875  L 12.203125 46.6875  L 3.609375 46.6875  L 3.609375 51.90625  L 21.1875 51.90625  L 21.1875 42.671875  Q 23.6875 47.953125 27.65625 50.640625  Q 31.640625 53.328125 36.921875 53.328125  Q 45.515625 53.328125 49.5625 48.390625  Q 53.609375 43.453125 53.609375 33.015625  L 53.609375 5.171875  L 61.625 5.171875  L 61.625 0  L 36.8125 0  L 36.8125 5.171875  L 44.578125 5.171875  L 44.578125 30.171875  Q 44.578125 39.703125 42.234375 43.234375  Q 39.890625 46.78125 33.984375 46.78125  Q 27.734375 46.78125 24.453125 42.203125  Q 21.1875 37.640625 21.1875 28.90625  L 21.1875 5.171875  L 29 5.171875  L 29 0  z "
                 id="DejaVuSerif-110" />
              <path
                 d="M 21.578125 -9.515625  L 25 -0.875  L 5.609375 46.6875  L -0.296875 46.6875  L -0.296875 51.90625  L 23.578125 51.90625  L 23.578125 46.6875  L 15.28125 46.6875  L 29.890625 10.984375  L 44.484375 46.6875  L 36.71875 46.6875  L 36.71875 51.90625  L 56.203125 51.90625  L 56.203125 46.6875  L 50.390625 46.6875  L 26.609375 -11.71875  Q 24.171875 -17.78125 21.1875 -20  Q 18.21875 -22.21875 12.796875 -22.21875  Q 10.5 -22.21875 8.078125 -21.828125  Q 5.671875 -21.4375 3.21875 -20.703125  L 3.21875 -10.796875  L 7.8125 -10.796875  Q 8.109375 -14.109375 9.5 -15.546875  Q 10.890625 -17 13.8125 -17  Q 16.5 -17 18.140625 -15.5  Q 19.78125 -14.015625 21.578125 -9.515625  z "
                 id="DejaVuSerif-121" />
            </defs>
            <use
               xlink:href="#DejaVuSerif-70"
               id="use15040" />
            <use
               x="69.384766"
               xlink:href="#DejaVuSerif-114"
               id="use15042" />
            <use
               x="117.1875"
               xlink:href="#DejaVuSerif-101"
               id="use15044" />
            <use
               x="176.367188"
               xlink:href="#DejaVuSerif-113"
               id="use15046" />
            <use
               x="240.380859"
               xlink:href="#DejaVuSerif-117"
               id="use15048" />
            <use
               x="304.785156"
               xlink:href="#DejaVuSerif-101"
               id="use15050" />
            <use
               x="363.964844"
               xlink:href="#DejaVuSerif-110"
               id="use15052" />
            <use
               x="428.369141"
               xlink:href="#DejaVuSerif-99"
               id="use15054" />
            <use
               x="484.375"
               xlink:href="#DejaVuSerif-121"
               id="use15056" />
          </g>
        </g>
      </g>
      <g
         id="line2d_31">
        <path
           clip-path="url(#p973a7f0fef)"
           d="M 73.832727 302.466462  L 217.492364 302.358004  L 219.440291 302.106631  L 223.6608 301.513492  L 230.8032 300.700326  L 234.699055 300.477621  L 238.270255 300.492511  L 242.166109 300.743089  L 247.360582 301.327007  L 256.775564 302.422721  L 266.839855 302.45512  L 360.178036 302.466462  L 398.487273 302.466462  L 398.487273 302.466462  "
           style="fill:none;stroke:#9acd32;stroke-linecap:square;stroke-width:3;"
           id="path15062" />
      </g>
      <g
         id="line2d_32">
        <path
           clip-path="url(#p973a7f0fef)"
           d="M 73.832727 302.466462  L 207.265745 302.356944  L 212.784873 302.177172  L 213.921164 301.968933  L 214.7328 301.592932  L 215.219782 301.163785  L 215.706764 300.457066  L 216.193745 299.297906  L 216.680727 297.41601  L 217.167709 294.416913  L 217.654691 289.784376  L 218.141673 282.987818  L 218.790982 270.26515  L 221.225891 216.680697  L 222.849164 189.009755  L 224.634764 162.186886  L 226.420364 138.680562  L 227.881309 122.094581  L 229.342255 108.0528  L 230.640873 97.792667  L 231.777164 90.563214  L 232.751127 85.672472  L 233.562764 82.516936  L 234.3744 80.195239  L 235.023709 78.936316  L 235.510691 78.340366  L 235.997673 78.042488  L 236.484655 78.042488  L 236.971636 78.340366  L 237.458618 78.936316  L 238.107927 80.195239  L 238.757236 81.985982  L 239.568873 84.974524  L 240.380509 88.798983  L 241.354473 94.493629  L 242.490764 102.657916  L 243.627055 112.44316  L 244.925673 125.565182  L 246.386618 142.697349  L 248.009891 164.490784  L 249.795491 191.613708  L 251.418764 219.714471  L 252.555055 243.355761  L 254.340655 282.987818  L 254.989964 291.544895  L 255.476945 295.570598  L 255.963927 298.145187  L 256.450909 299.748928  L 256.937891 300.732623  L 257.5872 301.472909  L 258.236509 301.853955  L 259.210473 302.113587  L 260.833745 302.256206  L 265.865891 302.365875  L 281.124655 302.455087  L 351.087709 302.466462  L 398.487273 302.466462  L 398.487273 302.466462  "
           style="fill:none;stroke:#ffa500;stroke-linecap:square;stroke-width:3;"
           id="path15065" />
      </g>
      <g
         id="line2d_33">
        <path
           clip-path="url(#p973a7f0fef)"
           d="M 73.832727 302.466462  L 211.648582 302.364602  L 212.784873 302.121564  L 213.434182 301.777518  L 213.921164 301.312334  L 214.408145 300.539029  L 214.895127 299.25974  L 215.382109 297.156756  L 215.869091 293.729379  L 216.356073 288.211406  L 216.843055 279.48695  L 217.330036 266.072209  L 217.817018 246.342654  L 218.466327 208.834489  L 220.0896 103.880581  L 220.738909 79.618658  L 221.225891 68.009888  L 221.712873 60.314339  L 222.199855 55.288375  L 222.686836 52.043538  L 223.173818 49.971528  L 223.6608 48.66337  L 224.147782 47.847124  L 224.797091 47.224189  L 225.4464 46.903928  L 226.420364 46.695655  L 228.205964 46.602797  L 236.809309 46.58954  L 246.061964 46.695655  L 247.035927 46.903928  L 247.685236 47.224189  L 248.172218 47.651393  L 248.6592 48.34704  L 249.146182 49.46636  L 249.633164 51.246166  L 250.120145 54.043823  L 250.607127 58.393004  L 251.094109 65.079117  L 251.581091 75.222291  L 252.068073 90.297917  L 252.555055 111.870981  L 253.204364 151.559989  L 254.665309 246.342654  L 255.314618 271.167791  L 255.8016 282.836234  L 256.288582 290.343965  L 256.775564 295.059828  L 257.262545 297.975578  L 257.749527 299.758934  L 258.236509 300.841275  L 258.723491 301.494383  L 259.3728 301.978749  L 260.184436 302.261714  L 261.483055 302.415933  L 264.567273 302.464706  L 328.524218 302.466462  L 398.487273 302.466462  L 398.487273 302.466462  "
           style="fill:none;stroke:#ff1493;stroke-linecap:square;stroke-width:3;"
           id="path15068" />
      </g>
      <g
         id="patch_3">
        <path
           d="M 57.6 307.584  L 57.6 41.472  "
           style="fill:none;stroke:#000000;stroke-linecap:square;stroke-linejoin:miter;stroke-width:0.8;"
           id="path15071" />
      </g>
      <g
         id="patch_4">
        <path
           d="M 414.72 307.584  L 414.72 41.472  "
           style="fill:none;stroke:#000000;stroke-linecap:square;stroke-linejoin:miter;stroke-width:0.8;"
           id="path15074" />
      </g>
      <g
         id="patch_5">
        <path
           d="M 57.6 307.584  L 414.72 307.584  "
           style="fill:none;stroke:#000000;stroke-linecap:square;stroke-linejoin:miter;stroke-width:0.8;"
           id="path15077" />
      </g>
      <g
         id="patch_6">
        <path
           d="M 57.6 41.472  L 414.72 41.472  "
           style="fill:none;stroke:#000000;stroke-linecap:square;stroke-linejoin:miter;stroke-width:0.8;"
           id="path15080" />
      </g>
      <g
         id="text_18">
        <!-- t = 300 -->
        <g
           transform="translate(357.956719 35.472)scale(0.15 -0.15)"
           id="g15103">
          <defs
             id="defs15087">
            <path
               d="M 10.796875 46.6875  L 2.875 46.6875  L 2.875 51.90625  L 10.796875 51.90625  L 10.796875 68.015625  L 19.828125 68.015625  L 19.828125 51.90625  L 36.71875 51.90625  L 36.71875 46.6875  L 19.828125 46.6875  L 19.828125 13.71875  Q 19.828125 7.125 21.09375 5.265625  Q 22.359375 3.421875 25.78125 3.421875  Q 29.296875 3.421875 30.90625 5.484375  Q 32.515625 7.5625 32.625 12.203125  L 39.40625 12.203125  Q 39.015625 5.125 35.546875 1.84375  Q 32.078125 -1.421875 25 -1.421875  Q 17.234375 -1.421875 14.015625 2.015625  Q 10.796875 5.46875 10.796875 13.71875  z "
               id="DejaVuSerif-116" />
            <path
               id="DejaVuSerif-32" />
            <path
               d="M 10.59375 45.21875  L 73.1875 45.21875  L 73.1875 37.40625  L 10.59375 37.40625  z M 10.59375 25.296875  L 73.1875 25.296875  L 73.1875 17.484375  L 10.59375 17.484375  z "
               id="DejaVuSerif-61" />
            <path
               d="M 9.71875 69.828125  Q 15.4375 71.96875 20.671875 73.09375  Q 25.921875 74.21875 30.515625 74.21875  Q 41.21875 74.21875 47.21875 69.59375  Q 53.21875 64.984375 53.21875 56.78125  Q 53.21875 50.203125 49.0625 45.78125  Q 44.921875 41.359375 37.3125 39.796875  Q 46.296875 38.53125 51.25 33.28125  Q 56.203125 28.03125 56.203125 19.671875  Q 56.203125 9.46875 49.34375 4.015625  Q 42.484375 -1.421875 29.59375 -1.421875  Q 23.875 -1.421875 18.421875 -0.1875  Q 12.984375 1.03125 7.625 3.515625  L 7.625 17.671875  L 13.09375 17.671875  Q 13.578125 10.640625 17.828125 7.03125  Q 22.078125 3.421875 29.78125 3.421875  Q 37.25 3.421875 41.578125 7.734375  Q 45.90625 12.0625 45.90625 19.578125  Q 45.90625 28.171875 41.453125 32.59375  Q 37.015625 37.015625 28.421875 37.015625  L 23.78125 37.015625  L 23.78125 42  L 26.21875 42  Q 34.765625 42 39.03125 45.53125  Q 43.3125 49.078125 43.3125 56.203125  Q 43.3125 62.59375 39.796875 65.984375  Q 36.28125 69.390625 29.6875 69.390625  Q 23.09375 69.390625 19.453125 66.265625  Q 15.828125 63.140625 15.1875 56.984375  L 9.71875 56.984375  z "
               id="DejaVuSerif-51" />
          </defs>
          <use
             xlink:href="#DejaVuSerif-116"
             id="use15089" />
          <use
             x="40.185547"
             xlink:href="#DejaVuSerif-32"
             id="use15091" />
          <use
             x="71.972656"
             xlink:href="#DejaVuSerif-61"
             id="use15093" />
          <use
             x="155.761719"
             xlink:href="#DejaVuSerif-32"
             id="use15095" />
          <use
             x="187.548828"
             xlink:href="#DejaVuSerif-51"
             id="use15097" />
          <use
             x="251.171875"
             xlink:href="#DejaVuSerif-48"
             id="use15099" />
          <use
             x="314.794922"
             xlink:href="#DejaVuSerif-48"
             id="use15101" />
        </g>
      </g>
    </g>
    <g
       id="legend_1"
       style="stroke-linecap:butt;stroke-linejoin:round"
       transform="translate(-1.661717,0.1798832)">
      <g
         id="patch_7"
         style="stroke-linecap:butt;stroke-linejoin:round">
        <path
           d="m 317.88,103.91325 h 88.44 q 2.4,0 2.4,-2.4 V 49.872 q 0,-2.4 -2.4,-2.4 h -88.44 q -2.4,0 -2.4,2.4 v 51.64125 q 0,2.4 2.4,2.4 z"
           style="opacity:0.8;fill:#ffffff;stroke:#cccccc;stroke-linecap:butt;stroke-linejoin:miter"
           id="path4547" />
      </g>
      <g
         id="line2d_816"
         style="stroke-linecap:butt;stroke-linejoin:round">
        <path
           d="m 320.28,57.190125 h 24"
           style="fill:none;stroke:#9acd32;stroke-width:3;stroke-linecap:square;stroke-linejoin:round"
           id="path4550" />
      </g>
      <g
         id="line2d_817"
         style="stroke-linecap:butt;stroke-linejoin:round" />
      <g
         id="text_10-3"
         style="stroke-linecap:butt;stroke-linejoin:round">
        <!-- $X_A$ -->
        <g
           transform="matrix(0.12,0,0,-0.12,353.88,61.390125)"
           id="g4562"
           style="stroke-linecap:butt;stroke-linejoin:round">
          <defs
             id="defs4556">
            <path
               d="m 13.71875,72.90625 h 9.96875 l 12.5,-26.328125 22.609375,26.328125 H 70.3125 L 40.28125,38.09375 58.40625,0 H 48.484375 L 33.796875,30.71875 7.171875,0 H -4.296875 L 29.78125,39.203125 Z"
               id="path28451" />
            <path
               d="M 36.8125,72.90625 H 48 L 61.53125,0 H 51.21875 L 48.1875,18.703125 H 15.375 L 5.078125,0 H -5.328125 Z M 40.375,63.1875 19.921875,26.90625 H 46.6875 Z"
               id="path28453" />
          </defs>
          <use
             transform="translate(0,0.09375)"
             xlink:href="#DejaVuSans-Oblique-88"
             id="use4558"
             style="stroke-linecap:butt;stroke-linejoin:round" />
          <use
             transform="matrix(0.7,0,0,0.7,68.505859,-16.3125)"
             xlink:href="#DejaVuSans-Oblique-65"
             id="use4560"
             style="stroke-linecap:butt;stroke-linejoin:round" />
        </g>
      </g>
      <g
         id="line2d_818"
         style="stroke-linecap:butt;stroke-linejoin:round">
        <path
           d="m 320.28,74.803875 h 24"
           style="fill:none;stroke:#ffa500;stroke-width:3;stroke-linecap:square;stroke-linejoin:round"
           id="path4565" />
      </g>
      <g
         id="line2d_819"
         style="stroke-linecap:butt;stroke-linejoin:round" />
      <g
         id="text_11-6"
         style="stroke-linecap:butt;stroke-linejoin:round">
        <!-- $X_B$ -->
        <g
           transform="matrix(0.12,0,0,-0.12,353.88,79.003875)"
           id="g4576"
           style="stroke-linecap:butt;stroke-linejoin:round">
          <defs
             id="defs4570">
            <path
               d="M 16.890625,72.90625 H 42.09375 q 10.25,0 15.328125,-3.8125 Q 62.5,65.28125 62.5,57.625 62.5,50.59375 58.125,45.484375 53.765625,40.375 46.6875,39.3125 q 6.046875,-1.375 9.078125,-5.234375 3.03125,-3.859375 3.03125,-10.296875 0,-10.984375 -8.140625,-17.390625 Q 42.53125,0 28.421875,0 H 2.6875 Z M 19.28125,34.8125 14.109375,8.109375 h 15.875 q 8.9375,0 13.765625,4.09375 4.828125,4.109375 4.828125,11.578125 0,5.765625 -3.203125,8.390625 Q 42.1875,34.8125 35.109375,34.8125 Z m 5.8125,29.984375 -4.296875,-21.96875 H 35.5 q 7.859375,0 12.28125,3.40625 4.421875,3.421875 4.421875,9.484375 0,4.734375 -2.984375,6.90625 -2.984375,2.171875 -9.515625,2.171875 z"
               id="path28463" />
          </defs>
          <use
             transform="translate(0,0.09375)"
             xlink:href="#DejaVuSans-Oblique-88"
             id="use4572"
             style="stroke-linecap:butt;stroke-linejoin:round" />
          <use
             transform="matrix(0.7,0,0,0.7,68.505859,-16.3125)"
             xlink:href="#DejaVuSans-Oblique-66"
             id="use4574"
             style="stroke-linecap:butt;stroke-linejoin:round" />
        </g>
      </g>
      <g
         id="line2d_820"
         style="stroke-linecap:butt;stroke-linejoin:round">
        <path
           d="m 320.28,92.417625 h 24"
           style="fill:none;stroke:#ff1493;stroke-width:3;stroke-linecap:square;stroke-linejoin:round"
           id="path4579" />
      </g>
      <g
         id="line2d_821"
         style="stroke-linecap:butt;stroke-linejoin:round" />
      <g
         id="text_12-7"
         style="stroke-linecap:butt;stroke-linejoin:round">
        <!-- $X_C$ or $X_D$ -->
        <g
           transform="matrix(0.12,0,0,-0.12,353.88,96.617625)"
           id="g4604"
           style="stroke-linecap:butt;stroke-linejoin:round">
          <defs
             id="defs4586">
            <path
               d="m 69.484375,67.28125 -2,-10.390625 q -4.6875,4.734375 -9.9375,7.03125 -5.25,2.296875 -11.359375,2.296875 -8.34375,0 -14.671875,-4.015625 -6.3125,-4 -10.90625,-12.203125 Q 17.671875,44.734375 16.125,38.84375 14.59375,32.953125 14.59375,27 14.59375,17.046875 19.75,11.8125 24.90625,6.59375 34.71875,6.59375 41.5,6.59375 47.75,8.765625 54,10.9375 59.90625,15.28125 L 57.625,3.609375 q -5.8125,-2.484375 -11.75,-3.75 -5.9375,-1.28125 -11.890625,-1.28125 -14.015625,0 -21.90625,7.609375 -7.875,7.625 -7.875,21.203125 0,8.6875 3,17.078125 3,8.40625 8.625,15.34375 5.953125,7.375 13.59375,10.890625 7.640625,3.515625 17.796875,3.515625 6.25,0 11.84375,-1.734375 Q 64.65625,70.75 69.484375,67.28125 Z"
               id="path28473" />
            <path
               d="m 30.078125,3.421875 q 7.234375,0 10.90625,5.703125 3.6875,5.71875 3.6875,16.859375 0,11.125 -3.6875,16.8125 -3.671875,5.6875 -10.90625,5.6875 -7.21875,0 -10.90625,-5.6875 -3.6875,-5.6875 -3.6875,-16.8125 0,-11.140625 3.703125,-16.859375 3.71875,-5.703125 10.890625,-5.703125 z m 0,-4.84375 q -11.328125,0 -18.21875,7.5 -6.875,7.5 -6.875,19.90625 0,12.390625 6.859375,19.859375 6.859375,7.484375 18.234375,7.484375 11.375,0 18.234375,-7.484375 6.859375,-7.46875 6.859375,-19.859375 0,-12.40625 -6.859375,-19.90625 -6.859375,-7.5 -18.234375,-7.5 z"
               id="path28475" />
            <path
               d="M 16.890625,72.90625 H 38.09375 q 16.890625,0 25.5,-7.15625 8.625,-7.15625 8.625,-21.265625 0,-9.328125 -3.28125,-17.953125 Q 65.671875,17.921875 59.90625,12.015625 54.109375,5.953125 45.171875,2.96875 36.234375,0 24.03125,0 H 2.6875 Z m 8.3125,-8.109375 -11,-56.6875 H 27.09375 q 16.5625,0 25.640625,9.515625 9.078125,9.53125 9.078125,26.859375 0,10.5 -5.859375,15.40625 -5.859375,4.90625 -18.359375,4.90625 z"
               id="path28477" />
          </defs>
          <use
             transform="translate(0,0.09375)"
             xlink:href="#DejaVuSans-Oblique-88"
             id="use4588"
             style="stroke-linecap:butt;stroke-linejoin:round" />
          <use
             transform="matrix(0.7,0,0,0.7,68.505859,-16.3125)"
             xlink:href="#DejaVuSans-Oblique-67"
             id="use4590"
             style="stroke-linecap:butt;stroke-linejoin:round" />
          <use
             transform="translate(120.11719,0.09375)"
             xlink:href="#DejaVuSerif-32"
             id="use4592"
             style="stroke-linecap:butt;stroke-linejoin:round" />
          <use
             transform="translate(151.9043,0.09375)"
             xlink:href="#DejaVuSerif-111"
             id="use4594"
             style="stroke-linecap:butt;stroke-linejoin:round" />
          <use
             transform="translate(212.10937,0.09375)"
             xlink:href="#DejaVuSerif-114"
             id="use4596"
             style="stroke-linecap:butt;stroke-linejoin:round" />
          <use
             transform="translate(259.91211,0.09375)"
             xlink:href="#DejaVuSerif-32"
             id="use4598"
             style="stroke-linecap:butt;stroke-linejoin:round" />
          <use
             transform="translate(291.69922,0.09375)"
             xlink:href="#DejaVuSans-Oblique-88"
             id="use4600"
             style="stroke-linecap:butt;stroke-linejoin:round" />
          <use
             transform="matrix(0.7,0,0,0.7,360.20508,-16.3125)"
             xlink:href="#DejaVuSans-Oblique-68"
             id="use4602"
             style="stroke-linecap:butt;stroke-linejoin:round" />
        </g>
      </g>
    </g>
  </g>
  <defs
     id="defs15166">
    <clipPath
       id="p973a7f0fef">
      <rect
         height="266.112"
         width="357.12"
         x="57.6"
         y="41.472"
         id="rect15163" />
    </clipPath>
  </defs>
</svg>
