<?xml version="1.0" encoding="utf-8" standalone="no"?>
<!DOCTYPE svg PUBLIC "-//W3C//DTD SVG 1.1//EN"
  "http://www.w3.org/Graphics/SVG/1.1/DTD/svg11.dtd">
<!-- Created with matplotlib (https://matplotlib.org/) -->
<svg height="345.6pt" version="1.1" viewBox="0 0 460.8 345.6" width="460.8pt" xmlns="http://www.w3.org/2000/svg" xmlns:xlink="http://www.w3.org/1999/xlink">
 <metadata>
  <rdf:RDF xmlns:cc="http://creativecommons.org/ns#" xmlns:dc="http://purl.org/dc/elements/1.1/" xmlns:rdf="http://www.w3.org/1999/02/22-rdf-syntax-ns#">
   <cc:Work>
    <dc:type rdf:resource="http://purl.org/dc/dcmitype/StillImage"/>
    <dc:date>2022-08-27T15:24:29.978453</dc:date>
    <dc:format>image/svg+xml</dc:format>
    <dc:creator>
     <cc:Agent>
      <dc:title>Matplotlib v3.3.4, https://matplotlib.org/</dc:title>
     </cc:Agent>
    </dc:creator>
   </cc:Work>
  </rdf:RDF>
 </metadata>
 <defs>
  <style type="text/css">*{stroke-linecap:butt;stroke-linejoin:round;}</style>
 </defs>
 <g id="figure_1">
  <g id="patch_1">
   <path d="M 0 345.6 
L 460.8 345.6 
L 460.8 0 
L 0 0 
z
" style="fill:#ffffff;"/>
  </g>
  <g id="axes_1">
   <g id="patch_2">
    <path d="M 57.6 307.584 
L 414.72 307.584 
L 414.72 41.472 
L 57.6 41.472 
z
" style="fill:#ffffff;"/>
   </g>
   <g id="matplotlib.axis_1">
    <g id="xtick_1">
     <g id="line2d_1">
      <path clip-path="url(#p599efe893f)" d="M 72.352218 307.584 
L 72.352218 41.472 
" style="fill:none;stroke:#b0b0b0;stroke-linecap:square;stroke-width:0.8;"/>
     </g>
     <g id="line2d_2">
      <defs>
       <path d="M 0 0 
L 0 3.5 
" id="m5e6b156b4b" style="stroke:#000000;stroke-width:0.8;"/>
      </defs>
      <g>
       <use style="stroke:#000000;stroke-width:0.8;" x="72.352218" xlink:href="#m5e6b156b4b" y="307.584"/>
      </g>
     </g>
     <g id="text_1">
      <!-- 0 -->
      <g transform="translate(69.170968 322.182437)scale(0.1 -0.1)">
       <defs>
        <path d="M 31.78125 3.421875 
Q 39.265625 3.421875 42.96875 11.625 
Q 46.6875 19.828125 46.6875 36.375 
Q 46.6875 52.984375 42.96875 61.1875 
Q 39.265625 69.390625 31.78125 69.390625 
Q 24.3125 69.390625 20.59375 61.1875 
Q 16.890625 52.984375 16.890625 36.375 
Q 16.890625 19.828125 20.59375 11.625 
Q 24.3125 3.421875 31.78125 3.421875 
z
M 31.78125 -1.421875 
Q 19.921875 -1.421875 13.25 8.53125 
Q 6.59375 18.5 6.59375 36.375 
Q 6.59375 54.296875 13.25 64.25 
Q 19.921875 74.21875 31.78125 74.21875 
Q 43.703125 74.21875 50.34375 64.25 
Q 56.984375 54.296875 56.984375 36.375 
Q 56.984375 18.5 50.34375 8.53125 
Q 43.703125 -1.421875 31.78125 -1.421875 
z
" id="DejaVuSerif-48"/>
       </defs>
       <use xlink:href="#DejaVuSerif-48"/>
      </g>
     </g>
    </g>
    <g id="xtick_2">
     <g id="line2d_3">
      <path clip-path="url(#p599efe893f)" d="M 142.852662 307.584 
L 142.852662 41.472 
" style="fill:none;stroke:#b0b0b0;stroke-linecap:square;stroke-width:0.8;"/>
     </g>
     <g id="line2d_4">
      <g>
       <use style="stroke:#000000;stroke-width:0.8;" x="142.852662" xlink:href="#m5e6b156b4b" y="307.584"/>
      </g>
     </g>
     <g id="text_2">
      <!-- 100 -->
      <g transform="translate(133.308912 322.182437)scale(0.1 -0.1)">
       <defs>
        <path d="M 14.203125 0 
L 14.203125 5.171875 
L 26.90625 5.171875 
L 26.90625 65.828125 
L 12.203125 56.296875 
L 12.203125 62.703125 
L 29.984375 74.21875 
L 36.71875 74.21875 
L 36.71875 5.171875 
L 49.421875 5.171875 
L 49.421875 0 
z
" id="DejaVuSerif-49"/>
       </defs>
       <use xlink:href="#DejaVuSerif-49"/>
       <use x="63.623047" xlink:href="#DejaVuSerif-48"/>
       <use x="127.246094" xlink:href="#DejaVuSerif-48"/>
      </g>
     </g>
    </g>
    <g id="xtick_3">
     <g id="line2d_5">
      <path clip-path="url(#p599efe893f)" d="M 213.353106 307.584 
L 213.353106 41.472 
" style="fill:none;stroke:#b0b0b0;stroke-linecap:square;stroke-width:0.8;"/>
     </g>
     <g id="line2d_6">
      <g>
       <use style="stroke:#000000;stroke-width:0.8;" x="213.353106" xlink:href="#m5e6b156b4b" y="307.584"/>
      </g>
     </g>
     <g id="text_3">
      <!-- 200 -->
      <g transform="translate(203.809356 322.182437)scale(0.1 -0.1)">
       <defs>
        <path d="M 12.796875 55.515625 
L 7.328125 55.515625 
L 7.328125 68.5 
Q 12.546875 71.296875 17.84375 72.75 
Q 23.140625 74.21875 28.21875 74.21875 
Q 39.59375 74.21875 46.1875 68.703125 
Q 52.78125 63.1875 52.78125 53.71875 
Q 52.78125 43.015625 37.84375 28.125 
Q 36.671875 27 36.078125 26.421875 
L 17.671875 8.015625 
L 48.09375 8.015625 
L 48.09375 17 
L 53.8125 17 
L 53.8125 0 
L 6.78125 0 
L 6.78125 5.328125 
L 28.90625 27.390625 
Q 36.234375 34.71875 39.359375 40.84375 
Q 42.484375 46.96875 42.484375 53.71875 
Q 42.484375 61.078125 38.640625 65.234375 
Q 34.8125 69.390625 28.078125 69.390625 
Q 21.09375 69.390625 17.28125 65.921875 
Q 13.484375 62.453125 12.796875 55.515625 
z
" id="DejaVuSerif-50"/>
       </defs>
       <use xlink:href="#DejaVuSerif-50"/>
       <use x="63.623047" xlink:href="#DejaVuSerif-48"/>
       <use x="127.246094" xlink:href="#DejaVuSerif-48"/>
      </g>
     </g>
    </g>
    <g id="xtick_4">
     <g id="line2d_7">
      <path clip-path="url(#p599efe893f)" d="M 283.85355 307.584 
L 283.85355 41.472 
" style="fill:none;stroke:#b0b0b0;stroke-linecap:square;stroke-width:0.8;"/>
     </g>
     <g id="line2d_8">
      <g>
       <use style="stroke:#000000;stroke-width:0.8;" x="283.85355" xlink:href="#m5e6b156b4b" y="307.584"/>
      </g>
     </g>
     <g id="text_4">
      <!-- 300 -->
      <g transform="translate(274.3098 322.182437)scale(0.1 -0.1)">
       <defs>
        <path d="M 9.71875 69.828125 
Q 15.4375 71.96875 20.671875 73.09375 
Q 25.921875 74.21875 30.515625 74.21875 
Q 41.21875 74.21875 47.21875 69.59375 
Q 53.21875 64.984375 53.21875 56.78125 
Q 53.21875 50.203125 49.0625 45.78125 
Q 44.921875 41.359375 37.3125 39.796875 
Q 46.296875 38.53125 51.25 33.28125 
Q 56.203125 28.03125 56.203125 19.671875 
Q 56.203125 9.46875 49.34375 4.015625 
Q 42.484375 -1.421875 29.59375 -1.421875 
Q 23.875 -1.421875 18.421875 -0.1875 
Q 12.984375 1.03125 7.625 3.515625 
L 7.625 17.671875 
L 13.09375 17.671875 
Q 13.578125 10.640625 17.828125 7.03125 
Q 22.078125 3.421875 29.78125 3.421875 
Q 37.25 3.421875 41.578125 7.734375 
Q 45.90625 12.0625 45.90625 19.578125 
Q 45.90625 28.171875 41.453125 32.59375 
Q 37.015625 37.015625 28.421875 37.015625 
L 23.78125 37.015625 
L 23.78125 42 
L 26.21875 42 
Q 34.765625 42 39.03125 45.53125 
Q 43.3125 49.078125 43.3125 56.203125 
Q 43.3125 62.59375 39.796875 65.984375 
Q 36.28125 69.390625 29.6875 69.390625 
Q 23.09375 69.390625 19.453125 66.265625 
Q 15.828125 63.140625 15.1875 56.984375 
L 9.71875 56.984375 
z
" id="DejaVuSerif-51"/>
       </defs>
       <use xlink:href="#DejaVuSerif-51"/>
       <use x="63.623047" xlink:href="#DejaVuSerif-48"/>
       <use x="127.246094" xlink:href="#DejaVuSerif-48"/>
      </g>
     </g>
    </g>
    <g id="xtick_5">
     <g id="line2d_9">
      <path clip-path="url(#p599efe893f)" d="M 354.353995 307.584 
L 354.353995 41.472 
" style="fill:none;stroke:#b0b0b0;stroke-linecap:square;stroke-width:0.8;"/>
     </g>
     <g id="line2d_10">
      <g>
       <use style="stroke:#000000;stroke-width:0.8;" x="354.353995" xlink:href="#m5e6b156b4b" y="307.584"/>
      </g>
     </g>
     <g id="text_5">
      <!-- 400 -->
      <g transform="translate(344.810245 322.182437)scale(0.1 -0.1)">
       <defs>
        <path d="M 34.90625 24.703125 
L 34.90625 63.484375 
L 10.015625 24.703125 
z
M 56.390625 0 
L 23.1875 0 
L 23.1875 5.171875 
L 34.90625 5.171875 
L 34.90625 19.484375 
L 3.078125 19.484375 
L 3.078125 24.8125 
L 35.015625 74.21875 
L 44.671875 74.21875 
L 44.671875 24.703125 
L 58.59375 24.703125 
L 58.59375 19.484375 
L 44.671875 19.484375 
L 44.671875 5.171875 
L 56.390625 5.171875 
z
" id="DejaVuSerif-52"/>
       </defs>
       <use xlink:href="#DejaVuSerif-52"/>
       <use x="63.623047" xlink:href="#DejaVuSerif-48"/>
       <use x="127.246094" xlink:href="#DejaVuSerif-48"/>
      </g>
     </g>
    </g>
    <g id="text_6">
     <!-- Time -->
     <g transform="translate(214.680234 341.179469)scale(0.17 -0.17)">
      <defs>
       <path d="M 19.09375 0 
L 19.09375 5.171875 
L 28.421875 5.171875 
L 28.421875 67.09375 
L 6.984375 67.09375 
L 6.984375 55.71875 
L 0.984375 55.71875 
L 0.984375 72.90625 
L 65.71875 72.90625 
L 65.71875 55.71875 
L 59.71875 55.71875 
L 59.71875 67.09375 
L 38.28125 67.09375 
L 38.28125 5.171875 
L 47.609375 5.171875 
L 47.609375 0 
z
" id="DejaVuSerif-84"/>
       <path d="M 9.71875 68.015625 
Q 9.71875 70.265625 11.34375 71.921875 
Q 12.984375 73.578125 15.28125 73.578125 
Q 17.53125 73.578125 19.15625 71.921875 
Q 20.796875 70.265625 20.796875 68.015625 
Q 20.796875 65.71875 19.1875 64.109375 
Q 17.578125 62.5 15.28125 62.5 
Q 12.984375 62.5 11.34375 64.109375 
Q 9.71875 65.71875 9.71875 68.015625 
z
M 21.1875 5.171875 
L 29.6875 5.171875 
L 29.6875 0 
L 3.609375 0 
L 3.609375 5.171875 
L 12.203125 5.171875 
L 12.203125 46.6875 
L 3.609375 46.6875 
L 3.609375 51.90625 
L 21.1875 51.90625 
z
" id="DejaVuSerif-105"/>
       <path d="M 51.8125 41.796875 
Q 54.390625 47.515625 58.421875 50.421875 
Q 62.453125 53.328125 67.828125 53.328125 
Q 75.984375 53.328125 79.984375 48.265625 
Q 83.984375 43.21875 83.984375 33.015625 
L 83.984375 5.171875 
L 92.09375 5.171875 
L 92.09375 0 
L 67.1875 0 
L 67.1875 5.171875 
L 75 5.171875 
L 75 31.984375 
Q 75 39.9375 72.65625 43.3125 
Q 70.3125 46.6875 64.890625 46.6875 
Q 58.890625 46.6875 55.734375 42.140625 
Q 52.59375 37.59375 52.59375 28.90625 
L 52.59375 5.171875 
L 60.40625 5.171875 
L 60.40625 0 
L 35.796875 0 
L 35.796875 5.171875 
L 43.609375 5.171875 
L 43.609375 32.328125 
Q 43.609375 40.09375 41.265625 43.390625 
Q 38.921875 46.6875 33.5 46.6875 
Q 27.484375 46.6875 24.328125 42.140625 
Q 21.1875 37.59375 21.1875 28.90625 
L 21.1875 5.171875 
L 29 5.171875 
L 29 0 
L 4.109375 0 
L 4.109375 5.171875 
L 12.203125 5.171875 
L 12.203125 46.78125 
L 3.609375 46.78125 
L 3.609375 51.90625 
L 21.1875 51.90625 
L 21.1875 42.671875 
Q 23.6875 47.859375 27.53125 50.59375 
Q 31.390625 53.328125 36.28125 53.328125 
Q 42.328125 53.328125 46.375 50.3125 
Q 50.4375 47.3125 51.8125 41.796875 
z
" id="DejaVuSerif-109"/>
       <path d="M 54.203125 25 
L 15.484375 25 
L 15.484375 24.609375 
Q 15.484375 14.109375 19.4375 8.765625 
Q 23.390625 3.421875 31.109375 3.421875 
Q 37.015625 3.421875 40.796875 6.515625 
Q 44.578125 9.625 46.09375 15.71875 
L 53.328125 15.71875 
Q 51.171875 7.171875 45.375 2.875 
Q 39.59375 -1.421875 30.171875 -1.421875 
Q 18.796875 -1.421875 11.890625 6.078125 
Q 4.984375 13.578125 4.984375 25.984375 
Q 4.984375 38.28125 11.765625 45.796875 
Q 18.5625 53.328125 29.59375 53.328125 
Q 41.359375 53.328125 47.65625 46.0625 
Q 53.953125 38.8125 54.203125 25 
z
M 43.609375 30.171875 
Q 43.3125 39.265625 39.765625 43.875 
Q 36.234375 48.484375 29.59375 48.484375 
Q 23.390625 48.484375 19.828125 43.84375 
Q 16.265625 39.203125 15.484375 30.171875 
z
" id="DejaVuSerif-101"/>
      </defs>
      <use xlink:href="#DejaVuSerif-84"/>
      <use x="66.699219" xlink:href="#DejaVuSerif-105"/>
      <use x="98.681641" xlink:href="#DejaVuSerif-109"/>
      <use x="193.505859" xlink:href="#DejaVuSerif-101"/>
     </g>
    </g>
   </g>
   <g id="matplotlib.axis_2">
    <g id="ytick_1">
     <g id="line2d_11">
      <path clip-path="url(#p599efe893f)" d="M 57.6 289.8432 
L 414.72 289.8432 
" style="fill:none;stroke:#b0b0b0;stroke-linecap:square;stroke-width:0.8;"/>
     </g>
     <g id="line2d_12">
      <defs>
       <path d="M 0 0 
L -3.5 0 
" id="md1c0e7cd9b" style="stroke:#000000;stroke-width:0.8;"/>
      </defs>
      <g>
       <use style="stroke:#000000;stroke-width:0.8;" x="57.6" xlink:href="#md1c0e7cd9b" y="289.8432"/>
      </g>
     </g>
     <g id="text_7">
      <!-- −0.2 -->
      <g transform="translate(26.317187 293.642419)scale(0.1 -0.1)">
       <defs>
        <path d="M 10.59375 35.296875 
L 73.1875 35.296875 
L 73.1875 27.390625 
L 10.59375 27.390625 
z
" id="DejaVuSerif-8722"/>
        <path d="M 9.421875 5.078125 
Q 9.421875 7.8125 11.28125 9.71875 
Q 13.140625 11.625 15.921875 11.625 
Q 18.609375 11.625 20.5 9.71875 
Q 22.40625 7.8125 22.40625 5.078125 
Q 22.40625 2.390625 20.5 0.484375 
Q 18.609375 -1.421875 15.921875 -1.421875 
Q 13.140625 -1.421875 11.28125 0.453125 
Q 9.421875 2.34375 9.421875 5.078125 
z
" id="DejaVuSerif-46"/>
       </defs>
       <use xlink:href="#DejaVuSerif-8722"/>
       <use x="83.789062" xlink:href="#DejaVuSerif-48"/>
       <use x="147.412109" xlink:href="#DejaVuSerif-46"/>
       <use x="179.199219" xlink:href="#DejaVuSerif-50"/>
      </g>
     </g>
    </g>
    <g id="ytick_2">
     <g id="line2d_13">
      <path clip-path="url(#p599efe893f)" d="M 57.6 254.3616 
L 414.72 254.3616 
" style="fill:none;stroke:#b0b0b0;stroke-linecap:square;stroke-width:0.8;"/>
     </g>
     <g id="line2d_14">
      <g>
       <use style="stroke:#000000;stroke-width:0.8;" x="57.6" xlink:href="#md1c0e7cd9b" y="254.3616"/>
      </g>
     </g>
     <g id="text_8">
      <!-- −0.1 -->
      <g transform="translate(26.317187 258.160819)scale(0.1 -0.1)">
       <use xlink:href="#DejaVuSerif-8722"/>
       <use x="83.789062" xlink:href="#DejaVuSerif-48"/>
       <use x="147.412109" xlink:href="#DejaVuSerif-46"/>
       <use x="179.199219" xlink:href="#DejaVuSerif-49"/>
      </g>
     </g>
    </g>
    <g id="ytick_3">
     <g id="line2d_15">
      <path clip-path="url(#p599efe893f)" d="M 57.6 218.88 
L 414.72 218.88 
" style="fill:none;stroke:#b0b0b0;stroke-linecap:square;stroke-width:0.8;"/>
     </g>
     <g id="line2d_16">
      <g>
       <use style="stroke:#000000;stroke-width:0.8;" x="57.6" xlink:href="#md1c0e7cd9b" y="218.88"/>
      </g>
     </g>
     <g id="text_9">
      <!-- 0.0 -->
      <g transform="translate(34.696875 222.679219)scale(0.1 -0.1)">
       <use xlink:href="#DejaVuSerif-48"/>
       <use x="63.623047" xlink:href="#DejaVuSerif-46"/>
       <use x="95.410156" xlink:href="#DejaVuSerif-48"/>
      </g>
     </g>
    </g>
    <g id="ytick_4">
     <g id="line2d_17">
      <path clip-path="url(#p599efe893f)" d="M 57.6 183.3984 
L 414.72 183.3984 
" style="fill:none;stroke:#b0b0b0;stroke-linecap:square;stroke-width:0.8;"/>
     </g>
     <g id="line2d_18">
      <g>
       <use style="stroke:#000000;stroke-width:0.8;" x="57.6" xlink:href="#md1c0e7cd9b" y="183.3984"/>
      </g>
     </g>
     <g id="text_10">
      <!-- 0.1 -->
      <g transform="translate(34.696875 187.197619)scale(0.1 -0.1)">
       <use xlink:href="#DejaVuSerif-48"/>
       <use x="63.623047" xlink:href="#DejaVuSerif-46"/>
       <use x="95.410156" xlink:href="#DejaVuSerif-49"/>
      </g>
     </g>
    </g>
    <g id="ytick_5">
     <g id="line2d_19">
      <path clip-path="url(#p599efe893f)" d="M 57.6 147.9168 
L 414.72 147.9168 
" style="fill:none;stroke:#b0b0b0;stroke-linecap:square;stroke-width:0.8;"/>
     </g>
     <g id="line2d_20">
      <g>
       <use style="stroke:#000000;stroke-width:0.8;" x="57.6" xlink:href="#md1c0e7cd9b" y="147.9168"/>
      </g>
     </g>
     <g id="text_11">
      <!-- 0.2 -->
      <g transform="translate(34.696875 151.716019)scale(0.1 -0.1)">
       <use xlink:href="#DejaVuSerif-48"/>
       <use x="63.623047" xlink:href="#DejaVuSerif-46"/>
       <use x="95.410156" xlink:href="#DejaVuSerif-50"/>
      </g>
     </g>
    </g>
    <g id="ytick_6">
     <g id="line2d_21">
      <path clip-path="url(#p599efe893f)" d="M 57.6 112.4352 
L 414.72 112.4352 
" style="fill:none;stroke:#b0b0b0;stroke-linecap:square;stroke-width:0.8;"/>
     </g>
     <g id="line2d_22">
      <g>
       <use style="stroke:#000000;stroke-width:0.8;" x="57.6" xlink:href="#md1c0e7cd9b" y="112.4352"/>
      </g>
     </g>
     <g id="text_12">
      <!-- 0.3 -->
      <g transform="translate(34.696875 116.234419)scale(0.1 -0.1)">
       <use xlink:href="#DejaVuSerif-48"/>
       <use x="63.623047" xlink:href="#DejaVuSerif-46"/>
       <use x="95.410156" xlink:href="#DejaVuSerif-51"/>
      </g>
     </g>
    </g>
    <g id="ytick_7">
     <g id="line2d_23">
      <path clip-path="url(#p599efe893f)" d="M 57.6 76.9536 
L 414.72 76.9536 
" style="fill:none;stroke:#b0b0b0;stroke-linecap:square;stroke-width:0.8;"/>
     </g>
     <g id="line2d_24">
      <g>
       <use style="stroke:#000000;stroke-width:0.8;" x="57.6" xlink:href="#md1c0e7cd9b" y="76.9536"/>
      </g>
     </g>
     <g id="text_13">
      <!-- 0.4 -->
      <g transform="translate(34.696875 80.752819)scale(0.1 -0.1)">
       <use xlink:href="#DejaVuSerif-48"/>
       <use x="63.623047" xlink:href="#DejaVuSerif-46"/>
       <use x="95.410156" xlink:href="#DejaVuSerif-52"/>
      </g>
     </g>
    </g>
    <g id="ytick_8">
     <g id="line2d_25">
      <path clip-path="url(#p599efe893f)" d="M 57.6 41.472 
L 414.72 41.472 
" style="fill:none;stroke:#b0b0b0;stroke-linecap:square;stroke-width:0.8;"/>
     </g>
     <g id="line2d_26">
      <g>
       <use style="stroke:#000000;stroke-width:0.8;" x="57.6" xlink:href="#md1c0e7cd9b" y="41.472"/>
      </g>
     </g>
     <g id="text_14">
      <!-- 0.5 -->
      <g transform="translate(34.696875 45.271219)scale(0.1 -0.1)">
       <defs>
        <path d="M 50.296875 72.90625 
L 50.296875 64.890625 
L 16.890625 64.890625 
L 16.890625 44 
Q 19.4375 45.75 22.828125 46.625 
Q 26.21875 47.515625 30.421875 47.515625 
Q 42.234375 47.515625 49.0625 40.96875 
Q 55.90625 34.421875 55.90625 23.09375 
Q 55.90625 11.53125 49 5.046875 
Q 42.09375 -1.421875 29.59375 -1.421875 
Q 24.5625 -1.421875 19.28125 -0.1875 
Q 14.015625 1.03125 8.5 3.515625 
L 8.5 17.671875 
L 14.015625 17.671875 
Q 14.453125 10.75 18.421875 7.078125 
Q 22.40625 3.421875 29.59375 3.421875 
Q 37.3125 3.421875 41.453125 8.5 
Q 45.609375 13.578125 45.609375 23.09375 
Q 45.609375 32.5625 41.484375 37.609375 
Q 37.359375 42.671875 29.59375 42.671875 
Q 25.203125 42.671875 21.84375 41.109375 
Q 18.5 39.546875 15.921875 36.28125 
L 11.71875 36.28125 
L 11.71875 72.90625 
z
" id="DejaVuSerif-53"/>
       </defs>
       <use xlink:href="#DejaVuSerif-48"/>
       <use x="63.623047" xlink:href="#DejaVuSerif-46"/>
       <use x="95.410156" xlink:href="#DejaVuSerif-53"/>
      </g>
     </g>
    </g>
    <g id="text_15">
     <!-- Speed -->
     <g transform="translate(18.781719 201.295031)rotate(-90)scale(0.17 -0.17)">
      <defs>
       <path d="M 9.28125 3.515625 
L 9.28125 20.125 
L 14.890625 20.0625 
Q 15.140625 11.765625 19.703125 7.78125 
Q 24.265625 3.8125 33.59375 3.8125 
Q 42.28125 3.8125 46.84375 7.25 
Q 51.421875 10.6875 51.421875 17.28125 
Q 51.421875 22.5625 48.65625 25.390625 
Q 45.90625 28.21875 37.015625 30.90625 
L 27.390625 33.796875 
Q 16.9375 36.96875 12.671875 41.703125 
Q 8.40625 46.4375 8.40625 54.6875 
Q 8.40625 63.96875 14.984375 69.09375 
Q 21.578125 74.21875 33.5 74.21875 
Q 38.578125 74.21875 44.625 73.109375 
Q 50.6875 72.015625 57.515625 69.921875 
L 57.515625 54.390625 
L 52 54.390625 
Q 51.171875 62.109375 46.84375 65.546875 
Q 42.53125 69 33.6875 69 
Q 25.984375 69 21.953125 65.84375 
Q 17.921875 62.703125 17.921875 56.6875 
Q 17.921875 51.46875 20.9375 48.484375 
Q 23.96875 45.515625 33.796875 42.578125 
L 42.828125 39.890625 
Q 52.734375 36.921875 56.953125 32.296875 
Q 61.1875 27.6875 61.1875 19.921875 
Q 61.1875 9.328125 54.390625 3.953125 
Q 47.609375 -1.421875 34.1875 -1.421875 
Q 28.171875 -1.421875 21.9375 -0.1875 
Q 15.71875 1.03125 9.28125 3.515625 
z
" id="DejaVuSerif-83"/>
       <path d="M 20.515625 28.515625 
L 20.515625 23.390625 
Q 20.515625 14.015625 24.09375 9.109375 
Q 27.6875 4.203125 34.515625 4.203125 
Q 41.40625 4.203125 44.9375 9.71875 
Q 48.484375 15.234375 48.484375 25.984375 
Q 48.484375 36.765625 44.9375 42.234375 
Q 41.40625 47.703125 34.515625 47.703125 
Q 27.6875 47.703125 24.09375 42.765625 
Q 20.515625 37.84375 20.515625 28.515625 
z
M 11.53125 46.6875 
L 2.875 46.6875 
L 2.875 51.90625 
L 20.515625 51.90625 
L 20.515625 43.796875 
Q 23.140625 48.6875 27.21875 51 
Q 31.296875 53.328125 37.3125 53.328125 
Q 46.875 53.328125 52.921875 45.75 
Q 58.984375 38.1875 58.984375 25.984375 
Q 58.984375 13.765625 52.921875 6.171875 
Q 46.875 -1.421875 37.3125 -1.421875 
Q 31.296875 -1.421875 27.21875 0.890625 
Q 23.140625 3.21875 20.515625 8.109375 
L 20.515625 -15.578125 
L 29 -15.578125 
L 29 -20.796875 
L 2.875 -20.796875 
L 2.875 -15.578125 
L 11.53125 -15.578125 
z
" id="DejaVuSerif-112"/>
       <path d="M 52.484375 5.171875 
L 61.078125 5.171875 
L 61.078125 0 
L 43.5 0 
L 43.5 8.109375 
Q 40.875 3.21875 36.796875 0.890625 
Q 32.71875 -1.421875 26.703125 -1.421875 
Q 17.140625 -1.421875 11.0625 6.171875 
Q 4.984375 13.765625 4.984375 25.984375 
Q 4.984375 38.1875 11.03125 45.75 
Q 17.09375 53.328125 26.703125 53.328125 
Q 32.71875 53.328125 36.796875 51 
Q 40.875 48.6875 43.5 43.796875 
L 43.5 70.796875 
L 35.015625 70.796875 
L 35.015625 75.984375 
L 52.484375 75.984375 
z
M 43.5 23.390625 
L 43.5 28.515625 
Q 43.5 37.84375 39.90625 42.765625 
Q 36.328125 47.703125 29.5 47.703125 
Q 22.5625 47.703125 19.015625 42.234375 
Q 15.484375 36.765625 15.484375 25.984375 
Q 15.484375 15.234375 19.015625 9.71875 
Q 22.5625 4.203125 29.5 4.203125 
Q 36.328125 4.203125 39.90625 9.109375 
Q 43.5 14.015625 43.5 23.390625 
z
" id="DejaVuSerif-100"/>
      </defs>
      <use xlink:href="#DejaVuSerif-83"/>
      <use x="68.505859" xlink:href="#DejaVuSerif-112"/>
      <use x="132.519531" xlink:href="#DejaVuSerif-101"/>
      <use x="191.699219" xlink:href="#DejaVuSerif-101"/>
      <use x="250.878906" xlink:href="#DejaVuSerif-100"/>
     </g>
    </g>
   </g>
   <g id="LineCollection_1">
    <path clip-path="url(#p599efe893f)" d="M 73.832727 218.88 
L 398.487273 218.88 
" style="fill:none;stroke:#696969;stroke-width:1.5;"/>
   </g>
   <g id="line2d_27">
    <path clip-path="url(#p599efe893f)" d="M 73.832727 307.584 
L 73.973728 307.584 
L 74.114729 218.88 
L 74.537732 218.88 
L 74.678733 278.016 
L 74.819733 278.016 
L 74.960734 269.568 
L 75.031235 269.568 
L 75.172236 218.88 
L 75.383737 218.88 
L 75.524738 263.232 
L 75.665739 258.304 
L 75.87724 258.304 
L 76.018241 254.3616 
L 76.088741 254.3616 
L 76.229742 218.88 
L 76.370743 218.88 
L 76.511744 251.136 
L 76.582245 251.136 
L 76.723245 248.448 
L 76.934747 248.448 
L 77.075748 246.173538 
L 77.287249 246.173538 
L 77.42825 244.224 
L 77.639751 244.224 
L 77.780752 242.5344 
L 77.992253 242.5344 
L 78.133254 241.056 
L 78.344756 241.056 
L 78.485757 260.623059 
L 78.556257 260.623059 
L 78.697258 239.751529 
L 78.838259 238.592 
L 79.04976 238.592 
L 79.190761 237.554526 
L 79.402262 237.554526 
L 79.472763 236.6208 
L 79.613764 254.3616 
L 79.754765 254.3616 
L 79.825265 252.672 
L 79.966266 235.776 
L 80.107267 235.776 
L 80.248268 235.008 
L 80.459769 235.008 
L 80.60077 234.306783 
L 80.741771 249.733565 
L 80.812271 249.733565 
L 80.953272 248.448 
L 81.164773 248.448 
L 81.235274 247.26528 
L 81.376275 233.07264 
L 81.517276 233.07264 
L 81.658277 232.526769 
L 81.799277 232.526769 
L 81.869778 246.173538 
L 81.940278 245.162667 
L 82.22228 245.162667 
L 82.363281 244.224 
L 82.574782 244.224 
L 82.645283 243.350069 
L 82.786284 231.115034 
L 82.927285 231.115034 
L 82.997785 230.7072 
L 83.138786 242.5344 
L 83.279787 242.5344 
L 83.420788 241.771355 
L 83.632289 241.771355 
L 83.77329 241.056 
L 83.984791 241.056 
L 84.125792 240.384 
L 84.266793 229.632 
L 84.337293 229.632 
L 84.478294 239.751529 
L 84.689796 239.751529 
L 84.830797 239.1552 
L 85.042298 239.1552 
L 85.183299 238.592 
L 85.3948 238.592 
L 85.535801 238.059243 
L 85.606301 238.059243 
L 85.676802 228.469622 
L 85.747302 238.059243 
L 85.817803 237.554526 
L 86.099805 237.554526 
L 86.240805 237.075692 
L 86.452307 237.075692 
L 86.593308 236.6208 
L 86.804809 236.6208 
L 86.94581 236.188098 
L 87.086811 236.188098 
L 87.157311 244.842146 
L 87.227812 244.224 
L 87.298312 244.224 
L 87.439313 235.776 
L 87.509813 235.776 
L 87.650814 235.38307 
L 87.862316 235.38307 
L 88.003317 235.008 
L 88.214818 235.008 
L 88.355819 234.6496 
L 88.56732 234.6496 
L 88.708321 242.020174 
L 88.919822 242.020174 
L 88.990323 241.52783 
L 89.131324 233.978553 
L 89.272325 233.978553 
L 89.413325 233.664 
L 89.624827 233.664 
L 89.765828 233.362286 
L 89.977329 233.362286 
L 90.11833 233.07264 
L 90.259331 240.16896 
L 90.329831 240.16896 
L 90.470832 239.751529 
L 90.682333 239.751529 
L 90.752834 239.350154 
L 90.893835 232.526769 
L 91.034836 232.526769 
L 91.175837 232.269283 
L 91.387338 232.269283 
L 91.528339 232.021333 
L 91.73984 232.021333 
L 91.880841 238.2336 
L 92.092342 238.2336 
L 92.233343 237.888 
L 92.444845 237.888 
L 92.585845 237.554526 
L 92.726846 231.329684 
L 92.797347 231.329684 
L 92.938348 231.115034 
L 93.149849 231.115034 
L 93.29085 230.907661 
L 93.431851 230.907661 
L 93.502351 236.921492 
L 93.572852 236.6208 
L 93.854853 236.6208 
L 93.995854 236.329967 
L 94.207356 236.329967 
L 94.348357 236.048516 
L 94.489357 236.048516 
L 94.630358 230.144 
L 94.91236 230.144 
L 95.053361 229.968 
L 95.194362 229.968 
L 95.264862 235.512 
L 95.335363 235.256123 
L 95.617365 235.256123 
L 95.758365 235.008 
L 95.969867 235.008 
L 96.110868 234.767284 
L 96.322369 234.767284 
L 96.46337 234.533647 
L 96.53387 234.533647 
L 96.674871 229.315765 
L 96.815872 229.164522 
L 97.027373 229.164522 
L 97.168374 234.0864 
L 97.379876 234.0864 
L 97.520877 233.872225 
L 97.732378 233.872225 
L 97.873379 233.664 
L 98.08488 233.664 
L 98.225881 233.461479 
L 98.437382 233.461479 
L 98.578383 233.264432 
L 98.648884 233.264432 
L 98.789885 228.469622 
L 98.930885 228.34176 
L 99.071886 233.07264 
L 99.142387 233.07264 
L 99.283388 232.885895 
L 99.494889 232.885895 
L 99.63589 232.704 
L 99.847391 232.704 
L 99.988392 232.526769 
L 100.199893 232.526769 
L 100.340894 232.354025 
L 100.552396 232.354025 
L 100.693397 232.1856 
L 100.834397 232.1856 
L 100.904898 227.7504 
L 101.045899 232.021333 
L 101.2574 232.021333 
L 101.398401 231.861073 
L 101.609902 231.861073 
L 101.750903 231.704675 
L 101.962405 231.704675 
L 102.103405 231.552 
L 102.314907 231.552 
L 102.455908 231.402918 
L 102.667409 231.402918 
L 102.80841 231.257302 
L 103.019911 231.257302 
L 103.160912 235.193379 
L 103.301913 231.115034 
L 103.372413 231.115034 
L 103.513414 230.976 
L 103.724916 230.976 
L 103.865916 230.84009 
L 104.077418 230.84009 
L 104.218419 230.7072 
L 104.42992 230.7072 
L 104.570921 230.577231 
L 104.782422 230.577231 
L 104.923423 230.450087 
L 105.134924 230.450087 
L 105.275925 230.325677 
L 105.416926 234.140903 
L 105.487427 234.140903 
L 105.557927 233.978553 
L 105.698928 230.203915 
L 105.839929 230.203915 
L 105.98093 230.084716 
L 106.192431 230.084716 
L 106.333432 229.968 
L 106.544933 229.968 
L 106.685934 229.853691 
L 106.897436 229.853691 
L 107.038436 229.741714 
L 107.60244 229.632 
L 107.743441 233.07264 
L 107.954942 233.07264 
L 108.025443 232.932119 
L 108.166444 229.419089 
L 108.659947 229.315765 
L 108.800948 229.214447 
L 109.364951 229.115077 
L 109.505952 229.0176 
L 110.069956 228.921962 
L 110.210956 232.14415 
L 110.422458 232.14415 
L 110.563459 232.021333 
L 110.633959 232.021333 
L 110.77496 228.736 
L 110.915961 228.645578 
L 111.479964 228.5568 
L 111.691466 228.469622 
L 112.184969 228.384 
L 112.39647 228.299894 
L 112.748972 228.217263 
L 112.889973 231.329684 
L 113.030974 231.221426 
L 113.453977 231.115034 
L 113.594978 228.056276 
L 113.806479 227.977846 
L 114.299982 227.900746 
L 114.511484 227.824941 
L 115.004987 227.7504 
L 115.216488 227.677091 
L 115.49849 227.604984 
L 115.639491 230.513311 
L 116.062493 230.418732 
L 116.203494 230.325677 
L 116.344495 230.325677 
L 116.485496 227.395584 
L 117.12 227.328 
L 117.331501 227.26148 
L 117.825004 227.196 
L 118.036506 227.131535 
L 118.530009 227.068062 
L 118.67101 229.714076 
L 119.235013 229.632 
L 119.446515 229.551158 
L 119.587516 226.883368 
L 119.799017 226.823642 
L 120.29252 226.7648 
L 120.504021 226.706824 
L 120.997524 226.649693 
L 121.209026 226.593391 
L 121.773029 226.4832 
L 121.91403 229.0176 
L 122.407533 228.945702 
L 122.619035 228.874817 
L 122.830536 228.804923 
L 122.971537 226.323692 
L 123.817542 226.221021 
L 124.029044 226.17074 
L 124.875049 226.072216 
L 125.08655 226.023946 
L 125.298052 225.97632 
L 125.439052 228.34176 
L 125.932556 228.279099 
L 126.144057 228.217263 
L 126.214557 228.217263 
L 126.355558 225.837176 
L 127.342564 225.747406 
L 127.554066 225.703385 
L 128.400071 225.617013 
L 128.682073 225.574642 
L 129.175576 225.491478 
L 129.316577 227.695304 
L 130.021581 227.587141 
L 130.162582 225.410356 
L 130.444584 225.370537 
L 131.220089 225.292337 
L 131.502091 225.25394 
L 132.277595 225.178509 
L 132.559597 225.141459 
L 133.476103 225.032879 
L 133.617104 227.083838 
L 134.110607 226.99008 
L 134.251608 224.96256 
L 135.450115 224.860045 
L 135.732117 224.826637 
L 136.860124 224.728615 
L 137.142126 224.696656 
L 138.270133 224.602839 
L 138.411134 224.572235 
L 138.481635 226.469647 
L 138.622635 224.572235 
L 138.904637 224.541957 
L 140.032644 224.453026 
L 140.455647 224.395275 
L 141.795155 224.310857 
L 142.218158 224.256 
L 143.346165 224.175761 
L 143.487166 222.410507 
L 144.262671 222.375724 
L 144.403672 224.097882 
L 146.025182 223.997538 
L 146.448185 223.9488 
L 148.140195 223.854056 
L 148.633699 223.808 
L 148.704199 223.808 
L 148.8452 222.165333 
L 149.479704 222.135193 
L 151.735718 222.03392 
L 151.876719 223.61088 
L 153.780231 223.508035 
L 154.273734 223.468138 
L 154.908238 223.428923 
L 155.049239 221.912615 
L 158.010258 221.812364 
L 158.856263 221.776457 
L 162.169784 221.673827 
L 162.310785 220.271435 
L 164.355298 220.244677 
L 164.496298 221.598897 
L 168.585324 221.488941 
L 169.57233 221.46048 
L 171.546343 221.405381 
L 171.687344 220.14269 
L 181.275404 220.032 
L 183.108416 220.009987 
L 183.249417 218.88 
L 187.338442 218.88 
L 187.479443 217.791607 
L 195.939497 217.86624 
L 196.080497 216.85248 
L 197.772508 216.881037 
L 203.765046 216.972387 
L 203.835546 216.018581 
L 203.906047 216.026252 
L 209.475582 216.136577 
L 209.969085 216.150646 
L 210.110086 215.240862 
L 210.74459 215.259429 
L 210.885591 216.164571 
L 212.3661 216.198771 
L 215.186118 216.251733 
L 215.327119 215.375644 
L 219.909648 215.484632 
L 220.050649 214.635789 
L 221.037655 214.666033 
L 224.210175 214.754233 
L 224.280675 213.929079 
L 224.351176 213.940566 
L 226.818691 214.019507 
L 226.959692 214.829589 
L 228.1582 214.857143 
L 228.2992 214.063493 
L 231.824223 214.170053 
L 231.965224 213.385062 
L 235.208244 213.492338 
L 235.278744 213.504 
L 235.419745 212.736 
L 236.547752 212.775639 
L 236.688753 213.550146 
L 238.592265 213.606726 
L 238.733266 212.853401 
L 239.508771 212.891544 
L 241.764785 212.9664 
L 241.905786 212.2272 
L 242.681291 212.268522 
L 244.302801 212.322825 
L 244.443802 213.063344 
L 244.725804 213.063344 
L 244.866805 212.349644 
L 247.686823 212.454761 
L 247.827824 211.740845 
L 250.36584 211.84 
L 250.43634 211.853941 
L 250.577341 211.151335 
L 250.859343 211.166609 
L 251.000344 211.867826 
L 253.185857 211.95 
L 253.326858 211.27186 
L 255.794374 211.374277 
L 255.935375 210.691938 
L 256.78138 210.738906 
L 256.922381 211.417331 
L 258.33239 211.473973 
L 258.473391 210.800698 
L 259.107895 210.831244 
L 260.799905 210.906607 
L 260.940906 210.242157 
L 261.57541 210.274388 
L 262.139414 210.306379 
L 262.280415 210.965888 
L 263.19692 211.009774 
L 263.337921 210.353922 
L 265.593935 210.462832 
L 265.734936 209.815358 
L 267.074445 209.881043 
L 267.215446 210.523826 
L 267.84995 210.553993 
L 267.990951 209.913531 
L 268.625455 209.945784 
L 270.105964 210.0096 
L 270.246965 209.392941 
L 271.656974 209.460106 
L 271.797975 210.088099 
L 272.291478 210.119111 
L 272.432479 209.493333 
L 274.476991 209.591623 
L 274.617992 208.972398 
L 275.957501 209.041081 
L 276.098502 209.656014 
L 276.592005 209.687876 
L 276.733006 209.075067 
L 278.707018 209.175631 
L 278.848019 208.569108 
L 280.117027 208.639131 
L 280.258028 209.241535 
L 280.751531 209.274152 
L 280.892532 208.673787 
L 282.725543 208.759409 
L 282.796044 208.164081 
L 282.866544 208.18203 
L 284.065052 208.23552 
L 284.206053 208.82688 
L 284.699556 208.860279 
L 284.840557 208.270884 
L 286.673568 208.358273 
L 286.814569 207.792 
L 287.801575 207.846442 
L 287.942576 208.427155 
L 288.57708 208.461259 
L 288.718081 207.88244 
L 290.480592 207.971417 
L 290.551093 207.397282 
L 290.621593 207.415832 
L 291.467598 207.452754 
L 291.608599 208.024116 
L 292.172603 208.058966 
L 292.313604 208.058966 
L 292.454605 207.507692 
L 294.146615 207.598092 
L 294.287616 207.033997 
L 294.92212 207.071544 
L 295.063121 207.633851 
L 295.979627 207.687066 
L 296.120628 207.12742 
L 297.742138 207.21938 
L 297.883139 206.664113 
L 298.376642 206.702228 
L 298.517643 207.255763 
L 299.504649 207.309913 
L 299.64565 206.758957 
L 301.26716 206.852339 
L 301.408161 206.305627 
L 301.619662 206.324972 
L 301.760663 206.870843 
L 302.959171 206.944294 
L 303.100172 206.401761 
L 304.651182 206.477617 
L 304.792182 205.958021 
L 304.933183 206.496437 
L 306.343192 206.571149 
L 306.413693 206.035982 
L 306.484193 206.055325 
L 307.894202 206.13212 
L 308.035203 206.663281 
L 308.176204 206.13212 
L 308.740207 206.170173 
L 309.656713 206.226829 
L 309.797714 205.699614 
L 310.855221 205.758107 
L 310.996221 206.282982 
L 311.278223 206.301589 
L 311.348724 205.777489 
L 311.419224 205.796814 
L 312.829233 205.873548 
L 312.970234 205.35329 
L 313.88674 205.412531 
L 314.027741 205.930511 
L 314.380243 205.949388 
L 314.521244 205.432163 
L 315.014747 205.471256 
L 315.931253 205.510122 
L 316.072253 205.015988 
L 316.706757 205.056 
L 316.847758 205.568 
L 317.482262 205.606308 
L 317.623263 205.095781 
L 319.033272 205.174661 
L 319.103773 204.667056 
L 319.174273 204.68736 
L 319.526775 204.707606 
L 319.667776 205.213763 
L 320.513781 205.252643 
L 320.654782 204.768 
L 321.994291 204.847729 
L 322.135292 204.346576 
L 322.205792 204.346576 
L 322.346793 204.86752 
L 323.4748 204.926562 
L 323.615801 204.428225 
L 324.884809 204.508961 
L 324.955309 204.013408 
L 325.09631 204.508961 
L 325.589813 204.548992 
L 326.294818 204.5888 
L 326.435819 204.096 
L 327.634326 204.17768 
L 327.704827 204.667757 
L 327.845828 204.17768 
L 329.114836 204.258462 
L 329.255837 203.771077 
L 330.242843 203.833083 
L 330.383844 204.318468 
L 330.524845 204.338361 
L 330.665845 203.853639 
L 331.864353 203.935304 
L 332.005354 203.453217 
L 332.780859 203.495024 
L 332.92186 203.995973 
L 333.203861 203.995973 
L 333.344862 203.536605 
L 334.54337 203.598557 
L 334.61387 203.121012 
L 334.684371 203.142194 
L 335.248374 203.163318 
L 335.389375 203.660011 
L 335.882878 203.680386 
L 336.023879 203.205398 
L 336.517382 203.247252 
L 337.151886 203.288884 
L 337.292887 202.816426 
L 337.71589 202.837787 
L 337.856891 203.330295 
L 338.420894 203.350918 
L 338.491395 202.88034 
L 338.561895 202.901531 
L 339.689902 202.96477 
L 339.830903 202.496675 
L 340.183405 202.518261 
L 340.324406 203.006653 
L 340.95891 203.027511 
L 341.099911 202.582677 
L 342.227918 202.646588 
L 342.368919 202.182776 
L 342.58042 202.204574 
L 342.721421 202.667781 
L 343.214924 202.71 
L 343.426426 202.71 
L 343.567427 202.269628 
L 344.624933 202.334176 
L 344.765934 201.87457 
L 344.977436 201.896569 
L 345.118436 202.355581 
L 345.823441 202.398225 
L 345.893941 201.940397 
L 345.964442 201.962227 
L 347.021948 202.027379 
L 347.162949 201.571902 
L 347.23345 201.571902 
L 347.374451 202.048985 
L 348.220456 202.092031 
L 348.361457 201.638302 
L 348.85496 201.682286 
L 349.348463 201.704194 
L 349.418964 201.252199 
L 349.489464 201.274626 
L 349.559964 201.274626 
L 349.700965 201.726046 
L 350.47647 201.769584 
L 350.617471 201.341567 
L 351.674978 201.408 
L 351.815979 200.96 
L 351.95698 201.430033 
L 352.732484 201.473932 
L 352.873485 201.027623 
L 353.860492 201.094737 
L 354.001492 200.650105 
L 354.071993 200.672921 
L 354.212994 201.116996 
L 354.988499 201.161348 
L 355.058999 200.718382 
L 355.1295 200.741027 
L 356.046005 200.786149 
L 356.116506 200.344836 
L 356.187006 200.367861 
L 356.257507 200.367861 
L 356.398508 200.808626 
L 357.103512 200.853413 
L 357.174012 200.41374 
L 357.244513 200.436594 
L 358.231519 200.482133 
L 358.37252 200.067314 
L 358.44302 200.067314 
L 358.584021 200.504819 
L 359.077524 200.550022 
L 359.218525 200.550022 
L 359.289026 200.113594 
L 359.359526 200.136649 
L 360.276032 200.182588 
L 360.346532 199.747765 
L 360.417033 199.771182 
L 360.558034 199.771182 
L 360.699035 200.205474 
L 361.192538 200.251077 
L 361.333539 200.251077 
L 361.404039 199.817846 
L 361.47454 199.841093 
L 362.320545 199.887416 
L 362.461546 199.455766 
L 362.673047 199.479368 
L 362.814048 199.910493 
L 363.307551 199.95648 
L 363.378052 199.95648 
L 363.519052 199.5264 
L 363.942055 199.573204 
L 364.365058 199.596522 
L 364.506059 199.168 
L 364.78806 199.191778 
L 364.929061 199.619783 
L 365.352064 199.666137 
L 365.493065 199.239162 
L 366.33907 199.286319 
L 366.480071 198.884374 
L 366.903074 198.908321 
L 367.044075 199.33325 
L 367.326076 199.356632 
L 367.396577 198.932211 
L 367.467077 198.956043 
L 368.313083 199.003538 
L 368.454084 198.580634 
L 368.877086 198.628908 
L 368.947587 198.628908 
L 369.088588 199.050806 
L 369.229588 199.074356 
L 369.370589 198.65296 
L 370.216595 198.700891 
L 370.357595 198.304871 
L 370.992099 198.353455 
L 371.1331 198.772364 
L 371.274101 198.353455 
L 371.697104 198.401809 
L 372.049606 198.425901 
L 372.190607 198.008471 
L 372.895611 198.057465 
L 372.966112 198.473915 
L 373.036612 198.057465 
L 373.107113 198.081876 
L 373.882618 198.130526 
L 374.023619 197.715537 
L 374.799123 197.764929 
L 374.869624 197.376 
L 375.010625 197.789538 
L 375.715629 197.838586 
L 375.85663 197.426009 
L 376.279633 197.475787 
L 376.632135 197.500589 
L 376.773136 197.089446 
L 376.914137 197.500589 
L 377.337139 197.550021 
L 377.47814 197.550021 
L 377.619141 197.139829 
L 378.042144 197.189979 
L 378.394646 197.214968 
L 378.535647 196.806194 
L 378.747148 196.831595 
L 378.888149 197.239899 
L 379.240651 197.264772 
L 379.381652 196.856938 
L 379.804655 196.90745 
L 380.086657 196.90745 
L 380.227658 196.526186 
L 380.65066 196.551762 
L 380.791661 196.95773 
L 380.932662 196.982784 
L 381.073663 196.57728 
L 381.778667 196.628141 
L 381.849168 196.223562 
L 381.919668 196.249367 
L 382.483672 196.275113 
L 382.624673 196.704 
L 382.765674 196.3008 
L 383.470678 196.352 
L 383.611679 195.949714 
L 384.034682 196.001593 
L 384.316683 196.001593 
L 384.387184 195.626522 
L 384.528185 196.027444 
L 385.162689 196.078972 
L 385.30369 195.678954 
L 385.938194 195.73115 
L 386.079195 195.332031 
L 386.220195 195.35849 
L 386.361196 195.75716 
L 386.784199 195.783111 
L 386.9252 195.411229 
L 387.559704 195.463732 
L 387.700705 195.066846 
L 387.982707 195.093453 
L 388.123707 195.489895 
L 388.335209 195.516 
L 388.47621 195.12 
L 389.110714 195.172918 
L 389.251715 194.7778 
L 389.674717 194.83136 
L 389.745218 194.83136 
L 389.886219 195.2256 
L 389.956719 194.83136 
L 390.027219 194.858051 
L 390.661723 194.884683 
L 390.802724 194.518326 
L 391.437228 194.572164 
L 391.507729 194.180102 
L 391.64873 194.572164 
L 392.142233 194.625764 
L 392.283234 194.234567 
L 392.847237 194.288792 
L 392.988238 193.898455 
L 393.27024 193.925908 
L 393.411241 194.315815 
L 393.552242 194.342779 
L 393.693243 193.9533 
L 394.186746 193.980632 
L 394.327747 193.619277 
L 394.82125 193.646915 
L 394.89175 193.258713 
L 394.962251 193.286715 
L 395.032751 193.286715 
L 395.173752 193.674492 
L 395.385253 193.702009 
L 395.526254 193.314655 
L 395.949257 193.342534 
L 396.090258 192.983843 
L 396.372259 193.012022 
L 396.51326 192.625933 
L 396.724762 192.65447 
L 396.795262 193.040139 
L 396.936263 192.65447 
L 397.147764 192.682945 
L 397.288765 192.297694 
L 397.500267 192.326525 
L 397.641267 191.941692 
L 397.711768 191.941692 
L 397.852769 191.586462 
L 397.923269 191.586462 
L 398.134771 190.848 
L 398.205271 190.848 
L 398.416772 190.08 
L 398.487273 190.08 
L 398.487273 190.08 
" style="fill:none;stroke:#1f77b4;stroke-linecap:square;stroke-width:1.5;"/>
   </g>
   <g id="patch_3">
    <path d="M 57.6 307.584 
L 57.6 41.472 
" style="fill:none;stroke:#000000;stroke-linecap:square;stroke-linejoin:miter;stroke-width:0.8;"/>
   </g>
   <g id="patch_4">
    <path d="M 414.72 307.584 
L 414.72 41.472 
" style="fill:none;stroke:#000000;stroke-linecap:square;stroke-linejoin:miter;stroke-width:0.8;"/>
   </g>
   <g id="patch_5">
    <path d="M 57.6 307.584 
L 414.72 307.584 
" style="fill:none;stroke:#000000;stroke-linecap:square;stroke-linejoin:miter;stroke-width:0.8;"/>
   </g>
   <g id="patch_6">
    <path d="M 57.6 41.472 
L 414.72 41.472 
" style="fill:none;stroke:#000000;stroke-linecap:square;stroke-linejoin:miter;stroke-width:0.8;"/>
   </g>
  </g>
 </g>
 <defs>
  <clipPath id="p599efe893f">
   <rect height="266.112" width="357.12" x="57.6" y="41.472"/>
  </clipPath>
 </defs>
</svg>
