<?xml version="1.0" encoding="utf-8" standalone="no"?>
<!DOCTYPE svg PUBLIC "-//W3C//DTD SVG 1.1//EN"
  "http://www.w3.org/Graphics/SVG/1.1/DTD/svg11.dtd">
<!-- Created with matplotlib (https://matplotlib.org/) -->
<svg height="345.6pt" version="1.1" viewBox="0 0 460.8 345.6" width="460.8pt" xmlns="http://www.w3.org/2000/svg" xmlns:xlink="http://www.w3.org/1999/xlink">
 <metadata>
  <rdf:RDF xmlns:cc="http://creativecommons.org/ns#" xmlns:dc="http://purl.org/dc/elements/1.1/" xmlns:rdf="http://www.w3.org/1999/02/22-rdf-syntax-ns#">
   <cc:Work>
    <dc:type rdf:resource="http://purl.org/dc/dcmitype/StillImage"/>
    <dc:date>2022-08-27T16:56:02.370150</dc:date>
    <dc:format>image/svg+xml</dc:format>
    <dc:creator>
     <cc:Agent>
      <dc:title>Matplotlib v3.3.4, https://matplotlib.org/</dc:title>
     </cc:Agent>
    </dc:creator>
   </cc:Work>
  </rdf:RDF>
 </metadata>
 <defs>
  <style type="text/css">*{stroke-linecap:butt;stroke-linejoin:round;}</style>
 </defs>
 <g id="figure_1">
  <g id="patch_1">
   <path d="M 0 345.6 
L 460.8 345.6 
L 460.8 0 
L 0 0 
z
" style="fill:#ffffff;"/>
  </g>
  <g id="axes_1">
   <g id="patch_2">
    <path d="M 57.6 307.584 
L 414.72 307.584 
L 414.72 41.472 
L 57.6 41.472 
z
" style="fill:#ffffff;"/>
   </g>
   <g id="matplotlib.axis_1">
    <g id="xtick_1">
     <g id="line2d_1">
      <path clip-path="url(#p31b8f3a411)" d="M 72.692445 307.584 
L 72.692445 41.472 
" style="fill:none;stroke:#b0b0b0;stroke-linecap:square;stroke-width:0.8;"/>
     </g>
     <g id="line2d_2">
      <defs>
       <path d="M 0 0 
L 0 3.5 
" id="m041299aef2" style="stroke:#000000;stroke-width:0.8;"/>
      </defs>
      <g>
       <use style="stroke:#000000;stroke-width:0.8;" x="72.692445" xlink:href="#m041299aef2" y="307.584"/>
      </g>
     </g>
     <g id="text_1">
      <!-- 0 -->
      <g transform="translate(69.511195 322.182437)scale(0.1 -0.1)">
       <defs>
        <path d="M 31.78125 3.421875 
Q 39.265625 3.421875 42.96875 11.625 
Q 46.6875 19.828125 46.6875 36.375 
Q 46.6875 52.984375 42.96875 61.1875 
Q 39.265625 69.390625 31.78125 69.390625 
Q 24.3125 69.390625 20.59375 61.1875 
Q 16.890625 52.984375 16.890625 36.375 
Q 16.890625 19.828125 20.59375 11.625 
Q 24.3125 3.421875 31.78125 3.421875 
z
M 31.78125 -1.421875 
Q 19.921875 -1.421875 13.25 8.53125 
Q 6.59375 18.5 6.59375 36.375 
Q 6.59375 54.296875 13.25 64.25 
Q 19.921875 74.21875 31.78125 74.21875 
Q 43.703125 74.21875 50.34375 64.25 
Q 56.984375 54.296875 56.984375 36.375 
Q 56.984375 18.5 50.34375 8.53125 
Q 43.703125 -1.421875 31.78125 -1.421875 
z
" id="DejaVuSerif-48"/>
       </defs>
       <use xlink:href="#DejaVuSerif-48"/>
      </g>
     </g>
    </g>
    <g id="xtick_2">
     <g id="line2d_3">
      <path clip-path="url(#p31b8f3a411)" d="M 126.991583 307.584 
L 126.991583 41.472 
" style="fill:none;stroke:#b0b0b0;stroke-linecap:square;stroke-width:0.8;"/>
     </g>
     <g id="line2d_4">
      <g>
       <use style="stroke:#000000;stroke-width:0.8;" x="126.991583" xlink:href="#m041299aef2" y="307.584"/>
      </g>
     </g>
     <g id="text_2">
      <!-- 100 -->
      <g transform="translate(117.447833 322.182437)scale(0.1 -0.1)">
       <defs>
        <path d="M 14.203125 0 
L 14.203125 5.171875 
L 26.90625 5.171875 
L 26.90625 65.828125 
L 12.203125 56.296875 
L 12.203125 62.703125 
L 29.984375 74.21875 
L 36.71875 74.21875 
L 36.71875 5.171875 
L 49.421875 5.171875 
L 49.421875 0 
z
" id="DejaVuSerif-49"/>
       </defs>
       <use xlink:href="#DejaVuSerif-49"/>
       <use x="63.623047" xlink:href="#DejaVuSerif-48"/>
       <use x="127.246094" xlink:href="#DejaVuSerif-48"/>
      </g>
     </g>
    </g>
    <g id="xtick_3">
     <g id="line2d_5">
      <path clip-path="url(#p31b8f3a411)" d="M 181.290721 307.584 
L 181.290721 41.472 
" style="fill:none;stroke:#b0b0b0;stroke-linecap:square;stroke-width:0.8;"/>
     </g>
     <g id="line2d_6">
      <g>
       <use style="stroke:#000000;stroke-width:0.8;" x="181.290721" xlink:href="#m041299aef2" y="307.584"/>
      </g>
     </g>
     <g id="text_3">
      <!-- 200 -->
      <g transform="translate(171.746971 322.182437)scale(0.1 -0.1)">
       <defs>
        <path d="M 12.796875 55.515625 
L 7.328125 55.515625 
L 7.328125 68.5 
Q 12.546875 71.296875 17.84375 72.75 
Q 23.140625 74.21875 28.21875 74.21875 
Q 39.59375 74.21875 46.1875 68.703125 
Q 52.78125 63.1875 52.78125 53.71875 
Q 52.78125 43.015625 37.84375 28.125 
Q 36.671875 27 36.078125 26.421875 
L 17.671875 8.015625 
L 48.09375 8.015625 
L 48.09375 17 
L 53.8125 17 
L 53.8125 0 
L 6.78125 0 
L 6.78125 5.328125 
L 28.90625 27.390625 
Q 36.234375 34.71875 39.359375 40.84375 
Q 42.484375 46.96875 42.484375 53.71875 
Q 42.484375 61.078125 38.640625 65.234375 
Q 34.8125 69.390625 28.078125 69.390625 
Q 21.09375 69.390625 17.28125 65.921875 
Q 13.484375 62.453125 12.796875 55.515625 
z
" id="DejaVuSerif-50"/>
       </defs>
       <use xlink:href="#DejaVuSerif-50"/>
       <use x="63.623047" xlink:href="#DejaVuSerif-48"/>
       <use x="127.246094" xlink:href="#DejaVuSerif-48"/>
      </g>
     </g>
    </g>
    <g id="xtick_4">
     <g id="line2d_7">
      <path clip-path="url(#p31b8f3a411)" d="M 235.589859 307.584 
L 235.589859 41.472 
" style="fill:none;stroke:#b0b0b0;stroke-linecap:square;stroke-width:0.8;"/>
     </g>
     <g id="line2d_8">
      <g>
       <use style="stroke:#000000;stroke-width:0.8;" x="235.589859" xlink:href="#m041299aef2" y="307.584"/>
      </g>
     </g>
     <g id="text_4">
      <!-- 300 -->
      <g transform="translate(226.046109 322.182437)scale(0.1 -0.1)">
       <defs>
        <path d="M 9.71875 69.828125 
Q 15.4375 71.96875 20.671875 73.09375 
Q 25.921875 74.21875 30.515625 74.21875 
Q 41.21875 74.21875 47.21875 69.59375 
Q 53.21875 64.984375 53.21875 56.78125 
Q 53.21875 50.203125 49.0625 45.78125 
Q 44.921875 41.359375 37.3125 39.796875 
Q 46.296875 38.53125 51.25 33.28125 
Q 56.203125 28.03125 56.203125 19.671875 
Q 56.203125 9.46875 49.34375 4.015625 
Q 42.484375 -1.421875 29.59375 -1.421875 
Q 23.875 -1.421875 18.421875 -0.1875 
Q 12.984375 1.03125 7.625 3.515625 
L 7.625 17.671875 
L 13.09375 17.671875 
Q 13.578125 10.640625 17.828125 7.03125 
Q 22.078125 3.421875 29.78125 3.421875 
Q 37.25 3.421875 41.578125 7.734375 
Q 45.90625 12.0625 45.90625 19.578125 
Q 45.90625 28.171875 41.453125 32.59375 
Q 37.015625 37.015625 28.421875 37.015625 
L 23.78125 37.015625 
L 23.78125 42 
L 26.21875 42 
Q 34.765625 42 39.03125 45.53125 
Q 43.3125 49.078125 43.3125 56.203125 
Q 43.3125 62.59375 39.796875 65.984375 
Q 36.28125 69.390625 29.6875 69.390625 
Q 23.09375 69.390625 19.453125 66.265625 
Q 15.828125 63.140625 15.1875 56.984375 
L 9.71875 56.984375 
z
" id="DejaVuSerif-51"/>
       </defs>
       <use xlink:href="#DejaVuSerif-51"/>
       <use x="63.623047" xlink:href="#DejaVuSerif-48"/>
       <use x="127.246094" xlink:href="#DejaVuSerif-48"/>
      </g>
     </g>
    </g>
    <g id="xtick_5">
     <g id="line2d_9">
      <path clip-path="url(#p31b8f3a411)" d="M 289.888997 307.584 
L 289.888997 41.472 
" style="fill:none;stroke:#b0b0b0;stroke-linecap:square;stroke-width:0.8;"/>
     </g>
     <g id="line2d_10">
      <g>
       <use style="stroke:#000000;stroke-width:0.8;" x="289.888997" xlink:href="#m041299aef2" y="307.584"/>
      </g>
     </g>
     <g id="text_5">
      <!-- 400 -->
      <g transform="translate(280.345247 322.182437)scale(0.1 -0.1)">
       <defs>
        <path d="M 34.90625 24.703125 
L 34.90625 63.484375 
L 10.015625 24.703125 
z
M 56.390625 0 
L 23.1875 0 
L 23.1875 5.171875 
L 34.90625 5.171875 
L 34.90625 19.484375 
L 3.078125 19.484375 
L 3.078125 24.8125 
L 35.015625 74.21875 
L 44.671875 74.21875 
L 44.671875 24.703125 
L 58.59375 24.703125 
L 58.59375 19.484375 
L 44.671875 19.484375 
L 44.671875 5.171875 
L 56.390625 5.171875 
z
" id="DejaVuSerif-52"/>
       </defs>
       <use xlink:href="#DejaVuSerif-52"/>
       <use x="63.623047" xlink:href="#DejaVuSerif-48"/>
       <use x="127.246094" xlink:href="#DejaVuSerif-48"/>
      </g>
     </g>
    </g>
    <g id="xtick_6">
     <g id="line2d_11">
      <path clip-path="url(#p31b8f3a411)" d="M 344.188135 307.584 
L 344.188135 41.472 
" style="fill:none;stroke:#b0b0b0;stroke-linecap:square;stroke-width:0.8;"/>
     </g>
     <g id="line2d_12">
      <g>
       <use style="stroke:#000000;stroke-width:0.8;" x="344.188135" xlink:href="#m041299aef2" y="307.584"/>
      </g>
     </g>
     <g id="text_6">
      <!-- 500 -->
      <g transform="translate(334.644385 322.182437)scale(0.1 -0.1)">
       <defs>
        <path d="M 50.296875 72.90625 
L 50.296875 64.890625 
L 16.890625 64.890625 
L 16.890625 44 
Q 19.4375 45.75 22.828125 46.625 
Q 26.21875 47.515625 30.421875 47.515625 
Q 42.234375 47.515625 49.0625 40.96875 
Q 55.90625 34.421875 55.90625 23.09375 
Q 55.90625 11.53125 49 5.046875 
Q 42.09375 -1.421875 29.59375 -1.421875 
Q 24.5625 -1.421875 19.28125 -0.1875 
Q 14.015625 1.03125 8.5 3.515625 
L 8.5 17.671875 
L 14.015625 17.671875 
Q 14.453125 10.75 18.421875 7.078125 
Q 22.40625 3.421875 29.59375 3.421875 
Q 37.3125 3.421875 41.453125 8.5 
Q 45.609375 13.578125 45.609375 23.09375 
Q 45.609375 32.5625 41.484375 37.609375 
Q 37.359375 42.671875 29.59375 42.671875 
Q 25.203125 42.671875 21.84375 41.109375 
Q 18.5 39.546875 15.921875 36.28125 
L 11.71875 36.28125 
L 11.71875 72.90625 
z
" id="DejaVuSerif-53"/>
       </defs>
       <use xlink:href="#DejaVuSerif-53"/>
       <use x="63.623047" xlink:href="#DejaVuSerif-48"/>
       <use x="127.246094" xlink:href="#DejaVuSerif-48"/>
      </g>
     </g>
    </g>
    <g id="xtick_7">
     <g id="line2d_13">
      <path clip-path="url(#p31b8f3a411)" d="M 398.487273 307.584 
L 398.487273 41.472 
" style="fill:none;stroke:#b0b0b0;stroke-linecap:square;stroke-width:0.8;"/>
     </g>
     <g id="line2d_14">
      <g>
       <use style="stroke:#000000;stroke-width:0.8;" x="398.487273" xlink:href="#m041299aef2" y="307.584"/>
      </g>
     </g>
     <g id="text_7">
      <!-- 600 -->
      <g transform="translate(388.943523 322.182437)scale(0.1 -0.1)">
       <defs>
        <path d="M 32.71875 3.421875 
Q 39.59375 3.421875 43.296875 8.46875 
Q 47.015625 13.53125 47.015625 23 
Q 47.015625 32.46875 43.296875 37.515625 
Q 39.59375 42.578125 32.71875 42.578125 
Q 25.734375 42.578125 22.0625 37.6875 
Q 18.40625 32.8125 18.40625 23.578125 
Q 18.40625 13.875 22.109375 8.640625 
Q 25.828125 3.421875 32.71875 3.421875 
z
M 16.796875 40.140625 
Q 20.125 43.796875 24.3125 45.59375 
Q 28.515625 47.40625 33.796875 47.40625 
Q 44.671875 47.40625 51 40.859375 
Q 57.328125 34.328125 57.328125 23 
Q 57.328125 11.921875 50.515625 5.25 
Q 43.703125 -1.421875 32.328125 -1.421875 
Q 19.96875 -1.421875 13.328125 7.78125 
Q 6.6875 17 6.6875 34.078125 
Q 6.6875 53.21875 14.546875 63.71875 
Q 22.40625 74.21875 36.71875 74.21875 
Q 40.578125 74.21875 44.828125 73.484375 
Q 49.078125 72.75 53.515625 71.296875 
L 53.515625 59.28125 
L 48 59.28125 
Q 47.40625 64.203125 44.234375 66.796875 
Q 41.0625 69.390625 35.6875 69.390625 
Q 26.21875 69.390625 21.578125 62.203125 
Q 16.9375 55.03125 16.796875 40.140625 
z
" id="DejaVuSerif-54"/>
       </defs>
       <use xlink:href="#DejaVuSerif-54"/>
       <use x="63.623047" xlink:href="#DejaVuSerif-48"/>
       <use x="127.246094" xlink:href="#DejaVuSerif-48"/>
      </g>
     </g>
    </g>
    <g id="text_8">
     <!-- Time -->
     <g transform="translate(223.524844 335.860562)scale(0.1 -0.1)">
      <defs>
       <path d="M 19.09375 0 
L 19.09375 5.171875 
L 28.421875 5.171875 
L 28.421875 67.09375 
L 6.984375 67.09375 
L 6.984375 55.71875 
L 0.984375 55.71875 
L 0.984375 72.90625 
L 65.71875 72.90625 
L 65.71875 55.71875 
L 59.71875 55.71875 
L 59.71875 67.09375 
L 38.28125 67.09375 
L 38.28125 5.171875 
L 47.609375 5.171875 
L 47.609375 0 
z
" id="DejaVuSerif-84"/>
       <path d="M 9.71875 68.015625 
Q 9.71875 70.265625 11.34375 71.921875 
Q 12.984375 73.578125 15.28125 73.578125 
Q 17.53125 73.578125 19.15625 71.921875 
Q 20.796875 70.265625 20.796875 68.015625 
Q 20.796875 65.71875 19.1875 64.109375 
Q 17.578125 62.5 15.28125 62.5 
Q 12.984375 62.5 11.34375 64.109375 
Q 9.71875 65.71875 9.71875 68.015625 
z
M 21.1875 5.171875 
L 29.6875 5.171875 
L 29.6875 0 
L 3.609375 0 
L 3.609375 5.171875 
L 12.203125 5.171875 
L 12.203125 46.6875 
L 3.609375 46.6875 
L 3.609375 51.90625 
L 21.1875 51.90625 
z
" id="DejaVuSerif-105"/>
       <path d="M 51.8125 41.796875 
Q 54.390625 47.515625 58.421875 50.421875 
Q 62.453125 53.328125 67.828125 53.328125 
Q 75.984375 53.328125 79.984375 48.265625 
Q 83.984375 43.21875 83.984375 33.015625 
L 83.984375 5.171875 
L 92.09375 5.171875 
L 92.09375 0 
L 67.1875 0 
L 67.1875 5.171875 
L 75 5.171875 
L 75 31.984375 
Q 75 39.9375 72.65625 43.3125 
Q 70.3125 46.6875 64.890625 46.6875 
Q 58.890625 46.6875 55.734375 42.140625 
Q 52.59375 37.59375 52.59375 28.90625 
L 52.59375 5.171875 
L 60.40625 5.171875 
L 60.40625 0 
L 35.796875 0 
L 35.796875 5.171875 
L 43.609375 5.171875 
L 43.609375 32.328125 
Q 43.609375 40.09375 41.265625 43.390625 
Q 38.921875 46.6875 33.5 46.6875 
Q 27.484375 46.6875 24.328125 42.140625 
Q 21.1875 37.59375 21.1875 28.90625 
L 21.1875 5.171875 
L 29 5.171875 
L 29 0 
L 4.109375 0 
L 4.109375 5.171875 
L 12.203125 5.171875 
L 12.203125 46.78125 
L 3.609375 46.78125 
L 3.609375 51.90625 
L 21.1875 51.90625 
L 21.1875 42.671875 
Q 23.6875 47.859375 27.53125 50.59375 
Q 31.390625 53.328125 36.28125 53.328125 
Q 42.328125 53.328125 46.375 50.3125 
Q 50.4375 47.3125 51.8125 41.796875 
z
" id="DejaVuSerif-109"/>
       <path d="M 54.203125 25 
L 15.484375 25 
L 15.484375 24.609375 
Q 15.484375 14.109375 19.4375 8.765625 
Q 23.390625 3.421875 31.109375 3.421875 
Q 37.015625 3.421875 40.796875 6.515625 
Q 44.578125 9.625 46.09375 15.71875 
L 53.328125 15.71875 
Q 51.171875 7.171875 45.375 2.875 
Q 39.59375 -1.421875 30.171875 -1.421875 
Q 18.796875 -1.421875 11.890625 6.078125 
Q 4.984375 13.578125 4.984375 25.984375 
Q 4.984375 38.28125 11.765625 45.796875 
Q 18.5625 53.328125 29.59375 53.328125 
Q 41.359375 53.328125 47.65625 46.0625 
Q 53.953125 38.8125 54.203125 25 
z
M 43.609375 30.171875 
Q 43.3125 39.265625 39.765625 43.875 
Q 36.234375 48.484375 29.59375 48.484375 
Q 23.390625 48.484375 19.828125 43.84375 
Q 16.265625 39.203125 15.484375 30.171875 
z
" id="DejaVuSerif-101"/>
      </defs>
      <use xlink:href="#DejaVuSerif-84"/>
      <use x="66.699219" xlink:href="#DejaVuSerif-105"/>
      <use x="98.681641" xlink:href="#DejaVuSerif-109"/>
      <use x="193.505859" xlink:href="#DejaVuSerif-101"/>
     </g>
    </g>
   </g>
   <g id="matplotlib.axis_2">
    <g id="ytick_1">
     <g id="line2d_15">
      <path clip-path="url(#p31b8f3a411)" d="M 57.6 292.8 
L 414.72 292.8 
" style="fill:none;stroke:#b0b0b0;stroke-linecap:square;stroke-width:0.8;"/>
     </g>
     <g id="line2d_16">
      <defs>
       <path d="M 0 0 
L -3.5 0 
" id="m87094d9ad4" style="stroke:#000000;stroke-width:0.8;"/>
      </defs>
      <g>
       <use style="stroke:#000000;stroke-width:0.8;" x="57.6" xlink:href="#m87094d9ad4" y="292.8"/>
      </g>
     </g>
     <g id="text_9">
      <!-- 0.0 -->
      <g transform="translate(34.696875 296.599219)scale(0.1 -0.1)">
       <defs>
        <path d="M 9.421875 5.078125 
Q 9.421875 7.8125 11.28125 9.71875 
Q 13.140625 11.625 15.921875 11.625 
Q 18.609375 11.625 20.5 9.71875 
Q 22.40625 7.8125 22.40625 5.078125 
Q 22.40625 2.390625 20.5 0.484375 
Q 18.609375 -1.421875 15.921875 -1.421875 
Q 13.140625 -1.421875 11.28125 0.453125 
Q 9.421875 2.34375 9.421875 5.078125 
z
" id="DejaVuSerif-46"/>
       </defs>
       <use xlink:href="#DejaVuSerif-48"/>
       <use x="63.623047" xlink:href="#DejaVuSerif-46"/>
       <use x="95.410156" xlink:href="#DejaVuSerif-48"/>
      </g>
     </g>
    </g>
    <g id="ytick_2">
     <g id="line2d_17">
      <path clip-path="url(#p31b8f3a411)" d="M 57.6 263.232 
L 414.72 263.232 
" style="fill:none;stroke:#b0b0b0;stroke-linecap:square;stroke-width:0.8;"/>
     </g>
     <g id="line2d_18">
      <g>
       <use style="stroke:#000000;stroke-width:0.8;" x="57.6" xlink:href="#m87094d9ad4" y="263.232"/>
      </g>
     </g>
     <g id="text_10">
      <!-- 0.2 -->
      <g transform="translate(34.696875 267.031219)scale(0.1 -0.1)">
       <use xlink:href="#DejaVuSerif-48"/>
       <use x="63.623047" xlink:href="#DejaVuSerif-46"/>
       <use x="95.410156" xlink:href="#DejaVuSerif-50"/>
      </g>
     </g>
    </g>
    <g id="ytick_3">
     <g id="line2d_19">
      <path clip-path="url(#p31b8f3a411)" d="M 57.6 233.664 
L 414.72 233.664 
" style="fill:none;stroke:#b0b0b0;stroke-linecap:square;stroke-width:0.8;"/>
     </g>
     <g id="line2d_20">
      <g>
       <use style="stroke:#000000;stroke-width:0.8;" x="57.6" xlink:href="#m87094d9ad4" y="233.664"/>
      </g>
     </g>
     <g id="text_11">
      <!-- 0.4 -->
      <g transform="translate(34.696875 237.463219)scale(0.1 -0.1)">
       <use xlink:href="#DejaVuSerif-48"/>
       <use x="63.623047" xlink:href="#DejaVuSerif-46"/>
       <use x="95.410156" xlink:href="#DejaVuSerif-52"/>
      </g>
     </g>
    </g>
    <g id="ytick_4">
     <g id="line2d_21">
      <path clip-path="url(#p31b8f3a411)" d="M 57.6 204.096 
L 414.72 204.096 
" style="fill:none;stroke:#b0b0b0;stroke-linecap:square;stroke-width:0.8;"/>
     </g>
     <g id="line2d_22">
      <g>
       <use style="stroke:#000000;stroke-width:0.8;" x="57.6" xlink:href="#m87094d9ad4" y="204.096"/>
      </g>
     </g>
     <g id="text_12">
      <!-- 0.6 -->
      <g transform="translate(34.696875 207.895219)scale(0.1 -0.1)">
       <use xlink:href="#DejaVuSerif-48"/>
       <use x="63.623047" xlink:href="#DejaVuSerif-46"/>
       <use x="95.410156" xlink:href="#DejaVuSerif-54"/>
      </g>
     </g>
    </g>
    <g id="ytick_5">
     <g id="line2d_23">
      <path clip-path="url(#p31b8f3a411)" d="M 57.6 174.528 
L 414.72 174.528 
" style="fill:none;stroke:#b0b0b0;stroke-linecap:square;stroke-width:0.8;"/>
     </g>
     <g id="line2d_24">
      <g>
       <use style="stroke:#000000;stroke-width:0.8;" x="57.6" xlink:href="#m87094d9ad4" y="174.528"/>
      </g>
     </g>
     <g id="text_13">
      <!-- 0.8 -->
      <g transform="translate(34.696875 178.327219)scale(0.1 -0.1)">
       <defs>
        <path d="M 46.578125 19.921875 
Q 46.578125 27.734375 42.6875 32.046875 
Q 38.8125 36.375 31.78125 36.375 
Q 24.75 36.375 20.875 32.046875 
Q 17 27.734375 17 19.921875 
Q 17 12.0625 20.875 7.734375 
Q 24.75 3.421875 31.78125 3.421875 
Q 38.8125 3.421875 42.6875 7.734375 
Q 46.578125 12.0625 46.578125 19.921875 
z
M 44.578125 55.328125 
Q 44.578125 61.96875 41.203125 65.671875 
Q 37.84375 69.390625 31.78125 69.390625 
Q 25.78125 69.390625 22.390625 65.671875 
Q 19 61.96875 19 55.328125 
Q 19 48.640625 22.390625 44.921875 
Q 25.78125 41.21875 31.78125 41.21875 
Q 37.84375 41.21875 41.203125 44.921875 
Q 44.578125 48.640625 44.578125 55.328125 
z
M 39.3125 38.8125 
Q 47.609375 37.703125 52.25 32.6875 
Q 56.890625 27.6875 56.890625 19.921875 
Q 56.890625 9.671875 50.390625 4.125 
Q 43.890625 -1.421875 31.78125 -1.421875 
Q 19.734375 -1.421875 13.203125 4.125 
Q 6.6875 9.671875 6.6875 19.921875 
Q 6.6875 27.6875 11.328125 32.6875 
Q 15.96875 37.703125 24.3125 38.8125 
Q 16.9375 40.140625 13 44.40625 
Q 9.078125 48.6875 9.078125 55.328125 
Q 9.078125 64.109375 15.125 69.15625 
Q 21.1875 74.21875 31.78125 74.21875 
Q 42.390625 74.21875 48.4375 69.15625 
Q 54.5 64.109375 54.5 55.328125 
Q 54.5 48.6875 50.5625 44.40625 
Q 46.625 40.140625 39.3125 38.8125 
z
" id="DejaVuSerif-56"/>
       </defs>
       <use xlink:href="#DejaVuSerif-48"/>
       <use x="63.623047" xlink:href="#DejaVuSerif-46"/>
       <use x="95.410156" xlink:href="#DejaVuSerif-56"/>
      </g>
     </g>
    </g>
    <g id="ytick_6">
     <g id="line2d_25">
      <path clip-path="url(#p31b8f3a411)" d="M 57.6 144.96 
L 414.72 144.96 
" style="fill:none;stroke:#b0b0b0;stroke-linecap:square;stroke-width:0.8;"/>
     </g>
     <g id="line2d_26">
      <g>
       <use style="stroke:#000000;stroke-width:0.8;" x="57.6" xlink:href="#m87094d9ad4" y="144.96"/>
      </g>
     </g>
     <g id="text_14">
      <!-- 1.0 -->
      <g transform="translate(34.696875 148.759219)scale(0.1 -0.1)">
       <use xlink:href="#DejaVuSerif-49"/>
       <use x="63.623047" xlink:href="#DejaVuSerif-46"/>
       <use x="95.410156" xlink:href="#DejaVuSerif-48"/>
      </g>
     </g>
    </g>
    <g id="ytick_7">
     <g id="line2d_27">
      <path clip-path="url(#p31b8f3a411)" d="M 57.6 115.392 
L 414.72 115.392 
" style="fill:none;stroke:#b0b0b0;stroke-linecap:square;stroke-width:0.8;"/>
     </g>
     <g id="line2d_28">
      <g>
       <use style="stroke:#000000;stroke-width:0.8;" x="57.6" xlink:href="#m87094d9ad4" y="115.392"/>
      </g>
     </g>
     <g id="text_15">
      <!-- 1.2 -->
      <g transform="translate(34.696875 119.191219)scale(0.1 -0.1)">
       <use xlink:href="#DejaVuSerif-49"/>
       <use x="63.623047" xlink:href="#DejaVuSerif-46"/>
       <use x="95.410156" xlink:href="#DejaVuSerif-50"/>
      </g>
     </g>
    </g>
    <g id="ytick_8">
     <g id="line2d_29">
      <path clip-path="url(#p31b8f3a411)" d="M 57.6 85.824 
L 414.72 85.824 
" style="fill:none;stroke:#b0b0b0;stroke-linecap:square;stroke-width:0.8;"/>
     </g>
     <g id="line2d_30">
      <g>
       <use style="stroke:#000000;stroke-width:0.8;" x="57.6" xlink:href="#m87094d9ad4" y="85.824"/>
      </g>
     </g>
     <g id="text_16">
      <!-- 1.4 -->
      <g transform="translate(34.696875 89.623219)scale(0.1 -0.1)">
       <use xlink:href="#DejaVuSerif-49"/>
       <use x="63.623047" xlink:href="#DejaVuSerif-46"/>
       <use x="95.410156" xlink:href="#DejaVuSerif-52"/>
      </g>
     </g>
    </g>
    <g id="ytick_9">
     <g id="line2d_31">
      <path clip-path="url(#p31b8f3a411)" d="M 57.6 56.256 
L 414.72 56.256 
" style="fill:none;stroke:#b0b0b0;stroke-linecap:square;stroke-width:0.8;"/>
     </g>
     <g id="line2d_32">
      <g>
       <use style="stroke:#000000;stroke-width:0.8;" x="57.6" xlink:href="#m87094d9ad4" y="56.256"/>
      </g>
     </g>
     <g id="text_17">
      <!-- 1.6 -->
      <g transform="translate(34.696875 60.055219)scale(0.1 -0.1)">
       <use xlink:href="#DejaVuSerif-49"/>
       <use x="63.623047" xlink:href="#DejaVuSerif-46"/>
       <use x="95.410156" xlink:href="#DejaVuSerif-54"/>
      </g>
     </g>
    </g>
    <g id="text_18">
     <!-- Speed -->
     <g transform="translate(28.617187 190.273313)rotate(-90)scale(0.1 -0.1)">
      <defs>
       <path d="M 9.28125 3.515625 
L 9.28125 20.125 
L 14.890625 20.0625 
Q 15.140625 11.765625 19.703125 7.78125 
Q 24.265625 3.8125 33.59375 3.8125 
Q 42.28125 3.8125 46.84375 7.25 
Q 51.421875 10.6875 51.421875 17.28125 
Q 51.421875 22.5625 48.65625 25.390625 
Q 45.90625 28.21875 37.015625 30.90625 
L 27.390625 33.796875 
Q 16.9375 36.96875 12.671875 41.703125 
Q 8.40625 46.4375 8.40625 54.6875 
Q 8.40625 63.96875 14.984375 69.09375 
Q 21.578125 74.21875 33.5 74.21875 
Q 38.578125 74.21875 44.625 73.109375 
Q 50.6875 72.015625 57.515625 69.921875 
L 57.515625 54.390625 
L 52 54.390625 
Q 51.171875 62.109375 46.84375 65.546875 
Q 42.53125 69 33.6875 69 
Q 25.984375 69 21.953125 65.84375 
Q 17.921875 62.703125 17.921875 56.6875 
Q 17.921875 51.46875 20.9375 48.484375 
Q 23.96875 45.515625 33.796875 42.578125 
L 42.828125 39.890625 
Q 52.734375 36.921875 56.953125 32.296875 
Q 61.1875 27.6875 61.1875 19.921875 
Q 61.1875 9.328125 54.390625 3.953125 
Q 47.609375 -1.421875 34.1875 -1.421875 
Q 28.171875 -1.421875 21.9375 -0.1875 
Q 15.71875 1.03125 9.28125 3.515625 
z
" id="DejaVuSerif-83"/>
       <path d="M 20.515625 28.515625 
L 20.515625 23.390625 
Q 20.515625 14.015625 24.09375 9.109375 
Q 27.6875 4.203125 34.515625 4.203125 
Q 41.40625 4.203125 44.9375 9.71875 
Q 48.484375 15.234375 48.484375 25.984375 
Q 48.484375 36.765625 44.9375 42.234375 
Q 41.40625 47.703125 34.515625 47.703125 
Q 27.6875 47.703125 24.09375 42.765625 
Q 20.515625 37.84375 20.515625 28.515625 
z
M 11.53125 46.6875 
L 2.875 46.6875 
L 2.875 51.90625 
L 20.515625 51.90625 
L 20.515625 43.796875 
Q 23.140625 48.6875 27.21875 51 
Q 31.296875 53.328125 37.3125 53.328125 
Q 46.875 53.328125 52.921875 45.75 
Q 58.984375 38.1875 58.984375 25.984375 
Q 58.984375 13.765625 52.921875 6.171875 
Q 46.875 -1.421875 37.3125 -1.421875 
Q 31.296875 -1.421875 27.21875 0.890625 
Q 23.140625 3.21875 20.515625 8.109375 
L 20.515625 -15.578125 
L 29 -15.578125 
L 29 -20.796875 
L 2.875 -20.796875 
L 2.875 -15.578125 
L 11.53125 -15.578125 
z
" id="DejaVuSerif-112"/>
       <path d="M 52.484375 5.171875 
L 61.078125 5.171875 
L 61.078125 0 
L 43.5 0 
L 43.5 8.109375 
Q 40.875 3.21875 36.796875 0.890625 
Q 32.71875 -1.421875 26.703125 -1.421875 
Q 17.140625 -1.421875 11.0625 6.171875 
Q 4.984375 13.765625 4.984375 25.984375 
Q 4.984375 38.1875 11.03125 45.75 
Q 17.09375 53.328125 26.703125 53.328125 
Q 32.71875 53.328125 36.796875 51 
Q 40.875 48.6875 43.5 43.796875 
L 43.5 70.796875 
L 35.015625 70.796875 
L 35.015625 75.984375 
L 52.484375 75.984375 
z
M 43.5 23.390625 
L 43.5 28.515625 
Q 43.5 37.84375 39.90625 42.765625 
Q 36.328125 47.703125 29.5 47.703125 
Q 22.5625 47.703125 19.015625 42.234375 
Q 15.484375 36.765625 15.484375 25.984375 
Q 15.484375 15.234375 19.015625 9.71875 
Q 22.5625 4.203125 29.5 4.203125 
Q 36.328125 4.203125 39.90625 9.109375 
Q 43.5 14.015625 43.5 23.390625 
z
" id="DejaVuSerif-100"/>
      </defs>
      <use xlink:href="#DejaVuSerif-83"/>
      <use x="68.505859" xlink:href="#DejaVuSerif-112"/>
      <use x="132.519531" xlink:href="#DejaVuSerif-101"/>
      <use x="191.699219" xlink:href="#DejaVuSerif-101"/>
      <use x="250.878906" xlink:href="#DejaVuSerif-100"/>
     </g>
    </g>
   </g>
   <g id="LineCollection_1">
    <path clip-path="url(#p31b8f3a411)" d="M 73.832727 292.8 
L 398.487273 292.8 
" style="fill:none;stroke:#696969;stroke-width:1.5;"/>
   </g>
   <g id="line2d_33">
    <path clip-path="url(#p31b8f3a411)" d="M 73.832727 292.8 
L 74.864411 292.8 
L 75.027308 124.939856 
L 75.135907 124.939856 
L 75.298804 143.590983 
L 75.353103 143.590983 
L 75.516001 255.65172 
L 75.678898 255.65172 
L 75.841795 259.028836 
L 75.950394 259.028836 
L 76.004693 261.8431 
L 76.16759 292.8 
L 76.330488 292.8 
L 76.493385 233.124304 
L 76.656282 237.386854 
L 76.764881 237.386854 
L 76.927778 241.081064 
L 77.036376 241.081064 
L 77.199274 244.313497 
L 77.362171 292.8 
L 79.045445 292.8 
L 79.208342 216.466623 
L 79.371239 219.647181 
L 79.479838 219.647181 
L 79.642735 222.573293 
L 79.751333 222.573293 
L 79.914231 225.274321 
L 80.022829 225.274321 
L 80.185726 227.775272 
L 80.294325 227.775272 
L 80.457222 201.242937 
L 80.56582 201.242937 
L 80.62012 204.400077 
L 80.674419 264.940341 
L 80.728718 255.972769 
L 80.837316 255.972769 
L 81.000213 257.200343 
L 81.108812 257.200343 
L 81.271709 258.348719 
L 81.380307 258.348719 
L 81.543205 259.425321 
L 81.651803 259.425321 
L 81.814701 260.436675 
L 81.923299 260.436675 
L 82.086196 261.388538 
L 82.140495 238.279131 
L 82.194795 262.041781 
L 82.357692 262.920588 
L 82.46629 262.920588 
L 82.629188 255.726308 
L 82.737786 262.950186 
L 82.900683 258.992162 
L 83.009282 258.992162 
L 83.172179 259.881842 
L 83.280777 259.881842 
L 83.443675 260.725898 
L 83.552273 260.725898 
L 83.71517 261.52775 
L 83.823769 261.52775 
L 83.986666 262.290488 
L 84.095264 262.290488 
L 84.258162 263.016905 
L 84.36676 263.016905 
L 84.421059 263.709535 
L 84.583957 281.982089 
L 84.638256 281.982089 
L 84.801153 282.227951 
L 84.855452 282.227951 
L 85.01835 288.882296 
L 85.235546 288.967463 
L 85.398444 292.8 
L 85.452743 262.464789 
L 85.561341 263.110219 
L 85.724238 263.110219 
L 85.887136 263.728756 
L 85.995734 263.728756 
L 86.158632 264.322047 
L 86.212931 264.322047 
L 86.26723 254.491152 
L 86.321529 255.257329 
L 86.538726 255.257329 
L 86.701623 255.99346 
L 86.810221 255.99346 
L 86.973119 256.701278 
L 87.081717 256.701278 
L 87.244614 257.382386 
L 87.353213 257.382386 
L 87.51611 258.038267 
L 87.624708 258.038267 
L 87.787606 258.670299 
L 87.896204 258.670299 
L 87.950503 259.279758 
L 88.113401 243.569206 
L 88.1677 242.013365 
L 88.221999 242.904358 
L 88.439195 242.904358 
L 88.547794 243.764628 
L 88.710691 267.823588 
L 88.873588 268.246917 
L 88.982187 268.246917 
L 89.145084 268.656135 
L 89.199383 268.656135 
L 89.253682 259.308375 
L 89.307982 259.857418 
L 89.525178 259.857418 
L 89.579477 260.38875 
L 89.633776 264.727842 
L 89.688076 264.379069 
L 89.796674 264.379069 
L 89.959571 264.830195 
L 90.06817 264.830195 
L 90.231067 265.267223 
L 90.339665 265.267223 
L 90.502563 265.690804 
L 90.611161 265.690804 
L 90.774058 266.10155 
L 90.882657 266.10155 
L 91.045554 266.500034 
L 91.154152 266.500034 
L 91.31705 266.886798 
L 91.425648 266.886798 
L 91.588545 267.262352 
L 91.697144 267.262352 
L 91.751443 254.094613 
L 91.805742 266.663054 
L 91.91434 266.663054 
L 92.077238 268.258322 
L 92.240135 268.258322 
L 92.403032 268.599179 
L 92.511631 268.599179 
L 92.674528 268.930697 
L 92.783126 268.930697 
L 92.946024 262.179923 
L 93.054622 262.179923 
L 93.21752 262.588191 
L 93.271819 262.588191 
L 93.434716 270.365526 
L 93.597613 270.365526 
L 93.760511 270.656882 
L 93.923408 273.944795 
L 94.140605 273.944795 
L 94.303502 274.183469 
L 94.412101 274.183469 
L 94.574998 274.416175 
L 94.683596 274.416175 
L 94.846494 274.643136 
L 94.955092 274.643136 
L 95.009391 274.864561 
L 95.172288 262.927108 
L 95.226588 262.927108 
L 95.389485 261.508125 
L 95.498083 261.508125 
L 95.660981 261.880648 
L 95.769579 261.880648 
L 95.932476 262.244405 
L 96.041075 262.244405 
L 96.203972 262.599702 
L 96.31257 262.599702 
L 96.421169 262.946832 
L 96.584066 273.835101 
L 96.746963 274.050612 
L 96.855562 274.050612 
L 97.018459 274.261279 
L 97.127057 274.261279 
L 97.289955 274.467265 
L 97.398553 274.467265 
L 97.561451 274.668723 
L 97.670049 274.668723 
L 97.778647 274.865802 
L 97.941544 280.555222 
L 98.104442 280.686886 
L 98.21304 280.686886 
L 98.375938 280.815749 
L 98.484536 280.815749 
L 98.647433 280.941899 
L 98.756032 280.941899 
L 98.918929 281.065421 
L 99.027527 281.065421 
L 99.190425 281.186396 
L 99.299023 281.186396 
L 99.407621 281.304902 
L 99.570519 263.965452 
L 99.733416 264.25671 
L 99.842014 264.25671 
L 100.004912 264.542143 
L 100.11351 264.542143 
L 100.276407 264.821924 
L 100.385006 264.821924 
L 100.547903 265.096219 
L 100.710801 274.868791 
L 100.819399 274.868791 
L 100.982296 276.460903 
L 101.090894 276.460903 
L 101.199493 270.217006 
L 101.253792 270.432082 
L 101.470988 270.432082 
L 101.633886 270.6431 
L 101.742484 270.6431 
L 101.851082 270.850174 
L 102.01398 267.805021 
L 102.176877 268.036456 
L 102.285476 268.036456 
L 102.448373 268.263644 
L 102.556971 268.263644 
L 102.719869 268.486702 
L 102.828467 268.486702 
L 102.937065 268.705741 
L 103.099963 264.648344 
L 103.26286 264.296651 
L 103.371458 264.296651 
L 103.534356 264.548893 
L 103.642954 264.548893 
L 103.697253 264.79671 
L 103.860151 262.594923 
L 103.91445 262.594923 
L 104.077347 262.857576 
L 104.185945 262.857576 
L 104.348843 263.1157 
L 104.457441 263.1157 
L 104.620338 263.369412 
L 104.728937 263.369412 
L 104.891834 263.618824 
L 104.946133 263.618824 
L 105.000432 259.296027 
L 105.054732 259.577573 
L 105.271928 259.577573 
L 105.434826 259.854427 
L 105.543424 259.854427 
L 105.706321 260.126704 
L 105.814919 260.126704 
L 105.977817 260.394518 
L 106.032116 260.394518 
L 106.195013 270.934535 
L 106.357911 270.384782 
L 106.41221 270.56555 
L 106.575107 269.870531 
L 106.629407 269.870531 
L 106.792304 270.053966 
L 106.900902 270.053966 
L 107.0638 270.234491 
L 107.172398 270.234491 
L 107.335295 270.412172 
L 107.443894 270.412172 
L 107.606791 270.587077 
L 107.715389 270.587077 
L 107.878287 270.75927 
L 107.986885 270.75927 
L 108.149782 270.928814 
L 108.204082 275.923932 
L 108.258381 271.091356 
L 108.421278 271.257071 
L 108.529876 271.257071 
L 108.692774 271.420275 
L 108.747073 271.420275 
L 108.801372 269.9641 
L 108.855671 270.135799 
L 109.072868 270.135799 
L 109.127167 270.304934 
L 109.290064 272.736512 
L 109.344363 272.736512 
L 109.507261 272.88513 
L 109.615859 272.88513 
L 109.724457 273.031563 
L 109.887355 270.545426 
L 110.050252 270.707868 
L 110.158851 270.707868 
L 110.321748 270.867956 
L 110.430346 270.867956 
L 110.484645 271.02574 
L 110.647543 274.26582 
L 110.81044 274.880644 
L 110.973338 274.880644 
L 111.136235 275.007732 
L 111.244833 275.007732 
L 111.407731 275.133029 
L 111.570628 277.011845 
L 111.624927 277.011845 
L 111.787825 272.037886 
L 111.896423 272.182067 
L 112.05932 271.090547 
L 112.222218 271.240267 
L 112.330816 271.240267 
L 112.493713 271.387937 
L 112.602312 271.387937 
L 112.765209 271.533597 
L 112.873807 271.533597 
L 112.982406 271.677289 
L 113.145303 275.123843 
L 113.308201 275.242475 
L 113.416799 275.242475 
L 113.579696 275.359526 
L 113.688294 275.359526 
L 113.851192 275.475025 
L 113.95979 275.475025 
L 114.122688 275.589005 
L 114.231286 275.589005 
L 114.339884 275.701496 
L 114.502782 278.546263 
L 114.557081 278.63882 
L 114.719978 279.077908 
L 114.828576 279.166438 
L 114.991474 279.722453 
L 115.317269 279.806284 
L 115.480166 279.889046 
L 115.86026 279.970761 
L 116.023157 280.051448 
L 116.403251 280.131127 
L 116.566149 280.209815 
L 116.946243 280.287533 
L 117.054841 280.364296 
L 117.217738 284.218498 
L 117.380636 284.270824 
L 117.706431 284.322516 
L 117.869328 285.531507 
L 118.575217 285.618037 
L 118.792413 285.660534 
L 118.846713 273.692063 
L 118.955311 273.804462 
L 119.118208 275.793372 
L 119.281106 275.892826 
L 119.6612 275.991124 
L 119.824097 276.088285 
L 120.204191 276.184329 
L 120.367088 276.279276 
L 120.747182 276.373144 
L 120.91008 276.465951 
L 121.181576 276.557715 
L 121.290174 271.921024 
L 121.344473 272.037666 
L 121.50737 276.011276 
L 121.670268 276.104547 
L 121.833165 276.977763 
L 121.996063 277.065179 
L 122.376157 277.151634 
L 122.539054 277.237144 
L 122.919148 277.321725 
L 123.082045 277.405391 
L 123.462139 277.488158 
L 123.625037 277.570039 
L 124.005131 277.65105 
L 124.168028 277.731203 
L 124.548122 277.810512 
L 124.711019 277.888991 
L 124.928216 277.966653 
L 125.091113 271.831737 
L 125.254011 271.940381 
L 125.362609 271.940381 
L 125.525507 271.271012 
L 125.905601 271.381418 
L 126.068498 271.490696 
L 126.448592 271.598865 
L 126.611489 271.705942 
L 126.991583 271.811942 
L 127.154481 271.916882 
L 127.534575 272.020778 
L 127.697472 269.001867 
L 127.80607 269.001867 
L 127.968968 269.119099 
L 128.077566 269.119099 
L 128.240463 269.235182 
L 128.349062 269.235182 
L 128.511959 269.350132 
L 128.620557 269.350132 
L 128.783455 269.463966 
L 128.892053 269.463966 
L 129.054951 269.576701 
L 129.163549 269.576701 
L 129.217848 269.688351 
L 129.380745 267.325831 
L 129.435044 267.325831 
L 129.597942 267.447717 
L 129.70654 267.447717 
L 129.869438 267.568442 
L 129.978036 266.565471 
L 130.140933 266.689805 
L 130.249532 266.689805 
L 130.303831 266.812966 
L 130.466728 276.35387 
L 130.792523 276.431082 
L 130.95542 274.782099 
L 131.009719 274.782099 
L 131.064019 274.262696 
L 131.118318 274.348916 
L 131.60701 274.434338 
L 131.769907 274.518972 
L 132.150001 274.60283 
L 132.312899 274.685922 
L 132.692993 274.768259 
L 132.85589 274.849851 
L 133.235984 274.930707 
L 133.290283 275.010838 
L 133.453181 278.711875 
L 133.778976 278.774768 
L 133.941873 278.837102 
L 134.321967 278.898885 
L 134.484864 278.960123 
L 134.864958 279.020825 
L 135.027856 279.080996 
L 135.40795 279.140644 
L 135.570847 279.199775 
L 135.950941 279.258397 
L 136.113838 279.316515 
L 136.493932 279.374137 
L 136.65683 279.431268 
L 137.036924 279.487915 
L 137.199821 279.544085 
L 137.851411 279.655013 
L 137.960009 279.709783 
L 138.122907 277.113724 
L 138.285804 277.178812 
L 138.503001 277.243362 
L 138.665898 277.86616 
L 138.774496 277.927616 
L 138.937394 276.917497 
L 139.100291 276.982589 
L 139.480385 277.04715 
L 139.643282 277.111186 
L 140.023376 277.174703 
L 140.186274 277.237709 
L 140.566368 277.300208 
L 140.729265 277.362207 
L 141.109359 277.423712 
L 141.217957 277.484729 
L 141.380855 279.987107 
L 141.598051 280.037751 
L 142.195342 280.137847 
L 142.30394 280.187309 
L 142.466838 276.52966 
L 142.629735 276.592969 
L 143.009829 276.655787 
L 143.172726 276.71812 
L 143.335624 276.779973 
L 143.498521 278.66999 
L 143.932914 278.777852 
L 144.095812 277.067424 
L 144.150111 277.127244 
L 144.313008 277.928095 
L 144.638803 277.984428 
L 144.747401 278.040336 
L 144.910299 277.016183 
L 145.018897 277.07552 
L 145.181794 276.753247 
L 145.290393 276.813347 
L 145.45329 278.196311 
L 145.561888 278.250802 
L 145.670487 278.665549 
L 145.833384 277.622975 
L 146.267777 277.679186 
L 146.430675 277.734982 
L 147.082264 277.845349 
L 147.245162 277.899928 
L 147.896751 278.007899 
L 148.059649 278.061301 
L 148.711238 278.166954 
L 148.874136 278.219215 
L 149.525725 278.322625 
L 149.688623 278.373782 
L 150.340213 278.475018 
L 150.557409 278.525106 
L 151.1547 278.624237 
L 151.371896 278.673288 
L 151.534794 278.722001 
L 151.697691 273.761317 
L 151.860588 273.826742 
L 152.240682 273.891719 
L 152.349281 273.956253 
L 152.512178 273.234057 
L 152.675075 273.300607 
L 153.055169 273.366707 
L 153.218067 273.43236 
L 153.543862 273.497571 
L 153.598161 272.4902 
L 153.65246 272.558353 
L 154.141152 272.626051 
L 154.24975 272.693298 
L 154.412648 278.696491 
L 154.629844 278.743347 
L 154.684144 278.743347 
L 154.847041 277.783174 
L 155.281434 277.881969 
L 155.444332 278.6894 
L 155.661528 278.735664 
L 155.770126 277.913065 
L 155.987323 277.961715 
L 156.041622 277.961715 
L 156.204519 277.661574 
L 156.856109 277.759557 
L 157.073306 277.808074 
L 157.670596 277.904177 
L 157.833494 276.631562 
L 158.485083 276.734219 
L 158.647981 276.78506 
L 158.756579 275.868021 
L 158.919476 275.921434 
L 159.245271 275.974511 
L 159.29957 275.338109 
L 159.353869 275.392849 
L 159.679664 275.447246 
L 159.842562 277.93304 
L 160.005459 277.747391 
L 160.657049 277.840596 
L 160.874245 277.886767 
L 161.471536 277.978259 
L 161.688732 278.023585 
L 161.85163 279.434892 
L 162.557519 279.515893 
L 162.720416 279.556026 
L 162.883313 280.413389 
L 163.046211 280.413389 
L 163.209108 280.708018 
L 163.860698 280.780209 
L 164.023595 281.692729 
L 165.00098 281.791023 
L 165.218176 281.823402 
L 165.543971 281.855592 
L 165.706869 277.789841 
L 165.924065 277.833602 
L 166.086963 277.449221 
L 166.304159 277.493845 
L 166.90145 277.58232 
L 167.118646 277.626175 
L 167.715937 277.713131 
L 167.933133 277.756236 
L 168.530424 277.841712 
L 168.74762 277.884087 
L 169.344911 277.96812 
L 169.562107 278.009783 
L 170.159398 278.09241 
L 170.376594 278.133378 
L 170.973885 278.214634 
L 171.191082 278.254925 
L 171.353979 282.258074 
L 171.462577 282.258074 
L 171.516876 278.724685 
L 171.625475 278.763354 
L 172.222765 278.840057 
L 172.385663 279.454671 
L 173.417346 279.562876 
L 173.634543 279.598556 
L 173.743141 279.634043 
L 173.906038 280.438316 
L 174.014637 280.471457 
L 174.177534 278.850992 
L 174.774825 278.925386 
L 174.992021 278.962287 
L 175.154919 278.998992 
L 175.317816 279.805435 
L 175.535013 279.839812 
L 175.589312 278.748589 
L 175.69791 278.785664 
L 176.3495 278.85923 
L 176.512397 279.552511 
L 176.838192 279.5871 
L 177.001089 279.900106 
L 178.032773 280.000106 
L 178.19567 278.343673 
L 178.901559 278.454591 
L 179.064457 279.51143 
L 179.933243 279.612612 
L 180.09614 279.645998 
L 180.259038 280.410994 
L 180.856328 280.47325 
L 181.019225 280.981732 
L 181.34502 281.040823 
L 181.399319 281.040823 
L 181.562217 281.393083 
L 181.616516 279.334816 
L 181.670815 279.520503 
L 182.6482 279.619113 
L 182.865396 279.651658 
L 183.734182 279.748337 
L 183.788482 279.780248 
L 183.951379 278.522253 
L 184.820165 278.626217 
L 185.037362 278.660536 
L 185.417456 278.728678 
L 185.580353 277.780706 
L 186.449139 277.8885 
L 186.666336 277.924088 
L 186.829233 277.959507 
L 186.992131 277.112673 
L 187.209327 277.149935 
L 188.078113 277.260666 
L 188.29531 277.29723 
L 188.729703 277.369842 
L 188.838301 280.651882 
L 188.8926 279.399263 
L 189.001199 279.430573 
L 189.055498 279.430573 
L 189.164096 279.278218 
L 189.218395 279.309737 
L 189.381293 279.617063 
L 190.250079 279.708611 
L 190.575874 279.76894 
L 191.607557 279.858398 
L 191.933352 279.917358 
L 192.965036 280.004796 
L 193.290831 280.062432 
L 193.453728 280.062432 
L 193.508027 277.757458 
L 193.616625 277.791261 
L 194.59401 277.891766 
L 194.811206 277.92497 
L 195.679993 278.023698 
L 195.897189 278.056316 
L 196.114386 278.088791 
L 196.277283 280.940069 
L 197.037471 280.991973 
L 197.200369 279.166315 
L 198.123454 279.255038 
L 198.449249 279.313547 
L 199.318035 279.40037 
L 199.480932 280.697438 
L 199.806727 280.749158 
L 201.109906 280.851284 
L 201.218505 280.876545 
L 201.381402 279.844398 
L 201.707197 279.898948 
L 202.847479 280.006681 
L 203.010376 279.175495 
L 203.336171 279.232146 
L 203.39047 279.232146 
L 203.553368 279.046221 
L 203.879163 279.103172 
L 204.313556 279.131471 
L 204.476453 280.511192 
L 205.725333 280.611714 
L 206.051128 280.661361 
L 206.322624 280.686033 
L 206.485521 279.339935 
L 206.702718 279.367237 
L 206.811316 279.146881 
L 207.137111 279.202045 
L 207.897299 279.256765 
L 208.060196 278.560138 
L 208.766085 278.645407 
L 208.928982 280.315611 
L 210.069264 280.414497 
L 210.395059 280.463355 
L 211.535341 280.559924 
L 211.698238 281.566812 
L 212.078332 281.610606 
L 213.544409 281.718612 
L 213.707306 282.497976 
L 214.358896 282.537523 
L 214.413195 280.010549 
L 214.521794 280.03505 
L 214.793289 280.059457 
L 214.956187 279.882406 
L 215.281981 279.931616 
L 215.336281 279.931616 
L 215.499178 280.609083 
L 215.879272 280.655348 
L 216.313665 280.678349 
L 216.476563 280.079222 
L 217.671144 280.174688 
L 217.834041 280.19833 
L 217.996938 281.221639 
L 218.105537 281.221639 
L 218.268434 281.364898 
L 218.757126 281.386192 
L 218.920024 280.376391 
L 220.114605 280.468078 
L 220.494699 280.513416 
L 221.472083 280.580801 
L 221.634981 279.49964 
L 222.829562 279.596019 
L 223.209656 279.643687 
L 223.58975 279.667392 
L 223.752647 281.531675 
L 223.969844 281.551905 
L 224.132741 280.574065 
L 225.544519 280.682837 
L 225.598818 280.704359 
L 225.761715 280.060295 
L 226.901997 280.150169 
L 227.282091 280.194633 
L 227.390689 280.194633 
L 227.444988 279.503968 
L 227.553587 279.527295 
L 228.096578 279.573703 
L 228.259475 281.056149 
L 228.639569 281.097068 
L 230.159945 281.19813 
L 230.48574 281.238067 
L 230.648638 280.151192 
L 232.060415 280.259117 
L 232.440509 280.301773 
L 232.874902 280.322992 
L 233.0378 279.355602 
L 233.254996 279.378351 
L 233.309295 279.207916 
L 233.472193 280.720994 
L 235.046868 280.822158 
L 235.372663 280.862151 
L 235.53556 281.526822 
L 236.024252 281.564337 
L 236.18715 281.731556 
L 238.03332 281.840784 
L 238.467713 281.876716 
L 239.716594 281.965523 
L 239.879491 283.042401 
L 240.150987 283.058241 
L 240.313884 283.250101 
L 241.671362 283.326869 
L 241.83426 281.662962 
L 242.160055 281.698658 
L 242.322952 281.344955 
L 244.006225 281.454051 
L 244.440619 281.489956 
L 246.178191 281.59632 
L 246.612584 281.631331 
L 248.350156 281.735065 
L 248.78455 281.769216 
L 249.761934 281.83689 
L 249.924831 283.856144 
L 250.304925 283.883495 
L 250.467823 284.025082 
L 252.205395 284.118008 
L 252.368293 284.61583 
L 254.866053 284.725767 
L 255.246147 284.749797 
L 255.409044 285.575224 
L 256.114933 285.607334 
L 258.612694 285.701974 
L 258.775591 286.595104 
L 261.762044 286.69317 
L 261.924941 287.475723 
L 262.902325 287.506147 
L 263.771112 287.528738 
L 263.934009 288.051295 
L 266.051675 288.104651 
L 266.214573 288.6566 
L 269.906914 288.736501 
L 270.069812 289.606301 
L 271.807384 289.6368 
L 272.893367 289.653968 
L 273.056264 290.445334 
L 273.382059 290.451707 
L 273.544956 290.613094 
L 283.861793 290.720047 
L 284.02469 292.516311 
L 284.513382 292.517038 
L 284.67628 292.8 
L 398.487273 292.8 
L 398.487273 292.8 
" style="fill:none;stroke:#1f77b4;stroke-linecap:square;stroke-width:1.5;"/>
   </g>
   <g id="patch_3">
    <path d="M 57.6 307.584 
L 57.6 41.472 
" style="fill:none;stroke:#000000;stroke-linecap:square;stroke-linejoin:miter;stroke-width:0.8;"/>
   </g>
   <g id="patch_4">
    <path d="M 414.72 307.584 
L 414.72 41.472 
" style="fill:none;stroke:#000000;stroke-linecap:square;stroke-linejoin:miter;stroke-width:0.8;"/>
   </g>
   <g id="patch_5">
    <path d="M 57.6 307.584 
L 414.72 307.584 
" style="fill:none;stroke:#000000;stroke-linecap:square;stroke-linejoin:miter;stroke-width:0.8;"/>
   </g>
   <g id="patch_6">
    <path d="M 57.6 41.472 
L 414.72 41.472 
" style="fill:none;stroke:#000000;stroke-linecap:square;stroke-linejoin:miter;stroke-width:0.8;"/>
   </g>
  </g>
 </g>
 <defs>
  <clipPath id="p31b8f3a411">
   <rect height="266.112" width="357.12" x="57.6" y="41.472"/>
  </clipPath>
 </defs>
</svg>
