<?xml version="1.0" encoding="utf-8" standalone="no"?>
<!DOCTYPE svg PUBLIC "-//W3C//DTD SVG 1.1//EN"
  "http://www.w3.org/Graphics/SVG/1.1/DTD/svg11.dtd">
<!-- Created with matplotlib (https://matplotlib.org/) -->
<svg height="345.6pt" version="1.1" viewBox="0 0 460.8 345.6" width="460.8pt" xmlns="http://www.w3.org/2000/svg" xmlns:xlink="http://www.w3.org/1999/xlink">
 <metadata>
  <rdf:RDF xmlns:cc="http://creativecommons.org/ns#" xmlns:dc="http://purl.org/dc/elements/1.1/" xmlns:rdf="http://www.w3.org/1999/02/22-rdf-syntax-ns#">
   <cc:Work>
    <dc:type rdf:resource="http://purl.org/dc/dcmitype/StillImage"/>
    <dc:date>2022-08-17T17:49:00.583992</dc:date>
    <dc:format>image/svg+xml</dc:format>
    <dc:creator>
     <cc:Agent>
      <dc:title>Matplotlib v3.3.4, https://matplotlib.org/</dc:title>
     </cc:Agent>
    </dc:creator>
   </cc:Work>
  </rdf:RDF>
 </metadata>
 <defs>
  <style type="text/css">*{stroke-linecap:butt;stroke-linejoin:round;}</style>
 </defs>
 <g id="figure_1">
  <g id="patch_1">
   <path d="M 0 345.6 
L 460.8 345.6 
L 460.8 0 
L 0 0 
z
" style="fill:#ffffff;"/>
  </g>
  <g id="axes_1">
   <g id="patch_2">
    <path d="M 57.6 307.584 
L 414.72 307.584 
L 414.72 41.472 
L 57.6 41.472 
z
" style="fill:#ffffff;"/>
   </g>
   <g id="matplotlib.axis_1">
    <g id="xtick_1">
     <g id="line2d_1">
      <path clip-path="url(#pdf485bdc51)" d="M 71.927797 307.584 
L 71.927797 41.472 
" style="fill:none;stroke:#b0b0b0;stroke-linecap:square;stroke-width:0.8;"/>
     </g>
     <g id="line2d_2">
      <defs>
       <path d="M 0 0 
L 0 3.5 
" id="mc1bb8a94d3" style="stroke:#000000;stroke-width:0.8;"/>
      </defs>
      <g>
       <use style="stroke:#000000;stroke-width:0.8;" x="71.927797" xlink:href="#mc1bb8a94d3" y="307.584"/>
      </g>
     </g>
     <g id="text_1">
      <!-- 0 -->
      <g transform="translate(68.746547 322.182437)scale(0.1 -0.1)">
       <defs>
        <path d="M 31.78125 3.421875 
Q 39.265625 3.421875 42.96875 11.625 
Q 46.6875 19.828125 46.6875 36.375 
Q 46.6875 52.984375 42.96875 61.1875 
Q 39.265625 69.390625 31.78125 69.390625 
Q 24.3125 69.390625 20.59375 61.1875 
Q 16.890625 52.984375 16.890625 36.375 
Q 16.890625 19.828125 20.59375 11.625 
Q 24.3125 3.421875 31.78125 3.421875 
z
M 31.78125 -1.421875 
Q 19.921875 -1.421875 13.25 8.53125 
Q 6.59375 18.5 6.59375 36.375 
Q 6.59375 54.296875 13.25 64.25 
Q 19.921875 74.21875 31.78125 74.21875 
Q 43.703125 74.21875 50.34375 64.25 
Q 56.984375 54.296875 56.984375 36.375 
Q 56.984375 18.5 50.34375 8.53125 
Q 43.703125 -1.421875 31.78125 -1.421875 
z
" id="DejaVuSerif-48"/>
       </defs>
       <use xlink:href="#DejaVuSerif-48"/>
      </g>
     </g>
    </g>
    <g id="xtick_2">
     <g id="line2d_3">
      <path clip-path="url(#pdf485bdc51)" d="M 126.354376 307.584 
L 126.354376 41.472 
" style="fill:none;stroke:#b0b0b0;stroke-linecap:square;stroke-width:0.8;"/>
     </g>
     <g id="line2d_4">
      <g>
       <use style="stroke:#000000;stroke-width:0.8;" x="126.354376" xlink:href="#mc1bb8a94d3" y="307.584"/>
      </g>
     </g>
     <g id="text_2">
      <!-- 100 -->
      <g transform="translate(116.810626 322.182437)scale(0.1 -0.1)">
       <defs>
        <path d="M 14.203125 0 
L 14.203125 5.171875 
L 26.90625 5.171875 
L 26.90625 65.828125 
L 12.203125 56.296875 
L 12.203125 62.703125 
L 29.984375 74.21875 
L 36.71875 74.21875 
L 36.71875 5.171875 
L 49.421875 5.171875 
L 49.421875 0 
z
" id="DejaVuSerif-49"/>
       </defs>
       <use xlink:href="#DejaVuSerif-49"/>
       <use x="63.623047" xlink:href="#DejaVuSerif-48"/>
       <use x="127.246094" xlink:href="#DejaVuSerif-48"/>
      </g>
     </g>
    </g>
    <g id="xtick_3">
     <g id="line2d_5">
      <path clip-path="url(#pdf485bdc51)" d="M 180.780956 307.584 
L 180.780956 41.472 
" style="fill:none;stroke:#b0b0b0;stroke-linecap:square;stroke-width:0.8;"/>
     </g>
     <g id="line2d_6">
      <g>
       <use style="stroke:#000000;stroke-width:0.8;" x="180.780956" xlink:href="#mc1bb8a94d3" y="307.584"/>
      </g>
     </g>
     <g id="text_3">
      <!-- 200 -->
      <g transform="translate(171.237206 322.182437)scale(0.1 -0.1)">
       <defs>
        <path d="M 12.796875 55.515625 
L 7.328125 55.515625 
L 7.328125 68.5 
Q 12.546875 71.296875 17.84375 72.75 
Q 23.140625 74.21875 28.21875 74.21875 
Q 39.59375 74.21875 46.1875 68.703125 
Q 52.78125 63.1875 52.78125 53.71875 
Q 52.78125 43.015625 37.84375 28.125 
Q 36.671875 27 36.078125 26.421875 
L 17.671875 8.015625 
L 48.09375 8.015625 
L 48.09375 17 
L 53.8125 17 
L 53.8125 0 
L 6.78125 0 
L 6.78125 5.328125 
L 28.90625 27.390625 
Q 36.234375 34.71875 39.359375 40.84375 
Q 42.484375 46.96875 42.484375 53.71875 
Q 42.484375 61.078125 38.640625 65.234375 
Q 34.8125 69.390625 28.078125 69.390625 
Q 21.09375 69.390625 17.28125 65.921875 
Q 13.484375 62.453125 12.796875 55.515625 
z
" id="DejaVuSerif-50"/>
       </defs>
       <use xlink:href="#DejaVuSerif-50"/>
       <use x="63.623047" xlink:href="#DejaVuSerif-48"/>
       <use x="127.246094" xlink:href="#DejaVuSerif-48"/>
      </g>
     </g>
    </g>
    <g id="xtick_4">
     <g id="line2d_7">
      <path clip-path="url(#pdf485bdc51)" d="M 235.207535 307.584 
L 235.207535 41.472 
" style="fill:none;stroke:#b0b0b0;stroke-linecap:square;stroke-width:0.8;"/>
     </g>
     <g id="line2d_8">
      <g>
       <use style="stroke:#000000;stroke-width:0.8;" x="235.207535" xlink:href="#mc1bb8a94d3" y="307.584"/>
      </g>
     </g>
     <g id="text_4">
      <!-- 300 -->
      <g transform="translate(225.663785 322.182437)scale(0.1 -0.1)">
       <defs>
        <path d="M 9.71875 69.828125 
Q 15.4375 71.96875 20.671875 73.09375 
Q 25.921875 74.21875 30.515625 74.21875 
Q 41.21875 74.21875 47.21875 69.59375 
Q 53.21875 64.984375 53.21875 56.78125 
Q 53.21875 50.203125 49.0625 45.78125 
Q 44.921875 41.359375 37.3125 39.796875 
Q 46.296875 38.53125 51.25 33.28125 
Q 56.203125 28.03125 56.203125 19.671875 
Q 56.203125 9.46875 49.34375 4.015625 
Q 42.484375 -1.421875 29.59375 -1.421875 
Q 23.875 -1.421875 18.421875 -0.1875 
Q 12.984375 1.03125 7.625 3.515625 
L 7.625 17.671875 
L 13.09375 17.671875 
Q 13.578125 10.640625 17.828125 7.03125 
Q 22.078125 3.421875 29.78125 3.421875 
Q 37.25 3.421875 41.578125 7.734375 
Q 45.90625 12.0625 45.90625 19.578125 
Q 45.90625 28.171875 41.453125 32.59375 
Q 37.015625 37.015625 28.421875 37.015625 
L 23.78125 37.015625 
L 23.78125 42 
L 26.21875 42 
Q 34.765625 42 39.03125 45.53125 
Q 43.3125 49.078125 43.3125 56.203125 
Q 43.3125 62.59375 39.796875 65.984375 
Q 36.28125 69.390625 29.6875 69.390625 
Q 23.09375 69.390625 19.453125 66.265625 
Q 15.828125 63.140625 15.1875 56.984375 
L 9.71875 56.984375 
z
" id="DejaVuSerif-51"/>
       </defs>
       <use xlink:href="#DejaVuSerif-51"/>
       <use x="63.623047" xlink:href="#DejaVuSerif-48"/>
       <use x="127.246094" xlink:href="#DejaVuSerif-48"/>
      </g>
     </g>
    </g>
    <g id="xtick_5">
     <g id="line2d_9">
      <path clip-path="url(#pdf485bdc51)" d="M 289.634114 307.584 
L 289.634114 41.472 
" style="fill:none;stroke:#b0b0b0;stroke-linecap:square;stroke-width:0.8;"/>
     </g>
     <g id="line2d_10">
      <g>
       <use style="stroke:#000000;stroke-width:0.8;" x="289.634114" xlink:href="#mc1bb8a94d3" y="307.584"/>
      </g>
     </g>
     <g id="text_5">
      <!-- 400 -->
      <g transform="translate(280.090364 322.182437)scale(0.1 -0.1)">
       <defs>
        <path d="M 34.90625 24.703125 
L 34.90625 63.484375 
L 10.015625 24.703125 
z
M 56.390625 0 
L 23.1875 0 
L 23.1875 5.171875 
L 34.90625 5.171875 
L 34.90625 19.484375 
L 3.078125 19.484375 
L 3.078125 24.8125 
L 35.015625 74.21875 
L 44.671875 74.21875 
L 44.671875 24.703125 
L 58.59375 24.703125 
L 58.59375 19.484375 
L 44.671875 19.484375 
L 44.671875 5.171875 
L 56.390625 5.171875 
z
" id="DejaVuSerif-52"/>
       </defs>
       <use xlink:href="#DejaVuSerif-52"/>
       <use x="63.623047" xlink:href="#DejaVuSerif-48"/>
       <use x="127.246094" xlink:href="#DejaVuSerif-48"/>
      </g>
     </g>
    </g>
    <g id="xtick_6">
     <g id="line2d_11">
      <path clip-path="url(#pdf485bdc51)" d="M 344.060693 307.584 
L 344.060693 41.472 
" style="fill:none;stroke:#b0b0b0;stroke-linecap:square;stroke-width:0.8;"/>
     </g>
     <g id="line2d_12">
      <g>
       <use style="stroke:#000000;stroke-width:0.8;" x="344.060693" xlink:href="#mc1bb8a94d3" y="307.584"/>
      </g>
     </g>
     <g id="text_6">
      <!-- 500 -->
      <g transform="translate(334.516943 322.182437)scale(0.1 -0.1)">
       <defs>
        <path d="M 50.296875 72.90625 
L 50.296875 64.890625 
L 16.890625 64.890625 
L 16.890625 44 
Q 19.4375 45.75 22.828125 46.625 
Q 26.21875 47.515625 30.421875 47.515625 
Q 42.234375 47.515625 49.0625 40.96875 
Q 55.90625 34.421875 55.90625 23.09375 
Q 55.90625 11.53125 49 5.046875 
Q 42.09375 -1.421875 29.59375 -1.421875 
Q 24.5625 -1.421875 19.28125 -0.1875 
Q 14.015625 1.03125 8.5 3.515625 
L 8.5 17.671875 
L 14.015625 17.671875 
Q 14.453125 10.75 18.421875 7.078125 
Q 22.40625 3.421875 29.59375 3.421875 
Q 37.3125 3.421875 41.453125 8.5 
Q 45.609375 13.578125 45.609375 23.09375 
Q 45.609375 32.5625 41.484375 37.609375 
Q 37.359375 42.671875 29.59375 42.671875 
Q 25.203125 42.671875 21.84375 41.109375 
Q 18.5 39.546875 15.921875 36.28125 
L 11.71875 36.28125 
L 11.71875 72.90625 
z
" id="DejaVuSerif-53"/>
       </defs>
       <use xlink:href="#DejaVuSerif-53"/>
       <use x="63.623047" xlink:href="#DejaVuSerif-48"/>
       <use x="127.246094" xlink:href="#DejaVuSerif-48"/>
      </g>
     </g>
    </g>
    <g id="xtick_7">
     <g id="line2d_13">
      <path clip-path="url(#pdf485bdc51)" d="M 398.487273 307.584 
L 398.487273 41.472 
" style="fill:none;stroke:#b0b0b0;stroke-linecap:square;stroke-width:0.8;"/>
     </g>
     <g id="line2d_14">
      <g>
       <use style="stroke:#000000;stroke-width:0.8;" x="398.487273" xlink:href="#mc1bb8a94d3" y="307.584"/>
      </g>
     </g>
     <g id="text_7">
      <!-- 600 -->
      <g transform="translate(388.943523 322.182437)scale(0.1 -0.1)">
       <defs>
        <path d="M 32.71875 3.421875 
Q 39.59375 3.421875 43.296875 8.46875 
Q 47.015625 13.53125 47.015625 23 
Q 47.015625 32.46875 43.296875 37.515625 
Q 39.59375 42.578125 32.71875 42.578125 
Q 25.734375 42.578125 22.0625 37.6875 
Q 18.40625 32.8125 18.40625 23.578125 
Q 18.40625 13.875 22.109375 8.640625 
Q 25.828125 3.421875 32.71875 3.421875 
z
M 16.796875 40.140625 
Q 20.125 43.796875 24.3125 45.59375 
Q 28.515625 47.40625 33.796875 47.40625 
Q 44.671875 47.40625 51 40.859375 
Q 57.328125 34.328125 57.328125 23 
Q 57.328125 11.921875 50.515625 5.25 
Q 43.703125 -1.421875 32.328125 -1.421875 
Q 19.96875 -1.421875 13.328125 7.78125 
Q 6.6875 17 6.6875 34.078125 
Q 6.6875 53.21875 14.546875 63.71875 
Q 22.40625 74.21875 36.71875 74.21875 
Q 40.578125 74.21875 44.828125 73.484375 
Q 49.078125 72.75 53.515625 71.296875 
L 53.515625 59.28125 
L 48 59.28125 
Q 47.40625 64.203125 44.234375 66.796875 
Q 41.0625 69.390625 35.6875 69.390625 
Q 26.21875 69.390625 21.578125 62.203125 
Q 16.9375 55.03125 16.796875 40.140625 
z
" id="DejaVuSerif-54"/>
       </defs>
       <use xlink:href="#DejaVuSerif-54"/>
       <use x="63.623047" xlink:href="#DejaVuSerif-48"/>
       <use x="127.246094" xlink:href="#DejaVuSerif-48"/>
      </g>
     </g>
    </g>
    <g id="text_8">
     <!-- Time -->
     <g transform="translate(214.680234 341.179469)scale(0.17 -0.17)">
      <defs>
       <path d="M 19.09375 0 
L 19.09375 5.171875 
L 28.421875 5.171875 
L 28.421875 67.09375 
L 6.984375 67.09375 
L 6.984375 55.71875 
L 0.984375 55.71875 
L 0.984375 72.90625 
L 65.71875 72.90625 
L 65.71875 55.71875 
L 59.71875 55.71875 
L 59.71875 67.09375 
L 38.28125 67.09375 
L 38.28125 5.171875 
L 47.609375 5.171875 
L 47.609375 0 
z
" id="DejaVuSerif-84"/>
       <path d="M 9.71875 68.015625 
Q 9.71875 70.265625 11.34375 71.921875 
Q 12.984375 73.578125 15.28125 73.578125 
Q 17.53125 73.578125 19.15625 71.921875 
Q 20.796875 70.265625 20.796875 68.015625 
Q 20.796875 65.71875 19.1875 64.109375 
Q 17.578125 62.5 15.28125 62.5 
Q 12.984375 62.5 11.34375 64.109375 
Q 9.71875 65.71875 9.71875 68.015625 
z
M 21.1875 5.171875 
L 29.6875 5.171875 
L 29.6875 0 
L 3.609375 0 
L 3.609375 5.171875 
L 12.203125 5.171875 
L 12.203125 46.6875 
L 3.609375 46.6875 
L 3.609375 51.90625 
L 21.1875 51.90625 
z
" id="DejaVuSerif-105"/>
       <path d="M 51.8125 41.796875 
Q 54.390625 47.515625 58.421875 50.421875 
Q 62.453125 53.328125 67.828125 53.328125 
Q 75.984375 53.328125 79.984375 48.265625 
Q 83.984375 43.21875 83.984375 33.015625 
L 83.984375 5.171875 
L 92.09375 5.171875 
L 92.09375 0 
L 67.1875 0 
L 67.1875 5.171875 
L 75 5.171875 
L 75 31.984375 
Q 75 39.9375 72.65625 43.3125 
Q 70.3125 46.6875 64.890625 46.6875 
Q 58.890625 46.6875 55.734375 42.140625 
Q 52.59375 37.59375 52.59375 28.90625 
L 52.59375 5.171875 
L 60.40625 5.171875 
L 60.40625 0 
L 35.796875 0 
L 35.796875 5.171875 
L 43.609375 5.171875 
L 43.609375 32.328125 
Q 43.609375 40.09375 41.265625 43.390625 
Q 38.921875 46.6875 33.5 46.6875 
Q 27.484375 46.6875 24.328125 42.140625 
Q 21.1875 37.59375 21.1875 28.90625 
L 21.1875 5.171875 
L 29 5.171875 
L 29 0 
L 4.109375 0 
L 4.109375 5.171875 
L 12.203125 5.171875 
L 12.203125 46.78125 
L 3.609375 46.78125 
L 3.609375 51.90625 
L 21.1875 51.90625 
L 21.1875 42.671875 
Q 23.6875 47.859375 27.53125 50.59375 
Q 31.390625 53.328125 36.28125 53.328125 
Q 42.328125 53.328125 46.375 50.3125 
Q 50.4375 47.3125 51.8125 41.796875 
z
" id="DejaVuSerif-109"/>
       <path d="M 54.203125 25 
L 15.484375 25 
L 15.484375 24.609375 
Q 15.484375 14.109375 19.4375 8.765625 
Q 23.390625 3.421875 31.109375 3.421875 
Q 37.015625 3.421875 40.796875 6.515625 
Q 44.578125 9.625 46.09375 15.71875 
L 53.328125 15.71875 
Q 51.171875 7.171875 45.375 2.875 
Q 39.59375 -1.421875 30.171875 -1.421875 
Q 18.796875 -1.421875 11.890625 6.078125 
Q 4.984375 13.578125 4.984375 25.984375 
Q 4.984375 38.28125 11.765625 45.796875 
Q 18.5625 53.328125 29.59375 53.328125 
Q 41.359375 53.328125 47.65625 46.0625 
Q 53.953125 38.8125 54.203125 25 
z
M 43.609375 30.171875 
Q 43.3125 39.265625 39.765625 43.875 
Q 36.234375 48.484375 29.59375 48.484375 
Q 23.390625 48.484375 19.828125 43.84375 
Q 16.265625 39.203125 15.484375 30.171875 
z
" id="DejaVuSerif-101"/>
      </defs>
      <use xlink:href="#DejaVuSerif-84"/>
      <use x="66.699219" xlink:href="#DejaVuSerif-105"/>
      <use x="98.681641" xlink:href="#DejaVuSerif-109"/>
      <use x="193.505859" xlink:href="#DejaVuSerif-101"/>
     </g>
    </g>
   </g>
   <g id="matplotlib.axis_2">
    <g id="ytick_1">
     <g id="line2d_15">
      <path clip-path="url(#pdf485bdc51)" d="M 57.6 289.8432 
L 414.72 289.8432 
" style="fill:none;stroke:#b0b0b0;stroke-linecap:square;stroke-width:0.8;"/>
     </g>
     <g id="line2d_16">
      <defs>
       <path d="M 0 0 
L -3.5 0 
" id="me1e15a8635" style="stroke:#000000;stroke-width:0.8;"/>
      </defs>
      <g>
       <use style="stroke:#000000;stroke-width:0.8;" x="57.6" xlink:href="#me1e15a8635" y="289.8432"/>
      </g>
     </g>
     <g id="text_9">
      <!-- −0.2 -->
      <g transform="translate(26.317187 293.642419)scale(0.1 -0.1)">
       <defs>
        <path d="M 10.59375 35.296875 
L 73.1875 35.296875 
L 73.1875 27.390625 
L 10.59375 27.390625 
z
" id="DejaVuSerif-8722"/>
        <path d="M 9.421875 5.078125 
Q 9.421875 7.8125 11.28125 9.71875 
Q 13.140625 11.625 15.921875 11.625 
Q 18.609375 11.625 20.5 9.71875 
Q 22.40625 7.8125 22.40625 5.078125 
Q 22.40625 2.390625 20.5 0.484375 
Q 18.609375 -1.421875 15.921875 -1.421875 
Q 13.140625 -1.421875 11.28125 0.453125 
Q 9.421875 2.34375 9.421875 5.078125 
z
" id="DejaVuSerif-46"/>
       </defs>
       <use xlink:href="#DejaVuSerif-8722"/>
       <use x="83.789062" xlink:href="#DejaVuSerif-48"/>
       <use x="147.412109" xlink:href="#DejaVuSerif-46"/>
       <use x="179.199219" xlink:href="#DejaVuSerif-50"/>
      </g>
     </g>
    </g>
    <g id="ytick_2">
     <g id="line2d_17">
      <path clip-path="url(#pdf485bdc51)" d="M 57.6 254.3616 
L 414.72 254.3616 
" style="fill:none;stroke:#b0b0b0;stroke-linecap:square;stroke-width:0.8;"/>
     </g>
     <g id="line2d_18">
      <g>
       <use style="stroke:#000000;stroke-width:0.8;" x="57.6" xlink:href="#me1e15a8635" y="254.3616"/>
      </g>
     </g>
     <g id="text_10">
      <!-- −0.1 -->
      <g transform="translate(26.317187 258.160819)scale(0.1 -0.1)">
       <use xlink:href="#DejaVuSerif-8722"/>
       <use x="83.789062" xlink:href="#DejaVuSerif-48"/>
       <use x="147.412109" xlink:href="#DejaVuSerif-46"/>
       <use x="179.199219" xlink:href="#DejaVuSerif-49"/>
      </g>
     </g>
    </g>
    <g id="ytick_3">
     <g id="line2d_19">
      <path clip-path="url(#pdf485bdc51)" d="M 57.6 218.88 
L 414.72 218.88 
" style="fill:none;stroke:#b0b0b0;stroke-linecap:square;stroke-width:0.8;"/>
     </g>
     <g id="line2d_20">
      <g>
       <use style="stroke:#000000;stroke-width:0.8;" x="57.6" xlink:href="#me1e15a8635" y="218.88"/>
      </g>
     </g>
     <g id="text_11">
      <!-- 0.0 -->
      <g transform="translate(34.696875 222.679219)scale(0.1 -0.1)">
       <use xlink:href="#DejaVuSerif-48"/>
       <use x="63.623047" xlink:href="#DejaVuSerif-46"/>
       <use x="95.410156" xlink:href="#DejaVuSerif-48"/>
      </g>
     </g>
    </g>
    <g id="ytick_4">
     <g id="line2d_21">
      <path clip-path="url(#pdf485bdc51)" d="M 57.6 183.3984 
L 414.72 183.3984 
" style="fill:none;stroke:#b0b0b0;stroke-linecap:square;stroke-width:0.8;"/>
     </g>
     <g id="line2d_22">
      <g>
       <use style="stroke:#000000;stroke-width:0.8;" x="57.6" xlink:href="#me1e15a8635" y="183.3984"/>
      </g>
     </g>
     <g id="text_12">
      <!-- 0.1 -->
      <g transform="translate(34.696875 187.197619)scale(0.1 -0.1)">
       <use xlink:href="#DejaVuSerif-48"/>
       <use x="63.623047" xlink:href="#DejaVuSerif-46"/>
       <use x="95.410156" xlink:href="#DejaVuSerif-49"/>
      </g>
     </g>
    </g>
    <g id="ytick_5">
     <g id="line2d_23">
      <path clip-path="url(#pdf485bdc51)" d="M 57.6 147.9168 
L 414.72 147.9168 
" style="fill:none;stroke:#b0b0b0;stroke-linecap:square;stroke-width:0.8;"/>
     </g>
     <g id="line2d_24">
      <g>
       <use style="stroke:#000000;stroke-width:0.8;" x="57.6" xlink:href="#me1e15a8635" y="147.9168"/>
      </g>
     </g>
     <g id="text_13">
      <!-- 0.2 -->
      <g transform="translate(34.696875 151.716019)scale(0.1 -0.1)">
       <use xlink:href="#DejaVuSerif-48"/>
       <use x="63.623047" xlink:href="#DejaVuSerif-46"/>
       <use x="95.410156" xlink:href="#DejaVuSerif-50"/>
      </g>
     </g>
    </g>
    <g id="ytick_6">
     <g id="line2d_25">
      <path clip-path="url(#pdf485bdc51)" d="M 57.6 112.4352 
L 414.72 112.4352 
" style="fill:none;stroke:#b0b0b0;stroke-linecap:square;stroke-width:0.8;"/>
     </g>
     <g id="line2d_26">
      <g>
       <use style="stroke:#000000;stroke-width:0.8;" x="57.6" xlink:href="#me1e15a8635" y="112.4352"/>
      </g>
     </g>
     <g id="text_14">
      <!-- 0.3 -->
      <g transform="translate(34.696875 116.234419)scale(0.1 -0.1)">
       <use xlink:href="#DejaVuSerif-48"/>
       <use x="63.623047" xlink:href="#DejaVuSerif-46"/>
       <use x="95.410156" xlink:href="#DejaVuSerif-51"/>
      </g>
     </g>
    </g>
    <g id="ytick_7">
     <g id="line2d_27">
      <path clip-path="url(#pdf485bdc51)" d="M 57.6 76.9536 
L 414.72 76.9536 
" style="fill:none;stroke:#b0b0b0;stroke-linecap:square;stroke-width:0.8;"/>
     </g>
     <g id="line2d_28">
      <g>
       <use style="stroke:#000000;stroke-width:0.8;" x="57.6" xlink:href="#me1e15a8635" y="76.9536"/>
      </g>
     </g>
     <g id="text_15">
      <!-- 0.4 -->
      <g transform="translate(34.696875 80.752819)scale(0.1 -0.1)">
       <use xlink:href="#DejaVuSerif-48"/>
       <use x="63.623047" xlink:href="#DejaVuSerif-46"/>
       <use x="95.410156" xlink:href="#DejaVuSerif-52"/>
      </g>
     </g>
    </g>
    <g id="ytick_8">
     <g id="line2d_29">
      <path clip-path="url(#pdf485bdc51)" d="M 57.6 41.472 
L 414.72 41.472 
" style="fill:none;stroke:#b0b0b0;stroke-linecap:square;stroke-width:0.8;"/>
     </g>
     <g id="line2d_30">
      <g>
       <use style="stroke:#000000;stroke-width:0.8;" x="57.6" xlink:href="#me1e15a8635" y="41.472"/>
      </g>
     </g>
     <g id="text_16">
      <!-- 0.5 -->
      <g transform="translate(34.696875 45.271219)scale(0.1 -0.1)">
       <use xlink:href="#DejaVuSerif-48"/>
       <use x="63.623047" xlink:href="#DejaVuSerif-46"/>
       <use x="95.410156" xlink:href="#DejaVuSerif-53"/>
      </g>
     </g>
    </g>
    <g id="text_17">
     <!-- Speed -->
     <g transform="translate(18.781719 201.295031)rotate(-90)scale(0.17 -0.17)">
      <defs>
       <path d="M 9.28125 3.515625 
L 9.28125 20.125 
L 14.890625 20.0625 
Q 15.140625 11.765625 19.703125 7.78125 
Q 24.265625 3.8125 33.59375 3.8125 
Q 42.28125 3.8125 46.84375 7.25 
Q 51.421875 10.6875 51.421875 17.28125 
Q 51.421875 22.5625 48.65625 25.390625 
Q 45.90625 28.21875 37.015625 30.90625 
L 27.390625 33.796875 
Q 16.9375 36.96875 12.671875 41.703125 
Q 8.40625 46.4375 8.40625 54.6875 
Q 8.40625 63.96875 14.984375 69.09375 
Q 21.578125 74.21875 33.5 74.21875 
Q 38.578125 74.21875 44.625 73.109375 
Q 50.6875 72.015625 57.515625 69.921875 
L 57.515625 54.390625 
L 52 54.390625 
Q 51.171875 62.109375 46.84375 65.546875 
Q 42.53125 69 33.6875 69 
Q 25.984375 69 21.953125 65.84375 
Q 17.921875 62.703125 17.921875 56.6875 
Q 17.921875 51.46875 20.9375 48.484375 
Q 23.96875 45.515625 33.796875 42.578125 
L 42.828125 39.890625 
Q 52.734375 36.921875 56.953125 32.296875 
Q 61.1875 27.6875 61.1875 19.921875 
Q 61.1875 9.328125 54.390625 3.953125 
Q 47.609375 -1.421875 34.1875 -1.421875 
Q 28.171875 -1.421875 21.9375 -0.1875 
Q 15.71875 1.03125 9.28125 3.515625 
z
" id="DejaVuSerif-83"/>
       <path d="M 20.515625 28.515625 
L 20.515625 23.390625 
Q 20.515625 14.015625 24.09375 9.109375 
Q 27.6875 4.203125 34.515625 4.203125 
Q 41.40625 4.203125 44.9375 9.71875 
Q 48.484375 15.234375 48.484375 25.984375 
Q 48.484375 36.765625 44.9375 42.234375 
Q 41.40625 47.703125 34.515625 47.703125 
Q 27.6875 47.703125 24.09375 42.765625 
Q 20.515625 37.84375 20.515625 28.515625 
z
M 11.53125 46.6875 
L 2.875 46.6875 
L 2.875 51.90625 
L 20.515625 51.90625 
L 20.515625 43.796875 
Q 23.140625 48.6875 27.21875 51 
Q 31.296875 53.328125 37.3125 53.328125 
Q 46.875 53.328125 52.921875 45.75 
Q 58.984375 38.1875 58.984375 25.984375 
Q 58.984375 13.765625 52.921875 6.171875 
Q 46.875 -1.421875 37.3125 -1.421875 
Q 31.296875 -1.421875 27.21875 0.890625 
Q 23.140625 3.21875 20.515625 8.109375 
L 20.515625 -15.578125 
L 29 -15.578125 
L 29 -20.796875 
L 2.875 -20.796875 
L 2.875 -15.578125 
L 11.53125 -15.578125 
z
" id="DejaVuSerif-112"/>
       <path d="M 52.484375 5.171875 
L 61.078125 5.171875 
L 61.078125 0 
L 43.5 0 
L 43.5 8.109375 
Q 40.875 3.21875 36.796875 0.890625 
Q 32.71875 -1.421875 26.703125 -1.421875 
Q 17.140625 -1.421875 11.0625 6.171875 
Q 4.984375 13.765625 4.984375 25.984375 
Q 4.984375 38.1875 11.03125 45.75 
Q 17.09375 53.328125 26.703125 53.328125 
Q 32.71875 53.328125 36.796875 51 
Q 40.875 48.6875 43.5 43.796875 
L 43.5 70.796875 
L 35.015625 70.796875 
L 35.015625 75.984375 
L 52.484375 75.984375 
z
M 43.5 23.390625 
L 43.5 28.515625 
Q 43.5 37.84375 39.90625 42.765625 
Q 36.328125 47.703125 29.5 47.703125 
Q 22.5625 47.703125 19.015625 42.234375 
Q 15.484375 36.765625 15.484375 25.984375 
Q 15.484375 15.234375 19.015625 9.71875 
Q 22.5625 4.203125 29.5 4.203125 
Q 36.328125 4.203125 39.90625 9.109375 
Q 43.5 14.015625 43.5 23.390625 
z
" id="DejaVuSerif-100"/>
      </defs>
      <use xlink:href="#DejaVuSerif-83"/>
      <use x="68.505859" xlink:href="#DejaVuSerif-112"/>
      <use x="132.519531" xlink:href="#DejaVuSerif-101"/>
      <use x="191.699219" xlink:href="#DejaVuSerif-101"/>
      <use x="250.878906" xlink:href="#DejaVuSerif-100"/>
     </g>
    </g>
   </g>
   <g id="LineCollection_1">
    <path clip-path="url(#pdf485bdc51)" d="M 73.832727 218.88 
L 398.487273 218.88 
" style="fill:none;stroke:#696969;stroke-width:1.5;"/>
   </g>
   <g id="line2d_31">
    <path clip-path="url(#pdf485bdc51)" d="M 73.832727 218.88 
L 75.645132 218.88 
L 75.721583 -1 
M 76.526713 -1 
L 76.554056 5.9904 
L 76.733664 218.88 
L 83.99417 218.88 
L 84.173777 136.999385 
L 84.353385 140.032 
L 84.625518 140.032 
L 84.810568 142.848 
L 85.082701 142.848 
L 85.262309 145.469793 
L 85.534442 145.469793 
L 85.71405 147.9168 
L 85.986182 147.9168 
L 86.171233 150.205935 
L 86.443366 150.205935 
L 86.622973 152.352 
L 86.895106 152.352 
L 86.987631 154.368 
L 87.167239 218.88 
L 92.517372 218.88 
L 92.702422 171.5712 
L 92.789505 171.5712 
L 92.974555 172.599652 
L 93.246688 172.599652 
L 93.426296 173.58434 
L 93.698429 173.58434 
L 93.878036 174.528 
L 94.150169 174.528 
L 94.33522 175.433143 
L 94.607353 175.433143 
L 94.78696 176.30208 
L 95.059093 176.30208 
L 95.238701 177.136941 
L 95.510834 177.136941 
L 95.695884 177.939692 
L 95.968017 177.939692 
L 96.147625 178.712151 
L 96.419758 178.712151 
L 96.599365 179.456 
L 96.871498 179.456 
L 97.056549 180.1728 
L 97.328682 180.1728 
L 97.508289 180.864 
L 97.600814 180.864 
L 97.780422 218.88 
L 101.046017 218.88 
L 101.225625 185.616 
L 101.410675 185.616 
L 101.590283 186.127754 
L 101.862416 186.127754 
L 102.042023 186.624 
L 102.314156 186.624 
L 102.499207 187.105433 
L 102.771339 187.105433 
L 102.950947 187.572706 
L 103.22308 187.572706 
L 103.402688 188.026435 
L 103.674821 188.026435 
L 103.859871 188.4672 
L 104.132004 188.4672 
L 104.311612 188.895549 
L 104.583745 188.895549 
L 104.763352 189.312 
L 105.035485 189.312 
L 105.220536 189.717041 
L 105.492668 189.717041 
L 105.672276 190.111135 
L 105.944409 190.111135 
L 106.124017 190.49472 
L 106.39615 190.49472 
L 106.5812 190.868211 
L 106.853333 190.868211 
L 107.032941 191.232 
L 107.305074 191.232 
L 107.484681 191.586462 
L 107.756814 191.586462 
L 107.941865 191.931949 
L 108.213997 191.931949 
L 108.30108 192.2688 
L 108.48613 218.88 
L 109.574662 218.88 
L 109.75427 193.230651 
L 110.026402 193.230651 
L 110.20601 193.536 
L 110.478143 193.536 
L 110.663193 193.834165 
L 110.935326 193.834165 
L 111.114934 194.125395 
L 111.387067 194.125395 
L 111.566675 194.409931 
L 111.838808 194.409931 
L 112.023858 194.688 
L 112.295991 194.688 
L 112.475599 194.95982 
L 112.747731 194.95982 
L 112.927339 195.2256 
L 113.199472 195.2256 
L 113.384522 195.485538 
L 113.656655 195.485538 
L 113.836263 195.739826 
L 114.108396 195.739826 
L 114.288004 195.988645 
L 114.560137 195.988645 
L 114.745187 196.23217 
L 115.01732 196.23217 
L 115.196928 196.470568 
L 115.46906 196.470568 
L 115.648668 196.704 
L 115.920801 196.704 
L 116.105851 196.932619 
L 116.377984 196.932619 
L 116.557592 197.156571 
L 116.829725 197.156571 
L 117.009333 197.376 
L 117.281466 197.376 
L 117.466516 197.59104 
L 117.738649 197.59104 
L 117.918256 197.801822 
L 118.097864 197.801822 
L 118.190389 176.723644 
L 118.282915 177.136941 
L 118.64213 177.136941 
L 118.82718 177.542214 
L 118.914263 177.542214 
L 119.099313 198.211107 
L 119.278921 198.409846 
L 119.551054 198.409846 
L 119.730662 198.6048 
L 120.002794 198.6048 
L 120.187845 198.796075 
L 120.459978 198.796075 
L 120.639585 198.983776 
L 120.911718 198.983776 
L 121.091326 199.168 
L 121.363459 199.168 
L 121.548509 199.348844 
L 121.820642 199.348844 
L 122.00025 199.5264 
L 122.272383 199.5264 
L 122.451991 199.700757 
L 122.724123 199.700757 
L 122.909174 199.872 
L 123.181307 199.872 
L 123.360914 200.040212 
L 123.633047 200.040212 
L 123.812655 200.205474 
L 124.084788 200.205474 
L 124.269838 200.367861 
L 124.541971 200.367861 
L 124.721579 200.527448 
L 124.993712 200.527448 
L 125.17332 200.684308 
L 125.445452 200.684308 
L 125.630503 200.838508 
L 125.902636 200.838508 
L 126.082243 200.990118 
L 126.354376 200.990118 
L 126.533984 201.1392 
L 126.626509 201.1392 
L 126.806117 183.3984 
L 126.991167 183.691636 
L 127.2633 183.691636 
L 127.442908 183.980066 
L 127.715041 183.980066 
L 127.894648 184.263805 
L 128.166781 184.263805 
L 128.351832 184.542968 
L 128.623965 184.542968 
L 128.803572 184.817664 
L 129.075705 184.817664 
L 129.255313 185.088 
L 129.527446 185.088 
L 129.619971 185.354079 
L 129.799579 202.117039 
L 129.984629 202.117039 
L 130.164237 202.248 
L 130.43637 202.248 
L 130.615977 202.37693 
L 130.88811 202.37693 
L 131.073161 202.503877 
L 131.345294 202.503877 
L 131.524901 202.628885 
L 131.797034 202.628885 
L 131.976642 202.752 
L 132.248775 202.752 
L 132.433825 202.873263 
L 132.705958 202.873263 
L 132.885566 202.992716 
L 133.157699 202.992716 
L 133.337306 203.1104 
L 133.609439 203.1104 
L 133.79449 203.226353 
L 134.066623 203.226353 
L 134.24623 203.340613 
L 134.518363 203.340613 
L 134.697971 203.453217 
L 135.155154 203.564201 
L 135.334762 188.248403 
L 135.427287 188.248403 
L 135.606895 188.4672 
L 135.879028 188.4672 
L 136.058635 188.682894 
L 136.330768 188.682894 
L 136.515819 188.895549 
L 136.787952 188.895549 
L 136.967559 189.105231 
L 137.239692 189.105231 
L 137.4193 189.312 
L 137.691433 189.312 
L 137.876483 189.515917 
L 138.148616 189.515917 
L 138.328224 189.717041 
L 138.600357 189.717041 
L 138.779964 189.915429 
L 139.052097 189.915429 
L 139.237148 190.111135 
L 139.50928 190.111135 
L 139.688888 190.304215 
L 139.961021 190.304215 
L 140.140629 190.49472 
L 140.233154 190.49472 
L 140.412762 204.68736 
L 140.597812 204.781351 
L 141.321686 204.874105 
L 141.501293 204.965647 
L 142.230609 205.056 
L 142.410217 205.145187 
L 143.134091 205.233231 
L 143.319141 205.320153 
L 143.678356 205.405975 
L 143.863407 191.931949 
L 144.043015 191.931949 
L 144.222622 192.101434 
L 144.494755 192.101434 
L 144.679806 192.2688 
L 144.951938 192.2688 
L 145.131546 192.434087 
L 145.403679 192.434087 
L 145.583287 192.597333 
L 145.85542 192.597333 
L 146.04047 192.758577 
L 146.312603 192.758577 
L 146.492211 192.917854 
L 146.764344 192.917854 
L 146.943951 193.0752 
L 147.216084 193.0752 
L 147.401134 193.230651 
L 147.673267 193.230651 
L 147.852875 193.38424 
L 148.125008 193.38424 
L 148.304616 193.536 
L 148.576749 193.536 
L 148.761799 193.685964 
L 149.033932 193.685964 
L 149.21354 193.834165 
L 149.485672 193.834165 
L 149.66528 193.980632 
L 149.937413 193.980632 
L 150.122463 194.125395 
L 150.394596 194.125395 
L 150.574204 194.268486 
L 150.846337 194.268486 
L 150.938862 194.409931 
L 151.11847 206.644966 
L 151.755261 206.71488 
L 151.934869 206.784 
L 152.207001 206.784 
L 152.386609 194.824678 
L 152.658742 194.824678 
L 152.843792 194.95982 
L 153.115925 194.95982 
L 153.295533 195.093453 
L 153.567666 195.093453 
L 153.747274 195.2256 
L 154.019407 195.2256 
L 154.204457 195.356287 
L 154.47659 195.356287 
L 154.656198 195.485538 
L 154.92833 195.485538 
L 155.107938 195.613377 
L 155.380071 195.613377 
L 155.565121 195.739826 
L 155.837254 195.739826 
L 156.016862 195.864908 
L 156.288995 195.864908 
L 156.468603 195.988645 
L 156.740736 195.988645 
L 156.925786 196.111059 
L 157.197919 196.111059 
L 157.377526 196.23217 
L 157.649659 196.23217 
L 157.829267 196.352 
L 158.1014 196.352 
L 158.28645 196.470568 
L 158.558583 196.470568 
L 158.738191 196.587895 
L 159.010324 196.587895 
L 159.189932 196.704 
L 159.462064 196.704 
L 159.647115 196.818902 
L 159.919248 196.818902 
L 160.098855 196.932619 
L 160.370988 196.932619 
L 160.550596 197.045169 
L 160.735646 197.045169 
L 160.822729 186.127754 
L 160.915254 186.294857 
L 161.279912 186.294857 
L 161.45952 186.460264 
L 161.552045 186.460264 
L 161.731653 197.266843 
L 161.911261 197.376 
L 162.640577 197.48406 
L 162.820184 197.59104 
L 163.544058 197.696955 
L 163.729108 197.801822 
L 164.452982 197.905655 
L 164.632589 198.008471 
L 165.361906 198.110283 
L 165.541513 198.211107 
L 166.265387 198.310957 
L 166.450437 198.409846 
L 167.174311 198.507789 
L 167.353918 198.6048 
L 168.083235 198.700891 
L 168.262842 198.796075 
L 168.986716 198.890366 
L 169.171766 198.983776 
L 169.258849 198.983776 
L 169.443899 189.035664 
L 169.623507 189.174474 
L 169.89564 189.174474 
L 170.075247 189.312 
L 170.34738 189.312 
L 170.532431 189.448258 
L 170.804564 189.448258 
L 170.984171 189.583266 
L 171.256304 189.583266 
L 171.435912 189.717041 
L 171.708045 189.717041 
L 171.893095 189.8496 
L 172.165228 189.8496 
L 172.252311 189.980959 
L 172.437361 199.613973 
L 173.068709 199.700757 
L 173.25376 199.786762 
L 173.977633 199.872 
L 174.157241 199.95648 
L 174.886557 200.040212 
L 175.066165 200.123207 
L 175.790038 200.205474 
L 175.975089 200.287022 
L 176.698962 200.367861 
L 176.87857 200.448 
L 177.607886 200.527448 
L 177.787494 200.606215 
L 177.967101 191.469322 
L 178.059627 191.469322 
L 178.239234 191.586462 
L 178.511367 191.586462 
L 178.696418 191.702604 
L 178.96855 191.702604 
L 179.148158 191.817763 
L 179.420291 191.817763 
L 179.599899 191.931949 
L 179.872032 191.931949 
L 180.057082 192.045176 
L 180.329215 192.045176 
L 180.508823 192.157456 
L 180.780956 192.157456 
L 180.960563 192.2688 
L 181.689879 192.37922 
L 181.869487 192.488727 
L 182.593361 192.597333 
L 182.778411 192.705049 
L 182.865494 192.705049 
L 183.050544 201.430033 
L 183.230152 201.501257 
L 183.954025 201.571902 
L 184.226158 201.641976 
L 184.862949 201.711484 
L 185.135082 201.780434 
L 185.771873 201.848832 
L 185.951481 201.916685 
L 186.316139 201.984 
L 186.495746 193.536 
L 187.132537 193.636174 
L 187.312145 193.735559 
L 188.036019 193.834165 
L 188.221069 193.932 
L 188.944942 194.029074 
L 189.12455 194.125395 
L 189.853866 194.220973 
L 190.033474 194.315815 
L 190.757348 194.409931 
L 190.942398 194.503328 
L 191.666271 194.596015 
L 191.845879 194.688 
L 192.575195 194.779291 
L 192.754803 194.869895 
L 193.478677 194.95982 
L 193.571202 195.049075 
L 193.750809 202.992716 
L 194.3876 203.051777 
L 194.659733 203.1104 
L 194.931866 203.16859 
L 195.111474 195.312886 
L 195.748265 195.399529 
L 195.927873 195.485538 
L 196.657189 195.57092 
L 196.836796 195.65568 
L 197.56067 195.739826 
L 197.74572 195.823365 
L 198.469594 195.906302 
L 198.649202 195.988645 
L 199.378518 196.0704 
L 199.558125 196.151573 
L 200.281999 196.23217 
L 200.467049 196.312198 
L 201.190923 196.391662 
L 201.370531 196.470568 
L 202.099847 196.548923 
L 202.279454 196.626732 
L 203.003328 196.704 
L 203.188378 196.780734 
L 203.460511 196.780734 
L 203.640119 189.515917 
L 204.184385 189.616825 
L 204.363992 196.932619 
L 204.549043 197.007781 
L 205.272916 197.08243 
L 205.452524 197.156571 
L 206.18184 197.23021 
L 206.361448 197.303351 
L 207.085321 197.376 
L 207.357454 197.448161 
L 207.994245 197.519839 
L 208.266378 197.59104 
L 208.903169 197.661767 
L 209.082777 197.732026 
L 209.80665 197.801822 
L 210.078783 197.871158 
L 210.715574 197.940039 
L 210.987707 198.008471 
L 211.624498 198.076456 
L 211.804106 198.144 
L 211.983713 198.144 
L 212.076239 191.232 
L 212.168764 191.321476 
L 212.985163 191.410374 
L 213.16477 191.498701 
L 213.888644 191.586462 
L 214.073694 191.673661 
L 214.797568 191.760306 
L 214.890093 191.8464 
L 215.069701 198.6048 
L 215.706492 198.668962 
L 215.978624 198.732719 
L 216.609973 198.796075 
L 216.882106 198.859034 
L 217.518897 198.9216 
L 217.791029 198.983776 
L 218.42782 199.045565 
L 218.699953 199.106972 
L 219.331302 199.168 
L 219.603435 199.228652 
L 220.240226 199.288933 
L 220.512358 199.348844 
L 220.691966 192.838459 
L 220.877017 192.917854 
L 221.60089 192.996766 
L 221.780498 193.0752 
L 222.509814 193.15316 
L 222.689422 193.230651 
L 223.413295 193.307676 
L 223.598346 193.38424 
L 224.322219 193.460346 
L 224.501827 193.536 
L 225.231143 193.611205 
L 225.410751 193.685964 
L 225.590358 193.685964 
L 225.775409 200.040212 
L 227.043548 200.15071 
L 227.315681 200.205474 
L 228.404212 200.314047 
L 228.676345 200.367861 
L 229.041003 200.421364 
L 229.220611 194.268486 
L 229.764877 194.339412 
L 230.03701 194.409931 
L 230.673801 194.480046 
L 230.853409 194.54976 
L 231.577282 194.619077 
L 231.849415 194.688 
L 232.486206 194.756533 
L 232.758339 194.824678 
L 233.39513 194.892439 
L 233.574737 194.95982 
L 234.298611 195.026824 
L 234.570744 195.093453 
L 235.207535 195.15971 
L 235.479668 195.2256 
L 236.116459 195.291125 
L 236.296066 195.356287 
L 236.475674 201.237215 
L 237.477123 201.334154 
L 237.564206 201.382225 
L 237.749256 195.549633 
L 238.380604 195.613377 
L 238.652737 195.676774 
L 239.289528 195.739826 
L 239.561661 195.802537 
L 240.198452 195.864908 
L 240.470585 195.926943 
L 241.101933 195.988645 
L 241.374066 196.050016 
L 242.010857 196.111059 
L 242.28299 196.171776 
L 242.919781 196.23217 
L 243.191914 196.292244 
L 243.823262 196.352 
L 244.095395 196.411441 
L 244.732186 196.470568 
L 245.004319 196.529386 
L 245.64111 196.587895 
L 245.913243 196.646099 
L 246.092851 196.646099 
L 246.272458 191.16 
L 246.909249 191.232 
L 247.088857 196.818902 
L 247.905256 196.875907 
L 248.177389 196.932619 
L 248.81418 196.989039 
L 249.086313 197.045169 
L 249.723104 197.101013 
L 249.995236 197.156571 
L 251.083768 197.266843 
L 251.355901 197.321559 
L 252.444433 197.430166 
L 252.716565 197.48406 
L 253.805097 197.59104 
L 254.07723 197.64413 
L 254.621496 197.696955 
L 254.708578 192.401194 
L 254.801103 192.466898 
L 255.617502 192.532277 
L 255.889635 192.597333 
L 256.526426 192.662069 
L 256.798559 192.726486 
L 257.429907 192.790588 
L 257.614958 192.854377 
L 257.794565 198.059501 
L 258.790572 198.160818 
L 259.062705 198.211107 
L 260.151236 198.310957 
L 260.423369 198.36052 
L 261.511901 198.458935 
L 261.784034 198.507789 
L 262.872565 198.6048 
L 263.144698 198.65296 
L 263.329748 193.5962 
L 263.601881 193.656114 
L 264.23323 193.715745 
L 264.505362 193.775094 
L 265.142153 193.834165 
L 265.414286 193.892958 
L 266.051077 193.951475 
L 266.32321 194.00972 
L 266.954559 194.067692 
L 267.226691 194.125395 
L 267.863482 194.182831 
L 268.135615 194.24 
L 268.228141 194.24 
L 268.407748 199.213524 
L 269.675888 199.303945 
L 269.94802 199.348844 
L 271.036552 199.438027 
L 271.308685 199.482314 
L 271.673343 199.5264 
L 271.852951 194.688 
L 272.8544 194.797466 
L 273.126533 194.851828 
L 274.215064 194.95982 
L 274.487197 195.013453 
L 275.575729 195.12 
L 275.847862 195.172918 
L 276.936393 195.278049 
L 277.208526 195.330265 
L 278.297058 195.434009 
L 278.569191 195.485538 
L 278.928406 195.536842 
L 279.113456 200.205474 
L 280.109463 200.287022 
L 280.201988 200.327529 
L 280.381596 195.689412 
L 281.470127 195.790022 
L 281.74226 195.84 
L 282.830792 195.93931 
L 283.102925 195.988645 
L 284.191456 196.086681 
L 284.463589 196.135385 
L 285.552121 196.23217 
L 285.824254 196.280255 
L 286.912785 196.375814 
L 287.184918 196.423291 
L 288.27345 196.517647 
L 288.545583 196.564528 
L 288.72519 196.564528 
L 288.910241 192.157456 
L 289.541589 192.213244 
L 289.726639 196.704 
L 290.994779 196.796017 
L 291.266912 196.841739 
L 292.355443 196.932619 
L 292.627576 196.977778 
L 293.716108 197.067541 
L 293.98824 197.112147 
L 295.076772 197.200815 
L 295.348905 197.244878 
L 296.437437 197.33247 
L 296.709569 197.376 
L 297.253835 197.419355 
L 297.34636 193.127226 
L 297.433443 193.179042 
L 298.707025 193.282052 
L 298.979158 193.333248 
L 300.067689 193.435028 
L 300.247297 193.485614 
L 300.426905 197.718012 
L 301.428354 197.801822 
L 301.700487 197.843478 
L 302.789018 197.926299 
L 303.061151 197.967466 
L 304.149683 198.049315 
L 304.421816 198.09 
L 305.510347 198.170895 
L 305.78248 198.211107 
L 305.962088 194.077328 
L 306.234221 194.125395 
L 307.322752 194.220973 
L 307.594885 194.268486 
L 308.683417 194.362964 
L 308.95555 194.409931 
L 310.044081 194.503328 
L 310.316214 194.54976 
L 310.86048 194.596015 
L 311.040088 198.681746 
L 312.31367 198.75811 
L 312.672885 198.796075 
L 313.674334 198.871579 
L 314.03355 198.909118 
L 314.305683 198.946517 
L 314.490733 194.95982 
L 315.486739 195.049075 
L 315.758872 195.093453 
L 316.847404 195.181714 
L 317.119537 195.2256 
L 318.208068 195.312886 
L 318.480201 195.356287 
L 319.568733 195.442613 
L 319.840866 195.485538 
L 320.929397 195.57092 
L 321.20153 195.613377 
L 321.566188 195.65568 
L 321.745796 199.5264 
L 322.834328 199.631392 
L 323.013935 195.781671 
L 324.102467 195.864908 
L 324.3746 195.906302 
L 325.463131 195.988645 
L 325.827789 196.029596 
L 326.823796 196.111059 
L 327.188454 196.151573 
L 328.18446 196.23217 
L 328.549118 196.272255 
L 329.545125 196.352 
L 329.909783 196.391662 
L 330.905789 196.470568 
L 331.270447 196.509814 
L 331.362972 196.509814 
L 331.54258 192.827077 
L 332.179371 192.872545 
L 332.358979 196.626732 
L 333.627118 196.704 
L 333.991776 196.742433 
L 334.987783 196.818902 
L 335.352441 196.856938 
L 336.348447 196.932619 
L 336.713105 196.970264 
L 337.709112 197.045169 
L 338.07377 197.08243 
L 339.526959 197.193453 
L 339.886175 197.23021 
L 339.9787 193.621912 
L 340.071225 193.66465 
L 341.339364 193.749693 
L 341.611497 193.792 
L 342.700029 193.876188 
L 342.879637 193.91807 
L 343.064687 197.48406 
L 344.512434 197.59104 
L 344.877092 197.626463 
L 346.330282 197.732026 
L 346.689497 197.766982 
L 348.142687 197.871158 
L 348.41482 197.905655 
L 348.594427 194.409931 
L 348.959086 194.450046 
L 349.955092 194.529882 
L 350.31975 194.569605 
L 351.315756 194.648663 
L 351.680415 194.688 
L 352.676421 194.766291 
L 353.041079 194.805247 
L 353.49282 194.844077 
L 353.67787 198.310957 
L 355.39775 198.409846 
L 355.762408 198.442598 
L 356.943465 198.540229 
L 357.123072 195.150268 
L 358.119079 195.2256 
L 358.483737 195.263087 
L 359.479743 195.337706 
L 359.844401 195.374839 
L 361.297591 195.485538 
L 361.656807 195.522207 
L 363.109996 195.631526 
L 363.474654 195.667738 
L 364.198528 195.739826 
L 364.378135 199.045565 
L 365.466667 199.137533 
L 365.651717 195.847122 
L 367.19199 195.953428 
L 367.556648 195.988645 
L 369.004395 196.093651 
L 369.369053 196.12844 
L 370.822242 196.23217 
L 371.181458 196.266537 
L 372.634648 196.369015 
L 372.999306 196.402968 
L 373.995312 196.470568 
L 374.17492 193.307676 
L 374.811711 193.346015 
L 374.991318 196.57121 
L 376.716641 196.670951 
L 377.081299 196.704 
L 378.529046 196.80256 
L 378.893704 196.835219 
L 380.346894 196.932619 
L 380.706109 196.964894 
L 382.159299 197.061154 
L 382.523957 197.093053 
L 382.61104 193.980632 
L 382.703565 194.016981 
L 384.428887 194.125395 
L 384.788103 194.161324 
L 385.517419 194.232868 
L 385.697027 197.31376 
L 387.150216 197.406986 
L 387.509432 197.437882 
L 388.962621 197.53004 
L 389.327279 197.560584 
L 390.775026 197.651692 
L 391.047159 197.681889 
L 391.23221 194.653587 
L 391.591425 194.688 
L 393.044615 194.790653 
L 393.409273 194.824678 
L 394.85702 194.926177 
L 395.221678 194.95982 
L 396.130602 195.026824 
L 396.31021 198.037662 
L 398.035532 198.124747 
L 398.394748 198.153613 
L 398.487273 198.153613 
L 398.487273 198.153613 
" style="fill:none;stroke:#1f77b4;stroke-linecap:square;stroke-width:1.5;"/>
   </g>
   <g id="patch_3">
    <path d="M 57.6 307.584 
L 57.6 41.472 
" style="fill:none;stroke:#000000;stroke-linecap:square;stroke-linejoin:miter;stroke-width:0.8;"/>
   </g>
   <g id="patch_4">
    <path d="M 414.72 307.584 
L 414.72 41.472 
" style="fill:none;stroke:#000000;stroke-linecap:square;stroke-linejoin:miter;stroke-width:0.8;"/>
   </g>
   <g id="patch_5">
    <path d="M 57.6 307.584 
L 414.72 307.584 
" style="fill:none;stroke:#000000;stroke-linecap:square;stroke-linejoin:miter;stroke-width:0.8;"/>
   </g>
   <g id="patch_6">
    <path d="M 57.6 41.472 
L 414.72 41.472 
" style="fill:none;stroke:#000000;stroke-linecap:square;stroke-linejoin:miter;stroke-width:0.8;"/>
   </g>
  </g>
 </g>
 <defs>
  <clipPath id="pdf485bdc51">
   <rect height="266.112" width="357.12" x="57.6" y="41.472"/>
  </clipPath>
 </defs>
</svg>
