<?xml version="1.0" encoding="UTF-8" standalone="no"?>
<!-- Created with matplotlib (https://matplotlib.org/) -->

<svg
   height="345.6pt"
   version="1.1"
   viewBox="0 0 460.8 345.6"
   width="460.8pt"
   id="svg35506"
   sodipodi:docname="t_300.0.svg"
   inkscape:version="1.2.2 (732a01da63, 2022-12-09, custom)"
   xmlns:inkscape="http://www.inkscape.org/namespaces/inkscape"
   xmlns:sodipodi="http://sodipodi.sourceforge.net/DTD/sodipodi-0.dtd"
   xmlns:xlink="http://www.w3.org/1999/xlink"
   xmlns="http://www.w3.org/2000/svg"
   xmlns:svg="http://www.w3.org/2000/svg"
   xmlns:rdf="http://www.w3.org/1999/02/22-rdf-syntax-ns#"
   xmlns:cc="http://creativecommons.org/ns#"
   xmlns:dc="http://purl.org/dc/elements/1.1/">
  <sodipodi:namedview
     id="namedview35508"
     pagecolor="#ffffff"
     bordercolor="#666666"
     borderopacity="1.0"
     inkscape:showpageshadow="2"
     inkscape:pageopacity="0.0"
     inkscape:pagecheckerboard="0"
     inkscape:deskcolor="#d1d1d1"
     inkscape:document-units="pt"
     showgrid="false"
     inkscape:zoom="1.610243"
     inkscape:cx="307.40701"
     inkscape:cy="230.71052"
     inkscape:window-width="1853"
     inkscape:window-height="1018"
     inkscape:window-x="67"
     inkscape:window-y="34"
     inkscape:window-maximized="1"
     inkscape:current-layer="axes_1" />
  <metadata
     id="metadata35046">
    <rdf:RDF>
      <cc:Work>
        <dc:type
           rdf:resource="http://purl.org/dc/dcmitype/StillImage" />
        <dc:date>2022-08-27T14:34:35.201936</dc:date>
        <dc:format>image/svg+xml</dc:format>
        <dc:creator>
          <cc:Agent>
            <dc:title>Matplotlib v3.3.4, https://matplotlib.org/</dc:title>
          </cc:Agent>
        </dc:creator>
      </cc:Work>
    </rdf:RDF>
  </metadata>
  <defs
     id="defs35050">
    <style
       type="text/css"
       id="style35048">*{stroke-linecap:butt;stroke-linejoin:round;}</style>
    <path
       d="m 13.71875,72.90625 h 9.96875 l 12.5,-26.328125 22.609375,26.328125 H 70.3125 L 40.28125,38.09375 58.40625,0 H 48.484375 L 33.796875,30.71875 7.171875,0 H -4.296875 L 29.78125,39.203125 Z"
       id="path28451" />
    <path
       d="M 36.8125,72.90625 H 48 L 61.53125,0 H 51.21875 L 48.1875,18.703125 H 15.375 L 5.078125,0 H -5.328125 Z M 40.375,63.1875 19.921875,26.90625 H 46.6875 Z"
       id="path28453" />
    <path
       d="M 16.890625,72.90625 H 42.09375 q 10.25,0 15.328125,-3.8125 Q 62.5,65.28125 62.5,57.625 62.5,50.59375 58.125,45.484375 53.765625,40.375 46.6875,39.3125 q 6.046875,-1.375 9.078125,-5.234375 3.03125,-3.859375 3.03125,-10.296875 0,-10.984375 -8.140625,-17.390625 Q 42.53125,0 28.421875,0 H 2.6875 Z M 19.28125,34.8125 14.109375,8.109375 h 15.875 q 8.9375,0 13.765625,4.09375 4.828125,4.109375 4.828125,11.578125 0,5.765625 -3.203125,8.390625 Q 42.1875,34.8125 35.109375,34.8125 Z m 5.8125,29.984375 -4.296875,-21.96875 H 35.5 q 7.859375,0 12.28125,3.40625 4.421875,3.421875 4.421875,9.484375 0,4.734375 -2.984375,6.90625 -2.984375,2.171875 -9.515625,2.171875 z"
       id="path28463" />
    <path
       d="m 69.484375,67.28125 -2,-10.390625 q -4.6875,4.734375 -9.9375,7.03125 -5.25,2.296875 -11.359375,2.296875 -8.34375,0 -14.671875,-4.015625 -6.3125,-4 -10.90625,-12.203125 Q 17.671875,44.734375 16.125,38.84375 14.59375,32.953125 14.59375,27 14.59375,17.046875 19.75,11.8125 24.90625,6.59375 34.71875,6.59375 41.5,6.59375 47.75,8.765625 54,10.9375 59.90625,15.28125 L 57.625,3.609375 q -5.8125,-2.484375 -11.75,-3.75 -5.9375,-1.28125 -11.890625,-1.28125 -14.015625,0 -21.90625,7.609375 -7.875,7.625 -7.875,21.203125 0,8.6875 3,17.078125 3,8.40625 8.625,15.34375 5.953125,7.375 13.59375,10.890625 7.640625,3.515625 17.796875,3.515625 6.25,0 11.84375,-1.734375 Q 64.65625,70.75 69.484375,67.28125 Z"
       id="path28473" />
    <path
       d="m 30.078125,3.421875 q 7.234375,0 10.90625,5.703125 3.6875,5.71875 3.6875,16.859375 0,11.125 -3.6875,16.8125 -3.671875,5.6875 -10.90625,5.6875 -7.21875,0 -10.90625,-5.6875 -3.6875,-5.6875 -3.6875,-16.8125 0,-11.140625 3.703125,-16.859375 3.71875,-5.703125 10.890625,-5.703125 z m 0,-4.84375 q -11.328125,0 -18.21875,7.5 -6.875,7.5 -6.875,19.90625 0,12.390625 6.859375,19.859375 6.859375,7.484375 18.234375,7.484375 11.375,0 18.234375,-7.484375 6.859375,-7.46875 6.859375,-19.859375 0,-12.40625 -6.859375,-19.90625 -6.859375,-7.5 -18.234375,-7.5 z"
       id="path28475" />
    <path
       d="M 16.890625,72.90625 H 38.09375 q 16.890625,0 25.5,-7.15625 8.625,-7.15625 8.625,-21.265625 0,-9.328125 -3.28125,-17.953125 Q 65.671875,17.921875 59.90625,12.015625 54.109375,5.953125 45.171875,2.96875 36.234375,0 24.03125,0 H 2.6875 Z m 8.3125,-8.109375 -11,-56.6875 H 27.09375 q 16.5625,0 25.640625,9.515625 9.078125,9.53125 9.078125,26.859375 0,10.5 -5.859375,15.40625 -5.859375,4.90625 -18.359375,4.90625 z"
       id="path28477" />
  </defs>
  <g
     id="figure_1">
    <g
       id="patch_1">
      <path
         d="M 0 345.6  L 460.8 345.6  L 460.8 0  L 0 0  z "
         style="fill:#ffffff;"
         id="path35052" />
    </g>
    <g
       id="axes_1">
      <g
         id="patch_2">
        <path
           d="M 57.6 307.584  L 414.72 307.584  L 414.72 41.472  L 57.6 41.472  z "
           style="fill:#ffffff;"
           id="path35055" />
      </g>
      <g
         id="matplotlib.axis_1">
        <g
           id="xtick_1">
          <g
             id="line2d_1">
            <path
               clip-path="url(#p5484467233)"
               d="M 73.832727 307.584  L 73.832727 41.472  "
               style="fill:none;stroke:#b0b0b0;stroke-linecap:square;stroke-width:0.8;"
               id="path35058" />
          </g>
          <g
             id="line2d_2">
            <defs
               id="defs35062">
              <path
                 d="M 0 0  L 0 3.5  "
                 id="m97004c8833"
                 style="stroke:#000000;stroke-width:0.8;" />
            </defs>
            <g
               id="g35066">
              <use
                 style="stroke:#000000;stroke-width:0.8;"
                 x="73.832727"
                 xlink:href="#m97004c8833"
                 y="307.584"
                 id="use35064" />
            </g>
          </g>
          <g
             id="text_1">
            <!-- 0 -->
            <g
               transform="translate(70.651477 322.182437)scale(0.1 -0.1)"
               id="g35074">
              <defs
                 id="defs35070">
                <path
                   d="M 31.78125 3.421875  Q 39.265625 3.421875 42.96875 11.625  Q 46.6875 19.828125 46.6875 36.375  Q 46.6875 52.984375 42.96875 61.1875  Q 39.265625 69.390625 31.78125 69.390625  Q 24.3125 69.390625 20.59375 61.1875  Q 16.890625 52.984375 16.890625 36.375  Q 16.890625 19.828125 20.59375 11.625  Q 24.3125 3.421875 31.78125 3.421875  z M 31.78125 -1.421875  Q 19.921875 -1.421875 13.25 8.53125  Q 6.59375 18.5 6.59375 36.375  Q 6.59375 54.296875 13.25 64.25  Q 19.921875 74.21875 31.78125 74.21875  Q 43.703125 74.21875 50.34375 64.25  Q 56.984375 54.296875 56.984375 36.375  Q 56.984375 18.5 50.34375 8.53125  Q 43.703125 -1.421875 31.78125 -1.421875  z "
                   id="DejaVuSerif-48" />
              </defs>
              <use
                 xlink:href="#DejaVuSerif-48"
                 id="use35072" />
            </g>
          </g>
        </g>
        <g
           id="xtick_2">
          <g
             id="line2d_3">
            <path
               clip-path="url(#p5484467233)"
               d="M 114.414545 307.584  L 114.414545 41.472  "
               style="fill:none;stroke:#b0b0b0;stroke-linecap:square;stroke-width:0.8;"
               id="path35078" />
          </g>
          <g
             id="line2d_4">
            <g
               id="g35083">
              <use
                 style="stroke:#000000;stroke-width:0.8;"
                 x="114.414545"
                 xlink:href="#m97004c8833"
                 y="307.584"
                 id="use35081" />
            </g>
          </g>
          <g
             id="text_2">
            <!-- 25 -->
            <g
               transform="translate(108.052045 322.182437)scale(0.1 -0.1)"
               id="g35094">
              <defs
                 id="defs35088">
                <path
                   d="M 12.796875 55.515625  L 7.328125 55.515625  L 7.328125 68.5  Q 12.546875 71.296875 17.84375 72.75  Q 23.140625 74.21875 28.21875 74.21875  Q 39.59375 74.21875 46.1875 68.703125  Q 52.78125 63.1875 52.78125 53.71875  Q 52.78125 43.015625 37.84375 28.125  Q 36.671875 27 36.078125 26.421875  L 17.671875 8.015625  L 48.09375 8.015625  L 48.09375 17  L 53.8125 17  L 53.8125 0  L 6.78125 0  L 6.78125 5.328125  L 28.90625 27.390625  Q 36.234375 34.71875 39.359375 40.84375  Q 42.484375 46.96875 42.484375 53.71875  Q 42.484375 61.078125 38.640625 65.234375  Q 34.8125 69.390625 28.078125 69.390625  Q 21.09375 69.390625 17.28125 65.921875  Q 13.484375 62.453125 12.796875 55.515625  z "
                   id="DejaVuSerif-50" />
                <path
                   d="M 50.296875 72.90625  L 50.296875 64.890625  L 16.890625 64.890625  L 16.890625 44  Q 19.4375 45.75 22.828125 46.625  Q 26.21875 47.515625 30.421875 47.515625  Q 42.234375 47.515625 49.0625 40.96875  Q 55.90625 34.421875 55.90625 23.09375  Q 55.90625 11.53125 49 5.046875  Q 42.09375 -1.421875 29.59375 -1.421875  Q 24.5625 -1.421875 19.28125 -0.1875  Q 14.015625 1.03125 8.5 3.515625  L 8.5 17.671875  L 14.015625 17.671875  Q 14.453125 10.75 18.421875 7.078125  Q 22.40625 3.421875 29.59375 3.421875  Q 37.3125 3.421875 41.453125 8.5  Q 45.609375 13.578125 45.609375 23.09375  Q 45.609375 32.5625 41.484375 37.609375  Q 37.359375 42.671875 29.59375 42.671875  Q 25.203125 42.671875 21.84375 41.109375  Q 18.5 39.546875 15.921875 36.28125  L 11.71875 36.28125  L 11.71875 72.90625  z "
                   id="DejaVuSerif-53" />
              </defs>
              <use
                 xlink:href="#DejaVuSerif-50"
                 id="use35090" />
              <use
                 x="63.623047"
                 xlink:href="#DejaVuSerif-53"
                 id="use35092" />
            </g>
          </g>
        </g>
        <g
           id="xtick_3">
          <g
             id="line2d_5">
            <path
               clip-path="url(#p5484467233)"
               d="M 154.996364 307.584  L 154.996364 41.472  "
               style="fill:none;stroke:#b0b0b0;stroke-linecap:square;stroke-width:0.8;"
               id="path35098" />
          </g>
          <g
             id="line2d_6">
            <g
               id="g35103">
              <use
                 style="stroke:#000000;stroke-width:0.8;"
                 x="154.996364"
                 xlink:href="#m97004c8833"
                 y="307.584"
                 id="use35101" />
            </g>
          </g>
          <g
             id="text_3">
            <!-- 50 -->
            <g
               transform="translate(148.633864 322.182437)scale(0.1 -0.1)"
               id="g35110">
              <use
                 xlink:href="#DejaVuSerif-53"
                 id="use35106" />
              <use
                 x="63.623047"
                 xlink:href="#DejaVuSerif-48"
                 id="use35108" />
            </g>
          </g>
        </g>
        <g
           id="xtick_4">
          <g
             id="line2d_7">
            <path
               clip-path="url(#p5484467233)"
               d="M 195.578182 307.584  L 195.578182 41.472  "
               style="fill:none;stroke:#b0b0b0;stroke-linecap:square;stroke-width:0.8;"
               id="path35114" />
          </g>
          <g
             id="line2d_8">
            <g
               id="g35119">
              <use
                 style="stroke:#000000;stroke-width:0.8;"
                 x="195.578182"
                 xlink:href="#m97004c8833"
                 y="307.584"
                 id="use35117" />
            </g>
          </g>
          <g
             id="text_4">
            <!-- 75 -->
            <g
               transform="translate(189.215682 322.182437)scale(0.1 -0.1)"
               id="g35129">
              <defs
                 id="defs35123">
                <path
                   d="M 56.390625 67.921875  L 27.875 0  L 20.609375 0  L 47.796875 64.890625  L 14.109375 64.890625  L 14.109375 55.90625  L 8.40625 55.90625  L 8.40625 72.90625  L 56.390625 72.90625  z "
                   id="DejaVuSerif-55" />
              </defs>
              <use
                 xlink:href="#DejaVuSerif-55"
                 id="use35125" />
              <use
                 x="63.623047"
                 xlink:href="#DejaVuSerif-53"
                 id="use35127" />
            </g>
          </g>
        </g>
        <g
           id="xtick_5">
          <g
             id="line2d_9">
            <path
               clip-path="url(#p5484467233)"
               d="M 236.16 307.584  L 236.16 41.472  "
               style="fill:none;stroke:#b0b0b0;stroke-linecap:square;stroke-width:0.8;"
               id="path35133" />
          </g>
          <g
             id="line2d_10">
            <g
               id="g35138">
              <use
                 style="stroke:#000000;stroke-width:0.8;"
                 x="236.16"
                 xlink:href="#m97004c8833"
                 y="307.584"
                 id="use35136" />
            </g>
          </g>
          <g
             id="text_5">
            <!-- 100 -->
            <g
               transform="translate(226.61625 322.182437)scale(0.1 -0.1)"
               id="g35150">
              <defs
                 id="defs35142">
                <path
                   d="M 14.203125 0  L 14.203125 5.171875  L 26.90625 5.171875  L 26.90625 65.828125  L 12.203125 56.296875  L 12.203125 62.703125  L 29.984375 74.21875  L 36.71875 74.21875  L 36.71875 5.171875  L 49.421875 5.171875  L 49.421875 0  z "
                   id="DejaVuSerif-49" />
              </defs>
              <use
                 xlink:href="#DejaVuSerif-49"
                 id="use35144" />
              <use
                 x="63.623047"
                 xlink:href="#DejaVuSerif-48"
                 id="use35146" />
              <use
                 x="127.246094"
                 xlink:href="#DejaVuSerif-48"
                 id="use35148" />
            </g>
          </g>
        </g>
        <g
           id="xtick_6">
          <g
             id="line2d_11">
            <path
               clip-path="url(#p5484467233)"
               d="M 276.741818 307.584  L 276.741818 41.472  "
               style="fill:none;stroke:#b0b0b0;stroke-linecap:square;stroke-width:0.8;"
               id="path35154" />
          </g>
          <g
             id="line2d_12">
            <g
               id="g35159">
              <use
                 style="stroke:#000000;stroke-width:0.8;"
                 x="276.741818"
                 xlink:href="#m97004c8833"
                 y="307.584"
                 id="use35157" />
            </g>
          </g>
          <g
             id="text_6">
            <!-- 125 -->
            <g
               transform="translate(267.198068 322.182437)scale(0.1 -0.1)"
               id="g35168">
              <use
                 xlink:href="#DejaVuSerif-49"
                 id="use35162" />
              <use
                 x="63.623047"
                 xlink:href="#DejaVuSerif-50"
                 id="use35164" />
              <use
                 x="127.246094"
                 xlink:href="#DejaVuSerif-53"
                 id="use35166" />
            </g>
          </g>
        </g>
        <g
           id="xtick_7">
          <g
             id="line2d_13">
            <path
               clip-path="url(#p5484467233)"
               d="M 317.323636 307.584  L 317.323636 41.472  "
               style="fill:none;stroke:#b0b0b0;stroke-linecap:square;stroke-width:0.8;"
               id="path35172" />
          </g>
          <g
             id="line2d_14">
            <g
               id="g35177">
              <use
                 style="stroke:#000000;stroke-width:0.8;"
                 x="317.323636"
                 xlink:href="#m97004c8833"
                 y="307.584"
                 id="use35175" />
            </g>
          </g>
          <g
             id="text_7">
            <!-- 150 -->
            <g
               transform="translate(307.779886 322.182437)scale(0.1 -0.1)"
               id="g35186">
              <use
                 xlink:href="#DejaVuSerif-49"
                 id="use35180" />
              <use
                 x="63.623047"
                 xlink:href="#DejaVuSerif-53"
                 id="use35182" />
              <use
                 x="127.246094"
                 xlink:href="#DejaVuSerif-48"
                 id="use35184" />
            </g>
          </g>
        </g>
        <g
           id="xtick_8">
          <g
             id="line2d_15">
            <path
               clip-path="url(#p5484467233)"
               d="M 357.905455 307.584  L 357.905455 41.472  "
               style="fill:none;stroke:#b0b0b0;stroke-linecap:square;stroke-width:0.8;"
               id="path35190" />
          </g>
          <g
             id="line2d_16">
            <g
               id="g35195">
              <use
                 style="stroke:#000000;stroke-width:0.8;"
                 x="357.905455"
                 xlink:href="#m97004c8833"
                 y="307.584"
                 id="use35193" />
            </g>
          </g>
          <g
             id="text_8">
            <!-- 175 -->
            <g
               transform="translate(348.361705 322.182437)scale(0.1 -0.1)"
               id="g35204">
              <use
                 xlink:href="#DejaVuSerif-49"
                 id="use35198" />
              <use
                 x="63.623047"
                 xlink:href="#DejaVuSerif-55"
                 id="use35200" />
              <use
                 x="127.246094"
                 xlink:href="#DejaVuSerif-53"
                 id="use35202" />
            </g>
          </g>
        </g>
        <g
           id="xtick_9">
          <g
             id="line2d_17">
            <path
               clip-path="url(#p5484467233)"
               d="M 398.487273 307.584  L 398.487273 41.472  "
               style="fill:none;stroke:#b0b0b0;stroke-linecap:square;stroke-width:0.8;"
               id="path35208" />
          </g>
          <g
             id="line2d_18">
            <g
               id="g35213">
              <use
                 style="stroke:#000000;stroke-width:0.8;"
                 x="398.487273"
                 xlink:href="#m97004c8833"
                 y="307.584"
                 id="use35211" />
            </g>
          </g>
          <g
             id="text_9">
            <!-- 200 -->
            <g
               transform="translate(388.943523 322.182437)scale(0.1 -0.1)"
               id="g35222">
              <use
                 xlink:href="#DejaVuSerif-50"
                 id="use35216" />
              <use
                 x="63.623047"
                 xlink:href="#DejaVuSerif-48"
                 id="use35218" />
              <use
                 x="127.246094"
                 xlink:href="#DejaVuSerif-48"
                 id="use35220" />
            </g>
          </g>
        </g>
        <g
           id="text_10">
          <!-- Space -->
          <g
             transform="translate(210.037109 341.179469)scale(0.17 -0.17)"
             id="g35243">
            <defs
               id="defs35231">
              <path
                 d="M 9.28125 3.515625  L 9.28125 20.125  L 14.890625 20.0625  Q 15.140625 11.765625 19.703125 7.78125  Q 24.265625 3.8125 33.59375 3.8125  Q 42.28125 3.8125 46.84375 7.25  Q 51.421875 10.6875 51.421875 17.28125  Q 51.421875 22.5625 48.65625 25.390625  Q 45.90625 28.21875 37.015625 30.90625  L 27.390625 33.796875  Q 16.9375 36.96875 12.671875 41.703125  Q 8.40625 46.4375 8.40625 54.6875  Q 8.40625 63.96875 14.984375 69.09375  Q 21.578125 74.21875 33.5 74.21875  Q 38.578125 74.21875 44.625 73.109375  Q 50.6875 72.015625 57.515625 69.921875  L 57.515625 54.390625  L 52 54.390625  Q 51.171875 62.109375 46.84375 65.546875  Q 42.53125 69 33.6875 69  Q 25.984375 69 21.953125 65.84375  Q 17.921875 62.703125 17.921875 56.6875  Q 17.921875 51.46875 20.9375 48.484375  Q 23.96875 45.515625 33.796875 42.578125  L 42.828125 39.890625  Q 52.734375 36.921875 56.953125 32.296875  Q 61.1875 27.6875 61.1875 19.921875  Q 61.1875 9.328125 54.390625 3.953125  Q 47.609375 -1.421875 34.1875 -1.421875  Q 28.171875 -1.421875 21.9375 -0.1875  Q 15.71875 1.03125 9.28125 3.515625  z "
                 id="DejaVuSerif-83" />
              <path
                 d="M 20.515625 28.515625  L 20.515625 23.390625  Q 20.515625 14.015625 24.09375 9.109375  Q 27.6875 4.203125 34.515625 4.203125  Q 41.40625 4.203125 44.9375 9.71875  Q 48.484375 15.234375 48.484375 25.984375  Q 48.484375 36.765625 44.9375 42.234375  Q 41.40625 47.703125 34.515625 47.703125  Q 27.6875 47.703125 24.09375 42.765625  Q 20.515625 37.84375 20.515625 28.515625  z M 11.53125 46.6875  L 2.875 46.6875  L 2.875 51.90625  L 20.515625 51.90625  L 20.515625 43.796875  Q 23.140625 48.6875 27.21875 51  Q 31.296875 53.328125 37.3125 53.328125  Q 46.875 53.328125 52.921875 45.75  Q 58.984375 38.1875 58.984375 25.984375  Q 58.984375 13.765625 52.921875 6.171875  Q 46.875 -1.421875 37.3125 -1.421875  Q 31.296875 -1.421875 27.21875 0.890625  Q 23.140625 3.21875 20.515625 8.109375  L 20.515625 -15.578125  L 29 -15.578125  L 29 -20.796875  L 2.875 -20.796875  L 2.875 -15.578125  L 11.53125 -15.578125  z "
                 id="DejaVuSerif-112" />
              <path
                 d="M 39.796875 16.3125  L 39.796875 27.296875  L 28.21875 27.296875  Q 21.53125 27.296875 18.25 24.40625  Q 14.984375 21.53125 14.984375 15.578125  Q 14.984375 10.15625 18.296875 6.984375  Q 21.625 3.8125 27.296875 3.8125  Q 32.90625 3.8125 36.34375 7.28125  Q 39.796875 10.75 39.796875 16.3125  z M 48.78125 32.421875  L 48.78125 5.171875  L 56.78125 5.171875  L 56.78125 0  L 39.796875 0  L 39.796875 5.609375  Q 36.8125 2 32.90625 0.28125  Q 29 -1.421875 23.78125 -1.421875  Q 15.140625 -1.421875 10.0625 3.171875  Q 4.984375 7.765625 4.984375 15.578125  Q 4.984375 23.640625 10.796875 28.078125  Q 16.609375 32.515625 27.203125 32.515625  L 39.796875 32.515625  L 39.796875 36.078125  Q 39.796875 42 36.203125 45.234375  Q 32.625 48.484375 26.125 48.484375  Q 20.75 48.484375 17.578125 46.046875  Q 14.40625 43.609375 13.625 38.8125  L 8.984375 38.8125  L 8.984375 49.3125  Q 13.671875 51.3125 18.09375 52.3125  Q 22.515625 53.328125 26.703125 53.328125  Q 37.5 53.328125 43.140625 47.96875  Q 48.78125 42.625 48.78125 32.421875  z "
                 id="DejaVuSerif-97" />
              <path
                 d="M 51.421875 15.578125  Q 49.515625 7.28125 44.09375 2.921875  Q 38.671875 -1.421875 30.078125 -1.421875  Q 18.75 -1.421875 11.859375 6.078125  Q 4.984375 13.578125 4.984375 25.984375  Q 4.984375 38.421875 11.859375 45.875  Q 18.75 53.328125 30.078125 53.328125  Q 35.015625 53.328125 39.890625 52.171875  Q 44.78125 51.03125 49.703125 48.6875  L 49.703125 35.40625  L 44.484375 35.40625  Q 43.453125 42.234375 40.015625 45.359375  Q 36.578125 48.484375 30.171875 48.484375  Q 22.90625 48.484375 19.1875 42.84375  Q 15.484375 37.203125 15.484375 25.984375  Q 15.484375 14.75 19.171875 9.078125  Q 22.859375 3.421875 30.171875 3.421875  Q 35.984375 3.421875 39.453125 6.4375  Q 42.921875 9.46875 44.1875 15.578125  z "
                 id="DejaVuSerif-99" />
              <path
                 d="M 54.203125 25  L 15.484375 25  L 15.484375 24.609375  Q 15.484375 14.109375 19.4375 8.765625  Q 23.390625 3.421875 31.109375 3.421875  Q 37.015625 3.421875 40.796875 6.515625  Q 44.578125 9.625 46.09375 15.71875  L 53.328125 15.71875  Q 51.171875 7.171875 45.375 2.875  Q 39.59375 -1.421875 30.171875 -1.421875  Q 18.796875 -1.421875 11.890625 6.078125  Q 4.984375 13.578125 4.984375 25.984375  Q 4.984375 38.28125 11.765625 45.796875  Q 18.5625 53.328125 29.59375 53.328125  Q 41.359375 53.328125 47.65625 46.0625  Q 53.953125 38.8125 54.203125 25  z M 43.609375 30.171875  Q 43.3125 39.265625 39.765625 43.875  Q 36.234375 48.484375 29.59375 48.484375  Q 23.390625 48.484375 19.828125 43.84375  Q 16.265625 39.203125 15.484375 30.171875  z "
                 id="DejaVuSerif-101" />
            </defs>
            <use
               xlink:href="#DejaVuSerif-83"
               id="use35233" />
            <use
               x="68.505859"
               xlink:href="#DejaVuSerif-112"
               id="use35235" />
            <use
               x="132.519531"
               xlink:href="#DejaVuSerif-97"
               id="use35237" />
            <use
               x="192.138672"
               xlink:href="#DejaVuSerif-99"
               id="use35239" />
            <use
               x="248.144531"
               xlink:href="#DejaVuSerif-101"
               id="use35241" />
          </g>
        </g>
      </g>
      <g
         id="matplotlib.axis_2">
        <g
           id="ytick_1">
          <g
             id="line2d_19">
            <path
               clip-path="url(#p5484467233)"
               d="M 57.6 302.466462  L 414.72 302.466462  "
               style="fill:none;stroke:#b0b0b0;stroke-linecap:square;stroke-width:0.8;"
               id="path35247" />
          </g>
          <g
             id="line2d_20">
            <defs
               id="defs35251">
              <path
                 d="M 0 0  L -3.5 0  "
                 id="m544248660b"
                 style="stroke:#000000;stroke-width:0.8;" />
            </defs>
            <g
               id="g35255">
              <use
                 style="stroke:#000000;stroke-width:0.8;"
                 x="57.6"
                 xlink:href="#m544248660b"
                 y="302.466462"
                 id="use35253" />
            </g>
          </g>
          <g
             id="text_11">
            <!-- 0.0 -->
            <g
               transform="translate(34.696875 306.26568)scale(0.1 -0.1)"
               id="g35267">
              <defs
                 id="defs35259">
                <path
                   d="M 9.421875 5.078125  Q 9.421875 7.8125 11.28125 9.71875  Q 13.140625 11.625 15.921875 11.625  Q 18.609375 11.625 20.5 9.71875  Q 22.40625 7.8125 22.40625 5.078125  Q 22.40625 2.390625 20.5 0.484375  Q 18.609375 -1.421875 15.921875 -1.421875  Q 13.140625 -1.421875 11.28125 0.453125  Q 9.421875 2.34375 9.421875 5.078125  z "
                   id="DejaVuSerif-46" />
              </defs>
              <use
                 xlink:href="#DejaVuSerif-48"
                 id="use35261" />
              <use
                 x="63.623047"
                 xlink:href="#DejaVuSerif-46"
                 id="use35263" />
              <use
                 x="95.410156"
                 xlink:href="#DejaVuSerif-48"
                 id="use35265" />
            </g>
          </g>
        </g>
        <g
           id="ytick_2">
          <g
             id="line2d_21">
            <path
               clip-path="url(#p5484467233)"
               d="M 57.6 251.291077  L 414.72 251.291077  "
               style="fill:none;stroke:#b0b0b0;stroke-linecap:square;stroke-width:0.8;"
               id="path35271" />
          </g>
          <g
             id="line2d_22">
            <g
               id="g35276">
              <use
                 style="stroke:#000000;stroke-width:0.8;"
                 x="57.6"
                 xlink:href="#m544248660b"
                 y="251.291077"
                 id="use35274" />
            </g>
          </g>
          <g
             id="text_12">
            <!-- 0.2 -->
            <g
               transform="translate(34.696875 255.090296)scale(0.1 -0.1)"
               id="g35285">
              <use
                 xlink:href="#DejaVuSerif-48"
                 id="use35279" />
              <use
                 x="63.623047"
                 xlink:href="#DejaVuSerif-46"
                 id="use35281" />
              <use
                 x="95.410156"
                 xlink:href="#DejaVuSerif-50"
                 id="use35283" />
            </g>
          </g>
        </g>
        <g
           id="ytick_3">
          <g
             id="line2d_23">
            <path
               clip-path="url(#p5484467233)"
               d="M 57.6 200.115692  L 414.72 200.115692  "
               style="fill:none;stroke:#b0b0b0;stroke-linecap:square;stroke-width:0.8;"
               id="path35289" />
          </g>
          <g
             id="line2d_24">
            <g
               id="g35294">
              <use
                 style="stroke:#000000;stroke-width:0.8;"
                 x="57.6"
                 xlink:href="#m544248660b"
                 y="200.115692"
                 id="use35292" />
            </g>
          </g>
          <g
             id="text_13">
            <!-- 0.4 -->
            <g
               transform="translate(34.696875 203.914911)scale(0.1 -0.1)"
               id="g35306">
              <defs
                 id="defs35298">
                <path
                   d="M 34.90625 24.703125  L 34.90625 63.484375  L 10.015625 24.703125  z M 56.390625 0  L 23.1875 0  L 23.1875 5.171875  L 34.90625 5.171875  L 34.90625 19.484375  L 3.078125 19.484375  L 3.078125 24.8125  L 35.015625 74.21875  L 44.671875 74.21875  L 44.671875 24.703125  L 58.59375 24.703125  L 58.59375 19.484375  L 44.671875 19.484375  L 44.671875 5.171875  L 56.390625 5.171875  z "
                   id="DejaVuSerif-52" />
              </defs>
              <use
                 xlink:href="#DejaVuSerif-48"
                 id="use35300" />
              <use
                 x="63.623047"
                 xlink:href="#DejaVuSerif-46"
                 id="use35302" />
              <use
                 x="95.410156"
                 xlink:href="#DejaVuSerif-52"
                 id="use35304" />
            </g>
          </g>
        </g>
        <g
           id="ytick_4">
          <g
             id="line2d_25">
            <path
               clip-path="url(#p5484467233)"
               d="M 57.6 148.940308  L 414.72 148.940308  "
               style="fill:none;stroke:#b0b0b0;stroke-linecap:square;stroke-width:0.8;"
               id="path35310" />
          </g>
          <g
             id="line2d_26">
            <g
               id="g35315">
              <use
                 style="stroke:#000000;stroke-width:0.8;"
                 x="57.6"
                 xlink:href="#m544248660b"
                 y="148.940308"
                 id="use35313" />
            </g>
          </g>
          <g
             id="text_14">
            <!-- 0.6 -->
            <g
               transform="translate(34.696875 152.739526)scale(0.1 -0.1)"
               id="g35327">
              <defs
                 id="defs35319">
                <path
                   d="M 32.71875 3.421875  Q 39.59375 3.421875 43.296875 8.46875  Q 47.015625 13.53125 47.015625 23  Q 47.015625 32.46875 43.296875 37.515625  Q 39.59375 42.578125 32.71875 42.578125  Q 25.734375 42.578125 22.0625 37.6875  Q 18.40625 32.8125 18.40625 23.578125  Q 18.40625 13.875 22.109375 8.640625  Q 25.828125 3.421875 32.71875 3.421875  z M 16.796875 40.140625  Q 20.125 43.796875 24.3125 45.59375  Q 28.515625 47.40625 33.796875 47.40625  Q 44.671875 47.40625 51 40.859375  Q 57.328125 34.328125 57.328125 23  Q 57.328125 11.921875 50.515625 5.25  Q 43.703125 -1.421875 32.328125 -1.421875  Q 19.96875 -1.421875 13.328125 7.78125  Q 6.6875 17 6.6875 34.078125  Q 6.6875 53.21875 14.546875 63.71875  Q 22.40625 74.21875 36.71875 74.21875  Q 40.578125 74.21875 44.828125 73.484375  Q 49.078125 72.75 53.515625 71.296875  L 53.515625 59.28125  L 48 59.28125  Q 47.40625 64.203125 44.234375 66.796875  Q 41.0625 69.390625 35.6875 69.390625  Q 26.21875 69.390625 21.578125 62.203125  Q 16.9375 55.03125 16.796875 40.140625  z "
                   id="DejaVuSerif-54" />
              </defs>
              <use
                 xlink:href="#DejaVuSerif-48"
                 id="use35321" />
              <use
                 x="63.623047"
                 xlink:href="#DejaVuSerif-46"
                 id="use35323" />
              <use
                 x="95.410156"
                 xlink:href="#DejaVuSerif-54"
                 id="use35325" />
            </g>
          </g>
        </g>
        <g
           id="ytick_5">
          <g
             id="line2d_27">
            <path
               clip-path="url(#p5484467233)"
               d="M 57.6 97.764923  L 414.72 97.764923  "
               style="fill:none;stroke:#b0b0b0;stroke-linecap:square;stroke-width:0.8;"
               id="path35331" />
          </g>
          <g
             id="line2d_28">
            <g
               id="g35336">
              <use
                 style="stroke:#000000;stroke-width:0.8;"
                 x="57.6"
                 xlink:href="#m544248660b"
                 y="97.764923"
                 id="use35334" />
            </g>
          </g>
          <g
             id="text_15">
            <!-- 0.8 -->
            <g
               transform="translate(34.696875 101.564142)scale(0.1 -0.1)"
               id="g35348">
              <defs
                 id="defs35340">
                <path
                   d="M 46.578125 19.921875  Q 46.578125 27.734375 42.6875 32.046875  Q 38.8125 36.375 31.78125 36.375  Q 24.75 36.375 20.875 32.046875  Q 17 27.734375 17 19.921875  Q 17 12.0625 20.875 7.734375  Q 24.75 3.421875 31.78125 3.421875  Q 38.8125 3.421875 42.6875 7.734375  Q 46.578125 12.0625 46.578125 19.921875  z M 44.578125 55.328125  Q 44.578125 61.96875 41.203125 65.671875  Q 37.84375 69.390625 31.78125 69.390625  Q 25.78125 69.390625 22.390625 65.671875  Q 19 61.96875 19 55.328125  Q 19 48.640625 22.390625 44.921875  Q 25.78125 41.21875 31.78125 41.21875  Q 37.84375 41.21875 41.203125 44.921875  Q 44.578125 48.640625 44.578125 55.328125  z M 39.3125 38.8125  Q 47.609375 37.703125 52.25 32.6875  Q 56.890625 27.6875 56.890625 19.921875  Q 56.890625 9.671875 50.390625 4.125  Q 43.890625 -1.421875 31.78125 -1.421875  Q 19.734375 -1.421875 13.203125 4.125  Q 6.6875 9.671875 6.6875 19.921875  Q 6.6875 27.6875 11.328125 32.6875  Q 15.96875 37.703125 24.3125 38.8125  Q 16.9375 40.140625 13 44.40625  Q 9.078125 48.6875 9.078125 55.328125  Q 9.078125 64.109375 15.125 69.15625  Q 21.1875 74.21875 31.78125 74.21875  Q 42.390625 74.21875 48.4375 69.15625  Q 54.5 64.109375 54.5 55.328125  Q 54.5 48.6875 50.5625 44.40625  Q 46.625 40.140625 39.3125 38.8125  z "
                   id="DejaVuSerif-56" />
              </defs>
              <use
                 xlink:href="#DejaVuSerif-48"
                 id="use35342" />
              <use
                 x="63.623047"
                 xlink:href="#DejaVuSerif-46"
                 id="use35344" />
              <use
                 x="95.410156"
                 xlink:href="#DejaVuSerif-56"
                 id="use35346" />
            </g>
          </g>
        </g>
        <g
           id="ytick_6">
          <g
             id="line2d_29">
            <path
               clip-path="url(#p5484467233)"
               d="M 57.6 46.589538  L 414.72 46.589538  "
               style="fill:none;stroke:#b0b0b0;stroke-linecap:square;stroke-width:0.8;"
               id="path35352" />
          </g>
          <g
             id="line2d_30">
            <g
               id="g35357">
              <use
                 style="stroke:#000000;stroke-width:0.8;"
                 x="57.6"
                 xlink:href="#m544248660b"
                 y="46.589538"
                 id="use35355" />
            </g>
          </g>
          <g
             id="text_16">
            <!-- 1.0 -->
            <g
               transform="translate(34.696875 50.388757)scale(0.1 -0.1)"
               id="g35366">
              <use
                 xlink:href="#DejaVuSerif-49"
                 id="use35360" />
              <use
                 x="63.623047"
                 xlink:href="#DejaVuSerif-46"
                 id="use35362" />
              <use
                 x="95.410156"
                 xlink:href="#DejaVuSerif-48"
                 id="use35364" />
            </g>
          </g>
        </g>
        <g
           id="text_17">
          <!-- Frequency -->
          <g
             transform="translate(26.919687 220.503703)rotate(-90)scale(0.17 -0.17)"
             id="g35396">
            <defs
               id="defs35376">
              <path
                 d="M 5.515625 0  L 5.515625 5.171875  L 14.796875 5.171875  L 14.796875 67.671875  L 5.515625 67.671875  L 5.515625 72.90625  L 65.1875 72.90625  L 65.1875 56.6875  L 59.1875 56.6875  L 59.1875 66.890625  L 24.703125 66.890625  L 24.703125 42.484375  L 49.609375 42.484375  L 49.609375 51.609375  L 55.609375 51.609375  L 55.609375 27.390625  L 49.609375 27.390625  L 49.609375 36.53125  L 24.703125 36.53125  L 24.703125 5.171875  L 36.375 5.171875  L 36.375 0  z "
                 id="DejaVuSerif-70" />
              <path
                 d="M 47.796875 52  L 47.796875 39.015625  L 42.625 39.015625  Q 42.390625 42.875 40.484375 44.78125  Q 38.578125 46.6875 34.90625 46.6875  Q 28.265625 46.6875 24.71875 42.09375  Q 21.1875 37.5 21.1875 28.90625  L 21.1875 5.171875  L 31.59375 5.171875  L 31.59375 0  L 4.109375 0  L 4.109375 5.171875  L 12.203125 5.171875  L 12.203125 46.78125  L 3.609375 46.78125  L 3.609375 51.90625  L 21.1875 51.90625  L 21.1875 42.671875  Q 23.828125 48.09375 27.96875 50.703125  Q 32.125 53.328125 38.09375 53.328125  Q 40.28125 53.328125 42.703125 52.984375  Q 45.125 52.640625 47.796875 52  z "
                 id="DejaVuSerif-114" />
              <path
                 d="M 52.484375 46.6875  L 52.484375 -15.578125  L 61.078125 -15.578125  L 61.078125 -20.796875  L 35.015625 -20.796875  L 35.015625 -15.578125  L 43.5 -15.578125  L 43.5 8.109375  Q 40.875 3.21875 36.796875 0.890625  Q 32.71875 -1.421875 26.703125 -1.421875  Q 17.140625 -1.421875 11.0625 6.171875  Q 4.984375 13.765625 4.984375 25.984375  Q 4.984375 38.1875 11.03125 45.75  Q 17.09375 53.328125 26.703125 53.328125  Q 32.71875 53.328125 36.796875 51  Q 40.875 48.6875 43.5 43.796875  L 43.5 51.90625  L 61.078125 51.90625  L 61.078125 46.6875  z M 43.5 28.515625  Q 43.5 37.84375 39.90625 42.765625  Q 36.328125 47.703125 29.5 47.703125  Q 22.5625 47.703125 19.015625 42.234375  Q 15.484375 36.765625 15.484375 25.984375  Q 15.484375 15.234375 19.015625 9.71875  Q 22.5625 4.203125 29.5 4.203125  Q 36.328125 4.203125 39.90625 9.109375  Q 43.5 14.015625 43.5 23.390625  z "
                 id="DejaVuSerif-113" />
              <path
                 d="M 35.40625 51.90625  L 52.203125 51.90625  L 52.203125 5.171875  L 60.6875 5.171875  L 60.6875 0  L 43.21875 0  L 43.21875 9.1875  Q 40.71875 4 36.765625 1.28125  Q 32.8125 -1.421875 27.59375 -1.421875  Q 18.953125 -1.421875 14.875 3.484375  Q 10.796875 8.40625 10.796875 18.890625  L 10.796875 46.6875  L 2.6875 46.6875  L 2.6875 51.90625  L 19.828125 51.90625  L 19.828125 21.6875  Q 19.828125 12.203125 22.140625 8.6875  Q 24.46875 5.171875 30.421875 5.171875  Q 36.671875 5.171875 39.9375 9.765625  Q 43.21875 14.359375 43.21875 23.09375  L 43.21875 46.6875  L 35.40625 46.6875  z "
                 id="DejaVuSerif-117" />
              <path
                 d="M 4.109375 0  L 4.109375 5.171875  L 12.203125 5.171875  L 12.203125 46.6875  L 3.609375 46.6875  L 3.609375 51.90625  L 21.1875 51.90625  L 21.1875 42.671875  Q 23.6875 47.953125 27.65625 50.640625  Q 31.640625 53.328125 36.921875 53.328125  Q 45.515625 53.328125 49.5625 48.390625  Q 53.609375 43.453125 53.609375 33.015625  L 53.609375 5.171875  L 61.625 5.171875  L 61.625 0  L 36.8125 0  L 36.8125 5.171875  L 44.578125 5.171875  L 44.578125 30.171875  Q 44.578125 39.703125 42.234375 43.234375  Q 39.890625 46.78125 33.984375 46.78125  Q 27.734375 46.78125 24.453125 42.203125  Q 21.1875 37.640625 21.1875 28.90625  L 21.1875 5.171875  L 29 5.171875  L 29 0  z "
                 id="DejaVuSerif-110" />
              <path
                 d="M 21.578125 -9.515625  L 25 -0.875  L 5.609375 46.6875  L -0.296875 46.6875  L -0.296875 51.90625  L 23.578125 51.90625  L 23.578125 46.6875  L 15.28125 46.6875  L 29.890625 10.984375  L 44.484375 46.6875  L 36.71875 46.6875  L 36.71875 51.90625  L 56.203125 51.90625  L 56.203125 46.6875  L 50.390625 46.6875  L 26.609375 -11.71875  Q 24.171875 -17.78125 21.1875 -20  Q 18.21875 -22.21875 12.796875 -22.21875  Q 10.5 -22.21875 8.078125 -21.828125  Q 5.671875 -21.4375 3.21875 -20.703125  L 3.21875 -10.796875  L 7.8125 -10.796875  Q 8.109375 -14.109375 9.5 -15.546875  Q 10.890625 -17 13.8125 -17  Q 16.5 -17 18.140625 -15.5  Q 19.78125 -14.015625 21.578125 -9.515625  z "
                 id="DejaVuSerif-121" />
            </defs>
            <use
               xlink:href="#DejaVuSerif-70"
               id="use35378" />
            <use
               x="69.384766"
               xlink:href="#DejaVuSerif-114"
               id="use35380" />
            <use
               x="117.1875"
               xlink:href="#DejaVuSerif-101"
               id="use35382" />
            <use
               x="176.367188"
               xlink:href="#DejaVuSerif-113"
               id="use35384" />
            <use
               x="240.380859"
               xlink:href="#DejaVuSerif-117"
               id="use35386" />
            <use
               x="304.785156"
               xlink:href="#DejaVuSerif-101"
               id="use35388" />
            <use
               x="363.964844"
               xlink:href="#DejaVuSerif-110"
               id="use35390" />
            <use
               x="428.369141"
               xlink:href="#DejaVuSerif-99"
               id="use35392" />
            <use
               x="484.375"
               xlink:href="#DejaVuSerif-121"
               id="use35394" />
          </g>
        </g>
      </g>
      <g
         id="line2d_31">
        <path
           clip-path="url(#p5484467233)"
           d="M 73.832727 302.466462  L 199.474036 302.357225  L 207.103418 302.110573  L 212.622545 301.716119  L 218.304 301.077738  L 230.153891 299.653037  L 234.3744 299.427056  L 238.432582 299.436162  L 242.653091 299.6795  L 247.522909 300.197844  L 261.807709 301.88138  L 267.489164 302.20649  L 274.956218 302.386718  L 289.241018 302.458423  L 384.689455 302.466462  L 398.487273 302.466462  L 398.487273 302.466462  "
           style="fill:none;stroke:#9acd32;stroke-linecap:square;stroke-width:3;"
           id="path35400" />
      </g>
      <g
         id="line2d_32">
        <path
           clip-path="url(#p5484467233)"
           d="M 73.832727 302.466462  L 158.242909 302.364183  L 159.3792 302.14959  L 160.190836 301.770319  L 160.840145 301.218159  L 161.651782 300.149479  L 163.112727 298.060944  L 163.762036 297.516175  L 164.411345 297.226349  L 165.222982 297.11245  L 166.359273 297.212497  L 168.469527 297.688892  L 172.365382 298.561776  L 174.962618 298.907681  L 177.2352 299.000048  L 179.345455 298.872856  L 181.293382 298.532229  L 183.078982 297.987031  L 184.702255 297.252965  L 186.1632 296.355971  L 187.624145 295.189536  L 188.922764 293.884469  L 190.221382 292.282935  L 191.52 290.336943  L 192.818618 287.992968  L 194.117236 285.192275  L 195.415855 281.871634  L 196.714473 277.964518  L 198.013091 273.402928  L 199.474036 267.405644  L 200.934982 260.407235  L 202.395927 252.33429  L 204.0192 242.045139  L 205.642473 230.352162  L 207.428073 215.934161  L 209.538327 197.058412  L 212.460218 168.69851  L 217.005382 124.52705  L 219.115636 106.300237  L 220.901236 92.820164  L 222.362182 83.309173  L 223.823127 75.215208  L 225.121745 69.185812  L 226.420364 64.189198  L 227.556655 60.595026  L 228.692945 57.654676  L 229.829236 55.295922  L 230.965527 53.448442  L 232.101818 52.047896  L 233.075782 51.161028  L 234.049745 50.53369  L 235.023709 50.144744  L 235.997673 49.980515  L 236.971636 50.035093  L 237.9456 50.310452  L 238.919564 50.816409  L 239.893527 51.57042  L 240.867491 52.597183  L 241.841455 53.928022  L 242.815418 55.599992  L 243.951709 58.037433  L 245.088 61.066778  L 246.224291 64.760139  L 247.360582 69.185812  L 248.6592 75.215208  L 249.957818 82.339851  L 251.418764 91.694038  L 253.042036 103.705545  L 254.827636 118.687922  L 257.100218 139.823612  L 265.054255 215.934161  L 267.002182 231.583747  L 268.787782 244.215628  L 270.411055 254.224131  L 272.034327 262.856206  L 273.495273 269.511842  L 274.956218 275.194527  L 276.417164 279.995627  L 277.878109 284.011484  L 279.339055 287.338012  L 280.8 290.066867  L 282.260945 292.282935  L 283.721891 294.062892  L 285.182836 295.474572  L 286.643782 296.576912  L 288.104727 297.420295  L 289.728 298.105015  L 291.5136 298.605948  L 293.461527 298.907518  L 295.571782 299.000372  L 297.844364 298.877525  L 300.4416 298.502879  L 303.525818 297.811368  L 306.610036 297.144708  L 307.584 297.132428  L 308.395636 297.343822  L 309.044945 297.752787  L 309.694255 298.44269  L 310.668218 299.898208  L 311.642182 301.218159  L 312.291491 301.770319  L 313.103127 302.14959  L 314.239418 302.364183  L 316.349673 302.451314  L 327.712582 302.46633  L 398.487273 302.466462  L 398.487273 302.466462  "
           style="fill:none;stroke:#ffa500;stroke-linecap:square;stroke-width:3;"
           id="path35403" />
      </g>
      <g
         id="line2d_33">
        <path
           clip-path="url(#p5484467233)"
           d="M 73.832727 302.466462  L 155.158691 302.372368  L 156.294982 302.13212  L 156.944291 301.779972  L 157.431273 301.292901  L 157.918255 300.467827  L 158.405236 299.079609  L 158.892218 296.765828  L 159.3792 292.961533  L 159.866182 286.83175  L 160.353164 277.25404  L 160.840145 262.980343  L 161.489455 235.389112  L 163.762036 123.365695  L 164.411345 104.872195  L 165.060655 91.804379  L 165.709964 82.490741  L 166.5216 74.314978  L 167.333236 68.613855  L 168.144873 64.493826  L 168.956509 61.421536  L 169.930473 58.663661  L 170.904436 56.594599  L 171.8784 54.998317  L 173.014691 53.551827  L 174.313309 52.278538  L 175.774255 51.175205  L 177.397527 50.224007  L 179.345455 49.336757  L 181.780364 48.487661  L 184.539927 47.771221  L 187.461818 47.237413  L 190.708364 46.871292  L 194.604218 46.666628  L 200.934982 46.593385  L 254.989964 46.589538  L 278.852073 46.699869  L 282.747927 46.958939  L 285.994473 47.391982  L 288.916364 47.998479  L 291.675927 48.799033  L 293.948509 49.679235  L 295.896436 50.670125  L 297.519709 51.752716  L 298.818327 52.873409  L 299.954618 54.126355  L 300.928582 55.487595  L 301.902545 57.223093  L 302.876509 59.492601  L 303.688145 61.970068  L 304.499782 65.220615  L 305.311418 69.605494  L 305.960727 74.314978  L 306.610036 80.596482  L 307.259345 89.179568  L 307.908655 101.168727  L 308.557964 118.130723  L 309.207273 141.874275  L 310.018909 182.045159  L 311.317527 250.401033  L 311.966836 273.075388  L 312.453818 284.084492  L 312.9408 291.226589  L 313.427782 295.698467  L 313.914764 298.434227  L 314.401745 300.082166  L 314.888727 301.064339  L 315.375709 301.645324  L 316.025018 302.066074  L 316.836655 302.304264  L 318.2976 302.434923  L 322.680436 302.46624  L 398.487273 302.466462  L 398.487273 302.466462  "
           style="fill:none;stroke:#ff1493;stroke-linecap:square;stroke-width:3;"
           id="path35406" />
      </g>
      <g
         id="patch_3">
        <path
           d="M 57.6 307.584  L 57.6 41.472  "
           style="fill:none;stroke:#000000;stroke-linecap:square;stroke-linejoin:miter;stroke-width:0.8;"
           id="path35409" />
      </g>
      <g
         id="patch_4">
        <path
           d="M 414.72 307.584  L 414.72 41.472  "
           style="fill:none;stroke:#000000;stroke-linecap:square;stroke-linejoin:miter;stroke-width:0.8;"
           id="path35412" />
      </g>
      <g
         id="patch_5">
        <path
           d="M 57.6 307.584  L 414.72 307.584  "
           style="fill:none;stroke:#000000;stroke-linecap:square;stroke-linejoin:miter;stroke-width:0.8;"
           id="path35415" />
      </g>
      <g
         id="patch_6">
        <path
           d="M 57.6 41.472  L 414.72 41.472  "
           style="fill:none;stroke:#000000;stroke-linecap:square;stroke-linejoin:miter;stroke-width:0.8;"
           id="path35418" />
      </g>
      <g
         id="text_18">
        <!-- t = 300 -->
        <g
           transform="translate(357.956719 35.472)scale(0.15 -0.15)"
           id="g35441">
          <defs
             id="defs35425">
            <path
               d="M 10.796875 46.6875  L 2.875 46.6875  L 2.875 51.90625  L 10.796875 51.90625  L 10.796875 68.015625  L 19.828125 68.015625  L 19.828125 51.90625  L 36.71875 51.90625  L 36.71875 46.6875  L 19.828125 46.6875  L 19.828125 13.71875  Q 19.828125 7.125 21.09375 5.265625  Q 22.359375 3.421875 25.78125 3.421875  Q 29.296875 3.421875 30.90625 5.484375  Q 32.515625 7.5625 32.625 12.203125  L 39.40625 12.203125  Q 39.015625 5.125 35.546875 1.84375  Q 32.078125 -1.421875 25 -1.421875  Q 17.234375 -1.421875 14.015625 2.015625  Q 10.796875 5.46875 10.796875 13.71875  z "
               id="DejaVuSerif-116" />
            <path
               id="DejaVuSerif-32" />
            <path
               d="M 10.59375 45.21875  L 73.1875 45.21875  L 73.1875 37.40625  L 10.59375 37.40625  z M 10.59375 25.296875  L 73.1875 25.296875  L 73.1875 17.484375  L 10.59375 17.484375  z "
               id="DejaVuSerif-61" />
            <path
               d="M 9.71875 69.828125  Q 15.4375 71.96875 20.671875 73.09375  Q 25.921875 74.21875 30.515625 74.21875  Q 41.21875 74.21875 47.21875 69.59375  Q 53.21875 64.984375 53.21875 56.78125  Q 53.21875 50.203125 49.0625 45.78125  Q 44.921875 41.359375 37.3125 39.796875  Q 46.296875 38.53125 51.25 33.28125  Q 56.203125 28.03125 56.203125 19.671875  Q 56.203125 9.46875 49.34375 4.015625  Q 42.484375 -1.421875 29.59375 -1.421875  Q 23.875 -1.421875 18.421875 -0.1875  Q 12.984375 1.03125 7.625 3.515625  L 7.625 17.671875  L 13.09375 17.671875  Q 13.578125 10.640625 17.828125 7.03125  Q 22.078125 3.421875 29.78125 3.421875  Q 37.25 3.421875 41.578125 7.734375  Q 45.90625 12.0625 45.90625 19.578125  Q 45.90625 28.171875 41.453125 32.59375  Q 37.015625 37.015625 28.421875 37.015625  L 23.78125 37.015625  L 23.78125 42  L 26.21875 42  Q 34.765625 42 39.03125 45.53125  Q 43.3125 49.078125 43.3125 56.203125  Q 43.3125 62.59375 39.796875 65.984375  Q 36.28125 69.390625 29.6875 69.390625  Q 23.09375 69.390625 19.453125 66.265625  Q 15.828125 63.140625 15.1875 56.984375  L 9.71875 56.984375  z "
               id="DejaVuSerif-51" />
          </defs>
          <use
             xlink:href="#DejaVuSerif-116"
             id="use35427" />
          <use
             x="40.185547"
             xlink:href="#DejaVuSerif-32"
             id="use35429" />
          <use
             x="71.972656"
             xlink:href="#DejaVuSerif-61"
             id="use35431" />
          <use
             x="155.761719"
             xlink:href="#DejaVuSerif-32"
             id="use35433" />
          <use
             x="187.548828"
             xlink:href="#DejaVuSerif-51"
             id="use35435" />
          <use
             x="251.171875"
             xlink:href="#DejaVuSerif-48"
             id="use35437" />
          <use
             x="314.794922"
             xlink:href="#DejaVuSerif-48"
             id="use35439" />
        </g>
      </g>
      <g
         id="legend_1"
         style="stroke-linecap:butt;stroke-linejoin:round"
         transform="translate(-2.244737,-1.1697126)">
        <g
           id="patch_7"
           style="stroke-linecap:butt;stroke-linejoin:round">
          <path
             d="m 317.88,103.91325 h 88.44 q 2.4,0 2.4,-2.4 V 49.872 q 0,-2.4 -2.4,-2.4 h -88.44 q -2.4,0 -2.4,2.4 v 51.64125 q 0,2.4 2.4,2.4 z"
             style="opacity:0.8;fill:#ffffff;stroke:#cccccc;stroke-linecap:butt;stroke-linejoin:miter"
             id="path4547" />
        </g>
        <g
           id="line2d_816"
           style="stroke-linecap:butt;stroke-linejoin:round">
          <path
             d="m 320.28,57.190125 h 24"
             style="fill:none;stroke:#9acd32;stroke-width:3;stroke-linecap:square;stroke-linejoin:round"
             id="path4550" />
        </g>
        <g
           id="line2d_817"
           style="stroke-linecap:butt;stroke-linejoin:round" />
        <g
           id="text_10-3"
           style="stroke-linecap:butt;stroke-linejoin:round">
          <!-- $X_A$ -->
          <g
             transform="matrix(0.12,0,0,-0.12,353.88,61.390125)"
             id="g4562"
             style="stroke-linecap:butt;stroke-linejoin:round">
            <defs
               id="defs4556">
              <path
                 d="m 13.71875,72.90625 h 9.96875 l 12.5,-26.328125 22.609375,26.328125 H 70.3125 L 40.28125,38.09375 58.40625,0 H 48.484375 L 33.796875,30.71875 7.171875,0 H -4.296875 L 29.78125,39.203125 Z"
                 id="path42722" />
              <path
                 d="M 36.8125,72.90625 H 48 L 61.53125,0 H 51.21875 L 48.1875,18.703125 H 15.375 L 5.078125,0 H -5.328125 Z M 40.375,63.1875 19.921875,26.90625 H 46.6875 Z"
                 id="path42724" />
            </defs>
            <path
               d="M 13.71875,73 H 23.6875 L 36.1875,46.671875 58.796875,73 H 70.3125 L 40.28125,38.1875 58.40625,0.09375 H 48.484375 L 33.796875,30.8125 7.171875,0.09375 H -4.296875 L 29.78125,39.296875 Z"
               id="use4558"
               style="stroke-linecap:butt;stroke-linejoin:round" />
            <path
               d="m 94.274609,34.721875 h 7.831251 l 9.47187,-51.034375 h -7.21875 l -2.12187,13.0921875 H 79.268359 L 72.060546,-16.3125 H 64.776172 Z M 96.768359,27.91875 82.451171,2.521875 h 18.735939 z"
               id="use4560"
               style="stroke-width:0.7;stroke-linecap:butt;stroke-linejoin:round" />
          </g>
        </g>
        <g
           id="line2d_818"
           style="stroke-linecap:butt;stroke-linejoin:round">
          <path
             d="m 320.28,74.803875 h 24"
             style="fill:none;stroke:#ffa500;stroke-width:3;stroke-linecap:square;stroke-linejoin:round"
             id="path4565" />
        </g>
        <g
           id="line2d_819"
           style="stroke-linecap:butt;stroke-linejoin:round" />
        <g
           id="text_11-6"
           style="stroke-linecap:butt;stroke-linejoin:round">
          <!-- $X_B$ -->
          <g
             transform="matrix(0.12,0,0,-0.12,353.88,79.003875)"
             id="g4576"
             style="stroke-linecap:butt;stroke-linejoin:round">
            <defs
               id="defs4570">
              <path
                 d="M 16.890625,72.90625 H 42.09375 q 10.25,0 15.328125,-3.8125 Q 62.5,65.28125 62.5,57.625 62.5,50.59375 58.125,45.484375 53.765625,40.375 46.6875,39.3125 q 6.046875,-1.375 9.078125,-5.234375 3.03125,-3.859375 3.03125,-10.296875 0,-10.984375 -8.140625,-17.390625 Q 42.53125,0 28.421875,0 H 2.6875 Z M 19.28125,34.8125 14.109375,8.109375 h 15.875 q 8.9375,0 13.765625,4.09375 4.828125,4.109375 4.828125,11.578125 0,5.765625 -3.203125,8.390625 Q 42.1875,34.8125 35.109375,34.8125 Z m 5.8125,29.984375 -4.296875,-21.96875 H 35.5 q 7.859375,0 12.28125,3.40625 4.421875,3.421875 4.421875,9.484375 0,4.734375 -2.984375,6.90625 -2.984375,2.171875 -9.515625,2.171875 z"
                 id="path42734" />
            </defs>
            <path
               d="M 13.71875,73 H 23.6875 L 36.1875,46.671875 58.796875,73 H 70.3125 L 40.28125,38.1875 58.40625,0.09375 H 48.484375 L 33.796875,30.8125 7.171875,0.09375 H -4.296875 L 29.78125,39.296875 Z"
               id="use4572"
               style="stroke-linecap:butt;stroke-linejoin:round" />
            <path
               d="m 80.329296,34.721875 h 17.642188 q 7.174996,0 10.729686,-2.66875 3.55469,-2.66875 3.55469,-8.028125 0,-4.921875 -3.0625,-8.498438 -3.05156,-3.576562 -8.00625,-4.320312 4.23281,-0.9625 6.35469,-3.6640625 2.12187,-2.7015625 2.12187,-7.2078125 0,-7.6890625 -5.69844,-12.173438 Q 98.277734,-16.3125 88.401172,-16.3125 H 70.387109 Z M 82.002734,8.05625 78.382421,-10.635938 h 11.112501 q 6.256249,0 9.635937,2.8656255 3.379691,2.8765625 3.379691,8.1046875 0,4.0359375 -2.24219,5.8734375 Q 98.037109,8.05625 93.082421,8.05625 Z m 4.06875,20.989062 -3.007813,-15.378125 h 10.292188 q 5.501562,0 8.596871,2.384375 3.09532,2.395313 3.09532,6.639063 0,3.314062 -2.08907,4.834375 -2.08906,1.520312 -6.660934,1.520312 z"
               id="use4574"
               style="stroke-width:0.7;stroke-linecap:butt;stroke-linejoin:round" />
          </g>
        </g>
        <g
           id="line2d_820"
           style="stroke-linecap:butt;stroke-linejoin:round">
          <path
             d="m 320.28,92.417625 h 24"
             style="fill:none;stroke:#ff1493;stroke-width:3;stroke-linecap:square;stroke-linejoin:round"
             id="path4579" />
        </g>
        <g
           id="line2d_821"
           style="stroke-linecap:butt;stroke-linejoin:round" />
        <g
           id="text_12-7"
           style="stroke-linecap:butt;stroke-linejoin:round">
          <!-- $X_C$ or $X_D$ -->
          <g
             transform="matrix(0.12,0,0,-0.12,353.88,96.617625)"
             id="g4604"
             style="stroke-linecap:butt;stroke-linejoin:round">
            <defs
               id="defs4586">
              <path
                 d="m 69.484375,67.28125 -2,-10.390625 q -4.6875,4.734375 -9.9375,7.03125 -5.25,2.296875 -11.359375,2.296875 -8.34375,0 -14.671875,-4.015625 -6.3125,-4 -10.90625,-12.203125 Q 17.671875,44.734375 16.125,38.84375 14.59375,32.953125 14.59375,27 14.59375,17.046875 19.75,11.8125 24.90625,6.59375 34.71875,6.59375 41.5,6.59375 47.75,8.765625 54,10.9375 59.90625,15.28125 L 57.625,3.609375 q -5.8125,-2.484375 -11.75,-3.75 -5.9375,-1.28125 -11.890625,-1.28125 -14.015625,0 -21.90625,7.609375 -7.875,7.625 -7.875,21.203125 0,8.6875 3,17.078125 3,8.40625 8.625,15.34375 5.953125,7.375 13.59375,10.890625 7.640625,3.515625 17.796875,3.515625 6.25,0 11.84375,-1.734375 Q 64.65625,70.75 69.484375,67.28125 Z"
                 id="path42744" />
              <path
                 d="m 30.078125,3.421875 q 7.234375,0 10.90625,5.703125 3.6875,5.71875 3.6875,16.859375 0,11.125 -3.6875,16.8125 -3.671875,5.6875 -10.90625,5.6875 -7.21875,0 -10.90625,-5.6875 -3.6875,-5.6875 -3.6875,-16.8125 0,-11.140625 3.703125,-16.859375 3.71875,-5.703125 10.890625,-5.703125 z m 0,-4.84375 q -11.328125,0 -18.21875,7.5 -6.875,7.5 -6.875,19.90625 0,12.390625 6.859375,19.859375 6.859375,7.484375 18.234375,7.484375 11.375,0 18.234375,-7.484375 6.859375,-7.46875 6.859375,-19.859375 0,-12.40625 -6.859375,-19.90625 -6.859375,-7.5 -18.234375,-7.5 z"
                 id="path42746" />
              <path
                 d="M 16.890625,72.90625 H 38.09375 q 16.890625,0 25.5,-7.15625 8.625,-7.15625 8.625,-21.265625 0,-9.328125 -3.28125,-17.953125 Q 65.671875,17.921875 59.90625,12.015625 54.109375,5.953125 45.171875,2.96875 36.234375,0 24.03125,0 H 2.6875 Z m 8.3125,-8.109375 -11,-56.6875 H 27.09375 q 16.5625,0 25.640625,9.515625 9.078125,9.53125 9.078125,26.859375 0,10.5 -5.859375,15.40625 -5.859375,4.90625 -18.359375,4.90625 z"
                 id="path42748" />
            </defs>
            <path
               d="M 13.71875,73 H 23.6875 L 36.1875,46.671875 58.796875,73 H 70.3125 L 40.28125,38.1875 58.40625,0.09375 H 48.484375 L 33.796875,30.8125 7.171875,0.09375 H -4.296875 L 29.78125,39.296875 Z"
               id="use4588"
               style="stroke-linecap:butt;stroke-linejoin:round" />
            <path
               d="m 117.14492,30.784375 -1.4,-7.273438 q -3.28125,3.314063 -6.95625,4.921875 -3.675,1.607813 -7.95156,1.607813 -5.840626,0 -10.270314,-2.810938 -4.41875,-2.8 -7.634374,-8.542187 -2.056251,-3.685938 -3.139063,-7.809375 -1.071875,-4.1234375 -1.071875,-8.290625 0,-6.9671875 3.609375,-10.63125 3.609375,-3.653125 10.478125,-3.653125 4.746875,0 9.121876,1.520313 4.375,1.520312 8.50937,4.560937 l -1.59687,-8.170312 q -4.06875,-1.739063 -8.225,-2.625 -4.156251,-0.896875 -8.323439,-0.896875 -9.810937,0 -15.334375,5.326562 -5.512499,5.3375 -5.512499,14.8421875 0,6.08125 2.099999,11.9546875 2.100001,5.884375 6.0375,10.740625 4.167188,5.1625 9.515625,7.623437 5.348438,2.460938 12.457809,2.460938 4.375,0 8.29063,-1.214063 3.91562,-1.214062 7.29531,-3.642187 z"
               id="use4590"
               style="stroke-width:0.7;stroke-linecap:butt;stroke-linejoin:round" />
            <use
               transform="translate(120.11719,0.09375)"
               xlink:href="#DejaVuSerif-32"
               id="use4592"
               style="stroke-linecap:butt;stroke-linejoin:round" />
            <path
               d="m 181.98242,3.515625 q 7.23438,0 10.90625,5.703125 3.6875,5.71875 3.6875,16.859375 0,11.125 -3.6875,16.8125 -3.67187,5.6875 -10.90625,5.6875 -7.21875,0 -10.90625,-5.6875 -3.6875,-5.6875 -3.6875,-16.8125 0,-11.140625 3.70313,-16.859375 3.71875,-5.703125 10.89062,-5.703125 z m 0,-4.84375 q -11.32812,0 -18.21875,7.5 -6.875,7.5 -6.875,19.90625 0,12.390625 6.85938,19.859375 6.85937,7.484375 18.23437,7.484375 11.375,0 18.23438,-7.484375 6.85937,-7.46875 6.85937,-19.859375 0,-12.40625 -6.85937,-19.90625 -6.85938,-7.5 -18.23438,-7.5 z"
               id="use4594"
               style="stroke-linecap:butt;stroke-linejoin:round" />
            <use
               transform="translate(212.10937,0.09375)"
               xlink:href="#DejaVuSerif-114"
               id="use4596"
               style="stroke-linecap:butt;stroke-linejoin:round" />
            <use
               transform="translate(259.91211,0.09375)"
               xlink:href="#DejaVuSerif-32"
               id="use4598"
               style="stroke-linecap:butt;stroke-linejoin:round" />
            <path
               d="m 305.41797,73 h 9.96875 l 12.5,-26.328125 L 350.4961,73 h 11.51562 L 331.98047,38.1875 350.10547,0.09375 H 340.1836 L 325.4961,30.8125 298.8711,0.09375 h -11.46875 l 34.07812,39.203125 z"
               id="use4600"
               style="stroke-linecap:butt;stroke-linejoin:round" />
            <path
               d="m 372.02852,34.721875 h 14.84218 q 11.82344,0 17.85,-5.009375 6.0375,-5.009375 6.0375,-14.885938 0,-6.529687 -2.29687,-12.567187 -2.28594,-6.0265625 -6.32188,-10.1609375 -4.05781,-4.2437495 -10.31406,-6.3328125 -6.25625,-2.078125 -14.79844,-2.078125 h -14.94062 z m 5.81875,-5.676563 -7.7,-39.68125 h 9.02343 q 11.59375,0 17.94844,6.660938 6.35469,6.671875 6.35469,18.801562 0,7.35 -4.10156,10.784375 -4.10156,3.434375 -12.85156,3.434375 z"
               id="use4602"
               style="stroke-width:0.7;stroke-linecap:butt;stroke-linejoin:round" />
          </g>
        </g>
      </g>
    </g>
  </g>
  <defs
     id="defs35504">
    <clipPath
       id="p5484467233">
      <rect
         height="266.112"
         width="357.12"
         x="57.6"
         y="41.472"
         id="rect35501" />
    </clipPath>
  </defs>
</svg>
