<?xml version="1.0" encoding="UTF-8" standalone="no"?>
<!-- Created with matplotlib (https://matplotlib.org/) -->

<svg
   height="345.6pt"
   version="1.1"
   viewBox="0 0 460.8 345.6"
   width="460.8pt"
   id="svg13636"
   sodipodi:docname="sp35_o_t_600.svg"
   inkscape:version="1.2.2 (732a01da63, 2022-12-09, custom)"
   xmlns:inkscape="http://www.inkscape.org/namespaces/inkscape"
   xmlns:sodipodi="http://sodipodi.sourceforge.net/DTD/sodipodi-0.dtd"
   xmlns:xlink="http://www.w3.org/1999/xlink"
   xmlns="http://www.w3.org/2000/svg"
   xmlns:svg="http://www.w3.org/2000/svg"
   xmlns:rdf="http://www.w3.org/1999/02/22-rdf-syntax-ns#"
   xmlns:cc="http://creativecommons.org/ns#"
   xmlns:dc="http://purl.org/dc/elements/1.1/">
  <sodipodi:namedview
     id="namedview13638"
     pagecolor="#ffffff"
     bordercolor="#666666"
     borderopacity="1.0"
     inkscape:showpageshadow="2"
     inkscape:pageopacity="0.0"
     inkscape:pagecheckerboard="0"
     inkscape:deskcolor="#d1d1d1"
     inkscape:document-units="pt"
     showgrid="false"
     inkscape:zoom="0.40256075"
     inkscape:cx="-693.0631"
     inkscape:cy="460.80002"
     inkscape:window-width="1853"
     inkscape:window-height="1018"
     inkscape:window-x="67"
     inkscape:window-y="34"
     inkscape:window-maximized="1"
     inkscape:current-layer="svg13636"
     showguides="true">
    <sodipodi:guide
       position="232.88412,17.699185"
       orientation="0,-1"
       id="guide2491"
       inkscape:locked="false" />
    <sodipodi:guide
       position="211.45878,-15.836124"
       orientation="1,0"
       id="guide4699"
       inkscape:locked="false" />
  </sodipodi:namedview>
  <metadata
     id="metadata13171">
    <rdf:RDF>
      <cc:Work>
        <dc:type
           rdf:resource="http://purl.org/dc/dcmitype/StillImage" />
        <dc:date>2023-02-17T00:23:51.746073</dc:date>
        <dc:format>image/svg+xml</dc:format>
        <dc:creator>
          <cc:Agent>
            <dc:title>Matplotlib v3.3.4, https://matplotlib.org/</dc:title>
          </cc:Agent>
        </dc:creator>
      </cc:Work>
    </rdf:RDF>
  </metadata>
  <defs
     id="defs13175">
    <style
       type="text/css"
       id="style13173">*{stroke-linecap:butt;stroke-linejoin:round;}</style>
    <path
       d="M 0,0 H -3.5"
       id="m93fa121516"
       style="stroke:#000000;stroke-width:0.8" />
    <path
       d="m 31.78125,3.421875 q 7.484375,0 11.1875,8.203125 3.71875,8.203125 3.71875,24.75 0,16.609375 -3.71875,24.8125 -3.703125,8.203125 -11.1875,8.203125 -7.46875,0 -11.1875,-8.203125 -3.703125,-8.203125 -3.703125,-24.8125 0,-16.546875 3.703125,-24.75 3.71875,-8.203125 11.1875,-8.203125 z m 0,-4.84375 Q 19.921875,-1.421875 13.25,8.53125 6.59375,18.5 6.59375,36.375 q 0,17.921875 6.65625,27.875 6.671875,9.96875 18.53125,9.96875 11.921875,0 18.5625,-9.96875 6.640625,-9.953125 6.640625,-27.875 0,-17.875 -6.640625,-27.84375 -6.640625,-9.953125 -18.5625,-9.953125 z"
       id="DejaVuSerif-48" />
    <path
       d="m 9.421875,5.078125 q 0,2.734375 1.859375,4.640625 1.859375,1.90625 4.640625,1.90625 2.6875,0 4.578125,-1.90625 1.90625,-1.90625 1.90625,-4.640625 0,-2.6875 -1.90625,-4.59375 -1.890625,-1.90625 -4.578125,-1.90625 -2.78125,0 -4.640625,1.875 -1.859375,1.890625 -1.859375,4.625 z"
       id="DejaVuSerif-46" />
    <path
       d="M 12.796875,55.515625 H 7.328125 V 68.5 q 5.21875,2.796875 10.515625,4.25 5.296875,1.46875 10.375,1.46875 11.375,0 17.96875,-5.515625 6.59375,-5.515625 6.59375,-14.984375 0,-10.703125 -14.9375,-25.59375 Q 36.671875,27 36.078125,26.421875 L 17.671875,8.015625 H 48.09375 V 17 H 53.8125 V 0 H 6.78125 v 5.328125 l 22.125,22.0625 q 7.328125,7.328125 10.453125,13.453125 3.125,6.125 3.125,12.875 0,7.359375 -3.84375,11.515625 -3.828125,4.15625 -10.5625,4.15625 -6.984375,0 -10.796875,-3.46875 -3.796875,-3.46875 -4.484375,-10.40625 z"
       id="DejaVuSerif-50" />
    <path
       d="m 34.90625,24.703125 v 38.78125 L 10.015625,24.703125 Z M 56.390625,0 H 23.1875 v 5.171875 h 11.71875 v 14.3125 H 3.078125 V 24.8125 l 31.9375,49.40625 h 9.65625 V 24.703125 H 58.59375 v -5.21875 H 44.671875 v -14.3125 h 11.71875 z"
       id="DejaVuSerif-52" />
    <path
       d="m 32.71875,3.421875 q 6.875,0 10.578125,5.046875 3.71875,5.0625 3.71875,14.53125 0,9.46875 -3.71875,14.515625 -3.703125,5.0625 -10.578125,5.0625 -6.984375,0 -10.65625,-4.890625 -3.65625,-4.875 -3.65625,-14.109375 0,-9.703125 3.703125,-14.9375 3.71875,-5.21875 10.609375,-5.21875 z m -15.921875,36.71875 q 3.328125,3.65625 7.515625,5.453125 4.203125,1.8125 9.484375,1.8125 10.875,0 17.203125,-6.546875 Q 57.328125,34.328125 57.328125,23 q 0,-11.078125 -6.8125,-17.75 -6.8125,-6.671875 -18.1875,-6.671875 -12.359375,0 -19,9.203125 Q 6.6875,17 6.6875,34.078125 q 0,19.140625 7.859375,29.640625 7.859375,10.5 22.171875,10.5 3.859375,0 8.109375,-0.734375 4.25,-0.734375 8.6875,-2.1875 V 59.28125 H 48 q -0.59375,4.921875 -3.765625,7.515625 -3.171875,2.59375 -8.546875,2.59375 -9.46875,0 -14.109375,-7.1875 -4.640625,-7.171875 -4.78125,-22.0625 z"
       id="DejaVuSerif-54" />
    <path
       d="m 46.578125,19.921875 q 0,7.8125 -3.890625,12.125 Q 38.8125,36.375 31.78125,36.375 24.75,36.375 20.875,32.046875 17,27.734375 17,19.921875 q 0,-7.859375 3.875,-12.1875 3.875,-4.3125 10.90625,-4.3125 7.03125,0 10.90625,4.3125 3.890625,4.328125 3.890625,12.1875 z m -2,35.40625 q 0,6.640625 -3.375,10.34375 -3.359375,3.71875 -9.421875,3.71875 -6,0 -9.390625,-3.71875 Q 19,61.96875 19,55.328125 q 0,-6.6875 3.390625,-10.40625 3.390625,-3.703125 9.390625,-3.703125 6.0625,0 9.421875,3.703125 3.375,3.71875 3.375,10.40625 z M 39.3125,38.8125 q 8.296875,-1.109375 12.9375,-6.125 4.640625,-5 4.640625,-12.765625 0,-10.25 -6.5,-15.796875 -6.5,-5.546875 -18.609375,-5.546875 -12.046875,0 -18.578125,5.546875 Q 6.6875,9.671875 6.6875,19.921875 6.6875,27.6875 11.328125,32.6875 15.96875,37.703125 24.3125,38.8125 16.9375,40.140625 13,44.40625 9.078125,48.6875 9.078125,55.328125 q 0,8.78125 6.046875,13.828125 6.0625,5.0625 16.65625,5.0625 10.609375,0 16.65625,-5.0625 Q 54.5,64.109375 54.5,55.328125 54.5,48.6875 50.5625,44.40625 46.625,40.140625 39.3125,38.8125 Z"
       id="DejaVuSerif-56" />
    <path
       d="M 14.203125,0 V 5.171875 H 26.90625 v 60.65625 l -14.703125,-9.53125 v 6.40625 L 29.984375,74.21875 H 36.71875 V 5.171875 H 49.421875 V 0 Z"
       id="DejaVuSerif-49" />
  </defs>
  <path
     d="M 0,345.6 H 460.8 V 0 H 0 Z"
     style="fill:#ffffff"
     id="path13177" />
  <g
     id="ytick_1"
     style="stroke-linecap:butt;stroke-linejoin:round"
     transform="translate(0.04997125,-0.02098122)">
    <g
       id="line2d_304"
       style="stroke-linecap:butt;stroke-linejoin:round">
      <defs
         id="defs5597">
        <path
           d="M 0,0 H -3.5"
           id="path22937"
           style="stroke:#000000;stroke-width:0.8" />
      </defs>
      <g
         id="g5601"
         style="stroke-linecap:butt;stroke-linejoin:round">
        <use
           style="stroke:#000000;stroke-width:0.8;stroke-linecap:butt;stroke-linejoin:round"
           x="57.599998"
           xlink:href="#m93fa121516"
           y="302.46646"
           id="use5599" />
      </g>
    </g>
    <g
       id="text_2"
       style="stroke-linecap:butt;stroke-linejoin:round">
      <!-- 0.0 -->
      <g
         transform="matrix(0.1,0,0,-0.1,34.696875,306.26568)"
         id="g5614"
         style="stroke-linecap:butt;stroke-linejoin:round">
        <defs
           id="defs5606">
          <path
             d="m 31.78125,3.421875 q 7.484375,0 11.1875,8.203125 3.71875,8.203125 3.71875,24.75 0,16.609375 -3.71875,24.8125 -3.703125,8.203125 -11.1875,8.203125 -7.46875,0 -11.1875,-8.203125 -3.703125,-8.203125 -3.703125,-24.8125 0,-16.546875 3.703125,-24.75 3.71875,-8.203125 11.1875,-8.203125 z m 0,-4.84375 Q 19.921875,-1.421875 13.25,8.53125 6.59375,18.5 6.59375,36.375 q 0,17.921875 6.65625,27.875 6.671875,9.96875 18.53125,9.96875 11.921875,0 18.5625,-9.96875 6.640625,-9.953125 6.640625,-27.875 0,-17.875 -6.640625,-27.84375 -6.640625,-9.953125 -18.5625,-9.953125 z"
             id="path22943" />
          <path
             d="m 9.421875,5.078125 q 0,2.734375 1.859375,4.640625 1.859375,1.90625 4.640625,1.90625 2.6875,0 4.578125,-1.90625 1.90625,-1.90625 1.90625,-4.640625 0,-2.6875 -1.90625,-4.59375 -1.890625,-1.90625 -4.578125,-1.90625 -2.78125,0 -4.640625,1.875 -1.859375,1.890625 -1.859375,4.625 z"
             id="path22945" />
        </defs>
        <use
           xlink:href="#DejaVuSerif-48"
           id="use5608"
           style="stroke-linecap:butt;stroke-linejoin:round" />
        <use
           x="63.623047"
           xlink:href="#DejaVuSerif-46"
           id="use5610"
           style="stroke-linecap:butt;stroke-linejoin:round" />
        <use
           x="95.410156"
           xlink:href="#DejaVuSerif-48"
           id="use5612"
           style="stroke-linecap:butt;stroke-linejoin:round" />
      </g>
    </g>
  </g>
  <g
     id="ytick_2"
     style="stroke-linecap:butt;stroke-linejoin:round"
     transform="translate(0.04997125,-0.02098122)">
    <g
       id="line2d_306"
       style="stroke-linecap:butt;stroke-linejoin:round">
      <g
         id="g5623"
         style="stroke-linecap:butt;stroke-linejoin:round">
        <use
           style="stroke:#000000;stroke-width:0.8;stroke-linecap:butt;stroke-linejoin:round"
           x="57.599998"
           xlink:href="#m93fa121516"
           y="251.29108"
           id="use5621" />
      </g>
    </g>
    <g
       id="text_3"
       style="stroke-linecap:butt;stroke-linejoin:round">
      <!-- 0.2 -->
      <g
         transform="matrix(0.1,0,0,-0.1,34.696875,255.0903)"
         id="g5635"
         style="stroke-linecap:butt;stroke-linejoin:round">
        <defs
           id="defs5627">
          <path
             d="M 12.796875,55.515625 H 7.328125 V 68.5 q 5.21875,2.796875 10.515625,4.25 5.296875,1.46875 10.375,1.46875 11.375,0 17.96875,-5.515625 6.59375,-5.515625 6.59375,-14.984375 0,-10.703125 -14.9375,-25.59375 Q 36.671875,27 36.078125,26.421875 L 17.671875,8.015625 H 48.09375 V 17 H 53.8125 V 0 H 6.78125 v 5.328125 l 22.125,22.0625 q 7.328125,7.328125 10.453125,13.453125 3.125,6.125 3.125,12.875 0,7.359375 -3.84375,11.515625 -3.828125,4.15625 -10.5625,4.15625 -6.984375,0 -10.796875,-3.46875 -3.796875,-3.46875 -4.484375,-10.40625 z"
             id="path22957" />
        </defs>
        <use
           xlink:href="#DejaVuSerif-48"
           id="use5629"
           style="stroke-linecap:butt;stroke-linejoin:round" />
        <use
           x="63.623047"
           xlink:href="#DejaVuSerif-46"
           id="use5631"
           style="stroke-linecap:butt;stroke-linejoin:round" />
        <use
           x="95.410156"
           xlink:href="#DejaVuSerif-50"
           id="use5633"
           style="stroke-linecap:butt;stroke-linejoin:round" />
      </g>
    </g>
  </g>
  <g
     id="ytick_3"
     style="stroke-linecap:butt;stroke-linejoin:round"
     transform="translate(0.04997125,-0.02098122)">
    <g
       id="line2d_308"
       style="stroke-linecap:butt;stroke-linejoin:round">
      <g
         id="g5644"
         style="stroke-linecap:butt;stroke-linejoin:round">
        <use
           style="stroke:#000000;stroke-width:0.8;stroke-linecap:butt;stroke-linejoin:round"
           x="57.599998"
           xlink:href="#m93fa121516"
           y="200.11569"
           id="use5642" />
      </g>
    </g>
    <g
       id="text_4"
       style="stroke-linecap:butt;stroke-linejoin:round">
      <!-- 0.4 -->
      <g
         transform="matrix(0.1,0,0,-0.1,34.696875,203.91491)"
         id="g5656"
         style="stroke-linecap:butt;stroke-linejoin:round">
        <defs
           id="defs5648">
          <path
             d="m 34.90625,24.703125 v 38.78125 L 10.015625,24.703125 Z M 56.390625,0 H 23.1875 v 5.171875 h 11.71875 v 14.3125 H 3.078125 V 24.8125 l 31.9375,49.40625 h 9.65625 V 24.703125 H 58.59375 v -5.21875 H 44.671875 v -14.3125 h 11.71875 z"
             id="path22969" />
        </defs>
        <use
           xlink:href="#DejaVuSerif-48"
           id="use5650"
           style="stroke-linecap:butt;stroke-linejoin:round" />
        <use
           x="63.623047"
           xlink:href="#DejaVuSerif-46"
           id="use5652"
           style="stroke-linecap:butt;stroke-linejoin:round" />
        <use
           x="95.410156"
           xlink:href="#DejaVuSerif-52"
           id="use5654"
           style="stroke-linecap:butt;stroke-linejoin:round" />
      </g>
    </g>
  </g>
  <g
     id="ytick_4"
     style="stroke-linecap:butt;stroke-linejoin:round"
     transform="translate(0.04997125,-0.02098122)">
    <g
       id="line2d_310"
       style="stroke-linecap:butt;stroke-linejoin:round">
      <g
         id="g5665"
         style="stroke-linecap:butt;stroke-linejoin:round">
        <use
           style="stroke:#000000;stroke-width:0.8;stroke-linecap:butt;stroke-linejoin:round"
           x="57.599998"
           xlink:href="#m93fa121516"
           y="148.94031"
           id="use5663" />
      </g>
    </g>
    <g
       id="text_5"
       style="stroke-linecap:butt;stroke-linejoin:round">
      <!-- 0.6 -->
      <g
         transform="matrix(0.1,0,0,-0.1,34.696875,152.73953)"
         id="g5677"
         style="stroke-linecap:butt;stroke-linejoin:round">
        <defs
           id="defs5669">
          <path
             d="m 32.71875,3.421875 q 6.875,0 10.578125,5.046875 3.71875,5.0625 3.71875,14.53125 0,9.46875 -3.71875,14.515625 -3.703125,5.0625 -10.578125,5.0625 -6.984375,0 -10.65625,-4.890625 -3.65625,-4.875 -3.65625,-14.109375 0,-9.703125 3.703125,-14.9375 3.71875,-5.21875 10.609375,-5.21875 z m -15.921875,36.71875 q 3.328125,3.65625 7.515625,5.453125 4.203125,1.8125 9.484375,1.8125 10.875,0 17.203125,-6.546875 Q 57.328125,34.328125 57.328125,23 q 0,-11.078125 -6.8125,-17.75 -6.8125,-6.671875 -18.1875,-6.671875 -12.359375,0 -19,9.203125 Q 6.6875,17 6.6875,34.078125 q 0,19.140625 7.859375,29.640625 7.859375,10.5 22.171875,10.5 3.859375,0 8.109375,-0.734375 4.25,-0.734375 8.6875,-2.1875 V 59.28125 H 48 q -0.59375,4.921875 -3.765625,7.515625 -3.171875,2.59375 -8.546875,2.59375 -9.46875,0 -14.109375,-7.1875 -4.640625,-7.171875 -4.78125,-22.0625 z"
             id="path22981" />
        </defs>
        <use
           xlink:href="#DejaVuSerif-48"
           id="use5671"
           style="stroke-linecap:butt;stroke-linejoin:round" />
        <use
           x="63.623047"
           xlink:href="#DejaVuSerif-46"
           id="use5673"
           style="stroke-linecap:butt;stroke-linejoin:round" />
        <use
           x="95.410156"
           xlink:href="#DejaVuSerif-54"
           id="use5675"
           style="stroke-linecap:butt;stroke-linejoin:round" />
      </g>
    </g>
  </g>
  <g
     id="ytick_5"
     style="stroke-linecap:butt;stroke-linejoin:round"
     transform="translate(0.04997125,-0.02098122)">
    <g
       id="line2d_312"
       style="stroke-linecap:butt;stroke-linejoin:round">
      <g
         id="g5686"
         style="stroke-linecap:butt;stroke-linejoin:round">
        <use
           style="stroke:#000000;stroke-width:0.8;stroke-linecap:butt;stroke-linejoin:round"
           x="57.599998"
           xlink:href="#m93fa121516"
           y="97.764923"
           id="use5684" />
      </g>
    </g>
    <g
       id="text_6"
       style="stroke-linecap:butt;stroke-linejoin:round">
      <!-- 0.8 -->
      <g
         transform="matrix(0.1,0,0,-0.1,34.696875,101.56414)"
         id="g5698"
         style="stroke-linecap:butt;stroke-linejoin:round">
        <defs
           id="defs5690">
          <path
             d="m 46.578125,19.921875 q 0,7.8125 -3.890625,12.125 Q 38.8125,36.375 31.78125,36.375 24.75,36.375 20.875,32.046875 17,27.734375 17,19.921875 q 0,-7.859375 3.875,-12.1875 3.875,-4.3125 10.90625,-4.3125 7.03125,0 10.90625,4.3125 3.890625,4.328125 3.890625,12.1875 z m -2,35.40625 q 0,6.640625 -3.375,10.34375 -3.359375,3.71875 -9.421875,3.71875 -6,0 -9.390625,-3.71875 Q 19,61.96875 19,55.328125 q 0,-6.6875 3.390625,-10.40625 3.390625,-3.703125 9.390625,-3.703125 6.0625,0 9.421875,3.703125 3.375,3.71875 3.375,10.40625 z M 39.3125,38.8125 q 8.296875,-1.109375 12.9375,-6.125 4.640625,-5 4.640625,-12.765625 0,-10.25 -6.5,-15.796875 -6.5,-5.546875 -18.609375,-5.546875 -12.046875,0 -18.578125,5.546875 Q 6.6875,9.671875 6.6875,19.921875 6.6875,27.6875 11.328125,32.6875 15.96875,37.703125 24.3125,38.8125 16.9375,40.140625 13,44.40625 9.078125,48.6875 9.078125,55.328125 q 0,8.78125 6.046875,13.828125 6.0625,5.0625 16.65625,5.0625 10.609375,0 16.65625,-5.0625 Q 54.5,64.109375 54.5,55.328125 54.5,48.6875 50.5625,44.40625 46.625,40.140625 39.3125,38.8125 Z"
             id="path22993" />
        </defs>
        <use
           xlink:href="#DejaVuSerif-48"
           id="use5692"
           style="stroke-linecap:butt;stroke-linejoin:round" />
        <use
           x="63.623047"
           xlink:href="#DejaVuSerif-46"
           id="use5694"
           style="stroke-linecap:butt;stroke-linejoin:round" />
        <use
           x="95.410156"
           xlink:href="#DejaVuSerif-56"
           id="use5696"
           style="stroke-linecap:butt;stroke-linejoin:round" />
      </g>
    </g>
  </g>
  <g
     id="ytick_6"
     style="stroke-linecap:butt;stroke-linejoin:round"
     transform="translate(0.04997125,-0.02098122)">
    <g
       id="line2d_314"
       style="stroke-linecap:butt;stroke-linejoin:round">
      <g
         id="g5707"
         style="stroke-linecap:butt;stroke-linejoin:round">
        <use
           style="stroke:#000000;stroke-width:0.8;stroke-linecap:butt;stroke-linejoin:round"
           x="57.599998"
           xlink:href="#m93fa121516"
           y="46.589539"
           id="use5705" />
      </g>
    </g>
    <g
       id="text_7"
       style="stroke-linecap:butt;stroke-linejoin:round">
      <!-- 1.0 -->
      <g
         transform="matrix(0.1,0,0,-0.1,34.696875,50.388757)"
         id="g5719"
         style="stroke-linecap:butt;stroke-linejoin:round">
        <defs
           id="defs5711">
          <path
             d="M 14.203125,0 V 5.171875 H 26.90625 v 60.65625 l -14.703125,-9.53125 v 6.40625 L 29.984375,74.21875 H 36.71875 V 5.171875 H 49.421875 V 0 Z"
             id="path23005" />
        </defs>
        <use
           xlink:href="#DejaVuSerif-49"
           id="use5713"
           style="stroke-linecap:butt;stroke-linejoin:round" />
        <use
           x="63.623047"
           xlink:href="#DejaVuSerif-46"
           id="use5715"
           style="stroke-linecap:butt;stroke-linejoin:round" />
        <use
           x="95.410156"
           xlink:href="#DejaVuSerif-48"
           id="use5717"
           style="stroke-linecap:butt;stroke-linejoin:round" />
      </g>
    </g>
  </g>
  <g
     id="patch_3-6"
     style="stroke-linecap:butt;stroke-linejoin:round"
     transform="translate(0.04997125,-0.02098122)">
    <path
       d="M 57.6,307.584 V 41.472"
       style="fill:none;stroke:#000000;stroke-width:0.8;stroke-linecap:square;stroke-linejoin:miter"
       id="path5762" />
  </g>
  <path
     d="M 57.6,307.584 H 414.72 V 41.472 H 57.6 Z"
     style="fill:#ffffff"
     id="path13180" />
  <g
     id="matplotlib.axis_1">
    <g
       id="text_10">
      <!-- Space -->
      <g
         transform="matrix(0.17,0,0,-0.17,210.03711,341.17947)"
         id="g13368">
        <defs
           id="defs13356">
          <path
             d="M 9.28125,3.515625 V 20.125 l 5.609375,-0.0625 q 0.25,-8.296875 4.8125,-12.28125 4.5625,-3.96875 13.890625,-3.96875 8.6875,0 13.25,3.4375 4.578125,3.4375 4.578125,10.03125 0,5.28125 -2.765625,8.109375 -2.75,2.828125 -11.640625,5.515625 l -9.625,2.890625 Q 16.9375,36.96875 12.671875,41.703125 8.40625,46.4375 8.40625,54.6875 q 0,9.28125 6.578125,14.40625 6.59375,5.125 18.515625,5.125 5.078125,0 11.125,-1.109375 6.0625,-1.09375 12.890625,-3.1875 V 54.390625 H 52 q -0.828125,7.71875 -5.15625,11.15625 Q 42.53125,69 33.6875,69 q -7.703125,0 -11.734375,-3.15625 -4.03125,-3.140625 -4.03125,-9.15625 0,-5.21875 3.015625,-8.203125 3.03125,-2.96875 12.859375,-5.90625 l 9.03125,-2.6875 q 9.90625,-2.96875 14.125,-7.59375 4.234375,-4.609375 4.234375,-12.375 0,-10.59375 -6.796875,-15.96875 -6.78125,-5.375 -20.203125,-5.375 -6.015625,0 -12.25,1.234375 -6.21875,1.21875 -12.65625,3.703125 z"
             id="DejaVuSerif-83" />
          <path
             d="m 20.515625,28.515625 v -5.125 q 0,-9.375 3.578125,-14.28125 3.59375,-4.90625 10.421875,-4.90625 6.890625,0 10.421875,5.515625 3.546875,5.515625 3.546875,16.265625 0,10.78125 -3.546875,16.25 -3.53125,5.46875 -10.421875,5.46875 -6.828125,0 -10.421875,-4.9375 -3.578125,-4.921875 -3.578125,-14.25 z M 11.53125,46.6875 H 2.875 v 5.21875 H 20.515625 V 43.796875 Q 23.140625,48.6875 27.21875,51 q 4.078125,2.328125 10.09375,2.328125 9.5625,0 15.609375,-7.578125 6.0625,-7.5625 6.0625,-19.765625 0,-12.21875 -6.0625,-19.8125 -6.046875,-7.59375 -15.609375,-7.59375 -6.015625,0 -10.09375,2.3125 -4.078125,2.328125 -6.703125,7.21875 v -23.6875 H 29 v -5.21875 H 2.875 v 5.21875 h 8.65625 z"
             id="DejaVuSerif-112" />
          <path
             d="M 39.796875,16.3125 V 27.296875 H 28.21875 q -6.6875,0 -9.96875,-2.890625 -3.265625,-2.875 -3.265625,-8.828125 0,-5.421875 3.3125,-8.59375 3.328125,-3.171875 9,-3.171875 5.609375,0 9.046875,3.46875 3.453125,3.46875 3.453125,9.03125 z m 8.984375,16.109375 v -27.25 h 8 V 0 H 39.796875 V 5.609375 Q 36.8125,2 32.90625,0.28125 29,-1.421875 23.78125,-1.421875 q -8.640625,0 -13.71875,4.59375 -5.078125,4.59375 -5.078125,12.40625 0,8.0625 5.8125,12.5 5.8125,4.4375 16.40625,4.4375 h 12.59375 v 3.5625 q 0,5.921875 -3.59375,9.15625 -3.578125,3.25 -10.078125,3.25 -5.375,0 -8.546875,-2.4375 Q 14.40625,43.609375 13.625,38.8125 H 8.984375 v 10.5 q 4.6875,2 9.109375,3 4.421875,1.015625 8.609375,1.015625 10.796875,0 16.4375,-5.359375 Q 48.78125,42.625 48.78125,32.421875 Z"
             id="DejaVuSerif-97" />
          <path
             d="M 51.421875,15.578125 Q 49.515625,7.28125 44.09375,2.921875 q -5.421875,-4.34375 -14.015625,-4.34375 -11.328125,0 -18.21875,7.5 -6.875,7.5 -6.875,19.90625 0,12.4375 6.875,19.890625 6.890625,7.453125 18.21875,7.453125 4.9375,0 9.8125,-1.15625 4.890625,-1.140625 9.8125,-3.484375 V 35.40625 h -5.21875 q -1.03125,6.828125 -4.46875,9.953125 -3.4375,3.125 -9.84375,3.125 -7.265625,0 -10.984375,-5.640625 -3.703125,-5.640625 -3.703125,-16.859375 0,-11.234375 3.6875,-16.90625 3.6875,-5.65625 11,-5.65625 5.8125,0 9.28125,3.015625 3.46875,3.03125 4.734375,9.140625 z"
             id="DejaVuSerif-99" />
          <path
             d="m 54.203125,25 h -38.71875 v -0.390625 q 0,-10.5 3.953125,-15.84375 3.953125,-5.34375 11.671875,-5.34375 5.90625,0 9.6875,3.09375 3.78125,3.109375 5.296875,9.203125 h 7.234375 Q 51.171875,7.171875 45.375,2.875 39.59375,-1.421875 30.171875,-1.421875 q -11.375,0 -18.28125,7.5 -6.90625,7.5 -6.90625,19.90625 0,12.296875 6.78125,19.8125 6.796875,7.53125 17.828125,7.53125 11.765625,0 18.0625,-7.265625 6.296875,-7.25 6.546875,-21.0625 z m -10.59375,5.171875 q -0.296875,9.09375 -3.84375,13.703125 -3.53125,4.609375 -10.171875,4.609375 -6.203125,0 -9.765625,-4.640625 -3.5625,-4.640625 -4.34375,-13.671875 z"
             id="DejaVuSerif-101" />
        </defs>
        <use
           xlink:href="#DejaVuSerif-83"
           id="use13358" />
        <use
           x="68.505859"
           xlink:href="#DejaVuSerif-112"
           id="use13360" />
        <use
           x="132.51953"
           xlink:href="#DejaVuSerif-97"
           id="use13362" />
        <use
           x="192.13867"
           xlink:href="#DejaVuSerif-99"
           id="use13364" />
        <use
           x="248.14453"
           xlink:href="#DejaVuSerif-101"
           id="use13366" />
      </g>
    </g>
  </g>
  <g
     id="matplotlib.axis_2">
    <g
       id="text_17">
      <!-- Frequency -->
      <g
         transform="matrix(0,-0.17,-0.17,0,26.919687,220.5037)"
         id="g13521">
        <defs
           id="defs13501">
          <path
             d="m 5.515625,0 v 5.171875 h 9.28125 v 62.5 H 5.515625 V 72.90625 H 65.1875 V 56.6875 h -6 V 66.890625 H 24.703125 v -24.40625 h 24.90625 v 9.125 h 6 v -24.21875 h -6 V 36.53125 H 24.703125 V 5.171875 H 36.375 V 0 Z"
             id="DejaVuSerif-70" />
          <path
             d="M 47.796875,52 V 39.015625 H 42.625 q -0.234375,3.859375 -2.140625,5.765625 -1.90625,1.90625 -5.578125,1.90625 -6.640625,0 -10.1875,-4.59375 Q 21.1875,37.5 21.1875,28.90625 V 5.171875 H 31.59375 V 0 H 4.109375 v 5.171875 h 8.09375 V 46.78125 h -8.59375 v 5.125 H 21.1875 v -9.234375 q 2.640625,5.421875 6.78125,8.03125 4.15625,2.625 10.125,2.625 2.1875,0 4.609375,-0.34375 Q 45.125,52.640625 47.796875,52 Z"
             id="DejaVuSerif-114" />
          <path
             d="m 52.484375,46.6875 v -62.265625 h 8.59375 v -5.21875 h -26.0625 v 5.21875 H 43.5 v 23.6875 q -2.625,-4.890625 -6.703125,-7.21875 -4.078125,-2.3125 -10.09375,-2.3125 -9.5625,0 -15.640625,7.59375 -6.078125,7.59375 -6.078125,19.8125 0,12.203125 6.046875,19.765625 6.0625,7.578125 15.671875,7.578125 6.015625,0 10.09375,-2.328125 Q 40.875,48.6875 43.5,43.796875 V 51.90625 H 61.078125 V 46.6875 Z M 43.5,28.515625 q 0,9.328125 -3.59375,14.25 -3.578125,4.9375 -10.40625,4.9375 -6.9375,0 -10.484375,-5.46875 -3.53125,-5.46875 -3.53125,-16.25 0,-10.75 3.53125,-16.265625 Q 22.5625,4.203125 29.5,4.203125 q 6.828125,0 10.40625,4.90625 Q 43.5,14.015625 43.5,23.390625 Z"
             id="DejaVuSerif-113" />
          <path
             d="M 35.40625,51.90625 H 52.203125 V 5.171875 H 60.6875 V 0 H 43.21875 V 9.1875 Q 40.71875,4 36.765625,1.28125 32.8125,-1.421875 27.59375,-1.421875 q -8.640625,0 -12.71875,4.90625 -4.078125,4.921875 -4.078125,15.40625 V 46.6875 H 2.6875 v 5.21875 H 19.828125 V 21.6875 q 0,-9.484375 2.3125,-13 2.328125,-3.515625 8.28125,-3.515625 6.25,0 9.515625,4.59375 3.28125,4.59375 3.28125,13.328125 V 46.6875 h -7.8125 z"
             id="DejaVuSerif-117" />
          <path
             d="m 4.109375,0 v 5.171875 h 8.09375 V 46.6875 h -8.59375 v 5.21875 H 21.1875 v -9.234375 q 2.5,5.28125 6.46875,7.96875 3.984375,2.6875 9.265625,2.6875 8.59375,0 12.640625,-4.9375 4.046875,-4.9375 4.046875,-15.375 V 5.171875 H 61.625 V 0 H 36.8125 v 5.171875 h 7.765625 v 25 q 0,9.53125 -2.34375,13.0625 -2.34375,3.546875 -8.25,3.546875 -6.25,0 -9.53125,-4.578125 Q 21.1875,37.640625 21.1875,28.90625 V 5.171875 H 29 V 0 Z"
             id="DejaVuSerif-110" />
          <path
             d="M 21.578125,-9.515625 25,-0.875 5.609375,46.6875 h -5.90625 v 5.21875 h 23.875 V 46.6875 H 15.28125 L 29.890625,10.984375 44.484375,46.6875 H 36.71875 v 5.21875 H 56.203125 V 46.6875 h -5.8125 L 26.609375,-11.71875 Q 24.171875,-17.78125 21.1875,-20 q -2.96875,-2.21875 -8.390625,-2.21875 -2.296875,0 -4.71875,0.390625 -2.40625,0.390625 -4.859375,1.125 v 9.90625 H 7.8125 q 0.296875,-3.3125 1.6875,-4.75 Q 10.890625,-17 13.8125,-17 q 2.6875,0 4.328125,1.5 1.640625,1.484375 3.4375,5.984375 z"
             id="DejaVuSerif-121" />
        </defs>
        <use
           xlink:href="#DejaVuSerif-70"
           id="use13503" />
        <use
           x="69.384766"
           xlink:href="#DejaVuSerif-114"
           id="use13505" />
        <use
           x="117.1875"
           xlink:href="#DejaVuSerif-101"
           id="use13507" />
        <use
           x="176.36719"
           xlink:href="#DejaVuSerif-113"
           id="use13509" />
        <use
           x="240.38086"
           xlink:href="#DejaVuSerif-117"
           id="use13511" />
        <use
           x="304.78516"
           xlink:href="#DejaVuSerif-101"
           id="use13513" />
        <use
           x="363.96484"
           xlink:href="#DejaVuSerif-110"
           id="use13515" />
        <use
           x="428.36914"
           xlink:href="#DejaVuSerif-99"
           id="use13517" />
        <use
           x="484.375"
           xlink:href="#DejaVuSerif-121"
           id="use13519" />
      </g>
    </g>
  </g>
  <g
     id="line2d_31">
    <path
       clip-path="url(#p0287743e2f)"
       d="M 73.832727,302.46646 H 398.48727 v 0"
       style="fill:none;stroke:#9acd32;stroke-width:3;stroke-linecap:square"
       id="path13525" />
  </g>
  <g
     id="line2d_32">
    <path
       clip-path="url(#p0287743e2f)"
       d="m 73.832727,302.46646 128.238543,-0.10631 1.29862,-0.22908 0.97396,-0.41156 2.59724,-1.40025 1.13629,-0.1496 2.43491,-0.009 3.89585,-0.0784 4.22051,-0.32853 14.2848,-1.29837 4.38284,-0.0607 4.38284,0.17002 5.19447,0.44296 11.68756,1.0979 3.73353,0.052 2.75956,0.0719 0.97397,0.238 0.81163,0.40789 1.94793,1.14795 0.97397,0.25462 1.46094,0.13484 3.89585,0.0445 73.53426,0.009 h 49.83447 v 0"
       style="fill:none;stroke:#ffa500;stroke-width:3;stroke-linecap:square"
       id="path13528" />
  </g>
  <g
     id="line2d_33">
    <path
       clip-path="url(#p0287743e2f)"
       d="m 73.832727,302.46646 124.180363,-0.10157 1.13629,-0.23574 0.64931,-0.32974 0.48698,-0.44254 0.48698,-0.73109 0.48699,-1.20226 0.48698,-1.96471 0.48698,-3.18254 0.48698,-5.08927 0.48698,-7.98151 0.48698,-12.1437 0.48699,-17.60822 0.64931,-32.75274 1.62327,-90.88589 0.64931,-23.27297 0.64931,-15.750028 0.64931,-10.642617 0.6493,-7.354419 0.64931,-5.234701 0.81164,-4.634157 0.81164,-3.270316 0.81163,-2.386702 0.81164,-1.790102 0.97396,-1.608047 0.97397,-1.198413 1.13629,-1.039828 1.29862,-0.860572 1.46094,-0.681931 1.7856,-0.557996 2.11026,-0.407537 2.75956,-0.288624 4.05818,-0.173177 7.62938,-0.05702 7.95404,0.122772 3.73353,0.269913 2.43491,0.384696 1.94792,0.529586 1.46095,0.603712 1.29862,0.759018 1.13629,0.911561 0.97396,1.042285 0.97396,1.384432 0.81164,1.522854 0.81164,2.00252 0.81163,2.697415 0.64931,2.886983 0.64931,3.836679 0.64931,5.234701 0.64931,7.354419 0.64931,10.642617 0.64931,15.750024 0.64931,23.27297 0.64931,32.49246 1.7856,97.68627 0.64931,19.69455 0.48698,9.21742 0.48698,5.92821 0.48698,3.72793 0.48698,2.31005 0.48698,1.41724 0.48699,0.86344 0.64931,0.6469 0.6493,0.32974 0.97397,0.21669 1.7856,0.10254 7.1424,0.0181 115.25236,1e-5 v 0"
       style="fill:none;stroke:#ff1493;stroke-width:3;stroke-linecap:square"
       id="path13531" />
  </g>
  <g
     id="patch_3">
    <path
       d="M 57.6,307.584 V 41.472"
       style="fill:none;stroke:#000000;stroke-width:0.8;stroke-linecap:square;stroke-linejoin:miter"
       id="path13534" />
  </g>
  <g
     id="patch_4">
    <path
       d="M 414.72,307.584 V 41.472"
       style="fill:none;stroke:#000000;stroke-width:0.8;stroke-linecap:square;stroke-linejoin:miter"
       id="path13537" />
  </g>
  <g
     id="patch_5">
    <path
       d="M 57.6,307.584 H 414.72"
       style="fill:none;stroke:#000000;stroke-width:0.8;stroke-linecap:square;stroke-linejoin:miter"
       id="path13540" />
  </g>
  <g
     id="patch_6">
    <path
       d="M 57.6,41.472 H 414.72"
       style="fill:none;stroke:#000000;stroke-width:0.8;stroke-linecap:square;stroke-linejoin:miter"
       id="path13543" />
  </g>
  <g
     id="text_18">
    <!-- t = 600 -->
    <g
       transform="matrix(0.15,0,0,-0.15,357.95672,35.472)"
       id="g13565">
      <defs
         id="defs13549">
        <path
           d="M 10.796875,46.6875 H 2.875 v 5.21875 h 7.921875 v 16.109375 h 9.03125 V 51.90625 H 36.71875 V 46.6875 H 19.828125 V 13.71875 q 0,-6.59375 1.265625,-8.453125 1.265625,-1.84375 4.6875,-1.84375 3.515625,0 5.125,2.0625 1.609375,2.078125 1.71875,6.71875 h 6.78125 Q 39.015625,5.125 35.546875,1.84375 32.078125,-1.421875 25,-1.421875 q -7.765625,0 -10.984375,3.4375 -3.21875,3.453125 -3.21875,11.703125 z"
           id="DejaVuSerif-116" />
        <path
           id="DejaVuSerif-32"
           d="" />
        <path
           d="M 10.59375,45.21875 H 73.1875 v -7.8125 H 10.59375 Z m 0,-19.921875 H 73.1875 v -7.8125 H 10.59375 Z"
           id="DejaVuSerif-61" />
      </defs>
      <use
         xlink:href="#DejaVuSerif-116"
         id="use13551" />
      <use
         x="40.185547"
         xlink:href="#DejaVuSerif-32"
         id="use13553" />
      <use
         x="71.972656"
         xlink:href="#DejaVuSerif-61"
         id="use13555" />
      <use
         x="155.76172"
         xlink:href="#DejaVuSerif-32"
         id="use13557" />
      <path
         d="m 220.26758,3.421875 q 6.875,0 10.57812,5.046875 3.71875,5.0625 3.71875,14.53125 0,9.46875 -3.71875,14.515625 -3.70312,5.0625 -10.57812,5.0625 -6.98438,0 -10.65625,-4.890625 -3.65625,-4.875 -3.65625,-14.109375 0,-9.703125 3.70312,-14.9375 3.71875,-5.21875 10.60938,-5.21875 z m -15.92188,36.71875 q 3.32813,3.65625 7.51563,5.453125 4.20312,1.8125 9.48437,1.8125 10.875,0 17.20313,-6.546875 6.32812,-6.53125 6.32812,-17.859375 0,-11.078125 -6.8125,-17.75 -6.8125,-6.671875 -18.1875,-6.671875 -12.35937,0 -19,9.203125 -6.64062,9.21875 -6.64062,26.296875 0,19.140625 7.85937,29.640625 7.85938,10.5 22.17188,10.5 3.85937,0 8.10937,-0.734375 4.25,-0.734375 8.6875,-2.1875 V 59.28125 h -5.51562 q -0.59375,4.921875 -3.76563,7.515625 -3.17187,2.59375 -8.54687,2.59375 -9.46875,0 -14.10938,-7.1875 -4.64062,-7.171875 -4.78125,-22.0625 z"
         id="use13559" />
      <path
         d="m 282.95312,3.421875 q 7.48438,0 11.1875,8.203125 3.71875,8.203125 3.71875,24.75 0,16.609375 -3.71875,24.8125 -3.70312,8.203125 -11.1875,8.203125 -7.46875,0 -11.1875,-8.203125 -3.70312,-8.203125 -3.70312,-24.8125 0,-16.546875 3.70312,-24.75 3.71875,-8.203125 11.1875,-8.203125 z m 0,-4.84375 q -11.85937,0 -18.53125,9.953125 -6.65625,9.96875 -6.65625,27.84375 0,17.921875 6.65625,27.875 6.67188,9.96875 18.53125,9.96875 11.92188,0 18.5625,-9.96875 6.64063,-9.953125 6.64063,-27.875 0,-17.875 -6.64063,-27.84375 -6.64062,-9.953125 -18.5625,-9.953125 z"
         id="use13561" />
      <path
         d="m 346.57617,3.421875 q 7.48438,0 11.1875,8.203125 3.71875,8.203125 3.71875,24.75 0,16.609375 -3.71875,24.8125 -3.70312,8.203125 -11.1875,8.203125 -7.46875,0 -11.1875,-8.203125 -3.70312,-8.203125 -3.70312,-24.8125 0,-16.546875 3.70312,-24.75 3.71875,-8.203125 11.1875,-8.203125 z m 0,-4.84375 q -11.85937,0 -18.53125,9.953125 -6.65625,9.96875 -6.65625,27.84375 0,17.921875 6.65625,27.875 6.67188,9.96875 18.53125,9.96875 11.92188,0 18.5625,-9.96875 6.64063,-9.953125 6.64063,-27.875 0,-17.875 -6.64063,-27.84375 -6.64062,-9.953125 -18.5625,-9.953125 z"
         id="use13563" />
    </g>
  </g>
  <g
     id="legend_1">
    <g
       id="patch_7">
      <path
         d="m 317.88,103.91325 h 88.44 q 2.4,0 2.4,-2.4 V 49.872 q 0,-2.4 -2.4,-2.4 h -88.44 q -2.4,0 -2.4,2.4 v 51.64125 q 0,2.4 2.4,2.4 z"
         style="opacity:0.8;fill:#ffffff;stroke:#cccccc;stroke-linejoin:miter"
         id="path13568" />
    </g>
    <g
       id="line2d_34">
      <path
         d="m 320.28,57.190125 h 24"
         style="fill:none;stroke:#9acd32;stroke-width:3;stroke-linecap:square"
         id="path13571" />
    </g>
    <g
       id="line2d_35" />
    <g
       id="text_19">
      <!-- $X_A$ -->
      <g
         transform="matrix(0.12,0,0,-0.12,353.88,61.390125)"
         id="g13583">
        <defs
           id="defs13577">
          <path
             d="m 13.71875,72.90625 h 9.96875 l 12.5,-26.328125 22.609375,26.328125 H 70.3125 L 40.28125,38.09375 58.40625,0 H 48.484375 L 33.796875,30.71875 7.171875,0 H -4.296875 L 29.78125,39.203125 Z"
             id="DejaVuSans-Oblique-88" />
          <path
             d="M 36.8125,72.90625 H 48 L 61.53125,0 H 51.21875 L 48.1875,18.703125 H 15.375 L 5.078125,0 H -5.328125 Z M 40.375,63.1875 19.921875,26.90625 H 46.6875 Z"
             id="DejaVuSans-Oblique-65" />
        </defs>
        <use
           transform="translate(0,0.09375)"
           xlink:href="#DejaVuSans-Oblique-88"
           id="use13579" />
        <use
           transform="matrix(0.7,0,0,0.7,68.505859,-16.3125)"
           xlink:href="#DejaVuSans-Oblique-65"
           id="use13581" />
      </g>
    </g>
    <g
       id="line2d_36">
      <path
         d="m 320.28,74.803875 h 24"
         style="fill:none;stroke:#ffa500;stroke-width:3;stroke-linecap:square"
         id="path13586" />
    </g>
    <g
       id="line2d_37" />
    <g
       id="text_20">
      <!-- $X_B$ -->
      <g
         transform="matrix(0.12,0,0,-0.12,353.88,79.003875)"
         id="g13597">
        <defs
           id="defs13591">
          <path
             d="M 16.890625,72.90625 H 42.09375 q 10.25,0 15.328125,-3.8125 Q 62.5,65.28125 62.5,57.625 62.5,50.59375 58.125,45.484375 53.765625,40.375 46.6875,39.3125 q 6.046875,-1.375 9.078125,-5.234375 3.03125,-3.859375 3.03125,-10.296875 0,-10.984375 -8.140625,-17.390625 Q 42.53125,0 28.421875,0 H 2.6875 Z M 19.28125,34.8125 14.109375,8.109375 h 15.875 q 8.9375,0 13.765625,4.09375 4.828125,4.109375 4.828125,11.578125 0,5.765625 -3.203125,8.390625 Q 42.1875,34.8125 35.109375,34.8125 Z m 5.8125,29.984375 -4.296875,-21.96875 H 35.5 q 7.859375,0 12.28125,3.40625 4.421875,3.421875 4.421875,9.484375 0,4.734375 -2.984375,6.90625 -2.984375,2.171875 -9.515625,2.171875 z"
             id="DejaVuSans-Oblique-66" />
        </defs>
        <use
           transform="translate(0,0.09375)"
           xlink:href="#DejaVuSans-Oblique-88"
           id="use13593" />
        <use
           transform="matrix(0.7,0,0,0.7,68.505859,-16.3125)"
           xlink:href="#DejaVuSans-Oblique-66"
           id="use13595" />
      </g>
    </g>
    <g
       id="line2d_38">
      <path
         d="m 320.28,92.417625 h 24"
         style="fill:none;stroke:#ff1493;stroke-width:3;stroke-linecap:square"
         id="path13600" />
    </g>
    <g
       id="line2d_39" />
    <g
       id="text_21">
      <!-- $X_C$ or $X_D$ -->
      <g
         transform="matrix(0.12,0,0,-0.12,353.88,96.617625)"
         id="g13625">
        <defs
           id="defs13607">
          <path
             d="m 69.484375,67.28125 -2,-10.390625 q -4.6875,4.734375 -9.9375,7.03125 -5.25,2.296875 -11.359375,2.296875 -8.34375,0 -14.671875,-4.015625 -6.3125,-4 -10.90625,-12.203125 Q 17.671875,44.734375 16.125,38.84375 14.59375,32.953125 14.59375,27 14.59375,17.046875 19.75,11.8125 24.90625,6.59375 34.71875,6.59375 41.5,6.59375 47.75,8.765625 54,10.9375 59.90625,15.28125 L 57.625,3.609375 q -5.8125,-2.484375 -11.75,-3.75 -5.9375,-1.28125 -11.890625,-1.28125 -14.015625,0 -21.90625,7.609375 -7.875,7.625 -7.875,21.203125 0,8.6875 3,17.078125 3,8.40625 8.625,15.34375 5.953125,7.375 13.59375,10.890625 7.640625,3.515625 17.796875,3.515625 6.25,0 11.84375,-1.734375 Q 64.65625,70.75 69.484375,67.28125 Z"
             id="DejaVuSans-Oblique-67" />
          <path
             d="m 30.078125,3.421875 q 7.234375,0 10.90625,5.703125 3.6875,5.71875 3.6875,16.859375 0,11.125 -3.6875,16.8125 -3.671875,5.6875 -10.90625,5.6875 -7.21875,0 -10.90625,-5.6875 -3.6875,-5.6875 -3.6875,-16.8125 0,-11.140625 3.703125,-16.859375 3.71875,-5.703125 10.890625,-5.703125 z m 0,-4.84375 q -11.328125,0 -18.21875,7.5 -6.875,7.5 -6.875,19.90625 0,12.390625 6.859375,19.859375 6.859375,7.484375 18.234375,7.484375 11.375,0 18.234375,-7.484375 6.859375,-7.46875 6.859375,-19.859375 0,-12.40625 -6.859375,-19.90625 -6.859375,-7.5 -18.234375,-7.5 z"
             id="DejaVuSerif-111" />
          <path
             d="M 16.890625,72.90625 H 38.09375 q 16.890625,0 25.5,-7.15625 8.625,-7.15625 8.625,-21.265625 0,-9.328125 -3.28125,-17.953125 Q 65.671875,17.921875 59.90625,12.015625 54.109375,5.953125 45.171875,2.96875 36.234375,0 24.03125,0 H 2.6875 Z m 8.3125,-8.109375 -11,-56.6875 H 27.09375 q 16.5625,0 25.640625,9.515625 9.078125,9.53125 9.078125,26.859375 0,10.5 -5.859375,15.40625 -5.859375,4.90625 -18.359375,4.90625 z"
             id="DejaVuSans-Oblique-68" />
        </defs>
        <use
           transform="translate(0,0.09375)"
           xlink:href="#DejaVuSans-Oblique-88"
           id="use13609" />
        <use
           transform="matrix(0.7,0,0,0.7,68.505859,-16.3125)"
           xlink:href="#DejaVuSans-Oblique-67"
           id="use13611" />
        <use
           transform="translate(120.11719,0.09375)"
           xlink:href="#DejaVuSerif-32"
           id="use13613" />
        <use
           transform="translate(151.9043,0.09375)"
           xlink:href="#DejaVuSerif-111"
           id="use13615" />
        <use
           transform="translate(212.10937,0.09375)"
           xlink:href="#DejaVuSerif-114"
           id="use13617" />
        <use
           transform="translate(259.91211,0.09375)"
           xlink:href="#DejaVuSerif-32"
           id="use13619" />
        <use
           transform="translate(291.69922,0.09375)"
           xlink:href="#DejaVuSans-Oblique-88"
           id="use13621" />
        <use
           transform="matrix(0.7,0,0,0.7,360.20508,-16.3125)"
           xlink:href="#DejaVuSans-Oblique-68"
           id="use13623" />
      </g>
    </g>
  </g>
  <defs
     id="defs13634">
    <clipPath
       id="p0287743e2f">
      <rect
         height="266.112"
         width="357.12"
         x="57.6"
         y="41.472"
         id="rect13631" />
    </clipPath>
  </defs>
</svg>
